<!-- Creator: CorelDRAW -->
<svg xmlns:inkscape="http://www.inkscape.org/namespaces/inkscape" xmlns:rdf="http://www.w3.org/1999/02/22-rdf-syntax-ns#" style="image-rendering:optimizeQuality;text-rendering:geometricPrecision;shape-rendering:geometricPrecision;" xmlns="http://www.w3.org/2000/svg" fill-rule="evenodd" sodipodi:docname="9-BBN_dimer_structure.svg" xml:space="preserve" height="390px" width="150px" version="1.1" clip-rule="evenodd" xmlns:cc="http://creativecommons.org/ns#" xmlns:dc="http://purl.org/dc/elements/1.1/" inkscape:version="0.48.3.1 r9886" viewBox="0 0 300 765.339" xmlns:sodipodi="http://sodipodi.sourceforge.net/DTD/sodipodi-0.dtd"><metadata><rdf:RDF><cc:Work rdf:about=""><dc:format>image/svg+xml</dc:format><dc:type rdf:resource="http://purl.org/dc/dcmitype/StillImage"/><dc:title/></cc:Work></rdf:RDF></metadata><sodipodi:namedview bordercolor="#666666" inkscape:pageshadow="2" guidetolerance="10" pagecolor="#ffffff" gridtolerance="10" inkscape:window-maximized="1" inkscape:zoom="0.60512821" objecttolerance="10" borderopacity="1" inkscape:current-layer="svg4505" inkscape:cx="75" inkscape:cy="180.12712" inkscape:window-y="29" inkscape:window-x="0" inkscape:window-width="1280" showgrid="false" inkscape:pageopacity="0" inkscape:window-height="975"/>
 <defs>
  <style type="text/css">
    .str0 {stroke:black;stroke-width:6.72112}
    .fil0 {fill:none}
    .fil1 {fill:black;fill-rule:nonzero}
  </style>
   <clipPath id="id0">
    <rect y="-7.0279" x="-7.0279" height="779.39" width="314.06"/>
   </clipPath>
 </defs>
  <g style="clip-path:url(#id0);" clip-path="url(#id0)">
   <line y2="652.39" x2="242.02" y1="626.26" x1="136.13" class="fil0 str0"/>
   <line y2="751.01" class="fil0 str0" x2="285.72" y1="652.39" x1="242.02"/>
   <line y2="590.02" class="fil0 str0" x2="256.3" y1="751.01" x1="285.72"/>
   <line y2="556.3" class="fil0 str0" x2="172.27" y1="590.02" x1="256.3"/>
   <line y2="498.14" class="fil0 str0" x2="157.98" y1="556.3" x1="172.27"/>
   <line y2="589.18" class="fil0 str0" x2="61.345" y1="569.79" x1="127.73"/>
   <line y2="560.52" class="fil0 str0" x2="157.98" y1="556.3" x1="172.27"/>
   <line y2="748.48" class="fil0 str0" x2="31.932" y1="589.18" x1="61.345"/>
   <line y2="747.64" class="fil0 str0" x2="32.773" y1="653.24" x1="74.791"/>
   <line y2="653.24" class="fil0 str0" x2="74.791" y1="626.26" x1="136.13"/>
   <line y2="498.14" class="fil0 str0" x2="149.58" y1="626.26" x1="136.13"/>
   <path d="M130.27,487.19v-49.476h18.568c3.7789,0,6.8088,0.50797,9.0896,1.498,2.2928,1.002,4.0777,2.5458,5.3665,4.6315,1.2908,2.0737,1.9482,4.251,1.9482,6.5319,0,2.1076-0.5757,4.0996-1.7291,5.9661-1.1394,1.8665-2.8785,3.3745-5.1952,4.5279,2.996,0.8745,5.2888,2.3725,6.9004,4.4801,1.6136,2.1195,2.4203,4.6195,2.4203,7.5,0,2.3147-0.49602,4.4681-1.4761,6.4622-0.97809,1.992-2.1872,3.5239-3.6275,4.6076-1.4402,1.0817-3.249,1.8884-5.4143,2.4422-2.1653,0.55179-4.8267,0.82868-7.9821,0.82868h-18.868zm6.5538-28.683h10.701c2.8904,0,4.9761-0.19522,6.243-0.5757,1.6594-0.49602,2.9143-1.3128,3.755-2.4641,0.84263-1.1534,1.2669-2.5936,1.2669-4.3207,0-1.6355-0.39044-3.0876-1.1733-4.3307-0.79482-1.257-1.9243-2.1076-3.3765-2.5697-1.4622-0.46016-3.9741-0.69124-7.5339-0.69124h-9.8825v14.952zm0,22.843h12.315c2.1195,0,3.6056-0.079681,4.4562-0.22908,1.51-0.27689,2.7649-0.72709,3.7789-1.3606,1.0139-0.62151,1.8426-1.5438,2.5-2.741,0.64542-1.2092,0.98008-2.5916,0.98008-4.1693,0-1.8446-0.4741-3.4442-1.4183-4.8167-0.94422-1.3586-2.257-2.3147-3.9382-2.8665-1.6713-0.54183-4.0896-0.81872-7.2351-0.81872h-11.438v17.002z" class="fil1"/>
   <polygon points="42.504,412.17,42.504,362.69,49.058,362.69,49.058,383.01,74.769,383.01,74.769,362.69,81.323,362.69,81.323,412.17,74.769,412.17,74.769,388.86,49.058,388.86,49.058,412.17" class="fil1"/>
   <line y2="412.17" class="fil0 str0" x2="94.118" y1="434.93" x1="119.33"/>
   <line y2="112.95" class="fil0 str0" x2="57.984" y1="139.08" x1="163.87"/>
   <line y2="14.329" class="fil0 str0" x2="14.285" y1="112.95" x1="57.984"/>
   <line y2="175.32" class="fil0 str0" x2="43.697" y1="14.329" x1="14.285"/>
   <line y2="209.04" class="fil0 str0" x2="128.57" y1="175.32" x1="43.697"/>
   <line y2="268.04" class="fil0 str0" x2="142.02" y1="209.04" x1="128.57"/>
   <line y2="176.16" class="fil0 str0" x2="238.66" y1="195.55" x1="173.11"/>
   <line y2="204.82" class="fil0 str0" x2="142.86" y1="209.04" x1="128.57"/>
   <line y2="16.014" class="fil0 str0" x2="268.07" y1="176.16" x1="238.66"/>
   <line y2="16.859" class="fil0 str0" x2="267.23" y1="112.1" x1="225.21"/>
   <line y2="112.1" class="fil0 str0" x2="225.21" y1="139.08" x1="163.87"/>
   <line y2="271.41" class="fil0 str0" x2="150.42" y1="139.08" x1="163.87"/>
   <path d="M131.11,331.25v-49.476h18.568c3.7789,0,6.8088,0.50797,9.0896,1.498,2.2928,1.002,4.0777,2.5458,5.3665,4.6315,1.2908,2.0737,1.9482,4.251,1.9482,6.5319,0,2.1076-0.5757,4.0996-1.7291,5.9661-1.1394,1.8665-2.8785,3.3745-5.1952,4.5279,2.996,0.8745,5.2888,2.3725,6.9004,4.4801,1.6136,2.1195,2.4203,4.6195,2.4203,7.5,0,2.3147-0.49602,4.4681-1.4761,6.4622-0.97809,1.992-2.1872,3.5239-3.6275,4.6076-1.4402,1.0817-3.249,1.8884-5.4143,2.4422-2.1653,0.55179-4.8267,0.82868-7.9821,0.82868h-18.868zm6.5538-28.683h10.701c2.8904,0,4.9761-0.19522,6.243-0.5757,1.6594-0.49602,2.9143-1.3128,3.755-2.4641,0.84263-1.1534,1.2669-2.5936,1.2669-4.3207,0-1.6355-0.39044-3.0876-1.1733-4.3307-0.79482-1.257-1.9243-2.1076-3.3765-2.5697-1.4622-0.46016-3.9741-0.69124-7.5339-0.69124h-9.8825v14.952zm0,22.843h12.315c2.1195,0,3.6056-0.079681,4.4562-0.22908,1.51-0.27689,2.7649-0.72709,3.7789-1.3606,1.0139-0.62151,1.8426-1.5438,2.5-2.741,0.64542-1.2092,0.98008-2.5916,0.98008-4.1693,0-1.8446-0.4741-3.4442-1.4183-4.8167-0.94422-1.3586-2.257-2.3147-3.9382-2.8665-1.6713-0.54183-4.0896-0.81872-7.2351-0.81872h-11.438v17.002z" class="fil1"/>
   <polygon points="208.05,409.64,208.05,360.16,214.61,360.16,214.61,380.49,240.32,380.49,240.32,360.16,246.87,360.16,246.87,409.64,240.32,409.64,240.32,386.33,214.61,386.33,214.61,409.64" class="fil1"/>
   <line y2="354.01" class="fil0 str0" x2="199.16" y1="331.25" x1="176.47"/>
   <line y2="332.94" class="fil0 str0" x2="119.33" y1="358.22" x1="91.598"/>
   <line y2="413.01" class="fil0 str0" x2="196.64" y1="437.46" x1="173.11"/>
  </g>
   <polygon points="0,0,300,0,300,765.34,0,765.34" class="fil0"/>
</svg>
