<?xml version="1.0" encoding="UTF-8" standalone="no"?>
<svg
   xmlns:cdml="http://www.freesoftware.fsf.org/bkchem/cdml"
   xmlns:dc="http://purl.org/dc/elements/1.1/"
   xmlns:cc="http://creativecommons.org/ns#"
   xmlns:rdf="http://www.w3.org/1999/02/22-rdf-syntax-ns#"
   xmlns:svg="http://www.w3.org/2000/svg"
   xmlns="http://www.w3.org/2000/svg"
   xmlns:sodipodi="http://sodipodi.sourceforge.net/DTD/sodipodi-0.dtd"
   xmlns:inkscape="http://www.inkscape.org/namespaces/inkscape"
   height="33.63516mm"
   version="1.0"
   viewBox="0 0 164 127"
   width="43.43438mm"
   id="svg4201"
   inkscape:version="0.48.0 r9654"
   sodipodi:docname="acetyl is.svg">
  <metadata
     id="metadata4231">
    <rdf:RDF>
      <cc:Work
         rdf:about="">
        <dc:format>image/svg+xml</dc:format>
        <dc:type
           rdf:resource="http://purl.org/dc/dcmitype/StillImage" />
        <dc:title></dc:title>
      </cc:Work>
    </rdf:RDF>
  </metadata>
  <defs
     id="defs4229" />
  <sodipodi:namedview
     pagecolor="#ffffff"
     bordercolor="#666666"
     borderopacity="1"
     objecttolerance="10"
     gridtolerance="10"
     guidetolerance="10"
     inkscape:pageopacity="0"
     inkscape:pageshadow="2"
     inkscape:window-width="640"
     inkscape:window-height="480"
     id="namedview4227"
     showgrid="false"
     inkscape:zoom="2.2067517"
     inkscape:cx="76.950676"
     inkscape:cy="59.589848"
     inkscape:window-x="0"
     inkscape:window-y="0"
     inkscape:window-maximized="0"
     inkscape:current-layer="svg4201" />
  <g
     font-family="Helvetica"
     font-size="12pt"
     stroke-linecap="round"
     transform="translate(-413,-68)"
     id="g4203">
    <g
       stroke="#000000"
       stroke-width="2.26548672566"
       id="g4205">
      <path
         style=""
         d="M 477.22,118.43 445,99.830002"
         id="line4207" />
    </g>
    <g
       stroke="#000000"
       stroke-width="2.26548672566"
       id="g4209">
      <path
         style=""
         d="m 480.22,118.43 0,33.57"
         id="line4211" />
      <path
         style=""
         d="m 474.22,118.43 0,33.57"
         id="line4213" />
    </g>
    <g
       stroke="#000000"
       stroke-width="2.26548672566"
       id="g4215">
      <path
         style=""
         d="M 477.22,118.43 510,99.510002"
         id="line4217" />
    </g>
    <g
       style="font-size:30px;fill:#000000;font-family:helvetica"
       id="text4219">
      <path
         d="m 465.75018,167.83101 c 0,-3.56444 0.95703,-6.35496 2.8711,-8.37158 1.91405,-2.01658 4.38475,-3.02488 7.41211,-3.02491 1.9824,3e-5 3.76951,0.47366 5.36132,1.4209 1.59178,0.94729 2.80516,2.26809 3.64014,3.96241 0.83494,1.69435 1.25242,3.61573 1.25244,5.76416 -2e-5,2.17774 -0.43947,4.12598 -1.31836,5.84472 -0.87892,1.71876 -2.12404,3.02002 -3.73535,3.90381 -1.61134,0.88379 -3.34962,1.32568 -5.21484,1.32568 -2.0215,0 -3.82814,-0.48828 -5.41992,-1.46484 -1.59181,-0.97656 -2.79786,-2.30957 -3.61817,-3.99902 -0.82031,-1.68945 -1.23047,-3.47656 -1.23047,-5.36133 z m 2.92969,0.0439 c 0,2.5879 0.6958,4.62647 2.0874,6.11573 1.3916,1.48926 3.1372,2.23389 5.23682,2.23388 2.13866,1e-5 3.89891,-0.75195 5.28076,-2.25586 1.38182,-1.5039 2.07274,-3.63768 2.07275,-6.40136 -10e-6,-1.74804 -0.29542,-3.27391 -0.88623,-4.57764 -0.59083,-1.30369 -1.45509,-2.31444 -2.59277,-3.03223 -1.13771,-0.71775 -2.41456,-1.07664 -3.83057,-1.07666 -2.01172,2e-5 -3.74268,0.69094 -5.19287,2.07276 -1.4502,1.38185 -2.17529,3.68898 -2.17529,6.92138 z"
         style="font-size:30px;fill:#000000;font-family:helvetica"
         id="path4238" />
    </g>
    <g
       style="font-size:30px;fill:#000000;font-family:helvetica"
       id="text4221">
      <path
         d="m 421.65839,99 0,-21.474609 9.52148,0 c 1.91405,2.1e-5 3.36913,0.192892 4.36523,0.578613 0.99608,0.385763 1.79198,1.066914 2.3877,2.043457 0.59568,0.97658 0.89354,2.055681 0.89355,3.237305 -10e-6,1.523451 -0.49318,2.80763 -1.47949,3.852539 -0.98634,1.044932 -2.50978,1.708994 -4.57031,1.992187 0.75194,0.361338 1.32323,0.717783 1.71387,1.069336 0.83006,0.761727 1.61619,1.713874 2.3584,2.856445 L 440.58417,99 l -3.57422,0 -2.8418,-4.467773 c -0.83009,-1.289057 -1.51368,-2.275384 -2.05078,-2.958985 -0.53712,-0.683585 -1.01808,-1.162101 -1.44287,-1.435547 -0.42482,-0.273428 -0.85694,-0.463858 -1.29639,-0.571289 -0.32227,-0.06835 -0.84962,-0.102529 -1.58203,-0.102539 l -3.2959,0 0,9.536133 z m 2.84179,-11.99707 6.1084,0 c 1.29882,1.2e-5 2.31444,-0.134266 3.04688,-0.402832 0.7324,-0.268542 1.28904,-0.698229 1.66992,-1.289063 0.38084,-0.590806 0.57127,-1.232895 0.57129,-1.926269 -2e-5,-1.015609 -0.36867,-1.850569 -1.10596,-2.504883 -0.73732,-0.654278 -1.90187,-0.981426 -3.49365,-0.981446 l -6.79688,0 z"
         style="font-size:30px;fill:#000000;font-family:helvetica"
         id="path4241" />
    </g>
    <g
       style="font-size:30px;fill:#000000;font-family:helvetica"
       id="text4223">
      <path
         d="m 528.93671,91.470703 2.84179,0.717774 c -0.59572,2.333988 -1.6675,4.113772 -3.21533,5.339355 -1.54787,1.225586 -3.43995,1.838379 -5.67627,1.838379 -2.31446,0 -4.19678,-0.471191 -5.64697,-1.413574 -1.4502,-0.942381 -2.55372,-2.307126 -3.31055,-4.094239 -0.75684,-1.787102 -1.13525,-3.706045 -1.13525,-5.756836 0,-2.236314 0.42724,-4.186996 1.28174,-5.85205 0.85449,-1.665021 2.0703,-2.929668 3.64746,-3.793946 1.57714,-0.864236 3.31298,-1.296364 5.20752,-1.296386 2.14842,2.2e-5 3.95506,0.546896 5.41992,1.640625 1.46482,1.093769 2.48533,2.631853 3.06152,4.614257 l -2.79785,0.65918 c -0.49806,-1.562483 -1.22072,-2.700177 -2.16797,-3.413086 -0.94728,-0.712871 -2.13868,-1.069316 -3.57422,-1.069336 -1.6504,2e-5 -3.02979,0.395527 -4.13818,1.186524 -1.1084,0.791033 -1.88721,1.853043 -2.33643,3.186035 -0.44922,1.333021 -0.67383,2.707532 -0.67382,4.123535 -1e-5,1.826181 0.2661,3.420418 0.79834,4.782715 0.53222,1.362309 1.35985,2.380375 2.48291,3.054199 1.12303,0.673831 2.33885,1.010744 3.64746,1.010742 1.59178,2e-6 2.93944,-0.458982 4.04297,-1.376953 1.10349,-0.917964 1.85056,-2.280268 2.24121,-4.086914 z"
         style="font-size:30px;fill:#000000;font-family:helvetica"
         id="path4244" />
      <path
         d="m 535.38202,99 0,-21.474609 2.8418,0 0,8.818359 11.16211,0 0,-8.818359 2.84179,0 0,21.474609 -2.84179,0 0,-10.12207 -11.16211,0 0,10.12207 z"
         style="font-size:30px;fill:#000000;font-family:helvetica"
         id="path4246" />
      <path
         d="m 555.60419,100.74829 1.97754,-0.26367 c 0.22704,1.12061 0.6134,1.9281 1.15905,2.42248 0.54565,0.49439 1.21033,0.74158 1.99402,0.74158 0.93017,0 1.71569,-0.32226 2.35657,-0.9668 0.64086,-0.64452 0.96129,-1.44286 0.9613,-2.39501 -1e-5,-0.908202 -0.29664,-1.657103 -0.88989,-2.246709 -0.59327,-0.589592 -1.34766,-0.884391 -2.26318,-0.884399 -0.37354,8e-6 -0.83863,0.07325 -1.39527,0.219726 l 0.21973,-1.73584 c 0.13183,0.01466 0.23803,0.02198 0.3186,0.02197 0.84228,9e-6 1.60034,-0.219717 2.27417,-0.65918 0.67382,-0.439442 1.01074,-1.116932 1.01075,-2.03247 -10e-6,-0.725085 -0.24537,-1.325671 -0.73609,-1.801758 -0.49073,-0.47606 -1.12427,-0.714097 -1.90063,-0.714111 -0.76905,1.4e-5 -1.40992,0.241713 -1.92261,0.725097 -0.5127,0.483412 -0.84229,1.208509 -0.98877,2.175293 l -1.97754,-0.351562 c 0.2417,-1.325671 0.79101,-2.352891 1.64795,-3.081665 0.85693,-0.728744 1.9226,-1.093124 3.19702,-1.09314 0.8789,1.6e-5 1.68823,0.188615 2.42798,0.565796 0.73974,0.377212 1.30553,0.891738 1.69739,1.543579 0.39183,0.651869 0.58776,1.344007 0.58777,2.076416 -10e-6,0.695812 -0.18678,1.329356 -0.56031,1.900635 -0.37354,0.571298 -0.92652,1.025399 -1.65893,1.362304 0.95214,0.219736 1.69188,0.675668 2.21924,1.367798 0.52733,0.692146 0.791,1.558234 0.79101,2.598267 -10e-6,1.40625 -0.5127,2.59827 -1.53808,3.57605 -1.0254,0.97778 -2.32179,1.46667 -3.88916,1.46667 -1.41358,0 -2.58729,-0.42114 -3.52112,-1.26342 -0.93384,-0.84229 -1.46668,-1.93359 -1.59851,-3.27393 z"
         style="font-size:75%;baseline-shift:sub"
         id="path4248" />
    </g>
  </g>
  <cdml:cdml
     version="0.15">
    <cdml:info>
      <cdml:author_program
         version="0.13.0">BKchem</cdml:author_program>
    </cdml:info>
    <cdml:paper
       crop_margin="5"
       crop_svg="1"
       orientation="portrait"
       replace_minus="0"
       type="Legal"
       use_real_minus="0" />
    <cdml:viewport
       viewport="0.000000 0.000000 640.000000 480.000000" />
    <cdml:standard
       area_color=""
       font_family="helvetica"
       font_size="24"
       line_color="#000"
       line_width="0.06cm"
       paper_crop_margin="5"
       paper_crop_svg="1"
       paper_orientation="portrait"
       paper_type="Legal">
      <cdml:bond
         double-ratio="0.85"
         length="1.4cm"
         wedge-width="0.18cm"
         width="0.21cm" />
      <cdml:arrow
         length="1.6cm" />
      <cdml:atom
         show_hydrogens="0" />
    </cdml:standard>
    <cdml:molecule
       id="molecule8961"
       name="">
      <cdml:atom
         id="atom93101"
         name="C"
         valency="4">
        <cdml:point
           x="12.639cm"
           y="3.137cm" />
      </cdml:atom>
      <cdml:atom
         id="atom89437"
         name="O"
         pos="center-first"
         valency="2">
        <cdml:point
           x="12.639cm"
           y="4.537cm" />
      </cdml:atom>
      <cdml:query
         id="atom9937"
         name="R"
         pos="center-last">
        <cdml:point
           x="11.426cm"
           y="2.437cm" />
      </cdml:query>
      <cdml:atom
         hydrogens="on"
         id="atom70292"
         name="C"
         pos="center-first"
         show="yes"
         valency="4">
        <cdml:point
           x="13.851cm"
           y="2.437cm" />
      </cdml:atom>
      <cdml:bond
         double_ratio="0.85"
         end="atom9937"
         id="bond90995"
         line_width="2.26548672566"
         start="atom93101"
         type="n1" />
      <cdml:bond
         bond_width="7.92920353982"
         center="yes"
         double_ratio="0.85"
         end="atom89437"
         id="bond51545"
         line_width="2.26548672566"
         start="atom93101"
         type="n2" />
      <cdml:bond
         double_ratio="0.85"
         end="atom70292"
         id="bond47396"
         line_width="2.26548672566"
         start="atom93101"
         type="n1" />
    </cdml:molecule>
  </cdml:cdml>
</svg>
