<?xml version="1.0" encoding="UTF-8" standalone="no"?>
<!-- Generator: Adobe Illustrator 12.0.1, SVG Export Plug-In . SVG Version: 6.00 Build 51448)  -->

<svg
   xmlns:dc="http://purl.org/dc/elements/1.1/"
   xmlns:cc="http://creativecommons.org/ns#"
   xmlns:rdf="http://www.w3.org/1999/02/22-rdf-syntax-ns#"
   xmlns:svg="http://www.w3.org/2000/svg"
   xmlns="http://www.w3.org/2000/svg"
   xmlns:sodipodi="http://sodipodi.sourceforge.net/DTD/sodipodi-0.dtd"
   xmlns:inkscape="http://www.inkscape.org/namespaces/inkscape"
   version="1.1"
   id="Layer_1"
   width="204.798"
   height="81.703"
   viewBox="0 0 204.798 81.703"
   style="overflow:visible;enable-background:new 0 0 204.798 81.703;"
   xml:space="preserve"
   sodipodi:version="0.32"
   inkscape:version="0.48.4 r9939"
   sodipodi:docname="Acetylaceton_-_Acetylacetone.svg"><metadata
     id="metadata52"><rdf:RDF><cc:Work
         rdf:about=""><dc:format>image/svg+xml</dc:format><dc:type
           rdf:resource="http://purl.org/dc/dcmitype/StillImage" /></cc:Work></rdf:RDF></metadata><defs
     id="defs50" /><sodipodi:namedview
     inkscape:window-height="1151"
     inkscape:window-width="1600"
     inkscape:pageshadow="2"
     inkscape:pageopacity="0.0"
     guidetolerance="10.0"
     gridtolerance="10.0"
     objecttolerance="10.0"
     borderopacity="1.0"
     bordercolor="#666666"
     pagecolor="#ffffff"
     id="base"
     inkscape:zoom="4.1064853"
     inkscape:cx="70.560113"
     inkscape:cy="40.851501"
     inkscape:window-x="0"
     inkscape:window-y="0"
     inkscape:current-layer="Layer_1"
     showgrid="false"
     inkscape:window-maximized="1" /><g
     id="g3"
     transform="matrix(0.95,0,0,0.95,5.119975,2.042625)"
     style="fill:#000000;fill-opacity:1"><path
       d="M 0,76.984 L 0,59.797 L 2.281,59.797 L 2.281,66.86 L 11.172,66.86 L 11.172,59.797 L 13.453,59.797 L 13.453,76.985 L 11.172,76.985 L 11.172,68.891 L 2.281,68.891 L 2.281,76.985 L 0,76.985 L 0,76.984 z "
       id="path5"
       style="fill:#000000;fill-opacity:1" /></g><g
     id="g7"
     transform="matrix(0.95,0,0,0.95,5.119975,2.042625)"
     style="fill:#000000;fill-opacity:1"><path
       d="M 14.461,78.078 L 16.039,77.859 C 16.222,78.755 16.531,79.402 16.967,79.797 C 17.404,80.193 17.939,80.391 18.574,80.391 C 19.327,80.391 19.96,80.133 20.473,79.618 C 20.986,79.103 21.242,78.465 21.242,77.704 C 21.242,76.977 21.004,76.379 20.526,75.907 C 20.049,75.436 19.443,75.2 18.707,75.2 C 18.406,75.2 18.032,75.259 17.585,75.376 L 17.762,73.985 C 17.868,73.997 17.953,74.003 18.018,74.003 C 18.692,74.003 19.299,73.827 19.839,73.477 C 20.379,73.126 20.649,72.585 20.649,71.854 C 20.649,71.275 20.452,70.795 20.058,70.416 C 19.664,70.036 19.156,69.846 18.533,69.846 C 17.916,69.846 17.401,70.04 16.99,70.428 C 16.578,70.817 16.314,71.399 16.197,72.174 L 14.619,71.893 C 14.812,70.831 15.253,70.008 15.939,69.424 C 16.625,68.841 17.479,68.549 18.5,68.549 C 19.204,68.549 19.853,68.699 20.445,69.001 C 21.037,69.302 21.49,69.713 21.805,70.233 C 22.118,70.754 22.276,71.306 22.276,71.891 C 22.276,72.447 22.127,72.953 21.828,73.409 C 21.529,73.865 21.087,74.227 20.501,74.497 C 21.263,74.673 21.855,75.037 22.28,75.592 C 22.704,76.145 22.917,76.838 22.917,77.67 C 22.917,78.795 22.506,79.749 21.684,80.531 C 20.862,81.314 19.823,81.705 18.567,81.705 C 17.434,81.705 16.493,81.369 15.745,80.695 C 14.994,80.021 14.567,79.148 14.461,78.078 z "
       id="path9"
       style="fill:#000000;fill-opacity:1" /></g><g
     id="g11"
     transform="matrix(0.95,0,0,0.95,5.119975,2.042625)"
     style="fill:#000000;fill-opacity:1"><path
       d="M 37.039,70.957 L 39.32,71.531 C 38.844,73.401 37.987,74.827 36.751,75.808 C 35.514,76.79 34.001,77.281 32.214,77.281 C 30.364,77.281 28.86,76.904 27.701,76.149 C 26.542,75.394 25.66,74.302 25.055,72.871 C 24.45,71.44 24.148,69.904 24.148,68.262 C 24.148,66.471 24.489,64.909 25.172,63.576 C 25.855,62.242 26.826,61.23 28.087,60.538 C 29.347,59.846 30.733,59.5 32.247,59.5 C 33.964,59.5 35.407,59.938 36.577,60.814 C 37.748,61.691 38.563,62.923 39.023,64.511 L 36.789,65.038 C 36.391,63.788 35.814,62.878 35.058,62.308 C 34.301,61.738 33.349,61.453 32.203,61.453 C 30.885,61.453 29.783,61.769 28.897,62.402 C 28.012,63.035 27.39,63.884 27.031,64.951 C 26.672,66.018 26.493,67.117 26.493,68.25 C 26.493,69.711 26.705,70.986 27.13,72.076 C 27.555,73.166 28.215,73.98 29.112,74.519 C 30.009,75.058 30.979,75.328 32.024,75.328 C 33.295,75.328 34.37,74.961 35.251,74.226 C 36.132,73.491 36.727,72.402 37.039,70.957 z "
       id="path13"
       style="fill:#000000;fill-opacity:1" /></g><path
     d="M 46.563725,61.924925 L 45.708725,60.548375 L 70.218725,46.393375 L 70.218725,48.293375 L 46.563725,61.924925 z "
     id="polygon15"
     style="fill:#000000;fill-opacity:1" /><path
     d="M 70.218725,48.293375 L 70.218725,46.393375 L 102.85123,65.249925 L 102.85123,67.103375 L 70.218725,48.293375 z "
     id="polygon17"
     style="fill:#000000;fill-opacity:1" /><path
     d="M 102.85123,67.103375 L 102.85123,65.249925 L 135.53123,46.393375 L 135.53123,48.293375 L 102.85123,67.103375 z "
     id="polygon19"
     style="fill:#000000;fill-opacity:1" /><g
     id="g21"
     transform="matrix(0.95,0,0,0.95,5.119975,2.042625)"
     style="fill:#000000;fill-opacity:1"><path
       d="M 177.119,70.957 L 179.4,71.531 C 178.923,73.401 178.067,74.827 176.831,75.808 C 175.594,76.79 174.082,77.281 172.295,77.281 C 170.445,77.281 168.941,76.904 167.781,76.149 C 166.621,75.394 165.74,74.302 165.135,72.871 C 164.531,71.44 164.228,69.904 164.228,68.262 C 164.228,66.471 164.57,64.909 165.251,63.576 C 165.935,62.242 166.905,61.23 168.166,60.538 C 169.426,59.846 170.812,59.5 172.326,59.5 C 174.043,59.5 175.486,59.938 176.656,60.814 C 177.827,61.691 178.641,62.923 179.102,64.511 L 176.868,65.038 C 176.47,63.788 175.893,62.878 175.137,62.308 C 174.381,61.738 173.428,61.453 172.282,61.453 C 170.964,61.453 169.862,61.769 168.976,62.402 C 168.091,63.035 167.468,63.884 167.11,64.951 C 166.752,66.018 166.572,67.117 166.572,68.25 C 166.572,69.711 166.785,70.986 167.209,72.076 C 167.635,73.166 168.295,73.98 169.191,74.519 C 170.087,75.058 171.058,75.328 172.103,75.328 C 173.373,75.328 174.449,74.961 175.33,74.226 C 176.211,73.491 176.806,72.402 177.119,70.957 z "
       id="path23"
       style="fill:#000000;fill-opacity:1" /><path
       d="M 182.294,76.984 L 182.294,59.797 L 184.575,59.797 L 184.575,66.86 L 193.466,66.86 L 193.466,59.797 L 195.747,59.797 L 195.747,76.985 L 193.466,76.985 L 193.466,68.891 L 184.575,68.891 L 184.575,76.985 L 182.294,76.985 L 182.294,76.984 z "
       id="path25"
       style="fill:#000000;fill-opacity:1" /></g><g
     id="g27"
     transform="matrix(0.95,0,0,0.95,5.119975,2.042625)"
     style="fill:#000000;fill-opacity:1"><path
       d="M 196.345,78.078 L 197.923,77.859 C 198.105,78.755 198.415,79.402 198.851,79.797 C 199.287,80.193 199.823,80.391 200.458,80.391 C 201.21,80.391 201.844,80.133 202.356,79.618 C 202.869,79.103 203.126,78.465 203.126,77.704 C 203.126,76.977 202.888,76.379 202.409,75.907 C 201.932,75.436 201.326,75.2 200.591,75.2 C 200.29,75.2 199.915,75.259 199.468,75.376 L 199.646,73.985 C 199.751,73.997 199.837,74.003 199.902,74.003 C 200.576,74.003 201.183,73.827 201.722,73.477 C 202.262,73.126 202.533,72.585 202.533,71.854 C 202.533,71.275 202.336,70.795 201.941,70.416 C 201.547,70.036 201.039,69.846 200.416,69.846 C 199.799,69.846 199.285,70.04 198.873,70.428 C 198.461,70.817 198.197,71.399 198.08,72.174 L 196.502,71.893 C 196.695,70.831 197.135,70.008 197.822,69.424 C 198.508,68.841 199.361,68.549 200.383,68.549 C 201.086,68.549 201.735,68.699 202.327,69.001 C 202.92,69.302 203.373,69.713 203.687,70.233 C 204,70.754 204.158,71.306 204.158,71.891 C 204.158,72.447 204.008,72.953 203.709,73.409 C 203.41,73.865 202.969,74.227 202.383,74.497 C 203.145,74.673 203.737,75.037 204.162,75.592 C 204.586,76.145 204.799,76.838 204.799,77.67 C 204.799,78.795 204.387,79.749 203.566,80.531 C 202.745,81.314 201.706,81.705 200.45,81.705 C 199.316,81.705 198.376,81.369 197.628,80.695 C 196.876,80.021 196.451,79.148 196.345,78.078 z "
       id="path29"
       style="fill:#000000;fill-opacity:1" /></g><path
     d="M 135.53123,48.293375 L 135.53123,46.393375 L 160.56373,60.833375 L 159.75623,62.258375 L 135.53123,48.293375 z "
     id="polygon31"
     style="fill:#000000;fill-opacity:1" /><g
     id="g33"
     transform="matrix(0.95,0,0,0.95,5.119975,2.042625)"
     style="fill:#000000;fill-opacity:1"><path
       d="M 60.332,9.119 C 60.332,6.267 61.098,4.034 62.63,2.42 C 64.162,0.807 66.139,0 68.562,0 C 70.149,0 71.579,0.379 72.853,1.137 C 74.127,1.895 75.098,2.952 75.767,4.308 C 76.435,5.664 76.769,7.202 76.769,8.92 C 76.769,10.662 76.417,12.222 75.714,13.597 C 75.01,14.973 74.014,16.014 72.724,16.721 C 71.434,17.428 70.043,17.782 68.55,17.782 C 66.932,17.782 65.486,17.391 64.212,16.61 C 62.938,15.829 61.973,14.762 61.316,13.41 C 60.66,12.058 60.332,10.627 60.332,9.119 z M 62.675,9.148 C 62.675,11.218 63.232,12.849 64.346,14.041 C 65.46,15.233 66.858,15.828 68.538,15.828 C 70.25,15.828 71.659,15.226 72.766,14.023 C 73.872,12.82 74.425,11.113 74.425,8.902 C 74.425,7.504 74.189,6.283 73.716,5.24 C 73.243,4.197 72.551,3.388 71.64,2.814 C 70.729,2.24 69.707,1.953 68.574,1.953 C 66.964,1.953 65.578,2.506 64.417,3.611 C 63.256,4.716 62.675,6.563 62.675,9.148 z "
       id="path35"
       style="fill:#000000;fill-opacity:1" /></g><path
     d="M 66.608723,21.028376 L 68.223724,21.028376 L 68.223724,48.958375 L 66.608723,48.958375 L 66.608723,21.028376 z "
     id="rect37"
     style="fill:#000000;fill-opacity:1" /><path
     d="M 72.261228,21.028376 L 73.876228,21.028376 L 73.876228,48.958375 L 72.261228,48.958375 L 72.261228,21.028376 z "
     id="rect39"
     style="fill:#000000;fill-opacity:1" /><g
     id="g41"
     transform="matrix(0.95,0,0,0.95,5.119975,2.042625)"
     style="fill:#000000;fill-opacity:1"><path
       d="M 129.031,9.119 C 129.031,6.267 129.797,4.034 131.33,2.42 C 132.861,0.807 134.84,0 137.262,0 C 138.85,0 140.28,0.379 141.553,1.137 C 142.827,1.895 143.799,2.952 144.467,4.308 C 145.135,5.664 145.469,7.202 145.469,8.92 C 145.469,10.662 145.117,12.222 144.414,13.597 C 143.711,14.973 142.714,16.014 141.424,16.721 C 140.135,17.428 138.743,17.782 137.25,17.782 C 135.633,17.782 134.186,17.391 132.912,16.61 C 131.638,15.829 130.674,14.762 130.016,13.41 C 129.359,12.058 129.031,10.627 129.031,9.119 z M 131.375,9.148 C 131.375,11.218 131.932,12.849 133.047,14.041 C 134.16,15.232 135.559,15.828 137.238,15.828 C 138.951,15.828 140.359,15.226 141.467,14.023 C 142.572,12.82 143.125,11.113 143.125,8.902 C 143.125,7.504 142.889,6.283 142.416,5.24 C 141.943,4.197 141.251,3.388 140.34,2.814 C 139.43,2.24 138.408,1.953 137.274,1.953 C 135.665,1.953 134.278,2.506 133.118,3.611 C 131.955,4.717 131.375,6.563 131.375,9.148 z "
       id="path43"
       style="fill:#000000;fill-opacity:1" /></g><path
     d="M 131.87373,21.028376 L 133.48873,21.028376 L 133.48873,48.958375 L 131.87373,48.958375 L 131.87373,21.028376 z "
     id="rect45"
     style="fill:#000000;fill-opacity:1" /><path
     d="M 137.52623,21.028376 L 139.14028,21.028376 L 139.14028,48.958375 L 137.52623,48.958375 L 137.52623,21.028376 z "
     id="rect47"
     style="fill:#000000;fill-opacity:1" /></svg>