<?xml version="1.0" encoding="UTF-8" standalone="no"?>
<svg
   xmlns:cdml="http://www.freesoftware.fsf.org/bkchem/cdml"
   xmlns:dc="http://purl.org/dc/elements/1.1/"
   xmlns:cc="http://creativecommons.org/ns#"
   xmlns:rdf="http://www.w3.org/1999/02/22-rdf-syntax-ns#"
   xmlns:svg="http://www.w3.org/2000/svg"
   xmlns="http://www.w3.org/2000/svg"
   xmlns:sodipodi="http://sodipodi.sourceforge.net/DTD/sodipodi-0.dtd"
   xmlns:inkscape="http://www.inkscape.org/namespaces/inkscape"
   height="33.63516mm"
   version="1.0"
   viewBox="0 0 301 127"
   width="79.71797mm"
   id="svg3918"
   inkscape:version="0.48.0 r9654"
   sodipodi:docname="allyloxycarbonyl.svg">
  <metadata
     id="metadata3964">
    <rdf:RDF>
      <cc:Work
         rdf:about="">
        <dc:format>image/svg+xml</dc:format>
        <dc:type
           rdf:resource="http://purl.org/dc/dcmitype/StillImage" />
        <dc:title></dc:title>
      </cc:Work>
    </rdf:RDF>
  </metadata>
  <defs
     id="defs3962" />
  <sodipodi:namedview
     pagecolor="#ffffff"
     bordercolor="#666666"
     borderopacity="1"
     objecttolerance="10"
     gridtolerance="10"
     guidetolerance="10"
     inkscape:pageopacity="0"
     inkscape:pageshadow="2"
     inkscape:window-width="640"
     inkscape:window-height="480"
     id="namedview3960"
     showgrid="false"
     inkscape:zoom="1.8055319"
     inkscape:cx="141.23262"
     inkscape:cy="59.589848"
     inkscape:window-x="0"
     inkscape:window-y="0"
     inkscape:window-maximized="0"
     inkscape:current-layer="svg3918" />
  <g
     font-family="Helvetica"
     font-size="12pt"
     stroke-linecap="round"
     transform="translate(-425,-74)"
     id="g3920">
    <g
       stroke="#000000"
       stroke-width="2.26548672566"
       id="g3922">
      <path
         style=""
         d="M 489.22,124.43 457,105.83"
         id="line3924" />
    </g>
    <g
       stroke="#000000"
       stroke-width="2.26548672566"
       id="g3926">
      <path
         style=""
         d="m 492.22,124.43 0,33.57"
         id="line3928" />
      <path
         style=""
         d="m 486.22,124.43 0,33.57"
         id="line3930" />
    </g>
    <g
       stroke="#000000"
       stroke-width="2.26548672566"
       id="g3932">
      <path
         style=""
         d="M 626.56,98 659,116.73"
         id="line3934" />
      <path
         style=""
         d="m 625.03003,106.27 27.56995,15.92"
         id="line3936" />
    </g>
    <g
       stroke="#000000"
       stroke-width="2.26548672566"
       id="g3938">
      <path
         style=""
         d="m 521,106.08 -31.78,18.35"
         id="line3940" />
    </g>
    <g
       stroke="#000000"
       stroke-width="2.26548672566"
       id="g3942">
      <path
         style=""
         d="M 580.78003,124.43 626.56,98"
         id="line3944" />
    </g>
    <g
       stroke="#000000"
       stroke-width="2.26548672566"
       id="g3946">
      <path
         style=""
         d="m 550,106.66 30.78003,17.77"
         id="line3948" />
    </g>
    <g
       style="font-size:30px;fill:#000000;font-family:helvetica"
       id="text3950">
      <path
         d="m 477.75018,173.83101 c 0,-3.56444 0.95703,-6.35496 2.8711,-8.37158 1.91405,-2.01658 4.38475,-3.02488 7.41211,-3.02491 1.9824,3e-5 3.76951,0.47366 5.36132,1.4209 1.59178,0.94729 2.80516,2.26809 3.64014,3.96241 0.83494,1.69435 1.25242,3.61573 1.25244,5.76416 -2e-5,2.17774 -0.43947,4.12598 -1.31836,5.84472 -0.87892,1.71876 -2.12404,3.02002 -3.73535,3.90381 -1.61134,0.88379 -3.34962,1.32568 -5.21484,1.32568 -2.0215,0 -3.82814,-0.48828 -5.41992,-1.46484 -1.59181,-0.97656 -2.79786,-2.30957 -3.61817,-3.99902 -0.82031,-1.68945 -1.23047,-3.47656 -1.23047,-5.36133 z m 2.92969,0.0439 c 0,2.5879 0.6958,4.62647 2.0874,6.11573 1.3916,1.48926 3.1372,2.23389 5.23682,2.23388 2.13866,1e-5 3.89891,-0.75195 5.28076,-2.25586 1.38182,-1.5039 2.07274,-3.63768 2.07275,-6.40136 -10e-6,-1.74804 -0.29542,-3.27391 -0.88623,-4.57764 -0.59083,-1.30369 -1.45509,-2.31444 -2.59277,-3.03223 -1.13771,-0.71775 -2.41456,-1.07664 -3.83057,-1.07666 -2.01172,2e-5 -3.74268,0.69094 -5.19287,2.07276 -1.4502,1.38185 -2.17529,3.68898 -2.17529,6.92138 z"
         style="font-size:30px;fill:#000000;font-family:helvetica"
         id="path3975" />
    </g>
    <g
       style="font-size:30px;fill:#000000;font-family:helvetica"
       id="text3952">
      <path
         d="m 523.75018,94.541016 c 0,-3.564439 0.95703,-6.354964 2.8711,-8.371582 1.91405,-2.016581 4.38475,-3.024881 7.41211,-3.024903 1.9824,2.2e-5 3.76951,0.473654 5.36132,1.420899 1.59178,0.947285 2.80516,2.268084 3.64014,3.962402 0.83494,1.694351 1.25242,3.615736 1.25244,5.76416 -2e-5,2.177743 -0.43947,4.125983 -1.31836,5.844728 -0.87892,1.71875 -2.12404,3.02002 -3.73535,3.90381 -1.61134,0.88379 -3.34962,1.32568 -5.21484,1.32568 -2.0215,0 -3.82814,-0.48828 -5.41992,-1.46484 -1.59181,-0.97656 -2.79786,-2.30957 -3.61817,-3.999026 -0.82031,-1.689447 -1.23047,-3.476554 -1.23047,-5.361328 z m 2.92969,0.04395 c 0,2.587898 0.6958,4.626471 2.0874,6.115719 1.3916,1.48926 3.1372,2.23389 5.23682,2.23389 2.13866,0 3.89891,-0.75195 5.28076,-2.25586 1.38182,-1.503899 2.07274,-3.637686 2.07275,-6.401366 -1e-5,-1.748035 -0.29542,-3.273912 -0.88623,-4.577637 -0.59083,-1.303694 -1.45509,-2.314435 -2.59277,-3.032227 -1.13771,-0.717754 -2.41456,-1.07664 -3.83057,-1.07666 -2.01172,2e-5 -3.74268,0.690937 -5.19287,2.072754 -1.4502,1.381852 -2.17529,3.688979 -2.17529,6.921387 z"
         style="font-size:30px;fill:#000000;font-family:helvetica"
         id="path3978" />
    </g>
    <g
       style="font-size:30px;fill:#000000;font-family:helvetica"
       id="text3954">
      <path
         d="m 677.93671,123.9007 2.84179,0.71777 c -0.59572,2.33399 -1.6675,4.11377 -3.21533,5.33935 -1.54787,1.22559 -3.43995,1.83838 -5.67627,1.83838 -2.31446,0 -4.19678,-0.47119 -5.64697,-1.41357 -1.4502,-0.94238 -2.55372,-2.30713 -3.31055,-4.09424 -0.75684,-1.7871 -1.13525,-3.70604 -1.13525,-5.75683 0,-2.23632 0.42724,-4.187 1.28174,-5.85206 0.85449,-1.66502 2.0703,-2.92966 3.64746,-3.79394 1.57714,-0.86424 3.31298,-1.29637 5.20752,-1.29639 2.14842,2e-5 3.95506,0.5469 5.41992,1.64063 1.46482,1.09377 2.48533,2.63185 3.06152,4.61426 l -2.79785,0.65917 c -0.49806,-1.56248 -1.22072,-2.70017 -2.16797,-3.41308 -0.94728,-0.71287 -2.13868,-1.06932 -3.57422,-1.06934 -1.6504,2e-5 -3.02979,0.39553 -4.13818,1.18653 -1.1084,0.79103 -1.88721,1.85304 -2.33643,3.18603 -0.44922,1.33302 -0.67383,2.70753 -0.67382,4.12354 -1e-5,1.82618 0.2661,3.42041 0.79834,4.78271 0.53222,1.36231 1.35985,2.38038 2.48291,3.0542 1.12303,0.67383 2.33885,1.01075 3.64746,1.01074 1.59178,10e-6 2.93944,-0.45898 4.04297,-1.37695 1.10349,-0.91796 1.85056,-2.28027 2.24121,-4.08691 z"
         style="font-size:30px;fill:#000000;font-family:helvetica"
         id="path3981" />
      <path
         d="m 684.38202,131.42999 0,-21.47461 2.8418,0 0,8.81836 11.16211,0 0,-8.81836 2.84179,0 0,21.47461 -2.84179,0 0,-10.12207 -11.16211,0 0,10.12207 z"
         style="font-size:30px;fill:#000000;font-family:helvetica"
         id="path3983" />
      <path
         d="m 714.98627,135.52936 0,1.90063 -10.64575,0 c -0.0146,-0.47607 0.0623,-0.93383 0.23071,-1.37329 0.27099,-0.72509 0.70495,-1.4392 1.30188,-2.14233 0.59692,-0.70312 1.45934,-1.51611 2.58728,-2.43897 1.75048,-1.43554 2.93334,-2.57262 3.54858,-3.41125 0.61523,-0.83861 0.92284,-1.63146 0.92285,-2.37854 -10e-6,-0.78368 -0.28016,-1.44469 -0.84045,-1.98303 -0.56031,-0.53832 -1.2909,-0.80748 -2.19177,-0.8075 -0.95216,2e-5 -1.71387,0.28566 -2.28516,0.85693 -0.57129,0.57131 -0.8606,1.36232 -0.86792,2.37305 l -2.03247,-0.20874 c 0.13916,-1.5161 0.66284,-2.67149 1.57105,-3.46619 0.90819,-0.79466 2.12768,-1.192 3.65844,-1.19201 1.5454,10e-6 2.76855,0.42848 3.66944,1.2854 0.90086,0.85695 1.3513,1.91896 1.35131,3.18603 -10e-6,0.64455 -0.13184,1.27809 -0.3955,1.90064 -0.26369,0.62257 -0.70131,1.27808 -1.31287,1.96655 -0.61158,0.68848 -1.62782,1.63331 -3.04871,2.83447 -1.18652,0.9961 -1.94824,1.67176 -2.28515,2.02698 -0.33692,0.35523 -0.61524,0.71228 -0.83496,1.07117 z"
         style="font-size:75%;baseline-shift:sub"
         id="path3985" />
    </g>
    <g
       style="font-size:30px;fill:#000000;font-family:helvetica"
       id="text3958">
      <path
         d="m 433.65839,105 0,-21.474609 9.52148,0 c 1.91405,2.1e-5 3.36913,0.192892 4.36523,0.578613 0.99608,0.385763 1.79198,1.066914 2.3877,2.043457 0.59568,0.97658 0.89354,2.055681 0.89355,3.237305 -10e-6,1.523451 -0.49318,2.80763 -1.47949,3.852539 -0.98634,1.044932 -2.50978,1.708994 -4.57031,1.992187 0.75194,0.361338 1.32323,0.717783 1.71387,1.069336 0.83006,0.761727 1.61619,1.713874 2.3584,2.856445 L 452.58417,105 l -3.57422,0 -2.8418,-4.46777 c -0.83009,-1.28906 -1.51368,-2.275387 -2.05078,-2.958988 -0.53712,-0.683585 -1.01808,-1.162101 -1.44287,-1.435547 -0.42482,-0.273428 -0.85694,-0.463858 -1.29639,-0.571289 -0.32227,-0.06835 -0.84962,-0.102529 -1.58203,-0.102539 l -3.2959,0 0,9.536133 z m 2.84179,-11.99707 6.1084,0 c 1.29882,1.2e-5 2.31444,-0.134266 3.04688,-0.402832 0.7324,-0.268542 1.28904,-0.698229 1.66992,-1.289063 0.38084,-0.590806 0.57127,-1.232895 0.57129,-1.926269 -2e-5,-1.015609 -0.36867,-1.850569 -1.10596,-2.504883 -0.73732,-0.654278 -1.90187,-0.981426 -3.49365,-0.981446 l -6.79688,0 z"
         style="font-size:30px;fill:#000000;font-family:helvetica"
         id="path3988" />
    </g>
  </g>
  <cdml:cdml
     version="0.15">
    <cdml:info>
      <cdml:author_program
         version="0.13.0">BKchem</cdml:author_program>
    </cdml:info>
    <cdml:paper
       crop_margin="5"
       crop_svg="1"
       orientation="portrait"
       replace_minus="0"
       type="Legal"
       use_real_minus="0" />
    <cdml:viewport
       viewport="0.000000 0.000000 640.000000 480.000000" />
    <cdml:standard
       area_color=""
       font_family="helvetica"
       font_size="24"
       line_color="#000"
       line_width="0.06cm"
       paper_crop_margin="5"
       paper_crop_svg="1"
       paper_orientation="portrait"
       paper_type="Legal">
      <cdml:bond
         double-ratio="0.85"
         length="1.4cm"
         wedge-width="0.18cm"
         width="0.21cm" />
      <cdml:arrow
         length="1.6cm" />
      <cdml:atom
         show_hydrogens="0" />
    </cdml:standard>
    <cdml:molecule
       id="molecule8961"
       name="">
      <cdml:atom
         id="atom93101"
         name="C"
         valency="4">
        <cdml:point
           x="12.957cm"
           y="3.295cm" />
      </cdml:atom>
      <cdml:atom
         id="atom89437"
         name="O"
         pos="center-first"
         valency="2">
        <cdml:point
           x="12.957cm"
           y="4.695cm" />
      </cdml:atom>
      <cdml:atom
         id="atom51866"
         name="O"
         pos="center-first"
         valency="2">
        <cdml:point
           x="14.169cm"
           y="2.595cm" />
      </cdml:atom>
      <cdml:atom
         id="atom13551"
         name="C"
         valency="4">
        <cdml:point
           x="15.382cm"
           y="3.295cm" />
      </cdml:atom>
      <cdml:atom
         id="atom87276"
         name="C"
         valency="4">
        <cdml:point
           x="16.594cm"
           y="2.595cm" />
      </cdml:atom>
      <cdml:atom
         hydrogens="on"
         id="atom76216"
         name="C"
         pos="center-first"
         show="yes"
         valency="4">
        <cdml:point
           x="17.807cm"
           y="3.295cm" />
      </cdml:atom>
      <cdml:query
         id="atom9937"
         name="R"
         pos="center-last">
        <cdml:point
           x="11.744cm"
           y="2.595cm" />
      </cdml:query>
      <cdml:bond
         double_ratio="0.85"
         end="atom9937"
         id="bond90995"
         line_width="2.26548672566"
         start="atom93101"
         type="n1" />
      <cdml:bond
         bond_width="7.92920353982"
         center="yes"
         double_ratio="0.85"
         end="atom89437"
         id="bond51545"
         line_width="2.26548672566"
         start="atom93101"
         type="n2" />
      <cdml:bond
         bond_width="-7.92920353982"
         center="no"
         double_ratio="0.85"
         end="atom76216"
         id="bond27258"
         line_width="2.26548672566"
         start="atom87276"
         type="n2" />
      <cdml:bond
         double_ratio="0.85"
         end="atom93101"
         id="bond19097"
         line_width="2.26548672566"
         start="atom51866"
         type="n1" />
      <cdml:bond
         double_ratio="0.85"
         end="atom87276"
         id="bond57668"
         line_width="2.26548672566"
         start="atom13551"
         type="n1" />
      <cdml:bond
         double_ratio="0.85"
         end="atom13551"
         id="bond2389"
         line_width="2.26548672566"
         start="atom51866"
         type="n1" />
    </cdml:molecule>
  </cdml:cdml>
</svg>
