<?xml version="1.0" encoding="UTF-8" standalone="no"?>
<!-- Generator: Adobe Illustrator 12.0.1, SVG Export Plug-In . SVG Version: 6.00 Build 51448)  -->
<svg
   xmlns:dc="http://purl.org/dc/elements/1.1/"
   xmlns:cc="http://web.resource.org/cc/"
   xmlns:rdf="http://www.w3.org/1999/02/22-rdf-syntax-ns#"
   xmlns:svg="http://www.w3.org/2000/svg"
   xmlns="http://www.w3.org/2000/svg"
   xmlns:sodipodi="http://sodipodi.sourceforge.net/DTD/sodipodi-0.dtd"
   xmlns:inkscape="http://www.inkscape.org/namespaces/inkscape"
   version="1.1"
   id="Layer_1"
   width="334.646"
   height="121.185"
   viewBox="0 0 334.646 121.185"
   style="overflow:visible;enable-background:new 0 0 334.646 121.185;"
   xml:space="preserve"
   sodipodi:version="0.32"
   inkscape:version="0.45.1"
   sodipodi:docname="L-Arginin.svg"
   inkscape:output_extension="org.inkscape.output.svg.inkscape"
   sodipodi:docbase="C:\"><metadata
   id="metadata78"><rdf:RDF><cc:Work
       rdf:about=""><dc:format>image/svg+xml</dc:format><dc:type
         rdf:resource="http://purl.org/dc/dcmitype/StillImage" /></cc:Work></rdf:RDF></metadata><defs
   id="defs76" /><sodipodi:namedview
   inkscape:window-height="579"
   inkscape:window-width="801"
   inkscape:pageshadow="2"
   inkscape:pageopacity="0.0"
   guidetolerance="10.0"
   gridtolerance="10.0"
   objecttolerance="10.0"
   borderopacity="1.0"
   bordercolor="#666666"
   pagecolor="#ffffff"
   id="base"
   inkscape:zoom="2.1425626"
   inkscape:cx="167.323"
   inkscape:cy="60.592499"
   inkscape:window-x="132"
   inkscape:window-y="132"
   inkscape:current-layer="Layer_1" />
<path
   d="M 204.8613,49.280375 L 204.8613,47.426925 L 237.5413,66.236925 L 237.5413,67.186925 L 236.6863,67.614425 L 204.8613,49.280375 z "
   id="polygon3" />
<path
   d="M 238.3963,67.614425 L 237.5413,67.186925 L 237.5413,66.236925 L 270.1738,47.426925 L 270.1738,49.280375 L 238.3963,67.614425 z "
   id="polygon5" />
<g
   id="g7"
   transform="matrix(0.95,0,0,0.95,8.36615,3.029625)">
	<path
   d="M 301.744,68.619 C 301.744,65.766 302.51,63.534 304.042,61.921 C 305.574,60.307 307.552,59.5 309.975,59.5 C 311.562,59.5 312.992,59.879 314.266,60.637 C 315.54,61.396 316.511,62.452 317.179,63.808 C 317.848,65.163 318.182,66.702 318.182,68.42 C 318.182,70.163 317.83,71.722 317.126,73.097 C 316.423,74.472 315.427,75.514 314.137,76.221 C 312.847,76.928 311.456,77.282 309.963,77.282 C 308.345,77.282 306.899,76.891 305.625,76.11 C 304.351,75.329 303.386,74.261 302.729,72.91 C 302.072,71.558 301.744,70.128 301.744,68.619 z M 304.087,68.648 C 304.087,70.718 304.644,72.349 305.758,73.541 C 306.872,74.733 308.27,75.328 309.95,75.328 C 311.662,75.328 313.071,74.726 314.178,73.523 C 315.283,72.32 315.837,70.613 315.837,68.402 C 315.837,67.004 315.601,65.783 315.127,64.74 C 314.654,63.697 313.963,62.888 313.052,62.314 C 312.141,61.74 311.119,61.453 309.986,61.453 C 308.376,61.453 306.99,62.006 305.829,63.111 C 304.668,64.216 304.087,66.063 304.087,68.648 z "
   id="path9" />
	<path
   d="M 321.193,76.984 L 321.193,59.797 L 323.474,59.797 L 323.474,66.86 L 332.365,66.86 L 332.365,59.797 L 334.646,59.797 L 334.646,76.985 L 332.365,76.985 L 332.365,68.891 L 323.474,68.891 L 323.474,76.985 L 321.193,76.985 L 321.193,76.984 z "
   id="path11" />
</g>
<path
   d="M 270.1738,49.280375 L 270.1738,47.426925 L 294.6363,61.534425 L 293.8288,62.960375 L 270.1738,49.280375 z "
   id="polygon13" />
<g
   id="g15"
   transform="matrix(0.95,0,0,0.95,8.36615,3.029625)">
	<path
   d="M 267.344,9.119 C 267.344,6.266 268.11,4.034 269.641,2.421 C 271.174,0.807 273.151,0 275.575,0 C 277.161,0 278.592,0.379 279.866,1.137 C 281.139,1.896 282.11,2.952 282.779,4.308 C 283.448,5.664 283.782,7.202 283.782,8.92 C 283.782,10.663 283.43,12.222 282.726,13.597 C 282.022,14.972 281.026,16.014 279.737,16.721 C 278.446,17.428 277.055,17.782 275.563,17.782 C 273.944,17.782 272.499,17.391 271.225,16.61 C 269.95,15.829 268.985,14.761 268.329,13.41 C 267.673,12.059 267.344,10.628 267.344,9.119 z M 269.688,9.148 C 269.688,11.218 270.245,12.849 271.358,14.041 C 272.473,15.232 273.87,15.828 275.551,15.828 C 277.262,15.828 278.672,15.226 279.778,14.023 C 280.884,12.82 281.438,11.113 281.438,8.902 C 281.438,7.504 281.202,6.283 280.728,5.24 C 280.254,4.197 279.563,3.388 278.653,2.814 C 277.742,2.24 276.719,1.953 275.587,1.953 C 273.976,1.953 272.591,2.506 271.429,3.611 C 270.268,4.717 269.688,6.563 269.688,9.148 z "
   id="path17" />
</g>
<path
   d="M 266.5163,22.061925 L 268.13225,22.061925 L 268.13225,49.991925 L 266.5163,49.991925 L 266.5163,22.061925 z "
   id="rect19" />
<path
   d="M 272.2163,22.061925 L 273.83225,22.061925 L 273.83225,49.991925 L 272.2163,49.991925 L 272.2163,22.061925 z "
   id="rect21" />
<g
   id="g23"
   transform="matrix(0.95,0,0,0.95,8.36615,3.029625)">
	<path
   d="M 234.416,116.685 L 234.416,99.497 L 236.756,99.497 L 245.76,112.986 L 245.76,99.497 L 247.948,99.497 L 247.948,116.685 L 245.608,116.685 L 236.604,103.196 L 236.604,116.685 L 234.416,116.685 z "
   id="path25" />
	<path
   d="M 251.857,116.685 L 251.857,99.497 L 254.138,99.497 L 254.138,106.56 L 263.029,106.56 L 263.029,99.497 L 265.31,99.497 L 265.31,116.685 L 263.029,116.685 L 263.029,108.591 L 254.138,108.591 L 254.138,116.685 L 251.857,116.685 z "
   id="path27" />
</g>
<g
   id="g29"
   transform="matrix(0.95,0,0,0.95,8.36615,3.029625)">
	<path
   d="M 276.092,119.669 L 276.092,121.185 L 267.561,121.185 C 267.549,120.804 267.61,120.438 267.747,120.086 C 267.965,119.506 268.313,118.935 268.795,118.373 C 269.275,117.811 269.966,117.162 270.864,116.426 C 272.26,115.273 273.207,114.362 273.704,113.692 C 274.202,113.022 274.452,112.387 274.452,111.789 C 274.452,111.163 274.226,110.636 273.776,110.205 C 273.326,109.775 272.739,109.56 272.016,109.56 C 271.25,109.56 270.639,109.789 270.18,110.248 C 269.721,110.707 269.489,111.342 269.483,112.153 L 267.858,111.981 C 267.969,110.765 268.389,109.839 269.118,109.203 C 269.846,108.565 270.823,108.247 272.052,108.247 C 273.29,108.247 274.271,108.59 274.993,109.276 C 275.716,109.962 276.077,110.812 276.077,111.826 C 276.077,112.342 275.971,112.849 275.759,113.347 C 275.548,113.845 275.196,114.37 274.706,114.921 C 274.216,115.472 273.402,116.228 272.267,117.189 C 271.316,117.987 270.704,118.527 270.433,118.812 C 270.162,119.095 269.937,119.381 269.761,119.668 L 276.092,119.668 L 276.092,119.669 z "
   id="path31" />
</g>
<path
   d="M 241.15225,95.355375 L 233.8838,95.355375 L 236.6863,67.614425 L 237.5413,67.186925 L 238.3963,67.614425 L 241.15225,95.355375 z "
   id="polygon33" />
<path
   d="M 204.8613,47.426925 L 204.8613,49.280375 L 172.2288,68.136925 L 172.2288,66.236925 L 204.8613,47.426925 z "
   id="polygon35" />
<path
   d="M 172.2288,66.236925 L 172.2288,68.136925 L 139.59725,49.280375 L 139.59725,47.426925 L 172.2288,66.236925 z "
   id="polygon37" />
<g
   id="g39"
   transform="matrix(0.95,0,0,0.95,8.36615,3.029625)">
	<path
   d="M 96.966,76.984 L 96.966,59.797 L 99.306,59.797 L 108.31,73.286 L 108.31,59.797 L 110.498,59.797 L 110.498,76.985 L 108.158,76.985 L 99.154,63.496 L 99.154,76.985 L 96.966,76.985 L 96.966,76.984 z "
   id="path41" />
</g>
<g
   id="g43"
   transform="matrix(0.95,0,0,0.95,8.36615,3.029625)">
	<path
   d="M 97.075,96.935 L 97.075,79.747 L 99.356,79.747 L 99.356,86.81 L 108.247,86.81 L 108.247,79.747 L 110.528,79.747 L 110.528,96.935 L 108.247,96.935 L 108.247,88.841 L 99.356,88.841 L 99.356,96.935 L 97.075,96.935 z "
   id="path45" />
</g>
<path
   d="M 139.59725,47.426925 L 139.59725,49.280375 L 117.03475,62.294425 L 116.22725,60.869425 L 139.59725,47.426925 z "
   id="polygon47" />
<path
   d="M 97.55975,60.869425 L 96.75225,62.247875 L 74.28475,49.280375 L 74.28475,47.426925 L 97.55975,60.869425 z "
   id="polygon49" />
<g
   id="g51"
   transform="matrix(0.95,0,0,0.95,8.36615,3.029625)">
	<path
   d="M 0,76.984 L 0,59.797 L 2.281,59.797 L 2.281,66.86 L 11.172,66.86 L 11.172,59.797 L 13.453,59.797 L 13.453,76.985 L 11.172,76.985 L 11.172,68.891 L 2.281,68.891 L 2.281,76.985 L 0,76.985 L 0,76.984 z "
   id="path53" />
</g>
<g
   id="g55"
   transform="matrix(0.95,0,0,0.95,8.36615,3.029625)">
	<path
   d="M 23.774,79.969 L 23.774,81.485 L 15.243,81.485 C 15.231,81.104 15.293,80.738 15.429,80.386 C 15.647,79.806 15.996,79.235 16.477,78.673 C 16.957,78.111 17.647,77.462 18.547,76.726 C 19.943,75.573 20.889,74.662 21.387,73.992 C 21.885,73.322 22.134,72.687 22.134,72.089 C 22.134,71.463 21.909,70.936 21.459,70.505 C 21.009,70.075 20.422,69.86 19.699,69.86 C 18.933,69.86 18.322,70.089 17.863,70.548 C 17.404,71.007 17.172,71.642 17.166,72.453 L 15.541,72.281 C 15.652,71.065 16.072,70.139 16.801,69.503 C 17.529,68.865 18.507,68.547 19.735,68.547 C 20.974,68.547 21.955,68.89 22.677,69.576 C 23.399,70.262 23.76,71.112 23.76,72.126 C 23.76,72.642 23.654,73.149 23.443,73.647 C 23.232,74.145 22.88,74.67 22.39,75.221 C 21.899,75.772 21.086,76.528 19.95,77.489 C 18.999,78.287 18.388,78.827 18.117,79.112 C 17.846,79.395 17.621,79.681 17.444,79.968 L 23.774,79.968 L 23.774,79.969 z "
   id="path57" />
</g>
<g
   id="g59"
   transform="matrix(0.95,0,0,0.95,8.36615,3.029625)">
	<path
   d="M 25.773,76.984 L 25.773,59.797 L 28.113,59.797 L 37.117,73.286 L 37.117,59.797 L 39.305,59.797 L 39.305,76.985 L 36.965,76.985 L 27.96,63.495 L 27.96,76.984 L 25.773,76.984 z "
   id="path61" />
</g>
<path
   d="M 74.28475,47.426925 L 74.28475,49.280375 L 51.7213,62.294425 L 50.91475,60.869425 L 74.28475,47.426925 z "
   id="polygon63" />
<g
   id="g65"
   transform="matrix(0.95,0,0,0.95,8.36615,3.029625)">
	<path
   d="M 62.565,17.484 L 62.565,0.297 L 64.905,0.297 L 73.909,13.786 L 73.909,0.297 L 76.097,0.297 L 76.097,17.485 L 73.757,17.485 L 64.753,3.995 L 64.753,17.484 L 62.565,17.484 z "
   id="path67" />
	<path
   d="M 80.007,17.484 L 80.007,0.297 L 82.288,0.297 L 82.288,7.36 L 91.179,7.36 L 91.179,0.297 L 93.46,0.297 L 93.46,17.485 L 91.179,17.485 L 91.179,9.391 L 82.288,9.391 L 82.288,17.485 L 80.007,17.485 L 80.007,17.484 z "
   id="path69" />
</g>
<path
   d="M 70.627252,21.730374 L 72.242252,21.730374 L 72.242252,49.992874 L 70.627252,49.992874 L 70.627252,21.730374 z "
   id="rect71" />
<path
   d="M 76.2788,21.730374 L 77.8938,21.730374 L 77.8938,49.992874 L 76.2788,49.992874 L 76.2788,21.730374 z "
   id="rect73" />
</svg>