<?xml version="1.0" encoding="UTF-8"?>
<!-- Converted by misc2svg (http://www.network-science.de/tools/misc2svg/) -->
<svg xmlns="http://www.w3.org/2000/svg" xmlns:xlink="http://www.w3.org/1999/xlink" width="238pt" height="49pt" viewBox="0 0 238 49" version="1.1">
<defs>
<clipPath id="clip1">
  <path d="M 0 48.75 L 237.5 48.75 L 237.5 0 L 0 0 L 0 48.75 Z M 0 48.75 "/>
</clipPath>
</defs>
<g id="misc2svg">
<g clip-path="url(#clip1)" clip-rule="nonzero">
<path style=" stroke:none;fill-rule:nonzero;fill:rgb(0%,0%,0%);fill-opacity:1;" d="M 5.136719 39.5 L 5.136719 18.015625 L 7.988281 18.015625 L 7.988281 26.84375 L 19.140625 26.84375 L 19.140625 18.015625 L 21.992188 18.015625 L 21.992188 39.5 L 19.140625 39.5 L 19.140625 29.382812 L 7.988281 29.382812 L 7.988281 39.5 L 5.136719 39.5 Z M 5.136719 39.5 "/>
<path style=" stroke:none;fill-rule:nonzero;fill:rgb(0%,0%,0%);fill-opacity:1;" d="M 25.398438 41.597656 L 27.390625 41.34375 C 27.609375 42.46875 27.996094 43.273438 28.542969 43.765625 C 29.089844 44.265625 29.753906 44.507812 30.535156 44.507812 C 31.472656 44.507812 32.257812 44.191406 32.898438 43.550781 C 33.535156 42.902344 33.855469 42.101562 33.855469 41.148438 C 33.855469 40.242188 33.554688 39.488281 32.957031 38.902344 C 32.371094 38.308594 31.621094 38.003906 30.710938 38.003906 C 30.332031 38.003906 29.863281 38.082031 29.304688 38.238281 L 29.519531 36.5 C 29.648438 36.515625 29.757812 36.519531 29.851562 36.519531 C 30.683594 36.519531 31.4375 36.300781 32.117188 35.855469 C 32.792969 35.417969 33.132812 34.738281 33.132812 33.824219 C 33.132812 33.097656 32.882812 32.496094 32.390625 32.027344 C 31.894531 31.550781 31.261719 31.304688 30.496094 31.304688 C 29.726562 31.304688 29.082031 31.550781 28.5625 32.027344 C 28.054688 32.511719 27.726562 33.238281 27.585938 34.214844 L 25.613281 33.863281 C 25.847656 32.535156 26.394531 31.511719 27.253906 30.777344 C 28.113281 30.050781 29.179688 29.683594 30.457031 29.683594 C 31.328125 29.683594 32.136719 29.875 32.878906 30.25 C 33.621094 30.632812 34.1875 31.144531 34.578125 31.792969 C 34.96875 32.449219 35.164062 33.136719 35.164062 33.863281 C 35.164062 34.566406 34.972656 35.207031 34.597656 35.777344 C 34.230469 36.339844 33.679688 36.789062 32.9375 37.125 C 33.886719 37.351562 34.621094 37.808594 35.144531 38.511719 C 35.675781 39.207031 35.945312 40.066406 35.945312 41.089844 C 35.945312 42.496094 35.429688 43.699219 34.402344 44.683594 C 33.386719 45.660156 32.097656 46.148438 30.535156 46.148438 C 29.113281 46.148438 27.9375 45.730469 27 44.878906 C 26.074219 44.035156 25.539062 42.941406 25.398438 41.597656 Z M 25.398438 41.597656 "/>
<path style=" stroke:none;fill-rule:nonzero;fill:rgb(0%,0%,0%);fill-opacity:1;" d="M 54.675781 31.960938 L 57.527344 32.683594 C 56.925781 35.015625 55.851562 36.800781 54.304688 38.035156 C 52.75 39.261719 50.855469 39.871094 48.621094 39.871094 C 46.316406 39.871094 44.429688 39.402344 42.976562 38.464844 C 41.53125 37.515625 40.425781 36.148438 39.675781 34.363281 C 38.917969 32.566406 38.542969 30.648438 38.542969 28.601562 C 38.542969 26.367188 38.960938 24.414062 39.8125 22.742188 C 40.671875 21.078125 41.886719 19.8125 43.464844 18.953125 C 45.035156 18.09375 46.773438 17.664062 48.679688 17.664062 C 50.828125 17.664062 52.628906 18.210938 54.089844 19.304688 C 55.558594 20.398438 56.578125 21.9375 57.15625 23.914062 L 54.363281 24.578125 C 53.855469 23.015625 53.121094 21.878906 52.175781 21.160156 C 51.238281 20.445312 50.050781 20.085938 48.621094 20.085938 C 46.964844 20.085938 45.582031 20.484375 44.480469 21.277344 C 43.371094 22.074219 42.589844 23.132812 42.136719 24.460938 C 41.691406 25.789062 41.472656 27.164062 41.472656 28.582031 C 41.472656 30.40625 41.730469 32 42.253906 33.367188 C 42.785156 34.734375 43.609375 35.757812 44.734375 36.433594 C 45.867188 37.097656 47.082031 37.429688 48.386719 37.429688 C 49.988281 37.429688 51.335938 36.976562 52.429688 36.0625 C 53.53125 35.140625 54.285156 33.773438 54.675781 31.960938 Z M 54.675781 31.960938 "/>
<path style=" stroke:none;fill-rule:nonzero;fill:rgb(0%,0%,0%);fill-opacity:1;" d="M 90.9375 2.5 L 90.9375 5 L 60 22.8125 L 58.9375 21 L 90.9375 2.5 Z M 90.9375 2.5 "/>
<path style=" stroke:none;fill-rule:nonzero;fill:rgb(0%,0%,0%);fill-opacity:1;" d="M 133.875 27.3125 L 133.875 29.8125 L 90.9375 5 L 90.9375 2.5 L 133.875 27.3125 Z M 133.875 27.3125 "/>
<path style=" stroke:none;fill-rule:nonzero;fill:rgb(0%,0%,0%);fill-opacity:1;" d="M 176.875 2.5 L 176.875 5 L 133.875 29.8125 L 133.875 27.3125 L 176.875 2.5 Z M 176.875 2.5 "/>
<path style=" stroke:none;fill-rule:nonzero;fill:rgb(0%,0%,0%);fill-opacity:1;" d="M 213.144531 39.3125 L 213.144531 17.828125 L 215.976562 17.828125 L 215.976562 36.773438 L 226.5625 36.773438 L 226.5625 39.3125 L 213.144531 39.3125 Z M 213.144531 39.3125 "/>
<path style=" stroke:none;fill-rule:nonzero;fill:rgb(0%,0%,0%);fill-opacity:1;" d="M 229.617188 20.875 L 229.617188 17.828125 L 232.253906 17.828125 L 232.253906 20.875 L 229.617188 20.875 Z M 229.617188 39.3125 L 229.617188 23.746094 L 232.253906 23.746094 L 232.253906 39.3125 L 229.617188 39.3125 Z M 229.617188 39.3125 "/>
<path style=" stroke:none;fill-rule:nonzero;fill:rgb(0%,0%,0%);fill-opacity:1;" d="M 209.25 21.1875 L 208.1875 23.0625 L 176.875 5 L 176.875 2.5 L 209.25 21.1875 Z M 209.25 21.1875 "/>
</g>
</g>
</svg>
