<?xml version="1.0" encoding="UTF-8" standalone="no"?>
<svg
   xmlns:cdml="http://www.freesoftware.fsf.org/bkchem/cdml"
   xmlns:dc="http://purl.org/dc/elements/1.1/"
   xmlns:cc="http://creativecommons.org/ns#"
   xmlns:rdf="http://www.w3.org/1999/02/22-rdf-syntax-ns#"
   xmlns:svg="http://www.w3.org/2000/svg"
   xmlns="http://www.w3.org/2000/svg"
   xmlns:sodipodi="http://sodipodi.sourceforge.net/DTD/sodipodi-0.dtd"
   xmlns:inkscape="http://www.inkscape.org/namespaces/inkscape"
   height="50.32031mm"
   version="1.0"
   viewBox="0 0 210 190"
   width="55.61719mm"
   id="svg4422"
   inkscape:version="0.48.0 r9654"
   sodipodi:docname="bzl.svg">
  <metadata
     id="metadata4478">
    <rdf:RDF>
      <cc:Work
         rdf:about="">
        <dc:format>image/svg+xml</dc:format>
        <dc:type
           rdf:resource="http://purl.org/dc/dcmitype/StillImage" />
        <dc:title></dc:title>
      </cc:Work>
    </rdf:RDF>
  </metadata>
  <defs
     id="defs4476" />
  <sodipodi:namedview
     pagecolor="#ffffff"
     bordercolor="#666666"
     borderopacity="1"
     objecttolerance="10"
     gridtolerance="10"
     guidetolerance="10"
     inkscape:pageopacity="0"
     inkscape:pageshadow="2"
     inkscape:window-width="640"
     inkscape:window-height="480"
     id="namedview4474"
     showgrid="false"
     inkscape:zoom="1.4750395"
     inkscape:cx="98.534393"
     inkscape:cy="89.150154"
     inkscape:window-x="0"
     inkscape:window-y="0"
     inkscape:window-maximized="0"
     inkscape:current-layer="svg4422" />
  <g
     font-family="Helvetica"
     font-size="12pt"
     stroke-linecap="round"
     transform="translate(-413,-5)"
     id="g4424">
    <g
       stroke="#000000"
       stroke-width="2.26548672566"
       id="g4426">
      <path
         style=""
         d="M 477.22,118.43 445,99.830002"
         id="line4428" />
    </g>
    <g
       stroke="#000000"
       stroke-width="2.26548672566"
       id="g4430">
      <path
         style=""
         d="m 480.22,118.43 0,33.57"
         id="line4432" />
      <path
         style=""
         d="m 474.22,118.43 0,33.57"
         id="line4434" />
    </g>
    <g
       stroke="#000000"
       stroke-width="2.26548672566"
       id="g4436">
      <path
         style=""
         d="M 568.76001,118.46 523,92"
         id="line4438" />
      <path
         style=""
         d="M 569.29999,109.61 530.40002,87.120003"
         id="line4440" />
    </g>
    <g
       stroke="#000000"
       stroke-width="2.26548672566"
       id="g4442">
      <path
         style=""
         d="m 523,92 0.02,-52.790001"
         id="line4444" />
    </g>
    <g
       stroke="#000000"
       stroke-width="2.26548672566"
       id="g4446">
      <path
         style=""
         d="M 523.02002,39.209999 568.79999,12.78"
         id="line4448" />
      <path
         style=""
         d="M 530.40997,44.099998 569.33002,21.629999"
         id="line4450" />
    </g>
    <g
       stroke="#000000"
       stroke-width="2.26548672566"
       id="g4452">
      <path
         style=""
         d="M 477.22,118.43 523,92"
         id="line4454" />
    </g>
    <g
       stroke="#000000"
       stroke-width="2.26548672566"
       id="g4456">
      <path
         style=""
         d="m 614.53998,92.029999 0.02,-52.789997"
         id="line4458" />
      <path
         style=""
         d="m 606.62,88.07 0.01,-44.869999"
         id="line4460" />
    </g>
    <g
       stroke="#000000"
       stroke-width="2.26548672566"
       id="g4462">
      <path
         style=""
         d="M 614.53998,92.029999 568.76001,118.46"
         id="line4464" />
    </g>
    <g
       stroke="#000000"
       stroke-width="2.26548672566"
       id="g4466">
      <path
         style=""
         d="M 614.56,39.240002 568.79999,12.78"
         id="line4468" />
    </g>
    <g
       style="font-size:30px;fill:#000000;font-family:helvetica"
       id="text4470">
      <path
         d="m 465.75018,167.83101 c 0,-3.56444 0.95703,-6.35496 2.8711,-8.37158 1.91405,-2.01658 4.38475,-3.02488 7.41211,-3.02491 1.9824,3e-5 3.76951,0.47366 5.36132,1.4209 1.59178,0.94729 2.80516,2.26809 3.64014,3.96241 0.83494,1.69435 1.25242,3.61573 1.25244,5.76416 -2e-5,2.17774 -0.43947,4.12598 -1.31836,5.84472 -0.87892,1.71876 -2.12404,3.02002 -3.73535,3.90381 -1.61134,0.88379 -3.34962,1.32568 -5.21484,1.32568 -2.0215,0 -3.82814,-0.48828 -5.41992,-1.46484 -1.59181,-0.97656 -2.79786,-2.30957 -3.61817,-3.99902 -0.82031,-1.68945 -1.23047,-3.47656 -1.23047,-5.36133 z m 2.92969,0.0439 c 0,2.5879 0.6958,4.62647 2.0874,6.11573 1.3916,1.48926 3.1372,2.23389 5.23682,2.23388 2.13866,1e-5 3.89891,-0.75195 5.28076,-2.25586 1.38182,-1.5039 2.07274,-3.63768 2.07275,-6.40136 -10e-6,-1.74804 -0.29542,-3.27391 -0.88623,-4.57764 -0.59083,-1.30369 -1.45509,-2.31444 -2.59277,-3.03223 -1.13771,-0.71775 -2.41456,-1.07664 -3.83057,-1.07666 -2.01172,2e-5 -3.74268,0.69094 -5.19287,2.07276 -1.4502,1.38185 -2.17529,3.68898 -2.17529,6.92138 z"
         style="font-size:30px;fill:#000000;font-family:helvetica"
         id="path4494" />
    </g>
    <g
       style="font-size:30px;fill:#000000;font-family:helvetica"
       id="text4472">
      <path
         d="m 421.65839,99 0,-21.474609 9.52148,0 c 1.91405,2.1e-5 3.36913,0.192892 4.36523,0.578613 0.99608,0.385763 1.79198,1.066914 2.3877,2.043457 0.59568,0.97658 0.89354,2.055681 0.89355,3.237305 -10e-6,1.523451 -0.49318,2.80763 -1.47949,3.852539 -0.98634,1.044932 -2.50978,1.708994 -4.57031,1.992187 0.75194,0.361338 1.32323,0.717783 1.71387,1.069336 0.83006,0.761727 1.61619,1.713874 2.3584,2.856445 L 440.58417,99 l -3.57422,0 -2.8418,-4.467773 c -0.83009,-1.289057 -1.51368,-2.275384 -2.05078,-2.958985 -0.53712,-0.683585 -1.01808,-1.162101 -1.44287,-1.435547 -0.42482,-0.273428 -0.85694,-0.463858 -1.29639,-0.571289 -0.32227,-0.06835 -0.84962,-0.102529 -1.58203,-0.102539 l -3.2959,0 0,9.536133 z m 2.84179,-11.99707 6.1084,0 c 1.29882,1.2e-5 2.31444,-0.134266 3.04688,-0.402832 0.7324,-0.268542 1.28904,-0.698229 1.66992,-1.289063 0.38084,-0.590806 0.57127,-1.232895 0.57129,-1.926269 -2e-5,-1.015609 -0.36867,-1.850569 -1.10596,-2.504883 -0.73732,-0.654278 -1.90187,-0.981426 -3.49365,-0.981446 l -6.79688,0 z"
         style="font-size:30px;fill:#000000;font-family:helvetica"
         id="path4497" />
    </g>
  </g>
  <cdml:cdml
     version="0.15">
    <cdml:info>
      <cdml:author_program
         version="0.13.0">BKchem</cdml:author_program>
    </cdml:info>
    <cdml:paper
       crop_margin="5"
       crop_svg="1"
       orientation="portrait"
       replace_minus="0"
       type="Legal"
       use_real_minus="0" />
    <cdml:viewport
       viewport="0.000000 0.000000 640.000000 480.000000" />
    <cdml:standard
       area_color=""
       font_family="helvetica"
       font_size="24"
       line_color="#000"
       line_width="0.06cm"
       paper_crop_margin="5"
       paper_crop_svg="1"
       paper_orientation="portrait"
       paper_type="Legal">
      <cdml:bond
         double-ratio="0.85"
         length="1.4cm"
         wedge-width="0.18cm"
         width="0.21cm" />
      <cdml:arrow
         length="1.6cm" />
      <cdml:atom
         show_hydrogens="0" />
    </cdml:standard>
    <cdml:molecule
       id="molecule8961"
       name="">
      <cdml:atom
         id="atom93101"
         name="C"
         valency="4">
        <cdml:point
           x="12.639cm"
           y="3.137cm" />
      </cdml:atom>
      <cdml:atom
         id="atom89437"
         name="O"
         pos="center-first"
         valency="2">
        <cdml:point
           x="12.639cm"
           y="4.537cm" />
      </cdml:atom>
      <cdml:query
         id="atom9937"
         name="R"
         pos="center-last">
        <cdml:point
           x="11.426cm"
           y="2.437cm" />
      </cdml:query>
      <cdml:atom
         id="atom56612"
         name="C"
         valency="4">
        <cdml:point
           x="13.851cm"
           y="2.437cm" />
      </cdml:atom>
      <cdml:atom
         id="atom72161"
         name="C"
         valency="4">
        <cdml:point
           x="16.276cm"
           y="2.437cm" />
      </cdml:atom>
      <cdml:atom
         id="atom48660"
         name="C"
         valency="4">
        <cdml:point
           x="15.063cm"
           y="3.137cm" />
      </cdml:atom>
      <cdml:atom
         id="atom3177"
         name="C"
         valency="4">
        <cdml:point
           x="13.852cm"
           y="1.039cm" />
      </cdml:atom>
      <cdml:atom
         id="atom36595"
         name="C"
         valency="4">
        <cdml:point
           x="16.276cm"
           y="1.039cm" />
      </cdml:atom>
      <cdml:atom
         id="atom32836"
         name="C"
         valency="4">
        <cdml:point
           x="15.064cm"
           y="0.339cm" />
      </cdml:atom>
      <cdml:bond
         double_ratio="0.85"
         end="atom9937"
         id="bond90995"
         line_width="2.26548672566"
         start="atom93101"
         type="n1" />
      <cdml:bond
         bond_width="7.92920353982"
         center="yes"
         double_ratio="0.85"
         end="atom89437"
         id="bond51545"
         line_width="2.26548672566"
         start="atom93101"
         type="n2" />
      <cdml:bond
         bond_width="-7.92920353982"
         center="no"
         double_ratio="0.85"
         end="atom56612"
         id="bond45152"
         line_width="2.26548672566"
         start="atom48660"
         type="n2" />
      <cdml:bond
         double_ratio="0.85"
         end="atom3177"
         id="bond4273"
         line_width="2.26548672566"
         start="atom56612"
         type="n1" />
      <cdml:bond
         bond_width="-7.92920353982"
         center="no"
         double_ratio="0.85"
         end="atom32836"
         id="bond85875"
         line_width="2.26548672566"
         start="atom3177"
         type="n2" />
      <cdml:bond
         double_ratio="0.85"
         end="atom56612"
         id="bond60264"
         line_width="2.26548672566"
         start="atom93101"
         type="n1" />
      <cdml:bond
         bond_width="7.92920353982"
         center="no"
         double_ratio="0.85"
         end="atom36595"
         id="bond39048"
         line_width="2.26548672566"
         start="atom72161"
         type="n2" />
      <cdml:bond
         double_ratio="0.85"
         end="atom48660"
         id="bond46146"
         line_width="2.26548672566"
         start="atom72161"
         type="n1" />
      <cdml:bond
         double_ratio="0.85"
         end="atom32836"
         id="bond35690"
         line_width="2.26548672566"
         start="atom36595"
         type="n1" />
    </cdml:molecule>
  </cdml:cdml>
</svg>
