<!-- Creator: CorelDRAW -->
<svg xmlns:inkscape="http://www.inkscape.org/namespaces/inkscape" xmlns:rdf="http://www.w3.org/1999/02/22-rdf-syntax-ns#" style="image-rendering:optimizeQuality;text-rendering:geometricPrecision;shape-rendering:geometricPrecision;" xmlns="http://www.w3.org/2000/svg" fill-rule="evenodd" sodipodi:docname="10-camphorsulfonic_acid.svg" xml:space="preserve" height="240px" width="150px" version="1.1" clip-rule="evenodd" xmlns:cc="http://creativecommons.org/ns#" xmlns:dc="http://purl.org/dc/elements/1.1/" inkscape:version="0.48.3.1 r9886" viewBox="0 0 300 466.953" xmlns:sodipodi="http://sodipodi.sourceforge.net/DTD/sodipodi-0.dtd"><metadata><rdf:RDF><cc:Work rdf:about=""><dc:format>image/svg+xml</dc:format><dc:type rdf:resource="http://purl.org/dc/dcmitype/StillImage"/><dc:title/></cc:Work></rdf:RDF></metadata><sodipodi:namedview bordercolor="#666666" inkscape:pageshadow="2" guidetolerance="10" pagecolor="#ffffff" gridtolerance="10" inkscape:window-maximized="1" inkscape:zoom="3.1791667" objecttolerance="10" borderopacity="1" inkscape:current-layer="svg4313" inkscape:cx="75" inkscape:cy="120" inkscape:window-y="29" inkscape:window-x="0" inkscape:window-width="1280" showgrid="false" inkscape:pageopacity="0" inkscape:window-height="975"/>
 <defs>
  <style type="text/css">
    .str0 {stroke:black;stroke-width:5.35558}
    .fil0 {fill:none}
    .fil1 {fill:black;fill-rule:nonzero}
  </style>
  </defs>
 <line stroke-linejoin="round" y2="238.78" fill="none" x2="112.5" stroke="#000" stroke-linecap="round" y1="265.32" x1="10.715" class="fil0 str0" stroke-width="5.3556"/><line stroke-linejoin="round" y2="265.32" fill="none" class="fil0 str0" x2="208.93" stroke="#000" stroke-linecap="round" y1="238.78" x1="112.5" stroke-width="5.3556"/><line stroke-width="5.3556" y2="175.11" class="fil0 str0" x2="262.5" stroke="#000" y1="265.32" x1="208.93" fill="none"/><line stroke-width="5.3556" y2="175.11" class="fil0 str0" x2="64.285" stroke="#000" y1="265.32" x1="10.715" fill="none"/><line stroke-linejoin="round" y2="148.58" fill="none" class="fil0 str0" x2="166.07" stroke="#000" stroke-linecap="round" stroke-dasharray="none" y1="153.88" stroke-miterlimit="4" x1="139.28" stroke-width="5.356"/><line stroke-linejoin="round" y2="164.49" fill="none" class="fil0 str0" x2="107.14" stroke="#000" stroke-linecap="round" stroke-dasharray="none" y1="175.11" stroke-miterlimit="4" x1="64.285" stroke-width="5.356"/><line stroke-linejoin="round" y2="148.58" fill="none" class="fil0 str0" x2="166.07" stroke="#000" stroke-linecap="round" stroke-dasharray="none" y1="175.11" stroke-miterlimit="4" x1="262.5" stroke-width="5.356"/><line stroke-linejoin="round" y2="63.676" fill="none" class="fil0 str0" x2="139.28" stroke="#000" stroke-linecap="round" stroke-dasharray="none" y1="148.58" stroke-miterlimit="4" x1="166.07" stroke-width="5.356"/><line stroke-linejoin="round" y2="63.676" fill="none" class="fil0 str0" x2="139.28" stroke="#000" stroke-linecap="round" stroke-dasharray="none" y1="238.78" stroke-miterlimit="4" x1="112.5" stroke-width="5.356"/><line stroke-width="5.3556" y2="15.918" class="fil0 str0" x2="225" stroke="#000" y1="63.676" x1="139.28" fill="none"/><line stroke-width="5.3556" y2="15.918" class="fil0 str0" x2="48.214" stroke="#000" y1="63.676" x1="139.28" fill="none"/><line stroke-linejoin="round" y2="323.68" fill="none" class="fil0 str0" x2="58.929" stroke="#000" stroke-linecap="round" y1="238.78" x1="112.5" stroke-width="5.3556"/><path d="m239.05,363.31c0-8.197,2.197-14.611,6.6008-19.245,4.4018-4.6338,10.083-6.9557,17.048-6.9557,4.5525,0,8.6689,1.0925,12.325,3.2657,3.6563,2.1851,6.4501,5.2188,8.3695,9.117,1.9194,3.8863,2.8751,8.312,2.8751,13.243,0,5.0126-1.0013,9.4977-3.0238,13.44-2.0244,3.9557-4.8876,6.9438-8.5896,8.9802-3.7118,2.0344-7.7013,3.0456-11.99,3.0456-4.6556,0-8.8057-1.1143-12.462-3.3688-3.6682-2.2406-6.4382-5.31-8.3239-9.1963-1.8857-3.8744-2.8295-7.9908-2.8295-12.325zm6.7376,0.10311c0,5.9564,1.5982,10.636,4.7944,14.062,3.2082,3.4243,7.2194,5.1375,12.05,5.1375,4.9194,0,8.9663-1.7231,12.139-5.1851,3.1745-3.46,4.7726-8.3695,4.7726-14.726,0-4.0132-0.69002-7.5188-2.0463-10.519-1.3582-3.002-3.347-5.3239-5.9564-6.9795-2.6213-1.6438-5.5519-2.4706-8.8057-2.4706-4.6338,0-8.6114,1.5862-11.946,4.7706-3.3331,3.1725-5.0007,8.4845-5.0007,15.91z" fill-rule="nonzero" inkscape:connector-curvature="0" class="fil1" fill="#000"/><line stroke-width="5.3556" y2="318.38" class="fil0 str0" x2="251.79" stroke="#000" y1="254.7" x1="214.28" fill="none"/><line stroke-width="5.2591" y2="329.04" class="fil0 str0" x2="235.76" stroke="#000" y1="261.5" x1="198.83" fill="none"/><path d="m88.82,429.86,6.1606-0.54131c0.28751,2.4726,0.96563,4.495,2.0364,6.0813,1.0687,1.5862,2.7244,2.8632,4.965,3.8407,2.2426,0.97753,4.7726,1.4594,7.5763,1.4594,2.4964,0,4.6913-0.36682,6.6008-1.1024,1.9075-0.74752,3.3331-1.7607,4.265-3.0476,0.92994-1.2987,1.4018-2.7026,1.4018-4.2313,0-1.5506-0.44812-2.8969-1.3562-4.0568-0.89623-1.1619-2.3794-2.1276-4.4375-2.9088-1.3344-0.51751-4.2551-1.3225-8.7958-2.4151-4.5288-1.0925-7.7132-2.1157-9.5314-3.0813-2.3556-1.2294-4.1143-2.77-5.2763-4.5982-1.15-1.8282-1.725-3.8744-1.725-6.1507,0-2.4845,0.70192-4.8182,2.1157-6.9795,1.4138-2.1732,3.4838-3.8169,6.1963-4.9432,2.7264-1.1143,5.7383-1.6775,9.0595-1.6775,3.6682,0,6.8883,0.58493,9.692,1.7706,2.7938,1.1718,4.9451,2.9068,6.4501,5.195,1.495,2.2882,2.31,4.8876,2.425,7.7845l-6.2657,0.46993c-0.34303-3.115-1.4812-5.4825-3.4243-7.0687-1.9432-1.5982-4.8064-2.3933-8.5995-2.3933-3.9557,0-6.8308,0.72571-8.6471,2.1732-1.8044,1.4494-2.7125,3.1963-2.7125,5.2326,0,1.7806,0.64442,3.2419,1.9194,4.38,1.265,1.148,4.5426,2.3219,9.8526,3.5175,5.312,1.2075,8.9564,2.2525,10.933,3.1507,2.8751,1.3324,5.0026,3.0119,6.3708,5.0344,1.3681,2.0344,2.0463,4.38,2.0463,7.0251,0,2.6332-0.74752,5.1038-2.2545,7.4256-1.505,2.3239-3.6662,4.1282-6.4838,5.427-2.8176,1.2888-5.9901,1.9313-9.5076,1.9313-4.4732,0-8.2208-0.64243-11.233-1.9531-3.0238-1.3007-5.3913-3.2538-7.1163-5.8751-1.7132-2.6094-2.6213-5.5757-2.7006-8.8751z" fill-rule="nonzero" inkscape:connector-curvature="0" class="fil1" fill="#000"/><path d="m137.26,421.68c0-8.197,2.197-14.611,6.6008-19.245,4.4018-4.6338,10.083-6.9557,17.048-6.9557,4.5525,0,8.6689,1.0925,12.325,3.2657,3.6563,2.1851,6.4501,5.2188,8.3695,9.117,1.9194,3.8863,2.8751,8.312,2.8751,13.243,0,5.0126-1.0013,9.4977-3.0238,13.44-2.0244,3.9557-4.8876,6.9438-8.5896,8.9802-3.7118,2.0344-7.7013,3.0456-11.99,3.0456-4.6556,0-8.8057-1.1143-12.462-3.3688-3.6682-2.2406-6.4382-5.31-8.3239-9.1963-1.8857-3.8744-2.8295-7.9908-2.8295-12.325zm6.7376,0.10311c0,5.9564,1.5982,10.636,4.7944,14.062,3.2082,3.4243,7.2194,5.1375,12.05,5.1375,4.9194,0,8.9663-1.7231,12.139-5.1851,3.1745-3.46,4.7726-8.3695,4.7726-14.726,0-4.0132-0.69002-7.5188-2.0463-10.519-1.3582-3.002-3.347-5.3239-5.9564-6.9795-2.6213-1.6438-5.5519-2.4706-8.8057-2.4706-4.6338,0-8.6114,1.5862-11.946,4.7706-3.3331,3.1725-5.0007,8.4845-5.0007,15.91z" fill-rule="nonzero" inkscape:connector-curvature="0" class="fil1" fill="#000"/><path d="m195.08,451.62,4.6596-0.61864c0.54131,2.6451,1.4514,4.5446,2.7343,5.7125,1.2908,1.1679,2.8552,1.7508,4.7032,1.7508,2.195,0,4.0509-0.75942,5.5638-2.2802,1.503-1.5228,2.2644-3.4065,2.2644-5.651,0-2.1414-0.69993-3.9101-2.0958-5.2981-1.4078-1.388-3.1844-2.0879-5.3417-2.0879-0.88434,0-1.9808,0.17845-3.2895,0.52148l0.52148-4.0945c0.30932,0.0357,0.55717,0.0535,0.75149,0.0535,1.9808,0,3.7674-0.52148,5.3596-1.5565,1.5902-1.035,2.3873-2.6352,2.3873-4.7925,0-1.7072-0.58295-3.1309-1.7429-4.2452-1.158-1.1243-2.653-1.6894-4.4832-1.6894-1.8123,0-3.3252,0.57502-4.5288,1.7072-1.2115,1.1401-1.9888,2.8552-2.3338,5.1375l-4.6616-0.8308c0.56708-3.1309,1.8658-5.5539,3.8824-7.269,2.0264-1.7171,4.5367-2.5836,7.5446-2.5836,2.0701,0,3.9795,0.45208,5.7224,1.3364,1.7409,0.89227,3.0773,2.1038,4.0053,3.6424,0.92002,1.5387,1.388,3.1666,1.388,4.8995,0,1.6358-0.44217,3.1309-1.3265,4.4851-0.88434,1.3444-2.1831,2.4131-3.9081,3.2102,2.2465,0.51156,3.9874,1.5902,5.2346,3.228,1.2393,1.6259,1.8579,3.6702,1.8579,6.119,0,3.3172-1.2036,6.1289-3.6266,8.4369-2.4131,2.308-5.4746,3.458-9.1705,3.458-3.3331,0-6.1011-0.99141-8.304-2.9802-2.2029-1.9808-3.458-4.5545-3.7674-7.7211z" fill-rule="nonzero" inkscape:connector-curvature="0" class="fil1" fill="#000"/><polygon fill-rule="nonzero" class="fil1" points="257.36,416.63,257.36,396.35,263.9,396.35,263.9,445.73,257.36,445.73,257.36,422.46,231.7,422.46,231.7,445.73,225.16,445.73,225.16,396.35,231.7,396.35,231.7,416.63" fill="#000"/><line stroke-linejoin="round" y2="382.05" fill="none" class="fil0 str0" x2="96.428" stroke="#000" stroke-linecap="round" y1="323.68" x1="58.929" stroke-width="5.3556"/><polygon points="0,0,300,0,300,466.95,0,466.95" fill="none" class="fil0"/>
</svg>
