<?xml version="1.0" encoding="UTF-8" standalone="no"?>
<!-- Generator: Adobe Illustrator 12.0.1, SVG Export Plug-In . SVG Version: 6.00 Build 51448)  -->
<svg
   xmlns:dc="http://purl.org/dc/elements/1.1/"
   xmlns:cc="http://creativecommons.org/ns#"
   xmlns:rdf="http://www.w3.org/1999/02/22-rdf-syntax-ns#"
   xmlns:svg="http://www.w3.org/2000/svg"
   xmlns="http://www.w3.org/2000/svg"
   xmlns:sodipodi="http://sodipodi.sourceforge.net/DTD/sodipodi-0.dtd"
   xmlns:inkscape="http://www.inkscape.org/namespaces/inkscape"
   version="1.1"
   id="Layer_1"
   width="275.422"
   height="253.033"
   viewBox="0 0 275.422 253.033"
   style="overflow:visible;enable-background:new 0 0 275.422 253.033;"
   xml:space="preserve"
   sodipodi:version="0.32"
   inkscape:version="0.46"
   sodipodi:docname="Desoxyadenosin.svg"
   inkscape:output_extension="org.inkscape.output.svg.inkscape"><metadata
   id="metadata96"><rdf:RDF><cc:Work
       rdf:about=""><dc:format>image/svg+xml</dc:format><dc:type
         rdf:resource="http://purl.org/dc/dcmitype/StillImage" /></cc:Work></rdf:RDF></metadata><defs
   id="defs94"><inkscape:perspective
   sodipodi:type="inkscape:persp3d"
   inkscape:vp_x="0 : 126.5165 : 1"
   inkscape:vp_y="0 : 1000 : 0"
   inkscape:vp_z="275.422 : 126.5165 : 1"
   inkscape:persp3d-origin="137.711 : 84.344335 : 1"
   id="perspective98" />
	

	
	

	
	

	

	

	

	

	
	

	
</defs><sodipodi:namedview
   inkscape:window-height="675"
   inkscape:window-width="661"
   inkscape:pageshadow="2"
   inkscape:pageopacity="0.0"
   guidetolerance="10.0"
   gridtolerance="10.0"
   objecttolerance="10.0"
   borderopacity="1.0"
   bordercolor="#666666"
   pagecolor="#ffffff"
   id="base"
   showgrid="false"
   inkscape:zoom="1.8258488"
   inkscape:cx="137.711"
   inkscape:cy="126.5165"
   inkscape:window-x="132"
   inkscape:window-y="132"
   inkscape:current-layer="Layer_1" />
<path
   style="fill:#231f20"
   d="M 133.72388,197.311 L 139.28043,202.156 L 88.264475,202.156 L 87.457925,199.7335 L 90.212925,197.311 L 133.72388,197.311 z"
   id="polygon3" />
<path
   style="fill:#231f20"
   d="M 62.139475,157.4585 L 62.948875,157.316 L 64.087925,157.601 L 90.212925,197.311 L 87.457925,199.7335 L 86.650425,206.1935 L 62.139475,157.4585 z"
   id="polygon5" />
<path
   style="fill:#231f20"
   d="M 159.80043,157.601 L 160.93948,157.316 L 161.74888,157.4585 L 139.28043,202.156 L 133.72388,197.311 L 159.80043,157.601 z"
   id="polygon7" />
<path
   style="fill:#231f20"
   d="M 101.70793,136.8435 L 102.46793,138.2685 L 64.087925,157.601 L 62.948875,157.316 L 63.755425,155.986 L 101.70793,136.8435 z"
   id="polygon9" />
<path
   id="path13"
   d="M 103.75613,133.83675 C 103.75613,131.1264 104.48383,129.006 105.93923,127.47365 C 107.39463,125.94035 109.27373,125.1737 111.57558,125.1737 C 113.08323,125.1737 114.44173,125.53375 115.65203,126.25385 C 116.86233,126.9749 117.78478,127.9781 118.42033,129.2663 C 119.05588,130.5545 119.37223,132.0156 119.37223,133.6477 C 119.37223,135.30355 119.03783,136.7846 118.36998,138.09085 C 117.70213,139.3971 116.75498,140.387 115.52948,141.05865 C 114.30398,141.7303 112.98253,142.0666 111.56418,142.0666 C 110.02708,142.0666 108.65338,141.69515 107.44308,140.9532 C 106.23278,140.21125 105.31603,139.19665 104.69188,137.9132 C 104.06773,136.62975 103.75613,135.26935 103.75613,133.83675 z M 105.98293,133.8643 C 105.98293,135.8308 106.51208,137.38025 107.57038,138.51265 C 108.62868,139.64505 109.95678,140.2103 111.55278,140.2103 C 113.17918,140.2103 114.51773,139.6384 115.56938,138.49555 C 116.62008,137.3527 117.14543,135.73105 117.14543,133.6306 C 117.14543,132.3025 116.92123,131.14255 116.47188,130.1517 C 116.02253,129.16085 115.36513,128.3923 114.49968,127.847 C 113.63423,127.3017 112.66333,127.02905 111.58698,127.02905 C 110.05748,127.02905 108.74078,127.5544 107.63783,128.60415 C 106.53488,129.6539 105.98293,131.4076 105.98293,133.8643 z"
   style="fill:#231f20" />
<path
   style="fill:#231f20"
   d="M 120.75543,138.221 L 121.46793,136.796 L 160.13293,155.986 L 160.93948,157.316 L 159.80043,157.601 L 120.75543,138.221 z"
   id="polygon15" />
<path
   style="fill:#231f20"
   d="M 62.139475,120.076 L 63.755425,119.126 L 63.755425,155.986 L 62.948875,157.316 L 62.139475,157.4585 L 62.139475,120.076 z"
   id="polygon17" />
<path
   id="path21"
   d="M 79.626125,238.4783 C 79.626125,235.76795 80.353825,233.64755 81.809225,232.1152 C 83.264625,230.5819 85.143725,229.81525 87.445575,229.81525 C 88.953225,229.81525 90.311725,230.1753 91.522025,230.8954 C 92.732325,231.61645 93.654775,232.61965 94.290325,233.90785 C 94.925875,235.19605 95.242225,236.65715 95.242225,238.28925 C 95.242225,239.9451 94.907825,241.42615 94.239975,242.7324 C 93.572125,244.03865 92.624975,245.02855 91.399475,245.7002 C 90.173975,246.37185 88.852525,246.70815 87.434175,246.70815 C 85.897075,246.70815 84.523375,246.3367 83.313075,245.59475 C 82.102775,244.8528 81.186025,243.8382 80.561875,242.55475 C 79.937725,241.2713 79.626125,239.91185 79.626125,238.4783 z M 81.852925,238.50585 C 81.852925,240.47235 82.382075,242.0218 83.440375,243.1542 C 84.498675,244.2866 85.826775,244.85185 87.422775,244.85185 C 89.049175,244.85185 90.387725,244.27995 91.439375,243.1371 C 92.490075,241.99425 93.015425,240.3726 93.015425,238.27215 C 93.015425,236.94405 92.791225,235.7841 92.341875,234.79325 C 91.892525,233.8024 91.235125,233.03385 90.369675,232.48855 C 89.504225,231.94325 88.533325,231.6706 87.456975,231.6706 C 85.927475,231.6706 84.610775,232.19595 83.507825,233.2457 C 82.404875,234.29545 81.852925,236.04915 81.852925,238.50585 z"
   style="fill:#231f20" /><path
   id="path23"
   d="M 98.102675,246.42505 L 98.102675,230.09645 L 100.26963,230.09645 L 100.26963,236.8063 L 108.71608,236.8063 L 108.71608,230.09645 L 110.88303,230.09645 L 110.88303,246.42505 L 108.71608,246.42505 L 108.71608,238.73575 L 100.26963,238.73575 L 100.26963,246.42505 L 98.102675,246.42505 z"
   style="fill:#231f20" />
<path
   style="fill:#231f20"
   d="M 88.264475,227.616 L 86.650425,227.616 L 86.650425,206.1935 L 87.457925,199.7335 L 88.264475,202.156 L 88.264475,227.616 z"
   id="polygon25" />
<path
   style="fill:#231f20"
   d="M 160.13293,130.716 L 161.74888,130.716 L 161.74888,157.4585 L 160.93948,157.316 L 160.13293,155.986 L 160.13293,130.716 z"
   id="polygon27" />
<path
   id="path31"
   d="M 6.885575,109.721 L 6.885575,93.3924 L 9.052525,93.3924 L 9.052525,100.10225 L 17.498975,100.10225 L 17.498975,93.3924 L 19.665925,93.3924 L 19.665925,109.721 L 17.498975,109.721 L 17.498975,102.0317 L 9.052525,102.0317 L 9.052525,109.721 L 6.885575,109.721 z"
   style="fill:#231f20" /><path
   id="path33"
   d="M 22.609025,101.77425 C 22.609025,99.0639 23.336725,96.9435 24.792125,95.41115 C 26.247525,93.87785 28.126625,93.1112 30.428475,93.1112 C 31.936125,93.1112 33.294625,93.47125 34.504925,94.19135 C 35.715225,94.9124 36.637675,95.9156 37.273225,97.2038 C 37.908775,98.492 38.225125,99.9531 38.225125,101.5852 C 38.225125,103.24105 37.890725,104.7221 37.222875,106.02835 C 36.555025,107.3346 35.607875,108.3245 34.382375,108.99615 C 33.156875,109.6678 31.835425,110.0041 30.417075,110.0041 C 28.879975,110.0041 27.506275,109.63265 26.295975,108.8907 C 25.085675,108.14875 24.168925,107.13415 23.544775,105.8507 C 22.920625,104.56725 22.609025,103.20685 22.609025,101.77425 z M 24.835825,101.8018 C 24.835825,103.7683 25.364975,105.31775 26.423275,106.45015 C 27.481575,107.58255 28.809675,108.1478 30.405675,108.1478 C 32.032075,108.1478 33.370625,107.5759 34.422275,106.43305 C 35.472975,105.2902 35.998325,103.66855 35.998325,101.5681 C 35.998325,100.24 35.774125,99.08005 35.324775,98.0892 C 34.875425,97.09835 34.218025,96.3298 33.352575,95.7845 C 32.487125,95.2392 31.516225,94.96655 30.439875,94.96655 C 28.910375,94.96655 27.593675,95.4919 26.490725,96.54165 C 25.387775,97.5914 24.835825,99.3451 24.835825,101.8018 z"
   style="fill:#231f20" />
<path
   style="fill:#231f20"
   d="M 39.245425,106.8235 L 40.051975,105.446 L 63.755425,119.126 L 62.139475,120.076 L 39.245425,106.8235 z"
   id="polygon35" />
<path
   id="path39"
   d="M 255.68203,79.226 L 255.68203,62.89835 L 257.90503,62.89835 L 266.45883,75.7129 L 266.45883,62.89835 L 268.53743,62.89835 L 268.53743,79.22695 L 266.31443,79.22695 L 257.76063,66.4124 L 257.76063,79.22695 L 255.68203,79.22695 L 255.68203,79.226 z"
   style="fill:#231f20" />
<path
   id="path43"
   d="M 223.04953,135.846 L 223.04953,119.5174 L 225.27253,119.5174 L 233.82633,132.33195 L 233.82633,119.5174 L 235.90493,119.5174 L 235.90493,135.846 L 233.68193,135.846 L 225.12813,123.03145 L 225.12813,135.846 L 223.04953,135.846 L 223.04953,135.846 z"
   style="fill:#231f20" />
<path
   style="fill:#231f20"
   d="M 262.92388,108.391 L 261.30793,107.4885 L 261.30793,81.3635 L 262.92388,81.3635 L 262.92388,108.391 z"
   id="polygon45" />
<path
   style="fill:#231f20"
   d="M 239.69543,121.881 L 238.83948,120.5035 L 261.30793,107.4885 L 262.92388,108.391 L 239.69543,121.881 z"
   id="polygon47" />
<path
   style="fill:#231f20"
   d="M 236.84543,116.9885 L 236.03793,115.611 L 256.08292,103.9735 L 256.88948,105.351 L 236.84543,116.9885 z"
   id="polygon49" />
<path
   style="fill:#231f20"
   d="M 196.70793,108.8185 L 196.80198,107.916 L 197.61138,107.4885 L 220.07698,120.456 L 219.27043,121.881 L 196.70793,108.8185 z"
   id="polygon51" />
<path
   style="fill:#231f20"
   d="M 195.99543,70.8185 L 196.80198,70.2485 L 197.61138,70.7235 L 197.61138,107.4885 L 196.80198,107.916 L 195.99543,107.346 L 195.99543,70.8185 z"
   id="polygon53" />
<path
   style="fill:#231f20"
   d="M 201.64888,73.526 L 203.26293,73.526 L 203.26293,104.686 L 201.64888,104.686 L 201.64888,73.526 z"
   id="rect55" />
<path
   style="fill:#231f20"
   d="M 228.67543,50.916 L 229.48293,51.391 L 229.48293,52.341 L 197.61138,70.7235 L 196.80198,70.2485 L 196.70793,69.346 L 228.67543,50.916 z"
   id="polygon57" />
<path
   style="fill:#231f20"
   d="M 229.48293,52.341 L 229.48293,51.391 L 230.28948,50.916 L 252.71138,63.8835 L 251.90197,65.261 L 229.48293,52.341 z"
   id="polygon59" />
<path
   style="fill:#231f20"
   d="M 229.10198,58.611 L 229.91138,57.2335 L 249.90793,68.776 L 249.10043,70.1535 L 229.10198,58.611 z"
   id="polygon61" />
<path
   id="path65"
   d="M 154.50702,128.57945 L 154.50702,112.25085 L 156.73003,112.25085 L 165.28383,125.0654 L 165.28383,112.25085 L 167.36243,112.25085 L 167.36243,128.57945 L 165.13943,128.57945 L 156.58563,115.7649 L 156.58563,128.57945 L 154.50702,128.57945 z"
   style="fill:#231f20" />
<path
   id="path69"
   d="M 154.50702,67.54195 L 154.50702,51.21335 L 156.73003,51.21335 L 165.28383,64.0279 L 165.28383,51.21335 L 167.36243,51.21335 L 167.36243,67.54195 L 165.13943,67.54195 L 156.58563,54.7274 L 156.58563,67.54195 L 154.50702,67.54195 z"
   style="fill:#231f20" />
<path
   style="fill:#231f20"
   d="M 170.58293,117.321 L 170.10793,115.7535 L 195.99543,107.346 L 196.80198,107.916 L 196.70793,108.8185 L 170.58293,117.321 z"
   id="polygon71" />
<path
   style="fill:#231f20"
   d="M 137.76138,89.106 L 139.75543,89.106 L 154.62388,109.4835 L 153.29293,110.4335 L 137.76138,89.106 z"
   id="polygon73" />
<path
   style="fill:#231f20"
   d="M 152.53293,68.8235 L 153.81448,69.7735 L 139.75543,89.106 L 137.76138,89.106 L 152.53293,68.8235 z"
   id="polygon75" />
<path
   style="fill:#231f20"
   d="M 157.09293,72.1485 L 158.42388,73.0985 L 146.40543,89.581 L 145.12388,88.631 L 157.09293,72.1485 z"
   id="polygon77" />
<path
   style="fill:#231f20"
   d="M 170.10793,62.411 L 170.58293,60.8435 L 196.70793,69.346 L 196.80198,70.2485 L 195.99543,70.8185 L 170.10793,62.411 z"
   id="polygon79" />
<path
   id="path83"
   d="M 223.04953,22.65445 L 223.04953,6.32585 L 225.27253,6.32585 L 233.82633,19.1404 L 233.82633,6.32585 L 235.90493,6.32585 L 235.90493,22.65445 L 233.68193,22.65445 L 225.12813,9.8399 L 225.12813,22.65445 L 223.04953,22.65445 z"
   style="fill:#231f20" /><path
   id="path85"
   d="M 239.61848,22.65445 L 239.61848,6.32585 L 241.78543,6.32585 L 241.78543,13.0357 L 250.23188,13.0357 L 250.23188,6.32585 L 252.39883,6.32585 L 252.39883,22.65445 L 250.23188,22.65445 L 250.23188,14.96515 L 241.78543,14.96515 L 241.78543,22.65445 L 239.61848,22.65445 z"
   style="fill:#231f20" />
<path
   id="path89"
   d="M 262.64173,25.48925 L 262.64173,26.92945 L 254.53727,26.92945 C 254.52588,26.5675 254.58573,26.2198 254.71398,25.8854 C 254.92203,25.3344 255.25358,24.79195 255.71053,24.25805 C 256.16748,23.72415 256.82203,23.1076 257.67703,22.4084 C 259.00228,21.31305 259.90193,20.4476 260.37503,19.8111 C 260.84813,19.1746 261.08373,18.57135 261.08373,18.00325 C 261.08373,17.40855 260.86998,16.9079 260.44248,16.49845 C 260.01498,16.08995 259.45828,15.8857 258.76953,15.8857 C 258.04183,15.8857 257.46138,16.10325 257.02533,16.5393 C 256.58928,16.97535 256.36888,17.5786 256.36318,18.34905 L 254.81943,18.18565 C 254.92488,17.03045 255.32388,16.15075 256.01643,15.54655 C 256.70898,14.94045 257.63808,14.63835 258.80373,14.63835 C 259.98078,14.63835 260.91368,14.9642 261.59863,15.6159 C 262.28453,16.2676 262.62748,17.0751 262.62748,18.0384 C 262.62748,18.5286 262.52773,19.01025 262.32728,19.48335 C 262.12588,19.95645 261.79243,20.4552 261.32693,20.97865 C 260.85953,21.5021 260.08718,22.2203 259.00798,23.13325 C 258.10548,23.89135 257.52503,24.40435 257.26758,24.6751 C 257.01013,24.94395 256.79638,25.21565 256.62728,25.4883 L 262.64173,25.4883 L 262.64173,25.48925 z"
   style="fill:#231f20" />
<path
   style="fill:#231f20"
   d="M 228.67543,24.791 L 230.28948,24.791 L 230.28948,50.916 L 229.48293,51.391 L 228.67543,50.916 L 228.67543,24.791 z"
   id="polygon91" />
</svg>