<svg xmlns:rdf="http://www.w3.org/1999/02/22-rdf-syntax-ns#" xmlns="http://www.w3.org/2000/svg" height="96" shape-rendering="geometricPrecision" width="170" version="1.1" xmlns:cc="http://creativecommons.org/ns#" xmlns:dc="http://purl.org/dc/elements/1.1/" preserveAspectRatio="xMidYMid">
<title>(2E,3E)-biacetyl dioxime</title>
<metadata>
<rdf:RDF>
<cc:Work rdf:about="">
<dc:format>image/svg+xml</dc:format>
<dc:type rdf:resource="http://purl.org/dc/dcmitype/StillImage"/>
<dc:title>(2E,3E)-biacetyl dioxime</dc:title>
<cc:license rdf:resource="http://creativecommons.org/licenses/publicdomain/"/>
</cc:Work>
<cc:License rdf:about="http://creativecommons.org/licenses/publicdomain/">
<cc:permits rdf:resource="http://creativecommons.org/ns#Reproduction"/>
<cc:permits rdf:resource="http://creativecommons.org/ns#Distribution"/>
<cc:permits rdf:resource="http://creativecommons.org/ns#DerivativeWorks"/>
</cc:License>
</rdf:RDF>
</metadata>
<path d="M97.96875,2.71875c-1.26303,0.00001-2.41733,0.29884-3.46875,0.875-1.05144,0.57618-1.86784,1.42124-2.4375,2.53125-0.56966,1.11004-0.84375,2.3841203-0.84375,3.875,0,1.36719,0.24544,2.65235,0.75,3.84375,0.50455,1.19141,1.25195,2.12175,2.21875,2.75,0.96679,0.62826,2.20702,0.9375,3.75,0.9375,1.49087,0,2.74934-0.40169,3.78125-1.21875,1.03189-0.81706,1.7591-2.00651,2.15625-3.5625l-1.90625-0.5c-0.26043,1.20444-0.76433,2.13803-1.5,2.75-0.73569,0.61198-1.62631,0.90625-2.6875,0.90625-0.8724,0-1.68881-0.23828-2.4375-0.6875-0.7487-0.44921-1.30143-1.12304-1.65625-2.03125-0.35482-0.9082-0.53126-1.97004-0.53125-3.1875-0.00001-0.9439997,0.16926-1.86132,0.46875-2.75,0.29947-0.88866,0.82357-1.59765,1.5625-2.125,0.73893-0.52733,1.64974-0.78123,2.75-0.78125,0.95703,0.00002,1.74348,0.24351,2.375,0.71875,0.63149,0.47528,1.10546,1.2396,1.4375,2.28125l1.875-0.46875c-0.38413-1.3216-1.0547-2.33332-2.03125-3.0625-0.97658-0.72915-2.19272-1.09374-3.625-1.09375zm8.3125,0.25,0,14.3125,1.875,0,0-6.75,7.4375,0,0,6.75,1.90625,0,0-14.3125-1.90625,0,0,5.875-7.4375,0,0-5.875-1.875,0zm16.84375,8.0625c-0.84961,0.00001-1.55371,0.23292-2.125,0.71875-0.57129,0.48584-0.96387,1.17872-1.125,2.0625l1.34375,0.21875c0.09765-0.64452,0.31445-1.11523,0.65625-1.4375,0.34179-0.32226,0.76856-0.46874,1.28125-0.46875,0.51758,0.00001,0.92285,0.15138,1.25,0.46875,0.32715,0.3174,0.49999,0.70411,0.5,1.1875-0.00001,0.61036-0.23829,1.08203-0.6875,1.375-0.44922,0.29297-0.93848,0.43751-1.5,0.4375-0.05372,0-0.13085-0.02125-0.21875-0.03125l-0.15625,1.15625c0.37109-0.09769,0.68847-0.12499,0.9375-0.125,0.61034,0.00001,1.10449,0.16944,1.5,0.5625,0.39551,0.39307,0.59374,0.89453,0.59375,1.5-0.00001,0.63476-0.19776,1.16406-0.625,1.59375-0.42725,0.42968-0.94239,0.65625-1.5625,0.65625-0.52246,0-0.97999-0.17041-1.34375-0.5-0.36378-0.32959-0.62988-0.84668-0.78125-1.59375l-1.3125,0.15625c0.08789,0.89356,0.43994,1.62598,1.0625,2.1875,0.62255,0.56152,1.40136,0.84375,2.34375,0.84375,1.04491,0,1.91015-0.31689,2.59375-0.96875,0.68359-0.65185,1.03124-1.46875,1.03125-2.40625-0.00001-0.69336-0.1797-1.25732-0.53125-1.71875-0.35157-0.46142-0.834-0.75976-1.46875-0.90625,0.48827-0.22461,0.84472-0.52538,1.09375-0.90625,0.24902-0.38085,0.37499-0.81737,0.375-1.28125-0.00001-0.48827-0.11377-0.94043-0.375-1.375-0.26123-0.43456-0.63184-0.77977-1.125-1.03125-0.49317-0.25145-1.03907-0.37499-1.625-0.375zm-26.3125,9.75,0,17.65625-24.34375,14.0625-16.25-9.40625-0.625,1.03125,16.28125,9.40625,0,18.03125,1.1875,0,0-18.03125,24.34375-14.0625,16.25,9.40625,0.625-1.0625-16.28125-9.375,0-17.65625-1.1875,0zm50.5,10.71875c-2.01823,0.00002-3.69271,0.68687-4.96875,2.03125-1.27605,1.34441-1.90626,3.1862-1.90625,5.5625-0.00001,1.25651,0.26562,2.46745,0.8125,3.59375,0.54687,1.1263,1.3763,2.00521,2.4375,2.65625,1.06119,0.65104,2.24609,0.96875,3.59375,0.96875,1.24348,0,2.42577-0.28581,3.5-0.875,1.07421-0.5892,1.88279-1.44792,2.46875-2.59375,0.58592-1.14583,0.87499-2.45442,0.875-3.90625-0.00001-1.43228-0.25587-2.71418-0.8125-3.84375-0.55665-1.12955-1.37631-1.99348-2.4375-2.625-1.06121-0.6315-2.24089-0.96873-3.5625-0.96875zm-105.4375,0.15625,0,14.3125,1.8125,0,0-11.25,7.5,11.25,1.96875,0,0-14.3125-1.84375,0,0,11.21875-7.5-11.21875-1.9375,0zm114.75,0.09375,0,14.34375,1.90625,0,0-6.75,7.4375,0,0,6.75,1.875,0,0-14.34375-1.875,0,0,5.90625-7.4375,0,0-5.90625-1.90625,0zm-9.3125,1.375c0.944,0.00001,1.80403,0.24025,2.5625,0.71875,0.75845,0.47853,1.32485,1.16212,1.71875,2.03125,0.39386,0.86915,0.59373,1.89714,0.59375,3.0625-0.00002,1.84245-0.45379,3.2474-1.375,4.25-0.92123,1.00261-2.10548,1.5-3.53125,1.5-1.39974,0-2.57227-0.47591-3.5-1.46875-0.92774-0.99283-1.375-2.36848-1.375-4.09375,0-2.15493,0.4707-3.67252,1.4375-4.59375,0.96679-0.92122,2.1276-1.40624,3.46875-1.40625zm-44.4375,2.15625-0.59375,1.03125,13.96875,8.0625,0.59375-1.03125-13.96875-8.0625zm-64,7.8125-7.375,4.25,0.59375,1.03125,7.375-4.25-0.59375-1.03125zm99,0.4375-7.375,4.25,0.59375,1.03125,7.375-4.25-0.59375-1.03125zm-115.1875,2.375c-2.01824,0.00001-3.69271,0.68686-4.96875,2.03125-1.27604,1.34441-1.90625,3.18621-1.90625,5.5625,0,1.25652,0.26562,2.46745,0.8125,3.59375,0.54687,1.1263,1.3763,2.00521,2.4375,2.65625,1.06119,0.65104,2.24609,0.96875,3.59375,0.96875,1.24348,0,2.39453-0.28581,3.46875-0.875,1.07421-0.58919,1.91405-1.44791,2.5-2.59375,0.58592-1.14583,0.87499-2.45443,0.875-3.90625-0.00001-1.43229-0.25587-2.71418-0.8125-3.84375-0.55665-1.12954-1.37632-2.02473-2.4375-2.65625-1.06121-0.6315-2.2409-0.93749-3.5625-0.9375zm94,0.125,0,14.34375,1.8125,0,0-11.25,7.53125,11.25,1.9375,0,0-14.34375-1.8125,0,0,11.25-7.53125-11.25-1.9375,0zm-114.6875,0.125,0,14.3125,1.90625,0,0-6.75,7.4375,0,0,6.75,1.875,0,0-14.3125-1.875,0,0,5.875-7.4375,0,0-5.875-1.90625,0zm20.6875,1.375c0.944,0.00002,1.80403,0.24024,2.5625,0.71875,0.75846,0.47853,1.32486,1.16212,1.71875,2.03125,0.39387,0.86915,0.59374,1.89714,0.59375,3.0625-0.00001,1.84245-0.45378,3.2474-1.375,4.25-0.92123,1.0026-2.10548,1.50001-3.53125,1.5-1.39975,0.00001-2.57228-0.47591-3.5-1.46875-0.92774-0.99284-1.375-2.36849-1.375-4.09375,0-2.15494,0.4707-3.67252,1.4375-4.59375,0.96679-0.92121,2.1276-1.40623,3.46875-1.40625zm30.9375,0.0625-0.59375,1.03125,13.96875,8.0625,0.59375-1.03125-13.96875-8.0625zm19.40625,27.125c-1.26302,0.00001-2.41732,0.29884-3.46875,0.875-1.05143,0.57618-1.86784,1.42124-2.4375,2.53125-0.56966,1.11004-0.84375,2.38412-0.84375,3.875,0,1.36719,0.24544,2.65235,0.75,3.84375,0.50455,1.19141,1.25195,2.12175,2.21875,2.75,0.96679,0.62826,2.20702,0.9375,3.75,0.9375,1.49087,0,2.74933-0.40169,3.78125-1.21875,1.03188-0.81706,1.7591-2.00651,2.15625-3.5625l-1.90625-0.5c-0.26043,1.20444-0.76434,2.13803-1.5,2.75-0.73569,0.61198-1.62632,0.90625-2.6875,0.90625-0.87241,0-1.68881-0.23828-2.4375-0.6875-0.74871-0.44921-1.30143-1.12304-1.65625-2.03125-0.35482-0.9082-0.53126-1.97004-0.53125-3.1875-0.00001-0.944,0.16927-1.86132,0.46875-2.75,0.29948-0.88866,0.82356-1.59765,1.5625-2.125,0.73893-0.52733,1.64973-0.78123,2.75-0.78125,0.95702,0.00002,1.74348,0.24351,2.375,0.71875,0.6315,0.47528,1.10545,1.2396,1.4375,2.28125l1.875-0.46875c-0.38413-1.3216-1.0547-2.33332-2.03125-3.0625-0.97657-0.72915-2.19271-1.09374-3.625-1.09375zm8.3125,0.25,0,14.3125,1.875,0,0-6.75,7.4375,0,0,6.75,1.90625,0,0-14.3125-1.90625,0,0,5.875-7.4375,0,0-5.875-1.875,0zm16.84375,8.0625c-0.84962,0.00001-1.58497,0.23292-2.15625,0.71875-0.57129,0.48584-0.93262,1.17872-1.09375,2.0625l1.3125,0.21875c0.09766-0.64452,0.3457-1.11523,0.6875-1.4375,0.3418-0.32226,0.76855-0.46874,1.28125-0.46875,0.51758,0.00001,0.92285,0.15138,1.25,0.46875,0.32715,0.3174,0.5,0.70411,0.5,1.1875,0,0.61036-0.23829,1.08203-0.6875,1.375-0.44923,0.29297-0.93848,0.43751-1.5,0.4375-0.05371,0-0.13085-0.02125-0.21875-0.03125l-0.15625,1.15625c0.37109-0.09769,0.68848-0.12499,0.9375-0.125,0.61035,0.00001,1.10449,0.16944,1.5,0.5625,0.3955,0.39307,0.59375,0.89453,0.59375,1.5,0,0.63476-0.19776,1.16406-0.625,1.59375-0.42725,0.42968-0.94239,0.65625-1.5625,0.65625-0.52247,0-0.97998-0.17041-1.34375-0.5s-0.62989-0.84668-0.78125-1.59375l-1.3125,0.15625c0.08789,0.89356,0.43994,1.62598,1.0625,2.1875s1.40136,0.84375,2.34375,0.84375c1.04491,0,1.91015-0.31689,2.59375-0.96875,0.68358-0.65185,1.03124-1.46875,1.03125-2.40625-0.00001-0.69336-0.1797-1.25732-0.53125-1.71875-0.35157-0.46142-0.83399-0.75976-1.46875-0.90625,0.48828-0.22461,0.84472-0.52538,1.09375-0.90625,0.24902-0.38085,0.37499-0.81737,0.375-1.28125-0.00001-0.48827-0.11378-0.94043-0.375-1.375-0.26124-0.43456-0.66309-0.77977-1.15625-1.03125-0.49317-0.25145-1.00782-0.37499-1.59375-0.375z" fill="#000"/>
</svg>
