<?xml version="1.0" encoding="UTF-8" standalone="no"?>
<!-- Created with Inkscape (http://www.inkscape.org/) -->
<svg
   xmlns:svg="http://www.w3.org/2000/svg"
   xmlns="http://www.w3.org/2000/svg"
   version="1.0"
   width="420"
   height="425.63"
   id="svg2">
  <defs
     id="defs4" />
  <g
     transform="translate(-1065.0358,-434.73353)"
     id="layer1">
    <path
       d="M 1313.5002,813.4779 L 1313.5002,776.59187 L 1318.588,776.59187 L 1323.6757,776.59187 L 1323.6757,791.85505 L 1323.6757,807.11824 L 1342.7547,807.11824 L 1361.8337,807.11824 L 1361.8337,791.85505 L 1361.8337,776.59187 L 1366.9214,776.59187 L 1372.0091,776.59187 L 1372.0091,813.4779 L 1372.0091,850.36394 L 1366.9214,850.36394 L 1361.8337,850.36394 L 1361.8337,833.19285 L 1361.8337,816.02177 L 1342.7547,816.02177 L 1323.6757,816.02177 L 1323.6757,833.19285 L 1323.6757,850.36394 L 1318.588,850.36394 L 1313.5002,850.36394 L 1313.5002,813.4779 z M 1095.5976,770.93328 C 1087.5853,768.07575 1083.3995,763.86623 1078.4582,753.69708 C 1075.5111,747.63198 1075.0559,745.09419 1075.0359,734.6181 C 1075.0105,721.26085 1077.6275,713.23571 1084.3026,706.20112 C 1091.8923,698.20272 1105.9876,694.57826 1117.4479,697.67818 C 1124.0912,699.4752 1132.0863,706.66523 1134.7692,713.25541 L 1136.6875,717.96732 L 1131.9249,719.28379 C 1129.3053,720.00785 1127.0169,720.17696 1126.8392,719.6596 C 1125.5481,715.90005 1120.7802,710.01262 1117.3164,707.90065 C 1108.1152,702.29069 1094.0258,706.62753 1088.3682,716.81105 C 1085.6012,721.79167 1085.1884,724.10346 1085.1884,734.6181 C 1085.1884,745.13274 1085.6012,747.44453 1088.3682,752.42515 C 1092.6157,760.07066 1100.4745,764.26131 1109.1319,763.49734 C 1116.7797,762.82245 1121.1703,759.67883 1125.2542,751.95385 C 1128.3154,746.16358 1128.6003,745.96943 1132.8858,746.75171 C 1135.3343,747.19863 1137.5205,747.74386 1137.7441,747.96333 C 1139.0902,749.28475 1131.7513,762.10161 1127.6274,765.63155 C 1119.4909,772.59609 1106.3561,774.77022 1095.5976,770.93328 z M 1150.6929,734.6181 L 1150.6929,697.73206 L 1155.1447,697.73206 L 1159.5964,697.73206 L 1159.5964,734.6181 L 1159.5964,771.50414 L 1155.1447,771.50414 L 1150.6929,771.50414 L 1150.6929,734.6181 z M 1416.5267,734.6181 L 1416.5267,697.73206 L 1421.6145,697.73206 L 1426.7022,697.73206 L 1426.7022,712.99525 L 1426.7022,728.25844 L 1445.7812,728.25844 L 1464.8603,728.25844 L 1464.8603,712.99525 L 1464.8603,697.73206 L 1469.948,697.73206 L 1475.0358,697.73206 L 1475.0358,734.6181 L 1475.0358,771.50414 L 1469.948,771.50414 L 1464.8603,771.50414 L 1464.8603,754.33305 L 1464.8603,737.16196 L 1445.7812,737.16196 L 1426.7022,737.16196 L 1426.7022,754.33305 L 1426.7022,771.50414 L 1421.6145,771.50414 L 1416.5267,771.50414 L 1416.5267,734.6181 z M 1314.7722,764.05765 C 1314.7722,760.53835 1315.3034,760.01425 1320.1779,758.72464 C 1323.151,757.93805 1329.5504,756.20673 1334.3986,754.87726 C 1339.2468,753.5478 1343.319,752.5953 1343.4479,752.76059 C 1345.0159,754.77254 1346.3634,758.75249 1345.62,759.17654 C 1345.0935,759.47691 1338.7332,761.27077 1331.4861,763.16288 C 1324.239,765.05501 1317.5137,766.90852 1316.5409,767.2818 C 1315.2674,767.77047 1314.7722,766.86774 1314.7722,764.05765 z M 1313.5002,743.52014 C 1313.5002,740.21261 1314.1247,739.70481 1320.4548,737.86462 C 1333.3243,734.12334 1334.7342,734.05878 1336.3808,737.13537 C 1337.2015,738.66895 1337.6557,740.1411 1337.39,740.4068 C 1337.1243,740.67252 1331.6404,742.29932 1325.2035,744.02193 L 1313.5002,747.15393 L 1313.5002,743.52014 z M 1179.1039,718.30355 C 1174.8066,710.83682 1171.6644,704.33298 1172.1211,703.85057 C 1172.578,703.36815 1192.0672,695.12075 1215.4304,685.523 C 1255.6399,669.00478 1258.0011,668.19828 1259.6301,670.42608 C 1260.5766,671.72053 1261.351,673.17389 1261.351,673.65575 C 1261.351,674.30121 1215.3829,710.27727 1188.202,730.90432 C 1187.4321,731.48854 1183.7853,726.43759 1179.1039,718.30355 z M 1312.2283,723.07771 C 1312.2283,719.91582 1312.8882,719.27529 1317.3956,718.06156 C 1320.2377,717.29629 1323.2837,716.39355 1324.1647,716.05549 C 1325.5043,715.54139 1329.6056,721.65492 1328.4931,722.50783 C 1328.292,722.662 1324.5501,723.66886 1320.1779,724.7453 L 1312.2283,726.70245 L 1312.2283,723.07771 z M 1369.3484,692.16787 C 1342.2015,676.34642 1340.6829,675.26381 1341.8782,672.58506 C 1342.5741,671.02553 1343.6305,669.74955 1344.2258,669.74955 C 1345.0639,669.74955 1401.8172,702.02533 1403.5776,703.5031 C 1404.3966,704.19053 1400.6114,709.17531 1399.3677,709.0473 C 1398.6616,708.97462 1385.1529,701.37887 1369.3484,692.16787 z M 1310.6784,702.77452 C 1310.237,699.76624 1310.6853,699.02857 1313.3644,698.35616 C 1315.6424,697.78443 1317.0586,698.20306 1318.2201,699.79154 C 1319.6925,701.80511 1320.3909,704.09172 1319.5335,704.09172 C 1319.354,704.09172 1317.4075,704.60787 1315.2078,705.23873 C 1311.4511,706.31612 1311.1763,706.16655 1310.6784,702.77452 z M 1288.9313,686.98575 C 1280.919,684.12821 1276.7332,679.9187 1271.7919,669.74955 C 1268.8448,663.68444 1268.3896,661.14666 1268.3697,650.67057 C 1268.3442,637.31332 1270.9612,629.28818 1277.6363,622.25359 C 1285.2261,614.25518 1299.3214,610.63072 1310.7816,613.73065 C 1317.4249,615.52766 1325.42,622.71769 1328.1029,629.30788 L 1330.0212,634.01979 L 1325.2586,635.33625 C 1322.6391,636.06031 1320.3505,636.22943 1320.1729,635.71207 C 1318.8818,631.95252 1314.1139,626.06509 1310.6501,623.95312 C 1301.4489,618.34316 1287.3595,622.67999 1281.7019,632.86352 C 1278.935,637.84413 1278.5221,640.15592 1278.5221,650.67057 C 1278.5221,661.18521 1278.935,663.497 1281.7019,668.47762 C 1285.9494,676.12313 1293.8082,680.31378 1302.4656,679.5498 C 1310.1135,678.87492 1314.504,675.7313 1318.588,668.00632 C 1321.6491,662.21605 1321.934,662.0219 1326.2195,662.80418 C 1328.668,663.2511 1330.8542,663.79632 1331.0778,664.0158 C 1332.4239,665.33722 1325.085,678.15407 1320.9611,681.68402 C 1312.8246,688.64856 1299.6898,690.82268 1288.9313,686.98575 z M 1296.9651,567.359 L 1296.9651,529.837 L 1300.1449,529.837 L 1303.3248,529.837 L 1303.3248,567.359 L 1303.3248,604.881 L 1300.1449,604.881 L 1296.9651,604.881 L 1296.9651,567.359 z M 1288.9313,519.09068 C 1280.919,516.23315 1276.7332,512.02364 1271.7919,501.85449 C 1268.8448,495.78938 1268.3896,493.2516 1268.3697,482.7755 C 1268.3442,469.41825 1270.9612,461.39311 1277.6363,454.35853 C 1285.2261,446.36012 1299.3214,442.73566 1310.7816,445.83559 C 1317.4249,447.6326 1325.42,454.82263 1328.1029,461.41281 L 1330.0212,466.12473 L 1325.2586,467.44119 C 1322.6391,468.16525 1320.3505,468.33436 1320.1729,467.81701 C 1318.8818,464.05745 1314.1139,458.17001 1310.6501,456.05806 C 1301.4489,450.44808 1287.3595,454.78493 1281.7019,464.96845 C 1278.935,469.94907 1278.5221,472.26086 1278.5221,482.7755 C 1278.5221,493.29015 1278.935,495.60194 1281.7019,500.58255 C 1285.9494,508.22806 1293.8082,512.41871 1302.4656,511.65474 C 1310.1135,510.97985 1314.504,507.83623 1318.588,500.11127 C 1321.6491,494.32098 1321.934,494.12684 1326.2195,494.9091 C 1328.668,495.35603 1330.8542,495.90126 1331.0778,496.12073 C 1332.4239,497.44215 1325.085,510.25901 1320.9611,513.78895 C 1312.8246,520.75349 1299.6898,522.92762 1288.9313,519.09068 z M 1344.0266,482.7755 L 1344.0266,445.88947 L 1348.4784,445.88947 L 1352.9301,445.88947 L 1352.9301,482.7755 L 1352.9301,519.66154 L 1348.4784,519.66154 L 1344.0266,519.66154 L 1344.0266,482.7755 z"
       id="path2525"
       style="fill:#000000" />
  </g>
</svg>
