<?xml version="1.0" encoding="UTF-8" standalone="no"?>
<!-- Generator: Adobe Illustrator 12.0.1, SVG Export Plug-In . SVG Version: 6.00 Build 51448)  -->
<svg
   xmlns:dc="http://purl.org/dc/elements/1.1/"
   xmlns:cc="http://creativecommons.org/ns#"
   xmlns:rdf="http://www.w3.org/1999/02/22-rdf-syntax-ns#"
   xmlns:svg="http://www.w3.org/2000/svg"
   xmlns="http://www.w3.org/2000/svg"
   xmlns:sodipodi="http://sodipodi.sourceforge.net/DTD/sodipodi-0.dtd"
   xmlns:inkscape="http://www.inkscape.org/namespaces/inkscape"
   version="1.1"
   id="Layer_1"
   width="338.018"
   height="253.28"
   viewBox="0 0 338.018 253.28"
   style="overflow:visible;enable-background:new 0 0 338.018 253.28;"
   xml:space="preserve"
   sodipodi:version="0.32"
   inkscape:version="0.46"
   sodipodi:docname="Desoxyguanosin.svg"
   inkscape:output_extension="org.inkscape.output.svg.inkscape"><metadata
   id="metadata104"><rdf:RDF><cc:Work
       rdf:about=""><dc:format>image/svg+xml</dc:format><dc:type
         rdf:resource="http://purl.org/dc/dcmitype/StillImage" /></cc:Work></rdf:RDF></metadata><defs
   id="defs102"><inkscape:perspective
   sodipodi:type="inkscape:persp3d"
   inkscape:vp_x="0 : 126.64 : 1"
   inkscape:vp_y="0 : 1000 : 0"
   inkscape:vp_z="338.01801 : 126.64 : 1"
   inkscape:persp3d-origin="169.009 : 84.426666 : 1"
   id="perspective106" />
	

	
	

	
	

	
	

	

	

	

	

	
	

	
</defs><sodipodi:namedview
   inkscape:window-height="675"
   inkscape:window-width="661"
   inkscape:pageshadow="2"
   inkscape:pageopacity="0.0"
   guidetolerance="10.0"
   gridtolerance="10.0"
   objecttolerance="10.0"
   borderopacity="1.0"
   bordercolor="#666666"
   pagecolor="#ffffff"
   id="base"
   showgrid="false"
   inkscape:zoom="0.69818766"
   inkscape:cx="169.009"
   inkscape:cy="126.64"
   inkscape:window-x="154"
   inkscape:window-y="154"
   inkscape:current-layer="Layer_1" />
<path
   style="fill:#231f20"
   d="M 133.514,201.284 L 139.363,206.384 L 85.662,206.384 L 84.813,203.834 L 87.713,201.284 L 133.514,201.284 z"
   id="polygon3" />
<path
   style="fill:#231f20"
   d="M 58.162,159.384 L 59.014,159.184 L 60.213,159.483 L 87.713,201.284 L 84.813,203.834 L 83.963,210.634 L 58.162,159.384 z"
   id="polygon5" />
<path
   style="fill:#231f20"
   d="M 160.963,159.483 L 162.162,159.184 L 163.014,159.384 L 139.363,206.384 L 133.514,201.284 L 160.963,159.483 z"
   id="polygon7" />
<path
   style="fill:#231f20"
   d="M 99.813,137.634 L 100.613,139.134 L 60.213,159.483 L 59.014,159.184 L 59.863,157.784 L 99.813,137.634 z"
   id="polygon9" />
<path
   id="path13"
   d="M 101.969,134.469 C 101.969,131.616 102.735,129.384 104.267,127.771 C 105.799,126.157 107.777,125.35 110.2,125.35 C 111.787,125.35 113.217,125.729 114.491,126.487 C 115.765,127.246 116.736,128.302 117.405,129.658 C 118.074,131.014 118.407,132.552 118.407,134.27 C 118.407,136.013 118.055,137.572 117.352,138.947 C 116.649,140.322 115.652,141.364 114.362,142.071 C 113.072,142.778 111.681,143.132 110.188,143.132 C 108.57,143.132 107.124,142.741 105.85,141.96 C 104.576,141.179 103.611,140.111 102.954,138.76 C 102.297,137.409 101.969,135.978 101.969,134.469 z M 104.313,134.498 C 104.313,136.568 104.87,138.199 105.984,139.391 C 107.098,140.583 108.496,141.178 110.176,141.178 C 111.888,141.178 113.297,140.576 114.404,139.373 C 115.51,138.17 116.063,136.463 116.063,134.252 C 116.063,132.854 115.827,131.633 115.354,130.59 C 114.881,129.547 114.189,128.738 113.278,128.164 C 112.367,127.59 111.345,127.303 110.212,127.303 C 108.602,127.303 107.216,127.856 106.055,128.961 C 104.894,130.066 104.313,131.912 104.313,134.498 z"
   style="fill:#231f20" />
<path
   style="fill:#231f20"
   d="M 119.863,139.134 L 120.613,137.583 L 161.313,157.784 L 162.162,159.184 L 160.963,159.483 L 119.863,139.134 z"
   id="polygon15" />
<path
   style="fill:#231f20"
   d="M 58.162,119.984 L 59.863,118.984 L 59.863,157.784 L 59.014,159.184 L 58.162,159.384 L 58.162,119.984 z"
   id="polygon17" />
<path
   id="path21"
   d="M 76.569,244.618 C 76.569,241.765 77.335,239.533 78.867,237.92 C 80.399,236.306 82.377,235.499 84.8,235.499 C 86.387,235.499 87.817,235.878 89.091,236.636 C 90.365,237.395 91.336,238.451 92.005,239.807 C 92.674,241.163 93.007,242.701 93.007,244.419 C 93.007,246.162 92.655,247.721 91.952,249.096 C 91.249,250.471 90.252,251.513 88.962,252.22 C 87.672,252.927 86.281,253.281 84.788,253.281 C 83.17,253.281 81.724,252.89 80.45,252.109 C 79.176,251.328 78.211,250.26 77.554,248.909 C 76.897,247.558 76.569,246.127 76.569,244.618 z M 78.913,244.647 C 78.913,246.717 79.47,248.348 80.584,249.54 C 81.698,250.732 83.096,251.327 84.776,251.327 C 86.488,251.327 87.897,250.725 89.004,249.522 C 90.11,248.319 90.663,246.612 90.663,244.401 C 90.663,243.003 90.427,241.782 89.954,240.739 C 89.481,239.696 88.789,238.887 87.878,238.313 C 86.967,237.739 85.945,237.452 84.812,237.452 C 83.202,237.452 81.816,238.005 80.655,239.11 C 79.494,240.215 78.913,242.062 78.913,244.647 z"
   style="fill:#231f20" /><path
   id="path23"
   d="M 96.018,252.983 L 96.018,235.795 L 98.299,235.795 L 98.299,242.858 L 107.19,242.858 L 107.19,235.795 L 109.471,235.795 L 109.471,252.983 L 107.19,252.983 L 107.19,244.889 L 98.299,244.889 L 98.299,252.983 L 96.018,252.983 z"
   style="fill:#231f20" />
<path
   style="fill:#231f20"
   d="M 85.662,233.184 L 83.963,233.184 L 83.963,210.634 L 84.813,203.834 L 85.662,206.384 L 85.662,233.184 z"
   id="polygon25" />
<path
   style="fill:#231f20"
   d="M 161.313,131.184 L 163.014,131.184 L 163.014,159.384 L 162.162,159.184 L 161.313,157.784 L 161.313,131.184 z"
   id="polygon27" />
<path
   id="path31"
   d="M 0,109.084 L 0,91.896 L 2.281,91.896 L 2.281,98.959 L 11.172,98.959 L 11.172,91.896 L 13.453,91.896 L 13.453,109.084 L 11.172,109.084 L 11.172,100.99 L 2.281,100.99 L 2.281,109.084 L 0,109.084 z"
   style="fill:#231f20" /><path
   id="path33"
   d="M 16.551,100.719 C 16.551,97.866 17.317,95.634 18.849,94.021 C 20.381,92.407 22.359,91.6 24.782,91.6 C 26.369,91.6 27.799,91.979 29.073,92.737 C 30.347,93.496 31.318,94.552 31.987,95.908 C 32.656,97.264 32.989,98.802 32.989,100.52 C 32.989,102.263 32.637,103.822 31.934,105.197 C 31.231,106.572 30.234,107.614 28.944,108.321 C 27.654,109.028 26.263,109.382 24.77,109.382 C 23.152,109.382 21.706,108.991 20.432,108.21 C 19.158,107.429 18.193,106.361 17.536,105.01 C 16.879,103.659 16.551,102.228 16.551,100.719 z M 18.895,100.748 C 18.895,102.818 19.452,104.449 20.566,105.641 C 21.68,106.833 23.078,107.428 24.758,107.428 C 26.47,107.428 27.879,106.826 28.986,105.623 C 30.092,104.42 30.645,102.713 30.645,100.502 C 30.645,99.104 30.409,97.883 29.936,96.84 C 29.463,95.797 28.771,94.988 27.86,94.414 C 26.949,93.84 25.927,93.553 24.794,93.553 C 23.184,93.553 21.798,94.106 20.637,95.211 C 19.476,96.316 18.895,98.162 18.895,100.748 z"
   style="fill:#231f20" />
<path
   style="fill:#231f20"
   d="M 34.063,106.034 L 34.912,104.583 L 59.863,118.984 L 58.162,119.984 L 34.063,106.034 z"
   id="polygon35" />
<path
   id="path39"
   d="M 261.841,76.983 L 261.841,59.796 L 264.181,59.796 L 273.185,73.285 L 273.185,59.796 L 275.373,59.796 L 275.373,76.984 L 273.033,76.984 L 264.029,63.495 L 264.029,76.984 L 261.841,76.984 L 261.841,76.983 z"
   style="fill:#231f20" /><path
   id="path41"
   d="M 279.282,76.983 L 279.282,59.796 L 281.563,59.796 L 281.563,66.859 L 290.454,66.859 L 290.454,59.796 L 292.735,59.796 L 292.735,76.984 L 290.454,76.984 L 290.454,68.89 L 281.563,68.89 L 281.563,76.984 L 279.282,76.984 L 279.282,76.983 z"
   style="fill:#231f20" />
<path
   id="path45"
   d="M 227.49,136.584 L 227.49,119.396 L 229.83,119.396 L 238.834,132.885 L 238.834,119.396 L 241.022,119.396 L 241.022,136.584 L 238.682,136.584 L 229.678,123.095 L 229.678,136.584 L 227.49,136.584 L 227.49,136.584 z"
   style="fill:#231f20" />
<path
   style="fill:#231f20"
   d="M 269.514,106.734 L 268.662,107.234 L 267.813,106.734 L 267.813,79.184 L 269.514,79.184 L 269.514,106.734 z"
   id="polygon47" />
<path
   style="fill:#231f20"
   d="M 245.014,121.884 L 244.162,120.434 L 267.813,106.734 L 268.662,107.234 L 268.662,108.184 L 245.014,121.884 z"
   id="polygon49" />
<path
   style="fill:#231f20"
   d="M 242.014,116.734 L 241.162,115.284 L 262.264,103.034 L 263.113,104.534 L 242.014,116.734 z"
   id="polygon51" />
<path
   style="fill:#231f20"
   d="M 199.813,108.134 L 199.912,107.234 L 200.764,106.734 L 224.412,120.384 L 223.563,121.884 L 199.813,108.134 z"
   id="polygon53" />
<path
   style="fill:#231f20"
   d="M 199.063,68.134 L 199.912,67.534 L 200.764,68.034 L 200.764,106.734 L 199.912,107.234 L 199.063,106.583 L 199.063,68.134 z"
   id="polygon55" />
<path
   style="fill:#231f20"
   d="M 205.01401,70.984001 L 206.71301,70.984001 L 206.71301,103.784 L 205.01401,103.784 L 205.01401,70.984001 z"
   id="rect57" />
<path
   style="fill:#231f20"
   d="M 234.313,46.734 L 234.313,48.684 L 200.764,68.034 L 199.912,67.534 L 199.813,66.634 L 234.313,46.734 z"
   id="polygon59" />
<path
   style="fill:#231f20"
   d="M 234.313,48.684 L 234.313,46.734 L 258.764,60.833 L 257.912,62.333 L 234.313,48.684 z"
   id="polygon61" />
<path
   id="path65"
   d="M 155.391,128.934 L 155.391,111.746 L 157.731,111.746 L 166.735,125.235 L 166.735,111.746 L 168.923,111.746 L 168.923,128.934 L 166.583,128.934 L 157.579,115.445 L 157.579,128.934 L 155.391,128.934 z"
   style="fill:#231f20" />
<path
   id="path69"
   d="M 155.391,64.733 L 155.391,47.546 L 157.731,47.546 L 166.735,61.035 L 166.735,47.546 L 168.923,47.546 L 168.923,64.734 L 166.583,64.734 L 157.579,51.245 L 157.579,64.734 L 155.391,64.734 L 155.391,64.733 z"
   style="fill:#231f20" />
<path
   style="fill:#231f20"
   d="M 172.313,117.083 L 171.813,115.434 L 199.063,106.583 L 199.912,107.234 L 199.813,108.134 L 172.313,117.083 z"
   id="polygon71" />
<path
   style="fill:#231f20"
   d="M 137.813,87.384 L 139.912,87.384 L 155.514,108.833 L 154.113,109.833 L 137.813,87.384 z"
   id="polygon73" />
<path
   style="fill:#231f20"
   d="M 153.313,66.034 L 154.662,67.034 L 139.912,87.384 L 137.813,87.384 L 153.313,66.034 z"
   id="polygon75" />
<path
   style="fill:#231f20"
   d="M 158.113,69.534 L 159.514,70.534 L 146.912,87.884 L 145.514,86.884 L 158.113,69.534 z"
   id="polygon77" />
<path
   style="fill:#231f20"
   d="M 171.813,59.284 L 172.313,57.684 L 199.813,66.634 L 199.912,67.534 L 199.063,68.134 L 171.813,59.284 z"
   id="polygon79" />
<path
   id="path83"
   d="M 226.068,9.119 C 226.068,6.266 226.834,4.034 228.367,2.421 C 229.898,0.807 231.877,0 234.299,0 C 235.887,0 237.317,0.379 238.59,1.137 C 239.864,1.896 240.836,2.952 241.504,4.308 C 242.172,5.664 242.506,7.202 242.506,8.92 C 242.506,10.663 242.154,12.222 241.451,13.597 C 240.748,14.972 239.751,16.014 238.461,16.721 C 237.172,17.428 235.78,17.782 234.287,17.782 C 232.67,17.782 231.223,17.391 229.949,16.61 C 228.675,15.829 227.711,14.761 227.053,13.41 C 226.395,12.059 226.068,10.628 226.068,9.119 z M 228.412,9.148 C 228.412,11.218 228.969,12.849 230.084,14.041 C 231.197,15.232 232.596,15.828 234.275,15.828 C 235.988,15.828 237.396,15.226 238.504,14.023 C 239.609,12.82 240.162,11.113 240.162,8.902 C 240.162,7.504 239.926,6.283 239.453,5.24 C 238.98,4.197 238.288,3.388 237.377,2.814 C 236.467,2.24 235.445,1.953 234.311,1.953 C 232.702,1.953 231.315,2.506 230.155,3.611 C 228.992,4.717 228.412,6.563 228.412,9.148 z"
   style="fill:#231f20" />
<path
   style="fill:#231f20"
   d="M 230.463,20.034 L 232.162,20.034 L 232.162,49.434 L 230.463,49.434 L 230.463,20.034 z"
   id="rect85" />
<path
   style="fill:#231f20"
   d="M 236.412,20.034 L 238.113,20.034 L 238.113,49.434 L 236.412,49.434 L 236.412,20.034 z"
   id="rect87" />
<path
   id="path91"
   d="M 296.341,136.584 L 296.341,119.396 L 298.681,119.396 L 307.685,132.885 L 307.685,119.396 L 309.873,119.396 L 309.873,136.584 L 307.533,136.584 L 298.529,123.095 L 298.529,136.584 L 296.341,136.584 L 296.341,136.584 z"
   style="fill:#231f20" /><path
   id="path93"
   d="M 313.782,136.584 L 313.782,119.396 L 316.063,119.396 L 316.063,126.459 L 324.954,126.459 L 324.954,119.396 L 327.235,119.396 L 327.235,136.584 L 324.954,136.584 L 324.954,128.49 L 316.063,128.49 L 316.063,136.584 L 313.782,136.584 z"
   style="fill:#231f20" />
<path
   id="path97"
   d="M 338.018,139.568 L 338.018,141.084 L 329.487,141.084 C 329.475,140.703 329.536,140.337 329.673,139.985 C 329.891,139.405 330.239,138.834 330.721,138.272 C 331.201,137.71 331.892,137.061 332.79,136.325 C 334.186,135.172 335.133,134.261 335.63,133.591 C 336.128,132.921 336.378,132.286 336.378,131.688 C 336.378,131.062 336.152,130.535 335.702,130.104 C 335.252,129.674 334.665,129.459 333.942,129.459 C 333.176,129.459 332.565,129.688 332.106,130.147 C 331.647,130.606 331.415,131.241 331.409,132.052 L 329.784,131.88 C 329.895,130.664 330.315,129.738 331.044,129.102 C 331.772,128.464 332.749,128.146 333.978,128.146 C 335.216,128.146 336.197,128.489 336.919,129.175 C 337.642,129.861 338.003,130.711 338.003,131.725 C 338.003,132.241 337.897,132.748 337.685,133.246 C 337.474,133.744 337.122,134.269 336.632,134.82 C 336.142,135.371 335.328,136.127 334.193,137.088 C 333.242,137.886 332.63,138.426 332.359,138.711 C 332.088,138.994 331.863,139.28 331.687,139.567 L 338.018,139.567 L 338.018,139.568 z"
   style="fill:#231f20" />
<path
   style="fill:#231f20"
   d="M 293.213,120.434 L 292.363,121.884 L 268.662,108.184 L 268.662,107.234 L 269.514,106.734 L 293.213,120.434 z"
   id="polygon99" />
</svg>