<?xml version="1.0" encoding="UTF-8"?>
<!-- Converted by misc2svg (http://www.network-science.de/tools/misc2svg/) -->
<svg xmlns="http://www.w3.org/2000/svg" xmlns:xlink="http://www.w3.org/1999/xlink" width="193pt" height="135pt" viewBox="0 0 193 135" version="1.1">
<defs>
<clipPath id="clip1">
  <path d="M 0 135 L 192.5 135 L 192.5 0 L 0 0 L 0 135 Z M 0 135 "/>
</clipPath>
</defs>
<g id="misc2svg">
<g clip-path="url(#clip1)" clip-rule="nonzero">
<path style=" stroke:none;fill-rule:nonzero;fill:rgb(0%,0%,0%);fill-opacity:1;" d="M 4.996094 85.1875 L 4.996094 67.296875 L 7.359375 67.296875 L 7.359375 74.640625 L 16.65625 74.640625 L 16.65625 67.296875 L 19.019531 67.296875 L 19.019531 85.1875 L 16.65625 85.1875 L 16.65625 76.75 L 7.359375 76.75 L 7.359375 85.1875 L 4.996094 85.1875 Z M 4.996094 85.1875 "/>
<path style=" stroke:none;fill-rule:nonzero;fill:rgb(0%,0%,0%);fill-opacity:1;" d="M 22.242188 87.054688 L 23.902344 86.820312 C 24.085938 87.757812 24.402344 88.4375 24.859375 88.851562 C 25.316406 89.257812 25.867188 89.457031 26.519531 89.457031 C 27.300781 89.457031 27.957031 89.195312 28.492188 88.65625 C 29.027344 88.125 29.292969 87.460938 29.292969 86.664062 C 29.292969 85.914062 29.046875 85.289062 28.550781 84.789062 C 28.054688 84.296875 27.425781 84.046875 26.65625 84.046875 C 26.34375 84.046875 25.960938 84.117188 25.503906 84.242188 L 25.679688 82.796875 C 25.796875 82.8125 25.886719 82.816406 25.953125 82.816406 C 26.65625 82.816406 27.289062 82.636719 27.847656 82.269531 C 28.40625 81.894531 28.6875 81.328125 28.6875 80.570312 C 28.6875 79.960938 28.480469 79.457031 28.0625 79.066406 C 27.660156 78.667969 27.132812 78.460938 26.480469 78.460938 C 25.84375 78.460938 25.308594 78.667969 24.878906 79.066406 C 24.460938 79.472656 24.1875 80.078125 24.058594 80.882812 L 22.417969 80.589844 C 22.613281 79.488281 23.070312 78.632812 23.785156 78.03125 C 24.5 77.421875 25.386719 77.113281 26.441406 77.113281 C 27.183594 77.113281 27.859375 77.269531 28.472656 77.582031 C 29.085938 77.894531 29.554688 78.324219 29.878906 78.871094 C 30.21875 79.417969 30.386719 80 30.386719 80.609375 C 30.386719 81.1875 30.230469 81.714844 29.917969 82.191406 C 29.605469 82.660156 29.144531 83.042969 28.53125 83.324219 C 29.324219 83.511719 29.9375 83.886719 30.367188 84.457031 C 30.808594 85.035156 31.03125 85.757812 31.03125 86.625 C 31.03125 87.796875 30.601562 88.792969 29.742188 89.613281 C 28.894531 90.425781 27.820312 90.824219 26.519531 90.824219 C 25.335938 90.824219 24.351562 90.472656 23.570312 89.769531 C 22.800781 89.066406 22.359375 88.164062 22.242188 87.054688 Z M 22.242188 87.054688 "/>
<path style=" stroke:none;fill-rule:nonzero;fill:rgb(0%,0%,0%);fill-opacity:1;" d="M 46.867188 78.917969 L 49.230469 79.503906 C 48.734375 81.457031 47.84375 82.953125 46.554688 83.976562 C 45.265625 84.992188 43.683594 85.5 41.808594 85.5 C 39.878906 85.5 38.3125 85.109375 37.101562 84.328125 C 35.902344 83.539062 34.984375 82.394531 34.347656 80.910156 C 33.722656 79.414062 33.410156 77.8125 33.410156 76.105469 C 33.410156 74.246094 33.761719 72.625 34.464844 71.242188 C 35.179688 69.851562 36.195312 68.796875 37.511719 68.078125 C 38.824219 67.351562 40.269531 66.984375 41.847656 66.984375 C 43.644531 66.984375 45.148438 67.445312 46.359375 68.351562 C 47.582031 69.265625 48.433594 70.546875 48.917969 72.199219 L 46.59375 72.746094 C 46.175781 71.445312 45.570312 70.5 44.777344 69.914062 C 43.996094 69.320312 43.003906 69.015625 41.808594 69.015625 C 40.425781 69.015625 39.273438 69.347656 38.351562 70.011719 C 37.425781 70.664062 36.773438 71.550781 36.398438 72.667969 C 36.03125 73.777344 35.851562 74.914062 35.851562 76.085938 C 35.851562 77.609375 36.070312 78.945312 36.515625 80.089844 C 36.957031 81.222656 37.648438 82.070312 38.585938 82.628906 C 39.523438 83.191406 40.53125 83.46875 41.613281 83.46875 C 42.941406 83.46875 44.066406 83.085938 44.992188 82.316406 C 45.914062 81.550781 46.539062 80.417969 46.867188 78.917969 Z M 46.867188 78.917969 "/>
<path style=" stroke:none;fill-rule:nonzero;fill:rgb(0%,0%,0%);fill-opacity:1;" d="M 76.5625 53.5 L 76.5625 55.5625 L 51.375 70.375 L 50.4375 68.875 L 76.5625 53.5 Z M 76.5625 53.5 "/>
<path style=" stroke:none;fill-rule:nonzero;fill:rgb(0%,0%,0%);fill-opacity:1;" d="M 107.976562 84.5 L 107.976562 66.609375 L 110.398438 66.609375 L 119.792969 80.652344 L 119.792969 66.609375 L 122.058594 66.609375 L 122.058594 84.5 L 119.636719 84.5 L 110.242188 70.4375 L 110.242188 84.5 L 107.976562 84.5 Z M 107.976562 84.5 "/>
<path style=" stroke:none;fill-rule:nonzero;fill:rgb(0%,0%,0%);fill-opacity:1;" d="M 104.75 69.5 L 103.875 71.0625 L 76.5625 55.5625 L 76.5625 53.5 L 104.75 69.5 Z M 104.75 69.5 "/>
<path style=" stroke:none;fill-rule:nonzero;fill:rgb(0%,0%,0%);fill-opacity:1;" d="M 156.207031 57.042969 L 158.570312 57.628906 C 158.070312 59.582031 157.183594 61.078125 155.894531 62.101562 C 154.605469 63.117188 153.023438 63.625 151.148438 63.625 C 149.21875 63.625 147.652344 63.234375 146.441406 62.453125 C 145.242188 61.664062 144.320312 60.519531 143.6875 59.035156 C 143.0625 57.539062 142.75 55.9375 142.75 54.230469 C 142.75 52.371094 143.101562 50.75 143.804688 49.367188 C 144.515625 47.976562 145.53125 46.921875 146.851562 46.203125 C 148.164062 45.476562 149.609375 45.109375 151.1875 45.109375 C 152.984375 45.109375 154.488281 45.570312 155.699219 46.476562 C 156.921875 47.390625 157.773438 48.671875 158.257812 50.324219 L 155.933594 50.871094 C 155.515625 49.570312 154.90625 48.625 154.117188 48.039062 C 153.335938 47.445312 152.34375 47.140625 151.148438 47.140625 C 149.765625 47.140625 148.613281 47.472656 147.691406 48.136719 C 146.765625 48.789062 146.113281 49.675781 145.738281 50.792969 C 145.371094 51.902344 145.191406 53.039062 145.191406 54.210938 C 145.191406 55.734375 145.410156 57.070312 145.855469 58.214844 C 146.296875 59.347656 146.988281 60.195312 147.925781 60.753906 C 148.863281 61.316406 149.867188 61.59375 150.953125 61.59375 C 152.28125 61.59375 153.40625 61.210938 154.332031 60.441406 C 155.253906 59.675781 155.878906 58.542969 156.207031 57.042969 Z M 156.207031 57.042969 "/>
<path style=" stroke:none;fill-rule:nonzero;fill:rgb(0%,0%,0%);fill-opacity:1;" d="M 161.929688 63.3125 L 161.929688 45.421875 L 164.292969 45.421875 L 164.292969 52.765625 L 173.589844 52.765625 L 173.589844 45.421875 L 175.953125 45.421875 L 175.953125 63.3125 L 173.589844 63.3125 L 173.589844 54.875 L 164.292969 54.875 L 164.292969 63.3125 L 161.929688 63.3125 Z M 161.929688 63.3125 "/>
<path style=" stroke:none;fill-rule:nonzero;fill:rgb(0%,0%,0%);fill-opacity:1;" d="M 179.175781 65.179688 L 180.835938 64.945312 C 181.015625 65.882812 181.332031 66.5625 181.792969 66.976562 C 182.246094 67.382812 182.796875 67.582031 183.453125 67.582031 C 184.234375 67.582031 184.886719 67.320312 185.425781 66.78125 C 185.957031 66.25 186.226562 65.585938 186.226562 64.789062 C 186.226562 64.039062 185.976562 63.414062 185.484375 62.914062 C 184.984375 62.421875 184.355469 62.171875 183.589844 62.171875 C 183.277344 62.171875 182.890625 62.242188 182.4375 62.367188 L 182.613281 60.921875 C 182.730469 60.9375 182.816406 60.941406 182.886719 60.941406 C 183.589844 60.941406 184.21875 60.761719 184.78125 60.394531 C 185.335938 60.019531 185.621094 59.453125 185.621094 58.695312 C 185.621094 58.085938 185.410156 57.582031 184.996094 57.191406 C 184.589844 56.792969 184.0625 56.585938 183.414062 56.585938 C 182.773438 56.585938 182.242188 56.792969 181.8125 57.191406 C 181.390625 57.597656 181.117188 58.203125 180.992188 59.007812 L 179.351562 58.714844 C 179.546875 57.613281 180 56.757812 180.71875 56.15625 C 181.429688 55.546875 182.320312 55.238281 183.375 55.238281 C 184.117188 55.238281 184.789062 55.394531 185.40625 55.707031 C 186.015625 56.019531 186.484375 56.449219 186.8125 56.996094 C 187.148438 57.542969 187.320312 58.125 187.320312 58.734375 C 187.320312 59.3125 187.164062 59.839844 186.851562 60.316406 C 186.539062 60.785156 186.074219 61.167969 185.464844 61.449219 C 186.253906 61.636719 186.871094 62.011719 187.300781 62.582031 C 187.738281 63.160156 187.964844 63.882812 187.964844 64.75 C 187.964844 65.921875 187.535156 66.917969 186.675781 67.738281 C 185.824219 68.550781 184.75 68.949219 183.453125 68.949219 C 182.265625 68.949219 181.285156 68.597656 180.503906 67.894531 C 179.730469 67.191406 179.292969 66.289062 179.175781 65.179688 Z M 179.175781 65.179688 "/>
<path style=" stroke:none;fill-rule:nonzero;fill:rgb(0%,0%,0%);fill-opacity:1;" d="M 140.4375 58.3125 L 141.375 59.875 L 126.4375 68.625 L 125.5625 67.125 L 140.4375 58.3125 Z M 140.4375 58.3125 "/>
<path style=" stroke:none;fill-rule:nonzero;fill:rgb(0%,0%,0%);fill-opacity:1;" d="M 120.144531 120.542969 L 122.507812 121.128906 C 122.011719 123.082031 121.121094 124.578125 119.832031 125.601562 C 118.542969 126.617188 116.960938 127.125 115.085938 127.125 C 113.15625 127.125 111.589844 126.734375 110.378906 125.953125 C 109.179688 125.164062 108.261719 124.019531 107.625 122.535156 C 107 121.042969 106.6875 119.441406 106.6875 117.730469 C 106.6875 115.871094 107.039062 114.25 107.742188 112.867188 C 108.457031 111.476562 109.472656 110.421875 110.789062 109.703125 C 112.101562 108.976562 113.546875 108.609375 115.125 108.609375 C 116.921875 108.609375 118.425781 109.070312 119.636719 109.976562 C 120.859375 110.890625 121.710938 112.175781 122.195312 113.824219 L 119.871094 114.371094 C 119.453125 113.074219 118.847656 112.125 118.054688 111.539062 C 117.273438 110.945312 116.28125 110.640625 115.085938 110.640625 C 113.703125 110.640625 112.550781 110.972656 111.628906 111.636719 C 110.703125 112.292969 110.050781 113.175781 109.675781 114.292969 C 109.308594 115.402344 109.128906 116.539062 109.128906 117.710938 C 109.128906 119.234375 109.347656 120.574219 109.792969 121.714844 C 110.234375 122.847656 110.925781 123.699219 111.863281 124.253906 C 112.800781 124.816406 113.808594 125.09375 114.890625 125.09375 C 116.21875 125.09375 117.34375 124.714844 118.269531 123.941406 C 119.191406 123.175781 119.816406 122.042969 120.144531 120.542969 Z M 120.144531 120.542969 "/>
<path style=" stroke:none;fill-rule:nonzero;fill:rgb(0%,0%,0%);fill-opacity:1;" d="M 125.867188 126.8125 L 125.867188 108.921875 L 128.230469 108.921875 L 128.230469 116.265625 L 137.527344 116.265625 L 137.527344 108.921875 L 139.890625 108.921875 L 139.890625 126.8125 L 137.527344 126.8125 L 137.527344 118.375 L 128.230469 118.375 L 128.230469 126.8125 L 125.867188 126.8125 Z M 125.867188 126.8125 "/>
<path style=" stroke:none;fill-rule:nonzero;fill:rgb(0%,0%,0%);fill-opacity:1;" d="M 143.113281 128.679688 L 144.773438 128.445312 C 144.953125 129.382812 145.269531 130.0625 145.730469 130.476562 C 146.183594 130.882812 146.734375 131.082031 147.390625 131.082031 C 148.171875 131.082031 148.824219 130.820312 149.363281 130.28125 C 149.894531 129.75 150.164062 129.085938 150.164062 128.289062 C 150.164062 127.539062 149.914062 126.914062 149.421875 126.414062 C 148.921875 125.921875 148.292969 125.671875 147.527344 125.671875 C 147.214844 125.671875 146.828125 125.742188 146.375 125.867188 L 146.550781 124.421875 C 146.667969 124.4375 146.753906 124.441406 146.824219 124.441406 C 147.527344 124.441406 148.15625 124.261719 148.71875 123.894531 C 149.273438 123.519531 149.558594 122.953125 149.558594 122.195312 C 149.558594 121.585938 149.347656 121.082031 148.933594 120.691406 C 148.527344 120.292969 148 120.085938 147.351562 120.085938 C 146.710938 120.085938 146.179688 120.292969 145.75 120.691406 C 145.328125 121.097656 145.054688 121.703125 144.929688 122.507812 L 143.289062 122.214844 C 143.484375 121.113281 143.9375 120.257812 144.65625 119.65625 C 145.367188 119.046875 146.257812 118.738281 147.3125 118.738281 C 148.054688 118.738281 148.726562 118.894531 149.34375 119.207031 C 149.953125 119.519531 150.421875 119.949219 150.75 120.496094 C 151.085938 121.042969 151.257812 121.625 151.257812 122.234375 C 151.257812 122.8125 151.101562 123.339844 150.789062 123.816406 C 150.476562 124.285156 150.011719 124.667969 149.402344 124.949219 C 150.191406 125.136719 150.808594 125.511719 151.238281 126.082031 C 151.675781 126.660156 151.902344 127.382812 151.902344 128.25 C 151.902344 129.421875 151.472656 130.417969 150.613281 131.238281 C 149.761719 132.050781 148.6875 132.449219 147.390625 132.449219 C 146.203125 132.449219 145.222656 132.097656 144.441406 131.394531 C 143.667969 130.691406 143.230469 129.789062 143.113281 128.679688 Z M 143.113281 128.679688 "/>
<path style=" stroke:none;fill-rule:nonzero;fill:rgb(0%,0%,0%);fill-opacity:1;" d="M 114.4375 105.875 L 112.625 105.9375 L 112.375 86.9375 L 114.125 86.875 L 114.4375 105.875 Z M 114.4375 105.875 "/>
<path style=" stroke:none;fill-rule:nonzero;fill:rgb(0%,0%,0%);fill-opacity:1;" d="M 69.085938 12.976562 C 69.085938 10.007812 69.875 7.683594 71.46875 6.003906 C 73.070312 4.3125 75.132812 3.464844 77.660156 3.464844 C 79.3125 3.464844 80.796875 3.867188 82.113281 4.65625 C 83.441406 5.453125 84.445312 6.5625 85.140625 7.976562 C 85.84375 9.382812 86.195312 10.980469 86.195312 12.761719 C 86.195312 14.574219 85.828125 16.195312 85.101562 17.625 C 84.367188 19.0625 83.328125 20.144531 81.976562 20.886719 C 80.632812 21.628906 79.1875 22 77.640625 22 C 75.960938 22 74.457031 21.601562 73.128906 20.789062 C 71.800781 19.96875 70.789062 18.855469 70.101562 17.449219 C 69.421875 16.03125 69.085938 14.539062 69.085938 12.976562 Z M 71.527344 13.015625 C 71.527344 15.164062 72.101562 16.863281 73.265625 18.113281 C 74.421875 19.351562 75.875 19.96875 77.621094 19.96875 C 79.402344 19.96875 80.867188 19.34375 82.015625 18.09375 C 83.171875 16.835938 83.753906 15.046875 83.753906 12.742188 C 83.753906 11.296875 83.503906 10.039062 83.011719 8.953125 C 82.527344 7.859375 81.8125 7.015625 80.863281 6.414062 C 79.910156 5.820312 78.84375 5.515625 77.660156 5.515625 C 75.992188 5.515625 74.554688 6.097656 73.34375 7.253906 C 72.132812 8.402344 71.527344 10.320312 71.527344 13.015625 Z M 71.527344 13.015625 "/>
<path style=" stroke:none;fill-rule:nonzero;fill:rgb(0%,0%,0%);fill-opacity:1;" d="M 73.4375 55.875 L 75.25 55.875 L 75.25 24.0625 L 73.4375 24.0625 L 73.4375 55.875 Z M 73.4375 55.875 "/>
<path style=" stroke:none;fill-rule:nonzero;fill:rgb(0%,0%,0%);fill-opacity:1;" d="M 77.9375 55.8125 L 79.75 55.8125 L 79.75 24.0625 L 77.9375 24.0625 L 77.9375 55.8125 Z M 77.9375 55.8125 "/>
</g>
</g>
</svg>
