<?xml version="1.0" encoding="UTF-8" standalone="no"?>
<svg
   xmlns:cdml="http://www.freesoftware.fsf.org/bkchem/cdml"
   xmlns:dc="http://purl.org/dc/elements/1.1/"
   xmlns:cc="http://creativecommons.org/ns#"
   xmlns:rdf="http://www.w3.org/1999/02/22-rdf-syntax-ns#"
   xmlns:svg="http://www.w3.org/2000/svg"
   xmlns="http://www.w3.org/2000/svg"
   xmlns:sodipodi="http://sodipodi.sourceforge.net/DTD/sodipodi-0.dtd"
   xmlns:inkscape="http://www.inkscape.org/namespaces/inkscape"
   height="112.29375mm"
   version="1.0"
   viewBox="0 0 426 424"
   width="112.82344mm"
   id="svg6840"
   inkscape:version="0.48.0 r9654"
   sodipodi:docname="dmt.svg">
  <metadata
     id="metadata6984">
    <rdf:RDF>
      <cc:Work
         rdf:about="">
        <dc:format>image/svg+xml</dc:format>
        <dc:type
           rdf:resource="http://purl.org/dc/dcmitype/StillImage" />
        <dc:title></dc:title>
      </cc:Work>
    </rdf:RDF>
  </metadata>
  <defs
     id="defs6982" />
  <sodipodi:namedview
     pagecolor="#ffffff"
     bordercolor="#666666"
     borderopacity="1"
     objecttolerance="10"
     gridtolerance="10"
     guidetolerance="10"
     inkscape:pageopacity="0"
     inkscape:pageshadow="2"
     inkscape:window-width="640"
     inkscape:window-height="480"
     id="namedview6980"
     showgrid="false"
     inkscape:zoom="0.66098465"
     inkscape:cx="199.88405"
     inkscape:cy="198.94562"
     inkscape:window-x="0"
     inkscape:window-y="0"
     inkscape:window-maximized="0"
     inkscape:current-layer="svg6840" />
  <g
     font-family="Helvetica"
     font-size="12pt"
     stroke-linecap="round"
     transform="translate(-319,-45)"
     id="g6842">
    <g
       stroke="#000000"
       stroke-linecap="butt"
       stroke-width="2.26548672566"
       id="g6844">
      <path
         style=""
         d="m 413,68.870003 -24,0"
         id="line6846" />
    </g>
    <g
       stroke="#000000"
       stroke-width="2.26548672566"
       id="g6848">
      <path
         style=""
         d="m 506.60001,114.67 -52.79001,0"
         id="line6850" />
      <path
         style=""
         d="m 502.64001,122.6 -44.87002,0"
         id="line6852" />
    </g>
    <g
       stroke="#000000"
       stroke-width="2.26548672566"
       id="g6854">
      <path
         style=""
         d="M 533.03003,160.47 506.56,206.23"
         id="line6856" />
      <path
         style=""
         d="m 524.17999,159.92999 -22.5,38.90001"
         id="line6858" />
    </g>
    <g
       stroke="#000000"
       stroke-linecap="butt"
       stroke-width="2.26548672566"
       id="g6860">
      <path
         style=""
         d="m 653,435.12 25,0"
         id="line6862" />
    </g>
    <g
       stroke="#000000"
       stroke-width="2.26548672566"
       id="g6864">
      <path
         style=""
         d="m 578.78998,225.57001 0,-52.79001"
         id="line6866" />
    </g>
    <g
       stroke="#000000"
       stroke-width="2.26548672566"
       id="g6868">
      <path
         style=""
         d="M 612.21002,297.79999 638.64001,343.56"
         id="line6870" />
      <path
         style=""
         d="M 607.33002,305.20001 629.78998,344.09"
         id="line6872" />
    </g>
    <g
       stroke="#000000"
       stroke-width="2.26548672566"
       id="g6874">
      <path
         style=""
         d="m 453.81,114.67 -26.45999,45.75999"
         id="line6876" />
    </g>
    <g
       stroke="#000000"
       stroke-width="2.26548672566"
       id="g6878">
      <path
         style=""
         d="M 506.56,206.23 453.78,206.2"
         id="line6880" />
    </g>
    <g
       stroke="#000000"
       stroke-width="2.26548672566"
       id="g6882">
      <path
         style=""
         d="M 612.16998,389.32001 627.57001,416"
         id="line6884" />
    </g>
    <g
       stroke="#000000"
       stroke-width="2.26548672566"
       id="g6886">
      <path
         style=""
         d="m 506.60001,114.67 26.43002,45.8"
         id="line6888" />
    </g>
    <g
       stroke="#000000"
       stroke-width="2.26548672566"
       id="g6890">
      <path
         style=""
         d="m 578.78998,172.78 45.80005,-26.42999"
         id="line6892" />
      <path
         style=""
         d="M 586.19,177.67 625.12,155.2"
         id="line6894" />
    </g>
    <g
       stroke="#000000"
       stroke-width="2.26548672566"
       id="g6896">
      <path
         style=""
         d="m 559.41998,297.79999 52.79004,0"
         id="line6898" />
    </g>
    <g
       stroke="#000000"
       stroke-width="2.26548672566"
       id="g6900">
      <path
         style=""
         d="m 532.98999,252 26.42999,45.79999"
         id="line6902" />
    </g>
    <g
       stroke="#000000"
       stroke-width="2.26548672566"
       id="g6904">
      <path
         style=""
         d="M 532.98999,252 506.56,206.23"
         id="line6906" />
    </g>
    <g
       stroke="#000000"
       stroke-width="2.26548672566"
       id="g6908">
      <path
         style=""
         d="M 501,270.48001 532.98999,252"
         id="line6910" />
    </g>
    <g
       stroke="#000000"
       stroke-width="2.26548672566"
       id="g6912">
      <path
         style=""
         d="m 532.98999,252 45.79999,-26.42999"
         id="line6914" />
    </g>
    <g
       stroke="#000000"
       stroke-width="2.26548672566"
       id="g6916">
      <path
         style=""
         d="M 670.32001,225.60001 624.56,252.03999"
         id="line6918" />
    </g>
    <g
       stroke="#000000"
       stroke-width="2.26548672566"
       id="g6920">
      <path
         style=""
         d="m 532.96002,343.56 26.45996,-45.76001"
         id="line6922" />
      <path
         style=""
         d="m 541.79999,344.10001 22.5,-38.9"
         id="line6924" />
    </g>
    <g
       stroke="#000000"
       stroke-width="2.26548672566"
       id="g6926">
      <path
         style=""
         d="M 624.56,252.03999 578.78998,225.57001"
         id="line6928" />
      <path
         style=""
         d="m 625.09003,243.19 -38.89002,-22.5"
         id="line6930" />
    </g>
    <g
       stroke="#000000"
       stroke-width="2.26548672566"
       id="g6932">
      <path
         style=""
         d="m 670.32001,225.60001 0.04,-52.78"
         id="line6934" />
      <path
         style=""
         d="m 662.39001,221.64 0.04,-44.87"
         id="line6936" />
    </g>
    <g
       stroke="#000000"
       stroke-width="2.26548672566"
       id="g6938">
      <path
         style=""
         d="m 559.39001,389.32001 52.77997,0"
         id="line6940" />
      <path
         style=""
         d="m 563.34998,381.39001 44.86004,0"
         id="line6942" />
    </g>
    <g
       stroke="#000000"
       stroke-width="2.26548672566"
       id="g6944">
      <path
         style=""
         d="M 453.78,206.2 427.35001,160.42999"
         id="line6946" />
      <path
         style=""
         d="M 458.66,198.8 436.19,159.89999"
         id="line6948" />
    </g>
    <g
       stroke="#000000"
       stroke-width="2.26548672566"
       id="g6950">
      <path
         style=""
         d="M 612.16998,389.32001 638.64001,343.56"
         id="line6952" />
    </g>
    <g
       stroke="#000000"
       stroke-width="2.26548672566"
       id="g6954">
      <path
         style=""
         d="m 670.35999,172.82001 -45.76996,-26.47"
         id="line6956" />
    </g>
    <g
       stroke="#000000"
       stroke-width="2.26548672566"
       id="g6958">
      <path
         style=""
         d="M 453.81,114.67 434.95999,82"
         id="line6960" />
    </g>
    <g
       stroke="#000000"
       stroke-width="2.26548672566"
       id="g6962">
      <path
         style=""
         d="M 559.39001,389.32001 532.96002,343.56"
         id="line6964" />
    </g>
    <g
       style="font-size:30px;fill:#000000;font-family:helvetica"
       id="text6966">
      <path
         d="m 415.75018,65.411018 c 0,-3.564439 0.95703,-6.354963 2.8711,-8.371582 1.91405,-2.01658 4.38475,-3.02488 7.41211,-3.024902 1.9824,2.2e-5 3.76951,0.473654 5.36132,1.420898 1.59178,0.947286 2.80516,2.268085 3.64014,3.962403 0.83494,1.69435 1.25242,3.615735 1.25244,5.76416 -2e-5,2.177743 -0.43947,4.125983 -1.31836,5.844726 -0.87892,1.718754 -2.12404,3.020022 -3.73535,3.903809 -1.61134,0.883789 -3.34962,1.325683 -5.21484,1.325684 -2.0215,-10e-7 -3.82814,-0.488281 -5.41992,-1.464844 -1.59181,-0.97656 -2.79786,-2.309567 -3.61817,-3.999024 -0.82031,-1.689446 -1.23047,-3.476553 -1.23047,-5.361328 z m 2.92969,0.04395 c 0,2.587898 0.6958,4.62647 2.0874,6.115722 1.3916,1.489261 3.1372,2.233889 5.23682,2.233887 2.13866,2e-6 3.89891,-0.75195 5.28076,-2.255859 1.38182,-1.503901 2.07274,-3.637688 2.07275,-6.401368 -10e-6,-1.748034 -0.29542,-3.273911 -0.88623,-4.577636 -0.59083,-1.303695 -1.45509,-2.314436 -2.59277,-3.032227 -1.13771,-0.717754 -2.41456,-1.076641 -3.83057,-1.07666 -2.01172,1.9e-5 -3.74268,0.690937 -5.19287,2.072754 -1.4502,1.381852 -2.17529,3.688978 -2.17529,6.921387 z"
         style="font-size:30px;fill:#000000;font-family:helvetica"
         id="path7022" />
    </g>
    <g
       style="font-size:30px;fill:#000000;font-family:helvetica"
       id="text6968">
      <path
         d="m 327.70233,75.870003 0,-21.47461 2.8418,0 0,8.81836 11.16211,0 0,-8.81836 2.84179,0 0,21.47461 -2.84179,0 0,-10.122071 -11.16211,0 0,10.122071 z"
         style="font-size:30px;fill:#000000;font-family:helvetica"
         id="path7025" />
      <path
         d="m 347.9245,77.618294 1.97754,-0.263672 c 0.22705,1.120609 0.6134,1.928103 1.15906,2.422485 0.54565,0.494387 1.21032,0.741579 1.99401,0.741577 0.93017,2e-6 1.7157,-0.322264 2.35657,-0.966796 0.64086,-0.644529 0.9613,-1.442868 0.96131,-2.39502 -1e-5,-0.908198 -0.29664,-1.657098 -0.8899,-2.246704 -0.59327,-0.589592 -1.34766,-0.884392 -2.26318,-0.8844 -0.37354,8e-6 -0.83863,0.07325 -1.39526,0.219727 l 0.21972,-1.73584 c 0.13183,0.01466 0.23803,0.02198 0.31861,0.02197 0.84228,9e-6 1.60033,-0.219717 2.27417,-0.65918 0.67382,-0.439443 1.01073,-1.116932 1.01074,-2.032471 -1e-5,-0.725084 -0.24537,-1.32567 -0.73609,-1.801757 -0.49073,-0.47606 -1.12427,-0.714097 -1.90063,-0.714112 -0.76905,1.5e-5 -1.40992,0.241714 -1.92261,0.725098 -0.5127,0.483412 -0.84229,1.208509 -0.98877,2.175293 l -1.97754,-0.351563 c 0.2417,-1.32567 0.79102,-2.35289 1.64795,-3.081665 0.85693,-0.728744 1.92261,-1.093123 3.19702,-1.093139 0.8789,1.6e-5 1.68823,0.188614 2.42798,0.565796 0.73974,0.377212 1.30553,0.891738 1.69739,1.543579 0.39184,0.651869 0.58776,1.344007 0.58777,2.076416 -1e-5,0.695812 -0.18678,1.329356 -0.5603,1.900635 -0.37355,0.571298 -0.92653,1.025399 -1.65894,1.362304 0.95214,0.219735 1.69188,0.675667 2.21924,1.367798 0.52733,0.692145 0.791,1.558233 0.79101,2.598267 -10e-6,1.406253 -0.5127,2.598268 -1.53808,3.576049 -1.0254,0.977784 -2.32179,1.466675 -3.88916,1.466675 -1.41358,0 -2.58729,-0.421142 -3.52112,-1.263427 -0.93384,-0.842284 -1.46668,-1.933591 -1.59851,-3.273926 z"
         style="font-size:75%;baseline-shift:sub"
         id="path7027" />
      <path
         d="m 377.14081,68.340706 2.84179,0.717773 c -0.59572,2.333989 -1.66749,4.113773 -3.21533,5.339356 -1.54786,1.225586 -3.43995,1.838378 -5.67627,1.838379 -2.31446,-10e-7 -4.19678,-0.471192 -5.64697,-1.413575 -1.4502,-0.94238 -2.55371,-2.307125 -3.31055,-4.094238 -0.75683,-1.787102 -1.13525,-3.706046 -1.13525,-5.756836 0,-2.236315 0.42724,-4.186996 1.28174,-5.852051 0.85449,-1.66502 2.07031,-2.929667 3.64746,-3.793945 1.57714,-0.864236 3.31298,-1.296365 5.20752,-1.296387 2.14842,2.2e-5 3.95506,0.546897 5.41992,1.640625 1.46483,1.09377 2.48533,2.631854 3.06152,4.614258 l -2.79785,0.65918 c -0.49806,-1.562484 -1.22072,-2.700178 -2.16797,-3.413086 -0.94728,-0.712872 -2.13868,-1.069317 -3.57422,-1.069336 -1.6504,1.9e-5 -3.02979,0.395527 -4.13818,1.186523 -1.1084,0.791034 -1.88721,1.853044 -2.33642,3.186036 -0.44923,1.333021 -0.67384,2.707532 -0.67383,4.123535 -10e-6,1.826181 0.26611,3.420417 0.79834,4.782715 0.53222,1.362309 1.35985,2.380374 2.48291,3.054199 1.12304,0.67383 2.33885,1.010744 3.64746,1.010742 1.59178,2e-6 2.93944,-0.458982 4.04297,-1.376953 1.1035,-0.917964 1.85057,-2.280268 2.24121,-4.086914 z"
         style="font-size:30px;fill:#000000;font-family:helvetica"
         id="path7029" />
    </g>
    <g
       style="font-size:30px;fill:#000000;font-family:helvetica"
       id="text6972">
      <path
         d="m 626.75018,431.66101 c 0,-3.56444 0.95703,-6.35496 2.8711,-8.37158 1.91405,-2.01658 4.38475,-3.02488 7.41211,-3.0249 1.9824,2e-5 3.76951,0.47365 5.36132,1.42089 1.59178,0.94729 2.80516,2.26809 3.64014,3.96241 0.83494,1.69435 1.25242,3.61573 1.25244,5.76416 -2e-5,2.17774 -0.43947,4.12598 -1.31836,5.84472 -0.87892,1.71876 -2.12404,3.02003 -3.73535,3.90381 -1.61134,0.88379 -3.34962,1.32569 -5.21484,1.32569 -2.0215,0 -3.82814,-0.48829 -5.41992,-1.46485 -1.59181,-0.97656 -2.79786,-2.30956 -3.61817,-3.99902 -0.82031,-1.68945 -1.23047,-3.47656 -1.23047,-5.36133 z m 2.92969,0.044 c 0,2.58789 0.6958,4.62647 2.0874,6.11572 1.3916,1.48926 3.1372,2.23389 5.23682,2.23389 2.13866,0 3.89891,-0.75195 5.28076,-2.25586 1.38182,-1.5039 2.07274,-3.63769 2.07275,-6.40137 -1e-5,-1.74804 -0.29542,-3.27391 -0.88623,-4.57764 -0.59083,-1.30369 -1.45509,-2.31443 -2.59277,-3.03222 -1.13771,-0.71776 -2.41456,-1.07665 -3.83057,-1.07666 -2.01172,10e-6 -3.74268,0.69093 -5.19287,2.07275 -1.4502,1.38185 -2.17529,3.68898 -2.17529,6.92139 z"
         style="font-size:30px;fill:#000000;font-family:helvetica"
         id="path7032" />
    </g>
    <g
       style="font-size:30px;fill:#000000;font-family:helvetica"
       id="text6974">
      <path
         d="m 696.93671,434.5907 2.84179,0.71777 c -0.59572,2.33399 -1.6675,4.11377 -3.21533,5.33936 -1.54787,1.22558 -3.43995,1.83838 -5.67627,1.83838 -2.31446,0 -4.19678,-0.4712 -5.64697,-1.41358 -1.4502,-0.94238 -2.55372,-2.30712 -3.31055,-4.09424 -0.75684,-1.7871 -1.13525,-3.70604 -1.13525,-5.75683 0,-2.23632 0.42724,-4.187 1.28174,-5.85205 0.85449,-1.66502 2.0703,-2.92967 3.64746,-3.79395 1.57714,-0.86423 3.31298,-1.29636 5.20752,-1.29639 2.14842,3e-5 3.95506,0.5469 5.41992,1.64063 1.46482,1.09377 2.48533,2.63185 3.06152,4.61426 l -2.79785,0.65918 c -0.49806,-1.56249 -1.22072,-2.70018 -2.16797,-3.41309 -0.94728,-0.71287 -2.13868,-1.06932 -3.57422,-1.06933 -1.6504,10e-6 -3.02979,0.39552 -4.13818,1.18652 -1.1084,0.79103 -1.88721,1.85304 -2.33643,3.18603 -0.44922,1.33303 -0.67383,2.70754 -0.67382,4.12354 -1e-5,1.82618 0.2661,3.42042 0.79834,4.78271 0.53222,1.36231 1.35985,2.38038 2.48291,3.0542 1.12303,0.67383 2.33885,1.01075 3.64746,1.01075 1.59178,0 2.93944,-0.45899 4.04297,-1.37696 1.10349,-0.91796 1.85056,-2.28027 2.24121,-4.08691 z"
         style="font-size:30px;fill:#000000;font-family:helvetica"
         id="path7035" />
      <path
         d="m 703.38202,442.12 0,-21.47461 2.8418,0 0,8.81836 11.16211,0 0,-8.81836 2.84179,0 0,21.47461 -2.84179,0 0,-10.12208 -11.16211,0 0,10.12208 z"
         style="font-size:30px;fill:#000000;font-family:helvetica"
         id="path7037" />
      <path
         d="m 723.60419,443.86829 1.97754,-0.26368 c 0.22704,1.12061 0.6134,1.92811 1.15905,2.42249 0.54565,0.49439 1.21033,0.74158 1.99402,0.74158 0.93017,0 1.71569,-0.32227 2.35657,-0.9668 0.64086,-0.64453 0.96129,-1.44287 0.9613,-2.39502 -1e-5,-0.9082 -0.29664,-1.6571 -0.88989,-2.2467 -0.59327,-0.5896 -1.34766,-0.8844 -2.26318,-0.8844 -0.37354,0 -0.83863,0.0733 -1.39527,0.21972 l 0.21973,-1.73584 c 0.13183,0.0147 0.23803,0.022 0.3186,0.022 0.84228,1e-5 1.60034,-0.21972 2.27417,-0.65918 0.67382,-0.43945 1.01074,-1.11694 1.01075,-2.03247 -10e-6,-0.72509 -0.24537,-1.32567 -0.73609,-1.80176 -0.49073,-0.47606 -1.12427,-0.7141 -1.90063,-0.71411 -0.76905,1e-5 -1.40992,0.24171 -1.92261,0.72509 -0.5127,0.48342 -0.84229,1.20851 -0.98877,2.1753 l -1.97754,-0.35157 c 0.2417,-1.32567 0.79101,-2.35289 1.64795,-3.08166 0.85693,-0.72874 1.9226,-1.09312 3.19702,-1.09314 0.8789,2e-5 1.68823,0.18861 2.42798,0.5658 0.73974,0.37721 1.30553,0.89173 1.69739,1.54358 0.39183,0.65186 0.58776,1.344 0.58777,2.07641 -10e-6,0.69581 -0.18678,1.32936 -0.56031,1.90064 -0.37354,0.57129 -0.92652,1.0254 -1.65893,1.3623 0.95214,0.21974 1.69188,0.67567 2.21924,1.3678 0.52733,0.69214 0.791,1.55823 0.79101,2.59827 -10e-6,1.40625 -0.5127,2.59826 -1.53808,3.57604 -1.0254,0.97779 -2.32179,1.46668 -3.88916,1.46668 -1.41358,0 -2.58729,-0.42114 -3.52112,-1.26343 -0.93384,-0.84228 -1.46668,-1.93359 -1.59851,-3.27392 z"
         style="font-size:75%;baseline-shift:sub"
         id="path7039" />
    </g>
    <g
       style="font-size:30px;fill:#000000;font-family:helvetica"
       id="text6978">
      <path
         d="m 477.65839,285.42999 0,-21.47461 9.52148,0 c 1.91405,2e-5 3.36913,0.1929 4.36523,0.57862 0.99608,0.38576 1.79198,1.06691 2.3877,2.04345 0.59568,0.97658 0.89354,2.05568 0.89355,3.23731 -10e-6,1.52345 -0.49318,2.80763 -1.47949,3.85254 -0.98634,1.04493 -2.50978,1.70899 -4.57031,1.99218 0.75194,0.36134 1.32323,0.71779 1.71387,1.06934 0.83006,0.76173 1.61619,1.71387 2.3584,2.85645 l 3.73535,5.84472 -3.57422,0 -2.8418,-4.46777 c -0.83009,-1.28906 -1.51368,-2.27538 -2.05078,-2.95899 -0.53712,-0.68358 -1.01808,-1.1621 -1.44287,-1.43554 -0.42482,-0.27343 -0.85694,-0.46386 -1.29639,-0.57129 -0.32227,-0.0684 -0.84962,-0.10253 -1.58203,-0.10254 l -3.2959,0 0,9.53613 z m 2.84179,-11.99707 6.1084,0 c 1.29882,10e-6 2.31444,-0.13426 3.04688,-0.40283 0.7324,-0.26854 1.28904,-0.69823 1.66992,-1.28906 0.38084,-0.59081 0.57127,-1.2329 0.57129,-1.92627 -2e-5,-1.01561 -0.36867,-1.85057 -1.10596,-2.50488 -0.73732,-0.65428 -1.90187,-0.98143 -3.49365,-0.98145 l -6.79688,0 z"
         style="font-size:30px;fill:#000000;font-family:helvetica"
         id="path7042" />
    </g>
  </g>
  <cdml:cdml
     version="0.15">
    <cdml:info>
      <cdml:author_program
         version="0.13.0">BKchem</cdml:author_program>
    </cdml:info>
    <cdml:paper
       crop_margin="5"
       crop_svg="1"
       orientation="portrait"
       replace_minus="0"
       type="Legal"
       use_real_minus="0" />
    <cdml:viewport
       viewport="0.000000 0.000000 640.000000 480.000000" />
    <cdml:standard
       area_color=""
       font_family="helvetica"
       font_size="24"
       line_color="#000"
       line_width="0.06cm"
       paper_crop_margin="5"
       paper_crop_svg="1"
       paper_orientation="portrait"
       paper_type="Legal">
      <cdml:bond
         double-ratio="0.85"
         length="1.4cm"
         wedge-width="0.18cm"
         width="0.21cm" />
      <cdml:arrow
         length="1.6cm" />
      <cdml:atom
         show_hydrogens="0" />
    </cdml:standard>
    <cdml:molecule
       id="molecule77160"
       name="">
      <cdml:atom
         id="atom96919"
         name="C"
         valency="4">
        <cdml:point
           x="14.116cm"
           y="6.674cm" />
      </cdml:atom>
      <cdml:atom
         id="atom27949"
         name="C"
         valency="4">
        <cdml:point
           x="13.416cm"
           y="5.462cm" />
      </cdml:atom>
      <cdml:atom
         id="atom59829"
         name="C"
         valency="4">
        <cdml:point
           x="14.816cm"
           y="7.887cm" />
      </cdml:atom>
      <cdml:atom
         id="atom36850"
         name="C"
         valency="4">
        <cdml:point
           x="15.329cm"
           y="5.974cm" />
      </cdml:atom>
      <cdml:atom
         id="atom41437"
         name="C"
         valency="4">
        <cdml:point
           x="17.753cm"
           y="5.975cm" />
      </cdml:atom>
      <cdml:atom
         id="atom30542"
         name="C"
         valency="4">
        <cdml:point
           x="16.541cm"
           y="6.675cm" />
      </cdml:atom>
      <cdml:atom
         id="atom85663"
         name="C"
         valency="4">
        <cdml:point
           x="15.329cm"
           y="4.576cm" />
      </cdml:atom>
      <cdml:atom
         id="atom18454"
         name="C"
         valency="4">
        <cdml:point
           x="17.754cm"
           y="4.577cm" />
      </cdml:atom>
      <cdml:atom
         id="atom16539"
         name="C"
         valency="4">
        <cdml:point
           x="16.542cm"
           y="3.876cm" />
      </cdml:atom>
      <cdml:atom
         id="atom89604"
         name="C"
         valency="4">
        <cdml:point
           x="14.815cm"
           y="10.311cm" />
      </cdml:atom>
      <cdml:atom
         id="atom78253"
         name="C"
         valency="4">
        <cdml:point
           x="14.115cm"
           y="9.099cm" />
      </cdml:atom>
      <cdml:atom
         id="atom7768"
         name="C"
         valency="4">
        <cdml:point
           x="16.214cm"
           y="7.887cm" />
      </cdml:atom>
      <cdml:atom
         id="atom30552"
         name="C"
         valency="4">
        <cdml:point
           x="16.213cm"
           y="10.311cm" />
      </cdml:atom>
      <cdml:atom
         id="atom22597"
         name="C"
         valency="4">
        <cdml:point
           x="16.914cm"
           y="9.099cm" />
      </cdml:atom>
      <cdml:atom
         id="atom5283"
         name="C"
         valency="4">
        <cdml:point
           x="13.417cm"
           y="3.037cm" />
      </cdml:atom>
      <cdml:atom
         id="atom63572"
         name="C"
         valency="4">
        <cdml:point
           x="14.117cm"
           y="4.250cm" />
      </cdml:atom>
      <cdml:atom
         id="atom72359"
         name="C"
         valency="4">
        <cdml:point
           x="12.018cm"
           y="5.461cm" />
      </cdml:atom>
      <cdml:atom
         id="atom33918"
         name="C"
         valency="4">
        <cdml:point
           x="12.019cm"
           y="3.037cm" />
      </cdml:atom>
      <cdml:atom
         id="atom98301"
         name="C"
         valency="4">
        <cdml:point
           x="11.318cm"
           y="4.249cm" />
      </cdml:atom>
      <cdml:atom
         id="atom22263"
         name="O"
         pos="center-first"
         valency="2">
        <cdml:point
           x="11.319cm"
           y="1.824cm" />
      </cdml:atom>
      <cdml:atom
         hydrogens="on"
         id="atom98848"
         name="C"
         pos="center-last"
         show="yes"
         valency="4">
        <cdml:point
           x="9.919cm"
           y="1.824cm" />
      </cdml:atom>
      <cdml:atom
         id="atom80931"
         name="O"
         pos="center-first"
         valency="2">
        <cdml:point
           x="16.913cm"
           y="11.524cm" />
      </cdml:atom>
      <cdml:atom
         hydrogens="on"
         id="atom65136"
         name="C"
         pos="center-first"
         show="yes"
         valency="4">
        <cdml:point
           x="18.313cm"
           y="11.524cm" />
      </cdml:atom>
      <cdml:query
         id="atom70435"
         name="R"
         pos="center-last">
        <cdml:point
           x="12.904cm"
           y="7.374cm" />
      </cdml:query>
      <cdml:bond
         double_ratio="0.85"
         end="atom98848"
         id="bond40356"
         line_width="2.26548672566"
         start="atom22263"
         type="n1" />
      <cdml:bond
         bond_width="7.92920353982"
         center="no"
         double_ratio="0.85"
         end="atom33918"
         id="bond52734"
         line_width="2.26548672566"
         start="atom5283"
         type="n2" />
      <cdml:bond
         bond_width="-7.92920353982"
         center="no"
         double_ratio="0.85"
         end="atom27949"
         id="bond3793"
         line_width="2.26548672566"
         start="atom63572"
         type="n2" />
      <cdml:bond
         double_ratio="0.85"
         end="atom65136"
         id="bond92455"
         line_width="2.26548672566"
         start="atom80931"
         type="n1" />
      <cdml:bond
         double_ratio="0.85"
         end="atom85663"
         id="bond20249"
         line_width="2.26548672566"
         start="atom36850"
         type="n1" />
      <cdml:bond
         bond_width="-7.92920353982"
         center="no"
         double_ratio="0.85"
         end="atom22597"
         id="bond37901"
         line_width="2.26548672566"
         start="atom7768"
         type="n2" />
      <cdml:bond
         double_ratio="0.85"
         end="atom98301"
         id="bond49267"
         line_width="2.26548672566"
         start="atom33918"
         type="n1" />
      <cdml:bond
         double_ratio="0.85"
         end="atom72359"
         id="bond48362"
         line_width="2.26548672566"
         start="atom27949"
         type="n1" />
      <cdml:bond
         double_ratio="0.85"
         end="atom80931"
         id="bond40367"
         line_width="2.26548672566"
         start="atom30552"
         type="n1" />
      <cdml:bond
         double_ratio="0.85"
         end="atom63572"
         id="bond2966"
         line_width="2.26548672566"
         start="atom5283"
         type="n1" />
      <cdml:bond
         bond_width="-7.92920353982"
         center="no"
         double_ratio="0.85"
         end="atom16539"
         id="bond4219"
         line_width="2.26548672566"
         start="atom85663"
         type="n2" />
      <cdml:bond
         double_ratio="0.85"
         end="atom7768"
         id="bond75696"
         line_width="2.26548672566"
         start="atom59829"
         type="n1" />
      <cdml:bond
         double_ratio="0.85"
         end="atom59829"
         id="bond65950"
         line_width="2.26548672566"
         start="atom96919"
         type="n1" />
      <cdml:bond
         double_ratio="0.85"
         end="atom27949"
         id="bond51130"
         line_width="2.26548672566"
         start="atom96919"
         type="n1" />
      <cdml:bond
         double_ratio="0.85"
         end="atom96919"
         id="bond9565"
         line_width="2.26548672566"
         start="atom70435"
         type="n1" />
      <cdml:bond
         double_ratio="0.85"
         end="atom36850"
         id="bond26552"
         line_width="2.26548672566"
         start="atom96919"
         type="n1" />
      <cdml:bond
         double_ratio="0.85"
         end="atom30542"
         id="bond1155"
         line_width="2.26548672566"
         start="atom41437"
         type="n1" />
      <cdml:bond
         bond_width="-7.92920353982"
         center="no"
         double_ratio="0.85"
         end="atom59829"
         id="bond62737"
         line_width="2.26548672566"
         start="atom78253"
         type="n2" />
      <cdml:bond
         bond_width="-7.92920353982"
         center="no"
         double_ratio="0.85"
         end="atom36850"
         id="bond94273"
         line_width="2.26548672566"
         start="atom30542"
         type="n2" />
      <cdml:bond
         bond_width="7.92920353982"
         center="no"
         double_ratio="0.85"
         end="atom18454"
         id="bond21118"
         line_width="2.26548672566"
         start="atom41437"
         type="n2" />
      <cdml:bond
         bond_width="7.92920353982"
         center="no"
         double_ratio="0.85"
         end="atom30552"
         id="bond61012"
         line_width="2.26548672566"
         start="atom89604"
         type="n2" />
      <cdml:bond
         bond_width="-7.92920353982"
         center="no"
         double_ratio="0.85"
         end="atom98301"
         id="bond40543"
         line_width="2.26548672566"
         start="atom72359"
         type="n2" />
      <cdml:bond
         double_ratio="0.85"
         end="atom22597"
         id="bond30913"
         line_width="2.26548672566"
         start="atom30552"
         type="n1" />
      <cdml:bond
         double_ratio="0.85"
         end="atom16539"
         id="bond76655"
         line_width="2.26548672566"
         start="atom18454"
         type="n1" />
      <cdml:bond
         double_ratio="0.85"
         end="atom22263"
         id="bond44393"
         line_width="2.26548672566"
         start="atom33918"
         type="n1" />
      <cdml:bond
         double_ratio="0.85"
         end="atom78253"
         id="bond83846"
         line_width="2.26548672566"
         start="atom89604"
         type="n1" />
    </cdml:molecule>
  </cdml:cdml>
</svg>
