<?xml version="1.0" encoding="UTF-8" standalone="no"?>
<!-- Created with Inkscape (http://www.inkscape.org/) -->
<svg
   xmlns:svg="http://www.w3.org/2000/svg"
   xmlns="http://www.w3.org/2000/svg"
   version="1.0"
   width="212.7"
   height="283.5"
   id="svg2403"
   xml:space="preserve"><defs
     id="defs2406" /><g
     transform="matrix(1.25,0,0,-1.25,0,283.5)"
     id="g2412"><path
       d="M 1.828125,0 L 1.828125,-17.179688 L 4.1601562,-17.179688 L 13.183594,-3.6914062 L 13.183594,-17.179688 L 15.363281,-17.179688 L 15.363281,0 L 13.03125,0 L 4.0078125,-13.5 L 4.0078125,0 L 1.828125,0 z"
       transform="matrix(1,0,0,-1,44.4,174)"
       id="text2414" /><path
       d="M 1.921875,0 L 1.921875,-17.179688 L 4.1953125,-17.179688 L 4.1953125,-10.125 L 13.125,-10.125 L 13.125,-17.179688 L 15.398438,-17.179688 L 15.398438,0 L 13.125,0 L 13.125,-8.0976562 L 4.1953125,-8.0976562 L 4.1953125,0 L 1.921875,0 z"
       transform="matrix(1,0,0,-1,27.12,174)"
       id="text2418" /><path
       d="M 1.828125,0 L 1.828125,-17.179688 L 4.1601562,-17.179688 L 13.183594,-3.6914062 L 13.183594,-17.179688 L 15.363281,-17.179688 L 15.363281,0 L 13.03125,0 L 4.0078125,-13.5 L 4.0078125,0 L 1.828125,0 z"
       transform="matrix(1,0,0,-1,78.72,193.92)"
       id="text2422" /><path
       d="M 1.921875,0 L 1.921875,-17.179688 L 4.1953125,-17.179688 L 4.1953125,-10.125 L 13.125,-10.125 L 13.125,-17.179688 L 15.398438,-17.179688 L 15.398438,0 L 13.125,0 L 13.125,-8.0976562 L 4.1953125,-8.0976562 L 4.1953125,0 L 1.921875,0 z"
       transform="matrix(1,0,0,-1,96,193.92)"
       id="text2426" /><path
       d="M 9.0615234,-1.5205078 L 9.0615234,0 L 0.54492188,0 C 0.53320259,-0.38085899 0.59472597,-0.74706957 0.72949219,-1.0986328 C 0.94628812,-1.6787093 1.2934557,-2.2499977 1.7709961,-2.8125 C 2.2485329,-3.3749966 2.9384736,-4.0253866 3.8408203,-4.7636719 C 5.2412057,-5.9121035 6.1874938,-6.8217705 6.6796875,-7.4926758 C 7.1718678,-8.1635661 7.4179613,-8.7978428 7.4179688,-9.3955078 C 7.4179613,-10.022451 7.1938405,-10.551259 6.7456055,-10.981934 C 6.297357,-11.412586 5.7128849,-11.627918 4.9921875,-11.62793 C 4.2304645,-11.627918 3.6210901,-11.399403 3.1640625,-10.942383 C 2.7070285,-10.485341 2.4755835,-9.8525292 2.4697266,-9.0439453 L 0.84375,-9.2109375 C 0.95507717,-10.423818 1.3740221,-11.348133 2.1005859,-11.983887 C 2.8271456,-12.619616 3.8027306,-12.937487 5.0273438,-12.9375 C 6.2636656,-12.937487 7.2421803,-12.594714 7.9628906,-11.90918 C 8.6835851,-11.223622 9.0439363,-10.374013 9.0439453,-9.3603516 C 9.0439363,-8.8447177 8.9384676,-8.3378823 8.7275391,-7.8398438 C 8.516593,-7.3417895 8.1664957,-6.817376 7.6772461,-6.2666016 C 7.1879811,-5.7158146 6.3749936,-4.959956 5.2382812,-3.9990234 C 4.2890582,-3.2021452 3.6796838,-2.6616184 3.4101562,-2.3774414 C 3.1406219,-2.0932596 2.9179658,-1.8076154 2.7421875,-1.5205078 L 9.0615234,-1.5205078 z"
       transform="matrix(1,0,0,-1,113.28,190.56)"
       id="text2430" /><path
       d="M 1.828125,0 L 1.828125,-17.179688 L 4.1601562,-17.179688 L 13.183594,-3.6914062 L 13.183594,-17.179688 L 15.363281,-17.179688 L 15.363281,0 L 13.03125,0 L 4.0078125,-13.5 L 4.0078125,0 L 1.828125,0 z M 18.488155,-8.3671875 C 18.488154,-11.218739 19.253778,-13.451158 20.78503,-15.064453 C 22.316275,-16.677718 24.292836,-17.484358 26.714718,-17.484375 C 28.300644,-17.484358 29.73033,-17.105452 31.00378,-16.347656 C 32.277203,-15.589828 33.247905,-14.533189 33.91589,-13.177734 C 34.583841,-11.822254 34.917825,-10.285146 34.917843,-8.5664062 C 34.917825,-6.8242119 34.566263,-5.2656197 33.863155,-3.890625 C 33.160015,-2.5156225 32.163922,-1.4746079 30.874874,-0.76757812 C 29.585799,-0.060546814 28.195176,0.29296846 26.702999,0.29296875 C 25.085804,0.29296846 23.640493,-0.097656152 22.367062,-0.87890625 C 21.09362,-1.6601546 20.128778,-2.7265598 19.47253,-4.078125 C 18.816279,-5.4296821 18.488154,-6.8593681 18.488155,-8.3671875 L 18.488155,-8.3671875 z M 20.831905,-8.3320312 C 20.831902,-6.2617125 21.388542,-4.6308547 22.501827,-3.4394531 C 23.615102,-2.2480446 25.011585,-1.6523421 26.69128,-1.6523438 C 28.402207,-1.6523421 29.810409,-2.253904 30.91589,-3.4570312 C 32.021344,-4.6601516 32.574078,-6.3671811 32.574093,-8.578125 C 32.574078,-9.9765525 32.33775,-11.197254 31.865108,-12.240234 C 31.392438,-13.28319 30.701033,-14.091783 29.79089,-14.666016 C 28.880722,-15.240219 27.859239,-15.527328 26.726437,-15.527344 C 25.117054,-15.527328 23.73229,-14.974594 22.57214,-13.869141 C 21.411979,-12.763659 20.831902,-10.917958 20.831905,-8.3320312 L 20.831905,-8.3320312 z"
       transform="matrix(1,0,0,-1,113.04,134.64)"
       id="text2434" /><path
       d="M 9.0615234,-1.5205078 L 9.0615234,0 L 0.54492188,0 C 0.53320259,-0.38085899 0.59472597,-0.74706957 0.72949219,-1.0986328 C 0.94628812,-1.6787093 1.2934557,-2.2499977 1.7709961,-2.8125 C 2.2485329,-3.3749966 2.9384736,-4.0253866 3.8408203,-4.7636719 C 5.2412057,-5.9121035 6.1874938,-6.8217705 6.6796875,-7.4926758 C 7.1718678,-8.1635661 7.4179613,-8.7978428 7.4179688,-9.3955078 C 7.4179613,-10.022451 7.1938405,-10.551259 6.7456055,-10.981934 C 6.297357,-11.412586 5.7128849,-11.627918 4.9921875,-11.62793 C 4.2304645,-11.627918 3.6210901,-11.399403 3.1640625,-10.942383 C 2.7070285,-10.485341 2.4755835,-9.8525292 2.4697266,-9.0439453 L 0.84375,-9.2109375 C 0.95507717,-10.423818 1.3740221,-11.348133 2.1005859,-11.983887 C 2.8271456,-12.619616 3.8027306,-12.937487 5.0273438,-12.9375 C 6.2636656,-12.937487 7.2421803,-12.594714 7.9628906,-11.90918 C 8.6835851,-11.223622 9.0439363,-10.374013 9.0439453,-9.3603516 C 9.0439363,-8.8447177 8.9384676,-8.3378823 8.7275391,-7.8398438 C 8.516593,-7.3417895 8.1664957,-6.817376 7.6772461,-6.2666016 C 7.1879811,-5.7158146 6.3749936,-4.959956 5.2382812,-3.9990234 C 4.2890582,-3.2021452 3.6796838,-2.6616184 3.4101562,-2.3774414 C 3.1406219,-2.0932596 2.9179658,-1.8076154 2.7421875,-1.5205078 L 9.0615234,-1.5205078 z"
       transform="matrix(1,0,0,-1,149.28,131.28)"
       id="text2438" /><path
       d="M 1.828125,0 L 1.828125,-17.179688 L 4.1601562,-17.179688 L 13.183594,-3.6914062 L 13.183594,-17.179688 L 15.363281,-17.179688 L 15.363281,0 L 13.03125,0 L 4.0078125,-13.5 L 4.0078125,0 L 1.828125,0 z M 18.488155,-8.3671875 C 18.488154,-11.218739 19.253778,-13.451158 20.78503,-15.064453 C 22.316275,-16.677718 24.292836,-17.484358 26.714718,-17.484375 C 28.300644,-17.484358 29.73033,-17.105452 31.00378,-16.347656 C 32.277203,-15.589828 33.247905,-14.533189 33.91589,-13.177734 C 34.583841,-11.822254 34.917825,-10.285146 34.917843,-8.5664062 C 34.917825,-6.8242119 34.566263,-5.2656197 33.863155,-3.890625 C 33.160015,-2.5156225 32.163922,-1.4746079 30.874874,-0.76757812 C 29.585799,-0.060546814 28.195176,0.29296846 26.702999,0.29296875 C 25.085804,0.29296846 23.640493,-0.097656152 22.367062,-0.87890625 C 21.09362,-1.6601546 20.128778,-2.7265598 19.47253,-4.078125 C 18.816279,-5.4296821 18.488154,-6.8593681 18.488155,-8.3671875 L 18.488155,-8.3671875 z M 20.831905,-8.3320312 C 20.831902,-6.2617125 21.388542,-4.6308547 22.501827,-3.4394531 C 23.615102,-2.2480446 25.011585,-1.6523421 26.69128,-1.6523438 C 28.402207,-1.6523421 29.810409,-2.253904 30.91589,-3.4570312 C 32.021344,-4.6601516 32.574078,-6.3671811 32.574093,-8.578125 C 32.574078,-9.9765525 32.33775,-11.197254 31.865108,-12.240234 C 31.392438,-13.28319 30.701033,-14.091783 29.79089,-14.666016 C 28.880722,-15.240219 27.859239,-15.527328 26.726437,-15.527344 C 25.117054,-15.527328 23.73229,-14.974594 22.57214,-13.869141 C 21.411979,-12.763659 20.831902,-10.917958 20.831905,-8.3320312 L 20.831905,-8.3320312 z"
       transform="matrix(1,0,0,-1,44.4,15.6)"
       id="text2442" /><path
       d="M 9.0615234,-1.5205078 L 9.0615234,0 L 0.54492188,0 C 0.53320259,-0.38085899 0.59472597,-0.74706957 0.72949219,-1.0986328 C 0.94628812,-1.6787093 1.2934557,-2.2499977 1.7709961,-2.8125 C 2.2485329,-3.3749966 2.9384736,-4.0253866 3.8408203,-4.7636719 C 5.2412057,-5.9121035 6.1874938,-6.8217705 6.6796875,-7.4926758 C 7.1718678,-8.1635661 7.4179613,-8.7978428 7.4179688,-9.3955078 C 7.4179613,-10.022451 7.1938405,-10.551259 6.7456055,-10.981934 C 6.297357,-11.412586 5.7128849,-11.627918 4.9921875,-11.62793 C 4.2304645,-11.627918 3.6210901,-11.399403 3.1640625,-10.942383 C 2.7070285,-10.485341 2.4755835,-9.8525292 2.4697266,-9.0439453 L 0.84375,-9.2109375 C 0.95507717,-10.423818 1.3740221,-11.348133 2.1005859,-11.983887 C 2.8271456,-12.619616 3.8027306,-12.937487 5.0273438,-12.9375 C 6.2636656,-12.937487 7.2421803,-12.594714 7.9628906,-11.90918 C 8.6835851,-11.223622 9.0439363,-10.374013 9.0439453,-9.3603516 C 9.0439363,-8.8447177 8.9384676,-8.3378823 8.7275391,-7.8398438 C 8.516593,-7.3417895 8.1664957,-6.817376 7.6772461,-6.2666016 C 7.1879811,-5.7158146 6.3749936,-4.959956 5.2382812,-3.9990234 C 4.2890582,-3.2021452 3.6796838,-2.6616184 3.4101562,-2.3774414 C 3.1406219,-2.0932596 2.9179658,-1.8076154 2.7421875,-1.5205078 L 9.0615234,-1.5205078 z"
       transform="matrix(1,0,0,-1,80.64,12.24)"
       id="text2446" /><path
       d="M 87.6,84.48 L 87.6,124.08"
       id="path2450"
       style="fill:none;stroke:#000000;stroke-width:1.67999995;stroke-linecap:round;stroke-linejoin:miter;stroke-miterlimit:10;stroke-dasharray:none;stroke-opacity:1" /><path
       d="M 53.28,144 L 87.6,124.08"
       id="path2452"
       style="fill:none;stroke:#000000;stroke-width:1.67999995;stroke-linecap:round;stroke-linejoin:miter;stroke-miterlimit:10;stroke-dasharray:none;stroke-opacity:1" /><path
       d="M 53.76,137.04 L 81.36,121.2"
       id="path2454"
       style="fill:none;stroke:#000000;stroke-width:1.67999995;stroke-linecap:round;stroke-linejoin:miter;stroke-miterlimit:10;stroke-dasharray:none;stroke-opacity:1" /><path
       d="M 53.28,64.8 L 87.6,84.48"
       id="path2456"
       style="fill:none;stroke:#000000;stroke-width:1.67999995;stroke-linecap:round;stroke-linejoin:miter;stroke-miterlimit:10;stroke-dasharray:none;stroke-opacity:1" /><path
       d="M 53.76,71.76 L 81.36,87.6"
       id="path2458"
       style="fill:none;stroke:#000000;stroke-width:1.67999995;stroke-linecap:round;stroke-linejoin:miter;stroke-miterlimit:10;stroke-dasharray:none;stroke-opacity:1" /><path
       d="M 18.96,124.08 L 53.28,144"
       id="path2460"
       style="fill:none;stroke:#000000;stroke-width:1.67999995;stroke-linecap:round;stroke-linejoin:miter;stroke-miterlimit:10;stroke-dasharray:none;stroke-opacity:1" /><path
       d="M 18.96,84.48 L 53.28,64.8"
       id="path2462"
       style="fill:none;stroke:#000000;stroke-width:1.67999995;stroke-linecap:round;stroke-linejoin:miter;stroke-miterlimit:10;stroke-dasharray:none;stroke-opacity:1" /><path
       d="M 18.96,84.48 L 18.96,124.08"
       id="path2464"
       style="fill:none;stroke:#000000;stroke-width:1.67999995;stroke-linecap:round;stroke-linejoin:miter;stroke-miterlimit:10;stroke-dasharray:none;stroke-opacity:1" /><path
       d="M 24.72,88.32 L 24.72,120.24"
       id="path2466"
       style="fill:none;stroke:#000000;stroke-width:1.67999995;stroke-linecap:round;stroke-linejoin:miter;stroke-miterlimit:10;stroke-dasharray:none;stroke-opacity:1" /><path
       d="M 53.28,144 L 53.28,171.36"
       id="path2468"
       style="fill:none;stroke:#000000;stroke-width:1.67999995;stroke-linecap:round;stroke-linejoin:miter;stroke-miterlimit:10;stroke-dasharray:none;stroke-opacity:1" /><path
       d="M 64.32,190.08 L 76.08,196.8"
       id="path2470"
       style="fill:none;stroke:#000000;stroke-width:1.67999995;stroke-linecap:round;stroke-linejoin:miter;stroke-miterlimit:10;stroke-dasharray:none;stroke-opacity:1" /><path
       d="M 87.6,124.08 L 110.4,137.28"
       id="path2472"
       style="fill:none;stroke:#000000;stroke-width:1.67999995;stroke-linecap:round;stroke-linejoin:miter;stroke-miterlimit:10;stroke-dasharray:none;stroke-opacity:1" /><path
       d="M 53.28,64.8 L 53.28,37.44"
       id="path2474"
       style="fill:none;stroke:#000000;stroke-width:1.67999995;stroke-linecap:round;stroke-linejoin:miter;stroke-miterlimit:10;stroke-dasharray:none;stroke-opacity:1" /></g></svg>