<?xml version="1.0" encoding="UTF-8" standalone="no"?>
<!-- Generator: Adobe Illustrator 12.0.1, SVG Export Plug-In . SVG Version: 6.00 Build 51448)  -->
<svg
   xmlns:dc="http://purl.org/dc/elements/1.1/"
   xmlns:cc="http://creativecommons.org/ns#"
   xmlns:rdf="http://www.w3.org/1999/02/22-rdf-syntax-ns#"
   xmlns:svg="http://www.w3.org/2000/svg"
   xmlns="http://www.w3.org/2000/svg"
   xmlns:sodipodi="http://sodipodi.sourceforge.net/DTD/sodipodi-0.dtd"
   xmlns:inkscape="http://www.inkscape.org/namespaces/inkscape"
   version="1.1"
   id="Layer_1"
   width="239.207"
   height="258.082"
   viewBox="0 0 239.207 258.082"
   style="overflow:visible;enable-background:new 0 0 239.207 258.082;"
   xml:space="preserve"
   sodipodi:version="0.32"
   inkscape:version="0.46"
   sodipodi:docname="Desoxyuridin.svg"
   inkscape:output_extension="org.inkscape.output.svg.inkscape"><metadata
   id="metadata80"><rdf:RDF><cc:Work
       rdf:about=""><dc:format>image/svg+xml</dc:format><dc:type
         rdf:resource="http://purl.org/dc/dcmitype/StillImage" /></cc:Work></rdf:RDF></metadata><defs
   id="defs78"><inkscape:perspective
   sodipodi:type="inkscape:persp3d"
   inkscape:vp_x="0 : 129.041 : 1"
   inkscape:vp_y="0 : 1000 : 0"
   inkscape:vp_z="239.207 : 129.041 : 1"
   inkscape:persp3d-origin="119.6035 : 86.027334 : 1"
   id="perspective82" />
	

	
	

	
	

	
	

	

	

	
</defs><sodipodi:namedview
   inkscape:window-height="675"
   inkscape:window-width="661"
   inkscape:pageshadow="2"
   inkscape:pageopacity="0.0"
   guidetolerance="10.0"
   gridtolerance="10.0"
   objecttolerance="10.0"
   borderopacity="1.0"
   bordercolor="#666666"
   pagecolor="#ffffff"
   id="base"
   showgrid="false"
   inkscape:zoom="1.7901287"
   inkscape:cx="119.6035"
   inkscape:cy="129.041"
   inkscape:window-x="110"
   inkscape:window-y="110"
   inkscape:current-layer="Layer_1" />
<path
   style="fill:#231f20"
   d="M 132.8185,202.23283 L 138.37505,207.07783 L 87.3591,207.07783 L 86.55255,204.65533 L 89.30755,202.23283 L 132.8185,202.23283 z"
   id="polygon3" />
<path
   style="fill:#231f20"
   d="M 61.2341,162.38032 L 62.0435,162.23688 L 63.18255,162.52283 L 89.30755,202.23283 L 86.55255,204.65533 L 85.74505,211.11533 L 61.2341,162.38032 z"
   id="polygon5" />
<path
   style="fill:#231f20"
   d="M 158.89505,162.52283 L 160.0341,162.23688 L 160.8435,162.38032 L 138.37505,207.07783 L 132.8185,202.23283 L 158.89505,162.52283 z"
   id="polygon7" />
<path
   style="fill:#231f20"
   d="M 100.80255,141.76533 L 101.56255,143.19033 L 63.18255,162.52283 L 62.0435,162.23688 L 62.85005,160.90783 L 100.80255,141.76533 z"
   id="polygon9" />
<path
   id="path13"
   d="M 102.85075,138.75858 C 102.85075,136.04823 103.57845,133.92783 105.03385,132.39548 C 106.48925,130.86218 108.36835,130.09553 110.6702,130.09553 C 112.17785,130.09553 113.53635,130.45558 114.74665,131.17568 C 115.95695,131.89673 116.8794,132.89993 117.51495,134.18813 C 118.1505,135.47633 118.46685,136.93743 118.46685,138.56953 C 118.46685,140.22538 118.13245,141.70643 117.4646,143.01268 C 116.79675,144.31893 115.8496,145.30883 114.6241,145.98048 C 113.3986,146.65213 112.07715,146.98843 110.6588,146.98843 C 109.1217,146.98843 107.748,146.61698 106.5377,145.87503 C 105.3274,145.13308 104.41065,144.11848 103.7865,142.83503 C 103.16235,141.55158 102.85075,140.19118 102.85075,138.75858 z M 105.07755,138.78613 C 105.07755,140.75263 105.6067,142.30208 106.665,143.43448 C 107.7233,144.56688 109.0514,145.13213 110.6474,145.13213 C 112.2738,145.13213 113.61235,144.56023 114.664,143.41738 C 115.7147,142.27453 116.24005,140.65288 116.24005,138.55243 C 116.24005,137.22433 116.01585,136.06438 115.5665,135.07353 C 115.11715,134.08268 114.45975,133.31413 113.5943,132.76883 C 112.72885,132.22353 111.75795,131.95088 110.6816,131.95088 C 109.1521,131.95088 107.8354,132.47623 106.73245,133.52598 C 105.6295,134.57573 105.07755,136.32943 105.07755,138.78613 z"
   style="fill:#231f20" />
<path
   style="fill:#231f20"
   d="M 119.85005,143.14283 L 120.56255,141.71783 L 159.22755,160.90783 L 160.0341,162.23688 L 158.89505,162.52283 L 119.85005,143.14283 z"
   id="polygon15" />
<path
   style="fill:#231f20"
   d="M 61.2341,124.99783 L 62.85005,124.04783 L 62.85005,160.90783 L 62.0435,162.23688 L 61.2341,162.38032 L 61.2341,124.99783 z"
   id="polygon17" />
<path
   id="path21"
   d="M 78.72075,243.40107 C 78.72075,240.69073 79.44845,238.57033 80.90385,237.03798 C 82.35925,235.50468 84.23835,234.73802 86.5402,234.73802 C 88.04785,234.73802 89.40635,235.09808 90.61665,235.81817 C 91.82695,236.53923 92.7494,237.54243 93.38495,238.83063 C 94.0205,240.11883 94.33685,241.57993 94.33685,243.21203 C 94.33685,244.86788 94.00245,246.34893 93.3346,247.65518 C 92.66675,248.96143 91.7196,249.95133 90.4941,250.62297 C 89.2686,251.29462 87.94715,251.63093 86.5288,251.63093 C 84.9917,251.63093 83.618,251.25948 82.4077,250.51753 C 81.1974,249.77558 80.28065,248.76098 79.6565,247.47753 C 79.03235,246.19408 78.72075,244.83463 78.72075,243.40107 z M 80.94755,243.42863 C 80.94755,245.39513 81.4767,246.94458 82.535,248.07698 C 83.5933,249.20938 84.9214,249.77463 86.5174,249.77463 C 88.1438,249.77463 89.48235,249.20273 90.534,248.05988 C 91.5847,246.91703 92.11005,245.29538 92.11005,243.19493 C 92.11005,241.86683 91.88585,240.70688 91.4365,239.71603 C 90.98715,238.72518 90.32975,237.95663 89.4643,237.41133 C 88.59885,236.86603 87.62795,236.59338 86.5516,236.59338 C 85.0221,236.59338 83.7054,237.11873 82.60245,238.16848 C 81.4995,239.21823 80.94755,240.97193 80.94755,243.42863 z"
   style="fill:#231f20" /><path
   id="path23"
   d="M 97.1973,251.34783 L 97.1973,235.01923 L 99.36425,235.01923 L 99.36425,241.72908 L 107.8107,241.72908 L 107.8107,235.01923 L 109.97765,235.01923 L 109.97765,251.34783 L 107.8107,251.34783 L 107.8107,243.65853 L 99.36425,243.65853 L 99.36425,251.34783 L 97.1973,251.34783 z"
   style="fill:#231f20" />
<path
   style="fill:#231f20"
   d="M 87.3591,232.53688 L 85.74505,232.53688 L 85.74505,211.11533 L 86.55255,204.65533 L 87.3591,207.07783 L 87.3591,232.53688 z"
   id="polygon25" />
<path
   style="fill:#231f20"
   d="M 159.22755,135.63688 L 160.8435,135.63688 L 160.8435,162.38032 L 160.0341,162.23688 L 159.22755,160.90783 L 159.22755,135.63688 z"
   id="polygon27" />
<path
   id="path31"
   d="M 5.9802,114.64283 L 5.9802,98.314225 L 8.14715,98.314225 L 8.14715,105.02408 L 16.5936,105.02408 L 16.5936,98.314225 L 18.76055,98.314225 L 18.76055,114.64283 L 16.5936,114.64283 L 16.5936,106.95353 L 8.14715,106.95353 L 8.14715,114.64283 L 5.9802,114.64283 z"
   style="fill:#231f20" /><path
   id="path33"
   d="M 21.70365,106.69608 C 21.70365,103.98573 22.43135,101.86533 23.88675,100.33298 C 25.34215,98.799675 27.22125,98.033025 29.5231,98.033025 C 31.03075,98.033025 32.38925,98.393075 33.59955,99.113175 C 34.80985,99.834225 35.7323,100.83743 36.36785,102.12563 C 37.0034,103.41383 37.31975,104.87493 37.31975,106.50703 C 37.31975,108.16288 36.98535,109.64393 36.3175,110.95018 C 35.64965,112.25643 34.7025,113.24633 33.477,113.91798 C 32.2515,114.58963 30.93005,114.92593 29.5117,114.92593 C 27.9746,114.92593 26.6009,114.55448 25.3906,113.81253 C 24.1803,113.07058 23.26355,112.05598 22.6394,110.77253 C 22.01525,109.48908 21.70365,108.12868 21.70365,106.69608 z M 23.93045,106.72363 C 23.93045,108.69013 24.4596,110.23958 25.5179,111.37198 C 26.5762,112.50438 27.9043,113.06963 29.5003,113.06963 C 31.1267,113.06963 32.46525,112.49773 33.5169,111.35488 C 34.5676,110.21203 35.09295,108.59038 35.09295,106.48993 C 35.09295,105.16183 34.86875,104.00188 34.4194,103.01103 C 33.97005,102.02018 33.31265,101.25163 32.4472,100.70633 C 31.58175,100.16103 30.61085,99.888375 29.5345,99.888375 C 28.005,99.888375 26.6883,100.41373 25.58535,101.46348 C 24.4824,102.51323 23.93045,104.26693 23.93045,106.72363 z"
   style="fill:#231f20" />
<path
   style="fill:#231f20"
   d="M 38.34005,111.74533 L 39.1466,110.36783 L 62.85005,124.04783 L 61.2341,124.99783 L 38.34005,111.74533 z"
   id="polygon35" />
<path
   id="path39"
   d="M 186.2332,76.927825 L 186.2332,60.599225 L 188.4562,60.599225 L 197.01,73.413775 L 197.01,60.599225 L 199.0886,60.599225 L 199.0886,76.927825 L 196.8656,76.927825 L 188.3118,64.113275 L 188.3118,76.927825 L 186.2332,76.927825 z"
   style="fill:#231f20" /><path
   id="path41"
   d="M 202.8031,76.927825 L 202.8031,60.599225 L 204.97005,60.599225 L 204.97005,67.309075 L 213.4165,67.309075 L 213.4165,60.599225 L 215.58345,60.599225 L 215.58345,76.927825 L 213.4165,76.927825 L 213.4165,69.238525 L 204.97005,69.238525 L 204.97005,76.927825 L 202.8031,76.927825 z"
   style="fill:#231f20" />
<path
   id="path45"
   d="M 153.60165,133.49938 L 153.60165,117.17078 L 155.82465,117.17078 L 164.37845,129.98533 L 164.37845,117.17078 L 166.45705,117.17078 L 166.45705,133.49938 L 164.23405,133.49938 L 155.68025,120.68483 L 155.68025,133.49938 L 153.60165,133.49938 L 153.60165,133.49938 z"
   style="fill:#231f20" />
<path
   style="fill:#231f20"
   d="M 193.47505,106.09283 L 191.8591,105.14283 L 191.8591,79.017825 L 193.47505,79.017825 L 193.47505,106.09283 z"
   id="polygon47" />
<path
   style="fill:#231f20"
   d="M 170.2466,119.53533 L 169.44005,118.15783 L 191.8591,105.14283 L 193.47505,106.09283 L 170.2466,119.53533 z"
   id="polygon49" />
<path
   style="fill:#231f20"
   d="M 126.5466,106.09283 L 128.16255,105.14283 L 150.631,118.15783 L 149.8216,119.53533 L 126.5466,106.09283 z"
   id="polygon51" />
<path
   style="fill:#231f20"
   d="M 126.5466,67.474375 L 128.16255,68.377825 L 128.16255,105.14283 L 126.5466,106.09283 L 126.5466,67.474375 z"
   id="polygon53" />
<path
   style="fill:#231f20"
   d="M 132.20006,71.180327 L 133.81411,71.180327 L 133.81411,102.34033 L 132.20006,102.34033 L 132.20006,71.180327 z"
   id="rect55" />
<path
   style="fill:#231f20"
   d="M 160.0341,48.142825 L 160.0341,50.042825 L 128.16255,68.377825 L 126.5466,67.474375 L 160.0341,48.142825 z"
   id="polygon57" />
<path
   style="fill:#231f20"
   d="M 160.0341,50.042825 L 160.0341,48.142825 L 183.26255,61.585325 L 182.456,62.961875 L 160.0341,50.042825 z"
   id="polygon59" />
<path
   id="path63"
   d="M 152.25075,15.115125 C 152.25075,12.404775 152.97845,10.284375 154.4348,8.752025 C 155.88925,7.218725 157.76835,6.452075 160.06925,6.452075 C 161.57785,6.452075 162.93635,6.812125 164.1457,7.532225 C 165.356,8.253275 166.2794,9.256475 166.914,10.544675 C 167.5486,11.832875 167.8659,13.293975 167.8659,14.926075 C 167.8659,16.581925 167.5315,18.062975 166.86365,19.369225 C 166.1958,20.675475 165.24865,21.665375 164.02315,22.337025 C 162.7986,23.008675 161.4762,23.344975 160.05785,23.344975 C 158.5217,23.344975 157.14705,22.973525 155.93675,22.231575 C 154.72645,21.489625 153.81065,20.475025 153.18555,19.191575 C 152.56045,17.908125 152.25075,16.548675 152.25075,15.115125 z M 154.47755,15.142675 C 154.47755,17.109175 155.0067,18.658625 156.06595,19.791025 C 157.1233,20.922475 158.45235,21.488675 160.0474,21.488675 C 161.67475,21.488675 163.01235,20.916775 164.06495,19.773925 C 165.1147,18.631075 165.64005,17.009425 165.64005,14.908975 C 165.64005,13.580875 165.41585,12.420925 164.9665,11.430075 C 164.51715,10.439225 163.85975,9.670675 162.9943,9.125375 C 162.1298,8.580075 161.1589,8.307425 160.0816,8.307425 C 158.55305,8.307425 157.2354,8.832775 156.1334,9.882525 C 155.02855,10.933225 154.47755,12.686925 154.47755,15.142675 z"
   style="fill:#231f20" />
<path
   style="fill:#231f20"
   d="M 156.61505,25.485325 L 158.231,25.485325 L 158.231,50.611874 L 156.61505,50.611874 L 156.61505,25.485325 z"
   id="rect65" />
<path
   style="fill:#231f20"
   d="M 161.88756,25.485325 L 163.50161,25.485325 L 163.50161,50.611874 L 161.88756,50.611874 L 161.88756,25.485325 z"
   id="rect67" />
<path
   id="path71"
   d="M 217.6117,125.55263 C 217.6117,122.84228 218.3394,120.72188 219.79385,119.18953 C 221.2502,117.65623 223.12835,116.88958 225.43115,116.88958 C 226.93785,116.88958 228.2973,117.24963 229.5076,117.96973 C 230.71695,118.69078 231.6394,119.69398 232.27495,120.98218 C 232.9105,122.27038 233.2278,123.73148 233.2278,125.36358 C 233.2278,127.01943 232.8934,128.50048 232.2246,129.80673 C 231.5558,131.11298 230.6096,132.10288 229.38505,132.77453 C 228.1586,133.44618 226.83715,133.78248 225.41975,133.78248 C 223.8817,133.78248 222.50895,133.41103 221.29865,132.66908 C 220.0874,131.92713 219.17065,130.91253 218.54745,129.62908 C 217.92425,128.34563 217.6117,126.98618 217.6117,125.55263 z M 219.83755,125.58018 C 219.83755,127.54668 220.3667,129.09613 221.42405,130.22853 C 222.4833,131.35998 223.81045,131.92618 225.4074,131.92618 C 227.03285,131.92618 228.37235,131.35428 229.42305,130.21143 C 230.47375,129.06858 231.00005,127.44693 231.00005,125.34648 C 231.00005,124.01838 230.77585,122.85843 230.32555,121.86758 C 229.87525,120.87673 229.2188,120.10818 228.3543,119.56288 C 227.48885,119.01758 226.517,118.74493 225.4416,118.74493 C 223.91115,118.74493 222.5954,119.27028 221.4915,120.32003 C 220.38855,121.37073 219.83755,123.12443 219.83755,125.58018 z"
   style="fill:#231f20" />
<path
   style="fill:#231f20"
   d="M 218.65005,116.39938 L 217.8435,117.77783 L 192.28755,103.05283 L 193.09505,101.62783 L 218.65005,116.39938 z"
   id="polygon73" />
<path
   style="fill:#231f20"
   d="M 215.80005,121.29283 L 214.9935,122.71783 L 189.43755,107.94533 L 190.24505,106.56783 L 215.80005,121.29283 z"
   id="polygon75" />
</svg>