<?xml version="1.0" encoding="UTF-8" standalone="no"?>
<svg
   xmlns:cdml="http://www.freesoftware.fsf.org/bkchem/cdml"
   xmlns:dc="http://purl.org/dc/elements/1.1/"
   xmlns:cc="http://creativecommons.org/ns#"
   xmlns:rdf="http://www.w3.org/1999/02/22-rdf-syntax-ns#"
   xmlns:svg="http://www.w3.org/2000/svg"
   xmlns="http://www.w3.org/2000/svg"
   xmlns:sodipodi="http://sodipodi.sourceforge.net/DTD/sodipodi-0.dtd"
   xmlns:inkscape="http://www.inkscape.org/namespaces/inkscape"
   height="67.48535mm"
   version="1.0"
   viewBox="0 0 417 255"
   width="110.35840mm"
   id="svg3105"
   inkscape:version="0.48.1 "
   sodipodi:docname="HATU.svg">
  <metadata
     id="metadata3223">
    <rdf:RDF>
      <cc:Work
         rdf:about="">
        <dc:format>image/svg+xml</dc:format>
        <dc:type
           rdf:resource="http://purl.org/dc/dcmitype/StillImage" />
        <dc:title></dc:title>
      </cc:Work>
    </rdf:RDF>
  </metadata>
  <defs
     id="defs3221" />
  <sodipodi:namedview
     pagecolor="#ffffff"
     bordercolor="#666666"
     borderopacity="1"
     objecttolerance="10"
     gridtolerance="10"
     guidetolerance="10"
     inkscape:pageopacity="0"
     inkscape:pageshadow="2"
     inkscape:window-width="640"
     inkscape:window-height="480"
     id="namedview3219"
     showgrid="false"
     inkscape:zoom="1.0998601"
     inkscape:cx="195.51685"
     inkscape:cy="119.56066"
     inkscape:window-x="0"
     inkscape:window-y="0"
     inkscape:window-maximized="0"
     inkscape:current-layer="svg3105" />
  <g
     font-family="Helvetica"
     font-size="12pt"
     stroke-linecap="round"
     transform="translate(-56,-248)"
     id="g3107">
    <g
       stroke="#000000"
       stroke-linecap="butt"
       stroke-width="2.26715867159"
       id="g3109">
      <path
         style=""
         d="M 215.92,285 224,296.12"
         id="line3111" />
      <path
         style=""
         d="m 210.11,290.5 6.86,9.45001"
         id="line3113" />
    </g>
    <g
       stroke="#000000"
       stroke-linecap="butt"
       stroke-width="2.26715867159"
       id="g3115">
      <path
         style=""
         d="m 213.66,370 8.09,14"
         id="line3117" />
    </g>
    <g
       stroke="#000000"
       stroke-linecap="butt"
       stroke-width="2.26715867159"
       id="g3119">
      <path
         style=""
         d="M 228.14999,327 220,338.20999"
         id="line3121" />
    </g>
    <g
       stroke="#000000"
       stroke-width="2.26715867159"
       id="g3123">
      <path
         style=""
         d="M 300.98999,338 285.59,311.32999"
         id="line3125" />
    </g>
    <g
       stroke="#000000"
       stroke-width="2.26715867159"
       id="g3127">
      <path
         style=""
         d="M 304.39999,462 285.59,494.57999"
         id="line3129" />
    </g>
    <g
       stroke="#000000"
       stroke-width="2.26715867159"
       id="g3131">
      <path
         style=""
         d="m 247,402.95001 38.59,0"
         id="line3133" />
    </g>
    <g
       stroke="#000000"
       stroke-width="2.26715867159"
       id="g3135">
      <path
         style=""
         d="m 64.389999,288 0,52.82001"
         id="line3137" />
      <path
         style=""
         d="m 72.32,291.95999 0,44.9"
         id="line3139" />
    </g>
    <g
       stroke="#000000"
       stroke-width="2.26715867159"
       id="g3141">
      <path
         style=""
         d="M 64.389999,288 110.19,261.54001"
         id="line3143" />
    </g>
    <g
       stroke="#000000"
       stroke-width="2.26715867159"
       id="g3145">
      <path
         style=""
         d="m 326,448.76001 38.94,0"
         id="line3147" />
    </g>
    <g
       stroke="#000000"
       stroke-width="2.26715867159"
       id="g3149">
      <path
         style=""
         d="M 110.19,261.54001 156,288"
         id="line3151" />
      <path
         style=""
         d="m 109.66,270.39001 38.94001,22.5"
         id="line3153" />
    </g>
    <g
       stroke="#000000"
       stroke-width="2.26715867159"
       id="g3155">
      <path
         style=""
         d="M 64.389999,340.82001 97,359.66"
         id="line3157" />
    </g>
    <g
       stroke="#000000"
       stroke-width="2.26715867159"
       id="g3159">
      <path
         style=""
         d="m 156,288 37,-12.03"
         id="line3161" />
    </g>
    <g
       stroke="#000000"
       stroke-width="2.26715867159"
       id="g3163">
      <path
         style=""
         d="M 285.59,402.95001 304.62,370"
         id="line3165" />
      <path
         style=""
         d="M 280.14999,396.51001 296.32001,368.5"
         id="line3167" />
    </g>
    <g
       stroke="#000000"
       stroke-width="2.26715867159"
       id="g3169">
      <path
         style=""
         d="M 193,352.84 156,340.82001"
         id="line3171" />
    </g>
    <g
       stroke="#000000"
       stroke-width="2.26715867159"
       id="g3173">
      <path
         style=""
         d="M 285.59,402.95001 301.20999,430"
         id="line3175" />
    </g>
    <g
       stroke="#000000"
       stroke-width="2.26715867159"
       id="g3177">
      <path
         style=""
         d="m 156,288 0,52.82001"
         id="line3179" />
    </g>
    <g
       stroke="#000000"
       stroke-width="2.26715867159"
       id="g3181">
      <path
         style=""
         d="M 156,340.82001 124,359.31"
         id="line3183" />
      <path
         style=""
         d="m 149.63,335.34 -27.2,15.70999"
         id="line3185" />
    </g>
    <g
       stroke="#000000"
       stroke-width="2.26715867159"
       id="g3187">
      <path
         style=""
         d="m 326,357.14001 38.94,0"
         id="line3189" />
    </g>
    <g
       style="font-size:30px;fill:#000000;font-family:helvetica"
       id="text3191">
      <path
         d="m 100.58516,374.29001 0,-21.47461 2.91504,0 11.2793,16.86035 0,-16.86035 2.7246,0 0,21.47461 -2.91503,0 -11.2793,-16.875 0,16.875 z"
         style="font-size:30px;fill:#000000;font-family:helvetica"
         id="path3249" />
    </g>
    <g
       style="font-size:30px;fill:#000000;font-family:helvetica"
       id="text3193">
      <path
         d="m 196.58516,364.14001 0,-21.4746 2.91504,0 11.2793,16.86035 0,-16.86035 2.7246,0 0,21.4746 -2.91503,0 -11.2793,-16.875 0,16.875 z"
         style="font-size:30px;fill:#000000;font-family:helvetica"
         id="path3252" />
    </g>
    <g
       style="font-size:30px;fill:#000000;font-family:helvetica"
       id="text3195">
      <path
         d="m 227.58516,321.42001 0,-21.47461 2.91504,0 11.2793,16.86036 0,-16.86036 2.7246,0 0,21.47461 -2.91503,0 -11.2793,-16.875 0,16.875 z"
         style="font-size:30px;fill:#000000;font-family:helvetica"
         id="path3255" />
    </g>
    <g
       style="font-size:30px;fill:#000000;font-family:helvetica"
       id="text3197">
      <path
         d="m 196.58516,278.67001 0,-21.47461 2.91504,0 11.2793,16.86036 0,-16.86036 2.7246,0 0,21.47461 -2.91503,0 -11.2793,-16.875 0,16.875 z"
         style="font-size:30px;fill:#000000;font-family:helvetica"
         id="path3258" />
    </g>
    <g
       style="font-size:30px;fill:#000000;font-family:helvetica"
       id="text3199">
      <path
         d="m 220.7502,399.49103 c 0,-3.56444 0.95703,-6.35497 2.87109,-8.37158 1.91406,-2.01658 4.38476,-3.02488 7.41211,-3.02491 1.98241,3e-5 3.76952,0.47366 5.36133,1.4209 1.59178,0.94729 2.80516,2.26809 3.64014,3.9624 0.83494,1.69435 1.25242,3.61574 1.25244,5.76416 -2e-5,2.17775 -0.43948,4.12599 -1.31836,5.84473 -0.87893,1.71875 -2.12404,3.02002 -3.73535,3.90381 -1.61135,0.88379 -3.34963,1.32568 -5.21485,1.32568 -2.02149,0 -3.82813,-0.48828 -5.41992,-1.46484 -1.5918,-0.97656 -2.79785,-2.30957 -3.61816,-3.99902 -0.82032,-1.68945 -1.23047,-3.47656 -1.23047,-5.36133 z m 2.92969,0.0439 c -1e-5,2.5879 0.69579,4.62647 2.0874,6.11573 1.39159,1.48926 3.1372,2.23388 5.23681,2.23388 2.13866,0 3.89891,-0.75195 5.28077,-2.25586 1.38181,-1.5039 2.07273,-3.63768 2.07275,-6.40136 -2e-5,-1.74804 -0.29543,-3.27392 -0.88623,-4.57764 -0.59084,-1.3037 -1.4551,-2.31444 -2.59277,-3.03223 -1.13771,-0.71775 -2.41457,-1.07664 -3.83057,-1.07666 -2.01173,2e-5 -3.74268,0.69094 -5.19287,2.07276 -1.4502,1.38185 -2.1753,3.68897 -2.17529,6.92138 z"
         style="font-size:30px;fill:#000000;font-family:helvetica"
         id="path3261" />
    </g>
    <g
       style="font-size:30px;fill:#000000;font-family:helvetica"
       id="text3201">
      <path
         d="m 302.58514,364.14001 0,-21.4746 2.91504,0 11.2793,16.86035 0,-16.86035 2.72461,0 0,21.4746 -2.91504,0 -11.2793,-16.875 0,16.875 z"
         style="font-size:30px;fill:#000000;font-family:helvetica"
         id="path3264" />
    </g>
    <g
       id="g3203">
      <path
         style="fill:none;stroke:#000000;stroke-width:1"
         d="m 330.42993,380.33353 c 0,2.76142 -2.23857,5 -5,5 -2.76142,0 -5,-2.23858 -5,-5 0,-2.76143 2.23858,-5 5,-5 2.76143,0 5,2.23857 5,5 z"
         id="ellipse3205" />
      <path
         style="fill:#000000;stroke:#000000;stroke-width:1"
         d="m 322.42993,380.33353 6,0"
         id="line3207" />
      <path
         style="fill:#000000;stroke:#000000;stroke-width:1"
         d="m 325.42993,377.33353 0,6"
         id="line3209" />
    </g>
    <g
       style="font-size:30px;fill:#000000;font-family:helvetica"
       id="text3211">
      <path
         d="m 302.58514,455.76001 0,-21.47461 2.91504,0 11.2793,16.86035 0,-16.86035 2.72461,0 0,21.47461 -2.91504,0 -11.2793,-16.875 0,16.875 z"
         style="font-size:30px;fill:#000000;font-family:helvetica"
         id="path3270" />
    </g>
    <g
       style="font-size:30px;fill:#000000;font-family:helvetica"
       id="text3213">
      <path
         d="m 416.31445,376 0,-21.47461 8.10059,0 c 1.42577,2e-5 2.51463,0.0684 3.2666,0.20508 1.05467,0.1758 1.93846,0.51027 2.65137,1.00342 0.71287,0.49318 1.2866,1.1841 1.72119,2.07275 0.43455,0.88869 0.65184,1.86525 0.65185,2.92969 -1e-5,1.82618 -0.58107,3.37159 -1.74316,4.63623 -1.16212,1.26466 -3.26173,1.89698 -6.29883,1.89697 l -5.50781,0 0,8.73047 z m 2.8418,-11.26465 5.55176,0 c 1.83592,1e-5 3.13963,-0.34178 3.91113,-1.02539 0.77147,-0.68358 1.15721,-1.64549 1.15723,-2.88574 -2e-5,-0.89842 -0.22707,-1.66746 -0.68116,-2.30713 -0.45411,-0.63963 -1.05226,-1.06199 -1.79443,-1.26709 -0.47853,-0.12693 -1.36232,-0.19041 -2.65137,-0.19043 l -5.49316,0 z"
         style="font-size:30px;fill:#000000;font-family:helvetica"
         id="path3273" />
      <path
         d="m 436.5,376 0,-21.47461 14.4873,0 0,2.53418 -11.6455,0 0,6.65039 10.07812,0 0,2.53418 -10.07812,0 0,9.75586 z"
         style="font-size:30px;fill:#000000;font-family:helvetica"
         id="path3275" />
      <path
         d="m 463.57397,369.83813 -1.96655,0.15381 c -0.17579,-0.77635 -0.42481,-1.34032 -0.74707,-1.69189 -0.53467,-0.56395 -1.19385,-0.84593 -1.97754,-0.84595 -0.62989,2e-5 -1.18286,0.1758 -1.65893,0.52735 -0.62257,0.45411 -1.11329,1.11695 -1.47217,1.98852 -0.35889,0.87159 -0.54566,2.11305 -0.5603,3.72437 0.47607,-0.72509 1.05834,-1.26342 1.74682,-1.61499 0.68847,-0.35156 1.40991,-0.52734 2.16431,-0.52735 1.31835,10e-6 2.44079,0.48524 3.36731,1.45569 0.9265,0.97047 1.38976,2.22474 1.38977,3.76282 -1e-5,1.01074 -0.21791,1.95007 -0.65369,2.81799 -0.4358,0.86792 -1.03455,1.53259 -1.79626,1.99402 -0.76173,0.46143 -1.62599,0.69214 -2.59278,0.69214 -1.64795,0 -2.99194,-0.60608 -4.03198,-1.81824 -1.04004,-1.21215 -1.56006,-3.20983 -1.56006,-5.99304 0,-3.11278 0.57495,-5.37596 1.72486,-6.78955 1.00341,-1.23046 2.35473,-1.84569 4.05395,-1.84571 1.26708,2e-5 2.30529,0.35525 3.11463,1.06568 0.80931,0.71046 1.29454,1.69191 1.45568,2.94433 z m -8.07495,6.94336 c 0,0.68116 0.14465,1.33302 0.43396,1.95557 0.28931,0.62256 0.69397,1.0968 1.21399,1.42273 0.52002,0.32593 1.06567,0.48889 1.63697,0.48889 0.83495,0 1.55272,-0.33691 2.15332,-1.01074 0.60057,-0.67383 0.90087,-1.58935 0.90087,-2.74658 0,-1.11328 -0.29664,-1.99035 -0.88989,-2.63123 -0.59327,-0.64086 -1.34034,-0.96129 -2.24121,-0.9613 -0.89356,10e-6 -1.65161,0.32044 -2.27417,0.9613 -0.62256,0.64088 -0.93384,1.48133 -0.93384,2.52136 z"
         style="font-size:75%;baseline-shift:sub"
         id="path3277" />
      <path
         d="m 465.61743,359.16602 0,-1.98853 6.07544,0 0,1.98853 z"
         style="font-size:75%;baseline-shift:super"
         id="path3279" />
    </g>
  </g>
  <cdml:cdml
     version="0.15">
    <cdml:info>
      <cdml:author_program
         version="0.13.0">BKchem</cdml:author_program>
    </cdml:info>
    <cdml:paper
       crop_margin="5"
       crop_svg="1"
       orientation="portrait"
       replace_minus="0"
       type="Legal"
       use_real_minus="0" />
    <cdml:viewport
       viewport="0.000000 0.000000 640.000000 480.000000" />
    <cdml:standard
       area_color=""
       font_family="helvetica"
       font_size="24"
       line_color="#000"
       line_width="0.06cm"
       paper_crop_margin="5"
       paper_crop_svg="1"
       paper_orientation="portrait"
       paper_type="Legal">
      <cdml:bond
         double-ratio="0.85"
         length="1.4cm"
         wedge-width="0.18cm"
         width="0.21cm" />
      <cdml:arrow
         length="1.6cm" />
      <cdml:atom
         show_hydrogens="0" />
    </cdml:standard>
    <cdml:molecule
       id="molecule106"
       name="">
      <cdml:atom
         id="atom42541"
         name="C"
         valency="4">
        <cdml:point
           x="1.704cm"
           y="7.622cm" />
      </cdml:atom>
      <cdml:atom
         id="atom83446"
         name="C"
         valency="4">
        <cdml:point
           x="2.916cm"
           y="6.922cm" />
      </cdml:atom>
      <cdml:atom
         id="atom46773"
         name="C"
         valency="4">
        <cdml:point
           x="4.129cm"
           y="7.622cm" />
      </cdml:atom>
      <cdml:atom
         id="atom86797"
         name="C"
         valency="4">
        <cdml:point
           x="4.129cm"
           y="9.020cm" />
      </cdml:atom>
      <cdml:atom
         id="atom38125"
         name="C"
         valency="4">
        <cdml:point
           x="1.704cm"
           y="9.020cm" />
      </cdml:atom>
      <cdml:atom
         id="atom58247"
         name="N"
         pos="center-first"
         valency="3">
        <cdml:point
           x="2.916cm"
           y="9.720cm" />
      </cdml:atom>
      <cdml:atom
         id="atom15340"
         name="N"
         pos="center-first"
         valency="3">
        <cdml:point
           x="5.458cm"
           y="9.452cm" />
      </cdml:atom>
      <cdml:atom
         id="atom57935"
         name="N"
         pos="center-first"
         valency="3">
        <cdml:point
           x="6.280cm"
           y="8.321cm" />
      </cdml:atom>
      <cdml:atom
         id="atom68145"
         name="N"
         pos="center-first"
         valency="3">
        <cdml:point
           x="5.458cm"
           y="7.190cm" />
      </cdml:atom>
      <cdml:atom
         id="atom5889"
         name="O"
         pos="center-first"
         valency="2">
        <cdml:point
           x="6.158cm"
           y="10.664cm" />
      </cdml:atom>
      <cdml:atom
         id="atom66378"
         name="C"
         valency="4">
        <cdml:point
           x="7.558cm"
           y="10.664cm" />
      </cdml:atom>
      <cdml:atom
         id="atom67238"
         name="C"
         valency="4">
        <cdml:point
           x="7.558cm"
           y="8.239cm" />
      </cdml:atom>
      <cdml:atom
         id="atom23755"
         name="C"
         valency="4">
        <cdml:point
           x="9.658cm"
           y="9.452cm" />
      </cdml:atom>
      <cdml:atom
         id="atom30115"
         name="C"
         valency="4">
        <cdml:point
           x="7.558cm"
           y="13.089cm" />
      </cdml:atom>
      <cdml:atom
         id="atom20624"
         name="C"
         valency="4">
        <cdml:point
           x="9.658cm"
           y="11.876cm" />
      </cdml:atom>
      <cdml:atom
         charge="1"
         id="atom83491"
         name="N"
         pos="center-first"
         valency="3">
        <cdml:point
           x="8.258cm"
           y="9.452cm" />
        <cdml:mark
           auto="1"
           draw_circle="yes"
           size="10"
           type="plus"
           x="8.612cm"
           y="10.065cm" />
      </cdml:atom>
      <cdml:atom
         id="atom58019"
         name="N"
         pos="center-first"
         valency="3">
        <cdml:point
           x="8.258cm"
           y="11.876cm" />
      </cdml:atom>
      <cdml:bond
         bond_width="-7.93505535055"
         center="no"
         double_ratio="0.85"
         end="atom57935"
         id="bond99986"
         line_width="2.26715867159"
         start="atom68145"
         type="n2" />
      <cdml:bond
         double_ratio="0.85"
         end="atom5889"
         id="bond91091"
         line_width="2.26715867159"
         start="atom15340"
         type="n1" />
      <cdml:bond
         double_ratio="0.85"
         end="atom15340"
         id="bond29598"
         line_width="2.26715867159"
         start="atom57935"
         type="n1" />
      <cdml:bond
         double_ratio="0.85"
         end="atom67238"
         id="bond17346"
         line_width="2.26715867159"
         start="atom83491"
         type="n1" />
      <cdml:bond
         double_ratio="0.85"
         end="atom30115"
         id="bond69760"
         line_width="2.26715867159"
         start="atom58019"
         type="n1" />
      <cdml:bond
         double_ratio="0.85"
         end="atom66378"
         id="bond96758"
         line_width="2.26715867159"
         start="atom5889"
         type="n1" />
      <cdml:bond
         bond_width="7.93505535055"
         center="no"
         double_ratio="0.85"
         end="atom38125"
         id="bond49485"
         line_width="2.26715867159"
         start="atom42541"
         type="n2" />
      <cdml:bond
         double_ratio="0.85"
         end="atom83446"
         id="bond64286"
         line_width="2.26715867159"
         start="atom42541"
         type="n1" />
      <cdml:bond
         double_ratio="0.85"
         end="atom20624"
         id="bond62241"
         line_width="2.26715867159"
         start="atom58019"
         type="n1" />
      <cdml:bond
         bond_width="-7.93505535055"
         center="no"
         double_ratio="0.85"
         end="atom46773"
         id="bond6413"
         line_width="2.26715867159"
         start="atom83446"
         type="n2" />
      <cdml:bond
         double_ratio="0.85"
         end="atom58247"
         id="bond76192"
         line_width="2.26715867159"
         start="atom38125"
         type="n1" />
      <cdml:bond
         double_ratio="0.85"
         end="atom68145"
         id="bond63774"
         line_width="2.26715867159"
         start="atom46773"
         type="n1" />
      <cdml:bond
         bond_width="7.93505535055"
         center="no"
         double_ratio="0.85"
         end="atom83491"
         id="bond93202"
         line_width="2.26715867159"
         start="atom66378"
         type="n2" />
      <cdml:bond
         double_ratio="0.85"
         end="atom86797"
         id="bond76198"
         line_width="2.26715867159"
         start="atom15340"
         type="n1" />
      <cdml:bond
         double_ratio="0.85"
         end="atom58019"
         id="bond83991"
         line_width="2.26715867159"
         start="atom66378"
         type="n1" />
      <cdml:bond
         double_ratio="0.85"
         end="atom86797"
         id="bond6086"
         line_width="2.26715867159"
         start="atom46773"
         type="n1" />
      <cdml:bond
         bond_width="-7.93505535055"
         center="no"
         double_ratio="0.85"
         end="atom58247"
         id="bond42557"
         line_width="2.26715867159"
         start="atom86797"
         type="n2" />
      <cdml:bond
         double_ratio="0.85"
         end="atom23755"
         id="bond65908"
         line_width="2.26715867159"
         start="atom83491"
         type="n1" />
    </cdml:molecule>
    <cdml:text
       id="text54916">
      <cdml:point
         x="11.195cm"
         y="9.713cm" />
      <cdml:ftext>PF<cdml:sub>6</cdml:sub>
<cdml:sup>-</cdml:sup>
</cdml:ftext>
    </cdml:text>
  </cdml:cdml>
</svg>
