<?xml version="1.0" encoding="UTF-8" standalone="no"?>
<!-- Created with Inkscape (http://www.inkscape.org/) -->
<svg
   xmlns:svg="http://www.w3.org/2000/svg"
   xmlns="http://www.w3.org/2000/svg"
   version="1.0"
   width="620"
   height="316.04001"
   id="svg2">
  <defs
     id="defs4" />
  <g
     transform="translate(137.28577,-401.2588)"
     id="layer1">
    <path
       d="M 155.0231,705.55192 C 153.46057,704.59921 151.51589,702.42258 150.70154,700.71491 C 149.41457,698.01621 149.38758,697.50468 150.4951,696.80422 C 152.65823,695.43602 153.69191,695.86832 154.83042,698.61699 C 156.12252,701.73639 158.04987,702.93716 161.76448,702.93716 C 166.89474,702.93716 170.33169,697.0757 167.88366,692.50137 C 166.84319,690.55722 161.77153,688.73078 159.66168,689.54043 C 158.45918,690.0018 158.20694,689.71909 158.44046,688.17153 C 158.64786,686.79698 159.73743,685.87797 162.13043,685.05927 C 167.29282,683.29299 168.51839,680.07006 165.2649,676.81656 C 162.02473,673.57639 155.37791,675.56817 153.81842,680.24663 C 153.56244,681.01467 152.77865,681.19316 151.47671,680.77993 C 149.00431,679.99527 149.59376,677.45808 153.08278,673.86676 C 156.5428,670.30531 162.74853,669.73945 166.93914,672.60322 C 171.74603,675.88806 172.63892,681.95832 168.79884,685.24629 C 167.2101,686.60665 167.25355,686.7443 170.12873,689.45588 C 179.30394,698.1092 166.0244,712.25942 155.0231,705.55192 z M 354.41032,705.55192 C 352.84778,704.59921 350.90302,702.42258 350.08875,700.71491 C 348.80179,698.01621 348.7748,697.50468 349.88231,696.80422 C 352.04544,695.43602 353.07912,695.86832 354.21763,698.61699 C 355.50973,701.73639 357.43708,702.93716 361.15169,702.93716 C 366.28195,702.93716 369.7189,697.0757 367.27088,692.50137 C 366.23041,690.55722 361.15875,688.73078 359.0489,689.54043 C 357.84639,690.0018 357.59415,689.71909 357.82767,688.17153 C 358.03507,686.79698 359.12465,685.87797 361.51764,685.05927 C 366.68003,683.29299 367.90561,680.07006 364.65211,676.81656 C 361.41194,673.57639 354.76512,675.56817 353.20563,680.24663 C 352.94965,681.01467 352.16586,681.19316 350.86392,680.77993 C 348.39152,679.99527 348.98098,677.45808 352.46999,673.86676 C 355.93001,670.30531 362.13574,669.73945 366.32636,672.60322 C 371.13324,675.88806 372.02613,681.95832 368.18606,685.24629 C 366.59731,686.60665 366.64076,686.7443 369.51594,689.45588 C 378.69115,698.1092 365.41161,712.25942 354.41032,705.55192 z M 64.860639,692.09816 C 59.375923,690.14207 56.510494,687.26045 53.128051,680.29931 C 51.110583,676.14753 50.798965,674.41033 50.785382,667.23901 C 50.767968,658.0955 52.559406,652.6019 57.128768,647.78648 C 62.324242,642.31126 71.973016,639.83023 79.817902,641.95219 C 84.365585,643.18238 89.838546,648.10419 91.675085,652.6154 L 92.988255,655.84094 L 89.727969,656.7421 C 87.934877,657.2377 86.368251,657.3535 86.246616,656.9993 C 85.362869,654.42581 82.099101,650.39558 79.727873,648.94989 C 73.429413,645.10964 63.784644,648.07842 59.911831,655.0494 C 58.017739,658.45883 57.735115,660.04131 57.735115,667.23901 C 57.735115,674.43672 58.017739,676.01919 59.911831,679.42862 C 62.819401,684.66223 68.199025,687.53088 74.125353,687.00795 C 79.360531,686.54596 82.366141,684.39406 85.161741,679.10603 C 87.257222,675.14232 87.452169,675.00945 90.38586,675.54493 C 92.061931,675.85088 93.558467,676.22406 93.711534,676.37434 C 94.632982,677.2789 89.609208,686.05254 86.786181,688.46887 C 81.216486,693.2364 72.225167,694.72467 64.860639,692.09816 z M 264.24785,692.09816 C 258.76314,690.14207 255.89771,687.26045 252.51526,680.29931 C 250.4978,676.14753 250.18618,674.41033 250.1726,667.23901 C 250.15518,658.0955 251.94662,652.6019 256.51598,647.78648 C 261.71146,642.31126 271.36023,639.83023 279.20512,641.95219 C 283.7528,643.18238 289.22576,648.10419 291.0623,652.6154 L 292.37547,655.84094 L 289.11518,656.7421 C 287.32209,657.2377 285.75546,657.3535 285.63383,656.9993 C 284.75008,654.42581 281.48631,650.39558 279.11509,648.94989 C 272.81663,645.10964 263.17186,648.07842 259.29904,655.0494 C 257.40495,658.45883 257.12233,660.04131 257.12233,667.23901 C 257.12233,674.43672 257.40495,676.01919 259.29904,679.42862 C 262.20662,684.66223 267.58624,687.53088 273.51257,687.00795 C 278.74774,686.54596 281.75335,684.39406 284.54895,679.10603 C 286.64444,675.14232 286.83938,675.00945 289.77307,675.54493 C 291.44914,675.85088 292.94568,676.22406 293.09875,676.37434 C 294.02019,677.2789 288.99642,686.05254 286.17339,688.46887 C 280.6037,693.2364 271.61247,694.72467 264.24785,692.09816 z M 101.70479,667.23901 L 101.70479,641.9891 L 105.18753,641.9891 L 108.67028,641.9891 L 108.67028,652.43734 L 108.67028,662.88558 L 121.73057,662.88558 L 134.79087,662.88558 L 134.79087,652.43734 L 134.79087,641.9891 L 138.27362,641.9891 L 141.75636,641.9891 L 141.75636,667.23901 L 141.75636,692.48892 L 138.27362,692.48892 L 134.79087,692.48892 L 134.79087,680.73465 L 134.79087,668.98038 L 121.73057,668.98038 L 108.67028,668.98038 L 108.67028,680.73465 L 108.67028,692.48892 L 105.18753,692.48892 L 101.70479,692.48892 L 101.70479,667.23901 z M 301.092,667.23901 L 301.092,641.9891 L 304.57474,641.9891 L 308.05749,641.9891 L 308.05749,652.43734 L 308.05749,662.88558 L 321.11779,662.88558 L 334.17809,662.88558 L 334.17809,652.43734 L 334.17809,641.9891 L 337.66083,641.9891 L 341.14358,641.9891 L 341.14358,667.23901 L 341.14358,692.48892 L 337.66083,692.48892 L 334.17809,692.48892 L 334.17809,680.73465 L 334.17809,668.98038 L 321.11779,668.98038 L 308.05749,668.98038 L 308.05749,680.73465 L 308.05749,692.48892 L 304.57474,692.48892 L 301.092,692.48892 L 301.092,667.23901 z M -73.967453,648.08661 C -75.529987,647.1339 -77.474666,644.95727 -78.289019,643.2496 C -79.575981,640.5509 -79.602972,640.03937 -78.495459,639.33891 C -76.332325,637.97071 -75.298646,638.40301 -74.160136,641.15168 C -72.868038,644.27108 -70.940686,645.47185 -67.226076,645.47185 C -62.095817,645.47185 -58.658869,639.61039 -61.106891,635.03606 C -62.147361,633.0919 -67.219023,631.26547 -69.328871,632.07512 C -70.531376,632.53649 -70.783614,632.25378 -70.550096,630.70622 C -70.342698,629.33167 -69.253121,628.41266 -66.860126,627.59395 C -61.697739,625.82768 -60.472161,622.60475 -63.725655,619.35125 C -66.965828,616.11108 -73.612649,618.10286 -75.172135,622.78132 C -75.428117,623.54935 -76.211909,623.72785 -77.513847,623.31462 C -79.986248,622.52996 -79.396793,619.99277 -75.907778,616.40145 C -72.447757,612.84 -66.242026,612.27414 -62.051412,615.13791 C -57.244526,618.42275 -56.351637,624.493 -60.191712,627.78098 C -61.780454,629.14134 -61.737007,629.27899 -58.861826,631.99057 C -49.686618,640.64389 -62.966155,654.79411 -73.967453,648.08661 z M 454.53926,648.08661 C 452.97673,647.1339 451.03197,644.95727 450.2177,643.2496 C 448.93074,640.5509 448.90375,640.03937 450.01126,639.33891 C 452.17439,637.97071 453.20807,638.40301 454.34658,641.15168 C 455.63868,644.27108 457.56603,645.47185 461.28064,645.47185 C 466.4109,645.47185 469.84785,639.61039 467.39983,635.03606 C 466.35936,633.0919 461.28769,631.26547 459.17785,632.07512 C 457.97534,632.53649 457.7231,632.25378 457.95662,630.70622 C 458.16402,629.33167 459.2536,628.41266 461.64659,627.59395 C 466.80898,625.82768 468.03456,622.60475 464.78106,619.35125 C 461.54089,616.11108 454.89407,618.10286 453.33458,622.78132 C 453.0786,623.54935 452.29481,623.72785 450.99287,623.31462 C 448.52047,622.52996 449.10992,619.99277 452.59894,616.40145 C 456.05896,612.84 462.26469,612.27414 466.45531,615.13791 C 471.26219,618.42275 472.15508,624.493 468.31501,627.78098 C 466.72626,629.14134 466.76971,629.27899 469.64489,631.99057 C 478.8201,640.64389 465.54056,654.79411 454.53926,648.08661 z M -35.268311,634.63285 C -40.753026,632.67676 -43.618456,629.79514 -47.000899,622.834 C -49.018367,618.68222 -49.329985,616.94502 -49.343568,609.7737 C -49.360982,600.63019 -47.569544,595.13659 -43.000181,590.32117 C -37.804708,584.84595 -28.155934,582.36492 -20.311048,584.48687 C -15.763366,585.71707 -10.290405,590.63888 -8.453866,595.15009 L -7.140696,598.37563 L -10.400982,599.27679 C -12.194074,599.77239 -13.7607,599.88819 -13.882335,599.53399 C -14.766082,596.9605 -18.02985,592.93027 -20.401077,591.48458 C -26.699537,587.64433 -36.344305,590.61311 -40.217119,597.58409 C -42.11121,600.99352 -42.393835,602.576 -42.393835,609.7737 C -42.393835,616.97141 -42.11121,618.55388 -40.217119,621.96331 C -37.309548,627.19692 -31.929925,630.06557 -26.003597,629.54264 C -20.76842,629.08065 -17.76281,626.92875 -14.96721,621.64072 C -12.871729,617.67701 -12.676782,617.54414 -9.743091,618.07961 C -8.06702,618.38557 -6.570484,618.75875 -6.417417,618.90903 C -5.495969,619.81359 -10.519743,628.58723 -13.34277,631.00356 C -18.912465,635.77109 -27.903783,637.25936 -35.268311,634.63285 z M 69.489383,610.20904 L 69.489383,584.52379 L 72.101442,584.52379 L 74.713502,584.52379 L 74.713502,610.20904 L 74.713502,635.8943 L 72.101442,635.8943 L 69.489383,635.8943 L 69.489383,610.20904 z M 268.8766,610.20904 L 268.8766,584.52379 L 271.48866,584.52379 L 274.10072,584.52379 L 274.10072,610.20904 L 274.10072,635.8943 L 271.48866,635.8943 L 268.8766,635.8943 L 268.8766,610.20904 z M 363.50612,634.63285 C 358.0214,632.67676 355.15597,629.79514 351.77353,622.834 C 349.75606,618.68222 349.44444,616.94502 349.43086,609.7737 C 349.41345,600.63019 351.20488,595.13659 355.77425,590.32117 C 360.96972,584.84595 370.61849,582.36492 378.46338,584.48687 C 383.01106,585.71707 388.48402,590.63888 390.32056,595.15009 L 391.63373,598.37563 L 388.37345,599.27679 C 386.58035,599.77239 385.01373,599.88819 384.89209,599.53399 C 384.00835,596.9605 380.74458,592.93027 378.37335,591.48458 C 372.07489,587.64433 362.43012,590.61311 358.55731,597.58409 C 356.66322,600.99352 356.38059,602.576 356.38059,609.7737 C 356.38059,616.97141 356.66322,618.55388 358.55731,621.96331 C 361.46488,627.19692 366.8445,630.06557 372.77083,629.54264 C 378.00601,629.08065 381.01162,626.92875 383.80722,621.64072 C 385.9027,617.67701 386.09764,617.54414 389.03134,618.07961 C 390.70741,618.38557 392.20394,618.75875 392.35701,618.90903 C 393.27846,619.81359 388.25468,628.58723 385.43166,631.00356 C 379.86196,635.77109 370.87073,637.25936 363.50612,634.63285 z M -127.28577,609.7737 L -127.28577,584.52379 L -123.80302,584.52379 L -120.32028,584.52379 L -120.32028,594.97203 L -120.32028,605.42027 L -107.25998,605.42027 L -94.19968,605.42027 L -94.19968,594.97203 L -94.19968,584.52379 L -90.71694,584.52379 L -87.234191,584.52379 L -87.234191,609.7737 L -87.234191,635.02361 L -90.71694,635.02361 L -94.19968,635.02361 L -94.19968,623.26934 L -94.19968,611.51507 L -107.25998,611.51507 L -120.32028,611.51507 L -120.32028,623.26934 L -120.32028,635.02361 L -123.80302,635.02361 L -127.28577,635.02361 L -127.28577,609.7737 z M 401.22095,609.7737 L 401.22095,584.52379 L 404.70369,584.52379 L 408.18644,584.52379 L 408.18644,594.97203 L 408.18644,605.42027 L 421.24674,605.42027 L 434.30704,605.42027 L 434.30704,594.97203 L 434.30704,584.52379 L 437.78978,584.52379 L 441.27253,584.52379 L 441.27253,609.7737 L 441.27253,635.02361 L 437.78978,635.02361 L 434.30704,635.02361 L 434.30704,623.26934 L 434.30704,611.51507 L 421.24674,611.51507 L 408.18644,611.51507 L 408.18644,623.26934 L 408.18644,635.02361 L 404.70369,635.02361 L 401.22095,635.02361 L 401.22095,609.7737 z M -1.45581,592.98895 C -2.173952,591.96372 -2.471204,590.84384 -2.116487,590.50045 C -1.761769,590.15705 7.116883,584.91029 17.613967,578.84108 L 36.699502,567.80618 L 38.218763,569.82042 C 39.726444,571.81917 39.706941,571.85252 35.676359,574.16053 C 33.442351,575.43983 24.467489,580.61894 15.732152,585.66979 C -0.012647,594.77351 -0.161447,594.83681 -1.45581,592.98895 z M 325.07645,584.13738 C 315.04231,578.25842 306.71115,573.08384 306.56261,572.6384 C 306.41416,572.19287 306.80196,571.13185 307.4245,570.28058 C 308.46932,568.85161 310.02637,569.58194 327.67972,579.78116 C 338.19752,585.85786 346.93277,590.9445 347.09124,591.08494 C 347.7264,591.64731 345.36493,594.96715 344.378,594.89924 C 343.7963,594.85919 335.11059,590.01643 325.07645,584.13738 z M 56.316679,577.06662 C 51.484282,575.57871 46.517276,570.4892 45.172937,565.648 C 43.74118,560.4918 43.897642,560.14457 47.653,560.14457 C 50.725914,560.14457 51.122947,560.40125 51.631341,562.71571 C 51.941915,564.12988 53.018344,566.33228 54.023378,567.61001 C 60.374949,575.68467 76.454875,572.66243 76.454875,563.39397 C 76.454875,559.35912 73.360542,557.21837 63.697924,554.56826 C 53.525693,551.77849 50.128188,549.95762 47.717518,546.00384 C 44.144046,540.1429 46.683055,532.05126 53.175765,528.609 C 58.098974,525.99877 69.141717,525.82437 74.109681,528.2784 C 78.043007,530.22142 81.450614,534.40577 82.215947,538.23244 C 82.763783,540.97153 82.744018,540.98947 79.17577,540.98947 C 76.580689,540.98947 75.584188,540.63092 75.584188,539.69719 C 75.584188,538.98645 74.46701,537.15453 73.1016,535.6263 C 70.945432,533.21328 69.933171,532.79813 65.404992,532.47067 C 57.826537,531.92248 52.946339,534.85818 52.946339,539.9651 C 52.946339,543.50305 55.785386,545.38983 64.954151,547.94555 C 78.817918,551.80984 82.499094,554.75023 83.143054,562.47409 C 84.117004,574.15661 70.652533,581.48083 56.316679,577.06662 z M 255.70389,577.06662 C 250.8715,575.57871 245.90449,570.4892 244.56015,565.648 C 243.12839,560.4918 243.28486,560.14457 247.04021,560.14457 C 250.11313,560.14457 250.51016,560.40125 251.01855,562.71571 C 251.32913,564.12988 252.40556,566.33228 253.41059,567.61001 C 259.76216,575.68467 275.84209,572.66243 275.84209,563.39397 C 275.84209,559.35912 272.74776,557.21837 263.08514,554.56826 C 252.91291,551.77849 249.5154,549.95762 247.10473,546.00384 C 243.53126,540.1429 246.07027,532.05126 252.56298,528.609 C 257.48619,525.99877 268.52893,525.82437 273.49689,528.2784 C 277.43022,530.22142 280.83783,534.40577 281.60316,538.23244 C 282.151,540.97153 282.13123,540.98947 278.56298,540.98947 C 275.9679,540.98947 274.9714,540.63092 274.9714,539.69719 C 274.9714,538.98645 273.85422,537.15453 272.48881,535.6263 C 270.33265,533.21328 269.32039,532.79813 264.79221,532.47067 C 257.21375,531.92248 252.33355,534.85818 252.33355,539.9651 C 252.33355,543.50305 255.1726,545.38983 264.34136,547.94555 C 278.20513,551.80984 281.88631,554.75023 282.53027,562.47409 C 283.50422,574.15661 270.03975,581.48083 255.70389,577.06662 z M 92.127233,559.27388 L 92.127233,540.98947 L 95.174636,540.98947 L 98.222039,540.98947 L 98.222039,559.27388 L 98.222039,577.5583 L 95.174636,577.5583 L 92.127233,577.5583 L 92.127233,559.27388 z M 291.51445,559.27388 L 291.51445,540.98947 L 294.56185,540.98947 L 297.60925,540.98947 L 297.60925,559.27388 L 297.60925,577.5583 L 294.56185,577.5583 L 291.51445,577.5583 L 291.51445,559.27388 z M -73.967453,533.15599 C -75.529987,532.20328 -77.474666,530.02665 -78.289019,528.31897 C -79.575981,525.62028 -79.602972,525.10875 -78.495459,524.40829 C -76.332325,523.04009 -75.298646,523.47239 -74.160136,526.22106 C -72.868038,529.34046 -70.940686,530.54123 -67.226076,530.54123 C -62.095817,530.54123 -58.658869,524.67977 -61.106891,520.10544 C -62.147361,518.16128 -67.219023,516.33485 -69.328871,517.1445 C -70.531376,517.60587 -70.783614,517.32316 -70.550096,515.7756 C -70.342698,514.40105 -69.253121,513.48204 -66.860126,512.66333 C -61.697739,510.89706 -60.472161,507.67413 -63.725655,504.42063 C -66.965828,501.18046 -73.612649,503.17224 -75.172135,507.8507 C -75.428117,508.61873 -76.211909,508.79722 -77.513847,508.384 C -79.986248,507.59933 -79.396793,505.06215 -75.907778,501.47083 C -72.447757,497.90938 -66.242026,497.34352 -62.051412,500.20729 C -57.244526,503.49213 -56.351637,509.56238 -60.191712,512.85036 C -61.780454,514.21072 -61.737007,514.34837 -58.861826,517.05995 C -49.686618,525.71327 -62.966155,539.86349 -73.967453,533.15599 z M 454.53926,533.15599 C 452.97673,532.20328 451.03197,530.02665 450.2177,528.31897 C 448.93074,525.62028 448.90375,525.10875 450.01126,524.40829 C 452.17439,523.04009 453.20807,523.47239 454.34658,526.22106 C 455.63868,529.34046 457.56603,530.54123 461.28064,530.54123 C 466.4109,530.54123 469.84785,524.67977 467.39983,520.10544 C 466.35936,518.16128 461.28769,516.33485 459.17785,517.1445 C 457.97534,517.60587 457.7231,517.32316 457.95662,515.7756 C 458.16402,514.40105 459.2536,513.48204 461.64659,512.66333 C 466.80898,510.89706 468.03456,507.67413 464.78106,504.42063 C 461.54089,501.18046 454.89407,503.17224 453.33458,507.8507 C 453.0786,508.61873 452.29481,508.79722 450.99287,508.384 C 448.52047,507.59933 449.10992,505.06215 452.59894,501.47083 C 456.05896,497.90938 462.26469,497.34352 466.45531,500.20729 C 471.26219,503.49213 472.15508,509.56238 468.31501,512.85036 C 466.72626,514.21072 466.76971,514.34837 469.64489,517.05995 C 478.8201,525.71327 465.54056,539.86349 454.53926,533.15599 z M 19.860251,523.04418 C 9.5643828,517.05516 0.873625,511.88407 0.5474658,511.55286 C 0.2213067,511.22174 0.4283559,510.07409 1.007624,509.00253 C 2.0455694,507.08258 2.354489,507.22302 22.243494,518.6554 C 42.046911,530.03858 42.40128,530.29195 41.106656,532.14024 C 40.381026,533.17627 39.515651,534.0036 39.183658,533.97861 C 38.851665,533.95362 30.156119,529.03311 19.860251,523.04418 z M 220.11815,523.48214 C 210.30116,517.74605 201.7363,512.73621 201.08503,512.34902 C 200.08679,511.75564 200.08679,511.30794 201.08503,509.49612 L 202.26908,507.3471 L 221.9553,518.72645 C 240.65982,529.53837 241.59729,530.20358 240.75299,532.06493 C 240.26427,533.1424 239.43755,533.99864 238.91584,533.96764 C 238.39412,533.93664 229.93514,529.21822 220.11815,523.48214 z M 92.127233,530.10588 C 92.127233,527.20363 92.272376,527.05848 95.174636,527.05848 C 98.076895,527.05848 98.222039,527.20363 98.222039,530.10588 C 98.222039,533.00814 98.076895,533.15329 95.174636,533.15329 C 92.272376,533.15329 92.127233,533.00814 92.127233,530.10588 z M 291.51445,530.10588 C 291.51445,527.20363 291.65959,527.05848 294.56185,527.05848 C 297.46411,527.05848 297.60925,527.20363 297.60925,530.10588 C 297.60925,533.00814 297.46411,533.15329 294.56185,533.15329 C 291.65959,533.15329 291.51445,533.00814 291.51445,530.10588 z M 106.87971,530.44937 C 106.25874,529.28892 106.20153,528.30827 106.72438,527.78542 C 107.17949,527.33031 114.95402,522.68128 124.00115,517.4542 C 138.86238,508.86801 140.55656,508.09197 141.55045,509.41541 C 142.15549,510.22115 142.51534,511.288 142.35017,511.78629 C 142.0867,512.58123 119.91075,525.91275 111.09618,530.57536 L 107.86263,532.28582 L 106.87971,530.44937 z M 306.26449,530.44476 C 305.49776,529.01213 305.5392,528.35537 306.44881,527.52325 C 307.09416,526.93284 315.56864,521.89383 325.28106,516.32535 L 342.93998,506.20084 L 343.92455,508.36179 C 344.46612,509.55037 344.74761,510.67982 344.55005,510.87181 C 344.07797,511.33075 312.6676,529.49214 309.61454,531.07148 C 307.44479,532.19388 307.17339,532.14312 306.26449,530.44476 z M -35.268311,519.70223 C -40.753026,517.74614 -43.618456,514.86452 -47.000899,507.90338 C -49.018367,503.7516 -49.329985,502.0144 -49.343568,494.84308 C -49.360982,485.69957 -47.569544,480.20606 -43.000181,475.39055 C -37.804708,469.91533 -28.155934,467.4343 -20.311048,469.55625 C -15.763366,470.78645 -10.290405,475.70826 -8.453866,480.21946 L -7.140696,483.44501 L -10.400982,484.34617 C -12.194074,484.84177 -13.7607,484.95757 -13.882335,484.60337 C -14.766082,482.02988 -18.02985,477.99965 -20.401077,476.55396 C -26.699537,472.71371 -36.344305,475.68249 -40.217119,482.65347 C -42.11121,486.0629 -42.393835,487.64538 -42.393835,494.84308 C -42.393835,502.04078 -42.11121,503.62326 -40.217119,507.03269 C -37.309548,512.2663 -31.929925,515.13495 -26.003597,514.61202 C -20.76842,514.15003 -17.76281,511.99813 -14.96721,506.7101 C -12.871729,502.74639 -12.676782,502.61352 -9.743091,503.14899 C -8.06702,503.45495 -6.570484,503.82813 -6.417417,503.97841 C -5.495969,504.88297 -10.519743,513.65661 -13.34277,516.07294 C -18.912465,520.84047 -27.903783,522.32874 -35.268311,519.70223 z M 363.50612,519.70223 C 358.0214,517.74614 355.15597,514.86452 351.77353,507.90338 C 349.75606,503.7516 349.44444,502.0144 349.43086,494.84308 C 349.41345,485.69957 351.20488,480.20606 355.77425,475.39055 C 360.96972,469.91533 370.61849,467.4343 378.46338,469.55625 C 383.01106,470.78645 388.48402,475.70826 390.32056,480.21946 L 391.63373,483.44501 L 388.37345,484.34617 C 386.58035,484.84177 385.01373,484.95757 384.89209,484.60337 C 384.00835,482.02988 380.74458,477.99965 378.37335,476.55396 C 372.07489,472.71371 362.43012,475.68249 358.55731,482.65347 C 356.66322,486.0629 356.38059,487.64538 356.38059,494.84308 C 356.38059,502.04078 356.66322,503.62326 358.55731,507.03269 C 361.46488,512.2663 366.8445,515.13495 372.77083,514.61202 C 378.00601,514.15003 381.01162,511.99813 383.80722,506.7101 C 385.9027,502.74639 386.09764,502.61352 389.03134,503.14899 C 390.70741,503.45495 392.20394,503.82813 392.35701,503.97841 C 393.27846,504.88297 388.25468,513.65661 385.43166,516.07294 C 379.86196,520.84047 370.87073,522.32874 363.50612,519.70223 z M -127.28577,494.84308 L -127.28577,469.59317 L -123.80302,469.59317 L -120.32028,469.59317 L -120.32028,480.04141 L -120.32028,490.48965 L -107.25998,490.48965 L -94.19968,490.48965 L -94.19968,480.04141 L -94.19968,469.59317 L -90.71694,469.59317 L -87.234191,469.59317 L -87.234191,494.84308 L -87.234191,520.09299 L -90.71694,520.09299 L -94.19968,520.09299 L -94.19968,508.33872 L -94.19968,496.58445 L -107.25998,496.58445 L -120.32028,496.58445 L -120.32028,508.33872 L -120.32028,520.09299 L -123.80302,520.09299 L -127.28577,520.09299 L -127.28577,494.84308 z M 151.33392,494.84308 L 151.33392,469.59317 L 155.03433,469.61529 L 158.73475,469.63749 L 171.57503,488.98806 L 184.41522,508.33872 L 184.41765,488.96595 L 184.42,469.59317 L 187.90275,469.59317 L 191.3855,469.59317 L 191.3855,494.84308 L 191.3855,520.09299 L 187.68508,520.07087 L 183.98466,520.04867 L 171.14439,500.6981 L 158.3042,481.34744 L 158.30176,500.72021 L 158.29941,520.09299 L 154.81666,520.09299 L 151.33392,520.09299 L 151.33392,494.84308 z M 401.22095,494.84308 L 401.22095,469.59317 L 404.70369,469.59317 L 408.18644,469.59317 L 408.18644,480.04141 L 408.18644,490.48965 L 421.24674,490.48965 L 434.30704,490.48965 L 434.30704,480.04141 L 434.30704,469.59317 L 437.78978,469.59317 L 441.27253,469.59317 L 441.27253,494.84308 L 441.27253,520.09299 L 437.78978,520.09299 L 434.30704,520.09299 L 434.30704,508.33872 L 434.30704,496.58445 L 421.24674,496.58445 L 408.18644,496.58445 L 408.18644,508.33872 L 408.18644,520.09299 L 404.70369,520.09299 L 401.22095,520.09299 L 401.22095,494.84308 z M 151.33392,436.50708 L 151.33392,411.25717 L 154.81666,411.25717 L 158.29941,411.25717 L 158.29941,421.70541 L 158.29941,432.15365 L 171.35971,432.15365 L 184.42,432.15365 L 184.42,421.70541 L 184.42,411.25717 L 187.90275,411.25717 L 191.3855,411.25717 L 191.3855,436.50708 L 191.3855,461.75699 L 187.90275,461.75699 L 184.42,461.75699 L 184.42,450.00272 L 184.42,438.24846 L 171.35971,438.24846 L 158.29941,438.24846 L 158.29941,450.00272 L 158.29941,461.75699 L 154.81666,461.75699 L 151.33392,461.75699 L 151.33392,436.50708 z"
       id="path2453"
       style="fill:#000000" />
  </g>
</svg>
