<?xml version="1.0" encoding="UTF-8" standalone="no"?>
<svg
   xmlns:cdml="http://www.freesoftware.fsf.org/bkchem/cdml"
   xmlns:dc="http://purl.org/dc/elements/1.1/"
   xmlns:cc="http://creativecommons.org/ns#"
   xmlns:rdf="http://www.w3.org/1999/02/22-rdf-syntax-ns#"
   xmlns:svg="http://www.w3.org/2000/svg"
   xmlns="http://www.w3.org/2000/svg"
   xmlns:sodipodi="http://sodipodi.sourceforge.net/DTD/sodipodi-0.dtd"
   xmlns:inkscape="http://www.inkscape.org/namespaces/inkscape"
   height="75.68945mm"
   version="1.0"
   viewBox="0 0 182 286"
   width="48.16602mm"
   id="svg4463"
   inkscape:version="0.48.1 "
   sodipodi:docname="mcpba.svg">
  <metadata
     id="metadata4531">
    <rdf:RDF>
      <cc:Work
         rdf:about="">
        <dc:format>image/svg+xml</dc:format>
        <dc:type
           rdf:resource="http://purl.org/dc/dcmitype/StillImage" />
        <dc:title></dc:title>
      </cc:Work>
    </rdf:RDF>
  </metadata>
  <defs
     id="defs4529" />
  <sodipodi:namedview
     pagecolor="#ffffff"
     bordercolor="#666666"
     borderopacity="1"
     objecttolerance="10"
     gridtolerance="10"
     guidetolerance="10"
     inkscape:pageopacity="0"
     inkscape:pageshadow="2"
     inkscape:window-width="640"
     inkscape:window-height="480"
     id="namedview4527"
     showgrid="false"
     inkscape:zoom="0.98064447"
     inkscape:cx="85.333496"
     inkscape:cy="134.09549"
     inkscape:window-x="0"
     inkscape:window-y="0"
     inkscape:window-maximized="0"
     inkscape:current-layer="svg4463" />
  <g
     font-family="Helvetica"
     font-size="12pt"
     stroke-linecap="round"
     transform="translate(-194,-80)"
     id="g4465">
    <g
       stroke="#000000"
       stroke-width="2.26715867159"
       id="g4467">
      <path
         style=""
         d="M 259.19,183.64 291,165.27"
         id="line4469" />
    </g>
    <g
       stroke="#000000"
       stroke-width="2.26715867159"
       id="g4471">
      <path
         style=""
         d="m 305,315.82001 32,18.47998"
         id="line4473" />
    </g>
    <g
       stroke="#000000"
       stroke-width="2.26715867159"
       id="g4475">
      <path
         style=""
         d="M 259.19,236.53999 305,263"
         id="line4477" />
      <path
         style=""
         d="m 258.66,245.39 38.94001,22.50001"
         id="line4479" />
    </g>
    <g
       stroke="#000000"
       stroke-width="2.26715867159"
       id="g4481">
      <path
         style=""
         d="m 213.39,263 45.8,-26.46001"
         id="line4483" />
    </g>
    <g
       stroke="#000000"
       stroke-width="2.26715867159"
       id="g4485">
      <path
         style=""
         d="m 305,263 0,52.82001"
         id="line4487" />
    </g>
    <g
       stroke="#000000"
       stroke-width="2.26715867159"
       id="g4489">
      <path
         style=""
         d="M 257.69,186.23 226.5,168.22"
         id="line4491" />
      <path
         style=""
         d="M 260.69,181.03999 229.5,163.03"
         id="line4493" />
    </g>
    <g
       stroke="#000000"
       stroke-width="2.26715867159"
       id="g4495">
      <path
         style=""
         d="m 213.39,315.82001 45.8,26.47"
         id="line4497" />
    </g>
    <g
       stroke="#000000"
       stroke-width="2.26715867159"
       id="g4499">
      <path
         style=""
         d="m 305,315.82001 -45.81,26.47"
         id="line4501" />
      <path
         style=""
         d="M 297.60001,310.94 258.66,333.42999"
         id="line4503" />
    </g>
    <g
       stroke="#000000"
       stroke-linecap="butt"
       stroke-width="2.26715867159"
       id="g4505">
      <path
         style=""
         d="m 305.01001,138 0,-21"
         id="line4507" />
    </g>
    <g
       stroke="#000000"
       stroke-width="2.26715867159"
       id="g4509">
      <path
         style=""
         d="m 213.39,263 0,52.82001"
         id="line4511" />
      <path
         style=""
         d="m 221.32001,266.95999 0,44.9"
         id="line4513" />
    </g>
    <g
       stroke="#000000"
       stroke-width="2.26715867159"
       id="g4515">
      <path
         style=""
         d="m 259.19,236.53999 0,-52.89999"
         id="line4517" />
    </g>
    <g
       style="font-size:30px;fill:#000000;font-family:helvetica"
       id="text4519">
      <path
         d="m 293.75018,100.83102 c 0,-3.564443 0.95703,-6.354967 2.8711,-8.371585 1.91405,-2.016581 4.38475,-3.024881 7.41211,-3.024903 1.9824,2.2e-5 3.76951,0.473654 5.36132,1.420899 1.59178,0.947285 2.80516,2.268084 3.64014,3.962402 0.83494,1.694351 1.25242,3.615735 1.25244,5.764157 -2e-5,2.17775 -0.43947,4.12599 -1.31836,5.84473 -0.87892,1.71875 -2.12404,3.02002 -3.73535,3.90381 -1.61134,0.88379 -3.34962,1.32568 -5.21484,1.32568 -2.0215,0 -3.82814,-0.48828 -5.41992,-1.46484 -1.59181,-0.97656 -2.79786,-2.30957 -3.61817,-3.99903 -0.82031,-1.68944 -1.23047,-3.47655 -1.23047,-5.36132 z m 2.92969,0.0439 c 0,2.5879 0.6958,4.62647 2.0874,6.11572 1.3916,1.48927 3.1372,2.23389 5.23682,2.23389 2.13866,0 3.89891,-0.75195 5.28076,-2.25586 1.38182,-1.5039 2.07274,-3.63769 2.07275,-6.40137 -10e-6,-1.74803 -0.29542,-3.273907 -0.88623,-4.577632 -0.59083,-1.303694 -1.45509,-2.314436 -2.59277,-3.032227 -1.13771,-0.717754 -2.41456,-1.07664 -3.83057,-1.07666 -2.01172,2e-5 -3.74268,0.690937 -5.19287,2.072754 -1.4502,1.381852 -2.17529,3.688979 -2.17529,6.921385 z"
         style="font-size:30px;fill:#000000;font-family:helvetica"
         id="path4549" />
      <path
         d="m 318.02264,111.29 0,-21.474608 2.8418,0 0,8.818359 11.16211,0 0,-8.818359 2.8418,0 0,21.474608 -2.8418,0 0,-10.12207 -11.16211,0 0,10.12207 z"
         style="font-size:30px;fill:#000000;font-family:helvetica"
         id="path4551" />
    </g>
    <g
       style="font-size:30px;fill:#000000;font-family:helvetica"
       id="text4521">
      <path
         d="m 293.75018,153.73102 c 0,-3.56444 0.95703,-6.35497 2.8711,-8.37158 1.91405,-2.01658 4.38475,-3.02488 7.41211,-3.02491 1.9824,3e-5 3.76951,0.47366 5.36132,1.4209 1.59178,0.94729 2.80516,2.26809 3.64014,3.9624 0.83494,1.69436 1.25242,3.61574 1.25244,5.76416 -2e-5,2.17775 -0.43947,4.12599 -1.31836,5.84473 -0.87892,1.71875 -2.12404,3.02002 -3.73535,3.90381 -1.61134,0.88379 -3.34962,1.32568 -5.21484,1.32568 -2.0215,0 -3.82814,-0.48828 -5.41992,-1.46484 -1.59181,-0.97656 -2.79786,-2.30957 -3.61817,-3.99902 -0.82031,-1.68945 -1.23047,-3.47656 -1.23047,-5.36133 z m 2.92969,0.0439 c 0,2.5879 0.6958,4.62647 2.0874,6.11573 1.3916,1.48926 3.1372,2.23388 5.23682,2.23388 2.13866,0 3.89891,-0.75195 5.28076,-2.25586 1.38182,-1.5039 2.07274,-3.63768 2.07275,-6.40136 -10e-6,-1.74804 -0.29542,-3.27392 -0.88623,-4.57764 -0.59083,-1.30369 -1.45509,-2.31444 -2.59277,-3.03223 -1.13771,-0.71775 -2.41456,-1.07664 -3.83057,-1.07666 -2.01172,2e-5 -3.74268,0.69094 -5.19287,2.07276 -1.4502,1.38185 -2.17529,3.68898 -2.17529,6.92138 z"
         style="font-size:30px;fill:#000000;font-family:helvetica"
         id="path4554" />
    </g>
    <g
       style="font-size:30px;fill:#000000;font-family:helvetica"
       id="text4523">
      <path
         d="m 201.7502,153.73102 c 0,-3.56444 0.95703,-6.35497 2.87109,-8.37158 1.91406,-2.01658 4.38476,-3.02488 7.41211,-3.02491 1.98241,3e-5 3.76952,0.47366 5.36133,1.4209 1.59178,0.94729 2.80516,2.26809 3.64014,3.9624 0.83494,1.69436 1.25242,3.61574 1.25244,5.76416 -2e-5,2.17775 -0.43948,4.12599 -1.31836,5.84473 -0.87893,1.71875 -2.12404,3.02002 -3.73535,3.90381 -1.61135,0.88379 -3.34963,1.32568 -5.21485,1.32568 -2.02149,0 -3.82813,-0.48828 -5.41992,-1.46484 -1.5918,-0.97656 -2.79785,-2.30957 -3.61816,-3.99902 -0.82032,-1.68945 -1.23047,-3.47656 -1.23047,-5.36133 z m 2.92969,0.0439 c -1e-5,2.5879 0.69579,4.62647 2.0874,6.11573 1.39159,1.48926 3.1372,2.23388 5.23681,2.23388 2.13866,0 3.89891,-0.75195 5.28077,-2.25586 1.38181,-1.5039 2.07273,-3.63768 2.07275,-6.40136 -2e-5,-1.74804 -0.29543,-3.27392 -0.88623,-4.57764 -0.59084,-1.30369 -1.4551,-2.31444 -2.59277,-3.03223 -1.13771,-0.71775 -2.41457,-1.07664 -3.83057,-1.07666 -2.01173,2e-5 -3.74268,0.69094 -5.19287,2.07276 -1.4502,1.38185 -2.1753,3.68898 -2.17529,6.92138 z"
         style="font-size:30px;fill:#000000;font-family:helvetica"
         id="path4557" />
    </g>
    <g
       style="font-size:30px;fill:#000000;font-family:helvetica"
       id="text4525">
      <path
         d="m 355.93671,341.74069 2.84179,0.71778 c -0.59572,2.33398 -1.6675,4.11377 -3.21533,5.33935 -1.54787,1.22559 -3.43995,1.83838 -5.67627,1.83838 -2.31446,0 -4.19678,-0.47119 -5.64697,-1.41357 -1.4502,-0.94239 -2.55372,-2.30713 -3.31055,-4.09424 -0.75684,-1.7871 -1.13525,-3.70605 -1.13525,-5.75684 0,-2.23631 0.42724,-4.187 1.28174,-5.85205 0.85449,-1.66502 2.0703,-2.92967 3.64746,-3.79394 1.57714,-0.86424 3.31298,-1.29637 5.20752,-1.29639 2.14842,2e-5 3.95506,0.54689 5.41992,1.64062 1.46482,1.09377 2.48533,2.63186 3.06152,4.61426 l -2.79785,0.65918 c -0.49806,-1.56248 -1.22072,-2.70018 -2.16797,-3.41308 -0.94728,-0.71288 -2.13868,-1.06932 -3.57422,-1.06934 -1.6504,2e-5 -3.02979,0.39553 -4.13818,1.18652 -1.1084,0.79104 -1.88721,1.85305 -2.33643,3.18604 -0.44922,1.33302 -0.67383,2.70753 -0.67382,4.12353 -10e-6,1.82618 0.2661,3.42042 0.79834,4.78272 0.53222,1.36231 1.35985,2.38037 2.48291,3.0542 1.12303,0.67383 2.33885,1.01074 3.64746,1.01074 1.59178,0 2.93944,-0.45898 4.04297,-1.37695 1.10349,-0.91797 1.85056,-2.28027 2.24121,-4.08692 z"
         style="font-size:30px;fill:#000000;font-family:helvetica"
         id="path4560" />
      <path
         d="m 361.89862,349.26999 0,-21.47461 2.63672,0 0,21.47461 z"
         style="font-size:30px;fill:#000000;font-family:helvetica"
         id="path4562" />
    </g>
  </g>
  <cdml:cdml
     version="0.15">
    <cdml:info>
      <cdml:author_program
         version="0.13.0">BKchem</cdml:author_program>
    </cdml:info>
    <cdml:paper
       crop_margin="5"
       crop_svg="1"
       orientation="portrait"
       replace_minus="0"
       type="Legal"
       use_real_minus="0" />
    <cdml:viewport
       viewport="0.000000 0.000000 640.000000 480.000000" />
    <cdml:standard
       area_color=""
       font_family="helvetica"
       font_size="24"
       line_color="#000"
       line_width="0.06cm"
       paper_crop_margin="5"
       paper_crop_svg="1"
       paper_orientation="portrait"
       paper_type="Legal">
      <cdml:bond
         double-ratio="0.85"
         length="1.4cm"
         wedge-width="0.18cm"
         width="0.21cm" />
      <cdml:arrow
         length="1.6cm" />
      <cdml:atom
         show_hydrogens="0" />
    </cdml:standard>
    <cdml:molecule
       id="molecule21875"
       name="">
      <cdml:atom
         id="atom79398"
         name="C"
         valency="4">
        <cdml:point
           x="5.647cm"
           y="6.960cm" />
      </cdml:atom>
      <cdml:atom
         id="atom88484"
         name="C"
         valency="4">
        <cdml:point
           x="6.860cm"
           y="6.260cm" />
      </cdml:atom>
      <cdml:atom
         id="atom83492"
         name="C"
         valency="4">
        <cdml:point
           x="8.072cm"
           y="6.960cm" />
      </cdml:atom>
      <cdml:atom
         id="atom81931"
         name="C"
         valency="4">
        <cdml:point
           x="8.072cm"
           y="8.358cm" />
      </cdml:atom>
      <cdml:atom
         id="atom99853"
         name="C"
         valency="4">
        <cdml:point
           x="5.647cm"
           y="8.358cm" />
      </cdml:atom>
      <cdml:atom
         id="atom872"
         name="C"
         valency="4">
        <cdml:point
           x="6.860cm"
           y="9.059cm" />
      </cdml:atom>
      <cdml:atom
         id="atom97358"
         name="C"
         valency="4">
        <cdml:point
           x="6.860cm"
           y="4.860cm" />
      </cdml:atom>
      <cdml:atom
         hydrogens="on"
         id="atom78856"
         name="O"
         pos="center-first"
         valency="2">
        <cdml:point
           x="8.072cm"
           y="2.760cm" />
      </cdml:atom>
      <cdml:atom
         id="atom39847"
         name="O"
         pos="center-first"
         valency="2">
        <cdml:point
           x="8.072cm"
           y="4.160cm" />
      </cdml:atom>
      <cdml:atom
         id="atom59852"
         name="O"
         pos="center-first"
         valency="2">
        <cdml:point
           x="5.647cm"
           y="4.160cm" />
      </cdml:atom>
      <cdml:atom
         id="atom35036"
         name="Cl"
         pos="center-first"
         valency="1">
        <cdml:point
           x="9.284cm"
           y="9.058cm" />
      </cdml:atom>
      <cdml:bond
         double_ratio="0.85"
         end="atom39847"
         id="bond38226"
         line_width="2.26715867159"
         start="atom97358"
         type="n1" />
      <cdml:bond
         double_ratio="0.85"
         end="atom35036"
         id="bond25314"
         line_width="2.26715867159"
         start="atom81931"
         type="n1" />
      <cdml:bond
         bond_width="-7.93505535055"
         center="no"
         double_ratio="0.85"
         end="atom83492"
         id="bond2871"
         line_width="2.26715867159"
         start="atom88484"
         type="n2" />
      <cdml:bond
         double_ratio="0.85"
         end="atom88484"
         id="bond76682"
         line_width="2.26715867159"
         start="atom79398"
         type="n1" />
      <cdml:bond
         double_ratio="0.85"
         end="atom81931"
         id="bond33691"
         line_width="2.26715867159"
         start="atom83492"
         type="n1" />
      <cdml:bond
         bond_width="7.93505535055"
         center="yes"
         double_ratio="0.85"
         end="atom59852"
         id="bond98134"
         line_width="2.26715867159"
         start="atom97358"
         type="n2" />
      <cdml:bond
         double_ratio="0.85"
         end="atom872"
         id="bond71997"
         line_width="2.26715867159"
         start="atom99853"
         type="n1" />
      <cdml:bond
         bond_width="-7.93505535055"
         center="no"
         double_ratio="0.85"
         end="atom872"
         id="bond61459"
         line_width="2.26715867159"
         start="atom81931"
         type="n2" />
      <cdml:bond
         double_ratio="0.85"
         end="atom78856"
         id="bond9575"
         line_width="2.26715867159"
         start="atom39847"
         type="n1" />
      <cdml:bond
         bond_width="7.93505535055"
         center="no"
         double_ratio="0.85"
         end="atom99853"
         id="bond49801"
         line_width="2.26715867159"
         start="atom79398"
         type="n2" />
      <cdml:bond
         double_ratio="0.85"
         end="atom97358"
         id="bond76914"
         line_width="2.26715867159"
         start="atom88484"
         type="n1" />
    </cdml:molecule>
  </cdml:cdml>
</svg>
