<?xml version="1.0" encoding="UTF-8" standalone="no"?>
<svg
   xmlns:cdml="http://www.freesoftware.fsf.org/bkchem/cdml"
   xmlns:dc="http://purl.org/dc/elements/1.1/"
   xmlns:cc="http://creativecommons.org/ns#"
   xmlns:rdf="http://www.w3.org/1999/02/22-rdf-syntax-ns#"
   xmlns:svg="http://www.w3.org/2000/svg"
   xmlns="http://www.w3.org/2000/svg"
   xmlns:sodipodi="http://sodipodi.sourceforge.net/DTD/sodipodi-0.dtd"
   xmlns:inkscape="http://www.inkscape.org/namespaces/inkscape"
   height="36.81328mm"
   version="1.0"
   viewBox="0 0 164 139"
   width="43.43438mm"
   id="svg3216"
   inkscape:version="0.48.0 r9654"
   sodipodi:docname="mesyl.svg">
  <metadata
     id="metadata3256">
    <rdf:RDF>
      <cc:Work
         rdf:about="">
        <dc:format>image/svg+xml</dc:format>
        <dc:type
           rdf:resource="http://purl.org/dc/dcmitype/StillImage" />
        <dc:title></dc:title>
      </cc:Work>
    </rdf:RDF>
  </metadata>
  <defs
     id="defs3254" />
  <sodipodi:namedview
     pagecolor="#ffffff"
     bordercolor="#666666"
     borderopacity="1"
     objecttolerance="10"
     gridtolerance="10"
     guidetolerance="10"
     inkscape:pageopacity="0"
     inkscape:pageshadow="2"
     inkscape:window-width="640"
     inkscape:window-height="480"
     id="namedview3252"
     showgrid="false"
     inkscape:zoom="2.0162411"
     inkscape:cx="76.950676"
     inkscape:cy="65.220375"
     inkscape:window-x="0"
     inkscape:window-y="0"
     inkscape:window-maximized="0"
     inkscape:current-layer="svg3216" />
  <g
     font-family="Helvetica"
     font-size="12pt"
     stroke-linecap="round"
     transform="translate(-628,-63)"
     id="g3218">
    <g
       stroke="#000000"
       stroke-linecap="butt"
       stroke-width="2.26548672566"
       id="g3220">
      <path
         style=""
         d="m 680,139.48 -20,11.55"
         id="line3222" />
    </g>
    <g
       stroke="#000000"
       stroke-linecap="butt"
       stroke-width="2.26548672566"
       id="g3224">
      <path
         style=""
         d="m 702.08002,143.5 8.07995,14"
         id="line3226" />
      <path
         style=""
         d="m 696.88,146.5 8.08002,14"
         id="line3228" />
    </g>
    <g
       stroke="#000000"
       stroke-linecap="butt"
       stroke-width="2.26548672566"
       id="g3230">
      <path
         style=""
         d="m 678.40002,114.5 -7.5,-13"
         id="line3232" />
      <path
         style=""
         d="m 683.59998,111.5 -7.5,-13"
         id="line3234" />
    </g>
    <g
       stroke="#000000"
       stroke-linecap="butt"
       stroke-width="2.26548672566"
       id="g3236">
      <path
         style=""
         d="m 725,113.51 -20,11.54"
         id="line3238" />
    </g>
    <g
       style="font-size:30px;fill:#000000;font-family:helvetica"
       id="text3240">
      <path
         d="m 743.93671,105.4707 2.84179,0.71778 c -0.59572,2.33399 -1.6675,4.11377 -3.21533,5.33935 -1.54787,1.22559 -3.43995,1.83838 -5.67627,1.83838 -2.31446,0 -4.19678,-0.47119 -5.64697,-1.41357 -1.4502,-0.94238 -2.55372,-2.30713 -3.31055,-4.09424 -0.75684,-1.7871 -1.13525,-3.70605 -1.13525,-5.75684 0,-2.236312 0.42724,-4.186994 1.28174,-5.852048 0.85449,-1.665021 2.0703,-2.929668 3.64746,-3.793946 1.57714,-0.864236 3.31298,-1.296364 5.20752,-1.296386 2.14842,2.2e-5 3.95506,0.546896 5.41992,1.640625 1.46482,1.093769 2.48533,2.631853 3.06152,4.614257 l -2.79785,0.65918 c -0.49806,-1.562483 -1.22072,-2.700177 -2.16797,-3.413086 -0.94728,-0.712871 -2.13868,-1.069316 -3.57422,-1.069336 -1.6504,2e-5 -3.02979,0.395527 -4.13818,1.186524 -1.1084,0.791033 -1.88721,1.853043 -2.33643,3.186035 -0.44922,1.333021 -0.67383,2.707531 -0.67382,4.123531 -1e-5,1.82619 0.2661,3.42042 0.79834,4.78272 0.53222,1.36231 1.35985,2.38037 2.48291,3.0542 1.12303,0.67383 2.33885,1.01074 3.64746,1.01074 1.59178,0 2.93944,-0.45898 4.04297,-1.37695 1.10349,-0.91797 1.85056,-2.28027 2.24121,-4.08692 z"
         style="font-size:30px;fill:#000000;font-family:helvetica"
         id="path3265" />
      <path
         d="m 750.38202,113 0,-21.474609 2.8418,0 0,8.818359 11.16211,0 0,-8.818359 2.84179,0 0,21.474609 -2.84179,0 0,-10.12207 -11.16211,0 0,10.12207 z"
         style="font-size:30px;fill:#000000;font-family:helvetica"
         id="path3267" />
      <path
         d="m 770.60419,114.74829 1.97754,-0.26367 c 0.22704,1.12061 0.6134,1.9281 1.15905,2.42248 0.54565,0.49439 1.21033,0.74158 1.99402,0.74158 0.93017,0 1.71569,-0.32226 2.35657,-0.9668 0.64086,-0.64452 0.96129,-1.44286 0.9613,-2.39501 -1e-5,-0.9082 -0.29664,-1.6571 -0.88989,-2.24671 -0.59327,-0.58959 -1.34766,-0.88439 -2.26318,-0.8844 -0.37354,1e-5 -0.83863,0.0733 -1.39527,0.21973 l 0.21973,-1.73584 c 0.13183,0.0147 0.23803,0.022 0.3186,0.022 0.84228,1e-5 1.60034,-0.21972 2.27417,-0.65918 0.67382,-0.43944 1.01074,-1.11693 1.01075,-2.03247 -10e-6,-0.72508 -0.24537,-1.32567 -0.73609,-1.80176 -0.49073,-0.47606 -1.12427,-0.71409 -1.90063,-0.71411 -0.76905,2e-5 -1.40992,0.24172 -1.92261,0.7251 -0.5127,0.48341 -0.84229,1.20851 -0.98877,2.17529 l -1.97754,-0.35156 c 0.2417,-1.32567 0.79101,-2.35289 1.64795,-3.08167 0.85693,-0.72874 1.9226,-1.09312 3.19702,-1.09313 0.8789,1e-5 1.68823,0.18861 2.42798,0.56579 0.73974,0.37721 1.30553,0.89174 1.69739,1.54358 0.39183,0.65187 0.58776,1.34401 0.58777,2.07642 -10e-6,0.69581 -0.18678,1.32935 -0.56031,1.90063 -0.37354,0.5713 -0.92652,1.0254 -1.65893,1.36231 0.95214,0.21973 1.69188,0.67566 2.21924,1.36779 0.52733,0.69215 0.791,1.55824 0.79101,2.59827 -10e-6,1.40625 -0.5127,2.59827 -1.53808,3.57605 -1.0254,0.97778 -2.32179,1.46667 -3.88916,1.46667 -1.41358,0 -2.58729,-0.42114 -3.52112,-1.26342 -0.93384,-0.84229 -1.46668,-1.93359 -1.59851,-3.27393 z"
         style="font-size:75%;baseline-shift:sub"
         id="path3269" />
    </g>
    <g
       style="font-size:30px;fill:#000000;font-family:helvetica"
       id="text3244">
      <path
         d="m 682.64764,132.53058 2.68067,-0.23438 c 0.12695,1.07423 0.42236,1.95558 0.88623,2.64405 0.46386,0.68848 1.18407,1.24512 2.16064,1.66992 0.97656,0.42481 2.07519,0.63721 3.2959,0.63721 1.08397,0 2.041,-0.16113 2.8711,-0.4834 0.83006,-0.32227 1.44773,-0.76416 1.85302,-1.32569 0.40526,-0.56152 0.6079,-1.17431 0.60791,-1.83838 -10e-6,-0.67382 -0.19533,-1.2622 -0.58593,-1.76513 -0.39064,-0.50292 -1.03518,-0.92529 -1.9336,-1.26709 -0.57618,-0.2246 -1.8506,-0.57372 -3.82324,-1.04737 -1.97266,-0.47362 -3.3545,-0.92039 -4.14551,-1.34033 -1.02539,-0.53709 -1.78955,-1.2036 -2.29248,-1.99951 -0.50293,-0.79588 -0.7544,-1.687 -0.75439,-2.67334 -10e-6,-1.08397 0.30761,-2.09715 0.92285,-3.03955 0.61523,-0.94236 1.51367,-1.65769 2.69531,-2.146 1.18163,-0.48826 2.49511,-0.7324 3.94043,-0.73242 1.59179,2e-5 2.99559,0.25637 4.21143,0.76905 1.2158,0.51271 2.15086,1.2671 2.80517,2.26318 0.65428,0.99611 1.00584,2.12404 1.05469,3.38379 l -2.72461,0.20508 c -0.1465,-1.35741 -0.6421,-2.3828 -1.48682,-3.07618 -0.84474,-0.69334 -2.09229,-1.04002 -3.74267,-1.04003 -1.71876,1e-5 -2.9712,0.31496 -3.75733,0.94482 -0.78613,0.6299 -1.1792,1.38918 -1.1792,2.27783 0,0.7715 0.27832,1.40627 0.83497,1.9043 0.54686,0.49806 1.97509,1.00831 4.28466,1.53076 2.30956,0.52247 3.89403,0.97902 4.75342,1.36963 1.24999,0.57618 2.17284,1.30616 2.76856,2.18994 0.59568,0.8838 0.89353,1.90186 0.89355,3.0542 -2e-5,1.14258 -0.32717,2.21924 -0.98144,3.22998 -0.65432,1.01074 -1.59426,1.79688 -2.81983,2.3584 -1.2256,0.56152 -2.60499,0.84228 -4.13818,0.84228 -1.94337,0 -3.57179,-0.2832 -4.88526,-0.84961 -1.31348,-0.5664 -2.34375,-1.41845 -3.09082,-2.55615 -0.74707,-1.13769 -1.14013,-2.42431 -1.1792,-3.85986 z"
         style="font-size:30px;fill:#000000;font-family:helvetica"
         id="path3272" />
    </g>
    <g
       style="font-size:30px;fill:#000000;font-family:helvetica"
       id="text3246">
      <path
         d="m 653.75018,83.191017 c 0,-3.564439 0.95703,-6.354964 2.8711,-8.371582 1.91405,-2.016581 4.38475,-3.02488 7.41211,-3.024902 1.9824,2.2e-5 3.76951,0.473654 5.36132,1.420898 1.59178,0.947285 2.80516,2.268085 3.64014,3.962403 0.83494,1.69435 1.25242,3.615735 1.25244,5.76416 -2e-5,2.177743 -0.43947,4.125983 -1.31836,5.844726 -0.87892,1.718753 -2.12404,3.020022 -3.73535,3.903809 -1.61134,0.883789 -3.34962,1.325683 -5.21484,1.325683 -2.0215,0 -3.82814,-0.488281 -5.41992,-1.464843 -1.59181,-0.976561 -2.79786,-2.309567 -3.61817,-3.999024 -0.82031,-1.689446 -1.23047,-3.476554 -1.23047,-5.361328 z m 2.92969,0.04394 c 0,2.587899 0.6958,4.626471 2.0874,6.115723 1.3916,1.489261 3.1372,2.233889 5.23682,2.233887 2.13866,2e-6 3.89891,-0.75195 5.28076,-2.25586 1.38182,-1.5039 2.07274,-3.637687 2.07275,-6.401367 -1e-5,-1.748034 -0.29542,-3.273912 -0.88623,-4.577636 -0.59083,-1.303695 -1.45509,-2.314436 -2.59277,-3.032227 -1.13771,-0.717754 -2.41456,-1.076641 -3.83057,-1.07666 -2.01172,1.9e-5 -3.74268,0.690937 -5.19287,2.072754 -1.4502,1.381852 -2.17529,3.688978 -2.17529,6.921386 z"
         style="font-size:30px;fill:#000000;font-family:helvetica"
         id="path3275" />
    </g>
    <g
       style="font-size:30px;fill:#000000;font-family:helvetica"
       id="text3248">
      <path
         d="m 706.75018,174.75102 c 0,-3.56444 0.95703,-6.35496 2.8711,-8.37158 1.91405,-2.01658 4.38475,-3.02488 7.41211,-3.0249 1.9824,2e-5 3.76951,0.47365 5.36132,1.4209 1.59178,0.94728 2.80516,2.26808 3.64014,3.9624 0.83494,1.69435 1.25242,3.61573 1.25244,5.76416 -2e-5,2.17774 -0.43947,4.12598 -1.31836,5.84473 -0.87892,1.71875 -2.12404,3.02002 -3.73535,3.9038 -1.61134,0.88379 -3.34962,1.32569 -5.21484,1.32569 -2.0215,0 -3.82814,-0.48828 -5.41992,-1.46485 -1.59181,-0.97656 -2.79786,-2.30956 -3.61817,-3.99902 -0.82031,-1.68945 -1.23047,-3.47655 -1.23047,-5.36133 z m 2.92969,0.0439 c 0,2.5879 0.6958,4.62647 2.0874,6.11572 1.3916,1.48926 3.1372,2.23389 5.23682,2.23389 2.13866,0 3.89891,-0.75195 5.28076,-2.25586 1.38182,-1.5039 2.07274,-3.63769 2.07275,-6.40137 -1e-5,-1.74803 -0.29542,-3.27391 -0.88623,-4.57764 -0.59083,-1.30369 -1.45509,-2.31443 -2.59277,-3.03222 -1.13771,-0.71776 -2.41456,-1.07664 -3.83057,-1.07666 -2.01172,2e-5 -3.74268,0.69093 -5.19287,2.07275 -1.4502,1.38185 -2.17529,3.68898 -2.17529,6.92139 z"
         style="font-size:30px;fill:#000000;font-family:helvetica"
         id="path3278" />
    </g>
    <g
       style="font-size:30px;fill:#000000;font-family:helvetica"
       id="text3250">
      <path
         d="m 636.65839,165.86 0,-21.47461 9.52148,0 c 1.91405,2e-5 3.36913,0.19289 4.36523,0.57861 0.99608,0.38577 1.79198,1.06692 2.3877,2.04346 0.59568,0.97658 0.89354,2.05568 0.89355,3.23731 -1e-5,1.52345 -0.49318,2.80763 -1.47949,3.85254 -0.98634,1.04493 -2.50978,1.70899 -4.57031,1.99218 0.75194,0.36134 1.32323,0.71779 1.71387,1.06934 0.83006,0.76173 1.61619,1.71387 2.3584,2.85644 l 3.73535,5.84473 -3.57422,0 -2.8418,-4.46777 c -0.83009,-1.28906 -1.51368,-2.27539 -2.05078,-2.95899 -0.53712,-0.68358 -1.01808,-1.1621 -1.44287,-1.43554 -0.42482,-0.27343 -0.85694,-0.46386 -1.29639,-0.57129 -0.32227,-0.0684 -0.84962,-0.10253 -1.58203,-0.10254 l -3.2959,0 0,9.53613 z m 2.84179,-11.99707 6.1084,0 c 1.29882,1e-5 2.31444,-0.13426 3.04688,-0.40283 0.7324,-0.26854 1.28904,-0.69823 1.66992,-1.28906 0.38084,-0.59081 0.57127,-1.2329 0.57129,-1.92627 -2e-5,-1.01561 -0.36867,-1.85057 -1.10596,-2.50489 -0.73732,-0.65427 -1.90187,-0.98142 -3.49365,-0.98144 l -6.79688,0 z"
         style="font-size:30px;fill:#000000;font-family:helvetica"
         id="path3281" />
    </g>
  </g>
  <cdml:cdml
     version="0.15">
    <cdml:info>
      <cdml:author_program
         version="0.13.0">BKchem</cdml:author_program>
    </cdml:info>
    <cdml:paper
       crop_margin="5"
       crop_svg="1"
       orientation="portrait"
       replace_minus="0"
       type="Legal"
       use_real_minus="0" />
    <cdml:viewport
       viewport="0.000000 0.000000 640.000000 480.000000" />
    <cdml:standard
       area_color=""
       font_family="helvetica"
       font_size="24"
       line_color="#000"
       line_width="0.06cm"
       paper_crop_margin="5"
       paper_crop_svg="1"
       paper_orientation="portrait"
       paper_type="Legal">
      <cdml:bond
         double-ratio="0.85"
         length="1.4cm"
         wedge-width="0.18cm"
         width="0.21cm" />
      <cdml:arrow
         length="1.6cm" />
      <cdml:atom
         show_hydrogens="0" />
    </cdml:standard>
    <cdml:molecule
       id="molecule62944"
       name="">
      <cdml:atom
         hydrogens="on"
         id="atom16955"
         name="C"
         pos="center-first"
         show="yes"
         valency="4">
        <cdml:point
           x="19.545cm"
           y="2.807cm" />
      </cdml:atom>
      <cdml:atom
         id="atom27024"
         name="S"
         pos="center-last"
         valency="6">
        <cdml:point
           x="18.333cm"
           y="3.507cm" />
      </cdml:atom>
      <cdml:atom
         id="atom39073"
         name="O"
         pos="center-first"
         valency="2">
        <cdml:point
           x="17.633cm"
           y="2.295cm" />
      </cdml:atom>
      <cdml:atom
         id="atom90634"
         name="O"
         pos="center-first"
         valency="2">
        <cdml:point
           x="19.033cm"
           y="4.720cm" />
      </cdml:atom>
      <cdml:query
         id="atom53862"
         name="R"
         pos="center-last">
        <cdml:point
           x="17.121cm"
           y="4.207cm" />
      </cdml:query>
      <cdml:bond
         double_ratio="0.85"
         end="atom53862"
         id="bond70882"
         line_width="2.26548672566"
         start="atom27024"
         type="n1" />
      <cdml:bond
         bond_width="7.92920353982"
         center="yes"
         double_ratio="0.85"
         end="atom90634"
         id="bond29189"
         line_width="2.26548672566"
         start="atom27024"
         type="n2" />
      <cdml:bond
         bond_width="7.92920353982"
         center="yes"
         double_ratio="0.85"
         end="atom39073"
         id="bond3635"
         line_width="2.26548672566"
         start="atom27024"
         type="n2" />
      <cdml:bond
         double_ratio="0.85"
         end="atom27024"
         id="bond84632"
         line_width="2.26548672566"
         start="atom16955"
         type="n1" />
    </cdml:molecule>
  </cdml:cdml>
</svg>
