<?xml version="1.0" encoding="UTF-8" standalone="no"?>
<svg
   xmlns:cdml="http://www.freesoftware.fsf.org/bkchem/cdml"
   xmlns:dc="http://purl.org/dc/elements/1.1/"
   xmlns:cc="http://creativecommons.org/ns#"
   xmlns:rdf="http://www.w3.org/1999/02/22-rdf-syntax-ns#"
   xmlns:svg="http://www.w3.org/2000/svg"
   xmlns="http://www.w3.org/2000/svg"
   xmlns:sodipodi="http://sodipodi.sourceforge.net/DTD/sodipodi-0.dtd"
   xmlns:inkscape="http://www.inkscape.org/namespaces/inkscape"
   height="101.88965mm"
   version="1.0"
   viewBox="0 0 381 385"
   width="100.83105mm"
   id="svg3153"
   inkscape:version="0.48.0 r9654"
   sodipodi:docname="MoOPH.svg">
  <metadata
     id="metadata3319">
    <rdf:RDF>
      <cc:Work
         rdf:about="">
        <dc:format>image/svg+xml</dc:format>
        <dc:type
           rdf:resource="http://purl.org/dc/dcmitype/StillImage" />
        <dc:title></dc:title>
      </cc:Work>
    </rdf:RDF>
  </metadata>
  <defs
     id="defs3317" />
  <sodipodi:namedview
     pagecolor="#ffffff"
     bordercolor="#666666"
     borderopacity="1"
     objecttolerance="10"
     gridtolerance="10"
     guidetolerance="10"
     inkscape:pageopacity="0"
     inkscape:pageshadow="2"
     inkscape:window-width="640"
     inkscape:window-height="480"
     id="namedview3315"
     showgrid="false"
     inkscape:zoom="0.72847877"
     inkscape:cx="178.63768"
     inkscape:cy="180.51315"
     inkscape:window-x="0"
     inkscape:window-y="0"
     inkscape:window-maximized="0"
     inkscape:current-layer="svg3153" />
  <g
     font-family="Helvetica"
     font-size="12pt"
     stroke-linecap="round"
     transform="translate(-229,-18)"
     id="g3155">
    <g
       stroke="#000000"
       stroke-linecap="butt"
       stroke-width="2.26715867159"
       id="g3157">
      <path
         style=""
         d="m 290.03,202 -8.07999,-14"
         id="line3159" />
    </g>
    <g
       stroke="#000000"
       stroke-linecap="butt"
       stroke-width="2.26715867159"
       id="g3161">
      <path
         style=""
         d="M 320.04999,188 311.97,202"
         id="line3163" />
    </g>
    <g
       stroke="#000000"
       stroke-linecap="butt"
       stroke-width="2.26715867159"
       id="g3165">
      <path
         style=""
         d="m 289,175.19 24,0"
         id="line3167" />
    </g>
    <g
       stroke="#000000"
       stroke-linecap="butt"
       stroke-width="2.26715867159"
       id="g3169">
      <path
         style=""
         d="m 286,224 -23,0"
         id="line3171" />
      <path
         style=""
         d="m 286,218 -23,0"
         id="line3173" />
    </g>
    <g
       stroke="#000000"
       stroke-linecap="butt"
       stroke-width="2.26715867159"
       id="g3175">
      <path
         style=""
         d="M 308.51001,234 316.59,248"
         id="line3177" />
    </g>
    <g
       stroke="#000000"
       stroke-linecap="butt"
       stroke-width="2.26715867159"
       id="g3179">
      <path
         style=""
         d="M 293.48999,234 285.41,248"
         id="line3181" />
    </g>
    <g
       stroke="#000000"
       stroke-linecap="butt"
       stroke-width="2.26715867159"
       id="g3183">
      <path
         style=""
         d="m 289,266.81 24,0"
         id="line3185" />
    </g>
    <g
       style="font-size:30px;fill:#000000;font-family:helvetica"
       id="text3187">
      <path
         d="m 289.52655,228 0,-21.47461 4.27734,0 5.08301,15.20508 c 0.46874,1.41602 0.81054,2.47559 1.02539,3.17871 0.24413,-0.78125 0.62499,-1.92871 1.14258,-3.44238 l 5.1416,-14.94141 3.82324,0 0,21.47461 -2.73925,0 0,-17.97363 -6.24024,17.97363 -2.56347,0 -6.21094,-18.28125 0,18.28125 z"
         style="font-size:30px;fill:#000000;font-family:helvetica"
         id="path3330" />
      <path
         d="m 313.31561,220.22168 c 0,-2.88085 0.80078,-5.01464 2.40235,-6.40137 1.33788,-1.15233 2.96874,-1.7285 4.89257,-1.72851 2.13867,1e-5 3.88671,0.7007 5.24415,2.10205 1.3574,1.40138 2.03611,3.33741 2.03613,5.8081 -2e-5,2.00196 -0.30031,3.57667 -0.90088,4.72412 -0.6006,1.14747 -1.47462,2.03858 -2.62207,2.67334 -1.14747,0.63477 -2.39991,0.95215 -3.75733,0.95215 -2.17774,0 -3.93799,-0.69824 -5.28076,-2.09472 -1.34277,-1.39649 -2.01416,-3.4082 -2.01416,-6.03516 z m 2.70996,0 c 0,1.99219 0.43457,3.48389 1.30371,4.4751 0.86914,0.99121 1.96289,1.48682 3.28125,1.48681 1.30859,1e-5 2.39745,-0.49804 3.26661,-1.49414 0.86912,-0.99609 1.30369,-2.51464 1.30371,-4.55566 -2e-5,-1.92382 -0.43703,-3.38134 -1.31104,-4.37256 -0.87403,-0.9912 -1.96046,-1.4868 -3.25928,-1.48682 -1.31836,2e-5 -2.41211,0.49318 -3.28125,1.4795 -0.86914,0.98634 -1.30371,2.47559 -1.30371,4.46777 z"
         style="font-size:30px;fill:#000000;font-family:helvetica"
         id="path3332" />
    </g>
    <g
       style="font-size:30px;fill:#000000;font-family:helvetica"
       id="text3189">
      <path
         d="m 315.75018,171.73102 c 0,-3.56444 0.95703,-6.35497 2.8711,-8.37158 1.91405,-2.01658 4.38475,-3.02488 7.41211,-3.02491 1.9824,3e-5 3.76951,0.47366 5.36132,1.4209 1.59178,0.94729 2.80516,2.26809 3.64014,3.9624 0.83494,1.69436 1.25242,3.61574 1.25244,5.76416 -2e-5,2.17775 -0.43947,4.12599 -1.31836,5.84473 -0.87892,1.71875 -2.12404,3.02002 -3.73535,3.90381 -1.61134,0.88379 -3.34962,1.32568 -5.21484,1.32568 -2.0215,0 -3.82814,-0.48828 -5.41992,-1.46484 -1.59181,-0.97656 -2.79786,-2.30957 -3.61817,-3.99902 -0.82031,-1.68945 -1.23047,-3.47656 -1.23047,-5.36133 z m 2.92969,0.0439 c 0,2.5879 0.6958,4.62647 2.0874,6.11573 1.3916,1.48926 3.1372,2.23388 5.23682,2.23388 2.13866,0 3.89891,-0.75195 5.28076,-2.25586 1.38182,-1.5039 2.07274,-3.63768 2.07275,-6.40136 -10e-6,-1.74804 -0.29542,-3.27392 -0.88623,-4.57764 -0.59083,-1.30369 -1.45509,-2.31444 -2.59277,-3.03223 -1.13771,-0.71775 -2.41456,-1.07664 -3.83057,-1.07666 -2.01172,2e-5 -3.74268,0.69094 -5.19287,2.07276 -1.4502,1.38185 -2.17529,3.68898 -2.17529,6.92138 z"
         style="font-size:30px;fill:#000000;font-family:helvetica"
         id="path3335" />
    </g>
    <g
       style="font-size:30px;fill:#000000;font-family:helvetica"
       id="text3191">
      <path
         d="m 262.75018,171.73102 c 0,-3.56444 0.95703,-6.35497 2.8711,-8.37158 1.91405,-2.01658 4.38475,-3.02488 7.41211,-3.02491 1.9824,3e-5 3.76951,0.47366 5.36132,1.4209 1.59178,0.94729 2.80516,2.26809 3.64014,3.9624 0.83494,1.69436 1.25242,3.61574 1.25244,5.76416 -2e-5,2.17775 -0.43947,4.12599 -1.31836,5.84473 -0.87892,1.71875 -2.12404,3.02002 -3.73535,3.90381 -1.61134,0.88379 -3.34962,1.32568 -5.21484,1.32568 -2.0215,0 -3.82814,-0.48828 -5.41992,-1.46484 -1.59181,-0.97656 -2.79786,-2.30957 -3.61817,-3.99902 -0.82031,-1.68945 -1.23047,-3.47656 -1.23047,-5.36133 z m 2.92969,0.0439 c 0,2.5879 0.6958,4.62647 2.0874,6.11573 1.3916,1.48926 3.1372,2.23388 5.23682,2.23388 2.13866,0 3.89891,-0.75195 5.28076,-2.25586 1.38182,-1.5039 2.07274,-3.63768 2.07275,-6.40136 -10e-6,-1.74804 -0.29542,-3.27392 -0.88623,-4.57764 -0.59083,-1.30369 -1.45509,-2.31444 -2.59277,-3.03223 -1.13771,-0.71775 -2.41456,-1.07664 -3.83057,-1.07666 -2.01172,2e-5 -3.74268,0.69094 -5.19287,2.07276 -1.4502,1.38185 -2.17529,3.68898 -2.17529,6.92138 z"
         style="font-size:30px;fill:#000000;font-family:helvetica"
         id="path3338" />
    </g>
    <g
       style="font-size:30px;fill:#000000;font-family:helvetica"
       id="text3193">
      <path
         d="m 315.75018,263.35101 c 0,-3.56444 0.95703,-6.35496 2.8711,-8.37158 1.91405,-2.01658 4.38475,-3.02488 7.41211,-3.0249 1.9824,2e-5 3.76951,0.47365 5.36132,1.4209 1.59178,0.94728 2.80516,2.26808 3.64014,3.9624 0.83494,1.69435 1.25242,3.61574 1.25244,5.76416 -2e-5,2.17774 -0.43947,4.12598 -1.31836,5.84473 -0.87892,1.71875 -2.12404,3.02002 -3.73535,3.9038 -1.61134,0.88379 -3.34962,1.32569 -5.21484,1.32569 -2.0215,0 -3.82814,-0.48828 -5.41992,-1.46485 -1.59181,-0.97656 -2.79786,-2.30956 -3.61817,-3.99902 -0.82031,-1.68945 -1.23047,-3.47655 -1.23047,-5.36133 z m 2.92969,0.044 c 0,2.5879 0.6958,4.62647 2.0874,6.11572 1.3916,1.48926 3.1372,2.23389 5.23682,2.23389 2.13866,0 3.89891,-0.75195 5.28076,-2.25586 1.38182,-1.5039 2.07274,-3.63769 2.07275,-6.40137 -10e-6,-1.74803 -0.29542,-3.27391 -0.88623,-4.57764 -0.59083,-1.30369 -1.45509,-2.31443 -2.59277,-3.03222 -1.13771,-0.71776 -2.41456,-1.07664 -3.83057,-1.07666 -2.01172,2e-5 -3.74268,0.69093 -5.19287,2.07275 -1.4502,1.38185 -2.17529,3.68898 -2.17529,6.92139 z"
         style="font-size:30px;fill:#000000;font-family:helvetica"
         id="path3341" />
    </g>
    <g
       style="font-size:30px;fill:#000000;font-family:helvetica"
       id="text3195">
      <path
         d="m 262.75018,263.35101 c 0,-3.56444 0.95703,-6.35496 2.8711,-8.37158 1.91405,-2.01658 4.38475,-3.02488 7.41211,-3.0249 1.9824,2e-5 3.76951,0.47365 5.36132,1.4209 1.59178,0.94728 2.80516,2.26808 3.64014,3.9624 0.83494,1.69435 1.25242,3.61574 1.25244,5.76416 -2e-5,2.17774 -0.43947,4.12598 -1.31836,5.84473 -0.87892,1.71875 -2.12404,3.02002 -3.73535,3.9038 -1.61134,0.88379 -3.34962,1.32569 -5.21484,1.32569 -2.0215,0 -3.82814,-0.48828 -5.41992,-1.46485 -1.59181,-0.97656 -2.79786,-2.30956 -3.61817,-3.99902 -0.82031,-1.68945 -1.23047,-3.47655 -1.23047,-5.36133 z m 2.92969,0.044 c 0,2.5879 0.6958,4.62647 2.0874,6.11572 1.3916,1.48926 3.1372,2.23389 5.23682,2.23389 2.13866,0 3.89891,-0.75195 5.28076,-2.25586 1.38182,-1.5039 2.07274,-3.63769 2.07275,-6.40137 -10e-6,-1.74803 -0.29542,-3.27391 -0.88623,-4.57764 -0.59083,-1.30369 -1.45509,-2.31443 -2.59277,-3.03222 -1.13771,-0.71776 -2.41456,-1.07664 -3.83057,-1.07666 -2.01172,2e-5 -3.74268,0.69093 -5.19287,2.07275 -1.4502,1.38185 -2.17529,3.68898 -2.17529,6.92139 z"
         style="font-size:30px;fill:#000000;font-family:helvetica"
         id="path3344" />
    </g>
    <g
       style="font-size:30px;fill:#000000;font-family:helvetica"
       id="text3197">
      <path
         d="m 236.7502,217.54102 c 0,-3.56444 0.95703,-6.35497 2.87109,-8.37159 1.91406,-2.01658 4.38476,-3.02488 7.41211,-3.0249 1.98241,2e-5 3.76952,0.47366 5.36133,1.4209 1.59178,0.94728 2.80516,2.26808 3.64014,3.9624 0.83494,1.69435 1.25242,3.61574 1.25244,5.76416 -2e-5,2.17775 -0.43948,4.12599 -1.31836,5.84473 -0.87893,1.71875 -2.12404,3.02002 -3.73535,3.90381 -1.61135,0.88379 -3.34963,1.32568 -5.21485,1.32568 -2.02149,0 -3.82813,-0.48828 -5.41992,-1.46484 -1.5918,-0.97656 -2.79785,-2.30957 -3.61816,-3.99903 -0.82032,-1.68944 -1.23047,-3.47655 -1.23047,-5.36132 z m 2.92969,0.0439 c -1e-5,2.5879 0.69579,4.62647 2.0874,6.11572 1.39159,1.48926 3.1372,2.23389 5.23681,2.23389 2.13866,0 3.89891,-0.75195 5.28077,-2.25586 1.38181,-1.5039 2.07273,-3.63769 2.07275,-6.40137 -2e-5,-1.74803 -0.29543,-3.27391 -0.88623,-4.57763 -0.59084,-1.3037 -1.4551,-2.31444 -2.59277,-3.03223 -1.13771,-0.71775 -2.41457,-1.07664 -3.83057,-1.07666 -2.01173,2e-5 -3.74268,0.69094 -5.19287,2.07275 -1.4502,1.38186 -2.1753,3.68898 -2.17529,6.92139 z"
         style="font-size:30px;fill:#000000;font-family:helvetica"
         id="path3347" />
    </g>
    <path
       style="fill:none;stroke:#000000;stroke-width:2.26715875"
       d="m 383,181 -45.43,26.23"
       id="polyline3199" />
    <path
       style="fill:#000000;fill-rule:evenodd;stroke:#000000;stroke-width:1"
       d="m 330.64,211.23 10.16,-2.4 -3.23,-1.6 0.23,-3.6 z"
       id="polygon3201" />
    <path
       style="fill:none;stroke:#000000;stroke-width:2.26715875"
       d="M 366,280 339.77,234.57"
       id="polyline3203" />
    <path
       style="fill:#000000;fill-rule:evenodd;stroke:#000000;stroke-width:1"
       d="m 335.77,227.64 2.4,10.16 1.6,-3.23 3.6,0.23 z"
       id="polygon3205" />
    <g
       stroke="#000000"
       stroke-width="2.26715867159"
       id="g3207">
      <path
         style=""
         d="m 391,303 38.89999,0"
         id="line3209" />
    </g>
    <g
       stroke="#000000"
       stroke-width="2.26715867159"
       id="g3211">
      <path
         style=""
         d="m 429.89999,303 26.45002,45.81"
         id="line3213" />
      <path
         style=""
         d="M 425.01001,310.39999 447.48999,349.34"
         id="line3215" />
    </g>
    <g
       stroke="#000000"
       stroke-width="2.26715867159"
       id="g3217">
      <path
         style=""
         d="M 350.54999,348.81 377,394.62"
         id="line3219" />
    </g>
    <g
       stroke="#000000"
       stroke-width="2.26715867159"
       id="g3221">
      <path
         style=""
         d="m 429.89999,394.62 26.45002,-45.81"
         id="line3223" />
    </g>
    <g
       stroke="#000000"
       stroke-width="2.26715867159"
       id="g3225">
      <path
         style=""
         d="m 377,394.62 52.89999,0"
         id="line3227" />
      <path
         style=""
         d="m 380.97,386.67999 44.95999,0"
         id="line3229" />
    </g>
    <g
       stroke="#000000"
       stroke-width="2.26715867159"
       id="g3231">
      <path
         style=""
         d="m 369.48999,316 -18.94,32.81"
         id="line3233" />
      <path
         style=""
         d="M 374.95001,322.42999 358.84,350.32001"
         id="line3235" />
    </g>
    <g
       style="font-size:30px;fill:#000000;font-family:helvetica"
       id="text3237">
      <path
         d="m 367.58514,310 0,-21.47461 2.91504,0 11.2793,16.86035 0,-16.86035 2.72461,0 0,21.47461 -2.91504,0 -11.2793,-16.875 0,16.875 z"
         style="font-size:30px;fill:#000000;font-family:helvetica"
         id="path3363" />
    </g>
    <g
       stroke="#000000"
       stroke-linecap="butt"
       stroke-width="2.26715867159"
       id="g3239">
      <path
         style=""
         d="M 469.57999,69 477.66,55"
         id="line3241" />
    </g>
    <g
       stroke="#000000"
       stroke-linecap="butt"
       stroke-width="2.26715867159"
       id="g3243">
      <path
         style=""
         d="m 471,147.59 20,11.55"
         id="line3245" />
    </g>
    <g
       stroke="#000000"
       stroke-linecap="butt"
       stroke-width="2.26715867159"
       id="g3247">
      <path
         style=""
         d="M 448.04001,69 439.95999,55"
         id="line3249" />
    </g>
    <g
       stroke="#000000"
       stroke-linecap="butt"
       stroke-width="2.26715867159"
       id="g3251">
      <path
         style=""
         d="M 518,101.64 530,90.459999"
         id="line3253" />
    </g>
    <g
       stroke="#000000"
       stroke-linecap="butt"
       stroke-width="2.26715867159"
       id="g3255">
      <path
         style=""
         d="m 504.62,180 0,21"
         id="line3257" />
    </g>
    <g
       stroke="#000000"
       stroke-linecap="butt"
       stroke-width="2.26715867159"
       id="g3259">
      <path
         style=""
         d="m 426.5,155.74001 18,-10.39"
         id="line3261" />
      <path
         style=""
         d="m 429.5,160.94 18,-10.40001"
         id="line3263" />
    </g>
    <g
       stroke="#000000"
       stroke-linecap="butt"
       stroke-width="2.26715867159"
       id="g3265">
      <path
         style=""
         d="m 518,116.54 25,4.56"
         id="line3267" />
    </g>
    <g
       stroke="#000000"
       stroke-linecap="butt"
       stroke-width="2.26715867159"
       id="g3269">
      <path
         style=""
         d="m 458.81,122 0,-21"
         id="line3271" />
    </g>
    <g
       stroke="#000000"
       stroke-linecap="butt"
       stroke-width="2.26715867159"
       id="g3273">
      <path
         style=""
         d="M 471,133.50999 491,121.96"
         id="line3275" />
    </g>
    <g
       stroke="#000000"
       stroke-linecap="butt"
       stroke-width="2.26715867159"
       id="g3277">
      <path
         style=""
         d="m 518,171.50999 25,8.42"
         id="line3279" />
    </g>
    <g
       style="font-size:30px;fill:#000000;font-family:helvetica"
       id="text3281">
      <path
         d="m 401.75018,163.54102 c 0,-3.56444 0.95703,-6.35497 2.8711,-8.37159 1.91405,-2.01658 4.38475,-3.02488 7.41211,-3.0249 1.9824,2e-5 3.76951,0.47366 5.36132,1.4209 1.59178,0.94728 2.80516,2.26808 3.64014,3.9624 0.83494,1.69435 1.25242,3.61574 1.25244,5.76416 -2e-5,2.17775 -0.43947,4.12599 -1.31836,5.84473 -0.87892,1.71875 -2.12404,3.02002 -3.73535,3.90381 -1.61134,0.88379 -3.34962,1.32568 -5.21484,1.32568 -2.0215,0 -3.82814,-0.48828 -5.41992,-1.46484 -1.59181,-0.97656 -2.79786,-2.30957 -3.61817,-3.99903 -0.82031,-1.68944 -1.23047,-3.47655 -1.23047,-5.36132 z m 2.92969,0.0439 c 0,2.5879 0.6958,4.62647 2.0874,6.11572 1.3916,1.48926 3.1372,2.23389 5.23682,2.23389 2.13866,0 3.89891,-0.75195 5.28076,-2.25586 1.38182,-1.5039 2.07274,-3.63769 2.07275,-6.40137 -10e-6,-1.74803 -0.29542,-3.27391 -0.88623,-4.57763 -0.59083,-1.3037 -1.45509,-2.31444 -2.59277,-3.03223 -1.13771,-0.71775 -2.41456,-1.07664 -3.83057,-1.07666 -2.01172,2e-5 -3.74268,0.69094 -5.19287,2.07275 -1.4502,1.38186 -2.17529,3.68898 -2.17529,6.92139 z"
         style="font-size:30px;fill:#000000;font-family:helvetica"
         id="path3377" />
    </g>
    <g
       style="font-size:30px;fill:#000000;font-family:helvetica"
       id="text3283">
      <path
         d="m 449.61444,147.55 0,-21.47461 8.10059,0 c 1.42577,3e-5 2.51463,0.0684 3.2666,0.20508 1.05467,0.1758 1.93846,0.51028 2.65137,1.00342 0.71287,0.49318 1.2866,1.1841 1.72119,2.07275 0.43455,0.88869 0.65183,1.86525 0.65185,2.92969 -2e-5,1.82619 -0.58107,3.3716 -1.74316,4.63623 -1.16213,1.26466 -3.26173,1.89698 -6.29883,1.89697 l -5.50781,0 0,8.73047 z m 2.8418,-11.26465 5.55176,0 c 1.83592,2e-5 3.13963,-0.34178 3.91113,-1.02539 0.77147,-0.68358 1.15721,-1.64549 1.15722,-2.88574 -10e-6,-0.89842 -0.22706,-1.66746 -0.68115,-2.30713 -0.45411,-0.63963 -1.05226,-1.06199 -1.79443,-1.26709 -0.47853,-0.12693 -1.36232,-0.19041 -2.65137,-0.19043 l -5.49316,0 z"
         style="font-size:30px;fill:#000000;font-family:helvetica"
         id="path3380" />
    </g>
    <g
       style="font-size:30px;fill:#000000;font-family:helvetica"
       id="text3285">
      <path
         d="m 448.58514,94.650002 0,-21.47461 2.91504,0 11.2793,16.860352 0,-16.860352 2.72461,0 0,21.47461 -2.91504,0 -11.2793,-16.875 0,16.875 z"
         style="font-size:30px;fill:#000000;font-family:helvetica"
         id="path3383" />
    </g>
    <g
       style="font-size:30px;fill:#000000;font-family:helvetica"
       id="text3287">
      <path
         d="m 494.58514,121.1 0,-21.474611 2.91504,0 11.2793,16.860351 0,-16.860351 2.72461,0 0,21.474611 -2.91504,0 -11.2793,-16.875 0,16.875 z"
         style="font-size:30px;fill:#000000;font-family:helvetica"
         id="path3386" />
    </g>
    <g
       style="font-size:30px;fill:#000000;font-family:helvetica"
       id="text3289">
      <path
         d="m 494.58514,174 0,-21.47461 2.91504,0 11.2793,16.86035 0,-16.86035 2.72461,0 0,21.47461 -2.91504,0 -11.2793,-16.875 0,16.875 z"
         style="font-size:30px;fill:#000000;font-family:helvetica"
         id="path3389" />
    </g>
    <g
       style="font-size:30px;fill:#000000;font-family:helvetica"
       id="text3291">
      <path
         d="m 490.93671,41.310703 2.84179,0.717774 c -0.59572,2.333989 -1.6675,4.113772 -3.21533,5.339355 -1.54787,1.225586 -3.43995,1.838379 -5.67627,1.838379 -2.31446,0 -4.19678,-0.471191 -5.64697,-1.413574 -1.4502,-0.942381 -2.55372,-2.307126 -3.31055,-4.094238 -0.75684,-1.787103 -1.13525,-3.706046 -1.13525,-5.756836 0,-2.236315 0.42724,-4.186997 1.28174,-5.852051 0.85449,-1.665021 2.0703,-2.929668 3.64746,-3.793945 1.57714,-0.864237 3.31298,-1.296365 5.20752,-1.296387 2.14842,2.2e-5 3.95506,0.546896 5.41992,1.640625 1.46482,1.093769 2.48533,2.631853 3.06152,4.614258 l -2.79785,0.659179 c -0.49806,-1.562483 -1.22072,-2.700177 -2.16797,-3.413086 -0.94728,-0.712871 -2.13868,-1.069316 -3.57422,-1.069336 -1.6504,2e-5 -3.02979,0.395527 -4.13818,1.186524 -1.1084,0.791033 -1.88721,1.853044 -2.33643,3.186035 -0.44922,1.333022 -0.67383,2.707532 -0.67382,4.123535 -10e-6,1.826181 0.2661,3.420418 0.79834,4.782715 0.53222,1.36231 1.35985,2.380375 2.48291,3.054199 1.12303,0.673831 2.33885,1.010745 3.64746,1.010742 1.59178,3e-6 2.93944,-0.458981 4.04297,-1.376953 1.10349,-0.917964 1.85056,-2.280267 2.24121,-4.086914 z"
         style="font-size:30px;fill:#000000;font-family:helvetica"
         id="path3392" />
      <path
         d="m 497.38202,48.84 0,-21.474609 2.8418,0 0,8.818359 11.16211,0 0,-8.818359 2.84179,0 0,21.474609 -2.84179,0 0,-10.12207 -11.16211,0 0,10.12207 z"
         style="font-size:30px;fill:#000000;font-family:helvetica"
         id="path3394" />
      <path
         d="m 517.60419,50.588291 1.97754,-0.263672 c 0.22704,1.120609 0.6134,1.928103 1.15905,2.422486 0.54565,0.494386 1.21033,0.741578 1.99402,0.741577 0.93017,1e-6 1.71569,-0.322264 2.35657,-0.966797 0.64086,-0.644528 0.96129,-1.442867 0.9613,-2.39502 -1e-5,-0.908197 -0.29664,-1.657098 -0.88989,-2.246704 -0.59327,-0.589592 -1.34766,-0.884391 -2.26318,-0.884399 -0.37354,8e-6 -0.83863,0.07325 -1.39527,0.219726 l 0.21973,-1.735839 c 0.13183,0.01466 0.23803,0.02198 0.3186,0.02197 0.84228,1e-5 1.60034,-0.219717 2.27417,-0.659179 0.67382,-0.439443 1.01074,-1.116933 1.01075,-2.032471 -10e-6,-0.725085 -0.24537,-1.32567 -0.73609,-1.801758 -0.49073,-0.47606 -1.12427,-0.714097 -1.90063,-0.714111 -0.76905,1.4e-5 -1.40992,0.241713 -1.92261,0.725097 -0.5127,0.483412 -0.84229,1.208509 -0.98877,2.175293 l -1.97754,-0.351562 c 0.2417,-1.32567 0.79101,-2.352891 1.64795,-3.081665 0.85693,-0.728744 1.9226,-1.093124 3.19702,-1.09314 0.8789,1.6e-5 1.68823,0.188615 2.42798,0.565796 0.73974,0.377213 1.30553,0.891738 1.69739,1.543579 0.39183,0.651869 0.58776,1.344007 0.58777,2.076416 -10e-6,0.695812 -0.18678,1.329357 -0.56031,1.900635 -0.37354,0.571299 -0.92652,1.0254 -1.65893,1.362305 0.95214,0.219735 1.69188,0.675667 2.21924,1.367797 0.52733,0.692146 0.791,1.558234 0.79101,2.598267 -10e-6,1.406253 -0.5127,2.598269 -1.53808,3.57605 -1.0254,0.977783 -2.32179,1.466674 -3.88916,1.466675 -1.41358,-10e-7 -2.58729,-0.421143 -3.52112,-1.263428 -0.93384,-0.842283 -1.46668,-1.933591 -1.59851,-3.273926 z"
         style="font-size:75%;baseline-shift:sub"
         id="path3396" />
    </g>
    <g
       style="font-size:30px;fill:#000000;font-family:helvetica"
       id="text3295">
      <path
         d="m 385.70233,48.84 0,-21.474609 2.8418,0 0,8.818359 11.16211,0 0,-8.818359 2.84179,0 0,21.474609 -2.84179,0 0,-10.12207 -11.16211,0 0,10.12207 z"
         style="font-size:30px;fill:#000000;font-family:helvetica"
         id="path3399" />
      <path
         d="m 405.9245,50.588291 1.97754,-0.263672 c 0.22705,1.120609 0.6134,1.928103 1.15906,2.422486 0.54565,0.494386 1.21032,0.741578 1.99401,0.741577 0.93017,1e-6 1.7157,-0.322264 2.35657,-0.966797 0.64086,-0.644528 0.9613,-1.442867 0.96131,-2.39502 -1e-5,-0.908197 -0.29664,-1.657098 -0.8899,-2.246704 -0.59327,-0.589592 -1.34766,-0.884391 -2.26318,-0.884399 -0.37354,8e-6 -0.83863,0.07325 -1.39526,0.219726 l 0.21972,-1.735839 c 0.13183,0.01466 0.23803,0.02198 0.31861,0.02197 0.84228,1e-5 1.60033,-0.219717 2.27417,-0.659179 0.67382,-0.439443 1.01073,-1.116933 1.01074,-2.032471 -1e-5,-0.725085 -0.24537,-1.32567 -0.73609,-1.801758 -0.49073,-0.47606 -1.12427,-0.714097 -1.90063,-0.714111 -0.76905,1.4e-5 -1.40992,0.241713 -1.92261,0.725097 -0.5127,0.483412 -0.84229,1.208509 -0.98877,2.175293 l -1.97754,-0.351562 c 0.2417,-1.32567 0.79102,-2.352891 1.64795,-3.081665 0.85693,-0.728744 1.92261,-1.093124 3.19702,-1.09314 0.8789,1.6e-5 1.68823,0.188615 2.42798,0.565796 0.73974,0.377213 1.30553,0.891738 1.69739,1.543579 0.39184,0.651869 0.58776,1.344007 0.58777,2.076416 -1e-5,0.695812 -0.18678,1.329357 -0.5603,1.900635 -0.37355,0.571299 -0.92653,1.0254 -1.65894,1.362305 0.95214,0.219735 1.69188,0.675667 2.21924,1.367797 0.52733,0.692146 0.791,1.558234 0.79101,2.598267 -10e-6,1.406253 -0.5127,2.598269 -1.53808,3.57605 -1.0254,0.977783 -2.32179,1.466674 -3.88916,1.466675 -1.41358,-10e-7 -2.58729,-0.421143 -3.52112,-1.263428 -0.93384,-0.842283 -1.46668,-1.933591 -1.59851,-3.273926 z"
         style="font-size:75%;baseline-shift:sub"
         id="path3401" />
      <path
         d="m 435.14081,41.310703 2.84179,0.717774 c -0.59572,2.333989 -1.66749,4.113772 -3.21533,5.339355 -1.54786,1.225586 -3.43995,1.838379 -5.67627,1.838379 -2.31446,0 -4.19678,-0.471191 -5.64697,-1.413574 -1.4502,-0.942381 -2.55371,-2.307126 -3.31055,-4.094238 -0.75683,-1.787103 -1.13525,-3.706046 -1.13525,-5.756836 0,-2.236315 0.42724,-4.186997 1.28174,-5.852051 0.85449,-1.665021 2.07031,-2.929668 3.64746,-3.793945 1.57714,-0.864237 3.31298,-1.296365 5.20752,-1.296387 2.14842,2.2e-5 3.95506,0.546896 5.41992,1.640625 1.46483,1.093769 2.48533,2.631853 3.06152,4.614258 l -2.79785,0.659179 c -0.49806,-1.562483 -1.22072,-2.700177 -2.16797,-3.413086 -0.94728,-0.712871 -2.13868,-1.069316 -3.57422,-1.069336 -1.6504,2e-5 -3.02979,0.395527 -4.13818,1.186524 -1.1084,0.791033 -1.88721,1.853044 -2.33642,3.186035 -0.44923,1.333022 -0.67384,2.707532 -0.67383,4.123535 -10e-6,1.826181 0.26611,3.420418 0.79834,4.782715 0.53222,1.36231 1.35985,2.380375 2.48291,3.054199 1.12304,0.673831 2.33885,1.010745 3.64746,1.010742 1.59178,3e-6 2.93944,-0.458981 4.04297,-1.376953 1.1035,-0.917964 1.85057,-2.280267 2.24121,-4.086914 z"
         style="font-size:30px;fill:#000000;font-family:helvetica"
         id="path3403" />
    </g>
    <g
       style="font-size:30px;fill:#000000;font-family:helvetica"
       id="text3299">
      <path
         d="m 548.93671,77.760704 2.84179,0.717773 c -0.59572,2.333989 -1.6675,4.113773 -3.21533,5.339356 -1.54787,1.225586 -3.43995,1.838378 -5.67627,1.838379 -2.31446,-10e-7 -4.19678,-0.471191 -5.64697,-1.413574 -1.4502,-0.942381 -2.55372,-2.307126 -3.31055,-4.094239 -0.75684,-1.787102 -1.13525,-3.706045 -1.13525,-5.756836 0,-2.236315 0.42724,-4.186996 1.28174,-5.85205 0.85449,-1.665021 2.0703,-2.929668 3.64746,-3.793946 1.57714,-0.864236 3.31298,-1.296365 5.20752,-1.296386 2.14842,2.1e-5 3.95506,0.546896 5.41992,1.640625 1.46482,1.093769 2.48533,2.631853 3.06152,4.614257 l -2.79785,0.65918 c -0.49806,-1.562483 -1.22072,-2.700178 -2.16797,-3.413086 -0.94728,-0.712871 -2.13868,-1.069316 -3.57422,-1.069336 -1.6504,2e-5 -3.02979,0.395527 -4.13818,1.186524 -1.1084,0.791033 -1.88721,1.853043 -2.33643,3.186035 -0.44922,1.333021 -0.67383,2.707532 -0.67382,4.123535 -1e-5,1.826181 0.2661,3.420418 0.79834,4.782715 0.53222,1.362309 1.35985,2.380375 2.48291,3.054199 1.12303,0.673831 2.33885,1.010744 3.64746,1.010742 1.59178,2e-6 2.93944,-0.458982 4.04297,-1.376953 1.10349,-0.917964 1.85056,-2.280268 2.24121,-4.086914 z"
         style="font-size:30px;fill:#000000;font-family:helvetica"
         id="path3406" />
      <path
         d="m 555.38202,85.290001 0,-21.474609 2.8418,0 0,8.818359 11.16211,0 0,-8.818359 2.84179,0 0,21.474609 -2.84179,0 0,-10.12207 -11.16211,0 0,10.12207 z"
         style="font-size:30px;fill:#000000;font-family:helvetica"
         id="path3408" />
      <path
         d="m 575.60419,87.038292 1.97754,-0.263672 c 0.22704,1.120609 0.6134,1.928103 1.15905,2.422485 0.54565,0.494387 1.21033,0.741579 1.99402,0.741578 0.93017,10e-7 1.71569,-0.322264 2.35657,-0.966797 0.64086,-0.644529 0.96129,-1.442868 0.9613,-2.39502 -1e-5,-0.908197 -0.29664,-1.657098 -0.88989,-2.246704 -0.59327,-0.589592 -1.34766,-0.884392 -2.26318,-0.884399 -0.37354,7e-6 -0.83863,0.07325 -1.39527,0.219726 l 0.21973,-1.73584 c 0.13183,0.01466 0.23803,0.02198 0.3186,0.02197 0.84228,9e-6 1.60034,-0.219717 2.27417,-0.65918 0.67382,-0.439442 1.01074,-1.116932 1.01075,-2.03247 -10e-6,-0.725085 -0.24537,-1.325671 -0.73609,-1.801758 -0.49073,-0.47606 -1.12427,-0.714097 -1.90063,-0.714112 -0.76905,1.5e-5 -1.40992,0.241714 -1.92261,0.725098 -0.5127,0.483412 -0.84229,1.208509 -0.98877,2.175293 l -1.97754,-0.351562 c 0.2417,-1.325671 0.79101,-2.352891 1.64795,-3.081665 0.85693,-0.728744 1.9226,-1.093124 3.19702,-1.09314 0.8789,1.6e-5 1.68823,0.188615 2.42798,0.565796 0.73974,0.377212 1.30553,0.891738 1.69739,1.543579 0.39183,0.651869 0.58776,1.344007 0.58777,2.076416 -10e-6,0.695812 -0.18678,1.329356 -0.56031,1.900635 -0.37354,0.571298 -0.92652,1.025399 -1.65893,1.362304 0.95214,0.219735 1.69188,0.675668 2.21924,1.367798 0.52733,0.692146 0.791,1.558234 0.79101,2.598267 -10e-6,1.406253 -0.5127,2.598269 -1.53808,3.57605 -1.0254,0.977783 -2.32179,1.466674 -3.88916,1.466674 -1.41358,0 -2.58729,-0.421142 -3.52112,-1.263427 -0.93384,-0.842284 -1.46668,-1.933591 -1.59851,-3.273926 z"
         style="font-size:75%;baseline-shift:sub"
         id="path3410" />
    </g>
    <g
       style="font-size:30px;fill:#000000;font-family:helvetica"
       id="text3303">
      <path
         d="m 561.93671,123.02071 2.84179,0.71777 c -0.59572,2.33399 -1.6675,4.11377 -3.21533,5.33936 -1.54787,1.22558 -3.43995,1.83837 -5.67627,1.83837 -2.31446,0 -4.19678,-0.47119 -5.64697,-1.41357 -1.4502,-0.94238 -2.55372,-2.30713 -3.31055,-4.09424 -0.75684,-1.7871 -1.13525,-3.70604 -1.13525,-5.75683 0,-2.23632 0.42724,-4.187 1.28174,-5.85206 0.85449,-1.66502 2.0703,-2.92966 3.64746,-3.79394 1.57714,-0.86424 3.31298,-1.29637 5.20752,-1.29639 2.14842,2e-5 3.95506,0.5469 5.41992,1.64063 1.46482,1.09377 2.48533,2.63185 3.06152,4.61426 l -2.79785,0.65918 c -0.49806,-1.56249 -1.22072,-2.70018 -2.16797,-3.41309 -0.94728,-0.71287 -2.13868,-1.06932 -3.57422,-1.06934 -1.6504,2e-5 -3.02979,0.39553 -4.13818,1.18653 -1.1084,0.79103 -1.88721,1.85304 -2.33643,3.18603 -0.44922,1.33302 -0.67383,2.70753 -0.67382,4.12354 -1e-5,1.82618 0.2661,3.42041 0.79834,4.78271 0.53222,1.36231 1.35985,2.38038 2.48291,3.0542 1.12303,0.67383 2.33885,1.01075 3.64746,1.01074 1.59178,1e-5 2.93944,-0.45898 4.04297,-1.37695 1.10349,-0.91796 1.85056,-2.28027 2.24121,-4.08691 z"
         style="font-size:30px;fill:#000000;font-family:helvetica"
         id="path3413" />
      <path
         d="m 568.38202,130.55 0,-21.47461 2.8418,0 0,8.81836 11.16211,0 0,-8.81836 2.84179,0 0,21.47461 -2.84179,0 0,-10.12207 -11.16211,0 0,10.12207 z"
         style="font-size:30px;fill:#000000;font-family:helvetica"
         id="path3415" />
      <path
         d="m 588.60419,132.29829 1.97754,-0.26367 c 0.22704,1.12061 0.6134,1.92811 1.15905,2.42249 0.54565,0.49438 1.21033,0.74158 1.99402,0.74157 0.93017,1e-5 1.71569,-0.32226 2.35657,-0.96679 0.64086,-0.64453 0.96129,-1.44287 0.9613,-2.39502 -1e-5,-0.9082 -0.29664,-1.6571 -0.88989,-2.24671 -0.59327,-0.58959 -1.34766,-0.88439 -2.26318,-0.8844 -0.37354,1e-5 -0.83863,0.0733 -1.39527,0.21973 l 0.21973,-1.73584 c 0.13183,0.0147 0.23803,0.022 0.3186,0.022 0.84228,1e-5 1.60034,-0.21971 2.27417,-0.65918 0.67382,-0.43944 1.01074,-1.11693 1.01075,-2.03247 -10e-6,-0.72508 -0.24537,-1.32567 -0.73609,-1.80175 -0.49073,-0.47606 -1.12427,-0.7141 -1.90063,-0.71412 -0.76905,2e-5 -1.40992,0.24172 -1.92261,0.7251 -0.5127,0.48341 -0.84229,1.20851 -0.98877,2.1753 l -1.97754,-0.35157 c 0.2417,-1.32567 0.79101,-2.35289 1.64795,-3.08166 0.85693,-0.72875 1.9226,-1.09313 3.19702,-1.09314 0.8789,1e-5 1.68823,0.18861 2.42798,0.56579 0.73974,0.37722 1.30553,0.89174 1.69739,1.54358 0.39183,0.65187 0.58776,1.34401 0.58777,2.07642 -10e-6,0.69581 -0.18678,1.32936 -0.56031,1.90063 -0.37354,0.5713 -0.92652,1.0254 -1.65893,1.36231 0.95214,0.21973 1.69188,0.67567 2.21924,1.3678 0.52733,0.69214 0.791,1.55823 0.79101,2.59826 -10e-6,1.40626 -0.5127,2.59827 -1.53808,3.57605 -1.0254,0.97779 -2.32179,1.46668 -3.88916,1.46668 -1.41358,0 -2.58729,-0.42114 -3.52112,-1.26343 -0.93384,-0.84228 -1.46668,-1.93359 -1.59851,-3.27393 z"
         style="font-size:75%;baseline-shift:sub"
         id="path3417" />
    </g>
    <g
       style="font-size:30px;fill:#000000;font-family:helvetica"
       id="text3307">
      <path
         d="m 561.93671,183.9207 2.84179,0.71777 c -0.59572,2.33399 -1.6675,4.11378 -3.21533,5.33936 -1.54787,1.22559 -3.43995,1.83838 -5.67627,1.83838 -2.31446,0 -4.19678,-0.47119 -5.64697,-1.41358 -1.4502,-0.94238 -2.55372,-2.30712 -3.31055,-4.09423 -0.75684,-1.78711 -1.13525,-3.70605 -1.13525,-5.75684 0,-2.23632 0.42724,-4.187 1.28174,-5.85205 0.85449,-1.66502 2.0703,-2.92967 3.64746,-3.79395 1.57714,-0.86423 3.31298,-1.29636 5.20752,-1.29638 2.14842,2e-5 3.95506,0.54689 5.41992,1.64062 1.46482,1.09377 2.48533,2.63186 3.06152,4.61426 l -2.79785,0.65918 c -0.49806,-1.56248 -1.22072,-2.70018 -2.16797,-3.41309 -0.94728,-0.71287 -2.13868,-1.06931 -3.57422,-1.06933 -1.6504,2e-5 -3.02979,0.39552 -4.13818,1.18652 -1.1084,0.79103 -1.88721,1.85304 -2.33643,3.18604 -0.44922,1.33302 -0.67383,2.70753 -0.67382,4.12353 -1e-5,1.82618 0.2661,3.42042 0.79834,4.78272 0.53222,1.36231 1.35985,2.38037 2.48291,3.0542 1.12303,0.67383 2.33885,1.01074 3.64746,1.01074 1.59178,0 2.93944,-0.45898 4.04297,-1.37696 1.10349,-0.91796 1.85056,-2.28026 2.24121,-4.08691 z"
         style="font-size:30px;fill:#000000;font-family:helvetica"
         id="path3420" />
      <path
         d="m 568.38202,191.45 0,-21.47461 2.8418,0 0,8.81836 11.16211,0 0,-8.81836 2.84179,0 0,21.47461 -2.84179,0 0,-10.12207 -11.16211,0 0,10.12207 z"
         style="font-size:30px;fill:#000000;font-family:helvetica"
         id="path3422" />
      <path
         d="m 588.60419,193.19829 1.97754,-0.26367 c 0.22704,1.1206 0.6134,1.9281 1.15905,2.42248 0.54565,0.49439 1.21033,0.74158 1.99402,0.74158 0.93017,0 1.71569,-0.32227 2.35657,-0.9668 0.64086,-0.64453 0.96129,-1.44287 0.9613,-2.39502 -1e-5,-0.9082 -0.29664,-1.6571 -0.88989,-2.2467 -0.59327,-0.58959 -1.34766,-0.88439 -2.26318,-0.8844 -0.37354,1e-5 -0.83863,0.0733 -1.39527,0.21973 l 0.21973,-1.73584 c 0.13183,0.0146 0.23803,0.022 0.3186,0.022 0.84228,1e-5 1.60034,-0.21972 2.27417,-0.65918 0.67382,-0.43944 1.01074,-1.11693 1.01075,-2.03247 -10e-6,-0.72509 -0.24537,-1.32567 -0.73609,-1.80176 -0.49073,-0.47606 -1.12427,-0.7141 -1.90063,-0.71411 -0.76905,1e-5 -1.40992,0.24171 -1.92261,0.7251 -0.5127,0.48341 -0.84229,1.2085 -0.98877,2.17529 l -1.97754,-0.35156 c 0.2417,-1.32567 0.79101,-2.35289 1.64795,-3.08167 0.85693,-0.72874 1.9226,-1.09312 3.19702,-1.09314 0.8789,2e-5 1.68823,0.18862 2.42798,0.5658 0.73974,0.37721 1.30553,0.89174 1.69739,1.54358 0.39183,0.65187 0.58776,1.344 0.58777,2.07641 -10e-6,0.69582 -0.18678,1.32936 -0.56031,1.90064 -0.37354,0.5713 -0.92652,1.0254 -1.65893,1.3623 0.95214,0.21974 1.69188,0.67567 2.21924,1.3678 0.52733,0.69215 0.791,1.55823 0.79101,2.59827 -10e-6,1.40625 -0.5127,2.59827 -1.53808,3.57605 -1.0254,0.97778 -2.32179,1.46667 -3.88916,1.46667 -1.41358,0 -2.58729,-0.42114 -3.52112,-1.26343 -0.93384,-0.84228 -1.46668,-1.93359 -1.59851,-3.27392 z"
         style="font-size:75%;baseline-shift:sub"
         id="path3424" />
    </g>
    <g
       style="font-size:30px;fill:#000000;font-family:helvetica"
       id="text3311">
      <path
         d="m 509.93671,219.3707 2.84179,0.71777 c -0.59572,2.33399 -1.6675,4.11377 -3.21533,5.33936 -1.54787,1.22558 -3.43995,1.83837 -5.67627,1.83837 -2.31446,0 -4.19678,-0.47119 -5.64697,-1.41357 -1.4502,-0.94238 -2.55372,-2.30712 -3.31055,-4.09424 -0.75684,-1.7871 -1.13525,-3.70604 -1.13525,-5.75683 0,-2.23632 0.42724,-4.187 1.28174,-5.85205 0.85449,-1.66503 2.0703,-2.92967 3.64746,-3.79395 1.57714,-0.86424 3.31298,-1.29636 5.20752,-1.29639 2.14842,3e-5 3.95506,0.5469 5.41992,1.64063 1.46482,1.09377 2.48533,2.63185 3.06152,4.61426 l -2.79785,0.65918 c -0.49806,-1.56249 -1.22072,-2.70018 -2.16797,-3.41309 -0.94728,-0.71287 -2.13868,-1.06932 -3.57422,-1.06934 -1.6504,2e-5 -3.02979,0.39553 -4.13818,1.18653 -1.1084,0.79103 -1.88721,1.85304 -2.33643,3.18603 -0.44922,1.33302 -0.67383,2.70753 -0.67382,4.12354 -10e-6,1.82618 0.2661,3.42042 0.79834,4.78271 0.53222,1.36231 1.35985,2.38038 2.48291,3.0542 1.12303,0.67383 2.33885,1.01075 3.64746,1.01074 1.59178,1e-5 2.93944,-0.45898 4.04297,-1.37695 1.10349,-0.91796 1.85056,-2.28027 2.24121,-4.08691 z"
         style="font-size:30px;fill:#000000;font-family:helvetica"
         id="path3427" />
      <path
         d="m 516.38202,226.89999 0,-21.47461 2.8418,0 0,8.81836 11.16211,0 0,-8.81836 2.84179,0 0,21.47461 -2.84179,0 0,-10.12207 -11.16211,0 0,10.12207 z"
         style="font-size:30px;fill:#000000;font-family:helvetica"
         id="path3429" />
      <path
         d="m 536.60419,228.64828 1.97754,-0.26367 c 0.22704,1.12061 0.6134,1.92811 1.15905,2.42249 0.54565,0.49438 1.21033,0.74158 1.99402,0.74158 0.93017,0 1.71569,-0.32227 2.35657,-0.9668 0.64086,-0.64453 0.96129,-1.44287 0.9613,-2.39502 -1e-5,-0.9082 -0.29664,-1.6571 -0.88989,-2.2467 -0.59327,-0.5896 -1.34766,-0.8844 -2.26318,-0.8844 -0.37354,0 -0.83863,0.0733 -1.39527,0.21972 l 0.21973,-1.73584 c 0.13183,0.0147 0.23803,0.022 0.3186,0.022 0.84228,1e-5 1.60034,-0.21971 2.27417,-0.65917 0.67382,-0.43945 1.01074,-1.11694 1.01075,-2.03248 -10e-6,-0.72508 -0.24537,-1.32567 -0.73609,-1.80175 -0.49073,-0.47606 -1.12427,-0.7141 -1.90063,-0.71411 -0.76905,1e-5 -1.40992,0.24171 -1.92261,0.72509 -0.5127,0.48341 -0.84229,1.20851 -0.98877,2.1753 l -1.97754,-0.35157 c 0.2417,-1.32567 0.79101,-2.35289 1.64795,-3.08166 0.85693,-0.72875 1.9226,-1.09312 3.19702,-1.09314 0.8789,2e-5 1.68823,0.18861 2.42798,0.56579 0.73974,0.37722 1.30553,0.89174 1.69739,1.54358 0.39183,0.65187 0.58776,1.34401 0.58777,2.07642 -10e-6,0.69581 -0.18678,1.32936 -0.56031,1.90063 -0.37354,0.5713 -0.92652,1.0254 -1.65893,1.36231 0.95214,0.21973 1.69188,0.67567 2.21924,1.3678 0.52733,0.69214 0.791,1.55823 0.79101,2.59826 -10e-6,1.40626 -0.5127,2.59827 -1.53808,3.57605 -1.0254,0.97779 -2.32179,1.46668 -3.88916,1.46668 -1.41358,0 -2.58729,-0.42114 -3.52112,-1.26343 -0.93384,-0.84228 -1.46668,-1.93359 -1.59851,-3.27393 z"
         style="font-size:75%;baseline-shift:sub"
         id="path3431" />
    </g>
  </g>
  <cdml:cdml
     version="0.15">
    <cdml:info>
      <cdml:author_program
         version="0.13.0">BKchem</cdml:author_program>
    </cdml:info>
    <cdml:paper
       crop_margin="5"
       crop_svg="1"
       orientation="portrait"
       replace_minus="0"
       type="Legal"
       use_real_minus="0" />
    <cdml:viewport
       viewport="0.000000 0.000000 640.000000 480.000000" />
    <cdml:standard
       area_color=""
       font_family="helvetica"
       font_size="24"
       line_color="#000"
       line_width="0.06cm"
       paper_crop_margin="5"
       paper_crop_svg="1"
       paper_orientation="portrait"
       paper_type="Legal">
      <cdml:bond
         double-ratio="0.85"
         length="1.4cm"
         wedge-width="0.18cm"
         width="0.21cm" />
      <cdml:arrow
         length="1.6cm" />
      <cdml:atom
         show_hydrogens="0" />
    </cdml:standard>
    <cdml:molecule
       id="molecule61608"
       name="">
      <cdml:atom
         id="atom37355"
         name="Mo"
         pos="center-first"
         valency="6">
        <cdml:point
           x="7.966cm"
           y="5.849cm" />
      </cdml:atom>
      <cdml:atom
         id="atom13033"
         name="O"
         pos="center-first"
         valency="2">
        <cdml:point
           x="8.666cm"
           y="4.636cm" />
      </cdml:atom>
      <cdml:atom
         id="atom87498"
         name="O"
         pos="center-first"
         valency="2">
        <cdml:point
           x="7.266cm"
           y="4.636cm" />
      </cdml:atom>
      <cdml:atom
         id="atom64009"
         name="O"
         pos="center-first"
         valency="2">
        <cdml:point
           x="8.666cm"
           y="7.061cm" />
      </cdml:atom>
      <cdml:atom
         id="atom58010"
         name="O"
         pos="center-first"
         valency="2">
        <cdml:point
           x="7.266cm"
           y="7.061cm" />
      </cdml:atom>
      <cdml:atom
         id="atom28797"
         name="O"
         pos="center-first"
         valency="2">
        <cdml:point
           x="6.566cm"
           y="5.849cm" />
      </cdml:atom>
      <cdml:bond
         double_ratio="0.85"
         end="atom87498"
         id="bond94653"
         line_width="2.26715867159"
         start="atom37355"
         type="n1" />
      <cdml:bond
         double_ratio="0.85"
         end="atom37355"
         id="bond52381"
         line_width="2.26715867159"
         start="atom13033"
         type="n1" />
      <cdml:bond
         double_ratio="0.85"
         end="atom13033"
         id="bond96790"
         line_width="2.26715867159"
         start="atom87498"
         type="n1" />
      <cdml:bond
         bond_width="7.93505535055"
         center="yes"
         double_ratio="0.85"
         end="atom28797"
         id="bond84561"
         line_width="2.26715867159"
         start="atom37355"
         type="n2" />
      <cdml:bond
         double_ratio="0.85"
         end="atom64009"
         id="bond39155"
         line_width="2.26715867159"
         start="atom37355"
         type="n1" />
      <cdml:bond
         double_ratio="0.85"
         end="atom58010"
         id="bond86489"
         line_width="2.26715867159"
         start="atom37355"
         type="n1" />
      <cdml:bond
         double_ratio="0.85"
         end="atom64009"
         id="bond68374"
         line_width="2.26715867159"
         start="atom58010"
         type="n1" />
    </cdml:molecule>
    <cdml:arrow
       color="#000"
       end="yes"
       id="arrow55651"
       shape="(8, 10, 3)"
       spline="no"
       start="no"
       type="normal"
       width="2.26715867159">
      <cdml:point
         x="10.136cm"
         y="4.790cm" />
      <cdml:point
         x="8.750cm"
         y="5.590cm" />
    </cdml:arrow>
    <cdml:arrow
       color="#000"
       end="yes"
       id="arrow36278"
       shape="(8, 10, 3)"
       spline="no"
       start="no"
       type="normal"
       width="2.26715867159">
      <cdml:point
         x="9.686cm"
         y="7.410cm" />
      <cdml:point
         x="8.886cm"
         y="6.024cm" />
    </cdml:arrow>
    <cdml:molecule
       id="molecule3808"
       name="">
      <cdml:atom
         id="atom8819"
         name="C"
         valency="4">
        <cdml:point
           x="11.377cm"
           y="8.019cm" />
      </cdml:atom>
      <cdml:atom
         id="atom79685"
         name="C"
         valency="4">
        <cdml:point
           x="9.277cm"
           y="9.231cm" />
      </cdml:atom>
      <cdml:atom
         id="atom68573"
         name="C"
         valency="4">
        <cdml:point
           x="9.977cm"
           y="10.444cm" />
      </cdml:atom>
      <cdml:atom
         id="atom34136"
         name="C"
         valency="4">
        <cdml:point
           x="12.077cm"
           y="9.231cm" />
      </cdml:atom>
      <cdml:atom
         id="atom29408"
         name="C"
         valency="4">
        <cdml:point
           x="11.377cm"
           y="10.444cm" />
      </cdml:atom>
      <cdml:atom
         id="atom98194"
         name="N"
         pos="center-first"
         valency="3">
        <cdml:point
           x="9.977cm"
           y="8.019cm" />
      </cdml:atom>
      <cdml:bond
         double_ratio="0.85"
         end="atom8819"
         id="bond65628"
         line_width="2.26715867159"
         start="atom98194"
         type="n1" />
      <cdml:bond
         bond_width="-7.93505535055"
         center="no"
         double_ratio="0.85"
         end="atom34136"
         id="bond63428"
         line_width="2.26715867159"
         start="atom8819"
         type="n2" />
      <cdml:bond
         double_ratio="0.85"
         end="atom68573"
         id="bond48909"
         line_width="2.26715867159"
         start="atom79685"
         type="n1" />
      <cdml:bond
         double_ratio="0.85"
         end="atom34136"
         id="bond54008"
         line_width="2.26715867159"
         start="atom29408"
         type="n1" />
      <cdml:bond
         bond_width="7.93505535055"
         center="no"
         double_ratio="0.85"
         end="atom29408"
         id="bond61542"
         line_width="2.26715867159"
         start="atom68573"
         type="n2" />
      <cdml:bond
         bond_width="7.93505535055"
         center="no"
         double_ratio="0.85"
         end="atom79685"
         id="bond26726"
         line_width="2.26715867159"
         start="atom98194"
         type="n2" />
    </cdml:molecule>
    <cdml:molecule
       id="molecule52124"
       name="">
      <cdml:atom
         id="atom16373"
         name="O"
         pos="center-first"
         valency="2">
        <cdml:point
           x="10.930cm"
           y="4.420cm" />
      </cdml:atom>
      <cdml:atom
         id="atom17228"
         name="P"
         pos="center-first"
         valency="5">
        <cdml:point
           x="12.142cm"
           y="3.720cm" />
      </cdml:atom>
      <cdml:atom
         id="atom15812"
         name="N"
         pos="center-first"
         valency="3">
        <cdml:point
           x="12.142cm"
           y="2.320cm" />
      </cdml:atom>
      <cdml:atom
         id="atom53707"
         name="N"
         pos="center-first"
         valency="3">
        <cdml:point
           x="13.355cm"
           y="3.020cm" />
      </cdml:atom>
      <cdml:atom
         id="atom53572"
         name="N"
         pos="center-first"
         valency="3">
        <cdml:point
           x="13.355cm"
           y="4.420cm" />
      </cdml:atom>
      <cdml:atom
         hydrogens="on"
         id="atom5584"
         name="C"
         pos="center-first"
         show="yes"
         valency="4">
        <cdml:point
           x="12.842cm"
           y="1.107cm" />
      </cdml:atom>
      <cdml:atom
         hydrogens="on"
         id="atom6653"
         name="C"
         pos="center-last"
         show="yes"
         valency="4">
        <cdml:point
           x="11.442cm"
           y="1.107cm" />
      </cdml:atom>
      <cdml:atom
         hydrogens="on"
         id="atom87277"
         name="C"
         pos="center-first"
         show="yes"
         valency="4">
        <cdml:point
           x="14.372cm"
           y="2.072cm" />
      </cdml:atom>
      <cdml:atom
         hydrogens="on"
         id="atom46286"
         name="C"
         pos="center-first"
         show="yes"
         valency="4">
        <cdml:point
           x="14.726cm"
           y="3.270cm" />
      </cdml:atom>
      <cdml:atom
         hydrogens="on"
         id="atom38412"
         name="C"
         pos="center-first"
         show="yes"
         valency="4">
        <cdml:point
           x="14.726cm"
           y="4.881cm" />
      </cdml:atom>
      <cdml:atom
         hydrogens="on"
         id="atom75677"
         name="C"
         pos="center-first"
         show="yes"
         valency="4">
        <cdml:point
           x="13.355cm"
           y="5.820cm" />
      </cdml:atom>
      <cdml:bond
         double_ratio="0.85"
         end="atom5584"
         id="bond63353"
         line_width="2.26715867159"
         start="atom15812"
         type="n1" />
      <cdml:bond
         double_ratio="0.85"
         end="atom53572"
         id="bond61931"
         line_width="2.26715867159"
         start="atom17228"
         type="n1" />
      <cdml:bond
         double_ratio="0.85"
         end="atom6653"
         id="bond52815"
         line_width="2.26715867159"
         start="atom15812"
         type="n1" />
      <cdml:bond
         double_ratio="0.85"
         end="atom87277"
         id="bond91018"
         line_width="2.26715867159"
         start="atom53707"
         type="n1" />
      <cdml:bond
         double_ratio="0.85"
         end="atom75677"
         id="bond59080"
         line_width="2.26715867159"
         start="atom53572"
         type="n1" />
      <cdml:bond
         bond_width="7.93505535055"
         center="yes"
         double_ratio="0.85"
         end="atom17228"
         id="bond33091"
         line_width="2.26715867159"
         start="atom16373"
         type="n2" />
      <cdml:bond
         double_ratio="0.85"
         end="atom46286"
         id="bond91478"
         line_width="2.26715867159"
         start="atom53707"
         type="n1" />
      <cdml:bond
         double_ratio="0.85"
         end="atom15812"
         id="bond71190"
         line_width="2.26715867159"
         start="atom17228"
         type="n1" />
      <cdml:bond
         double_ratio="0.85"
         end="atom53707"
         id="bond21685"
         line_width="2.26715867159"
         start="atom17228"
         type="n1" />
      <cdml:bond
         double_ratio="0.85"
         end="atom38412"
         id="bond83715"
         line_width="2.26715867159"
         start="atom53572"
         type="n1" />
    </cdml:molecule>
  </cdml:cdml>
</svg>
