<?xml version="1.0" encoding="UTF-8" standalone="no"?>
<svg
   xmlns:cdml="http://www.freesoftware.fsf.org/bkchem/cdml"
   xmlns:dc="http://purl.org/dc/elements/1.1/"
   xmlns:cc="http://creativecommons.org/ns#"
   xmlns:rdf="http://www.w3.org/1999/02/22-rdf-syntax-ns#"
   xmlns:svg="http://www.w3.org/2000/svg"
   xmlns="http://www.w3.org/2000/svg"
   xmlns:sodipodi="http://sodipodi.sourceforge.net/DTD/sodipodi-0.dtd"
   xmlns:inkscape="http://www.inkscape.org/namespaces/inkscape"
   height="83.95547mm"
   version="1.0"
   viewBox="0 0 334 317"
   width="88.45781mm"
   id="svg4221"
   inkscape:version="0.48.0 r9654"
   sodipodi:docname="MoOPD.svg">
  <metadata
     id="metadata4363">
    <rdf:RDF>
      <cc:Work
         rdf:about="">
        <dc:format>image/svg+xml</dc:format>
        <dc:type
           rdf:resource="http://purl.org/dc/dcmitype/StillImage" />
        <dc:title></dc:title>
      </cc:Work>
    </rdf:RDF>
  </metadata>
  <defs
     id="defs4361" />
  <sodipodi:namedview
     pagecolor="#ffffff"
     bordercolor="#666666"
     borderopacity="1"
     objecttolerance="10"
     gridtolerance="10"
     guidetolerance="10"
     inkscape:pageopacity="0"
     inkscape:pageshadow="2"
     inkscape:window-width="640"
     inkscape:window-height="480"
     id="namedview4359"
     showgrid="false"
     inkscape:zoom="0.88409302"
     inkscape:cx="156.7166"
     inkscape:cy="148.74001"
     inkscape:window-x="0"
     inkscape:window-y="0"
     inkscape:window-maximized="0"
     inkscape:current-layer="svg4221" />
  <g
     font-family="Helvetica"
     font-size="12pt"
     stroke-linecap="round"
     transform="translate(-289,-185)"
     id="g4223">
    <g
       stroke="#000000"
       stroke-linecap="butt"
       stroke-width="2.26548672566"
       id="g4225">
      <path
         style=""
         d="m 350.03,347 -8.07999,-14"
         id="line4227" />
    </g>
    <g
       stroke="#000000"
       stroke-linecap="butt"
       stroke-width="2.26548672566"
       id="g4229">
      <path
         style=""
         d="m 349,411.78 24,0"
         id="line4231" />
    </g>
    <g
       stroke="#000000"
       stroke-linecap="butt"
       stroke-width="2.26548672566"
       id="g4233">
      <path
         style=""
         d="m 346,369 -23,0"
         id="line4235" />
      <path
         style=""
         d="m 346,363 -23,0"
         id="line4237" />
    </g>
    <g
       stroke="#000000"
       stroke-linecap="butt"
       stroke-width="2.26548672566"
       id="g4239">
      <path
         style=""
         d="m 371.97,347 8.07999,-14"
         id="line4241" />
    </g>
    <g
       stroke="#000000"
       stroke-linecap="butt"
       stroke-width="2.26548672566"
       id="g4243">
      <path
         style=""
         d="M 368.51001,379 376.59,393"
         id="line4245" />
    </g>
    <g
       stroke="#000000"
       stroke-linecap="butt"
       stroke-width="2.26548672566"
       id="g4247">
      <path
         style=""
         d="m 373,320.22 -24,0"
         id="line4249" />
    </g>
    <g
       stroke="#000000"
       stroke-linecap="butt"
       stroke-width="2.26548672566"
       id="g4251">
      <path
         style=""
         d="M 353.48999,379 345.41,393"
         id="line4253" />
    </g>
    <g
       style="font-size:30px;fill:#000000;font-family:helvetica"
       id="text4255">
      <path
         d="m 349.52655,373 0,-21.47461 4.27734,0 5.08301,15.20508 c 0.46874,1.41602 0.81054,2.47559 1.02539,3.17871 0.24413,-0.78125 0.62499,-1.92871 1.14258,-3.44238 l 5.1416,-14.94141 3.82324,0 0,21.47461 -2.73925,0 0,-17.97363 -6.24024,17.97363 -2.56347,0 -6.21094,-18.28125 0,18.28125 z"
         style="font-size:30px;fill:#000000;font-family:helvetica"
         id="path4374" />
      <path
         d="m 373.31561,365.22168 c 0,-2.88085 0.80078,-5.01464 2.40235,-6.40137 1.33788,-1.15233 2.96874,-1.7285 4.89257,-1.72851 2.13867,1e-5 3.88671,0.7007 5.24415,2.10205 1.3574,1.40138 2.03611,3.33741 2.03613,5.8081 -2e-5,2.00196 -0.30031,3.57667 -0.90088,4.72412 -0.6006,1.14747 -1.47462,2.03858 -2.62207,2.67334 -1.14747,0.63477 -2.39991,0.95215 -3.75733,0.95215 -2.17774,0 -3.93799,-0.69824 -5.28076,-2.09472 -1.34277,-1.39649 -2.01416,-3.4082 -2.01416,-6.03516 z m 2.70996,0 c 0,1.99219 0.43457,3.48389 1.30371,4.4751 0.86914,0.99121 1.96289,1.48682 3.28125,1.48681 1.30859,1e-5 2.39745,-0.49804 3.26661,-1.49414 0.86912,-0.99609 1.30369,-2.51464 1.30371,-4.55566 -2e-5,-1.92382 -0.43703,-3.38134 -1.31104,-4.37256 -0.87403,-0.9912 -1.96046,-1.4868 -3.25928,-1.48682 -1.31836,2e-5 -2.41211,0.49318 -3.28125,1.4795 -0.86914,0.98634 -1.30371,2.47559 -1.30371,4.46777 z"
         style="font-size:30px;fill:#000000;font-family:helvetica"
         id="path4376" />
    </g>
    <g
       style="font-size:30px;fill:#000000;font-family:helvetica"
       id="text4257">
      <path
         d="m 375.75018,316.76102 c 0,-3.56444 0.95703,-6.35497 2.8711,-8.37159 1.91405,-2.01658 4.38475,-3.02488 7.41211,-3.0249 1.9824,2e-5 3.76951,0.47366 5.36132,1.4209 1.59178,0.94729 2.80516,2.26809 3.64014,3.9624 0.83494,1.69435 1.25242,3.61574 1.25244,5.76416 -2e-5,2.17775 -0.43947,4.12599 -1.31836,5.84473 -0.87892,1.71875 -2.12404,3.02002 -3.73535,3.90381 -1.61134,0.88379 -3.34962,1.32568 -5.21484,1.32568 -2.0215,0 -3.82814,-0.48828 -5.41992,-1.46484 -1.59181,-0.97656 -2.79786,-2.30957 -3.61817,-3.99903 -0.82031,-1.68944 -1.23047,-3.47655 -1.23047,-5.36132 z m 2.92969,0.0439 c 0,2.5879 0.6958,4.62647 2.0874,6.11572 1.3916,1.48927 3.1372,2.23389 5.23682,2.23389 2.13866,0 3.89891,-0.75195 5.28076,-2.25586 1.38182,-1.5039 2.07274,-3.63769 2.07275,-6.40137 -10e-6,-1.74803 -0.29542,-3.27391 -0.88623,-4.57763 -0.59083,-1.3037 -1.45509,-2.31444 -2.59277,-3.03223 -1.13771,-0.71775 -2.41456,-1.07664 -3.83057,-1.07666 -2.01172,2e-5 -3.74268,0.69094 -5.19287,2.07276 -1.4502,1.38185 -2.17529,3.68897 -2.17529,6.92138 z"
         style="font-size:30px;fill:#000000;font-family:helvetica"
         id="path4379" />
    </g>
    <g
       style="font-size:30px;fill:#000000;font-family:helvetica"
       id="text4259">
      <path
         d="m 322.75018,316.76102 c 0,-3.56444 0.95703,-6.35497 2.8711,-8.37159 1.91405,-2.01658 4.38475,-3.02488 7.41211,-3.0249 1.9824,2e-5 3.76951,0.47366 5.36132,1.4209 1.59178,0.94729 2.80516,2.26809 3.64014,3.9624 0.83494,1.69435 1.25242,3.61574 1.25244,5.76416 -2e-5,2.17775 -0.43947,4.12599 -1.31836,5.84473 -0.87892,1.71875 -2.12404,3.02002 -3.73535,3.90381 -1.61134,0.88379 -3.34962,1.32568 -5.21484,1.32568 -2.0215,0 -3.82814,-0.48828 -5.41992,-1.46484 -1.59181,-0.97656 -2.79786,-2.30957 -3.61817,-3.99903 -0.82031,-1.68944 -1.23047,-3.47655 -1.23047,-5.36132 z m 2.92969,0.0439 c 0,2.5879 0.6958,4.62647 2.0874,6.11572 1.3916,1.48927 3.1372,2.23389 5.23682,2.23389 2.13866,0 3.89891,-0.75195 5.28076,-2.25586 1.38182,-1.5039 2.07274,-3.63769 2.07275,-6.40137 -10e-6,-1.74803 -0.29542,-3.27391 -0.88623,-4.57763 -0.59083,-1.3037 -1.45509,-2.31444 -2.59277,-3.03223 -1.13771,-0.71775 -2.41456,-1.07664 -3.83057,-1.07666 -2.01172,2e-5 -3.74268,0.69094 -5.19287,2.07276 -1.4502,1.38185 -2.17529,3.68897 -2.17529,6.92138 z"
         style="font-size:30px;fill:#000000;font-family:helvetica"
         id="path4382" />
    </g>
    <g
       style="font-size:30px;fill:#000000;font-family:helvetica"
       id="text4261">
      <path
         d="m 296.75018,362.54102 c 0,-3.56444 0.95703,-6.35497 2.8711,-8.37159 1.91405,-2.01658 4.38475,-3.02488 7.41211,-3.0249 1.9824,2e-5 3.76951,0.47366 5.36132,1.4209 1.59178,0.94728 2.80516,2.26808 3.64014,3.9624 0.83494,1.69435 1.25242,3.61574 1.25244,5.76416 -2e-5,2.17775 -0.43947,4.12599 -1.31836,5.84473 -0.87892,1.71875 -2.12404,3.02002 -3.73535,3.90381 -1.61134,0.88379 -3.34962,1.32568 -5.21484,1.32568 -2.0215,0 -3.82814,-0.48828 -5.41992,-1.46484 -1.59181,-0.97656 -2.79786,-2.30957 -3.61817,-3.99903 -0.82031,-1.68944 -1.23047,-3.47655 -1.23047,-5.36132 z m 2.92969,0.0439 c 0,2.5879 0.6958,4.62647 2.0874,6.11572 1.3916,1.48926 3.1372,2.23389 5.23682,2.23389 2.13866,0 3.89891,-0.75195 5.28076,-2.25586 1.38182,-1.5039 2.07274,-3.63769 2.07275,-6.40137 -10e-6,-1.74803 -0.29542,-3.27391 -0.88623,-4.57763 -0.59083,-1.3037 -1.45509,-2.31444 -2.59277,-3.03223 -1.13771,-0.71775 -2.41456,-1.07664 -3.83057,-1.07666 -2.01172,2e-5 -3.74268,0.69094 -5.19287,2.07275 -1.4502,1.38186 -2.17529,3.68898 -2.17529,6.92139 z"
         style="font-size:30px;fill:#000000;font-family:helvetica"
         id="path4385" />
    </g>
    <g
       style="font-size:30px;fill:#000000;font-family:helvetica"
       id="text4263">
      <path
         d="m 322.75018,408.32101 c 0,-3.56443 0.95703,-6.35496 2.8711,-8.37158 1.91405,-2.01658 4.38475,-3.02488 7.41211,-3.0249 1.9824,2e-5 3.76951,0.47365 5.36132,1.4209 1.59178,0.94728 2.80516,2.26808 3.64014,3.9624 0.83494,1.69435 1.25242,3.61574 1.25244,5.76416 -2e-5,2.17774 -0.43947,4.12598 -1.31836,5.84473 -0.87892,1.71875 -2.12404,3.02002 -3.73535,3.90381 -1.61134,0.88379 -3.34962,1.32568 -5.21484,1.32568 -2.0215,0 -3.82814,-0.48828 -5.41992,-1.46484 -1.59181,-0.97656 -2.79786,-2.30957 -3.61817,-3.99903 -0.82031,-1.68944 -1.23047,-3.47655 -1.23047,-5.36133 z m 2.92969,0.0439 c 0,2.5879 0.6958,4.62647 2.0874,6.11572 1.3916,1.48926 3.1372,2.23389 5.23682,2.23389 2.13866,0 3.89891,-0.75195 5.28076,-2.25586 1.38182,-1.5039 2.07274,-3.63769 2.07275,-6.40137 -10e-6,-1.74803 -0.29542,-3.27391 -0.88623,-4.57763 -0.59083,-1.3037 -1.45509,-2.31444 -2.59277,-3.03223 -1.13771,-0.71776 -2.41456,-1.07664 -3.83057,-1.07666 -2.01172,2e-5 -3.74268,0.69094 -5.19287,2.07275 -1.4502,1.38185 -2.17529,3.68898 -2.17529,6.92139 z"
         style="font-size:30px;fill:#000000;font-family:helvetica"
         id="path4388" />
    </g>
    <g
       style="font-size:30px;fill:#000000;font-family:helvetica"
       id="text4265">
      <path
         d="m 375.75018,408.32101 c 0,-3.56443 0.95703,-6.35496 2.8711,-8.37158 1.91405,-2.01658 4.38475,-3.02488 7.41211,-3.0249 1.9824,2e-5 3.76951,0.47365 5.36132,1.4209 1.59178,0.94728 2.80516,2.26808 3.64014,3.9624 0.83494,1.69435 1.25242,3.61574 1.25244,5.76416 -2e-5,2.17774 -0.43947,4.12598 -1.31836,5.84473 -0.87892,1.71875 -2.12404,3.02002 -3.73535,3.90381 -1.61134,0.88379 -3.34962,1.32568 -5.21484,1.32568 -2.0215,0 -3.82814,-0.48828 -5.41992,-1.46484 -1.59181,-0.97656 -2.79786,-2.30957 -3.61817,-3.99903 -0.82031,-1.68944 -1.23047,-3.47655 -1.23047,-5.36133 z m 2.92969,0.0439 c 0,2.5879 0.6958,4.62647 2.0874,6.11572 1.3916,1.48926 3.1372,2.23389 5.23682,2.23389 2.13866,0 3.89891,-0.75195 5.28076,-2.25586 1.38182,-1.5039 2.07274,-3.63769 2.07275,-6.40137 -10e-6,-1.74803 -0.29542,-3.27391 -0.88623,-4.57763 -0.59083,-1.3037 -1.45509,-2.31444 -2.59277,-3.03223 -1.13771,-0.71776 -2.41456,-1.07664 -3.83057,-1.07666 -2.01172,2e-5 -3.74268,0.69094 -5.19287,2.07275 -1.4502,1.38185 -2.17529,3.68898 -2.17529,6.92139 z"
         style="font-size:30px;fill:#000000;font-family:helvetica"
         id="path4391" />
    </g>
    <path
       style="fill:none;stroke:#000000;stroke-width:2.26548672"
       d="M 451,405 405.61,378.79"
       id="polyline4267" />
    <path
       style="fill:#000000;fill-rule:evenodd;stroke:#000000;stroke-width:1"
       d="m 398.68,374.79 7.16,7.6 -0.23,-3.6 3.23,-1.6 z"
       id="polygon4269" />
    <path
       style="fill:none;stroke:#000000;stroke-width:2.26548672"
       d="m 451,331 -45.39,26.21"
       id="polyline4271" />
    <path
       style="fill:#000000;fill-rule:evenodd;stroke:#000000;stroke-width:1"
       d="m 398.68,361.21 10.16,-2.4 -3.23,-1.6 0.23,-3.6 z"
       id="polygon4273" />
    <g
       stroke="#000000"
       stroke-width="2.26548672566"
       id="g4275">
      <path
         style=""
         d="M 483,407.17999 515.22998,388.56"
         id="line4277" />
    </g>
    <g
       stroke="#000000"
       stroke-width="2.26548672566"
       id="g4279">
      <path
         style=""
         d="m 561,415 0,52.79001"
         id="line4281" />
    </g>
    <g
       stroke="#000000"
       stroke-width="2.26548672566"
       id="g4283">
      <path
         style=""
         d="m 469.45999,467.79001 45.76999,26.44"
         id="line4285" />
    </g>
    <g
       stroke="#000000"
       stroke-width="2.26548672566"
       id="g4287">
      <path
         style=""
         d="m 561,467.79001 -45.77002,26.44"
         id="line4289" />
      <path
         style=""
         d="M 553.59998,462.89999 514.69,485.38"
         id="line4291" />
    </g>
    <g
       stroke="#000000"
       stroke-width="2.26548672566"
       id="g4293">
      <path
         style=""
         d="M 515.22998,388.56 561,415"
         id="line4295" />
      <path
         style=""
         d="M 514.69,397.39999 553.59998,419.88"
         id="line4297" />
    </g>
    <g
       stroke="#000000"
       stroke-width="2.26548672566"
       id="g4299">
      <path
         style=""
         d="m 469.45999,428 0,39.79001"
         id="line4301" />
      <path
         style=""
         d="m 477.39001,430.98001 0,33.81998"
         id="line4303" />
    </g>
    <g
       style="font-size:30px;fill:#000000;font-family:helvetica"
       id="text4305">
      <path
         d="m 459.58514,422 0,-21.47461 2.91504,0 11.2793,16.86035 0,-16.86035 2.72461,0 0,21.47461 -2.91504,0 -11.2793,-16.875 0,16.875 z"
         style="font-size:30px;fill:#000000;font-family:helvetica"
         id="path4407" />
    </g>
    <g
       stroke="#000000"
       stroke-width="2.26548672566"
       id="g4307">
      <path
         style=""
         d="M 615,287.85999 615,235"
         id="line4309" />
    </g>
    <g
       stroke="#000000"
       stroke-linecap="butt"
       stroke-width="2.26548672566"
       id="g4311">
      <path
         style=""
         d="m 569.21002,327 0,21"
         id="line4313" />
    </g>
    <g
       stroke="#000000"
       stroke-width="2.26548672566"
       id="g4315">
      <path
         style=""
         d="M 569.21002,208.59 537,227.17"
         id="line4317" />
    </g>
    <g
       stroke="#000000"
       stroke-width="2.26548672566"
       id="g4319">
      <path
         style=""
         d="M 523.40997,287.85999 556,306.64999"
         id="line4321" />
    </g>
    <g
       stroke="#000000"
       stroke-width="2.26548672566"
       id="g4323">
      <path
         style=""
         d="m 583,306.31 32,-18.45001"
         id="line4325" />
    </g>
    <g
       stroke="#000000"
       stroke-width="2.26548672566"
       id="g4327">
      <path
         style=""
         d="m 523.40997,248 0,39.85999"
         id="line4329" />
    </g>
    <g
       stroke="#000000"
       stroke-width="2.26548672566"
       id="g4331">
      <path
         style=""
         d="M 615,235 569.21002,208.59"
         id="line4333" />
    </g>
    <g
       stroke="#000000"
       stroke-linecap="butt"
       stroke-width="2.26548672566"
       id="g4335">
      <path
         style=""
         d="M 510,227.25999 492,216.86"
         id="line4337" />
    </g>
    <g
       stroke="#000000"
       stroke-width="2.26548672566"
       id="g4339">
      <path
         style=""
         d="M 524.90997,290.45999 493.5,308.60001"
         id="line4341" />
      <path
         style=""
         d="M 521.90997,285.26001 490.5,303.39999"
         id="line4343" />
    </g>
    <g
       style="font-size:30px;fill:#000000;font-family:helvetica"
       id="text4345">
      <path
         d="m 465.75018,310.83102 c 0,-3.56443 0.95703,-6.35496 2.8711,-8.37158 1.91405,-2.01658 4.38475,-3.02488 7.41211,-3.0249 1.9824,2e-5 3.76951,0.47365 5.36132,1.4209 1.59178,0.94728 2.80516,2.26808 3.64014,3.9624 0.83494,1.69435 1.25242,3.61574 1.25244,5.76416 -2e-5,2.17774 -0.43947,4.12598 -1.31836,5.84473 -0.87892,1.71875 -2.12404,3.02002 -3.73535,3.90381 -1.61134,0.88379 -3.34962,1.32568 -5.21484,1.32568 -2.0215,0 -3.82814,-0.48828 -5.41992,-1.46484 -1.59181,-0.97656 -2.79786,-2.30957 -3.61817,-3.99903 -0.82031,-1.68944 -1.23047,-3.47655 -1.23047,-5.36133 z m 2.92969,0.0439 c 0,2.5879 0.6958,4.62647 2.0874,6.11572 1.3916,1.48926 3.1372,2.23389 5.23682,2.23389 2.13866,0 3.89891,-0.75195 5.28076,-2.25586 1.38182,-1.5039 2.07274,-3.63769 2.07275,-6.40137 -10e-6,-1.74803 -0.29542,-3.27391 -0.88623,-4.57763 -0.59083,-1.3037 -1.45509,-2.31444 -2.59277,-3.03223 -1.13771,-0.71776 -2.41456,-1.07664 -3.83057,-1.07666 -2.01172,2e-5 -3.74268,0.69094 -5.19287,2.07275 -1.4502,1.38185 -2.17529,3.68898 -2.17529,6.92139 z"
         style="font-size:30px;fill:#000000;font-family:helvetica"
         id="path4420" />
    </g>
    <g
       style="font-size:30px;fill:#000000;font-family:helvetica"
       id="text4347">
      <path
         d="m 513.58514,242 0,-21.47461 2.91504,0 11.2793,16.86035 0,-16.86035 2.72461,0 0,21.47461 -2.91504,0 -11.2793,-16.875 0,16.875 z"
         style="font-size:30px;fill:#000000;font-family:helvetica"
         id="path4423" />
    </g>
    <g
       style="font-size:30px;fill:#000000;font-family:helvetica"
       id="text4349">
      <path
         d="m 559.58514,321.26999 0,-21.47461 2.91504,0 11.2793,16.86035 0,-16.86035 2.72461,0 0,21.47461 -2.91504,0 -11.2793,-16.875 0,16.875 z"
         style="font-size:30px;fill:#000000;font-family:helvetica"
         id="path4426" />
    </g>
    <g
       style="font-size:30px;fill:#000000;font-family:helvetica"
       id="text4351">
      <path
         d="m 574.93671,366.60071 2.84179,0.71777 c -0.59572,2.33399 -1.6675,4.11377 -3.21533,5.33936 -1.54787,1.22558 -3.43995,1.83838 -5.67627,1.83838 -2.31446,0 -4.19678,-0.4712 -5.64697,-1.41358 -1.4502,-0.94238 -2.55372,-2.30712 -3.31055,-4.09424 -0.75684,-1.7871 -1.13525,-3.70604 -1.13525,-5.75683 0,-2.23632 0.42724,-4.187 1.28174,-5.85205 0.85449,-1.66502 2.0703,-2.92967 3.64746,-3.79395 1.57714,-0.86424 3.31298,-1.29636 5.20752,-1.29639 2.14842,3e-5 3.95506,0.5469 5.41992,1.64063 1.46482,1.09377 2.48533,2.63185 3.06152,4.61426 l -2.79785,0.65918 c -0.49806,-1.56249 -1.22072,-2.70018 -2.16797,-3.41309 -0.94728,-0.71287 -2.13868,-1.06932 -3.57422,-1.06933 -1.6504,1e-5 -3.02979,0.39552 -4.13818,1.18652 -1.1084,0.79103 -1.88721,1.85304 -2.33643,3.18603 -0.44922,1.33303 -0.67383,2.70754 -0.67382,4.12354 -1e-5,1.82618 0.2661,3.42042 0.79834,4.78271 0.53222,1.36231 1.35985,2.38038 2.48291,3.0542 1.12303,0.67383 2.33885,1.01075 3.64746,1.01075 1.59178,0 2.93944,-0.45899 4.04297,-1.37696 1.10349,-0.91796 1.85056,-2.28027 2.24121,-4.08691 z"
         style="font-size:30px;fill:#000000;font-family:helvetica"
         id="path4429" />
      <path
         d="m 581.38202,374.13 0,-21.4746 2.8418,0 0,8.81835 11.16211,0 0,-8.81835 2.84179,0 0,21.4746 -2.84179,0 0,-10.12207 -11.16211,0 0,10.12207 z"
         style="font-size:30px;fill:#000000;font-family:helvetica"
         id="path4431" />
      <path
         d="m 601.60419,375.8783 1.97754,-0.26368 c 0.22704,1.12061 0.6134,1.92811 1.15905,2.42249 0.54565,0.49439 1.21033,0.74158 1.99402,0.74158 0.93017,0 1.71569,-0.32227 2.35657,-0.9668 0.64086,-0.64453 0.96129,-1.44287 0.9613,-2.39502 -1e-5,-0.9082 -0.29664,-1.6571 -0.88989,-2.2467 -0.59327,-0.5896 -1.34766,-0.8844 -2.26318,-0.8844 -0.37354,0 -0.83863,0.0732 -1.39527,0.21972 l 0.21973,-1.73584 c 0.13183,0.0147 0.23803,0.022 0.3186,0.022 0.84228,10e-6 1.60034,-0.21972 2.27417,-0.65918 0.67382,-0.43945 1.01074,-1.11694 1.01075,-2.03247 -10e-6,-0.72509 -0.24537,-1.32567 -0.73609,-1.80176 -0.49073,-0.47606 -1.12427,-0.7141 -1.90063,-0.71411 -0.76905,10e-6 -1.40992,0.24171 -1.92261,0.72509 -0.5127,0.48342 -0.84229,1.20851 -0.98877,2.1753 l -1.97754,-0.35157 c 0.2417,-1.32567 0.79101,-2.35289 1.64795,-3.08166 0.85693,-0.72874 1.9226,-1.09312 3.19702,-1.09314 0.8789,2e-5 1.68823,0.18861 2.42798,0.5658 0.73974,0.37721 1.30553,0.89173 1.69739,1.54357 0.39183,0.65187 0.58776,1.34401 0.58777,2.07642 -10e-6,0.69581 -0.18678,1.32936 -0.56031,1.90064 -0.37354,0.57129 -0.92652,1.0254 -1.65893,1.3623 0.95214,0.21974 1.69188,0.67567 2.21924,1.3678 0.52733,0.69214 0.791,1.55823 0.79101,2.59826 -10e-6,1.40626 -0.5127,2.59827 -1.53808,3.57605 -1.0254,0.97779 -2.32179,1.46668 -3.88916,1.46668 -1.41358,0 -2.58729,-0.42114 -3.52112,-1.26343 -0.93384,-0.84228 -1.46668,-1.93359 -1.59851,-3.27392 z"
         style="font-size:75%;baseline-shift:sub"
         id="path4433" />
    </g>
    <g
       style="font-size:30px;fill:#000000;font-family:helvetica"
       id="text4355">
      <path
         d="m 430.70233,215.57001 0,-21.47461 2.8418,0 0,8.81836 11.16211,0 0,-8.81836 2.84179,0 0,21.47461 -2.84179,0 0,-10.12207 -11.16211,0 0,10.12207 z"
         style="font-size:30px;fill:#000000;font-family:helvetica"
         id="path4436" />
      <path
         d="m 450.9245,217.3183 1.97754,-0.26367 c 0.22705,1.12061 0.6134,1.9281 1.15906,2.42248 0.54565,0.49439 1.21032,0.74158 1.99401,0.74158 0.93017,0 1.7157,-0.32226 2.35657,-0.9668 0.64086,-0.64453 0.9613,-1.44287 0.96131,-2.39502 -1e-5,-0.90819 -0.29664,-1.6571 -0.8899,-2.2467 -0.59327,-0.58959 -1.34766,-0.88439 -2.26318,-0.8844 -0.37354,10e-6 -0.83863,0.0733 -1.39526,0.21973 l 0.21972,-1.73584 c 0.13183,0.0146 0.23803,0.022 0.31861,0.022 0.84228,1e-5 1.60033,-0.21972 2.27417,-0.65918 0.67382,-0.43944 1.01073,-1.11693 1.01074,-2.03247 -1e-5,-0.72509 -0.24537,-1.32567 -0.73609,-1.80176 -0.49073,-0.47606 -1.12427,-0.7141 -1.90063,-0.71411 -0.76905,1e-5 -1.40992,0.24171 -1.92261,0.7251 -0.5127,0.48341 -0.84229,1.20851 -0.98877,2.17529 l -1.97754,-0.35156 c 0.2417,-1.32567 0.79102,-2.35289 1.64795,-3.08167 0.85693,-0.72874 1.92261,-1.09312 3.19702,-1.09314 0.8789,2e-5 1.68823,0.18862 2.42798,0.5658 0.73974,0.37721 1.30553,0.89174 1.69739,1.54358 0.39184,0.65187 0.58776,1.344 0.58777,2.07641 -1e-5,0.69582 -0.18678,1.32936 -0.5603,1.90064 -0.37355,0.5713 -0.92653,1.0254 -1.65894,1.3623 0.95214,0.21974 1.69188,0.67567 2.21924,1.3678 0.52733,0.69215 0.791,1.55823 0.79101,2.59827 -10e-6,1.40625 -0.5127,2.59827 -1.53808,3.57605 -1.0254,0.97778 -2.32179,1.46667 -3.88916,1.46667 -1.41358,0 -2.58729,-0.42114 -3.52112,-1.26343 -0.93384,-0.84228 -1.46668,-1.93359 -1.59851,-3.27392 z"
         style="font-size:75%;baseline-shift:sub"
         id="path4438" />
      <path
         d="m 480.14081,208.04071 2.84179,0.71777 c -0.59572,2.33399 -1.66749,4.11378 -3.21533,5.33936 -1.54786,1.22559 -3.43995,1.83838 -5.67627,1.83838 -2.31446,0 -4.19678,-0.47119 -5.64697,-1.41358 -1.4502,-0.94238 -2.55371,-2.30712 -3.31055,-4.09423 -0.75683,-1.78711 -1.13525,-3.70605 -1.13525,-5.75684 0,-2.23632 0.42724,-4.187 1.28174,-5.85205 0.85449,-1.66502 2.07031,-2.92967 3.64746,-3.79395 1.57714,-0.86423 3.31298,-1.29636 5.20752,-1.29638 2.14842,2e-5 3.95506,0.54689 5.41992,1.64062 1.46483,1.09377 2.48533,2.63186 3.06152,4.61426 l -2.79785,0.65918 c -0.49806,-1.56248 -1.22072,-2.70018 -2.16797,-3.41309 -0.94728,-0.71287 -2.13868,-1.06931 -3.57422,-1.06933 -1.6504,2e-5 -3.02979,0.39552 -4.13818,1.18652 -1.1084,0.79103 -1.88721,1.85304 -2.33642,3.18604 -0.44923,1.33302 -0.67384,2.70753 -0.67383,4.12353 -10e-6,1.82618 0.26611,3.42042 0.79834,4.78272 0.53222,1.36231 1.35985,2.38037 2.48291,3.0542 1.12304,0.67383 2.33885,1.01074 3.64746,1.01074 1.59178,0 2.93944,-0.45898 4.04297,-1.37696 1.1035,-0.91796 1.85057,-2.28026 2.24121,-4.08691 z"
         style="font-size:30px;fill:#000000;font-family:helvetica"
         id="path4440" />
    </g>
  </g>
  <cdml:cdml
     version="0.15">
    <cdml:info>
      <cdml:author_program
         version="0.13.0">BKchem</cdml:author_program>
    </cdml:info>
    <cdml:paper
       crop_margin="5"
       crop_svg="1"
       orientation="portrait"
       replace_minus="0"
       type="Legal"
       use_real_minus="0" />
    <cdml:viewport
       viewport="0.000000 0.000000 640.000000 480.000000" />
    <cdml:standard
       area_color=""
       font_family="helvetica"
       font_size="24"
       line_color="#000"
       line_width="0.06cm"
       paper_crop_margin="5"
       paper_crop_svg="1"
       paper_orientation="portrait"
       paper_type="Legal">
      <cdml:bond
         double-ratio="0.85"
         length="1.4cm"
         wedge-width="0.18cm"
         width="0.21cm" />
      <cdml:arrow
         length="1.6cm" />
      <cdml:atom
         show_hydrogens="0" />
    </cdml:standard>
    <cdml:molecule
       id="molecule85596"
       name="">
      <cdml:atom
         id="atom63996"
         name="Mo"
         pos="center-first"
         valency="3">
        <cdml:point
           x="9.561cm"
           y="9.693cm" />
      </cdml:atom>
      <cdml:atom
         id="atom23876"
         name="O"
         pos="center-first"
         valency="2">
        <cdml:point
           x="10.261cm"
           y="8.481cm" />
      </cdml:atom>
      <cdml:atom
         id="atom37395"
         name="O"
         pos="center-first"
         valency="2">
        <cdml:point
           x="8.861cm"
           y="8.481cm" />
      </cdml:atom>
      <cdml:atom
         id="atom5193"
         name="O"
         pos="center-first"
         valency="2">
        <cdml:point
           x="8.161cm"
           y="9.693cm" />
      </cdml:atom>
      <cdml:atom
         id="atom18104"
         name="O"
         pos="center-first"
         valency="2">
        <cdml:point
           x="8.861cm"
           y="10.906cm" />
      </cdml:atom>
      <cdml:atom
         id="atom10795"
         name="O"
         pos="center-first"
         valency="2">
        <cdml:point
           x="10.261cm"
           y="10.906cm" />
      </cdml:atom>
      <cdml:bond
         double_ratio="0.85"
         end="atom37395"
         id="bond79142"
         line_width="2.26548672566"
         start="atom63996"
         type="n1" />
      <cdml:bond
         double_ratio="0.85"
         end="atom10795"
         id="bond34870"
         line_width="2.26548672566"
         start="atom18104"
         type="n1" />
      <cdml:bond
         bond_width="7.92920353982"
         center="yes"
         double_ratio="0.85"
         end="atom5193"
         id="bond11446"
         line_width="2.26548672566"
         start="atom63996"
         type="n2" />
      <cdml:bond
         double_ratio="0.85"
         end="atom23876"
         id="bond13347"
         line_width="2.26548672566"
         start="atom63996"
         type="n1" />
      <cdml:bond
         double_ratio="0.85"
         end="atom10795"
         id="bond98970"
         line_width="2.26548672566"
         start="atom63996"
         type="n1" />
      <cdml:bond
         double_ratio="0.85"
         end="atom37395"
         id="bond5939"
         line_width="2.26548672566"
         start="atom23876"
         type="n1" />
      <cdml:bond
         double_ratio="0.85"
         end="atom18104"
         id="bond59506"
         line_width="2.26548672566"
         start="atom63996"
         type="n1" />
    </cdml:molecule>
    <cdml:arrow
       color="#000"
       end="yes"
       id="arrow83654"
       shape="(8, 10, 3)"
       spline="no"
       start="no"
       type="normal"
       width="2.26548672566">
      <cdml:point
         x="11.944cm"
         y="10.726cm" />
      <cdml:point
         x="10.559cm"
         y="9.926cm" />
    </cdml:arrow>
    <cdml:arrow
       color="#000"
       end="yes"
       id="arrow52172"
       shape="(8, 10, 3)"
       spline="no"
       start="no"
       type="normal"
       width="2.26548672566">
      <cdml:point
         x="11.944cm"
         y="8.766cm" />
      <cdml:point
         x="10.559cm"
         y="9.566cm" />
    </cdml:arrow>
    <cdml:molecule
       id="molecule82829"
       name="">
      <cdml:atom
         id="atom6183"
         name="C"
         valency="4">
        <cdml:point
           x="13.646cm"
           y="10.291cm" />
      </cdml:atom>
      <cdml:atom
         id="atom99375"
         name="C"
         valency="4">
        <cdml:point
           x="14.858cm"
           y="10.991cm" />
      </cdml:atom>
      <cdml:atom
         id="atom81570"
         name="C"
         valency="4">
        <cdml:point
           x="14.858cm"
           y="12.389cm" />
      </cdml:atom>
      <cdml:atom
         id="atom20621"
         name="C"
         valency="4">
        <cdml:point
           x="12.433cm"
           y="12.389cm" />
      </cdml:atom>
      <cdml:atom
         id="atom96466"
         name="C"
         valency="4">
        <cdml:point
           x="13.646cm"
           y="13.089cm" />
      </cdml:atom>
      <cdml:atom
         id="atom10015"
         name="N"
         pos="center-first"
         valency="3">
        <cdml:point
           x="12.433cm"
           y="10.991cm" />
      </cdml:atom>
      <cdml:bond
         double_ratio="0.85"
         end="atom6183"
         id="bond40361"
         line_width="2.26548672566"
         start="atom10015"
         type="n1" />
      <cdml:bond
         double_ratio="0.85"
         end="atom81570"
         id="bond21531"
         line_width="2.26548672566"
         start="atom99375"
         type="n1" />
      <cdml:bond
         double_ratio="0.85"
         end="atom96466"
         id="bond70779"
         line_width="2.26548672566"
         start="atom20621"
         type="n1" />
      <cdml:bond
         bond_width="-7.92920353982"
         center="no"
         double_ratio="0.85"
         end="atom96466"
         id="bond70549"
         line_width="2.26548672566"
         start="atom81570"
         type="n2" />
      <cdml:bond
         bond_width="-7.92920353982"
         center="no"
         double_ratio="0.85"
         end="atom99375"
         id="bond27112"
         line_width="2.26548672566"
         start="atom6183"
         type="n2" />
      <cdml:bond
         bond_width="7.92920353982"
         center="no"
         double_ratio="0.85"
         end="atom20621"
         id="bond38834"
         line_width="2.26548672566"
         start="atom10015"
         type="n2" />
    </cdml:molecule>
    <cdml:molecule
       id="molecule55242"
       name="">
      <cdml:atom
         id="atom37738"
         name="C"
         valency="4">
        <cdml:point
           x="16.288cm"
           y="7.624cm" />
      </cdml:atom>
      <cdml:atom
         id="atom16406"
         name="C"
         valency="4">
        <cdml:point
           x="16.288cm"
           y="6.224cm" />
      </cdml:atom>
      <cdml:atom
         id="atom44631"
         name="C"
         valency="4">
        <cdml:point
           x="15.075cm"
           y="5.524cm" />
      </cdml:atom>
      <cdml:atom
         id="atom37625"
         name="C"
         valency="4">
        <cdml:point
           x="13.862cm"
           y="7.624cm" />
      </cdml:atom>
      <cdml:atom
         id="atom95852"
         name="O"
         pos="center-first"
         valency="2">
        <cdml:point
           x="12.650cm"
           y="8.324cm" />
      </cdml:atom>
      <cdml:atom
         id="atom8781"
         name="N"
         pos="center-first"
         valency="3">
        <cdml:point
           x="13.862cm"
           y="6.224cm" />
      </cdml:atom>
      <cdml:atom
         id="atom85301"
         name="N"
         pos="center-first"
         valency="3">
        <cdml:point
           x="15.075cm"
           y="8.323cm" />
      </cdml:atom>
      <cdml:atom
         hydrogens="on"
         id="atom25022"
         name="C"
         pos="center-first"
         show="yes"
         valency="4">
        <cdml:point
           x="15.075cm"
           y="9.723cm" />
      </cdml:atom>
      <cdml:atom
         hydrogens="on"
         id="atom10802"
         name="C"
         pos="center-last"
         show="yes"
         valency="4">
        <cdml:point
           x="12.650cm"
           y="5.524cm" />
      </cdml:atom>
      <cdml:bond
         double_ratio="0.85"
         end="atom16406"
         id="bond38207"
         line_width="2.26548672566"
         start="atom37738"
         type="n1" />
      <cdml:bond
         double_ratio="0.85"
         end="atom25022"
         id="bond26018"
         line_width="2.26548672566"
         start="atom85301"
         type="n1" />
      <cdml:bond
         double_ratio="0.85"
         end="atom8781"
         id="bond96484"
         line_width="2.26548672566"
         start="atom44631"
         type="n1" />
      <cdml:bond
         double_ratio="0.85"
         end="atom85301"
         id="bond96729"
         line_width="2.26548672566"
         start="atom37625"
         type="n1" />
      <cdml:bond
         double_ratio="0.85"
         end="atom37738"
         id="bond37346"
         line_width="2.26548672566"
         start="atom85301"
         type="n1" />
      <cdml:bond
         double_ratio="0.85"
         end="atom37625"
         id="bond15477"
         line_width="2.26548672566"
         start="atom8781"
         type="n1" />
      <cdml:bond
         double_ratio="0.85"
         end="atom44631"
         id="bond55281"
         line_width="2.26548672566"
         start="atom16406"
         type="n1" />
      <cdml:bond
         double_ratio="0.85"
         end="atom10802"
         id="bond95581"
         line_width="2.26548672566"
         start="atom8781"
         type="n1" />
      <cdml:bond
         bond_width="7.92920353982"
         center="yes"
         double_ratio="0.85"
         end="atom95852"
         id="bond21533"
         line_width="2.26548672566"
         start="atom37625"
         type="n2" />
    </cdml:molecule>
  </cdml:cdml>
</svg>
