<?xml version="1.0" encoding="UTF-8" standalone="no"?>
<svg
   xmlns:cdml="http://www.freesoftware.fsf.org/bkchem/cdml"
   xmlns:dc="http://purl.org/dc/elements/1.1/"
   xmlns:cc="http://creativecommons.org/ns#"
   xmlns:rdf="http://www.w3.org/1999/02/22-rdf-syntax-ns#"
   xmlns:svg="http://www.w3.org/2000/svg"
   xmlns="http://www.w3.org/2000/svg"
   xmlns:sodipodi="http://sodipodi.sourceforge.net/DTD/sodipodi-0.dtd"
   xmlns:inkscape="http://www.inkscape.org/namespaces/inkscape"
   height="35.72754mm"
   version="1.0"
   viewBox="0 0 385 135"
   width="101.88965mm"
   id="svg5890"
   inkscape:version="0.48.1 "
   sodipodi:docname="mops.svg">
  <metadata
     id="metadata5966">
    <rdf:RDF>
      <cc:Work
         rdf:about="">
        <dc:format>image/svg+xml</dc:format>
        <dc:type
           rdf:resource="http://purl.org/dc/dcmitype/StillImage" />
        <dc:title></dc:title>
      </cc:Work>
    </rdf:RDF>
  </metadata>
  <defs
     id="defs5964" />
  <sodipodi:namedview
     pagecolor="#ffffff"
     bordercolor="#666666"
     borderopacity="1"
     objecttolerance="10"
     gridtolerance="10"
     guidetolerance="10"
     inkscape:pageopacity="0"
     inkscape:pageshadow="2"
     inkscape:window-width="640"
     inkscape:window-height="480"
     id="namedview5962"
     showgrid="false"
     inkscape:zoom="1.4126394"
     inkscape:cx="180.51315"
     inkscape:cy="63.296822"
     inkscape:window-x="0"
     inkscape:window-y="0"
     inkscape:window-maximized="0"
     inkscape:current-layer="svg5890" />
  <g
     font-family="Helvetica"
     font-size="12pt"
     stroke-linecap="round"
     transform="translate(-201,-219)"
     id="g5892">
    <g
       stroke="#000000"
       stroke-linecap="butt"
       stroke-width="2.26715867159"
       id="g5894">
      <path
         style=""
         d="m 505.26999,277.5 8.09,14"
         id="line5896" />
      <path
         style=""
         d="m 500.07999,280.5 8.08001,14"
         id="line5898" />
    </g>
    <g
       stroke="#000000"
       stroke-width="2.26715867159"
       id="g5900">
      <path
         style=""
         d="M 403.81,266.45001 449.62,240"
         id="line5902" />
    </g>
    <g
       stroke="#000000"
       stroke-linecap="butt"
       stroke-width="2.26715867159"
       id="g5904">
      <path
         style=""
         d="m 490.78,280.5 -8.07999,14"
         id="line5906" />
      <path
         style=""
         d="m 485.59,277.5 -8.09,14"
         id="line5908" />
    </g>
    <g
       stroke="#000000"
       stroke-width="2.26715867159"
       id="g5910">
      <path
         style=""
         d="m 266.34,240.10001 -45.80001,26.47998"
         id="line5912" />
    </g>
    <g
       stroke="#000000"
       stroke-width="2.26715867159"
       id="g5914">
      <path
         style=""
         d="M 266.45999,345.85999 312.26001,319.38"
         id="line5916" />
    </g>
    <g
       stroke="#000000"
       stroke-width="2.26715867159"
       id="g5918">
      <path
         style=""
         d="M 220.53999,266.57999 220.58,300"
         id="line5920" />
    </g>
    <g
       stroke="#000000"
       stroke-width="2.26715867159"
       id="g5922">
      <path
         style=""
         d="M 449.62,240 483,259.26999"
         id="line5924" />
    </g>
    <g
       stroke="#000000"
       stroke-width="2.26715867159"
       id="g5926">
      <path
         style=""
         d="m 299,258.89001 -32.66,-18.79"
         id="line5928" />
    </g>
    <g
       stroke="#000000"
       stroke-width="2.26715867159"
       id="g5930">
      <path
         style=""
         d="m 235,327.76999 31.45999,18.09"
         id="line5932" />
    </g>
    <g
       stroke="#000000"
       stroke-width="2.26715867159"
       id="g5934">
      <path
         style=""
         d="M 403.81,266.45001 358,240"
         id="line5936" />
    </g>
    <g
       stroke="#000000"
       stroke-linecap="butt"
       stroke-width="2.26715867159"
       id="g5938">
      <path
         style=""
         d="m 508,260.41 21,-10.08"
         id="line5940" />
    </g>
    <g
       stroke="#000000"
       stroke-width="2.26715867159"
       id="g5942">
      <path
         style=""
         d="m 312.26001,319.38 -0.05,-40.38"
         id="line5944" />
    </g>
    <g
       stroke="#000000"
       stroke-width="2.26715867159"
       id="g5946">
      <path
         style=""
         d="M 326,258.5 358,240"
         id="line5948" />
    </g>
    <g
       style="font-size:30px;fill:#000000;font-family:helvetica"
       id="text5950">
      <path
         d="m 485.64764,266.5506 2.68067,-0.23438 c 0.12695,1.07423 0.42236,1.95557 0.88623,2.64405 0.46386,0.68848 1.18407,1.24512 2.16064,1.66992 0.97656,0.42481 2.07519,0.63721 3.2959,0.63721 1.08397,0 2.041,-0.16114 2.8711,-0.4834 0.83006,-0.32227 1.44773,-0.76416 1.85302,-1.32569 0.40526,-0.56152 0.6079,-1.17431 0.60791,-1.83838 -10e-6,-0.67382 -0.19533,-1.2622 -0.58593,-1.76513 -0.39064,-0.50292 -1.03518,-0.92529 -1.9336,-1.26709 -0.57618,-0.2246 -1.8506,-0.57372 -3.82324,-1.04737 -1.97266,-0.47362 -3.3545,-0.9204 -4.14551,-1.34033 -1.02539,-0.5371 -1.78955,-1.2036 -2.29248,-1.99951 -0.50293,-0.79588 -0.7544,-1.687 -0.75439,-2.67334 -1e-5,-1.08397 0.30761,-2.09715 0.92285,-3.03955 0.61523,-0.94236 1.51367,-1.65769 2.69531,-2.146 1.18163,-0.48826 2.49511,-0.7324 3.94043,-0.73242 1.59179,2e-5 2.99559,0.25637 4.21143,0.76904 1.2158,0.51272 2.15086,1.26711 2.80517,2.26319 0.65428,0.99611 1.00584,2.12404 1.05469,3.38379 l -2.72461,0.20508 c -0.1465,-1.35741 -0.6421,-2.3828 -1.48682,-3.07618 -0.84474,-0.69334 -2.09229,-1.04002 -3.74267,-1.04004 -1.71876,2e-5 -2.9712,0.31497 -3.75733,0.94483 -0.78613,0.6299 -1.1792,1.38918 -1.1792,2.27783 0,0.7715 0.27832,1.40627 0.83497,1.9043 0.54686,0.49806 1.97509,1.00831 4.28466,1.53076 2.30956,0.52247 3.89403,0.97902 4.75342,1.36963 1.24999,0.57618 2.17284,1.30616 2.76856,2.18994 0.59568,0.8838 0.89353,1.90186 0.89355,3.0542 -2e-5,1.14258 -0.32717,2.21924 -0.98144,3.22998 -0.65432,1.01074 -1.59426,1.79688 -2.81983,2.3584 -1.2256,0.56152 -2.60499,0.84228 -4.13818,0.84228 -1.94337,0 -3.57179,-0.2832 -4.88526,-0.84961 -1.31348,-0.5664 -2.34375,-1.41845 -3.09082,-2.55615 -0.74707,-1.13769 -1.14013,-2.42431 -1.1792,-3.85986 z"
         style="font-size:30px;fill:#000000;font-family:helvetica"
         id="path5984" />
    </g>
    <g
       style="font-size:30px;fill:#000000;font-family:helvetica"
       id="text5952">
      <path
         d="m 456.75018,308.80103 c 0,-3.56444 0.95703,-6.35497 2.8711,-8.37159 1.91405,-2.01658 4.38475,-3.02488 7.41211,-3.0249 1.9824,2e-5 3.76951,0.47366 5.36132,1.4209 1.59178,0.94728 2.80516,2.26808 3.64014,3.9624 0.83494,1.69435 1.25242,3.61574 1.25244,5.76416 -2e-5,2.17774 -0.43947,4.12599 -1.31836,5.84473 -0.87892,1.71875 -2.12404,3.02002 -3.73535,3.90381 -1.61134,0.88379 -3.34962,1.32568 -5.21484,1.32568 -2.0215,0 -3.82814,-0.48828 -5.41992,-1.46484 -1.59181,-0.97656 -2.79786,-2.30957 -3.61817,-3.99903 -0.82031,-1.68944 -1.23047,-3.47655 -1.23047,-5.36132 z m 2.92969,0.0439 c 0,2.5879 0.6958,4.62647 2.0874,6.11572 1.3916,1.48926 3.1372,2.23389 5.23682,2.23389 2.13866,0 3.89891,-0.75195 5.28076,-2.25586 1.38182,-1.5039 2.07274,-3.63769 2.07275,-6.40137 -10e-6,-1.74803 -0.29542,-3.27391 -0.88623,-4.57763 -0.59083,-1.3037 -1.45509,-2.31444 -2.59277,-3.03223 -1.13771,-0.71775 -2.41456,-1.07664 -3.83057,-1.07666 -2.01172,2e-5 -3.74268,0.69094 -5.19287,2.07275 -1.4502,1.38186 -2.17529,3.68898 -2.17529,6.92139 z"
         style="font-size:30px;fill:#000000;font-family:helvetica"
         id="path5987" />
    </g>
    <g
       style="font-size:30px;fill:#000000;font-family:helvetica"
       id="text5954">
      <path
         d="m 509.75018,308.80103 c 0,-3.56444 0.95703,-6.35497 2.8711,-8.37159 1.91405,-2.01658 4.38475,-3.02488 7.41211,-3.0249 1.9824,2e-5 3.76951,0.47366 5.36132,1.4209 1.59178,0.94728 2.80516,2.26808 3.64014,3.9624 0.83494,1.69435 1.25242,3.61574 1.25244,5.76416 -2e-5,2.17774 -0.43947,4.12599 -1.31836,5.84473 -0.87892,1.71875 -2.12404,3.02002 -3.73535,3.90381 -1.61134,0.88379 -3.34962,1.32568 -5.21484,1.32568 -2.0215,0 -3.82814,-0.48828 -5.41992,-1.46484 -1.59181,-0.97656 -2.79786,-2.30957 -3.61817,-3.99903 -0.82031,-1.68944 -1.23047,-3.47655 -1.23047,-5.36132 z m 2.92969,0.0439 c 0,2.5879 0.6958,4.62647 2.0874,6.11572 1.3916,1.48926 3.1372,2.23389 5.23682,2.23389 2.13866,0 3.89891,-0.75195 5.28076,-2.25586 1.38182,-1.5039 2.07274,-3.63769 2.07275,-6.40137 -1e-5,-1.74803 -0.29542,-3.27391 -0.88623,-4.57763 -0.59083,-1.3037 -1.45509,-2.31444 -2.59277,-3.03223 -1.13771,-0.71775 -2.41456,-1.07664 -3.83057,-1.07666 -2.01172,2e-5 -3.74268,0.69094 -5.19287,2.07275 -1.4502,1.38186 -2.17529,3.68898 -2.17529,6.92139 z"
         style="font-size:30px;fill:#000000;font-family:helvetica"
         id="path5990" />
    </g>
    <g
       style="font-size:30px;fill:#000000;font-family:helvetica"
       id="text5956">
      <path
         d="m 531.75018,239.99101 c 0,-3.56444 0.95703,-6.35496 2.8711,-8.37158 1.91405,-2.01658 4.38475,-3.02488 7.41211,-3.0249 1.9824,2e-5 3.76951,0.47365 5.36132,1.4209 1.59178,0.94728 2.80516,2.26808 3.64014,3.9624 0.83494,1.69435 1.25242,3.61573 1.25244,5.76416 -2e-5,2.17774 -0.43947,4.12598 -1.31836,5.84473 -0.87892,1.71875 -2.12404,3.02002 -3.73535,3.9038 -1.61134,0.88379 -3.34962,1.32569 -5.21484,1.32569 -2.0215,0 -3.82814,-0.48828 -5.41992,-1.46485 -1.59181,-0.97656 -2.79786,-2.30956 -3.61817,-3.99902 -0.82031,-1.68945 -1.23047,-3.47655 -1.23047,-5.36133 z m 2.92969,0.044 c 0,2.5879 0.6958,4.62647 2.0874,6.11572 1.3916,1.48926 3.1372,2.23389 5.23682,2.23389 2.13866,0 3.89891,-0.75195 5.28076,-2.25586 1.38182,-1.5039 2.07274,-3.63769 2.07275,-6.40137 -1e-5,-1.74803 -0.29542,-3.27391 -0.88623,-4.57764 -0.59083,-1.30369 -1.45509,-2.31443 -2.59277,-3.03222 -1.13771,-0.71776 -2.41456,-1.07664 -3.83057,-1.07666 -2.01172,2e-5 -3.74268,0.69093 -5.19287,2.07275 -1.4502,1.38185 -2.17529,3.68898 -2.17529,6.92139 z"
         style="font-size:30px;fill:#000000;font-family:helvetica"
         id="path5993" />
      <path
         d="m 556.02264,250.45 0,-21.47461 2.8418,0 0,8.81836 11.16211,0 0,-8.81836 2.8418,0 0,21.47461 -2.8418,0 0,-10.12207 -11.16211,0 0,10.12207 z"
         style="font-size:30px;fill:#000000;font-family:helvetica"
         id="path5995" />
    </g>
    <g
       style="font-size:30px;fill:#000000;font-family:helvetica"
       id="text5958">
      <path
         d="m 302.58514,273.48001 0,-21.47461 2.91504,0 11.2793,16.86035 0,-16.86035 2.72461,0 0,21.47461 -2.91504,0 -11.2793,-16.875 0,16.875 z"
         style="font-size:30px;fill:#000000;font-family:helvetica"
         id="path5998" />
    </g>
    <g
       style="font-size:30px;fill:#000000;font-family:helvetica"
       id="text5960">
      <path
         d="m 208.7502,316.03101 c 0,-3.56444 0.95703,-6.35497 2.87109,-8.37159 1.91406,-2.01658 4.38476,-3.02488 7.41211,-3.0249 1.98241,2e-5 3.76952,0.47366 5.36133,1.4209 1.59178,0.94729 2.80516,2.26808 3.64014,3.9624 0.83494,1.69435 1.25242,3.61574 1.25244,5.76416 -2e-5,2.17775 -0.43948,4.12599 -1.31836,5.84473 -0.87893,1.71875 -2.12404,3.02002 -3.73535,3.90381 -1.61135,0.88379 -3.34963,1.32568 -5.21485,1.32568 -2.02149,0 -3.82813,-0.48828 -5.41992,-1.46484 -1.5918,-0.97656 -2.79785,-2.30957 -3.61816,-3.99903 -0.82032,-1.68944 -1.23047,-3.47655 -1.23047,-5.36132 z m 2.92969,0.0439 c -1e-5,2.5879 0.69579,4.62647 2.0874,6.11572 1.39159,1.48926 3.1372,2.23389 5.23681,2.23389 2.13866,0 3.89891,-0.75195 5.28077,-2.25586 1.38181,-1.5039 2.07273,-3.63769 2.07275,-6.40137 -2e-5,-1.74803 -0.29543,-3.27391 -0.88623,-4.57763 -0.59084,-1.3037 -1.4551,-2.31444 -2.59277,-3.03223 -1.13771,-0.71775 -2.41457,-1.07664 -3.83057,-1.07666 -2.01173,2e-5 -3.74268,0.69094 -5.19287,2.07275 -1.4502,1.38186 -2.1753,3.68898 -2.17529,6.92139 z"
         style="font-size:30px;fill:#000000;font-family:helvetica"
         id="path6001" />
    </g>
  </g>
  <cdml:cdml
     version="0.15">
    <cdml:info>
      <cdml:author_program
         version="0.13.0">BKchem</cdml:author_program>
    </cdml:info>
    <cdml:paper
       crop_margin="5"
       crop_svg="1"
       orientation="portrait"
       replace_minus="0"
       type="Legal"
       use_real_minus="0" />
    <cdml:viewport
       viewport="0.000000 0.000000 640.000000 480.000000" />
    <cdml:standard
       area_color=""
       font_family="helvetica"
       font_size="24"
       line_color="#000"
       line_width="0.06cm"
       paper_crop_margin="5"
       paper_crop_svg="1"
       paper_orientation="portrait"
       paper_type="Legal">
      <cdml:bond
         double-ratio="0.85"
         length="1.4cm"
         wedge-width="0.18cm"
         width="0.21cm" />
      <cdml:arrow
         length="1.6cm" />
      <cdml:atom
         show_hydrogens="0" />
    </cdml:standard>
    <cdml:molecule
       id="molecule75911"
       name="">
      <cdml:atom
         id="atom58790"
         name="C"
         valency="4">
        <cdml:point
           x="10.687cm"
           y="7.052cm" />
      </cdml:atom>
      <cdml:atom
         id="atom68943"
         name="C"
         valency="4">
        <cdml:point
           x="11.899cm"
           y="6.352cm" />
      </cdml:atom>
      <cdml:atom
         id="atom76243"
         name="S"
         pos="center-first"
         valency="6">
        <cdml:point
           x="13.111cm"
           y="7.052cm" />
      </cdml:atom>
      <cdml:atom
         id="atom20376"
         name="O"
         pos="center-first"
         valency="2">
        <cdml:point
           x="12.411cm"
           y="8.264cm" />
      </cdml:atom>
      <cdml:atom
         id="atom24950"
         name="O"
         pos="center-first"
         valency="2">
        <cdml:point
           x="13.811cm"
           y="8.264cm" />
      </cdml:atom>
      <cdml:atom
         hydrogens="on"
         id="atom4264"
         name="O"
         pos="center-first"
         valency="2">
        <cdml:point
           x="14.379cm"
           y="6.443cm" />
      </cdml:atom>
      <cdml:atom
         id="atom10850"
         name="C"
         valency="4">
        <cdml:point
           x="9.474cm"
           y="6.352cm" />
      </cdml:atom>
      <cdml:atom
         id="atom38775"
         name="C"
         valency="4">
        <cdml:point
           x="7.052cm"
           y="9.153cm" />
      </cdml:atom>
      <cdml:atom
         id="atom50409"
         name="C"
         valency="4">
        <cdml:point
           x="8.264cm"
           y="8.452cm" />
      </cdml:atom>
      <cdml:atom
         id="atom31564"
         name="C"
         valency="4">
        <cdml:point
           x="7.049cm"
           y="6.354cm" />
      </cdml:atom>
      <cdml:atom
         id="atom69537"
         name="C"
         valency="4">
        <cdml:point
           x="5.837cm"
           y="7.055cm" />
      </cdml:atom>
      <cdml:atom
         id="atom45898"
         name="N"
         pos="center-first"
         valency="3">
        <cdml:point
           x="8.262cm"
           y="7.052cm" />
      </cdml:atom>
      <cdml:atom
         id="atom5904"
         name="O"
         pos="center-first"
         valency="2">
        <cdml:point
           x="5.838cm"
           y="8.455cm" />
      </cdml:atom>
      <cdml:bond
         bond_width="7.93505535055"
         center="yes"
         double_ratio="0.85"
         end="atom24950"
         id="bond66923"
         line_width="2.26715867159"
         start="atom76243"
         type="n2" />
      <cdml:bond
         double_ratio="0.85"
         end="atom68943"
         id="bond63308"
         line_width="2.26715867159"
         start="atom58790"
         type="n1" />
      <cdml:bond
         bond_width="7.93505535055"
         center="yes"
         double_ratio="0.85"
         end="atom20376"
         id="bond36167"
         line_width="2.26715867159"
         start="atom76243"
         type="n2" />
      <cdml:bond
         double_ratio="0.85"
         end="atom69537"
         id="bond91599"
         line_width="2.26715867159"
         start="atom31564"
         type="n1" />
      <cdml:bond
         double_ratio="0.85"
         end="atom50409"
         id="bond95248"
         line_width="2.26715867159"
         start="atom38775"
         type="n1" />
      <cdml:bond
         double_ratio="0.85"
         end="atom5904"
         id="bond95993"
         line_width="2.26715867159"
         start="atom69537"
         type="n1" />
      <cdml:bond
         double_ratio="0.85"
         end="atom76243"
         id="bond87495"
         line_width="2.26715867159"
         start="atom68943"
         type="n1" />
      <cdml:bond
         double_ratio="0.85"
         end="atom31564"
         id="bond68280"
         line_width="2.26715867159"
         start="atom45898"
         type="n1" />
      <cdml:bond
         double_ratio="0.85"
         end="atom38775"
         id="bond90474"
         line_width="2.26715867159"
         start="atom5904"
         type="n1" />
      <cdml:bond
         double_ratio="0.85"
         end="atom10850"
         id="bond20364"
         line_width="2.26715867159"
         start="atom58790"
         type="n1" />
      <cdml:bond
         double_ratio="0.85"
         end="atom4264"
         id="bond48160"
         line_width="2.26715867159"
         start="atom76243"
         type="n1" />
      <cdml:bond
         double_ratio="0.85"
         end="atom45898"
         id="bond91483"
         line_width="2.26715867159"
         start="atom50409"
         type="n1" />
      <cdml:bond
         double_ratio="0.85"
         end="atom10850"
         id="bond39741"
         line_width="2.26715867159"
         start="atom45898"
         type="n1" />
    </cdml:molecule>
  </cdml:cdml>
</svg>
