<?xml version="1.0" encoding="UTF-8" standalone="no"?>
<svg
   xmlns:cdml="http://www.freesoftware.fsf.org/bkchem/cdml"
   xmlns:dc="http://purl.org/dc/elements/1.1/"
   xmlns:cc="http://creativecommons.org/ns#"
   xmlns:rdf="http://www.w3.org/1999/02/22-rdf-syntax-ns#"
   xmlns:svg="http://www.w3.org/2000/svg"
   xmlns="http://www.w3.org/2000/svg"
   xmlns:sodipodi="http://sodipodi.sourceforge.net/DTD/sodipodi-0.dtd"
   xmlns:inkscape="http://www.inkscape.org/namespaces/inkscape"
   height="34.40430mm"
   version="1.0"
   viewBox="0 0 247 130"
   width="65.36816mm"
   id="svg3120"
   inkscape:version="0.48.1 "
   sodipodi:docname="mtbe.svg">
  <metadata
     id="metadata3176">
    <rdf:RDF>
      <cc:Work
         rdf:about="">
        <dc:format>image/svg+xml</dc:format>
        <dc:type
           rdf:resource="http://purl.org/dc/dcmitype/StillImage" />
        <dc:title></dc:title>
      </cc:Work>
    </rdf:RDF>
  </metadata>
  <defs
     id="defs3174" />
  <sodipodi:namedview
     pagecolor="#ffffff"
     bordercolor="#666666"
     borderopacity="1"
     objecttolerance="10"
     gridtolerance="10"
     guidetolerance="10"
     inkscape:pageopacity="0"
     inkscape:pageshadow="2"
     inkscape:window-width="640"
     inkscape:window-height="480"
     id="namedview3172"
     showgrid="false"
     inkscape:zoom="2.1574177"
     inkscape:cx="115.80972"
     inkscape:cy="60.952499"
     inkscape:window-x="0"
     inkscape:window-y="0"
     inkscape:window-maximized="0"
     inkscape:current-layer="svg3120" />
  <g
     font-family="Helvetica"
     font-size="12pt"
     stroke-linecap="round"
     transform="translate(-197,-105)"
     id="g3122">
    <g
       stroke="#000000"
       stroke-width="2.26715867159"
       id="g3124">
      <path
         style=""
         d="m 291.91,173.23 1.51001,-2.62"
         id="line3126" />
      <path
         style=""
         d="M 286.39001,170.48 288.28,167.21001"
         id="line3128" />
      <path
         style=""
         d="m 280.87,167.73 2.26,-3.93"
         id="line3130" />
      <path
         style=""
         d="m 275.34,164.97 2.64999,-4.58"
         id="line3132" />
      <path
         style=""
         d="M 269.82001,162.22 272.84,156.99001"
         id="line3134" />
      <path
         style=""
         d="m 264.29999,159.47 3.40002,-5.89"
         id="line3136" />
    </g>
    <g
       stroke="#000000"
       stroke-width="1.0"
       id="g3138">
      <path
         style="fill:#000000;stroke:#000000"
         d="m 298.57,175.98 -30.87,20.44 -3.4,-5.89 33.13,-16.51 z"
         id="polygon3140" />
    </g>
    <g
       stroke="#000000"
       stroke-linecap="butt"
       stroke-width="2.26715867159"
       id="g3142">
      <path
         style=""
         d="M 358,193.25999 376,182.87"
         id="line3144" />
    </g>
    <g
       stroke="#000000"
       stroke-width="2.26715867159"
       id="g3146">
      <path
         style=""
         d="m 298,175 19.04999,-33"
         id="line3148" />
    </g>
    <g
       stroke="#000000"
       stroke-width="2.26715867159"
       id="g3150">
      <path
         style=""
         d="m 298,175 31,17.89999"
         id="line3152" />
    </g>
    <g
       style="font-size:30px;fill:#000000;font-family:helvetica"
       id="text3154">
      <path
         d="m 394.93671,174.4707 2.84179,0.71778 c -0.59572,2.33399 -1.6675,4.11377 -3.21533,5.33935 -1.54787,1.22559 -3.43995,1.83838 -5.67627,1.83838 -2.31446,0 -4.19678,-0.47119 -5.64697,-1.41357 -1.4502,-0.94238 -2.55372,-2.30713 -3.31055,-4.09424 -0.75684,-1.7871 -1.13525,-3.70605 -1.13525,-5.75684 0,-2.23631 0.42724,-4.18699 1.28174,-5.85205 0.85449,-1.66502 2.0703,-2.92967 3.64746,-3.79394 1.57714,-0.86424 3.31298,-1.29637 5.20752,-1.29639 2.14842,2e-5 3.95506,0.5469 5.41992,1.64062 1.46482,1.09377 2.48533,2.63186 3.06152,4.61426 l -2.79785,0.65918 c -0.49806,-1.56248 -1.22072,-2.70018 -2.16797,-3.41308 -0.94728,-0.71288 -2.13868,-1.06932 -3.57422,-1.06934 -1.6504,2e-5 -3.02979,0.39553 -4.13818,1.18652 -1.1084,0.79104 -1.88721,1.85305 -2.33643,3.18604 -0.44922,1.33302 -0.67383,2.70753 -0.67382,4.12353 -10e-6,1.82619 0.2661,3.42042 0.79834,4.78272 0.53222,1.36231 1.35985,2.38037 2.48291,3.0542 1.12303,0.67383 2.33885,1.01074 3.64746,1.01074 1.59178,0 2.93944,-0.45898 4.04297,-1.37695 1.10349,-0.91797 1.85056,-2.28027 2.24121,-4.08692 z"
         style="font-size:30px;fill:#000000;font-family:helvetica"
         id="path3189" />
      <path
         d="m 401.38202,182 0,-21.47461 2.8418,0 0,8.81836 11.16211,0 0,-8.81836 2.84179,0 0,21.47461 -2.84179,0 0,-10.12207 -11.16211,0 0,10.12207 z"
         style="font-size:30px;fill:#000000;font-family:helvetica"
         id="path3191" />
      <path
         d="m 421.60419,183.74829 1.97754,-0.26367 c 0.22704,1.12061 0.6134,1.9281 1.15905,2.42248 0.54565,0.49439 1.21033,0.74158 1.99402,0.74158 0.93017,0 1.71569,-0.32226 2.35657,-0.9668 0.64086,-0.64452 0.96129,-1.44286 0.9613,-2.39501 -10e-6,-0.9082 -0.29664,-1.6571 -0.88989,-2.24671 -0.59327,-0.58959 -1.34766,-0.88439 -2.26318,-0.8844 -0.37354,1e-5 -0.83863,0.0733 -1.39527,0.21973 l 0.21973,-1.73584 c 0.13183,0.0147 0.23803,0.022 0.3186,0.022 0.84228,1e-5 1.60034,-0.21972 2.27417,-0.65918 0.67382,-0.43944 1.01074,-1.11693 1.01075,-2.03247 -1e-5,-0.72508 -0.24537,-1.32567 -0.73609,-1.80176 -0.49073,-0.47606 -1.12427,-0.71409 -1.90063,-0.71411 -0.76905,2e-5 -1.40992,0.24172 -1.92261,0.7251 -0.5127,0.48341 -0.84229,1.20851 -0.98877,2.17529 l -1.97754,-0.35156 c 0.2417,-1.32567 0.79101,-2.35289 1.64795,-3.08167 0.85693,-0.72874 1.9226,-1.09312 3.19702,-1.09314 0.8789,2e-5 1.68823,0.18862 2.42798,0.5658 0.73974,0.37721 1.30553,0.89174 1.69739,1.54358 0.39183,0.65187 0.58776,1.34401 0.58777,2.07642 -10e-6,0.69581 -0.18678,1.32935 -0.56031,1.90063 -0.37354,0.5713 -0.92652,1.0254 -1.65893,1.36231 0.95214,0.21973 1.69188,0.67566 2.21924,1.36779 0.52733,0.69215 0.791,1.55824 0.79101,2.59827 -10e-6,1.40625 -0.5127,2.59827 -1.53808,3.57605 -1.0254,0.97778 -2.32179,1.46667 -3.88916,1.46667 -1.41358,0 -2.58729,-0.42114 -3.52112,-1.26342 -0.93384,-0.84229 -1.46668,-1.93359 -1.59851,-3.27393 z"
         style="font-size:75%;baseline-shift:sub"
         id="path3193" />
    </g>
    <g
       style="font-size:30px;fill:#000000;font-family:helvetica"
       id="text3158">
      <path
         d="m 331.75018,197.99101 c 0,-3.56444 0.95703,-6.35496 2.8711,-8.37158 1.91405,-2.01658 4.38475,-3.02488 7.41211,-3.0249 1.9824,2e-5 3.76951,0.47365 5.36132,1.4209 1.59178,0.94728 2.80516,2.26808 3.64014,3.9624 0.83494,1.69435 1.25242,3.61573 1.25244,5.76416 -2e-5,2.17774 -0.43947,4.12598 -1.31836,5.84473 -0.87892,1.71875 -2.12404,3.02002 -3.73535,3.9038 -1.61134,0.88379 -3.34962,1.32569 -5.21484,1.32569 -2.0215,0 -3.82814,-0.48828 -5.41992,-1.46485 -1.59181,-0.97656 -2.79786,-2.30956 -3.61817,-3.99902 -0.82031,-1.68945 -1.23047,-3.47655 -1.23047,-5.36133 z m 2.92969,0.044 c 0,2.5879 0.6958,4.62647 2.0874,6.11572 1.3916,1.48926 3.1372,2.23389 5.23682,2.23389 2.13866,0 3.89891,-0.75195 5.28076,-2.25586 1.38182,-1.5039 2.07274,-3.63769 2.07275,-6.40137 -10e-6,-1.74803 -0.29542,-3.27391 -0.88623,-4.57764 -0.59083,-1.30369 -1.45509,-2.31443 -2.59277,-3.03222 -1.13771,-0.71776 -2.41456,-1.07664 -3.83057,-1.07666 -2.01172,2e-5 -3.74268,0.69093 -5.19287,2.07275 -1.4502,1.38185 -2.17529,3.68898 -2.17529,6.92139 z"
         style="font-size:30px;fill:#000000;font-family:helvetica"
         id="path3196" />
    </g>
    <g
       style="font-size:30px;fill:#000000;font-family:helvetica"
       id="text3160">
      <path
         d="m 329.93671,128.66071 2.84179,0.71777 c -0.59572,2.33399 -1.6675,4.11377 -3.21533,5.33935 -1.54787,1.22559 -3.43995,1.83838 -5.67627,1.83838 -2.31446,0 -4.19678,-0.47119 -5.64697,-1.41357 -1.4502,-0.94238 -2.55372,-2.30713 -3.31055,-4.09424 -0.75684,-1.7871 -1.13525,-3.70604 -1.13525,-5.75684 0,-2.23631 0.42724,-4.18699 1.28174,-5.85205 0.85449,-1.66502 2.0703,-2.92966 3.64746,-3.79394 1.57714,-0.86424 3.31298,-1.29637 5.20752,-1.29639 2.14842,2e-5 3.95506,0.5469 5.41992,1.64063 1.46482,1.09377 2.48533,2.63185 3.06152,4.61425 l -2.79785,0.65918 c -0.49806,-1.56248 -1.22072,-2.70017 -2.16797,-3.41308 -0.94728,-0.71287 -2.13868,-1.06932 -3.57422,-1.06934 -1.6504,2e-5 -3.02979,0.39553 -4.13818,1.18653 -1.1084,0.79103 -1.88721,1.85304 -2.33643,3.18603 -0.44922,1.33302 -0.67383,2.70753 -0.67382,4.12354 -10e-6,1.82618 0.2661,3.42041 0.79834,4.78271 0.53222,1.36231 1.35985,2.38038 2.48291,3.0542 1.12303,0.67383 2.33885,1.01074 3.64746,1.01074 1.59178,0 2.93944,-0.45898 4.04297,-1.37695 1.10349,-0.91796 1.85056,-2.28027 2.24121,-4.08691 z"
         style="font-size:30px;fill:#000000;font-family:helvetica"
         id="path3199" />
      <path
         d="m 336.38202,136.19 0,-21.47461 2.8418,0 0,8.81836 11.16211,0 0,-8.81836 2.84179,0 0,21.47461 -2.84179,0 0,-10.12207 -11.16211,0 0,10.12207 z"
         style="font-size:30px;fill:#000000;font-family:helvetica"
         id="path3201" />
      <path
         d="m 356.60419,137.93829 1.97754,-0.26367 c 0.22704,1.12061 0.6134,1.9281 1.15905,2.42249 0.54565,0.49438 1.21033,0.74158 1.99402,0.74157 0.93017,1e-5 1.71569,-0.32226 2.35657,-0.96679 0.64086,-0.64453 0.96129,-1.44287 0.9613,-2.39502 -10e-6,-0.9082 -0.29664,-1.6571 -0.88989,-2.24671 -0.59327,-0.58959 -1.34766,-0.88439 -2.26318,-0.8844 -0.37354,10e-6 -0.83863,0.0732 -1.39527,0.21973 l 0.21973,-1.73584 c 0.13183,0.0147 0.23803,0.022 0.3186,0.022 0.84228,1e-5 1.60034,-0.21971 2.27417,-0.65918 0.67382,-0.43944 1.01074,-1.11693 1.01075,-2.03247 -1e-5,-0.72508 -0.24537,-1.32567 -0.73609,-1.80175 -0.49073,-0.47606 -1.12427,-0.7141 -1.90063,-0.71412 -0.76905,2e-5 -1.40992,0.24172 -1.92261,0.7251 -0.5127,0.48341 -0.84229,1.20851 -0.98877,2.17529 l -1.97754,-0.35156 c 0.2417,-1.32567 0.79101,-2.35289 1.64795,-3.08166 0.85693,-0.72875 1.9226,-1.09313 3.19702,-1.09314 0.8789,1e-5 1.68823,0.18861 2.42798,0.56579 0.73974,0.37722 1.30553,0.89174 1.69739,1.54358 0.39183,0.65187 0.58776,1.34401 0.58777,2.07642 -10e-6,0.69581 -0.18678,1.32935 -0.56031,1.90063 -0.37354,0.5713 -0.92652,1.0254 -1.65893,1.36231 0.95214,0.21973 1.69188,0.67567 2.21924,1.3678 0.52733,0.69214 0.791,1.55823 0.79101,2.59826 -10e-6,1.40626 -0.5127,2.59827 -1.53808,3.57605 -1.0254,0.97779 -2.32179,1.46668 -3.88916,1.46668 -1.41358,0 -2.58729,-0.42115 -3.52112,-1.26343 -0.93384,-0.84228 -1.46668,-1.93359 -1.59851,-3.27393 z"
         style="font-size:75%;baseline-shift:sub"
         id="path3203" />
    </g>
    <g
       style="font-size:30px;fill:#000000;font-family:helvetica"
       id="text3164">
      <path
         d="m 205.70235,155.55 0,-21.47461 2.84179,0 0,8.81836 11.16211,0 0,-8.81836 2.8418,0 0,21.47461 -2.8418,0 0,-10.12207 -11.16211,0 0,10.12207 z"
         style="font-size:30px;fill:#000000;font-family:helvetica"
         id="path3206" />
      <path
         d="m 225.92451,157.29829 1.97754,-0.26367 c 0.22705,1.12061 0.6134,1.92811 1.15906,2.42249 0.54565,0.49438 1.21032,0.74158 1.99402,0.74157 0.93017,1e-5 1.71569,-0.32226 2.35657,-0.96679 0.64086,-0.64453 0.96129,-1.44287 0.9613,-2.39502 -1e-5,-0.9082 -0.29664,-1.6571 -0.88989,-2.24671 -0.59327,-0.58959 -1.34766,-0.88439 -2.26319,-0.8844 -0.37354,1e-5 -0.83862,0.0733 -1.39526,0.21973 l 0.21973,-1.73584 c 0.13183,0.0147 0.23803,0.022 0.3186,0.022 0.84228,1e-5 1.60034,-0.21971 2.27417,-0.65918 0.67382,-0.43944 1.01073,-1.11693 1.01074,-2.03247 -1e-5,-0.72508 -0.24537,-1.32567 -0.73608,-1.80175 -0.49073,-0.47606 -1.12427,-0.7141 -1.90064,-0.71412 -0.76904,2e-5 -1.40991,0.24172 -1.9226,0.7251 -0.5127,0.48341 -0.84229,1.20851 -0.98877,2.1753 l -1.97754,-0.35157 c 0.2417,-1.32567 0.79101,-2.35289 1.64795,-3.08166 0.85693,-0.72875 1.9226,-1.09313 3.19702,-1.09314 0.8789,1e-5 1.68822,0.18861 2.42798,0.56579 0.73973,0.37722 1.30553,0.89174 1.69739,1.54358 0.39183,0.65187 0.58775,1.34401 0.58776,2.07642 -1e-5,0.69581 -0.18677,1.32936 -0.5603,1.90063 -0.37354,0.5713 -0.92652,1.0254 -1.65893,1.36231 0.95213,0.21973 1.69188,0.67567 2.21923,1.3678 0.52734,0.69214 0.79101,1.55823 0.79102,2.59826 -1e-5,1.40626 -0.51271,2.59827 -1.53809,3.57605 -1.0254,0.97779 -2.32178,1.46668 -3.88916,1.46668 -1.41358,0 -2.58728,-0.42114 -3.52111,-1.26343 -0.93384,-0.84228 -1.46668,-1.93359 -1.59852,-3.27393 z"
         style="font-size:75%;baseline-shift:sub"
         id="path3208" />
      <path
         d="m 255.14082,148.02071 2.8418,0.71777 c -0.59572,2.33399 -1.6675,4.11377 -3.21533,5.33936 -1.54787,1.22558 -3.43996,1.83837 -5.67627,1.83837 -2.31446,0 -4.19679,-0.47119 -5.64697,-1.41357 -1.4502,-0.94238 -2.55372,-2.30713 -3.31055,-4.09424 -0.75684,-1.7871 -1.13526,-3.70604 -1.13525,-5.75683 -1e-5,-2.23632 0.42724,-4.187 1.28173,-5.85206 0.85449,-1.66502 2.07031,-2.92966 3.64746,-3.79394 1.57714,-0.86424 3.31298,-1.29637 5.20752,-1.29639 2.14843,2e-5 3.95507,0.5469 5.41993,1.64063 1.46482,1.09377 2.48533,2.63185 3.06152,4.61426 l -2.79785,0.65918 c -0.49807,-1.56249 -1.22072,-2.70018 -2.16797,-3.41309 -0.94728,-0.71287 -2.13869,-1.06932 -3.57422,-1.06934 -1.6504,2e-5 -3.02979,0.39553 -4.13818,1.18653 -1.10841,0.79103 -1.88722,1.85304 -2.33643,3.18603 -0.44922,1.33302 -0.67383,2.70753 -0.67383,4.12354 0,1.82618 0.26611,3.42041 0.79834,4.78271 0.53222,1.36231 1.35986,2.38038 2.48291,3.0542 1.12304,0.67383 2.33886,1.01075 3.64746,1.01074 1.59179,1e-5 2.93944,-0.45898 4.04297,-1.37695 1.1035,-0.91796 1.85057,-2.28027 2.24121,-4.08691 z"
         style="font-size:30px;fill:#000000;font-family:helvetica"
         id="path3210" />
    </g>
    <g
       style="font-size:30px;fill:#000000;font-family:helvetica"
       id="text3168">
      <path
         d="m 205.70235,208.45 0,-21.47461 2.84179,0 0,8.81836 11.16211,0 0,-8.81836 2.8418,0 0,21.47461 -2.8418,0 0,-10.12207 -11.16211,0 0,10.12207 z"
         style="font-size:30px;fill:#000000;font-family:helvetica"
         id="path3213" />
      <path
         d="m 225.92451,210.19829 1.97754,-0.26367 c 0.22705,1.1206 0.6134,1.9281 1.15906,2.42248 0.54565,0.49439 1.21032,0.74158 1.99402,0.74158 0.93017,0 1.71569,-0.32227 2.35657,-0.9668 0.64086,-0.64453 0.96129,-1.44287 0.9613,-2.39502 -1e-5,-0.9082 -0.29664,-1.6571 -0.88989,-2.2467 -0.59327,-0.58959 -1.34766,-0.88439 -2.26319,-0.8844 -0.37354,1e-5 -0.83862,0.0733 -1.39526,0.21973 l 0.21973,-1.73584 c 0.13183,0.0146 0.23803,0.022 0.3186,0.022 0.84228,1e-5 1.60034,-0.21972 2.27417,-0.65918 0.67382,-0.43944 1.01073,-1.11693 1.01074,-2.03247 -1e-5,-0.72509 -0.24537,-1.32567 -0.73608,-1.80176 -0.49073,-0.47606 -1.12427,-0.7141 -1.90064,-0.71411 -0.76904,1e-5 -1.40991,0.24171 -1.9226,0.7251 -0.5127,0.48341 -0.84229,1.2085 -0.98877,2.17529 l -1.97754,-0.35156 c 0.2417,-1.32567 0.79101,-2.35289 1.64795,-3.08167 0.85693,-0.72874 1.9226,-1.09312 3.19702,-1.09314 0.8789,2e-5 1.68822,0.18862 2.42798,0.5658 0.73973,0.37721 1.30553,0.89174 1.69739,1.54358 0.39183,0.65187 0.58775,1.344 0.58776,2.07641 -1e-5,0.69582 -0.18677,1.32936 -0.5603,1.90064 -0.37354,0.5713 -0.92652,1.0254 -1.65893,1.3623 0.95213,0.21974 1.69188,0.67567 2.21923,1.3678 0.52734,0.69215 0.79101,1.55823 0.79102,2.59827 -1e-5,1.40625 -0.51271,2.59827 -1.53809,3.57605 -1.0254,0.97778 -2.32178,1.46667 -3.88916,1.46667 -1.41358,0 -2.58728,-0.42114 -3.52111,-1.26343 -0.93384,-0.84228 -1.46668,-1.93359 -1.59852,-3.27392 z"
         style="font-size:75%;baseline-shift:sub"
         id="path3215" />
      <path
         d="m 255.14082,200.9207 2.8418,0.71777 c -0.59572,2.33399 -1.6675,4.11378 -3.21533,5.33936 -1.54787,1.22559 -3.43996,1.83838 -5.67627,1.83838 -2.31446,0 -4.19679,-0.47119 -5.64697,-1.41358 -1.4502,-0.94238 -2.55372,-2.30712 -3.31055,-4.09423 -0.75684,-1.78711 -1.13526,-3.70605 -1.13525,-5.75684 -1e-5,-2.23632 0.42724,-4.187 1.28173,-5.85205 0.85449,-1.66502 2.07031,-2.92967 3.64746,-3.79395 1.57714,-0.86423 3.31298,-1.29636 5.20752,-1.29638 2.14843,2e-5 3.95507,0.54689 5.41993,1.64062 1.46482,1.09377 2.48533,2.63186 3.06152,4.61426 l -2.79785,0.65918 c -0.49807,-1.56248 -1.22072,-2.70018 -2.16797,-3.41309 -0.94728,-0.71287 -2.13869,-1.06931 -3.57422,-1.06933 -1.6504,2e-5 -3.02979,0.39552 -4.13818,1.18652 -1.10841,0.79103 -1.88722,1.85304 -2.33643,3.18604 -0.44922,1.33302 -0.67383,2.70753 -0.67383,4.12353 0,1.82618 0.26611,3.42042 0.79834,4.78272 0.53222,1.36231 1.35986,2.38037 2.48291,3.0542 1.12304,0.67383 2.33886,1.01074 3.64746,1.01074 1.59179,0 2.93944,-0.45898 4.04297,-1.37696 1.1035,-0.91796 1.85057,-2.28026 2.24121,-4.08691 z"
         style="font-size:30px;fill:#000000;font-family:helvetica"
         id="path3217" />
    </g>
  </g>
  <cdml:cdml
     version="0.15">
    <cdml:info>
      <cdml:author_program
         version="0.13.0">BKchem</cdml:author_program>
    </cdml:info>
    <cdml:paper
       crop_margin="5"
       crop_svg="1"
       orientation="portrait"
       replace_minus="0"
       type="Legal"
       use_real_minus="0" />
    <cdml:viewport
       viewport="0.000000 0.000000 640.000000 480.000000" />
    <cdml:standard
       area_color=""
       font_family="helvetica"
       font_size="24"
       line_color="#000"
       line_width="0.06cm"
       paper_crop_margin="5"
       paper_crop_svg="1"
       paper_orientation="portrait"
       paper_type="Legal">
      <cdml:bond
         double-ratio="0.85"
         length="1.4cm"
         wedge-width="0.18cm"
         width="0.21cm" />
      <cdml:arrow
         length="1.6cm" />
      <cdml:atom
         show_hydrogens="0" />
    </cdml:standard>
    <cdml:molecule
       id="molecule34271"
       name="">
      <cdml:atom
         id="atom27896"
         name="C"
         valency="4">
        <cdml:point
           x="7.887cm"
           y="4.631cm" />
      </cdml:atom>
      <cdml:atom
         hydrogens="on"
         id="atom12541"
         name="C"
         pos="center-first"
         show="yes"
         valency="4">
        <cdml:point
           x="10.311cm"
           y="4.631cm" />
      </cdml:atom>
      <cdml:atom
         id="atom61137"
         name="O"
         pos="center-first"
         valency="2">
        <cdml:point
           x="9.099cm"
           y="5.331cm" />
      </cdml:atom>
      <cdml:atom
         hydrogens="on"
         id="atom12320"
         name="C"
         pos="center-first"
         show="yes"
         valency="4">
        <cdml:point
           x="8.587cm"
           y="3.419cm" />
      </cdml:atom>
      <cdml:atom
         hydrogens="on"
         id="atom24205"
         name="C"
         pos="center-last"
         show="yes"
         valency="4">
        <cdml:point
           x="6.674cm"
           y="3.931cm" />
      </cdml:atom>
      <cdml:atom
         hydrogens="on"
         id="atom2915"
         name="C"
         pos="center-last"
         show="yes"
         valency="4">
        <cdml:point
           x="6.674cm"
           y="5.331cm" />
      </cdml:atom>
      <cdml:bond
         double_ratio="0.85"
         end="atom24205"
         id="bond51876"
         line_width="2.26715867159"
         start="atom27896"
         type="h1"
         wedge_width="6.80147601476" />
      <cdml:bond
         double_ratio="0.85"
         end="atom2915"
         id="bond15383"
         line_width="2.26715867159"
         start="atom27896"
         type="w1"
         wedge_width="6.80147601476" />
      <cdml:bond
         double_ratio="0.85"
         end="atom12541"
         id="bond79265"
         line_width="2.26715867159"
         start="atom61137"
         type="n1" />
      <cdml:bond
         double_ratio="0.85"
         end="atom12320"
         id="bond76067"
         line_width="2.26715867159"
         start="atom27896"
         type="n1" />
      <cdml:bond
         double_ratio="0.85"
         end="atom61137"
         id="bond19907"
         line_width="2.26715867159"
         start="atom27896"
         type="n1" />
    </cdml:molecule>
  </cdml:cdml>
</svg>
