<?xml version="1.0" encoding="UTF-8" standalone="no"?>
<!-- Created with Inkscape (http://www.inkscape.org/) -->
<svg
   xmlns:dc="http://purl.org/dc/elements/1.1/"
   xmlns:cc="http://creativecommons.org/ns#"
   xmlns:rdf="http://www.w3.org/1999/02/22-rdf-syntax-ns#"
   xmlns:svg="http://www.w3.org/2000/svg"
   xmlns="http://www.w3.org/2000/svg"
   xmlns:sodipodi="http://sodipodi.sourceforge.net/DTD/sodipodi-0.dtd"
   xmlns:inkscape="http://www.inkscape.org/namespaces/inkscape"
   id="svg5109"
   sodipodi:version="0.32"
   inkscape:version="0.46"
   width="50.652035"
   height="62.885376"
   xml:space="preserve"
   sodipodi:docname="N-Hydroxysuccinimid.svg"
   version="1.0"
   inkscape:output_extension="org.inkscape.output.svg.inkscape"><metadata
     id="metadata5114"><rdf:RDF><cc:Work
         rdf:about=""><dc:format>image/svg+xml</dc:format><dc:type
           rdf:resource="http://purl.org/dc/dcmitype/StillImage" /></cc:Work></rdf:RDF></metadata><defs
     id="defs5112"><inkscape:perspective
       sodipodi:type="inkscape:persp3d"
       inkscape:vp_x="0 : 526.18109 : 1"
       inkscape:vp_y="0 : 1000 : 0"
       inkscape:vp_z="744.09448 : 526.18109 : 1"
       inkscape:persp3d-origin="372.04724 : 350.78739 : 1"
       id="perspective5116" /><clipPath
       clipPathUnits="userSpaceOnUse"
       id="clipPath5366"><path
         d="M 54,699 L 106.08,699 L 106.08,728.28 L 54,728.28 L 54,699 z"
         id="path5368" /></clipPath></defs><sodipodi:namedview
     inkscape:window-height="1039"
     inkscape:window-width="1257"
     inkscape:pageshadow="2"
     inkscape:pageopacity="0.0"
     guidetolerance="10.0"
     gridtolerance="10.0"
     objecttolerance="10.0"
     borderopacity="1.0"
     bordercolor="#666666"
     pagecolor="#ffffff"
     id="base"
     showgrid="false"
     inkscape:zoom="5.2797306"
     inkscape:cx="69.183141"
     inkscape:cy="4.1993386"
     inkscape:window-x="81"
     inkscape:window-y="81"
     inkscape:current-layer="g5118" /><g
     id="g5118"
     inkscape:groupmode="layer"
     inkscape:label="NHS-Ester"
     transform="matrix(1.25,0,0,-1.25,-458.74734,755.61357)"><path
   style="fill:none;stroke:#000000;stroke-width:0.479;stroke-linecap:round;stroke-linejoin:round;stroke-miterlimit:10;stroke-dasharray:none;stroke-opacity:1"
   d="M 395.28,589.92 L 407.28,586.08"
   id="path2420" /><path
   style="fill:none;stroke:#000000;stroke-width:0.479;stroke-linecap:round;stroke-linejoin:round;stroke-miterlimit:10;stroke-dasharray:none;stroke-opacity:1"
   d="M 407.28,573.48 L 395.28,569.4 L 390.72,575.52"
   id="path2418" /><path
   style="fill:none;stroke:#000000;stroke-width:0.479;stroke-linecap:round;stroke-linejoin:round;stroke-miterlimit:10;stroke-dasharray:none;stroke-opacity:1"
   d="M 395.28,589.92 L 390.6,583.8"
   id="path2416" /><path
   style="fill:none;stroke:#000000;stroke-width:0.479;stroke-linecap:round;stroke-linejoin:round;stroke-miterlimit:10;stroke-dasharray:none;stroke-opacity:1"
   d="M 407.28,586.08 L 407.28,573.48"
   id="path2414" /><path
   style="fill:none;stroke:#000000;stroke-width:0.479;stroke-linecap:round;stroke-linejoin:round;stroke-miterlimit:10;stroke-dasharray:none;stroke-opacity:1"
   d="M 394.56,589.2 L 392.04,597.24"
   id="path2412" /><path
   style="fill:none;stroke:#000000;stroke-width:0.479;stroke-linecap:round;stroke-linejoin:round;stroke-miterlimit:10;stroke-dasharray:none;stroke-opacity:1"
   d="M 396,589.68 L 393.48,597.72"
   id="path2410" /><path
   style="fill:none;stroke:#000000;stroke-width:0.479;stroke-linecap:round;stroke-linejoin:round;stroke-miterlimit:10;stroke-dasharray:none;stroke-opacity:1"
   d="M 396,569.76 L 393.36,561.36"
   id="path2408" /><path
   style="fill:none;stroke:#000000;stroke-width:0.479;stroke-linecap:round;stroke-linejoin:round;stroke-miterlimit:10;stroke-dasharray:none;stroke-opacity:1"
   d="M 394.56,570.24 L 391.92,561.84"
   id="path2406" /><path
   style="fill:none;stroke:#000000;stroke-width:0.479;stroke-linecap:round;stroke-linejoin:round;stroke-miterlimit:10;stroke-dasharray:none;stroke-opacity:1"
   d="M 383.88,579.6 L 379.2,579.6"
   id="path5170" /><path
   style=""
   d="M 385.56639,576.6 L 385.56639,582.3096 L 386.33992,582.3096 L 389.333,577.82682 L 389.333,582.3096 L 390.056,582.3096 L 390.056,576.6 L 389.28247,576.6 L 386.28939,581.08667 L 386.28939,576.6 L 385.56639,576.6 z"
   id="path2402" /><path
   style=""
   d="M 388.70508,601.46079 C 388.70508,602.4085 388.95903,603.15043 389.46695,603.6866 C 389.97486,604.22276 390.63049,604.49085 391.43383,604.49085 C 391.95988,604.49085 392.43411,604.36492 392.85651,604.11307 C 393.2789,603.86121 393.60089,603.51004 393.82246,603.05956 C 394.04402,602.60907 394.1548,602.09822 394.1548,601.527 C 394.1548,600.94799 394.03819,600.43 393.80496,599.97303 C 393.57173,599.51605 393.24133,599.17007 392.81375,598.9351 C 392.38617,598.70012 391.9249,598.58263 391.42994,598.58263 C 390.89352,598.58263 390.41411,598.71245 389.99171,598.9721 C 389.56931,599.23174 389.24927,599.58616 389.03159,600.03534 C 388.81392,600.48453 388.70508,600.95968 388.70508,601.46079 L 388.70508,601.46079 z"
   id="path2400" /><path
   style="fill:#ffffff"
   d="M 389.4825,601.44911 C 389.4825,600.76105 389.66714,600.21904 390.03641,599.82308 C 390.40569,599.42712 390.8689,599.22914 391.42605,599.22914 C 391.99357,599.22914 392.46067,599.42907 392.82736,599.82892 C 393.19404,600.22878 393.37738,600.7961 393.37738,601.5309 C 393.37738,601.99566 393.29899,602.40136 393.14221,602.74798 C 392.98543,603.09461 392.75609,603.36334 392.45419,603.55418 C 392.15229,603.74502 391.81347,603.84044 391.43772,603.84044 C 390.90388,603.84044 390.44456,603.65674 390.05973,603.28935 C 389.67491,602.92194 389.4825,602.30853 389.4825,601.44911 L 389.4825,601.44911 z"
   id="path2398" /><path
   style=""
   d="M 388.70508,557.06072 C 388.70508,558.00842 388.95903,558.75036 389.46695,559.28653 C 389.97486,559.82269 390.63049,560.09077 391.43383,560.09078 C 391.95988,560.09077 392.43411,559.96485 392.85651,559.71299 C 393.2789,559.46113 393.60089,559.10996 393.82246,558.65949 C 394.04402,558.209 394.1548,557.69815 394.1548,557.12693 C 394.1548,556.54792 394.03819,556.02993 393.80496,555.57295 C 393.57173,555.11598 393.24133,554.77 392.81375,554.53502 C 392.38617,554.30004 391.9249,554.18255 391.42994,554.18255 C 390.89352,554.18255 390.41411,554.31238 389.99171,554.57202 C 389.56931,554.83167 389.24927,555.18608 389.03159,555.63527 C 388.81392,556.08445 388.70508,556.5596 388.70508,557.06072 L 388.70508,557.06072 z"
   id="path2396" /><path
   style="fill:#ffffff"
   d="M 389.4825,557.04904 C 389.4825,556.36097 389.66714,555.81897 390.03641,555.42301 C 390.40569,555.02705 390.8689,554.82907 391.42605,554.82907 C 391.99357,554.82907 392.46067,555.029 392.82736,555.42885 C 393.19404,555.8287 393.37738,556.39603 393.37738,557.13082 C 393.37738,557.59559 393.29899,558.00128 393.14221,558.34791 C 392.98543,558.69453 392.75609,558.96326 392.45419,559.15411 C 392.15229,559.34494 391.81347,559.44036 391.43772,559.44037 C 390.90388,559.44036 390.44456,559.25666 390.05973,558.88927 C 389.67491,558.52187 389.4825,557.90846 389.4825,557.04904 L 389.4825,557.04904 z"
   id="path2394" /><path
   style=""
   d="M 366.99787,576.6 L 366.99787,582.3096 L 367.75197,582.3096 L 367.75197,579.965 L 370.71395,579.965 L 370.71395,582.3096 L 371.46805,582.3096 L 371.46805,576.6 L 370.71395,576.6 L 370.71395,579.29122 L 367.75197,579.29122 L 367.75197,576.6 L 366.99787,576.6 z"
   id="path2392" /><path
   style=""
   d="M 372.50405,579.3808 C 372.50405,580.3285 372.75801,581.07044 373.26593,581.60661 C 373.77384,582.14277 374.42947,582.41085 375.2328,582.41086 C 375.75886,582.41085 376.23308,582.28493 376.65549,582.03308 C 377.07788,581.78121 377.39986,581.43004 377.62143,580.97956 C 377.84299,580.52908 377.95377,580.01823 377.95378,579.44701 C 377.95377,578.868 377.83716,578.35001 377.60394,577.89303 C 377.37071,577.43606 377.04031,577.09008 376.61273,576.8551 C 376.18514,576.62012 375.72387,576.50263 375.22892,576.50263 C 374.69249,576.50263 374.21308,576.63246 373.79069,576.8921 C 373.36829,577.15175 373.04825,577.50616 372.83057,577.95535 C 372.61289,578.40453 372.50405,578.87968 372.50405,579.3808 L 372.50405,579.3808 z"
   id="path2390" /><path
   style="fill:#ffffff"
   d="M 373.28148,579.36912 C 373.28147,578.68105 373.46611,578.13905 373.83539,577.74309 C 374.20466,577.34713 374.66787,577.14915 375.22503,577.14915 C 375.79254,577.14915 376.25964,577.34908 376.62633,577.74893 C 376.99301,578.14878 377.17635,578.71611 377.17636,579.4509 C 377.17635,579.91567 377.09796,580.32136 376.94119,580.66799 C 376.7844,581.01461 376.55506,581.28335 376.25317,581.47419 C 375.95127,581.66502 375.61244,581.76044 375.23669,581.76045 C 374.70286,581.76044 374.24353,581.57674 373.85871,581.20935 C 373.47389,580.84195 373.28147,580.22854 373.28148,579.36912 L 373.28148,579.36912 z"
   id="text5172" />
</g></svg>