<?xml version="1.0" encoding="UTF-8" standalone="no"?>
<svg
   xmlns:cdml="http://www.freesoftware.fsf.org/bkchem/cdml"
   xmlns:dc="http://purl.org/dc/elements/1.1/"
   xmlns:cc="http://creativecommons.org/ns#"
   xmlns:rdf="http://www.w3.org/1999/02/22-rdf-syntax-ns#"
   xmlns:svg="http://www.w3.org/2000/svg"
   xmlns="http://www.w3.org/2000/svg"
   xmlns:sodipodi="http://sodipodi.sourceforge.net/DTD/sodipodi-0.dtd"
   xmlns:inkscape="http://www.inkscape.org/namespaces/inkscape"
   height="19.59844mm"
   version="1.0"
   viewBox="0 0 210 74"
   width="55.61719mm"
   id="svg3732"
   inkscape:version="0.48.0 r9654"
   sodipodi:docname="propyl.svg">
  <metadata
     id="metadata3758">
    <rdf:RDF>
      <cc:Work
         rdf:about="">
        <dc:format>image/svg+xml</dc:format>
        <dc:type
           rdf:resource="http://purl.org/dc/dcmitype/StillImage" />
        <dc:title></dc:title>
      </cc:Work>
    </rdf:RDF>
  </metadata>
  <defs
     id="defs3756" />
  <sodipodi:namedview
     pagecolor="#ffffff"
     bordercolor="#666666"
     borderopacity="1"
     objecttolerance="10"
     gridtolerance="10"
     guidetolerance="10"
     inkscape:pageopacity="0"
     inkscape:pageshadow="2"
     inkscape:window-width="640"
     inkscape:window-height="480"
     id="namedview3754"
     showgrid="false"
     inkscape:zoom="2.5879289"
     inkscape:cx="98.534393"
     inkscape:cy="34.721645"
     inkscape:window-x="0"
     inkscape:window-y="0"
     inkscape:window-maximized="0"
     inkscape:current-layer="svg3732" />
  <g
     font-family="Helvetica"
     font-size="12pt"
     stroke-linecap="round"
     transform="translate(-379,-74)"
     id="g3734">
    <g
       stroke="#000000"
       stroke-width="2.26548672566"
       id="g3736">
      <path
         style=""
         d="m 522,105.51 -32.78,18.92"
         id="line3738" />
    </g>
    <g
       stroke="#000000"
       stroke-width="2.26548672566"
       id="g3740">
      <path
         style=""
         d="M 489.22,124.43 443.44,98"
         id="line3742" />
    </g>
    <g
       stroke="#000000"
       stroke-width="2.26548672566"
       id="g3744">
      <path
         style=""
         d="M 443.44,98 411,116.73"
         id="line3746" />
    </g>
    <g
       style="font-size:30px;fill:#000000;font-family:helvetica"
       id="text3748">
      <path
         d="m 540.93671,97.470703 2.84179,0.717774 c -0.59572,2.333993 -1.6675,4.113773 -3.21533,5.339353 -1.54787,1.22559 -3.43995,1.83838 -5.67627,1.83838 -2.31446,0 -4.19678,-0.47119 -5.64697,-1.41357 -1.4502,-0.94238 -2.55372,-2.30713 -3.31055,-4.094242 -0.75684,-1.787102 -1.13525,-3.706045 -1.13525,-5.756836 0,-2.236314 0.42724,-4.186996 1.28174,-5.85205 0.85449,-1.665021 2.0703,-2.929668 3.64746,-3.793946 1.57714,-0.864236 3.31298,-1.296364 5.20752,-1.296386 2.14842,2.2e-5 3.95506,0.546896 5.41992,1.640625 1.46482,1.093769 2.48533,2.631853 3.06152,4.614257 l -2.79785,0.65918 c -0.49806,-1.562483 -1.22072,-2.700177 -2.16797,-3.413086 -0.94728,-0.712871 -2.13868,-1.069316 -3.57422,-1.069336 -1.6504,2e-5 -3.02979,0.395527 -4.13818,1.186524 -1.1084,0.791033 -1.88721,1.853043 -2.33643,3.186035 -0.44922,1.333021 -0.67383,2.707532 -0.67382,4.123535 -1e-5,1.826181 0.2661,3.420418 0.79834,4.782715 0.53222,1.362311 1.35985,2.380371 2.48291,3.054201 1.12303,0.67383 2.33885,1.01074 3.64746,1.01074 1.59178,0 2.93944,-0.45898 4.04297,-1.37695 1.10349,-0.91797 1.85056,-2.280271 2.24121,-4.086917 z"
         style="font-size:30px;fill:#000000;font-family:helvetica"
         id="path3764" />
      <path
         d="m 547.38202,105 0,-21.474609 2.8418,0 0,8.818359 11.16211,0 0,-8.818359 2.84179,0 0,21.474609 -2.84179,0 0,-10.12207 -11.16211,0 0,10.12207 z"
         style="font-size:30px;fill:#000000;font-family:helvetica"
         id="path3766" />
      <path
         d="m 567.60419,106.74829 1.97754,-0.26367 c 0.22704,1.12061 0.6134,1.9281 1.15905,2.42248 0.54565,0.49439 1.21033,0.74158 1.99402,0.74158 0.93017,0 1.71569,-0.32226 2.35657,-0.9668 0.64086,-0.64452 0.96129,-1.44286 0.9613,-2.39501 -1e-5,-0.9082 -0.29664,-1.6571 -0.88989,-2.24671 -0.59327,-0.58959 -1.34766,-0.88439 -2.26318,-0.8844 -0.37354,1e-5 -0.83863,0.0733 -1.39527,0.21973 l 0.21973,-1.73584 c 0.13183,0.0147 0.23803,0.022 0.3186,0.022 0.84228,1e-5 1.60034,-0.21972 2.27417,-0.65918 0.67382,-0.43944 1.01074,-1.116931 1.01075,-2.032469 -10e-6,-0.725085 -0.24537,-1.325671 -0.73609,-1.801758 -0.49073,-0.47606 -1.12427,-0.714097 -1.90063,-0.714111 -0.76905,1.4e-5 -1.40992,0.241713 -1.92261,0.725097 -0.5127,0.483412 -0.84229,1.208509 -0.98877,2.175293 l -1.97754,-0.351562 c 0.2417,-1.325671 0.79101,-2.352891 1.64795,-3.081665 0.85693,-0.728744 1.9226,-1.093124 3.19702,-1.09314 0.8789,1.6e-5 1.68823,0.188615 2.42798,0.565796 0.73974,0.377212 1.30553,0.891738 1.69739,1.543579 0.39183,0.651869 0.58776,1.344007 0.58777,2.076416 -10e-6,0.695812 -0.18678,1.329354 -0.56031,1.900634 -0.37354,0.5713 -0.92652,1.0254 -1.65893,1.36231 0.95214,0.21973 1.69188,0.67566 2.21924,1.36779 0.52733,0.69215 0.791,1.55824 0.79101,2.59827 -10e-6,1.40625 -0.5127,2.59827 -1.53808,3.57605 -1.0254,0.97778 -2.32179,1.46667 -3.88916,1.46667 -1.41358,0 -2.58729,-0.42114 -3.52112,-1.26342 -0.93384,-0.84229 -1.46668,-1.93359 -1.59851,-3.27393 z"
         style="font-size:75%;baseline-shift:sub"
         id="path3768" />
    </g>
    <g
       style="font-size:30px;fill:#000000;font-family:helvetica"
       id="text3752">
      <path
         d="m 387.65839,131.42999 0,-21.47461 9.52148,0 c 1.91405,2e-5 3.36913,0.1929 4.36523,0.57862 0.99608,0.38576 1.79198,1.06691 2.3877,2.04345 0.59568,0.97658 0.89354,2.05568 0.89355,3.23731 -10e-6,1.52345 -0.49318,2.80763 -1.47949,3.85254 -0.98634,1.04493 -2.50978,1.70899 -4.57031,1.99218 0.75194,0.36134 1.32323,0.71779 1.71387,1.06934 0.83006,0.76173 1.61619,1.71387 2.3584,2.85645 l 3.73535,5.84472 -3.57422,0 -2.8418,-4.46777 c -0.83009,-1.28906 -1.51368,-2.27538 -2.05078,-2.95899 -0.53712,-0.68358 -1.01808,-1.1621 -1.44287,-1.43554 -0.42482,-0.27343 -0.85694,-0.46386 -1.29639,-0.57129 -0.32227,-0.0683 -0.84962,-0.10253 -1.58203,-0.10254 l -3.2959,0 0,9.53613 z m 2.84179,-11.99707 6.1084,0 c 1.29882,1e-5 2.31444,-0.13426 3.04688,-0.40283 0.7324,-0.26854 1.28904,-0.69823 1.66992,-1.28906 0.38084,-0.59081 0.57127,-1.2329 0.57129,-1.92627 -2e-5,-1.01561 -0.36867,-1.85057 -1.10596,-2.50488 -0.73732,-0.65428 -1.90187,-0.98143 -3.49365,-0.98145 l -6.79688,0 z"
         style="font-size:30px;fill:#000000;font-family:helvetica"
         id="path3771" />
    </g>
  </g>
  <cdml:cdml
     version="0.15">
    <cdml:info>
      <cdml:author_program
         version="0.13.0">BKchem</cdml:author_program>
    </cdml:info>
    <cdml:paper
       crop_margin="5"
       crop_svg="1"
       orientation="portrait"
       replace_minus="0"
       type="Legal"
       use_real_minus="0" />
    <cdml:viewport
       viewport="0.000000 0.000000 640.000000 480.000000" />
    <cdml:standard
       area_color=""
       font_family="helvetica"
       font_size="24"
       line_color="#000"
       line_width="0.06cm"
       paper_crop_margin="5"
       paper_crop_svg="1"
       paper_orientation="portrait"
       paper_type="Legal">
      <cdml:bond
         double-ratio="0.85"
         length="1.4cm"
         wedge-width="0.18cm"
         width="0.21cm" />
      <cdml:arrow
         length="1.6cm" />
      <cdml:atom
         show_hydrogens="0" />
    </cdml:standard>
    <cdml:molecule
       id="molecule8961"
       name="">
      <cdml:atom
         id="atom93101"
         name="C"
         valency="4">
        <cdml:point
           x="12.957cm"
           y="3.295cm" />
      </cdml:atom>
      <cdml:atom
         id="atom47741"
         name="C"
         valency="4">
        <cdml:point
           x="11.744cm"
           y="2.595cm" />
      </cdml:atom>
      <cdml:atom
         hydrogens="on"
         id="atom51743"
         name="C"
         pos="center-first"
         show="yes"
         valency="4">
        <cdml:point
           x="14.169cm"
           y="2.595cm" />
      </cdml:atom>
      <cdml:query
         id="atom33489"
         name="R"
         pos="center-last">
        <cdml:point
           x="10.532cm"
           y="3.295cm" />
      </cdml:query>
      <cdml:bond
         double_ratio="0.85"
         end="atom93101"
         id="bond19097"
         line_width="2.26548672566"
         start="atom51743"
         type="n1" />
      <cdml:bond
         double_ratio="0.85"
         end="atom47741"
         id="bond70913"
         line_width="2.26548672566"
         start="atom93101"
         type="n1" />
      <cdml:bond
         double_ratio="0.85"
         end="atom33489"
         id="bond70832"
         line_width="2.26548672566"
         start="atom47741"
         type="n1" />
    </cdml:molecule>
  </cdml:cdml>
</svg>
