<?xml version="1.0" encoding="UTF-8" standalone="no"?>
<!-- Created with Inkscape (http://www.inkscape.org/) -->
<svg
   xmlns:svg="http://www.w3.org/2000/svg"
   xmlns="http://www.w3.org/2000/svg"
   version="1.0"
   width="559.65002"
   height="180"
   id="svg2">
  <defs
     id="defs4" />
  <g
     transform="translate(-76.075667,-391.29075)"
     id="layer1">
    <path
       d="M 538.2682,560.87278 C 538.2682,559.86563 539.38847,558.49463 543.21447,554.81965 C 546.72518,551.44752 547.29688,550.72308 547.29303,549.65161 C 547.28362,547.04296 543.53649,545.78989 541.58395,547.74244 C 541.0545,548.27188 540.62132,548.97782 540.62132,549.31118 C 540.62132,549.97714 539.93755,550.09327 539.10865,549.56806 C 538.48276,549.17148 538.81153,547.74759 539.78436,546.64159 C 543.07751,542.89766 549.76437,545.27976 549.1349,549.97262 C 548.87061,551.94322 547.57082,553.63002 544.14501,556.44833 C 542.63839,557.68777 541.4057,558.84316 541.4057,559.01584 C 541.4057,559.18852 543.17054,559.32981 545.32758,559.32981 C 549.24946,559.32981 549.24946,559.32981 549.24946,560.31027 L 549.24946,561.29075 L 543.75883,561.29075 C 540.13407,561.29075 538.2682,561.14871 538.2682,560.87278 z M 110.09166,554.62477 C 109.38784,554.19564 108.51187,553.21521 108.14508,552.44602 C 107.56538,551.2304 107.55323,551.00003 108.0521,550.68449 C 109.02644,550.06822 109.49204,550.26292 110.00489,551.50104 C 110.58689,552.9061 111.45503,553.44699 113.12824,553.44699 C 115.43908,553.44699 116.98722,550.80675 115.88452,548.74635 C 115.41585,547.87064 113.13141,547.04793 112.18107,547.41261 C 111.63941,547.62046 111.5258,547.49311 111.63098,546.79601 C 111.72439,546.17688 112.21516,545.76294 113.29307,545.39414 C 115.61838,544.59855 116.17043,543.14683 114.70494,541.68134 C 113.24546,540.22185 110.25148,541.11903 109.54903,543.22637 C 109.43372,543.57232 109.08067,543.65272 108.49424,543.4666 C 107.38059,543.11314 107.64608,541.9703 109.21766,540.35266 C 110.77619,538.74846 113.57146,538.49355 115.45909,539.78349 C 117.62428,541.26312 118.02646,543.99736 116.29676,545.47838 C 115.58112,546.09113 115.60072,546.15315 116.89578,547.37455 C 121.02863,551.27233 115.04704,557.64609 110.09166,554.62477 z M 230.51545,554.47131 C 228.01829,553.65493 225.87662,551.7399 224.63645,549.21446 C 223.66643,547.23911 223.53717,546.53776 223.53717,543.2501 C 223.53717,539.95909 223.66593,539.26208 224.64061,537.27722 C 227.00063,532.47126 231.89713,530.45236 237.29062,532.06147 C 241.44653,533.30135 244.0065,536.93451 244.40117,542.15291 C 244.94832,549.38748 241.04055,554.47206 234.63448,554.86084 C 233.18557,554.94877 231.48359,554.78782 230.51545,554.47131 z M 238.14016,550.84797 C 240.03718,549.33577 241.01303,547.34099 241.27635,544.43712 C 241.68004,539.98514 240.02312,536.39056 236.91709,534.98007 C 232.86265,533.13886 228.32614,535.2101 227.05764,539.4816 C 224.96811,546.51779 228.46328,552.54492 234.41437,552.1677 C 236.19566,552.05479 236.97056,551.78031 238.14016,550.84797 z M 494.7353,543.2501 L 494.7353,531.87664 L 496.4021,531.88661 L 498.0689,531.89659 L 503.85262,540.6128 L 509.6363,549.32901 L 509.63739,540.60282 L 509.63845,531.87664 L 511.20721,531.87664 L 512.77596,531.87664 L 512.77596,543.2501 L 512.77596,554.62355 L 511.10916,554.61357 L 509.44237,554.60359 L 503.65865,545.88739 L 497.87496,537.17118 L 497.87387,545.89736 L 497.87281,554.62355 L 496.30406,554.62355 L 494.7353,554.62355 L 494.7353,543.2501 z M 517.09003,543.2501 L 517.09003,531.87664 L 518.65878,531.87664 L 520.22754,531.87664 L 520.22754,536.5829 L 520.22754,541.28916 L 526.11036,541.28916 L 531.99318,541.28916 L 531.99318,536.5829 L 531.99318,531.87664 L 533.56194,531.87664 L 535.13068,531.87664 L 535.13068,543.2501 L 535.13068,554.62355 L 533.56194,554.62355 L 531.99318,554.62355 L 531.99318,549.32901 L 531.99318,544.03447 L 526.11036,544.03447 L 520.22754,544.03447 L 520.22754,549.32901 L 520.22754,554.62355 L 518.65878,554.62355 L 517.09003,554.62355 L 517.09003,543.2501 z M 127.52315,548.56471 C 125.05264,547.68361 123.76196,546.38565 122.23835,543.2501 C 121.32963,541.37998 121.18928,540.59747 121.18314,537.36726 C 121.1753,533.24869 121.98222,530.77421 124.04044,528.60516 C 126.38066,526.13893 130.72681,525.02137 134.26044,525.9772 C 136.30886,526.53129 138.77407,528.74826 139.60132,530.78029 L 140.1928,532.23316 L 138.72429,532.63908 C 137.9166,532.86234 137.21095,532.91448 137.15616,532.75496 C 136.75808,531.59573 135.28795,529.7804 134.21989,529.1292 C 131.38283,527.39943 127.03847,528.73664 125.29403,531.87664 C 124.44085,533.41236 124.31356,534.12518 124.31356,537.36726 C 124.31356,540.60936 124.44085,541.32218 125.29403,542.8579 C 126.6037,545.21533 129.02686,546.50747 131.6963,546.27191 C 134.05443,546.06381 135.40823,545.0945 136.66749,542.71258 C 137.61136,540.92721 137.69919,540.86734 139.02061,541.10855 C 139.77558,541.24636 140.44967,541.41447 140.51861,541.48214 C 140.93365,541.88959 138.67077,545.84154 137.39919,546.92998 C 134.89039,549.07742 130.84041,549.7478 127.52315,548.56471 z M 86.075203,537.36726 L 86.075203,525.99381 L 87.643948,525.99381 L 89.212705,525.99381 L 89.212705,530.70007 L 89.212705,535.40632 L 95.095525,535.40632 L 100.97836,535.40632 L 100.97836,530.70007 L 100.97836,525.99381 L 102.5471,525.99381 L 104.11586,525.99381 L 104.11586,537.36726 L 104.11586,548.74073 L 102.5471,548.74073 L 100.97836,548.74073 L 100.97836,543.44618 L 100.97836,538.15164 L 95.095525,538.15164 L 89.212705,538.15164 L 89.212705,543.44618 L 89.212705,548.74073 L 87.643948,548.74073 L 86.075203,548.74073 L 86.075203,537.36726 z M 229.12938,509.2822 L 229.02781,489.0409 L 209.11096,477.53637 L 189.19412,466.03184 L 165.41433,476.62295 L 141.63453,487.21405 L 140.74927,486.30819 C 140.26238,485.80997 132.19462,476.86996 122.82094,466.44151 L 105.77783,447.4807 L 109.77806,440.5571 C 111.97817,436.74912 117.97938,426.3535 123.11407,417.45573 C 128.24876,408.55796 132.64878,401.28372 132.89188,401.29076 C 133.13498,401.29778 141.8934,403.12436 152.35501,405.3498 C 171.28429,409.37653 171.37548,409.40061 171.23974,410.33742 C 171.16473,410.85515 171.04242,411.34224 170.96796,411.41982 C 170.85534,411.53716 136.20572,404.3354 134.2848,403.7954 C 133.82049,403.66488 130.5798,408.96735 121.24453,425.13211 C 114.41221,436.96283 108.82211,446.85466 108.82211,447.11396 C 108.82211,447.55044 140.88144,483.44627 141.89832,484.14834 C 142.29477,484.42207 186.95484,464.88469 187.7207,464.10248 C 187.86636,463.95371 186.80095,455.86057 185.35312,446.11772 L 182.7207,428.40344 L 183.81367,428.24303 C 184.41479,428.1548 184.91089,428.09617 184.91608,428.11274 C 184.92128,428.1293 186.12829,436.21807 187.59834,446.08777 C 189.06837,455.95747 190.34363,464.09591 190.43225,464.17319 C 190.52086,464.25047 199.85881,469.65045 211.18324,476.17315 C 222.50768,482.69585 232.30257,488.35194 232.94969,488.74222 L 234.12625,489.45184 L 249.61768,480.49354 L 265.10912,471.53524 L 265.65374,472.56783 C 265.9533,473.13576 266.04154,473.65698 265.84984,473.7261 C 265.65815,473.79523 259.58907,477.2769 252.363,481.46314 L 239.22469,489.0745 L 239.12312,509.299 L 239.02154,529.5235 L 238.0446,529.5235 L 237.06766,529.5235 L 237.06766,509.90238 L 237.06766,490.28126 L 235.56156,491.14807 L 234.05548,492.01487 L 232.62016,491.12778 L 231.18483,490.24071 L 231.18483,509.88211 L 231.18483,529.5235 L 230.20789,529.5235 L 229.23095,529.5235 L 229.12938,509.2822 z M 498.83473,527.85671 C 499.2381,524.87649 502.57758,491.34844 502.47886,491.2701 C 501.7736,490.7105 459.13266,466.27064 458.85009,466.26407 C 458.63438,466.25905 448.61487,471.93795 436.5845,478.88382 C 424.55415,485.82971 414.48175,491.60071 414.20142,491.70829 C 413.92109,491.81586 403.73311,486.14038 391.56145,479.09612 C 379.3898,472.05185 369.2502,466.27984 369.02903,466.26942 C 368.80785,466.259 358.5922,472.03972 346.3276,479.11546 C 324.47448,491.72305 324.00779,491.96866 323.00235,491.39101 C 300.39268,478.40091 292.85521,474.02063 292.41655,473.61659 C 291.96115,473.19712 291.96494,472.99785 292.44125,472.31783 C 292.99145,471.53231 293.12469,471.58444 298.46981,474.67644 C 301.47608,476.41548 308.45578,480.44462 313.98027,483.63008 L 324.02478,489.42182 L 345.35532,477.08375 C 357.08711,470.29781 367.22207,464.48112 367.87744,464.15775 L 369.06902,463.5698 L 390.62436,475.99221 C 402.47979,482.82454 412.54827,488.64879 412.99876,488.935 C 413.74784,489.41091 415.67473,488.38218 435.54958,476.89571 C 447.50204,469.98791 457.65255,464.16199 458.10625,463.94923 C 458.80696,463.62063 462.22963,465.46635 480.83788,476.20752 C 492.88657,483.16234 503.04989,488.93249 503.42302,489.03007 C 503.82811,489.13599 512.09026,484.59394 523.93014,477.75646 L 543.75883,466.30545 L 543.75883,447.3222 L 543.75883,428.33895 L 544.7393,428.33895 L 545.71977,428.33895 L 545.71977,446.75857 L 545.71977,465.17819 L 547.11557,464.35463 C 548.35414,463.62388 548.63032,463.59081 549.56674,464.06114 C 550.14722,464.35267 550.75448,464.65568 550.91627,464.73451 C 551.07804,464.81333 551.21041,456.65658 551.21041,446.60839 L 551.21041,428.33895 L 552.38324,428.33895 L 553.55608,428.33895 L 553.65785,447.39097 L 553.75963,466.443 L 567.68054,474.4698 C 575.33704,478.88455 581.74166,482.63682 581.91301,482.80818 C 582.0844,482.97954 581.9087,483.47854 581.52259,483.91707 C 580.82645,484.70776 580.68637,484.63657 564.74089,475.38994 C 555.89705,470.26148 548.57294,466.11522 548.46509,466.17602 C 546.16463,467.47289 505.09064,491.20397 505.00263,491.28707 C 504.88815,491.39517 508.2094,525.27294 508.62626,528.2489 L 508.80478,529.5235 L 503.70696,529.5235 L 498.60915,529.5235 L 498.83473,527.85671 z M 133.5161,523.29792 L 128.99207,522.26803 L 129.3798,521.17813 C 129.59303,520.57869 129.95225,520.15829 130.17804,520.24389 C 130.40383,520.3295 132.49509,520.80079 134.82529,521.29123 C 138.93227,522.1556 139.05837,522.21331 138.94326,523.17569 C 138.87795,523.72172 138.64803,524.20433 138.43233,524.24815 C 138.21663,524.29197 136.00433,523.86437 133.5161,523.29792 z M 180.20037,510.69847 L 180.20037,499.32502 L 181.76913,499.32502 L 183.33787,499.32502 L 183.33787,504.03127 L 183.33787,508.73753 L 189.22071,508.73753 L 195.10353,508.73753 L 195.10353,504.03127 L 195.10353,499.32502 L 196.67228,499.32502 L 198.24103,499.32502 L 198.24103,510.69847 L 198.24103,522.07193 L 196.67228,522.07193 L 195.10353,522.07193 L 195.10353,516.77739 L 195.10353,511.48285 L 189.22071,511.48285 L 183.33787,511.48285 L 183.33787,516.77739 L 183.33787,522.07193 L 181.76913,522.07193 L 180.20037,522.07193 L 180.20037,510.69847 z M 134.72469,517.3157 C 132.90119,516.89579 131.34836,516.49135 131.27395,516.41694 C 131.19955,516.34254 131.24728,515.84895 131.38001,515.32008 L 131.62136,514.3585 L 135.51708,515.16962 C 139.31532,515.96044 139.41281,516.00788 139.41281,517.06539 C 139.41281,518.35911 139.28529,518.36592 134.72469,517.3157 z M 136.54523,511.43563 C 134.86022,511.07547 133.38812,510.68733 133.27388,510.5731 C 132.88182,510.18104 133.58286,508.73753 134.16532,508.73753 C 135.64176,508.73753 140.19429,510.02516 140.16961,510.43577 C 140.0739,512.02883 139.74503,512.11955 136.54523,511.43563 z M 137.45575,505.45026 C 135.30279,504.99637 134.73691,504.39806 135.43551,503.31421 C 135.7099,502.88849 136.21174,502.8799 138.18033,503.26719 C 140.46121,503.71592 140.58937,503.80101 140.58937,504.86668 C 140.58937,506.1104 140.58812,506.11064 137.45575,505.45026 z M 589.75986,502.70247 C 587.26266,501.88608 585.121,499.97106 583.88086,497.44562 C 582.91082,495.47028 582.78156,494.76892 582.78156,491.48126 C 582.78156,488.19025 582.91031,487.49324 583.88501,485.50838 C 586.24503,480.70241 591.14146,478.68352 596.53497,480.29263 C 600.69092,481.5325 603.25083,485.16567 603.64551,490.38407 C 604.19266,497.61864 600.28499,502.70322 593.87882,503.09199 C 592.42996,503.17992 590.72796,503.01898 589.75986,502.70247 z M 597.38457,499.07914 C 599.28152,497.56692 600.25742,495.57215 600.52072,492.66829 C 600.92437,488.2163 599.26747,484.62172 596.16149,483.21123 C 592.10708,481.37002 587.57051,483.44126 586.30202,487.71276 C 584.21249,494.74895 587.70762,500.77608 593.65877,500.39886 C 595.44003,500.28595 596.2149,500.01147 597.38457,499.07914 z M 607.68554,491.48126 L 607.68554,480.10779 L 609.25421,480.10779 L 610.82299,480.10779 L 610.82299,484.81405 L 610.82299,489.52031 L 616.70579,489.52031 L 622.5886,489.52031 L 622.5886,484.81405 L 622.5886,480.10779 L 624.15738,480.10779 L 625.72616,480.10779 L 625.72616,491.48126 L 625.72616,502.85471 L 624.15738,502.85471 L 622.5886,502.85471 L 622.5886,497.56017 L 622.5886,492.26562 L 616.70579,492.26562 L 610.82299,492.26562 L 610.82299,497.56017 L 610.82299,502.85471 L 609.25421,502.85471 L 607.68554,502.85471 L 607.68554,491.48126 z M 138.23623,499.36629 C 137.69698,499.21629 137.27342,498.88091 137.29499,498.621 C 137.43808,496.89685 137.42992,496.90514 138.72647,497.1661 C 141.1726,497.65842 141.27103,497.72458 141.0759,498.74538 C 140.88086,499.76559 140.20389,499.91361 138.23623,499.36629 z M 184.41846,495.59922 C 184.60585,494.61891 184.60662,494.61876 189.26642,494.61876 C 191.83524,494.61876 193.92696,494.78038 193.92696,494.97887 C 193.92696,495.17694 194.03408,495.61815 194.16502,495.95933 C 194.37454,496.50537 193.7937,496.5797 189.31705,496.5797 L 184.23102,496.5797 L 184.41846,495.59922 z M 140.064,493.55008 C 139.07567,493.40208 138.97996,493.26535 139.21346,492.33503 C 139.55087,490.99072 139.52962,491.00501 140.73918,491.30859 C 141.55058,491.51224 141.76593,491.80413 141.76593,492.70034 C 141.76593,493.32406 141.63357,493.80794 141.47179,493.77562 C 141.31001,493.7433 140.67651,493.64181 140.064,493.55008 z M 185.29883,489.52031 L 185.29883,488.34374 L 189.22071,488.34374 L 193.14259,488.34374 L 193.14259,489.52031 L 193.14259,490.69688 L 189.22071,490.69688 L 185.29883,490.69688 L 185.29883,489.52031 z M 186.1552,483.73554 C 186.27734,482.6739 186.32689,482.65523 189.31875,482.54248 L 192.35821,482.42793 L 192.35821,483.621 L 192.35821,484.81405 L 189.19466,484.81405 L 186.03109,484.81405 L 186.1552,483.73554 z M 187.0217,477.91868 C 187.15264,477.57749 187.25977,477.04803 187.25977,476.74212 C 187.25977,476.3379 187.78311,476.18591 189.17497,476.18591 C 191.06191,476.18591 191.53845,476.59585 191.56848,478.2449 C 191.57142,478.40668 190.49605,478.53904 189.17874,478.53904 C 187.15586,478.53904 186.82065,478.44263 187.0217,477.91868 z M 270.01147,465.59683 L 270.01147,454.22338 L 271.67827,454.23336 L 273.34507,454.24334 L 279.12877,462.95954 L 284.91247,471.67575 L 284.91354,462.94956 L 284.91462,454.22338 L 286.48337,454.22338 L 288.05213,454.22338 L 288.05213,465.59683 L 288.05213,476.97029 L 286.38533,476.96031 L 284.71853,476.95033 L 278.93482,468.23413 L 273.15113,459.51791 L 273.15005,468.24411 L 273.14897,476.97029 L 271.58022,476.97029 L 270.01147,476.97029 L 270.01147,465.59683 z M 187.96048,471.47965 C 188.10661,470.48398 188.30722,470.30309 189.26521,470.30309 C 189.98101,470.30309 190.39727,470.50761 190.39727,470.8593 C 190.39727,471.16521 190.50439,471.69466 190.63532,472.03586 C 190.82753,472.53676 190.57628,472.65622 189.33059,472.65622 C 187.83946,472.65622 187.79358,472.61682 187.96048,471.47965 z M 270.01147,439.32022 L 270.01147,427.94677 L 271.58022,427.94677 L 273.14897,427.94677 L 273.14897,432.65302 L 273.14897,437.35928 L 279.03179,437.35928 L 284.91462,437.35928 L 284.91462,432.65302 L 284.91462,427.94677 L 286.48337,427.94677 L 288.05213,427.94677 L 288.05213,439.32022 L 288.05213,450.69368 L 286.48337,450.69368 L 284.91462,450.69368 L 284.91462,445.39914 L 284.91462,440.1046 L 279.03179,440.1046 L 273.14897,440.1046 L 273.14897,445.39914 L 273.14897,450.69368 L 271.58022,450.69368 L 270.01147,450.69368 L 270.01147,439.32022 z M 545.05038,425.04921 C 542.5532,424.23282 540.41154,422.3178 539.1714,419.79235 C 538.20136,417.81701 538.0721,417.11566 538.0721,413.82799 C 538.0721,410.53699 538.20085,409.83998 539.17556,407.85512 C 541.53555,403.04915 546.43206,401.03025 551.82555,402.63937 C 555.98145,403.87925 558.54142,407.51241 558.93608,412.73081 C 559.48326,419.96538 555.5755,425.04996 549.16942,425.43873 C 547.72048,425.52667 546.01854,425.36571 545.05038,425.04921 z M 552.67507,421.42587 C 554.57212,419.91367 555.54797,417.91888 555.81128,415.01502 C 556.21496,410.56304 554.55804,406.96846 551.45203,405.55797 C 547.39759,403.71676 542.86107,405.78799 541.59257,410.0595 C 539.50304,417.09568 542.99822,423.12282 548.94928,422.7456 C 550.7306,422.63269 551.50549,422.35821 552.67507,421.42587 z M 174.70974,413.82799 L 174.70974,402.45454 L 176.37654,402.46452 L 178.04334,402.47449 L 183.82704,411.1907 L 189.61074,419.90691 L 189.61182,411.18072 L 189.61289,402.45454 L 191.18165,402.45454 L 192.75039,402.45454 L 192.75039,413.82799 L 192.75039,425.20145 L 191.08359,425.19147 L 189.41679,425.18149 L 183.6331,416.46529 L 177.84939,407.74907 L 177.84832,416.47526 L 177.84725,425.20145 L 176.27849,425.20145 L 174.70974,425.20145 L 174.70974,413.82799 z M 152.9433,415.73296 C 144.09945,413.83538 136.84393,412.2775 136.81991,412.27102 C 136.79591,412.26453 136.8606,411.81802 136.96368,411.27877 C 137.06678,410.73951 137.38295,410.2983 137.66631,410.2983 C 138.11199,410.2983 166.32121,416.23056 168.72887,416.83061 C 169.32892,416.98016 169.61129,417.34326 169.61129,417.96534 C 169.61129,418.46848 169.47893,418.94832 169.31715,419.03164 C 169.15538,419.11495 161.78714,417.63055 152.9433,415.73296 z"
       id="path2453"
       style="fill:#000000" />
  </g>
</svg>
