<?xml version="1.0" encoding="UTF-8" standalone="no"?>
<!-- Created with Inkscape (http://www.inkscape.org/) -->
<svg
   xmlns:svg="http://www.w3.org/2000/svg"
   xmlns="http://www.w3.org/2000/svg"
   version="1.0"
   width="348.64001"
   height="220"
   id="svg2">
  <defs
     id="defs4" />
  <g
     transform="translate(5.8571433,-449.64789)"
     id="layer1">
    <path
       d="M 222.41467,659.1228 C 222.41467,657.85749 223.82211,656.1351 228.62875,651.51817 C 233.03926,647.28173 233.75752,646.37161 233.75266,645.02551 C 233.74084,641.74825 229.03331,640.17399 226.58031,642.62698 C 225.91516,643.29214 225.37094,644.17902 225.37094,644.59783 C 225.37094,645.43448 224.51189,645.58037 223.47054,644.92054 C 222.68422,644.4223 223.09726,642.63347 224.31945,641.24399 C 228.4567,636.54044 236.85742,639.53311 236.06664,645.4288 C 235.73459,647.90449 234.10165,650.02364 229.79778,653.5643 C 227.905,655.12143 226.35635,656.57295 226.35635,656.7899 C 226.35635,657.00685 228.57356,657.18434 231.28346,657.18434 C 236.21056,657.18434 236.21056,657.18434 236.21056,658.41612 L 236.21056,659.64789 L 229.31262,659.64789 C 224.75879,659.64789 222.41467,659.46945 222.41467,659.1228 z M 167.7238,636.98321 L 167.7238,622.6946 L 169.81782,622.70714 L 171.91184,622.71968 L 179.17797,633.66995 L 186.4441,644.62023 L 186.44545,633.65742 L 186.4468,622.6946 L 188.41765,622.6946 L 190.38848,622.6946 L 190.38848,636.98321 L 190.38848,651.27181 L 188.29446,651.25928 L 186.20044,651.24674 L 178.93431,640.29647 L 171.66818,629.34619 L 171.66683,640.309 L 171.66548,651.27181 L 169.69465,651.27181 L 167.7238,651.27181 L 167.7238,636.98321 z M 196.30101,636.98321 L 196.30101,622.6946 L 198.27185,622.6946 L 200.24269,622.6946 L 200.24269,628.60713 L 200.24269,634.51965 L 207.63335,634.51965 L 215.02402,634.51965 L 215.02402,628.60713 L 215.02402,622.6946 L 216.99485,622.6946 L 218.96569,622.6946 L 218.96569,636.98321 L 218.96569,651.27181 L 216.99485,651.27181 L 215.02402,651.27181 L 215.02402,644.62023 L 215.02402,637.96863 L 207.63335,637.96863 L 200.24269,637.96863 L 200.24269,644.62023 L 200.24269,651.27181 L 198.27185,651.27181 L 196.30101,651.27181 L 196.30101,636.98321 z M 173.14361,618.61811 C 173.14361,618.00199 174.15129,607.64228 175.38288,595.59655 C 176.61446,583.55081 177.55677,573.19006 177.4769,572.57266 C 177.35779,571.65207 172.42668,568.62163 150.06908,555.72906 L 122.80651,540.00802 L 113.6085,545.32474 C 74.539653,567.90768 76.910975,566.63217 76.254221,565.41726 C 75.924539,564.80739 75.805815,564.15447 75.990394,563.96634 C 76.174974,563.77822 86.737165,557.61077 99.461937,550.26089 C 119.58773,538.63617 122.74101,536.96271 123.69783,537.39867 C 124.55817,537.79066 171.33022,564.67321 177.82436,568.50825 L 179.3025,569.38115 L 204.18438,554.99006 L 229.06627,540.59897 L 229.19412,516.609 L 229.32199,492.61902 L 230.79543,492.61902 L 232.26888,492.61902 L 232.26888,515.53006 C 232.26888,528.13114 232.40097,538.4411 232.56239,538.4411 C 232.72382,538.4411 233.46184,538.08317 234.20241,537.6457 C 235.44168,536.91364 235.67141,536.91364 237.08705,537.6457 C 237.93303,538.08317 238.74705,538.4411 238.896,538.4411 C 239.04496,538.4411 239.16683,528.13114 239.16683,515.53006 L 239.16683,492.61902 L 240.64027,492.61902 L 242.11371,492.61902 L 242.24158,516.62342 L 242.36945,540.62782 L 259.96821,550.74362 C 269.64754,556.30731 277.57402,561.0942 277.58262,561.38114 C 277.59121,561.66809 277.3211,562.26618 276.98237,562.71022 C 276.43395,563.42913 274.13729,562.22999 256.01739,551.76388 L 235.66831,540.0102 L 226.70111,545.19215 C 221.76915,548.04222 209.41943,555.15575 199.25727,560.99998 C 189.09512,566.84423 180.75677,571.64234 180.72759,571.66247 C 180.69842,571.68259 181.73968,582.00903 183.04149,594.61011 C 184.34331,607.21117 185.42034,618.02002 185.4349,618.62974 C 185.46098,619.72168 185.36886,619.73834 179.3025,619.73834 C 173.22504,619.73834 173.14361,619.72353 173.14361,618.61811 z M 38.077292,585.9558 C 35.342703,585.11379 32.531952,582.23368 31.771222,579.49413 C 30.96099,576.5763 31.049535,576.37982 33.174669,576.37982 C 34.913547,576.37982 35.138258,576.52504 35.425932,577.8348 C 35.601697,578.63506 36.21084,579.88138 36.77958,580.60442 C 40.373825,585.17376 49.473262,583.46351 49.473262,578.21863 C 49.473262,575.93533 47.722224,574.7239 42.254255,573.22427 C 36.497917,571.64555 34.575307,570.61517 33.211154,568.37777 C 31.188977,565.06114 32.625775,560.48217 36.299888,558.53421 C 39.085894,557.05711 45.334824,556.95845 48.146122,558.34717 C 50.371972,559.44669 52.300283,561.81453 52.733381,563.98002 C 53.043384,565.53004 53.03221,565.54018 51.012983,565.54018 C 49.544455,565.54018 48.980552,565.33729 48.980552,564.80889 C 48.980552,564.40667 48.34835,563.37004 47.575662,562.50525 C 46.355553,561.13971 45.782698,560.90483 43.220268,560.71948 C 38.93174,560.40928 36.170078,562.07055 36.170078,564.96049 C 36.170078,566.96257 37.77665,568.03031 42.965153,569.47652 C 50.810474,571.66328 52.893615,573.32722 53.258009,577.69806 C 53.809164,584.30907 46.189765,588.45373 38.077292,585.9558 z M 63.002421,585.83189 C 59.284837,584.08482 57.365236,580.68107 57.359383,575.82588 C 57.353791,571.18933 59.384955,567.6577 63.022805,565.97872 C 69.582605,562.95117 76.556667,567.73507 76.569595,575.27121 L 76.572345,576.87253 L 68.688976,576.87253 C 63.59832,576.87253 60.805607,577.05268 60.805607,577.38106 C 60.805607,577.66075 61.124844,578.65364 61.515022,579.58746 C 63.242129,583.72102 69.524973,584.54493 72.384305,581.01282 C 73.198017,580.00765 73.645368,579.85142 74.951613,580.11622 L 76.533495,580.4369 L 75.582814,582.30039 C 74.255265,584.90261 71.770688,586.30615 68.042308,586.56004 C 65.745877,586.71642 64.502331,586.53675 63.002421,585.83189 z M 73.12337,572.79411 C 73.12337,571.75511 71.677645,570.01664 70.161668,569.23269 C 67.447843,567.82932 63.22492,568.71062 61.609065,571.01758 C 60.028725,573.27383 60.361971,573.42355 66.964489,573.42355 C 71.633813,573.42355 73.12337,573.27131 73.12337,572.79411 z M 287.59693,586.04277 C 284.45971,585.01712 281.7691,582.61126 280.21107,579.43851 C 278.99242,576.95687 278.83003,576.07575 278.83003,571.94542 C 278.83003,567.81089 278.9918,566.93523 280.2163,564.44164 C 283.18122,558.40383 289.33275,555.86748 296.10865,557.88901 C 301.32977,559.44669 304.54589,564.01109 305.04171,570.56702 C 305.7291,579.65588 300.81974,586.0437 292.77171,586.53213 C 290.95142,586.64259 288.81321,586.44039 287.59693,586.04277 z M 297.17594,581.49073 C 299.5592,579.59092 300.78516,577.08485 301.11596,573.4367 C 301.62313,567.84362 299.54151,563.32772 295.63938,561.55569 C 290.54574,559.24256 284.84647,561.84468 283.25284,567.21101 C 280.62774,576.05067 285.01876,583.62263 292.49519,583.14872 C 294.73303,583.00687 295.70656,582.66203 297.17594,581.49073 z M 4.1438924,571.94542 L 4.1438924,557.65681 L 6.1147346,557.65681 L 8.0855768,557.65681 L 8.0855768,563.56934 L 8.0855768,569.48186 L 15.476235,569.48186 L 22.866893,569.48186 L 22.866893,563.56934 L 22.866893,557.65681 L 24.837736,557.65681 L 26.808577,557.65681 L 26.808577,571.94542 L 26.808577,586.23402 L 24.837736,586.23402 L 22.866893,586.23402 L 22.866893,579.58243 L 22.866893,572.93084 L 15.476235,572.93084 L 8.0855768,572.93084 L 8.0855768,579.58243 L 8.0855768,586.23402 L 6.1147346,586.23402 L 4.1438924,586.23402 L 4.1438924,571.94542 z M 310.11715,571.94542 L 310.11715,557.65681 L 312.08799,557.65681 L 314.05883,557.65681 L 314.05883,563.56934 L 314.05883,569.48186 L 321.44949,569.48186 L 328.84015,569.48186 L 328.84015,563.56934 L 328.84015,557.65681 L 330.81099,557.65681 L 332.78184,557.65681 L 332.78184,571.94542 L 332.78184,586.23402 L 330.81099,586.23402 L 328.84015,586.23402 L 328.84015,579.58243 L 328.84015,572.93084 L 321.44949,572.93084 L 314.05883,572.93084 L 314.05883,579.58243 L 314.05883,586.23402 L 312.08799,586.23402 L 310.11715,586.23402 L 310.11715,571.94542 z M 230.93523,488.48607 C 227.79799,487.46044 225.10739,485.05457 223.54937,481.88183 C 222.33072,479.40019 222.16831,478.51907 222.16831,474.38873 C 222.16831,470.2542 222.33009,469.37854 223.55458,466.88495 C 226.5195,460.84715 232.67103,458.31079 239.44693,460.33233 C 244.66805,461.89001 247.88417,466.45439 248.38,473.01034 C 249.06739,482.09919 244.15802,488.48701 236.11,488.97543 C 234.28971,489.0859 232.15151,488.88371 230.93523,488.48607 z M 240.51422,483.93404 C 242.89748,482.03424 244.12345,479.52817 244.45426,475.88001 C 244.96141,470.28693 242.8798,465.77102 238.97768,463.999 C 233.88402,461.68588 228.18476,464.28799 226.59112,469.65433 C 223.96604,478.49397 228.35704,486.06593 235.83347,485.59203 C 238.07132,485.45018 239.04485,485.10534 240.51422,483.93404 z"
       id="path2453"
       style="fill:#000000" />
  </g>
</svg>
