<?xml version="1.0" encoding="UTF-8" standalone="no"?>
<!-- Generator: Adobe Illustrator 12.0.1, SVG Export Plug-In . SVG Version: 6.00 Build 51448)  -->
<svg
   xmlns:dc="http://purl.org/dc/elements/1.1/"
   xmlns:cc="http://creativecommons.org/ns#"
   xmlns:rdf="http://www.w3.org/1999/02/22-rdf-syntax-ns#"
   xmlns:svg="http://www.w3.org/2000/svg"
   xmlns="http://www.w3.org/2000/svg"
   xmlns:sodipodi="http://sodipodi.sourceforge.net/DTD/sodipodi-0.dtd"
   xmlns:inkscape="http://www.inkscape.org/namespaces/inkscape"
   version="1.1"
   id="Layer_1"
   width="239.306"
   height="258.131"
   viewBox="0 0 239.306 258.131"
   style="overflow:visible;enable-background:new 0 0 239.306 258.131;"
   xml:space="preserve"
   sodipodi:version="0.32"
   inkscape:version="0.46"
   sodipodi:docname="Thymidin.svg"
   inkscape:output_extension="org.inkscape.output.svg.inkscape"><metadata
   id="metadata102"><rdf:RDF><cc:Work
       rdf:about=""><dc:format>image/svg+xml</dc:format><dc:type
         rdf:resource="http://purl.org/dc/dcmitype/StillImage" /></cc:Work></rdf:RDF></metadata><defs
   id="defs100"><inkscape:perspective
   sodipodi:type="inkscape:persp3d"
   inkscape:vp_x="0 : 129.06551 : 1"
   inkscape:vp_y="0 : 1000 : 0"
   inkscape:vp_z="239.306 : 129.06551 : 1"
   inkscape:persp3d-origin="119.653 : 86.043671 : 1"
   id="perspective104" />
	

	
	

	
	

	
	

	

	
	

	

	

	

	

	
</defs><sodipodi:namedview
   inkscape:window-height="675"
   inkscape:window-width="661"
   inkscape:pageshadow="2"
   inkscape:pageopacity="0.0"
   guidetolerance="10.0"
   gridtolerance="10.0"
   objecttolerance="10.0"
   borderopacity="1.0"
   bordercolor="#666666"
   pagecolor="#ffffff"
   id="base"
   showgrid="false"
   inkscape:zoom="1.7897888"
   inkscape:cx="119.653"
   inkscape:cy="129.06551"
   inkscape:window-x="264"
   inkscape:window-y="264"
   inkscape:current-layer="Layer_1" />
<path
   style="fill:#231f20"
   d="M 132.77155,202.32905 L 135.52655,204.7506 L 134.72,207.1731 L 87.31405,207.1731 L 86.5075,204.7506 L 89.2625,202.32905 L 132.77155,202.32905 z"
   id="polygon3" />
<path
   style="fill:#231f20"
   d="M 61.18905,162.4756 L 61.99655,162.2856 L 63.18405,162.6181 L 89.2625,202.32905 L 86.5075,204.7506 L 85.7,211.2106 L 61.18905,162.4756 z"
   id="polygon5" />
<path
   style="fill:#231f20"
   d="M 158.85,162.6181 L 160.0375,162.2856 L 160.845,162.4756 L 136.33405,211.2106 L 135.52655,204.7506 L 132.77155,202.32905 L 158.85,162.6181 z"
   id="polygon7" />
<path
   style="fill:#231f20"
   d="M 100.805,141.8131 L 101.5175,143.2856 L 63.18405,162.6181 L 61.99655,162.2856 L 62.805,160.9556 L 100.805,141.8131 z"
   id="polygon9" />
<path
   id="path13"
   d="M 102.8057,138.8054 C 102.8057,136.09505 103.5334,133.97465 104.9888,132.4423 C 106.4442,130.909 108.3233,130.14235 110.62515,130.14235 C 112.1328,130.14235 113.4913,130.5024 114.7016,131.2225 C 115.9119,131.94355 116.83435,132.94675 117.4699,134.23495 C 118.10545,135.52315 118.4218,136.98425 118.4218,138.61635 C 118.4218,140.2722 118.0874,141.75325 117.41955,143.0595 C 116.7517,144.36575 115.80455,145.35565 114.57905,146.0273 C 113.35355,146.69895 112.0321,147.03525 110.61375,147.03525 C 109.07665,147.03525 107.70295,146.6638 106.49265,145.92185 C 105.28235,145.1799 104.3656,144.1653 103.74145,142.88185 C 103.1173,141.5984 102.8057,140.23895 102.8057,138.8054 z M 105.0325,138.8339 C 105.0325,140.8004 105.56165,142.34985 106.61995,143.48225 C 107.67825,144.61465 109.00635,145.1799 110.60235,145.1799 C 112.22875,145.1799 113.5673,144.608 114.61895,143.46515 C 115.66965,142.3223 116.195,140.70065 116.195,138.6002 C 116.195,137.2721 115.9708,136.11215 115.52145,135.1213 C 115.0721,134.13045 114.4147,133.3619 113.54925,132.8166 C 112.6838,132.2713 111.7129,131.99865 110.63655,131.99865 C 109.10705,131.99865 107.79035,132.524 106.6874,133.57375 C 105.58445,134.6235 105.0325,136.3772 105.0325,138.8339 z"
   style="fill:#231f20" />
<path
   style="fill:#231f20"
   d="M 119.805,143.2381 L 120.5175,141.8131 L 159.23,161.00405 L 160.0375,162.2856 L 158.85,162.6181 L 119.805,143.2381 z"
   id="polygon15" />
<path
   style="fill:#231f20"
   d="M 61.18905,125.0456 L 62.805,124.1431 L 62.805,160.9556 L 61.99655,162.2856 L 61.18905,162.4756 L 61.18905,125.0456 z"
   id="polygon17" />
<path
   id="path21"
   d="M 127.69475,243.44885 C 127.69475,240.7385 128.42245,238.6181 129.8788,237.08575 C 131.33325,235.55245 133.2133,234.7858 135.5142,234.7858 C 137.0228,234.7858 138.3813,235.14585 139.59065,235.86595 C 140.80095,236.587 141.72435,237.5902 142.35895,238.8784 C 142.99355,240.1666 143.31085,241.6277 143.31085,243.2598 C 143.31085,244.91565 142.97645,246.3967 142.3086,247.70295 C 141.64075,249.0092 140.6936,249.9991 139.4681,250.67075 C 138.24355,251.3424 136.92115,251.6787 135.5028,251.6787 C 133.96665,251.6787 132.592,251.30725 131.3817,250.5653 C 130.1714,249.82335 129.2556,248.80875 128.6305,247.5253 C 128.0054,246.24185 127.69475,244.8824 127.69475,243.44885 z M 129.92155,243.4764 C 129.92155,245.4429 130.4507,246.99235 131.50995,248.12475 C 132.5673,249.2562 133.89635,249.8224 135.4914,249.8224 C 137.11875,249.8224 138.45635,249.2505 139.50895,248.10765 C 140.5587,246.9648 141.08405,245.34315 141.08405,243.2427 C 141.08405,241.9146 140.85985,240.75465 140.4105,239.7638 C 139.96115,238.77295 139.30375,238.0044 138.4383,237.4591 C 137.5738,236.9138 136.6029,236.64115 135.5256,236.64115 C 133.99705,236.64115 132.6794,237.1665 131.5774,238.21625 C 130.47255,239.266 129.92155,241.0197 129.92155,243.4764 z"
   style="fill:#231f20" /><path
   id="path23"
   d="M 146.1713,251.3956 L 146.1713,235.067 L 148.33825,235.067 L 148.33825,241.77685 L 156.7847,241.77685 L 156.7847,235.067 L 158.95165,235.067 L 158.95165,251.3956 L 156.7847,251.3956 L 156.7847,243.7063 L 148.33825,243.7063 L 148.33825,251.3956 L 146.1713,251.3956 z"
   style="fill:#231f20" />
<path
   style="fill:#231f20"
   d="M 136.33405,232.6331 L 134.72,232.6331 L 134.72,207.1731 L 135.52655,204.7506 L 136.33405,211.2106 L 136.33405,232.6331 z"
   id="polygon25" />
<path
   id="path29"
   d="M 78.7232,243.44885 C 78.7232,240.7385 79.4509,238.6181 80.9063,237.08575 C 82.3617,235.55245 84.2408,234.7858 86.54265,234.7858 C 88.0503,234.7858 89.4088,235.14585 90.6191,235.86595 C 91.8294,236.587 92.75185,237.5902 93.3874,238.8784 C 94.02295,240.1666 94.3393,241.6277 94.3393,243.2598 C 94.3393,244.91565 94.0049,246.3967 93.33705,247.70295 C 92.6692,249.0092 91.72205,249.9991 90.49655,250.67075 C 89.27105,251.3424 87.9496,251.6787 86.53125,251.6787 C 84.99415,251.6787 83.62045,251.30725 82.41015,250.5653 C 81.19985,249.82335 80.2831,248.80875 79.65895,247.5253 C 79.0348,246.24185 78.7232,244.8824 78.7232,243.44885 z M 80.95,243.4764 C 80.95,245.4429 81.47915,246.99235 82.53745,248.12475 C 83.59575,249.25715 84.92385,249.8224 86.51985,249.8224 C 88.14625,249.8224 89.4848,249.2505 90.53645,248.10765 C 91.58715,246.9648 92.1125,245.34315 92.1125,243.2427 C 92.1125,241.9146 91.8883,240.75465 91.43895,239.7638 C 90.9896,238.77295 90.3322,238.0044 89.46675,237.4591 C 88.6013,236.9138 87.6304,236.64115 86.55405,236.64115 C 85.02455,236.64115 83.70785,237.1665 82.6049,238.21625 C 81.50195,239.266 80.95,241.0197 80.95,243.4764 z"
   style="fill:#231f20" /><path
   id="path31"
   d="M 97.19975,251.3956 L 97.19975,235.067 L 99.3667,235.067 L 99.3667,241.77685 L 107.81315,241.77685 L 107.81315,235.067 L 109.9801,235.067 L 109.9801,251.3956 L 107.81315,251.3956 L 107.81315,243.7063 L 99.3667,243.7063 L 99.3667,251.3956 L 97.19975,251.3956 z"
   style="fill:#231f20" />
<path
   style="fill:#231f20"
   d="M 87.31405,232.6331 L 85.7,232.6331 L 85.7,211.2106 L 86.5075,204.7506 L 87.31405,207.1731 L 87.31405,232.6331 z"
   id="polygon33" />
<path
   style="fill:#231f20"
   d="M 159.23,135.7331 L 160.845,135.7331 L 160.845,162.4756 L 160.0375,162.2856 L 159.23,161.00405 L 159.23,135.7331 z"
   id="polygon35" />
<path
   id="path39"
   d="M 5.98265,114.7381 L 5.98265,98.41045 L 8.1496,98.41045 L 8.1496,105.1203 L 16.59605,105.1203 L 16.59605,98.41045 L 18.763,98.41045 L 18.763,114.73905 L 16.59605,114.73905 L 16.59605,107.04975 L 8.1496,107.04975 L 8.1496,114.73905 L 5.98265,114.73905 L 5.98265,114.7381 z"
   style="fill:#231f20" /><path
   id="path41"
   d="M 21.7061,106.79135 C 21.7061,104.081 22.4338,101.9606 23.8892,100.42825 C 25.3446,98.89495 27.2237,98.1283 29.52555,98.1283 C 31.0332,98.1283 32.3917,98.48835 33.602,99.20845 C 34.8123,99.9295 35.73475,100.9327 36.3703,102.2209 C 37.00585,103.5091 37.3222,104.9702 37.3222,106.6023 C 37.3222,108.25815 36.9878,109.7392 36.31995,111.04545 C 35.6521,112.3517 34.70495,113.3416 33.47945,114.01325 C 32.25395,114.6849 30.9325,115.0212 29.51415,115.0212 C 27.97705,115.0212 26.60335,114.64975 25.39305,113.9078 C 24.18275,113.16585 23.266,112.15125 22.64185,110.8678 C 22.0177,109.58435 21.7061,108.2249 21.7061,106.79135 z M 23.9329,106.8189 C 23.9329,108.7854 24.46205,110.33485 25.52035,111.46725 C 26.57865,112.59965 27.90675,113.1649 29.50275,113.1649 C 31.12915,113.1649 32.4677,112.593 33.51935,111.45015 C 34.57005,110.3073 35.0954,108.68565 35.0954,106.5852 C 35.0954,105.2571 34.8712,104.09715 34.42185,103.1063 C 33.9725,102.11545 33.3151,101.3469 32.44965,100.8016 C 31.5842,100.2563 30.6133,99.98365 29.53695,99.98365 C 28.00745,99.98365 26.69075,100.509 25.5878,101.55875 C 24.48485,102.6085 23.9329,104.36315 23.9329,106.8189 z"
   style="fill:#231f20" />
<path
   style="fill:#231f20"
   d="M 38.295,111.84155 L 39.10155,110.41655 L 62.805,124.1431 L 61.18905,125.0456 L 38.295,111.84155 z"
   id="polygon43" />
<path
   id="path47"
   d="M 153.5566,133.5481 L 153.5566,117.2195 L 155.7796,117.2195 L 164.3334,130.03405 L 164.3334,117.2195 L 166.412,117.2195 L 166.412,133.5481 L 164.189,133.5481 L 155.6352,120.73355 L 155.6352,133.5481 L 153.5566,133.5481 L 153.5566,133.5481 z"
   style="fill:#231f20" />
<path
   id="path51"
   d="M 186.28315,76.9281 L 186.28315,60.5995 L 188.50615,60.5995 L 197.05995,73.41405 L 197.05995,60.5995 L 199.13855,60.5995 L 199.13855,76.9281 L 196.91555,76.9281 L 188.36175,64.11355 L 188.36175,76.9281 L 186.28315,76.9281 z"
   style="fill:#231f20" /><path
   id="path53"
   d="M 202.8521,76.9281 L 202.8521,60.5995 L 205.01905,60.5995 L 205.01905,67.30935 L 213.4655,67.30935 L 213.4655,60.5995 L 215.63245,60.5995 L 215.63245,76.9281 L 213.4655,76.9281 L 213.4655,69.2388 L 205.01905,69.2388 L 205.01905,76.9281 L 202.8521,76.9281 z"
   style="fill:#231f20" />
<path
   style="fill:#231f20"
   d="M 128.2125,105.19155 L 126.59655,106.14155 L 126.59655,68.4256 L 127.405,67.9506 L 128.2125,68.4256 L 128.2125,105.19155 z"
   id="polygon55" />
<path
   style="fill:#231f20"
   d="M 132.24999,71.229048 L 133.86404,71.229048 L 133.86404,102.38905 L 132.24999,102.38905 L 132.24999,71.229048 z"
   id="rect57" />
<path
   style="fill:#231f20"
   d="M 150.58405,118.2056 L 149.77655,119.5831 L 126.59655,106.14155 L 128.2125,105.19155 L 150.58405,118.2056 z"
   id="polygon59" />
<path
   style="fill:#231f20"
   d="M 191.90905,105.19155 L 193.525,106.14155 L 170.20155,119.6306 L 169.395,118.25405 L 191.90905,105.19155 z"
   id="polygon61" />
<path
   style="fill:#231f20"
   d="M 191.90905,79.06655 L 193.525,79.06655 L 193.525,106.14155 L 191.90905,105.19155 L 191.90905,79.06655 z"
   id="polygon63" />
<path
   style="fill:#231f20"
   d="M 160.0375,50.0431 L 160.0375,48.19155 L 183.3125,61.6331 L 182.505,63.0106 L 160.0375,50.0431 z"
   id="polygon65" />
<path
   style="fill:#231f20"
   d="M 160.0375,48.19155 L 160.0375,50.0431 L 128.2125,68.4256 L 127.405,67.9506 L 127.405,67.0481 L 160.0375,48.19155 z"
   id="polygon67" />
<path
   id="path71"
   d="M 152.2057,15.11635 C 152.2057,12.406 152.9334,10.2856 154.3888,8.75325 C 155.8442,7.21995 157.7233,6.4533 160.0242,6.4533 C 161.53185,6.4533 162.8913,6.81335 164.10065,7.53345 C 165.31,8.2545 166.2334,9.2577 166.86895,10.5459 C 167.50355,11.83315 167.82085,13.2952 167.82085,14.9273 C 167.82085,16.58315 167.48645,18.0642 166.8186,19.37045 C 166.1498,20.6767 165.20265,21.6666 163.9781,22.33825 C 162.7526,23.0099 161.4302,23.3462 160.0128,23.3462 C 158.4757,23.3462 157.102,22.97475 155.8917,22.2328 C 154.6814,21.49085 153.76465,20.47625 153.1405,19.1928 C 152.5173,17.9084 152.2057,16.5499 152.2057,15.11635 z M 154.4325,15.1439 C 154.4325,17.1104 154.96165,18.65985 156.01995,19.79225 C 157.07825,20.92465 158.40635,21.4899 160.00235,21.4899 C 161.62875,21.4899 162.9673,20.918 164.01895,19.77515 C 165.0706,18.6323 165.595,17.01065 165.595,14.9102 C 165.595,13.5821 165.3708,12.42215 164.92145,11.4313 C 164.47115,10.44045 163.81375,9.6719 162.94925,9.1266 C 162.08475,8.5813 161.1129,8.30865 160.03655,8.30865 C 158.50705,8.30865 157.19035,8.834 156.0874,9.88375 C 154.98445,10.9335 154.4325,12.68815 154.4325,15.1439 z"
   style="fill:#231f20" />
<path
   style="fill:#231f20"
   d="M 156.57,25.4856 L 158.18405,25.4856 L 158.18405,50.6606 L 156.57,50.6606 L 156.57,25.4856 z"
   id="rect73" />
<path
   style="fill:#231f20"
   d="M 161.8425,25.4856 L 163.4575,25.4856 L 163.4575,50.613101 L 161.8425,50.613101 L 161.8425,25.4856 z"
   id="rect75" />
<path
   id="path79"
   d="M 217.70725,125.60135 C 217.70725,122.891 218.43495,120.7706 219.8913,119.23825 C 221.34575,117.70495 223.2258,116.9383 225.5267,116.9383 C 227.0353,116.9383 228.3938,117.29835 229.60315,118.01845 C 230.81345,118.7395 231.73685,119.7427 232.37145,121.0309 C 233.00605,122.3191 233.32335,123.7802 233.32335,125.4123 C 233.32335,127.06815 232.98895,128.5492 232.3211,129.85545 C 231.65325,131.1617 230.7061,132.1516 229.4806,132.82325 C 228.25605,133.4949 226.93365,133.8312 225.5153,133.8312 C 223.97915,133.8312 222.6045,133.45975 221.3942,132.7178 C 220.1839,131.97585 219.2681,130.96125 218.643,129.6778 C 218.0179,128.39435 217.70725,127.0349 217.70725,125.60135 z M 219.93405,125.6289 C 219.93405,127.5954 220.4632,129.14485 221.52245,130.27725 C 222.5798,131.4087 223.90885,131.9749 225.5039,131.9749 C 227.13125,131.9749 228.46885,131.403 229.52145,130.26015 C 230.5712,129.1173 231.09655,127.49565 231.09655,125.3952 C 231.09655,124.0671 230.87235,122.90715 230.423,121.9163 C 229.97365,120.92545 229.31625,120.1569 228.4508,119.6116 C 227.5863,119.0663 226.6154,118.79365 225.5381,118.79365 C 224.00955,118.79365 222.6919,119.319 221.5899,120.36875 C 220.48505,121.41945 219.93405,123.1722 219.93405,125.6289 z"
   style="fill:#231f20" />
<path
   style="fill:#231f20"
   d="M 218.7,116.4481 L 217.8925,117.8731 L 192.3375,103.1006 L 193.145,101.6756 L 218.7,116.4481 z"
   id="polygon81" />
<path
   style="fill:#231f20"
   d="M 215.89655,121.3881 L 215.08905,122.76655 L 189.4875,107.9931 L 190.295,106.61655 L 215.89655,121.3881 z"
   id="polygon83" />
<path
   id="path87"
   d="M 62.3889,58.1181 L 62.3889,41.7895 L 64.55585,41.7895 L 64.55585,48.49935 L 73.0023,48.49935 L 73.0023,41.7895 L 75.16925,41.7895 L 75.16925,58.1181 L 73.0023,58.1181 L 73.0023,50.4288 L 64.55585,50.4288 L 64.55585,58.1181 L 62.3889,58.1181 z"
   style="fill:#231f20" />
<path
   id="path91"
   d="M 77.5927,59.1574 L 79.0918,58.94935 C 79.26565,59.80055 79.5592,60.41425 79.9734,60.79045 C 80.38855,61.1657 80.8968,61.3538 81.50005,61.3538 C 82.2154,61.3538 82.81675,61.1087 83.3041,60.6204 C 83.79145,60.1302 84.03465,59.5241 84.03465,58.8002 C 84.03465,58.1105 83.80855,57.5424 83.35445,57.094 C 82.9013,56.6456 82.3256,56.42235 81.6264,56.42235 C 81.34045,56.42235 80.98515,56.4784 80.5605,56.58955 L 80.72865,55.2681 C 80.82935,55.2795 80.9101,55.2852 80.97185,55.2852 C 81.61215,55.2852 82.1888,55.11895 82.7018,54.7855 C 83.2148,54.45205 83.4713,53.9381 83.4713,53.24365 C 83.4713,52.6936 83.28415,52.2376 82.90985,51.87755 C 82.53555,51.51655 82.05295,51.33605 81.4611,51.33605 C 80.87495,51.33605 80.3857,51.52035 79.99525,51.88895 C 79.6048,52.25755 79.35305,52.81045 79.2419,53.54765 L 77.7428,53.2807 C 77.92615,52.2718 78.3451,51.48995 78.9968,50.9361 C 79.6485,50.3813 80.4598,50.1039 81.42975,50.1039 C 82.09855,50.1039 82.7151,50.2464 83.2775,50.5333 C 83.8399,50.81925 84.27025,51.2097 84.5695,51.7037 C 84.86685,52.19865 85.01695,52.72305 85.01695,53.2788 C 85.01695,53.807 84.8754,54.2877 84.59135,54.7209 C 84.3073,55.1541 83.8874,55.498 83.3307,55.7545 C 84.0546,55.9217 84.617,56.26845 85.02075,56.7938 C 85.42355,57.32105 85.6259,57.97845 85.6259,58.76885 C 85.6259,59.83855 85.23545,60.7439 84.45455,61.4868 C 83.67365,62.2297 82.6866,62.6021 81.4934,62.6021 C 80.41705,62.6021 79.5231,62.28195 78.8125,61.64355 C 78.09905,61.0023 77.6934,60.17485 77.5927,59.1574 z"
   style="fill:#231f20" />
<path
   id="path95"
   d="M 99.0418,52.3915 L 101.20875,52.9368 C 100.75655,54.7133 99.9424,56.068 98.7682,56.99995 C 97.59305,57.9319 96.1557,58.3993 94.45805,58.3993 C 92.70055,58.3993 91.27175,58.04115 90.1707,57.3239 C 89.06965,56.6076 88.23175,55.5683 87.657,54.2098 C 87.08225,52.85035 86.79535,51.3902 86.79535,49.83125 C 86.79535,48.13075 87.1193,46.6459 87.76815,45.37955 C 88.417,44.1132 89.33945,43.1499 90.5374,42.49345 C 91.7344,41.837 93.0511,41.50735 94.4894,41.50735 C 96.12055,41.50735 97.4914,41.92345 98.6029,42.75565 C 99.71535,43.5888 100.4896,44.75825 100.9266,46.2678 L 98.8043,46.76845 C 98.4262,45.58095 97.87805,44.71645 97.15985,44.17495 C 96.4407,43.63345 95.5363,43.3627 94.4476,43.3627 C 93.1955,43.3627 92.1486,43.6629 91.3069,44.26425 C 90.46615,44.8656 89.87525,45.67215 89.5342,46.6858 C 89.19315,47.69945 89.0231,48.7435 89.0231,49.81985 C 89.0231,51.2078 89.2245,52.41905 89.62825,53.45455 C 90.032,54.49005 90.659,55.26335 91.51115,55.7754 C 92.3633,56.28745 93.2848,56.54395 94.27755,56.54395 C 95.485,56.54395 96.50625,56.1953 97.3432,55.49705 C 98.18015,54.7988 98.7454,53.7652 99.0418,52.3915 z"
   style="fill:#231f20" />
<path
   style="fill:#231f20"
   d="M 103.55905,55.1731 L 104.3675,53.7956 L 127.405,67.0481 L 127.405,67.9506 L 126.59655,68.4256 L 103.55905,55.1731 z"
   id="polygon97" />
</svg>