<?xml version="1.0" encoding="UTF-8" standalone="no"?>
<!-- Created with Inkscape (http://www.inkscape.org/) -->

<svg
   xmlns:dc="http://purl.org/dc/elements/1.1/"
   xmlns:cc="http://creativecommons.org/ns#"
   xmlns:rdf="http://www.w3.org/1999/02/22-rdf-syntax-ns#"
   xmlns:svg="http://www.w3.org/2000/svg"
   xmlns="http://www.w3.org/2000/svg"
   version="1.1"
   width="619.99"
   height="300.36"
   id="svg2">
  <defs
     id="defs4" />
  <metadata
     id="metadata7">
    <rdf:RDF>
      <cc:Work
         rdf:about="">
        <dc:format>image/svg+xml</dc:format>
        <dc:type
           rdf:resource="http://purl.org/dc/dcmitype/StillImage" />
        <dc:title></dc:title>
      </cc:Work>
    </rdf:RDF>
  </metadata>
  <g
     transform="translate(-696.91,-1216.6)"
     id="layer1">
    <path
       d="m 802.39,1506.1 c -1.29,-0.5 -3.26,-1.5 -4.36,-2.2 -8.52,-5.9 -9.69,-21.8 -2.16,-29.3 3.48,-3.5 6.29,-4.6 11.97,-4.6 5.9,0 8.88,1.3 12.34,5.4 5.93,6.9 5.76,19.7 -0.37,26.4 -4.18,4.5 -11.63,6.4 -17.42,4.3 z m 10.75,-4.8 c 4.85,-2.5 7.23,-7.8 6.6,-14.6 -0.57,-6.2 -2.85,-9.8 -7.39,-11.7 -5.95,-2.5 -12.69,0.2 -15.45,6.2 -1.57,3.4 -1.57,10.9 0,14.3 1.22,2.7 4.63,5.9 7.04,6.6 2.92,0.8 6.46,0.5 9.18,-0.8 z m -55.92,-13 0,-18 2.18,0 2.17,0 0,7.5 0,7.4 9.32,0 9.31,0 0,-7.4 0,-7.5 2.18,0 2.17,0 0,18 0,18.1 -2.17,0 -2.18,0 0,-8.4 0,-8.4 -9.31,0 -9.32,0 0,8.4 0,8.4 -2.17,0 -2.18,0 0,-18.1 z m 69.1,-12.6 c -0.64,-1.4 0.1,-1.9 24.53,-16 13.85,-8 25.57,-14.8 26.04,-15.1 0.66,-0.5 20.95,-74.3 20.51,-74.6 -0.1,-0.1 -15.3,8.6 -33.87,19.3 -18.56,10.8 -34.08,19.5 -34.47,19.5 -1.12,-0.1 -50.29,-28.8 -50.53,-29.5 -0.12,-0.3 0.14,-1.1 0.58,-1.7 0.7,-0.9 3.22,0.4 25.45,13.2 l 24.66,14.2 34.78,-20 34.77,-20 0.19,-41.2 0.18,-41.2 25.16,-14.5 c 13.79,-8 25.28,-14.5 25.53,-14.5 0.18,0 0.68,0.6 0.99,1.4 0.62,1.4 -0.25,1.9 -24.1,15.7 l -24.72,14.2 0,40.1 0,40 24.72,14.3 c 24.16,13.8 24.78,14.2 24.1,15.6 -0.37,0.8 -0.81,1.5 -0.99,1.5 -0.25,0 -11.18,-6.2 -24.35,-13.8 l -23.98,-13.9 -10.41,38.8 c -5.72,21.5 -10.72,39.2 -11.12,39.4 -1.89,1.3 -52.44,30.3 -52.7,30.3 -0.17,0 -0.6,-0.7 -0.97,-1.5 z m 131.52,-25.2 0,-18.1 2.17,0 2.18,0 0,7.5 0,7.4 9.31,0 9.32,0 0,-7.4 0,-7.5 2.17,0 2.18,0 0,18.1 0,18 -2.18,0 -2.17,0 0,-8.4 0,-8.4 -9.32,0 -9.31,0 0,8.4 0,8.4 -2.18,0 -2.17,0 0,-18 z m 292.96,-23.9 c -1.3,-0.5 -3.2,-1.5 -4.3,-2.2 -8.5,-5.9 -9.7,-21.8 -2.2,-29.3 3.5,-3.5 6.3,-4.6 12,-4.6 5.9,0 8.9,1.3 12.3,5.4 5.9,6.9 5.8,19.7 -0.3,26.4 -4.2,4.5 -11.6,6.4 -17.5,4.3 z m 10.8,-4.8 c 4.8,-2.5 7.2,-7.8 6.6,-14.6 -0.6,-6.2 -2.8,-9.8 -7.4,-11.7 -5.9,-2.5 -12.7,0.2 -15.4,6.2 -1.6,3.4 -1.6,10.9 0,14.3 1.1,2.7 4.6,5.9 7,6.6 2.9,0.8 6.4,0.5 9.2,-0.8 z m -304.38,-13 0,-18 2.36,0 2.42,0 9.38,14.2 9.44,14.1 0,-14.1 0,-14.2 2.17,0 2.18,0 0,18 0,18.1 -2.36,0 -2.3,0 -9.32,-14.1 -9.31,-14.2 -0.19,14.2 -0.13,14.1 -2.17,0 -2.17,0 0,-18.1 z m 322.38,0 0,-18 2.2,0 2.1,0 0,7.5 0,7.4 9.3,0 9.4,0 0,-7.4 0,-7.5 2.1,0 2.2,0 0,18 0,18.1 -2.2,0 -2.1,0 0,-8.4 0,-8.4 -9.4,0 -9.3,0 0,8.4 0,8.4 -2.1,0 -2.2,0 0,-18.1 z m -201.9,-20.4 -35,-20.4 -3.8,2.3 c -2.1,1.1 -13.1,7.5 -24.5,14.1 -20.47,11.8 -20.79,12 -21.53,10.6 -0.62,-1.1 -0.62,-1.5 0,-2.1 0.37,-0.3 11.33,-6.7 24.33,-14.2 12.9,-7.4 24,-13.8 24.6,-14.1 0.7,-0.5 9.5,4.4 36.5,20 l 35.6,20.4 24.7,-14.2 c 13.7,-7.9 25,-14.3 25.4,-14.3 0.8,0 1.5,2.5 0.9,3.1 -1.5,1.3 -50.6,29.2 -51.3,29.2 -0.4,0 -16.6,-9.2 -35.9,-20.4 z m 142.9,0.3 c -8.4,-5 -15.5,-9.1 -15.8,-9.2 -0.8,-0.4 0.8,-3.1 1.7,-2.8 0.4,0.1 7.8,4.2 16.4,9.2 14.6,8.4 15.6,9 14.8,10.2 -0.4,0.6 -1,1.2 -1.3,1.3 -0.4,0.1 -7.4,-3.8 -15.8,-8.7 z m -467.9,-3.1 c -1.29,-0.5 -3.26,-1.5 -4.36,-2.2 -8.52,-5.9 -9.69,-21.8 -2.16,-29.3 3.48,-3.5 6.28,-4.6 11.97,-4.6 5.9,0 8.88,1.3 12.34,5.4 5.93,6.9 5.76,19.7 -0.37,26.4 -4.18,4.5 -11.63,6.4 -17.42,4.3 z m 10.75,-4.8 c 4.85,-2.5 7.23,-7.8 6.6,-14.6 -0.57,-6.2 -2.85,-9.8 -7.39,-11.7 -5.95,-2.5 -12.69,0.2 -15.45,6.2 -1.57,3.4 -1.57,10.9 0,14.3 1.22,2.7 4.63,5.9 7.04,6.6 2.92,0.8 6.46,0.5 9.18,-0.8 z m 416.85,5.1 c -4.9,-1.3 -9.4,-6.4 -9.4,-10.8 0,-1.5 0.2,-1.7 2.1,-1.7 1.8,0 2.1,0.3 2.4,1.8 1.1,5.6 9.3,8.7 15.1,5.9 2.2,-1 4,-3.6 4,-5.5 0,-2.2 -3.3,-4.4 -8.7,-5.8 -10.8,-2.9 -13.4,-4.9 -13.4,-10.5 0,-6.1 3.8,-9.4 10.9,-10 6.1,-0.4 11.2,1.9 13.4,6.2 1.5,3 1.2,4.3 -1.2,4.3 -1.6,0 -2.1,-0.3 -2.6,-1.8 -2.5,-6.3 -16.4,-5.6 -16.4,0.8 0,2.8 2.3,4.4 8.7,5.9 9.8,2.4 13,4.9 13.4,10.4 0.5,6.3 -4.4,10.8 -12.1,11.1 -2.3,0.2 -5.1,0 -6.2,-0.3 z m -473.39,-18.1 0,-18 2.17,0 2.18,0 0,7.5 0,7.4 9.31,0 9.32,0 0,-7.4 0,-7.5 2.18,0 2.17,0 0,18 0,18.1 -2.17,0 -2.18,0 0,-8.4 0,-8.4 -9.32,0 -9.31,0 0,8.4 0,8.4 -2.18,0 -2.17,0 0,-18.1 z M 1200,1352.7 c -0.7,-0.4 -1.2,-1.1 -1.2,-1.3 0,-0.3 4.1,-7.6 9.1,-16.2 8.6,-14.9 9.1,-15.7 10.4,-15.1 0.7,0.4 1.5,0.8 1.6,0.9 0.2,0.3 -17.2,30.6 -18.2,31.8 -0.5,0.5 -0.9,0.5 -1.7,-0.1 z m -32,-0.5 c -0.3,-0.4 -4.5,-7.6 -9.4,-16 -7.8,-13.6 -8.6,-15.3 -7.7,-16 0.6,-0.4 1.4,-0.7 1.7,-0.7 0.3,0 4.7,7.2 9.7,15.9 8.2,14.3 9.1,16 8.1,16.8 -0.5,0.4 -1.2,0.7 -1.4,0.7 -0.3,0 -0.7,-0.3 -1,-0.7 z m 1,-22.7 -8.6,-14.8 1.6,-0.8 c 0.9,-0.4 1.6,-0.7 1.7,-0.6 0.5,0.6 16.5,28.6 16.5,28.9 0,0.4 -2,2 -2.5,2 -0.2,0 -4.1,-6.6 -8.7,-14.7 z m 21.5,13.9 c -1,-0.8 -0.6,-1.8 7.4,-15.6 8.3,-14.2 8.6,-14.6 9.9,-13.7 0.7,0.5 1.2,1.1 1.2,1.4 -0.2,1 -16.3,28.4 -16.8,28.6 -0.3,0.1 -1.1,-0.2 -1.7,-0.7 z m -52.1,-29.2 c -1.3,-0.5 -3.2,-1.5 -4.3,-2.3 -8.6,-5.8 -9.7,-21.7 -2.2,-29.2 3.5,-3.5 6.3,-4.6 12,-4.5 5.9,0 8.8,1.2 12.3,5.2 5.9,7 5.7,19.8 -0.3,26.5 -4.3,4.5 -11.7,6.3 -17.5,4.3 z m 10.7,-4.9 c 4.9,-2.5 7.3,-7.7 6.7,-14.6 -0.6,-6.1 -2.9,-9.7 -7.4,-11.6 -6,-2.5 -12.7,0.2 -15.5,6.2 -1.5,3.4 -1.5,10.8 0,14.3 1.2,2.7 4.6,5.9 7.1,6.6 2.9,0.8 6.4,0.5 9.1,-0.9 z m 71.3,4.9 c -1.3,-0.5 -3.2,-1.5 -4.4,-2.3 -8.5,-5.8 -9.7,-21.7 -2.1,-29.2 3.4,-3.5 6.3,-4.6 12,-4.5 5.9,0 8.8,1.2 12.3,5.2 5.9,7 5.7,19.8 -0.4,26.5 -4.2,4.5 -11.6,6.3 -17.4,4.3 z m 10.7,-4.9 c 4.9,-2.5 7.3,-7.7 6.7,-14.6 -0.6,-6.1 -2.9,-9.7 -7.4,-11.6 -6,-2.5 -12.7,0.2 -15.5,6.2 -1.5,3.4 -1.5,10.8 0,14.3 1.2,2.7 4.6,5.9 7,6.6 3,0.8 6.5,0.5 9.2,-0.9 z m -265.37,-46.7 c -1.31,-0.5 -3.23,-1.5 -4.35,-2.2 -8.51,-5.8 -9.69,-21.8 -2.18,-29.3 3.48,-3.4 6.34,-4.6 11.99,-4.5 5.9,0 8.88,1.2 12.36,5.3 5.9,6.9 5.72,19.8 -0.37,26.4 -4.22,4.6 -11.62,6.4 -17.45,4.3 z m 10.74,-4.8 c 4.85,-2.5 7.27,-7.8 6.65,-14.6 -0.62,-6.2 -2.86,-9.8 -7.39,-11.6 -5.97,-2.5 -12.74,0.2 -15.47,6.1 -1.55,3.4 -1.55,10.9 0,14.4 1.18,2.6 4.6,5.9 7.02,6.5 2.92,0.9 6.46,0.5 9.19,-0.8 z m 18.01,-12.9 0,-18.1 2.18,0 2.17,0 0,7.5 0,7.5 9.27,0 9.4,0 0,-7.5 0,-7.5 2.1,0 2.2,0 0,18.1 0,18 -2.2,0 -2.1,0 0,-8.4 0,-8.4 -9.4,0 -9.27,0 0,8.4 0,8.4 -2.17,0 -2.18,0 0,-18 z"
       id="path3022"
       style="fill:#000000" />
  </g>
</svg>
