<?xml version="1.0" encoding="UTF-8" standalone="no"?>
<svg
   xmlns:cdml="http://www.freesoftware.fsf.org/bkchem/cdml"
   xmlns:dc="http://purl.org/dc/elements/1.1/"
   xmlns:cc="http://creativecommons.org/ns#"
   xmlns:rdf="http://www.w3.org/1999/02/22-rdf-syntax-ns#"
   xmlns:svg="http://www.w3.org/2000/svg"
   xmlns="http://www.w3.org/2000/svg"
   xmlns:sodipodi="http://sodipodi.sourceforge.net/DTD/sodipodi-0.dtd"
   xmlns:inkscape="http://www.inkscape.org/namespaces/inkscape"
   height="50.28320mm"
   version="1.0"
   viewBox="0 0 338 190"
   width="89.45117mm"
   id="svg5565"
   inkscape:version="0.48.1 "
   sodipodi:docname="tmeda.svg">
  <metadata
     id="metadata5621">
    <rdf:RDF>
      <cc:Work
         rdf:about="">
        <dc:format>image/svg+xml</dc:format>
        <dc:type
           rdf:resource="http://purl.org/dc/dcmitype/StillImage" />
        <dc:title></dc:title>
      </cc:Work>
    </rdf:RDF>
  </metadata>
  <defs
     id="defs5619" />
  <sodipodi:namedview
     pagecolor="#ffffff"
     bordercolor="#666666"
     borderopacity="1"
     objecttolerance="10"
     gridtolerance="10"
     guidetolerance="10"
     inkscape:pageopacity="0"
     inkscape:pageshadow="2"
     inkscape:window-width="640"
     inkscape:window-height="480"
     id="namedview5617"
     showgrid="false"
     inkscape:zoom="1.4761281"
     inkscape:cx="158.47649"
     inkscape:cy="89.084412"
     inkscape:window-x="0"
     inkscape:window-y="0"
     inkscape:window-maximized="0"
     inkscape:current-layer="svg5565" />
  <g
     font-family="Helvetica"
     font-size="12pt"
     stroke-linecap="round"
     transform="translate(-252,-171)"
     id="g5567">
    <g
       stroke="#000000"
       stroke-linecap="butt"
       stroke-width="2.26715867159"
       id="g5569">
      <path
         style=""
         d="m 353,229 0,-21"
         id="line5571" />
    </g>
    <g
       stroke="#000000"
       stroke-width="2.26715867159"
       id="g5573">
      <path
         style=""
         d="M 398.81,274.45001 444.62,248"
         id="line5575" />
    </g>
    <g
       stroke="#000000"
       stroke-width="2.26715867159"
       id="g5577">
      <path
         style=""
         d="m 367,256.07999 31.81,18.37002"
         id="line5579" />
    </g>
    <g
       stroke="#000000"
       stroke-width="2.26715867159"
       id="g5581">
      <path
         style=""
         d="M 444.62,248 477,266.70001"
         id="line5583" />
    </g>
    <g
       stroke="#000000"
       stroke-linecap="butt"
       stroke-width="2.26715867159"
       id="g5585">
      <path
         style=""
         d="m 504,266.62 19,-10.97001"
         id="line5587" />
    </g>
    <g
       stroke="#000000"
       stroke-linecap="butt"
       stroke-width="2.26715867159"
       id="g5589">
      <path
         style=""
         d="m 490.42999,287 0,21"
         id="line5591" />
    </g>
    <g
       stroke="#000000"
       stroke-linecap="butt"
       stroke-width="2.26715867159"
       id="g5593">
      <path
         style=""
         d="M 340,255.50999 321,266.47"
         id="line5595" />
    </g>
    <g
       style="font-size:30px;fill:#000000;font-family:helvetica"
       id="text5597">
      <path
         d="m 343.58514,255 0,-21.47461 2.91504,0 11.2793,16.86035 0,-16.86035 2.72461,0 0,21.47461 -2.91504,0 -11.2793,-16.875 0,16.875 z"
         style="font-size:30px;fill:#000000;font-family:helvetica"
         id="path5631" />
    </g>
    <g
       style="font-size:30px;fill:#000000;font-family:helvetica"
       id="text5599">
      <path
         d="m 480.58514,281.45001 0,-21.47461 2.91504,0 11.2793,16.86035 0,-16.86035 2.72461,0 0,21.47461 -2.91504,0 -11.2793,-16.875 0,16.875 z"
         style="font-size:30px;fill:#000000;font-family:helvetica"
         id="path5634" />
    </g>
    <g
       style="font-size:30px;fill:#000000;font-family:helvetica"
       id="text5601">
      <path
         d="m 358.93671,194.57071 2.84179,0.71777 c -0.59572,2.33399 -1.6675,4.11377 -3.21533,5.33936 -1.54787,1.22558 -3.43995,1.83838 -5.67627,1.83838 -2.31446,0 -4.19678,-0.47119 -5.64697,-1.41358 -1.4502,-0.94238 -2.55372,-2.30712 -3.31055,-4.09424 -0.75684,-1.7871 -1.13525,-3.70604 -1.13525,-5.75683 0,-2.23632 0.42724,-4.187 1.28174,-5.85205 0.85449,-1.66502 2.0703,-2.92967 3.64746,-3.79395 1.57714,-0.86423 3.31298,-1.29636 5.20752,-1.29638 2.14842,2e-5 3.95506,0.54689 5.41992,1.64062 1.46482,1.09377 2.48533,2.63185 3.06152,4.61426 l -2.79785,0.65918 c -0.49806,-1.56249 -1.22072,-2.70018 -2.16797,-3.41309 -0.94728,-0.71287 -2.13868,-1.06931 -3.57422,-1.06933 -1.6504,2e-5 -3.02979,0.39552 -4.13818,1.18652 -1.1084,0.79103 -1.88721,1.85304 -2.33643,3.18604 -0.44922,1.33302 -0.67383,2.70753 -0.67382,4.12353 -10e-6,1.82618 0.2661,3.42042 0.79834,4.78272 0.53222,1.3623 1.35985,2.38037 2.48291,3.05419 1.12303,0.67383 2.33885,1.01075 3.64746,1.01075 1.59178,0 2.93944,-0.45899 4.04297,-1.37696 1.10349,-0.91796 1.85056,-2.28026 2.24121,-4.08691 z"
         style="font-size:30px;fill:#000000;font-family:helvetica"
         id="path5637" />
      <path
         d="m 365.38202,202.10001 0,-21.47461 2.8418,0 0,8.81836 11.16211,0 0,-8.81836 2.84179,0 0,21.47461 -2.84179,0 0,-10.12207 -11.16211,0 0,10.12207 z"
         style="font-size:30px;fill:#000000;font-family:helvetica"
         id="path5639" />
      <path
         d="m 385.60419,203.8483 1.97754,-0.26367 c 0.22704,1.1206 0.6134,1.9281 1.15905,2.42248 0.54565,0.49439 1.21033,0.74158 1.99402,0.74158 0.93017,0 1.71569,-0.32227 2.35657,-0.9668 0.64086,-0.64453 0.96129,-1.44287 0.9613,-2.39502 -10e-6,-0.9082 -0.29664,-1.6571 -0.88989,-2.2467 -0.59327,-0.58959 -1.34766,-0.88439 -2.26318,-0.8844 -0.37354,10e-6 -0.83863,0.0733 -1.39527,0.21972 l 0.21973,-1.73584 c 0.13183,0.0147 0.23803,0.022 0.3186,0.022 0.84228,1e-5 1.60034,-0.21972 2.27417,-0.65918 0.67382,-0.43945 1.01074,-1.11693 1.01075,-2.03247 -1e-5,-0.72509 -0.24537,-1.32567 -0.73609,-1.80176 -0.49073,-0.47606 -1.12427,-0.7141 -1.90063,-0.71411 -0.76905,1e-5 -1.40992,0.24171 -1.92261,0.7251 -0.5127,0.48341 -0.84229,1.2085 -0.98877,2.17529 l -1.97754,-0.35156 c 0.2417,-1.32567 0.79101,-2.3529 1.64795,-3.08167 0.85693,-0.72874 1.9226,-1.09312 3.19702,-1.09314 0.8789,2e-5 1.68823,0.18862 2.42798,0.5658 0.73974,0.37721 1.30553,0.89174 1.69739,1.54358 0.39183,0.65186 0.58776,1.344 0.58777,2.07641 -10e-6,0.69581 -0.18678,1.32936 -0.56031,1.90064 -0.37354,0.5713 -0.92652,1.0254 -1.65893,1.3623 0.95214,0.21974 1.69188,0.67567 2.21924,1.3678 0.52733,0.69214 0.791,1.55823 0.79101,2.59827 -10e-6,1.40625 -0.5127,2.59826 -1.53808,3.57605 -1.0254,0.97778 -2.32179,1.46667 -3.88916,1.46667 -1.41358,0 -2.58729,-0.42114 -3.52112,-1.26343 -0.93384,-0.84228 -1.46668,-1.93359 -1.59851,-3.27392 z"
         style="font-size:75%;baseline-shift:sub"
         id="path5641" />
    </g>
    <g
       style="font-size:30px;fill:#000000;font-family:helvetica"
       id="text5605">
      <path
         d="m 260.70233,281.45001 0,-21.47461 2.8418,0 0,8.81836 11.16211,0 0,-8.81836 2.84179,0 0,21.47461 -2.84179,0 0,-10.12207 -11.16211,0 0,10.12207 z"
         style="font-size:30px;fill:#000000;font-family:helvetica"
         id="path5644" />
      <path
         d="m 280.9245,283.1983 1.97754,-0.26367 c 0.22705,1.12061 0.6134,1.9281 1.15906,2.42249 0.54565,0.49438 1.21032,0.74158 1.99401,0.74157 0.93017,1e-5 1.7157,-0.32226 2.35657,-0.96679 0.64086,-0.64453 0.9613,-1.44287 0.96131,-2.39502 -1e-5,-0.9082 -0.29664,-1.6571 -0.8899,-2.24671 -0.59327,-0.58959 -1.34766,-0.88439 -2.26318,-0.8844 -0.37354,10e-6 -0.83863,0.0732 -1.39526,0.21973 l 0.21972,-1.73584 c 0.13183,0.0147 0.23803,0.022 0.31861,0.022 0.84228,1e-5 1.60033,-0.21971 2.27417,-0.65918 0.67382,-0.43944 1.01073,-1.11693 1.01074,-2.03247 -1e-5,-0.72508 -0.24537,-1.32567 -0.73609,-1.80175 -0.49073,-0.47606 -1.12427,-0.7141 -1.90063,-0.71412 -0.76905,2e-5 -1.40992,0.24172 -1.92261,0.7251 -0.5127,0.48341 -0.84229,1.20851 -0.98877,2.17529 l -1.97754,-0.35156 c 0.2417,-1.32567 0.79102,-2.35289 1.64795,-3.08166 0.85693,-0.72875 1.92261,-1.09313 3.19702,-1.09314 0.8789,10e-6 1.68823,0.18861 2.42798,0.56579 0.73974,0.37722 1.30553,0.89174 1.69739,1.54358 0.39184,0.65187 0.58776,1.34401 0.58777,2.07642 -1e-5,0.69581 -0.18678,1.32935 -0.5603,1.90063 -0.37355,0.5713 -0.92653,1.0254 -1.65894,1.36231 0.95214,0.21973 1.69188,0.67566 2.21924,1.3678 0.52733,0.69214 0.791,1.55823 0.79101,2.59826 -10e-6,1.40626 -0.5127,2.59827 -1.53808,3.57605 -1.0254,0.97779 -2.32179,1.46668 -3.88916,1.46668 -1.41358,0 -2.58729,-0.42115 -3.52112,-1.26343 -0.93384,-0.84228 -1.46668,-1.93359 -1.59851,-3.27393 z"
         style="font-size:75%;baseline-shift:sub"
         id="path5646" />
      <path
         d="m 310.14081,273.92072 2.84179,0.71777 c -0.59572,2.33399 -1.66749,4.11377 -3.21533,5.33935 -1.54786,1.22559 -3.43995,1.83838 -5.67627,1.83838 -2.31446,0 -4.19678,-0.47119 -5.64697,-1.41357 -1.4502,-0.94238 -2.55371,-2.30713 -3.31055,-4.09424 -0.75683,-1.7871 -1.13525,-3.70605 -1.13525,-5.75684 0,-2.23631 0.42724,-4.18699 1.28174,-5.85205 0.85449,-1.66502 2.07031,-2.92966 3.64746,-3.79394 1.57714,-0.86424 3.31298,-1.29637 5.20752,-1.29639 2.14842,2e-5 3.95506,0.5469 5.41992,1.64063 1.46483,1.09377 2.48533,2.63185 3.06152,4.61425 l -2.79785,0.65918 c -0.49806,-1.56248 -1.22072,-2.70017 -2.16797,-3.41308 -0.94728,-0.71287 -2.13868,-1.06932 -3.57422,-1.06934 -1.6504,2e-5 -3.02979,0.39553 -4.13818,1.18653 -1.1084,0.79103 -1.88721,1.85304 -2.33642,3.18603 -0.44923,1.33302 -0.67384,2.70753 -0.67383,4.12354 -10e-6,1.82618 0.26611,3.42041 0.79834,4.78271 0.53222,1.36231 1.35985,2.38038 2.48291,3.0542 1.12304,0.67383 2.33885,1.01074 3.64746,1.01074 1.59178,0 2.93944,-0.45898 4.04297,-1.37695 1.1035,-0.91796 1.85057,-2.28027 2.24121,-4.08691 z"
         style="font-size:30px;fill:#000000;font-family:helvetica"
         id="path5648" />
    </g>
    <g
       style="font-size:30px;fill:#000000;font-family:helvetica"
       id="text5609">
      <path
         d="m 495.93671,326.82071 2.84179,0.71777 c -0.59572,2.33399 -1.6675,4.11377 -3.21533,5.33936 -1.54787,1.22558 -3.43995,1.83838 -5.67627,1.83838 -2.31446,0 -4.19678,-0.47119 -5.64697,-1.41358 -1.4502,-0.94238 -2.55372,-2.30712 -3.31055,-4.09424 -0.75684,-1.7871 -1.13525,-3.70604 -1.13525,-5.75683 0,-2.23632 0.42724,-4.187 1.28174,-5.85205 0.85449,-1.66502 2.0703,-2.92967 3.64746,-3.79395 1.57714,-0.86423 3.31298,-1.29636 5.20752,-1.29638 2.14842,2e-5 3.95506,0.54689 5.41992,1.64062 1.46482,1.09377 2.48533,2.63185 3.06152,4.61426 l -2.79785,0.65918 c -0.49806,-1.56249 -1.22072,-2.70018 -2.16797,-3.41309 -0.94728,-0.71287 -2.13868,-1.06931 -3.57422,-1.06933 -1.6504,2e-5 -3.02979,0.39552 -4.13818,1.18652 -1.1084,0.79103 -1.88721,1.85304 -2.33643,3.18604 -0.44922,1.33302 -0.67383,2.70753 -0.67382,4.12353 -10e-6,1.82618 0.2661,3.42042 0.79834,4.78272 0.53222,1.3623 1.35985,2.38037 2.48291,3.05419 1.12303,0.67383 2.33885,1.01075 3.64746,1.01075 1.59178,0 2.93944,-0.45899 4.04297,-1.37696 1.10349,-0.91796 1.85056,-2.28026 2.24121,-4.08691 z"
         style="font-size:30px;fill:#000000;font-family:helvetica"
         id="path5651" />
      <path
         d="m 502.38202,334.35001 0,-21.47461 2.8418,0 0,8.81836 11.16211,0 0,-8.81836 2.84179,0 0,21.47461 -2.84179,0 0,-10.12207 -11.16211,0 0,10.12207 z"
         style="font-size:30px;fill:#000000;font-family:helvetica"
         id="path5653" />
      <path
         d="m 522.60419,336.0983 1.97754,-0.26367 c 0.22704,1.1206 0.6134,1.9281 1.15905,2.42248 0.54565,0.49439 1.21033,0.74158 1.99402,0.74158 0.93017,0 1.71569,-0.32227 2.35657,-0.9668 0.64086,-0.64453 0.96129,-1.44287 0.9613,-2.39502 -1e-5,-0.9082 -0.29664,-1.6571 -0.88989,-2.2467 -0.59327,-0.58959 -1.34766,-0.88439 -2.26318,-0.8844 -0.37354,1e-5 -0.83863,0.0733 -1.39527,0.21972 l 0.21973,-1.73584 c 0.13183,0.0147 0.23803,0.022 0.3186,0.022 0.84228,10e-6 1.60034,-0.21972 2.27417,-0.65918 0.67382,-0.43945 1.01074,-1.11693 1.01075,-2.03247 -10e-6,-0.72509 -0.24537,-1.32567 -0.73609,-1.80176 -0.49073,-0.47606 -1.12427,-0.7141 -1.90063,-0.71411 -0.76905,1e-5 -1.40992,0.24171 -1.92261,0.7251 -0.5127,0.48341 -0.84229,1.2085 -0.98877,2.17529 l -1.97754,-0.35156 c 0.2417,-1.32567 0.79101,-2.3529 1.64795,-3.08167 0.85693,-0.72874 1.9226,-1.09312 3.19702,-1.09314 0.8789,2e-5 1.68823,0.18862 2.42798,0.5658 0.73974,0.37721 1.30553,0.89174 1.69739,1.54358 0.39183,0.65186 0.58776,1.344 0.58777,2.07641 -10e-6,0.69581 -0.18678,1.32936 -0.56031,1.90064 -0.37354,0.5713 -0.92652,1.0254 -1.65893,1.3623 0.95214,0.21974 1.69188,0.67567 2.21924,1.3678 0.52733,0.69214 0.791,1.55823 0.79101,2.59827 -10e-6,1.40625 -0.5127,2.59826 -1.53808,3.57605 -1.0254,0.97778 -2.32179,1.46667 -3.88916,1.46667 -1.41358,0 -2.58729,-0.42114 -3.52112,-1.26343 -0.93384,-0.84228 -1.46668,-1.93359 -1.59851,-3.27392 z"
         style="font-size:75%;baseline-shift:sub"
         id="path5655" />
    </g>
    <g
       style="font-size:30px;fill:#000000;font-family:helvetica"
       id="text5613">
      <path
         d="m 541.93671,247.4707 2.84179,0.71778 c -0.59572,2.33399 -1.6675,4.11377 -3.21533,5.33935 -1.54787,1.22559 -3.43995,1.83838 -5.67627,1.83838 -2.31446,0 -4.19678,-0.47119 -5.64697,-1.41357 -1.4502,-0.94238 -2.55372,-2.30713 -3.31055,-4.09424 -0.75684,-1.7871 -1.13525,-3.70605 -1.13525,-5.75684 0,-2.23631 0.42724,-4.18699 1.28174,-5.85205 0.85449,-1.66502 2.0703,-2.92967 3.64746,-3.79394 1.57714,-0.86424 3.31298,-1.29637 5.20752,-1.29639 2.14842,2e-5 3.95506,0.5469 5.41992,1.64062 1.46482,1.09377 2.48533,2.63186 3.06152,4.61426 l -2.79785,0.65918 c -0.49806,-1.56248 -1.22072,-2.70018 -2.16797,-3.41308 -0.94728,-0.71288 -2.13868,-1.06932 -3.57422,-1.06934 -1.6504,2e-5 -3.02979,0.39553 -4.13818,1.18652 -1.1084,0.79104 -1.88721,1.85305 -2.33643,3.18604 -0.44922,1.33302 -0.67383,2.70753 -0.67382,4.12353 -1e-5,1.82619 0.2661,3.42042 0.79834,4.78272 0.53222,1.36231 1.35985,2.38037 2.48291,3.0542 1.12303,0.67383 2.33885,1.01074 3.64746,1.01074 1.59178,0 2.93944,-0.45898 4.04297,-1.37695 1.10349,-0.91797 1.85056,-2.28027 2.24121,-4.08692 z"
         style="font-size:30px;fill:#000000;font-family:helvetica"
         id="path5658" />
      <path
         d="m 548.38202,255 0,-21.47461 2.8418,0 0,8.81836 11.16211,0 0,-8.81836 2.84179,0 0,21.47461 -2.84179,0 0,-10.12207 -11.16211,0 0,10.12207 z"
         style="font-size:30px;fill:#000000;font-family:helvetica"
         id="path5660" />
      <path
         d="m 568.60419,256.74829 1.97754,-0.26367 c 0.22704,1.12061 0.6134,1.9281 1.15905,2.42248 0.54565,0.49439 1.21033,0.74158 1.99402,0.74158 0.93017,0 1.71569,-0.32226 2.35657,-0.9668 0.64086,-0.64452 0.96129,-1.44286 0.9613,-2.39501 -1e-5,-0.9082 -0.29664,-1.6571 -0.88989,-2.24671 -0.59327,-0.58959 -1.34766,-0.88439 -2.26318,-0.8844 -0.37354,1e-5 -0.83863,0.0733 -1.39527,0.21973 l 0.21973,-1.73584 c 0.13183,0.0147 0.23803,0.022 0.3186,0.022 0.84228,1e-5 1.60034,-0.21972 2.27417,-0.65918 0.67382,-0.43944 1.01074,-1.11693 1.01075,-2.03247 -10e-6,-0.72508 -0.24537,-1.32567 -0.73609,-1.80176 -0.49073,-0.47606 -1.12427,-0.71409 -1.90063,-0.71411 -0.76905,2e-5 -1.40992,0.24172 -1.92261,0.7251 -0.5127,0.48341 -0.84229,1.20851 -0.98877,2.17529 l -1.97754,-0.35156 c 0.2417,-1.32567 0.79101,-2.35289 1.64795,-3.08167 0.85693,-0.72874 1.9226,-1.09312 3.19702,-1.09314 0.8789,2e-5 1.68823,0.18862 2.42798,0.5658 0.73974,0.37721 1.30553,0.89174 1.69739,1.54358 0.39183,0.65187 0.58776,1.34401 0.58777,2.07642 -10e-6,0.69581 -0.18678,1.32935 -0.56031,1.90063 -0.37354,0.5713 -0.92652,1.0254 -1.65893,1.36231 0.95214,0.21973 1.69188,0.67566 2.21924,1.36779 0.52733,0.69215 0.791,1.55824 0.79101,2.59827 -10e-6,1.40625 -0.5127,2.59827 -1.53808,3.57605 -1.0254,0.97778 -2.32179,1.46667 -3.88916,1.46667 -1.41358,0 -2.58729,-0.42114 -3.52112,-1.26342 -0.93384,-0.84229 -1.46668,-1.93359 -1.59851,-3.27393 z"
         style="font-size:75%;baseline-shift:sub"
         id="path5662" />
    </g>
  </g>
  <cdml:cdml
     version="0.15">
    <cdml:info>
      <cdml:author_program
         version="0.13.0">BKchem</cdml:author_program>
    </cdml:info>
    <cdml:paper
       crop_margin="5"
       crop_svg="1"
       orientation="portrait"
       replace_minus="0"
       type="Legal"
       use_real_minus="0" />
    <cdml:viewport
       viewport="0.000000 0.000000 640.000000 480.000000" />
    <cdml:standard
       area_color=""
       font_family="helvetica"
       font_size="24"
       line_color="#000"
       line_width="0.06cm"
       paper_crop_margin="5"
       paper_crop_svg="1"
       paper_orientation="portrait"
       paper_type="Legal">
      <cdml:bond
         double-ratio="0.85"
         length="1.4cm"
         wedge-width="0.18cm"
         width="0.21cm" />
      <cdml:arrow
         length="1.6cm" />
      <cdml:atom
         show_hydrogens="0" />
    </cdml:standard>
    <cdml:molecule
       id="molecule75911"
       name="">
      <cdml:atom
         id="atom58790"
         name="C"
         valency="4">
        <cdml:point
           x="10.554cm"
           y="7.263cm" />
      </cdml:atom>
      <cdml:atom
         id="atom68943"
         name="C"
         valency="4">
        <cdml:point
           x="11.767cm"
           y="6.563cm" />
      </cdml:atom>
      <cdml:atom
         id="atom36753"
         name="N"
         pos="center-first"
         valency="3">
        <cdml:point
           x="9.342cm"
           y="6.563cm" />
      </cdml:atom>
      <cdml:atom
         id="atom59911"
         name="N"
         pos="center-first"
         valency="3">
        <cdml:point
           x="12.979cm"
           y="7.263cm" />
      </cdml:atom>
      <cdml:atom
         hydrogens="on"
         id="atom77997"
         name="C"
         pos="center-first"
         show="yes"
         valency="4">
        <cdml:point
           x="9.342cm"
           y="5.163cm" />
      </cdml:atom>
      <cdml:atom
         hydrogens="on"
         id="atom81237"
         name="C"
         pos="center-last"
         show="yes"
         valency="4">
        <cdml:point
           x="8.130cm"
           y="7.263cm" />
      </cdml:atom>
      <cdml:atom
         hydrogens="on"
         id="atom98014"
         name="C"
         pos="center-first"
         show="yes"
         valency="4">
        <cdml:point
           x="12.979cm"
           y="8.663cm" />
      </cdml:atom>
      <cdml:atom
         hydrogens="on"
         id="atom45760"
         name="C"
         pos="center-first"
         show="yes"
         valency="4">
        <cdml:point
           x="14.192cm"
           y="6.563cm" />
      </cdml:atom>
      <cdml:bond
         double_ratio="0.85"
         end="atom77997"
         id="bond37995"
         line_width="2.26715867159"
         start="atom36753"
         type="n1" />
      <cdml:bond
         double_ratio="0.85"
         end="atom68943"
         id="bond63308"
         line_width="2.26715867159"
         start="atom58790"
         type="n1" />
      <cdml:bond
         double_ratio="0.85"
         end="atom58790"
         id="bond41987"
         line_width="2.26715867159"
         start="atom36753"
         type="n1" />
      <cdml:bond
         double_ratio="0.85"
         end="atom59911"
         id="bond87495"
         line_width="2.26715867159"
         start="atom68943"
         type="n1" />
      <cdml:bond
         double_ratio="0.85"
         end="atom45760"
         id="bond33390"
         line_width="2.26715867159"
         start="atom59911"
         type="n1" />
      <cdml:bond
         double_ratio="0.85"
         end="atom98014"
         id="bond77248"
         line_width="2.26715867159"
         start="atom59911"
         type="n1" />
      <cdml:bond
         double_ratio="0.85"
         end="atom81237"
         id="bond16328"
         line_width="2.26715867159"
         start="atom36753"
         type="n1" />
    </cdml:molecule>
  </cdml:cdml>
</svg>
