<?xml version="1.0" encoding="UTF-8" standalone="no"?>
<svg
   xmlns:cdml="http://www.freesoftware.fsf.org/bkchem/cdml"
   xmlns:dc="http://purl.org/dc/elements/1.1/"
   xmlns:cc="http://creativecommons.org/ns#"
   xmlns:rdf="http://www.w3.org/1999/02/22-rdf-syntax-ns#"
   xmlns:svg="http://www.w3.org/2000/svg"
   xmlns="http://www.w3.org/2000/svg"
   xmlns:sodipodi="http://sodipodi.sourceforge.net/DTD/sodipodi-0.dtd"
   xmlns:inkscape="http://www.inkscape.org/namespaces/inkscape"
   height="36.28359mm"
   version="1.0"
   viewBox="0 0 171 137"
   width="45.28828mm"
   id="svg6310"
   inkscape:version="0.48.0 r9654"
   sodipodi:docname="tms.svg">
  <metadata
     id="metadata6356">
    <rdf:RDF>
      <cc:Work
         rdf:about="">
        <dc:format>image/svg+xml</dc:format>
        <dc:type
           rdf:resource="http://purl.org/dc/dcmitype/StillImage" />
        <dc:title></dc:title>
      </cc:Work>
    </rdf:RDF>
  </metadata>
  <defs
     id="defs6354" />
  <sodipodi:namedview
     pagecolor="#ffffff"
     bordercolor="#666666"
     borderopacity="1"
     objecttolerance="10"
     gridtolerance="10"
     guidetolerance="10"
     inkscape:pageopacity="0"
     inkscape:pageshadow="2"
     inkscape:window-width="640"
     inkscape:window-height="480"
     id="namedview6352"
     showgrid="false"
     inkscape:zoom="2.0456755"
     inkscape:cx="80.235146"
     inkscape:cy="64.281944"
     inkscape:window-x="0"
     inkscape:window-y="0"
     inkscape:window-maximized="0"
     inkscape:current-layer="svg6310" />
  <g
     font-family="Helvetica"
     font-size="12pt"
     stroke-linecap="round"
     transform="translate(-202,-114)"
     id="g6312">
    <g
       stroke="#000000"
       stroke-linecap="butt"
       stroke-width="2.26548672566"
       id="g6314">
      <path
         style=""
         d="m 286,189.73 0,2.27"
         id="line6316" />
      <path
         style=""
         d="m 292.67001,188.98 0,3.77"
         id="line6318" />
      <path
         style=""
         d="m 299.32999,188.22 0,5.28999"
         id="line6320" />
      <path
         style=""
         d="m 306,187.46001 0,6.79998"
         id="line6322" />
    </g>
    <g
       stroke="#000000"
       stroke-linecap="butt"
       stroke-width="2.26548672566"
       id="g6324">
      <path
         style=""
         d="m 266.41,151 0,21"
         id="line6326" />
    </g>
    <g
       stroke="#000000"
       stroke-linecap="butt"
       stroke-width="1.0"
       id="g6328">
      <path
         style="fill:#000000;stroke:#000000"
         d="m 286.57,201.19 14.13,5.54 -3.4,5.89 -11.87,-9.47 z"
         id="polygon6330" />
    </g>
    <g
       stroke="#000000"
       stroke-linecap="butt"
       stroke-width="2.26548672566"
       id="g6332">
      <path
         style=""
         d="m 254,198.03 -20,11.55"
         id="line6334" />
    </g>
    <g
       style="font-size:30px;fill:#000000;font-family:helvetica"
       id="text6336">
      <path
         d="m 210.6584,224.28999 0,-21.47461 9.52149,0 c 1.91404,3e-5 3.36912,0.1929 4.36523,0.57862 0.99608,0.38576 1.79197,1.06691 2.3877,2.04345 0.59568,0.97658 0.89353,2.05569 0.89355,3.23731 -2e-5,1.52345 -0.49318,2.80763 -1.47949,3.85254 -0.98635,1.04493 -2.50978,1.70899 -4.57031,1.99219 0.75193,0.36133 1.32322,0.71778 1.71386,1.06933 0.83006,0.76173 1.6162,1.71388 2.3584,2.85645 l 3.73535,5.84472 -3.57422,0 -2.84179,-4.46777 c -0.8301,-1.28906 -1.51369,-2.27538 -2.05078,-2.95898 -0.53713,-0.68359 -1.01808,-1.16211 -1.44288,-1.43555 -0.42481,-0.27343 -0.85694,-0.46386 -1.29638,-0.57129 -0.32228,-0.0684 -0.84962,-0.10253 -1.58203,-0.10254 l -3.2959,0 0,9.53613 z m 2.8418,-11.99707 6.1084,0 c 1.29881,1e-5 2.31444,-0.13426 3.04687,-0.40283 0.73241,-0.26854 1.28905,-0.69823 1.66992,-1.28906 0.38085,-0.59081 0.57128,-1.2329 0.57129,-1.92627 -1e-5,-1.01561 -0.36867,-1.85057 -1.10595,-2.50488 -0.73732,-0.65428 -1.90187,-0.98143 -3.49366,-0.98145 l -6.79687,0 z"
         style="font-size:30px;fill:#000000;font-family:helvetica"
         id="path6366" />
    </g>
    <g
       style="font-size:30px;fill:#000000;font-family:helvetica"
       id="text6338">
      <path
         d="m 256.64766,190.96059 2.68066,-0.23438 c 0.12695,1.07423 0.42236,1.95557 0.88623,2.64404 0.46387,0.68848 1.18408,1.24512 2.16065,1.66993 0.97655,0.4248 2.07518,0.63721 3.2959,0.6372 1.08397,1e-5 2.041,-0.16113 2.87109,-0.4834 0.83006,-0.32226 1.44774,-0.76415 1.85303,-1.32568 0.40526,-0.56152 0.60789,-1.17431 0.60791,-1.83838 -2e-5,-0.67382 -0.19533,-1.2622 -0.58594,-1.76513 -0.39064,-0.50293 -1.03517,-0.92529 -1.93359,-1.26709 -0.57619,-0.2246 -1.8506,-0.57373 -3.82325,-1.04737 -1.97266,-0.47362 -3.35449,-0.9204 -4.1455,-1.34033 -1.0254,-0.5371 -1.78956,-1.2036 -2.29248,-1.99951 -0.50294,-0.79589 -0.7544,-1.687 -0.7544,-2.67334 0,-1.08397 0.30762,-2.09715 0.92285,-3.03955 0.61523,-0.94236 1.51367,-1.6577 2.69532,-2.146 1.18163,-0.48826 2.4951,-0.7324 3.94043,-0.73242 1.59178,2e-5 2.99559,0.25637 4.21142,0.76904 1.21581,0.51272 2.15086,1.26711 2.80518,2.26319 0.65428,0.99611 1.00584,2.12404 1.05468,3.38379 l -2.7246,0.20507 c -0.1465,-1.3574 -0.64211,-2.38279 -1.48682,-3.07617 -0.84474,-0.69334 -2.0923,-1.04002 -3.74268,-1.04004 -1.71876,2e-5 -2.9712,0.31496 -3.75732,0.94483 -0.78614,0.6299 -1.17921,1.38917 -1.1792,2.27783 -10e-6,0.7715 0.27831,1.40626 0.83496,1.9043 0.54687,0.49806 1.97509,1.00831 4.28467,1.53076 2.30956,0.52247 3.89403,0.97901 4.75342,1.36963 1.24998,0.57618 2.17283,1.30616 2.76855,2.18994 0.59569,0.8838 0.89354,1.90186 0.89356,3.0542 -2e-5,1.14258 -0.32717,2.21924 -0.98145,3.22998 -0.65431,1.01074 -1.59425,1.79687 -2.81982,2.3584 -1.2256,0.56152 -2.605,0.84228 -4.13819,0.84228 -1.94337,0 -3.57178,-0.2832 -4.88525,-0.84961 -1.31348,-0.5664 -2.34375,-1.41845 -3.09082,-2.55615 -0.74707,-1.13769 -1.14014,-2.42431 -1.1792,-3.85986 z"
         style="font-size:30px;fill:#000000;font-family:helvetica"
         id="path6369" />
      <path
         d="m 277.33125,179.41762 0,-3.03223 2.63672,0 0,3.03223 z m 0,18.44238 0,-15.55664 2.63672,0 0,15.55664 z"
         style="font-size:30px;fill:#000000;font-family:helvetica"
         id="path6371" />
    </g>
    <g
       style="font-size:30px;fill:#000000;font-family:helvetica"
       id="text6340">
      <path
         d="m 271.93672,137.4707 2.8418,0.71778 c -0.59572,2.33399 -1.6675,4.11377 -3.21533,5.33935 -1.54787,1.22559 -3.43996,1.83838 -5.67627,1.83838 -2.31447,0 -4.19679,-0.47119 -5.64698,-1.41357 -1.4502,-0.94238 -2.55371,-2.30713 -3.31054,-4.09424 -0.75684,-1.7871 -1.13526,-3.70605 -1.13526,-5.75684 0,-2.23631 0.42725,-4.18699 1.28174,-5.85205 0.85449,-1.66502 2.07031,-2.92967 3.64746,-3.79394 1.57714,-0.86424 3.31298,-1.29637 5.20752,-1.29639 2.14843,2e-5 3.95506,0.5469 5.41992,1.64062 1.46483,1.09377 2.48534,2.63186 3.06153,4.61426 l -2.79785,0.65918 c -0.49807,-1.56248 -1.22072,-2.70018 -2.16797,-3.41308 -0.94728,-0.71288 -2.13869,-1.06932 -3.57422,-1.06934 -1.6504,2e-5 -3.0298,0.39553 -4.13818,1.18652 -1.10841,0.79104 -1.88722,1.85305 -2.33643,3.18604 -0.44922,1.33302 -0.67383,2.70753 -0.67383,4.12353 0,1.82619 0.26611,3.42042 0.79834,4.78272 0.53222,1.36231 1.35986,2.38037 2.48291,3.0542 1.12304,0.67383 2.33886,1.01074 3.64746,1.01074 1.59179,0 2.93944,-0.45898 4.04297,-1.37695 1.1035,-0.91797 1.85057,-2.28027 2.24121,-4.08692 z"
         style="font-size:30px;fill:#000000;font-family:helvetica"
         id="path6374" />
      <path
         d="m 278.38203,145 0,-21.47461 2.8418,0 0,8.81836 11.16211,0 0,-8.81836 2.8418,0 0,21.47461 -2.8418,0 0,-10.12207 -11.16211,0 0,10.12207 z"
         style="font-size:30px;fill:#000000;font-family:helvetica"
         id="path6376" />
      <path
         d="m 298.6042,146.74829 1.97754,-0.26367 c 0.22705,1.12061 0.6134,1.9281 1.15906,2.42248 0.54565,0.49439 1.21032,0.74158 1.99402,0.74158 0.93017,0 1.71569,-0.32226 2.35656,-0.9668 0.64086,-0.64452 0.9613,-1.44286 0.96131,-2.39501 -10e-6,-0.9082 -0.29664,-1.6571 -0.88989,-2.24671 -0.59327,-0.58959 -1.34767,-0.88439 -2.26319,-0.8844 -0.37354,1e-5 -0.83863,0.0733 -1.39526,0.21973 l 0.21973,-1.73584 c 0.13183,0.0147 0.23803,0.022 0.3186,0.022 0.84228,1e-5 1.60033,-0.21972 2.27417,-0.65918 0.67382,-0.43944 1.01073,-1.11693 1.01074,-2.03247 -10e-6,-0.72508 -0.24537,-1.32567 -0.73608,-1.80176 -0.49073,-0.47606 -1.12428,-0.71409 -1.90064,-0.71411 -0.76905,2e-5 -1.40991,0.24172 -1.92261,0.7251 -0.51269,0.48341 -0.84228,1.20851 -0.98876,2.17529 l -1.97754,-0.35156 c 0.24169,-1.32567 0.79101,-2.35289 1.64795,-3.08167 0.85693,-0.72874 1.9226,-1.09312 3.19702,-1.09314 0.8789,2e-5 1.68822,0.18862 2.42798,0.5658 0.73973,0.37721 1.30553,0.89174 1.69738,1.54358 0.39184,0.65187 0.58776,1.34401 0.58777,2.07642 -10e-6,0.69581 -0.18678,1.32935 -0.5603,1.90063 -0.37355,0.5713 -0.92652,1.0254 -1.65894,1.36231 0.95214,0.21973 1.69189,0.67566 2.21924,1.36779 0.52733,0.69215 0.79101,1.55824 0.79102,2.59827 -10e-6,1.40625 -0.51271,2.59827 -1.53809,3.57605 -1.0254,0.97778 -2.32178,1.46667 -3.88916,1.46667 -1.41358,0 -2.58728,-0.42114 -3.52112,-1.26342 -0.93384,-0.84229 -1.46667,-1.93359 -1.59851,-3.27393 z"
         style="font-size:75%;baseline-shift:sub"
         id="path6378" />
    </g>
    <g
       style="font-size:30px;fill:#000000;font-family:helvetica"
       id="text6344">
      <path
         d="m 324.93671,190.3307 2.84179,0.71778 c -0.59572,2.33399 -1.6675,4.11377 -3.21533,5.33935 -1.54787,1.22559 -3.43995,1.83838 -5.67627,1.83838 -2.31446,0 -4.19678,-0.47119 -5.64697,-1.41357 -1.4502,-0.94238 -2.55372,-2.30713 -3.31055,-4.09424 -0.75684,-1.7871 -1.13525,-3.70605 -1.13525,-5.75684 0,-2.23631 0.42724,-4.18699 1.28174,-5.85205 0.85449,-1.66502 2.0703,-2.92967 3.64746,-3.79394 1.57714,-0.86424 3.31298,-1.29637 5.20752,-1.29639 2.14842,2e-5 3.95506,0.5469 5.41992,1.64063 1.46482,1.09376 2.48533,2.63185 3.06152,4.61425 l -2.79785,0.65918 c -0.49806,-1.56248 -1.22072,-2.70017 -2.16797,-3.41308 -0.94728,-0.71287 -2.13868,-1.06932 -3.57422,-1.06934 -1.6504,2e-5 -3.02979,0.39553 -4.13818,1.18652 -1.1084,0.79104 -1.88721,1.85305 -2.33643,3.18604 -0.44922,1.33302 -0.67383,2.70753 -0.67382,4.12353 -10e-6,1.82619 0.2661,3.42042 0.79834,4.78272 0.53222,1.36231 1.35985,2.38037 2.48291,3.0542 1.12303,0.67383 2.33885,1.01074 3.64746,1.01074 1.59178,0 2.93944,-0.45898 4.04297,-1.37695 1.10349,-0.91797 1.85056,-2.28027 2.24121,-4.08692 z"
         style="font-size:30px;fill:#000000;font-family:helvetica"
         id="path6381" />
      <path
         d="m 331.38202,197.86 0,-21.47461 2.8418,0 0,8.81836 11.16211,0 0,-8.81836 2.84179,0 0,21.47461 -2.84179,0 0,-10.12207 -11.16211,0 0,10.12207 z"
         style="font-size:30px;fill:#000000;font-family:helvetica"
         id="path6383" />
      <path
         d="m 351.60419,199.60829 1.97754,-0.26367 c 0.22704,1.12061 0.6134,1.9281 1.15905,2.42249 0.54565,0.49438 1.21033,0.74157 1.99402,0.74157 0.93017,0 1.71569,-0.32226 2.35657,-0.96679 0.64086,-0.64453 0.96129,-1.44287 0.9613,-2.39502 -10e-6,-0.9082 -0.29664,-1.6571 -0.88989,-2.24671 -0.59327,-0.58959 -1.34766,-0.88439 -2.26318,-0.8844 -0.37354,1e-5 -0.83863,0.0733 -1.39527,0.21973 l 0.21973,-1.73584 c 0.13183,0.0147 0.23803,0.022 0.3186,0.022 0.84228,10e-6 1.60034,-0.21972 2.27417,-0.65918 0.67382,-0.43944 1.01074,-1.11693 1.01075,-2.03247 -1e-5,-0.72508 -0.24537,-1.32567 -0.73609,-1.80176 -0.49073,-0.47606 -1.12427,-0.71409 -1.90063,-0.71411 -0.76905,2e-5 -1.40992,0.24172 -1.92261,0.7251 -0.5127,0.48341 -0.84229,1.20851 -0.98877,2.17529 l -1.97754,-0.35156 c 0.2417,-1.32567 0.79101,-2.35289 1.64795,-3.08166 0.85693,-0.72875 1.9226,-1.09313 3.19702,-1.09314 0.8789,1e-5 1.68823,0.18861 2.42798,0.56579 0.73974,0.37721 1.30553,0.89174 1.69739,1.54358 0.39183,0.65187 0.58776,1.34401 0.58777,2.07642 -10e-6,0.69581 -0.18678,1.32935 -0.56031,1.90063 -0.37354,0.5713 -0.92652,1.0254 -1.65893,1.36231 0.95214,0.21973 1.69188,0.67566 2.21924,1.36779 0.52733,0.69215 0.791,1.55824 0.79101,2.59827 -10e-6,1.40625 -0.5127,2.59827 -1.53808,3.57605 -1.0254,0.97778 -2.32179,1.46667 -3.88916,1.46668 -1.41358,-1e-5 -2.58729,-0.42115 -3.52112,-1.26343 -0.93384,-0.84229 -1.46668,-1.93359 -1.59851,-3.27393 z"
         style="font-size:75%;baseline-shift:sub"
         id="path6385" />
    </g>
    <g
       style="font-size:30px;fill:#000000;font-family:helvetica"
       id="text6348">
      <path
         d="m 317.93671,216.7607 2.84179,0.71777 c -0.59572,2.33399 -1.6675,4.11377 -3.21533,5.33936 -1.54787,1.22558 -3.43995,1.83837 -5.67627,1.83837 -2.31446,0 -4.19678,-0.47119 -5.64697,-1.41357 -1.4502,-0.94238 -2.55372,-2.30713 -3.31055,-4.09424 -0.75684,-1.7871 -1.13525,-3.70604 -1.13525,-5.75683 0,-2.23632 0.42724,-4.187 1.28174,-5.85205 0.85449,-1.66503 2.0703,-2.92967 3.64746,-3.79395 1.57714,-0.86424 3.31298,-1.29637 5.20752,-1.29639 2.14842,2e-5 3.95506,0.5469 5.41992,1.64063 1.46482,1.09377 2.48533,2.63185 3.06152,4.61426 l -2.79785,0.65918 c -0.49806,-1.56249 -1.22072,-2.70018 -2.16797,-3.41309 -0.94728,-0.71287 -2.13868,-1.06932 -3.57422,-1.06934 -1.6504,2e-5 -3.02979,0.39553 -4.13818,1.18653 -1.1084,0.79103 -1.88721,1.85304 -2.33643,3.18603 -0.44922,1.33302 -0.67383,2.70753 -0.67382,4.12354 -10e-6,1.82618 0.2661,3.42041 0.79834,4.78271 0.53222,1.36231 1.35985,2.38038 2.48291,3.0542 1.12303,0.67383 2.33885,1.01075 3.64746,1.01074 1.59178,1e-5 2.93944,-0.45898 4.04297,-1.37695 1.10349,-0.91796 1.85056,-2.28027 2.24121,-4.08691 z"
         style="font-size:30px;fill:#000000;font-family:helvetica"
         id="path6388" />
      <path
         d="m 324.38202,224.28999 0,-21.47461 2.8418,0 0,8.81836 11.16211,0 0,-8.81836 2.84179,0 0,21.47461 -2.84179,0 0,-10.12207 -11.16211,0 0,10.12207 z"
         style="font-size:30px;fill:#000000;font-family:helvetica"
         id="path6390" />
      <path
         d="m 344.60419,226.03828 1.97754,-0.26367 c 0.22704,1.12061 0.6134,1.92811 1.15905,2.42249 0.54565,0.49438 1.21033,0.74158 1.99402,0.74157 0.93017,1e-5 1.71569,-0.32226 2.35657,-0.96679 0.64086,-0.64453 0.96129,-1.44287 0.9613,-2.39502 -10e-6,-0.9082 -0.29664,-1.6571 -0.88989,-2.24671 -0.59327,-0.58959 -1.34766,-0.88439 -2.26318,-0.88439 -0.37354,0 -0.83863,0.0732 -1.39527,0.21972 l 0.21973,-1.73584 c 0.13183,0.0147 0.23803,0.022 0.3186,0.022 0.84228,1e-5 1.60034,-0.21971 2.27417,-0.65918 0.67382,-0.43944 1.01074,-1.11693 1.01075,-2.03247 -1e-5,-0.72508 -0.24537,-1.32567 -0.73609,-1.80175 -0.49073,-0.47606 -1.12427,-0.7141 -1.90063,-0.71412 -0.76905,2e-5 -1.40992,0.24172 -1.92261,0.7251 -0.5127,0.48341 -0.84229,1.20851 -0.98877,2.1753 l -1.97754,-0.35157 c 0.2417,-1.32567 0.79101,-2.35289 1.64795,-3.08166 0.85693,-0.72875 1.9226,-1.09313 3.19702,-1.09314 0.8789,1e-5 1.68823,0.18861 2.42798,0.56579 0.73974,0.37722 1.30553,0.89174 1.69739,1.54358 0.39183,0.65187 0.58776,1.34401 0.58777,2.07642 -10e-6,0.69581 -0.18678,1.32936 -0.56031,1.90063 -0.37354,0.5713 -0.92652,1.0254 -1.65893,1.36231 0.95214,0.21973 1.69188,0.67567 2.21924,1.3678 0.52733,0.69214 0.791,1.55823 0.79101,2.59826 -10e-6,1.40626 -0.5127,2.59827 -1.53808,3.57605 -1.0254,0.97779 -2.32179,1.46668 -3.88916,1.46668 -1.41358,0 -2.58729,-0.42114 -3.52112,-1.26343 -0.93384,-0.84228 -1.46668,-1.93359 -1.59851,-3.27393 z"
         style="font-size:75%;baseline-shift:sub"
         id="path6392" />
    </g>
  </g>
  <cdml:cdml
     version="0.15">
    <cdml:info>
      <cdml:author_program
         version="0.13.0">BKchem</cdml:author_program>
    </cdml:info>
    <cdml:paper
       crop_margin="5"
       crop_svg="1"
       orientation="portrait"
       replace_minus="0"
       type="Legal"
       use_real_minus="0" />
    <cdml:viewport
       viewport="0.000000 0.000000 640.000000 480.000000" />
    <cdml:standard
       area_color=""
       font_family="helvetica"
       font_size="24"
       line_color="#000"
       line_width="0.06cm"
       paper_crop_margin="5"
       paper_crop_svg="1"
       paper_orientation="portrait"
       paper_type="Legal">
      <cdml:bond
         double-ratio="0.85"
         length="1.4cm"
         wedge-width="0.18cm"
         width="0.21cm" />
      <cdml:arrow
         length="1.6cm" />
      <cdml:atom
         show_hydrogens="0" />
    </cdml:standard>
    <cdml:molecule
       id="molecule56702"
       name="">
      <cdml:query
         id="atom45739"
         name="R"
         pos="center-last">
        <cdml:point
           x="5.843cm"
           y="5.755cm" />
      </cdml:query>
      <cdml:atom
         id="atom40601"
         name="Si"
         pos="center-first"
         valency="4">
        <cdml:point
           x="7.056cm"
           y="5.055cm" />
      </cdml:atom>
      <cdml:atom
         hydrogens="on"
         id="atom70954"
         name="C"
         pos="center-first"
         show="yes"
         valency="4">
        <cdml:point
           x="7.056cm"
           y="3.655cm" />
      </cdml:atom>
      <cdml:atom
         hydrogens="on"
         id="atom63100"
         name="C"
         pos="center-first"
         show="yes"
         valency="4">
        <cdml:point
           x="8.456cm"
           y="5.055cm" />
      </cdml:atom>
      <cdml:atom
         hydrogens="on"
         id="atom12660"
         name="C"
         pos="center-first"
         show="yes"
         valency="4">
        <cdml:point
           x="8.268cm"
           y="5.755cm" />
      </cdml:atom>
      <cdml:bond
         double_ratio="0.85"
         end="atom63100"
         id="bond4527"
         line_width="2.26548672566"
         start="atom40601"
         type="h1"
         wedge_width="6.79646017699" />
      <cdml:bond
         double_ratio="0.85"
         end="atom40601"
         id="bond15134"
         line_width="2.26548672566"
         start="atom70954"
         type="n1" />
      <cdml:bond
         double_ratio="0.85"
         end="atom12660"
         id="bond29423"
         line_width="2.26548672566"
         start="atom40601"
         type="w1"
         wedge_width="6.79646017699" />
      <cdml:bond
         double_ratio="0.85"
         end="atom45739"
         id="bond57752"
         line_width="2.26548672566"
         start="atom40601"
         type="n1" />
    </cdml:molecule>
  </cdml:cdml>
</svg>
