<?xml version="1.0" encoding="UTF-8" standalone="no"?>
<svg
   xmlns:cdml="http://www.freesoftware.fsf.org/bkchem/cdml"
   xmlns:dc="http://purl.org/dc/elements/1.1/"
   xmlns:cc="http://creativecommons.org/ns#"
   xmlns:rdf="http://www.w3.org/1999/02/22-rdf-syntax-ns#"
   xmlns:svg="http://www.w3.org/2000/svg"
   xmlns="http://www.w3.org/2000/svg"
   xmlns:sodipodi="http://sodipodi.sourceforge.net/DTD/sodipodi-0.dtd"
   xmlns:inkscape="http://www.inkscape.org/namespaces/inkscape"
   height="52.70391mm"
   version="1.0"
   viewBox="0 0 302 199"
   width="79.98281mm"
   id="svg3593"
   inkscape:version="0.48.0 r9654"
   sodipodi:docname="tos.svg">
  <metadata
     id="metadata3667">
    <rdf:RDF>
      <cc:Work
         rdf:about="">
        <dc:format>image/svg+xml</dc:format>
        <dc:type
           rdf:resource="http://purl.org/dc/dcmitype/StillImage" />
        <dc:title></dc:title>
      </cc:Work>
    </rdf:RDF>
  </metadata>
  <defs
     id="defs3665" />
  <sodipodi:namedview
     pagecolor="#ffffff"
     bordercolor="#666666"
     borderopacity="1"
     objecttolerance="10"
     gridtolerance="10"
     guidetolerance="10"
     inkscape:pageopacity="0"
     inkscape:pageshadow="2"
     inkscape:window-width="640"
     inkscape:window-height="480"
     id="namedview3663"
     showgrid="false"
     inkscape:zoom="1.408329"
     inkscape:cx="141.70183"
     inkscape:cy="93.37307"
     inkscape:window-x="0"
     inkscape:window-y="0"
     inkscape:window-maximized="0"
     inkscape:current-layer="svg3593" />
  <g
     font-family="Helvetica"
     font-size="12pt"
     stroke-linecap="round"
     transform="translate(-204,-92)"
     id="g3595">
    <g
       stroke="#000000"
       stroke-linecap="butt"
       stroke-width="2.26548672566"
       id="g3597">
      <path
         style=""
         d="m 256,228.53 -20,11.55"
         id="line3599" />
    </g>
    <g
       stroke="#000000"
       stroke-width="2.26548672566"
       id="g3601">
      <path
         style=""
         d="m 406,142 32,-18.47"
         id="line3603" />
    </g>
    <g
       stroke="#000000"
       stroke-width="2.26548672566"
       id="g3605">
      <path
         style=""
         d="M 360.23001,115.56 406,142"
         id="line3607" />
      <path
         style=""
         d="m 359.69,124.4 38.91001,22.48"
         id="line3609" />
    </g>
    <g
       stroke="#000000"
       stroke-linecap="butt"
       stroke-width="2.26548672566"
       id="g3611">
      <path
         style=""
         d="m 254.99001,203.5 -8.09002,-14"
         id="line3613" />
      <path
         style=""
         d="m 260.17999,200.5 -8.07998,-14"
         id="line3615" />
    </g>
    <g
       stroke="#000000"
       stroke-width="2.26548672566"
       id="g3617">
      <path
         style=""
         d="m 406,142 0,52.78999"
         id="line3619" />
    </g>
    <g
       stroke="#000000"
       stroke-width="2.26548672566"
       id="g3621">
      <path
         style=""
         d="m 314.45999,142 45.77002,-26.44"
         id="line3623" />
    </g>
    <g
       stroke="#000000"
       stroke-width="2.26548672566"
       id="g3625">
      <path
         style=""
         d="M 314.45999,194.78999 281,214.10001"
         id="line3627" />
    </g>
    <g
       stroke="#000000"
       stroke-linecap="butt"
       stroke-width="2.26548672566"
       id="g3629">
      <path
         style=""
         d="m 278.66,232.5 8.07999,14"
         id="line3631" />
      <path
         style=""
         d="m 273.45999,235.5 8.08002,14"
         id="line3633" />
    </g>
    <g
       stroke="#000000"
       stroke-width="2.26548672566"
       id="g3635">
      <path
         style=""
         d="m 314.45999,142 0,52.78999"
         id="line3637" />
      <path
         style=""
         d="m 322.39001,145.96001 0,44.86999"
         id="line3639" />
    </g>
    <g
       stroke="#000000"
       stroke-width="2.26548672566"
       id="g3641">
      <path
         style=""
         d="M 314.45999,194.78999 360.23001,221.23"
         id="line3643" />
    </g>
    <g
       stroke="#000000"
       stroke-width="2.26548672566"
       id="g3645">
      <path
         style=""
         d="M 406,194.78999 360.23001,221.23"
         id="line3647" />
      <path
         style=""
         d="M 398.60001,189.89999 359.69,212.38"
         id="line3649" />
    </g>
    <g
       style="font-size:30px;fill:#000000;font-family:helvetica"
       id="text3651">
      <path
         d="m 456.93671,115.0407 2.84179,0.71778 c -0.59572,2.33399 -1.6675,4.11377 -3.21533,5.33935 -1.54787,1.22559 -3.43995,1.83838 -5.67627,1.83838 -2.31446,0 -4.19678,-0.47119 -5.64697,-1.41357 -1.4502,-0.94238 -2.55372,-2.30713 -3.31055,-4.09424 -0.75684,-1.7871 -1.13525,-3.70605 -1.13525,-5.75684 0,-2.23631 0.42724,-4.18699 1.28174,-5.85205 0.85449,-1.66502 2.0703,-2.92967 3.64746,-3.79394 1.57714,-0.86424 3.31298,-1.29637 5.20752,-1.29639 2.14842,2e-5 3.95506,0.5469 5.41992,1.64062 1.46482,1.09377 2.48533,2.63186 3.06152,4.61426 l -2.79785,0.65918 c -0.49806,-1.56248 -1.22072,-2.70018 -2.16797,-3.41308 -0.94728,-0.71288 -2.13868,-1.06932 -3.57422,-1.06934 -1.6504,2e-5 -3.02979,0.39553 -4.13818,1.18652 -1.1084,0.79104 -1.88721,1.85305 -2.33643,3.18604 -0.44922,1.33302 -0.67383,2.70753 -0.67382,4.12353 -10e-6,1.82618 0.2661,3.42042 0.79834,4.78272 0.53222,1.36231 1.35985,2.38037 2.48291,3.0542 1.12303,0.67383 2.33885,1.01074 3.64746,1.01074 1.59178,0 2.93944,-0.45898 4.04297,-1.37695 1.10349,-0.91797 1.85056,-2.28027 2.24121,-4.08692 z"
         style="font-size:30px;fill:#000000;font-family:helvetica"
         id="path3686" />
      <path
         d="m 463.38202,122.57 0,-21.47461 2.8418,0 0,8.81836 11.16211,0 0,-8.81836 2.84179,0 0,21.47461 -2.84179,0 0,-10.12207 -11.16211,0 0,10.12207 z"
         style="font-size:30px;fill:#000000;font-family:helvetica"
         id="path3688" />
      <path
         d="m 483.60419,124.31829 1.97754,-0.26367 c 0.22704,1.12061 0.6134,1.9281 1.15905,2.42248 0.54565,0.49439 1.21033,0.74158 1.99402,0.74158 0.93017,0 1.71569,-0.32226 2.35657,-0.9668 0.64086,-0.64452 0.96129,-1.44286 0.9613,-2.39502 -10e-6,-0.90819 -0.29664,-1.65709 -0.88989,-2.2467 -0.59327,-0.58959 -1.34766,-0.88439 -2.26318,-0.8844 -0.37354,1e-5 -0.83863,0.0733 -1.39527,0.21973 l 0.21973,-1.73584 c 0.13183,0.0147 0.23803,0.022 0.3186,0.022 0.84228,10e-6 1.60034,-0.21972 2.27417,-0.65918 0.67382,-0.43944 1.01074,-1.11693 1.01075,-2.03247 -1e-5,-0.72508 -0.24537,-1.32567 -0.73609,-1.80176 -0.49073,-0.47606 -1.12427,-0.71409 -1.90063,-0.71411 -0.76905,2e-5 -1.40992,0.24171 -1.92261,0.7251 -0.5127,0.48341 -0.84229,1.20851 -0.98877,2.17529 l -1.97754,-0.35156 c 0.2417,-1.32567 0.79101,-2.35289 1.64795,-3.08167 0.85693,-0.72874 1.9226,-1.09312 3.19702,-1.09314 0.8789,2e-5 1.68823,0.18862 2.42798,0.5658 0.73974,0.37721 1.30553,0.89174 1.69739,1.54358 0.39183,0.65187 0.58776,1.34401 0.58777,2.07642 -10e-6,0.69581 -0.18678,1.32935 -0.56031,1.90063 -0.37354,0.5713 -0.92652,1.0254 -1.65893,1.36231 0.95214,0.21973 1.69188,0.67566 2.21924,1.36779 0.52733,0.69215 0.791,1.55824 0.79101,2.59827 -10e-6,1.40625 -0.5127,2.59827 -1.53808,3.57605 -1.0254,0.97778 -2.32179,1.46667 -3.88916,1.46667 -1.41358,0 -2.58729,-0.42114 -3.52112,-1.26342 -0.93384,-0.84229 -1.46668,-1.93359 -1.59851,-3.27393 z"
         style="font-size:75%;baseline-shift:sub"
         id="path3690" />
    </g>
    <g
       style="font-size:30px;fill:#000000;font-family:helvetica"
       id="text3655">
      <path
         d="m 258.64764,221.32059 2.68067,-0.23438 c 0.12695,1.07423 0.42236,1.95557 0.88623,2.64405 0.46386,0.68848 1.18407,1.24512 2.16064,1.66992 0.97656,0.4248 2.07519,0.63721 3.2959,0.6372 1.08397,10e-6 2.041,-0.16113 2.8711,-0.48339 0.83006,-0.32227 1.44773,-0.76416 1.85302,-1.32569 0.40526,-0.56152 0.6079,-1.17431 0.60791,-1.83838 -10e-6,-0.67382 -0.19533,-1.2622 -0.58593,-1.76513 -0.39064,-0.50293 -1.03518,-0.92529 -1.9336,-1.26709 -0.57618,-0.2246 -1.8506,-0.57372 -3.82324,-1.04737 -1.97266,-0.47362 -3.3545,-0.9204 -4.14551,-1.34033 -1.02539,-0.5371 -1.78955,-1.2036 -2.29248,-1.99951 -0.50293,-0.79588 -0.7544,-1.687 -0.75439,-2.67334 -1e-5,-1.08397 0.30761,-2.09715 0.92285,-3.03955 0.61523,-0.94236 1.51367,-1.6577 2.69531,-2.146 1.18163,-0.48826 2.49511,-0.7324 3.94043,-0.73242 1.59179,2e-5 2.99559,0.25637 4.21143,0.76904 1.2158,0.51272 2.15086,1.26711 2.80517,2.26319 0.65428,0.99611 1.00584,2.12404 1.05469,3.38379 l -2.72461,0.20507 c -0.1465,-1.3574 -0.6421,-2.38279 -1.48682,-3.07617 -0.84474,-0.69334 -2.09229,-1.04002 -3.74267,-1.04004 -1.71876,2e-5 -2.9712,0.31496 -3.75733,0.94483 -0.78613,0.6299 -1.1792,1.38918 -1.1792,2.27783 0,0.7715 0.27832,1.40626 0.83497,1.9043 0.54686,0.49806 1.97509,1.00831 4.28466,1.53076 2.30956,0.52247 3.89403,0.97901 4.75342,1.36963 1.24999,0.57618 2.17284,1.30616 2.76856,2.18994 0.59568,0.8838 0.89353,1.90186 0.89355,3.0542 -2e-5,1.14258 -0.32717,2.21924 -0.98144,3.22998 -0.65432,1.01074 -1.59426,1.79687 -2.81983,2.3584 -1.2256,0.56152 -2.60499,0.84228 -4.13818,0.84228 -1.94337,0 -3.57179,-0.2832 -4.88526,-0.84961 -1.31348,-0.5664 -2.34375,-1.41845 -3.09082,-2.55615 -0.74707,-1.13769 -1.14013,-2.42431 -1.1792,-3.85986 z"
         style="font-size:30px;fill:#000000;font-family:helvetica"
         id="path3693" />
    </g>
    <g
       style="font-size:30px;fill:#000000;font-family:helvetica"
       id="text3657">
      <path
         d="m 212.6584,254.64999 0,-21.47461 9.52149,0 c 1.91404,3e-5 3.36912,0.1929 4.36523,0.57862 0.99608,0.38576 1.79197,1.06691 2.3877,2.04345 0.59568,0.97659 0.89353,2.05569 0.89355,3.23731 -2e-5,1.52345 -0.49318,2.80763 -1.47949,3.85254 -0.98635,1.04493 -2.50978,1.70899 -4.57031,1.99219 0.75193,0.36133 1.32322,0.71778 1.71386,1.06933 0.83006,0.76173 1.6162,1.71388 2.3584,2.85645 l 3.73535,5.84472 -3.57422,0 -2.84179,-4.46777 c -0.8301,-1.28906 -1.51369,-2.27538 -2.05078,-2.95898 -0.53713,-0.68359 -1.01808,-1.1621 -1.44288,-1.43555 -0.42481,-0.27343 -0.85694,-0.46386 -1.29638,-0.57129 -0.32228,-0.0683 -0.84962,-0.10253 -1.58203,-0.10254 l -3.2959,0 0,9.53613 z m 2.8418,-11.99707 6.1084,0 c 1.29881,2e-5 2.31444,-0.13426 3.04687,-0.40283 0.73241,-0.26854 1.28905,-0.69823 1.66992,-1.28906 0.38085,-0.59081 0.57128,-1.2329 0.57129,-1.92627 -1e-5,-1.01561 -0.36867,-1.85057 -1.10595,-2.50488 -0.73732,-0.65428 -1.90187,-0.98143 -3.49366,-0.98145 l -6.79687,0 z"
         style="font-size:30px;fill:#000000;font-family:helvetica"
         id="path3696" />
    </g>
    <g
       style="font-size:30px;fill:#000000;font-family:helvetica"
       id="text3659">
      <path
         d="m 230.7502,171.98102 c 0,-3.56444 0.95703,-6.35497 2.87109,-8.37158 1.91406,-2.01658 4.38476,-3.02488 7.41211,-3.02491 1.98241,3e-5 3.76952,0.47366 5.36133,1.4209 1.59178,0.94729 2.80516,2.26809 3.64014,3.9624 0.83494,1.69436 1.25242,3.61574 1.25244,5.76416 -2e-5,2.17775 -0.43948,4.12599 -1.31836,5.84473 -0.87893,1.71875 -2.12404,3.02002 -3.73535,3.90381 -1.61135,0.88379 -3.34963,1.32568 -5.21485,1.32568 -2.02149,0 -3.82813,-0.48828 -5.41992,-1.46484 -1.5918,-0.97656 -2.79785,-2.30957 -3.61816,-3.99902 -0.82032,-1.68945 -1.23047,-3.47656 -1.23047,-5.36133 z m 2.92969,0.0439 c -1e-5,2.5879 0.69579,4.62647 2.0874,6.11573 1.39159,1.48926 3.1372,2.23388 5.23681,2.23388 2.13866,0 3.89891,-0.75195 5.28077,-2.25586 1.38181,-1.5039 2.07273,-3.63768 2.07275,-6.40136 -2e-5,-1.74804 -0.29543,-3.27392 -0.88623,-4.57764 -0.59084,-1.30369 -1.4551,-2.31444 -2.59277,-3.03223 -1.13771,-0.71775 -2.41457,-1.07664 -3.83057,-1.07666 -2.01173,2e-5 -3.74268,0.69094 -5.19287,2.07276 -1.4502,1.38185 -2.1753,3.68898 -2.17529,6.92138 z"
         style="font-size:30px;fill:#000000;font-family:helvetica"
         id="path3699" />
    </g>
    <g
       style="font-size:30px;fill:#000000;font-family:helvetica"
       id="text3661">
      <path
         d="m 283.75018,263.54102 c 0,-3.56444 0.95703,-6.35497 2.8711,-8.37159 1.91405,-2.01658 4.38475,-3.02488 7.41211,-3.0249 1.9824,2e-5 3.76951,0.47366 5.36132,1.4209 1.59178,0.94728 2.80516,2.26808 3.64014,3.9624 0.83494,1.69435 1.25242,3.61574 1.25244,5.76416 -2e-5,2.17775 -0.43947,4.12599 -1.31836,5.84473 -0.87892,1.71875 -2.12404,3.02002 -3.73535,3.90381 -1.61134,0.88379 -3.34962,1.32568 -5.21484,1.32568 -2.0215,0 -3.82814,-0.48828 -5.41992,-1.46484 -1.59181,-0.97656 -2.79786,-2.30957 -3.61817,-3.99903 -0.82031,-1.68944 -1.23047,-3.47655 -1.23047,-5.36132 z m 2.92969,0.0439 c 0,2.5879 0.6958,4.62647 2.0874,6.11572 1.3916,1.48926 3.1372,2.23389 5.23682,2.23389 2.13866,0 3.89891,-0.75195 5.28076,-2.25586 1.38182,-1.5039 2.07274,-3.63769 2.07275,-6.40137 -10e-6,-1.74803 -0.29542,-3.27391 -0.88623,-4.57763 -0.59083,-1.3037 -1.45509,-2.31444 -2.59277,-3.03223 -1.13771,-0.71775 -2.41456,-1.07664 -3.83057,-1.07666 -2.01172,2e-5 -3.74268,0.69094 -5.19287,2.07275 -1.4502,1.38186 -2.17529,3.68898 -2.17529,6.92139 z"
         style="font-size:30px;fill:#000000;font-family:helvetica"
         id="path3702" />
    </g>
  </g>
  <cdml:cdml
     version="0.15">
    <cdml:info>
      <cdml:author_program
         version="0.13.0">BKchem</cdml:author_program>
    </cdml:info>
    <cdml:paper
       crop_margin="5"
       crop_svg="1"
       orientation="portrait"
       replace_minus="0"
       type="Legal"
       use_real_minus="0" />
    <cdml:viewport
       viewport="0.000000 0.000000 640.000000 480.000000" />
    <cdml:standard
       area_color=""
       font_family="helvetica"
       font_size="24"
       line_color="#000"
       line_width="0.06cm"
       paper_crop_margin="5"
       paper_crop_svg="1"
       paper_orientation="portrait"
       paper_type="Legal">
      <cdml:bond
         double-ratio="0.85"
         length="1.4cm"
         wedge-width="0.18cm"
         width="0.21cm" />
      <cdml:arrow
         length="1.6cm" />
      <cdml:atom
         show_hydrogens="0" />
    </cdml:standard>
    <cdml:molecule
       id="molecule37191"
       name="">
      <cdml:atom
         id="atom95494"
         name="C"
         valency="4">
        <cdml:point
           x="8.328cm"
           y="3.761cm" />
      </cdml:atom>
      <cdml:atom
         id="atom99584"
         name="C"
         valency="4">
        <cdml:point
           x="9.540cm"
           y="3.060cm" />
      </cdml:atom>
      <cdml:atom
         id="atom71566"
         name="C"
         valency="4">
        <cdml:point
           x="10.753cm"
           y="3.761cm" />
      </cdml:atom>
      <cdml:atom
         id="atom78526"
         name="C"
         valency="4">
        <cdml:point
           x="10.753cm"
           y="5.159cm" />
      </cdml:atom>
      <cdml:atom
         id="atom51209"
         name="C"
         valency="4">
        <cdml:point
           x="8.328cm"
           y="5.159cm" />
      </cdml:atom>
      <cdml:atom
         id="atom66570"
         name="C"
         valency="4">
        <cdml:point
           x="9.540cm"
           y="5.859cm" />
      </cdml:atom>
      <cdml:atom
         hydrogens="on"
         id="atom92008"
         name="C"
         pos="center-first"
         show="yes"
         valency="4">
        <cdml:point
           x="11.965cm"
           y="3.061cm" />
      </cdml:atom>
      <cdml:atom
         id="atom44547"
         name="S"
         pos="center-first"
         valency="6">
        <cdml:point
           x="7.116cm"
           y="5.859cm" />
      </cdml:atom>
      <cdml:query
         id="atom70762"
         name="R"
         pos="center-last">
        <cdml:point
           x="5.903cm"
           y="6.559cm" />
      </cdml:query>
      <cdml:atom
         id="atom35637"
         name="O"
         pos="center-first"
         valency="2">
        <cdml:point
           x="6.416cm"
           y="4.646cm" />
      </cdml:atom>
      <cdml:atom
         id="atom38669"
         name="O"
         pos="center-first"
         valency="2">
        <cdml:point
           x="7.816cm"
           y="7.071cm" />
      </cdml:atom>
      <cdml:bond
         double_ratio="0.85"
         end="atom70762"
         id="bond52895"
         line_width="2.26548672566"
         start="atom44547"
         type="n1" />
      <cdml:bond
         double_ratio="0.85"
         end="atom92008"
         id="bond91239"
         line_width="2.26548672566"
         start="atom71566"
         type="n1" />
      <cdml:bond
         bond_width="-7.92920353982"
         center="no"
         double_ratio="0.85"
         end="atom71566"
         id="bond97302"
         line_width="2.26548672566"
         start="atom99584"
         type="n2" />
      <cdml:bond
         bond_width="7.92920353982"
         center="yes"
         double_ratio="0.85"
         end="atom35637"
         id="bond29693"
         line_width="2.26548672566"
         start="atom44547"
         type="n2" />
      <cdml:bond
         double_ratio="0.85"
         end="atom78526"
         id="bond89644"
         line_width="2.26548672566"
         start="atom71566"
         type="n1" />
      <cdml:bond
         double_ratio="0.85"
         end="atom99584"
         id="bond67225"
         line_width="2.26548672566"
         start="atom95494"
         type="n1" />
      <cdml:bond
         double_ratio="0.85"
         end="atom44547"
         id="bond7204"
         line_width="2.26548672566"
         start="atom51209"
         type="n1" />
      <cdml:bond
         bond_width="7.92920353982"
         center="yes"
         double_ratio="0.85"
         end="atom38669"
         id="bond72902"
         line_width="2.26548672566"
         start="atom44547"
         type="n2" />
      <cdml:bond
         bond_width="7.92920353982"
         center="no"
         double_ratio="0.85"
         end="atom51209"
         id="bond59792"
         line_width="2.26548672566"
         start="atom95494"
         type="n2" />
      <cdml:bond
         double_ratio="0.85"
         end="atom66570"
         id="bond90819"
         line_width="2.26548672566"
         start="atom51209"
         type="n1" />
      <cdml:bond
         bond_width="-7.92920353982"
         center="no"
         double_ratio="0.85"
         end="atom66570"
         id="bond79818"
         line_width="2.26548672566"
         start="atom78526"
         type="n2" />
    </cdml:molecule>
  </cdml:cdml>
</svg>
