<?xml version="1.0" encoding="UTF-8" standalone="no"?>
<!-- Created with Inkscape (http://www.inkscape.org/) -->

<svg
   xmlns:dc="http://purl.org/dc/elements/1.1/"
   xmlns:cc="http://creativecommons.org/ns#"
   xmlns:rdf="http://www.w3.org/1999/02/22-rdf-syntax-ns#"
   xmlns:svg="http://www.w3.org/2000/svg"
   xmlns="http://www.w3.org/2000/svg"
   version="1.1"
   width="100%"
   height="100%"
   viewBox="145.43 129.96 319.11 156.94"
   id="svg3144">
  <metadata
     id="metadata3278">
    <rdf:RDF>
      <cc:Work
         rdf:about="">
        <dc:format>image/svg+xml</dc:format>
        <dc:type
           rdf:resource="http://purl.org/dc/dcmitype/StillImage" />
        <dc:title></dc:title>
      </cc:Work>
    </rdf:RDF>
  </metadata>
  <defs
     id="defs3276" />
  <clipPath
     id="65">
    <rect
       width="1116.8"
       height="1610"
       x="0.85"
       y="0.85"
       id="rect3147" />
  </clipPath>
  <g
     transform="translate(8.0676,7.2957)"
     id="Solid">
    <path
       d="m 214.98,194.47 0,0 0.85,0.49 0.85,0.49 0,38.7 -0.85,0.49 -0.85,-0.49 z"
       id="path3154"
       style="fill:#000000;fill-rule:evenodd;stroke:#000000;stroke-width:0;stroke-linejoin:miter" />
    <path
       d="m 221.78,198.4 0,32.8"
       id="line3156"
       style="stroke:#000000;stroke-width:1.7" />
  </g>
  <g
     transform="translate(8.0676,7.2957)"
     id="g3158">
    <path
       d="m 215.83,235.62 0,0 0,-0.98 0.85,-0.49 33.52,19.36 0,0.98 0,0.98 z"
       id="path3160"
       style="fill:#000000;fill-rule:evenodd;stroke:#000000;stroke-width:0;stroke-linejoin:miter" />
  </g>
  <g
     transform="translate(8.0676,7.2957)"
     id="g3162">
    <path
       d="m 250.2,255.47 0,0 0,-0.98 0,-0.98 33.52,-19.36 0.85,0.49 0.85,0.49 z"
       id="path3164"
       style="fill:#000000;fill-rule:evenodd;stroke:#000000;stroke-width:0;stroke-linejoin:miter" />
    <path
       d="M 250.2,247.61 278.62,231.2"
       id="line3166"
       style="stroke:#000000;stroke-width:1.7" />
  </g>
  <g
     transform="translate(8.0676,7.2957)"
     id="g3168">
    <path
       d="m 285.42,235.13 0,0 -0.85,-0.49 -0.85,-0.49 0,-38.7 0.85,-0.49 0.85,0.49 z"
       id="path3170"
       style="fill:#000000;fill-rule:evenodd;stroke:#000000;stroke-width:0;stroke-linejoin:miter" />
  </g>
  <g
     transform="translate(8.0676,7.2957)"
     id="g3172">
    <path
       d="m 284.57,193.98 0,0 0,0.98 -0.85,0.49 -33.52,-19.36 0,-0.98 0,-0.98 z"
       id="path3174"
       style="fill:#000000;fill-rule:evenodd;stroke:#000000;stroke-width:0;stroke-linejoin:miter" />
    <path
       d="M 278.62,198.4 250.2,181.99"
       id="line3176"
       style="stroke:#000000;stroke-width:1.7" />
  </g>
  <g
     transform="translate(8.0676,7.2957)"
     id="g3178">
    <path
       d="m 250.2,174.13 0,0 0,0.98 0,0.98 -33.52,19.36 -0.85,-0.49 -0.85,-0.49 z"
       id="path3180"
       style="fill:#000000;fill-rule:evenodd;stroke:#000000;stroke-width:0;stroke-linejoin:miter" />
  </g>
  <g
     transform="translate(8.0676,7.2957)"
     id="g3182">
    <g
       id="text3184"
       style="text-anchor:start">
      <path
         d="m 312.02,179.04 2.14,-0.19 c 0.1,0.86 0.34,1.57 0.71,2.12 0.37,0.55 0.95,0.99 1.73,1.33 0.78,0.34 1.66,0.51 2.64,0.51 0.86,0 1.63,-0.13 2.29,-0.38 0.67,-0.26 1.16,-0.61 1.49,-1.06 0.32,-0.45 0.48,-0.94 0.48,-1.47 0,-0.54 -0.15,-1.01 -0.47,-1.42 -0.31,-0.4 -0.82,-0.74 -1.54,-1.01 -0.46,-0.18 -1.48,-0.46 -3.06,-0.84 -1.58,-0.38 -2.69,-0.73 -3.32,-1.07 -0.82,-0.43 -1.43,-0.96 -1.83,-1.6 -0.4,-0.64 -0.61,-1.35 -0.61,-2.14 0,-0.87 0.25,-1.68 0.74,-2.43 0.49,-0.75 1.21,-1.33 2.16,-1.72 0.94,-0.39 1.99,-0.58 3.15,-0.58 1.27,0 2.4,0.2 3.37,0.61 0.97,0.41 1.72,1.02 2.24,1.81 0.53,0.8 0.81,1.7 0.85,2.71 l -2.18,0.16 c -0.12,-1.08 -0.52,-1.9 -1.19,-2.46 -0.68,-0.55 -1.67,-0.83 -2.99,-0.83 -1.38,0 -2.38,0.25 -3.01,0.76 -0.63,0.5 -0.94,1.11 -0.94,1.82 0,0.62 0.22,1.12 0.66,1.52 0.44,0.4 1.58,0.81 3.43,1.23 1.85,0.42 3.12,0.78 3.8,1.09 1,0.46 1.74,1.05 2.22,1.76 0.48,0.7 0.71,1.52 0.71,2.44 0,0.91 -0.26,1.77 -0.78,2.58 -0.52,0.81 -1.28,1.44 -2.26,1.89 -0.98,0.45 -2.08,0.67 -3.31,0.67 -1.55,0 -2.86,-0.22 -3.91,-0.68 -1.05,-0.45 -1.87,-1.13 -2.47,-2.04 -0.6,-0.91 -0.91,-1.94 -0.94,-3.09 z"
         id="path3435"
         style="font-size:24px;fill:#000000;font-family:Arial" />
    </g>
  </g>
  <g
     transform="translate(8.0676,7.2957)"
     id="g3188">
    <path
       d="m 285.42,195.45 0,0 -0.85,-0.49 0,-0.98 25.11,-14.51 0.43,0.74 0.42,0.74 z"
       id="path3190"
       style="fill:#000000;fill-rule:evenodd;stroke:#000000;stroke-width:0;stroke-linejoin:miter" />
  </g>
  <g
     transform="translate(8.0676,7.2957)"
     id="g3192">
    <path
       d="m 327.27,180.9 0,0 0.42,-0.73 0.43,-0.74 25.18,14.55 0,0.98 0,0.98 z"
       id="path3194"
       style="fill:#000000;fill-rule:evenodd;stroke:#000000;stroke-width:0;stroke-linejoin:miter" />
  </g>
  <g
     transform="translate(8.0676,7.2957)"
     id="g3196">
    <g
       id="text3198"
       style="text-anchor:start">
      <path
         d="m 290.93,141.83 c 0,-2.85 0.77,-5.08 2.3,-6.69 1.53,-1.62 3.5,-2.42 5.93,-2.42 1.58,0 3.01,0.37 4.29,1.13 1.27,0.76 2.24,1.82 2.91,3.17 0.67,1.36 1,2.89 1,4.61 0,1.75 -0.35,3.3 -1.05,4.68 -0.71,1.37 -1.7,2.42 -2.99,3.12 -1.29,0.71 -2.68,1.06 -4.18,1.06 -1.61,0 -3.06,-0.39 -4.33,-1.17 -1.27,-0.78 -2.24,-1.85 -2.9,-3.2 -0.65,-1.35 -0.98,-2.78 -0.98,-4.29 z m 2.34,0 c 0,2.07 0.56,3.7 1.67,4.89 1.12,1.19 2.51,1.79 4.19,1.79 1.71,0 3.12,-0.6 4.23,-1.81 1.1,-1.2 1.66,-2.91 1.66,-5.12 0,-1.4 -0.24,-2.62 -0.71,-3.66 -0.48,-1.04 -1.17,-1.85 -2.08,-2.43 -0.91,-0.57 -1.93,-0.86 -3.06,-0.86 -1.61,0 -3,0.56 -4.16,1.66 -1.16,1.11 -1.74,2.95 -1.74,5.54 z"
         id="path3432"
         style="font-size:24px;fill:#000000;font-family:Arial" />
    </g>
  </g>
  <g
     transform="translate(8.0676,7.2957)"
     id="g3202">
    <path
       d="m 310.75,166.5 -7.29,-12.62"
       id="line3204"
       style="stroke:#000000;stroke-width:1.7" />
    <path
       d="m 314.84,164.14 0,0 1.47,-0.85 -7.29,-12.62 -1.47,0.85 z"
       id="path3206"
       style="fill:#000000;fill-rule:evenodd;stroke:#000000;stroke-width:0;stroke-linejoin:miter" />
    <path
       d="m 310.01,166.93 0,0 1.48,-0.85 -7.29,-12.62 -1.47,0.85 z"
       id="path3208"
       style="fill:#000000;fill-rule:evenodd;stroke:#000000;stroke-width:0;stroke-linejoin:miter" />
  </g>
  <g
     transform="translate(8.0676,7.2957)"
     id="g3210">
    <g
       id="text3212"
       style="text-anchor:start">
      <path
         d="m 330.61,141.83 c 0,-2.85 0.77,-5.08 2.3,-6.69 1.53,-1.62 3.5,-2.42 5.93,-2.42 1.58,0 3.01,0.37 4.29,1.13 1.27,0.76 2.24,1.82 2.91,3.17 0.67,1.36 1,2.89 1,4.61 0,1.75 -0.35,3.3 -1.05,4.68 -0.71,1.37 -1.7,2.42 -2.99,3.12 -1.29,0.71 -2.68,1.06 -4.17,1.06 -1.62,0 -3.07,-0.39 -4.34,-1.17 -1.27,-0.78 -2.24,-1.85 -2.9,-3.2 -0.65,-1.35 -0.98,-2.78 -0.98,-4.29 z m 2.34,0 c 0,2.07 0.56,3.7 1.67,4.89 1.12,1.19 2.51,1.79 4.19,1.79 1.71,0 3.12,-0.6 4.23,-1.81 1.1,-1.2 1.66,-2.91 1.66,-5.12 0,-1.4 -0.24,-2.62 -0.71,-3.66 -0.48,-1.04 -1.17,-1.85 -2.08,-2.43 -0.91,-0.57 -1.93,-0.86 -3.06,-0.86 -1.61,0 -3,0.56 -4.16,1.66 -1.16,1.11 -1.74,2.95 -1.74,5.54 z"
         id="path3428"
         style="font-size:24px;fill:#000000;font-family:Arial" />
    </g>
  </g>
  <g
     transform="translate(8.0676,7.2957)"
     id="g3216">
    <path
       d="m 322.3,163.72 7.29,-12.62"
       id="line3218"
       style="stroke:#000000;stroke-width:1.7" />
    <path
       d="m 326.39,166.08 0,0 1.47,0.85 7.29,-12.62 -1.47,-0.85 z"
       id="path3220"
       style="fill:#000000;fill-rule:evenodd;stroke:#000000;stroke-width:0;stroke-linejoin:miter" />
    <path
       d="m 321.57,163.29 0,0 1.47,0.85 7.28,-12.62 -1.47,-0.85 z"
       id="path3222"
       style="fill:#000000;fill-rule:evenodd;stroke:#000000;stroke-width:0;stroke-linejoin:miter" />
  </g>
  <g
     transform="translate(8.0676,7.2957)"
     id="g3224">
    <g
       id="text3226"
       style="text-anchor:start">
      <path
         d="m 380.83,184.56 0,-17.18 2.33,0 9.02,13.49 0,-13.49 2.18,0 0,17.18 -2.33,0 -9.02,-13.5 0,13.5 z"
         id="path3424"
         style="font-size:24px;fill:#000000;font-family:Arial" />
    </g>
  </g>
  <g
     transform="translate(8.0676,7.2957)"
     id="g3230">
    <path
       d="m 353.3,195.94 0,0 0,-0.98 0,-0.98 25.18,-14.55 0.43,0.74 0.42,0.74 z"
       id="path3232"
       style="fill:#000000;fill-rule:evenodd;stroke:#000000;stroke-width:0;stroke-linejoin:miter" />
  </g>
  <g
     transform="translate(8.0676,7.2957)"
     id="g3234">
    <g
       id="text3236"
       style="text-anchor:end">
      <path
         d="m 147.35,263.94 0,-17.18 2.28,0 0,7.06 8.93,0 0,-7.06 2.27,0 0,17.18 -2.27,0 0,-8.1 -8.93,0 0,8.1 z"
         id="path3417"
         style="font-size:24px;fill:#000000;font-family:Arial" />
      <path
         d="m 163.53,265.97 1.58,-0.21 c 0.19,0.89 0.5,1.54 0.93,1.94 0.44,0.39 0.97,0.59 1.6,0.59 0.74,0 1.37,-0.26 1.88,-0.77 0.52,-0.52 0.77,-1.16 0.77,-1.92 0,-0.73 -0.24,-1.33 -0.71,-1.8 -0.48,-0.47 -1.08,-0.71 -1.81,-0.71 -0.3,0 -0.67,0.1 -1.12,0.18 l 0.18,-1.39 c 0.1,0 0.19,0 0.25,0 0.68,0 1.28,-0.18 1.82,-0.53 0.54,-0.35 0.81,-0.89 0.81,-1.62 0,-0.58 -0.2,-1.06 -0.59,-1.45 -0.39,-0.38 -0.9,-0.57 -1.52,-0.57 -0.61,0 -1.13,0.2 -1.54,0.58 -0.41,0.39 -0.67,0.97 -0.79,1.74 l -1.58,-0.28 c 0.19,-1.06 0.63,-1.88 1.32,-2.46 0.68,-0.59 1.54,-0.88 2.56,-0.88 0.7,0 1.35,0.15 1.94,0.46 0.59,0.3 1.04,0.71 1.36,1.23 0.31,0.52 0.47,1.08 0.47,1.66 0,0.56 -0.15,1.06 -0.45,1.52 -0.3,0.46 -0.74,0.82 -1.33,1.09 0.76,0.18 1.36,0.54 1.78,1.1 0.42,0.55 0.63,1.24 0.63,2.07 0,1.13 -0.41,2.08 -1.23,2.87 -0.82,0.78 -1.86,1.17 -3.11,1.17 -1.13,0 -2.07,-0.34 -2.82,-1.01 -0.75,-0.68 -1.17,-1.55 -1.28,-2.62 z"
         id="path3419"
         style="font-size:18px;fill:#000000;font-family:Arial" />
      <path
         d="m 186.91,257.92 2.27,0.57 c -0.48,1.87 -1.33,3.29 -2.57,4.27 -1.24,0.98 -2.76,1.47 -4.54,1.47 -1.86,0 -3.36,-0.37 -4.52,-1.13 -1.16,-0.75 -2.04,-1.84 -2.65,-3.27 -0.61,-1.43 -0.91,-2.97 -0.91,-4.61 0,-1.79 0.34,-3.35 1.03,-4.68 0.68,-1.33 1.65,-2.34 2.91,-3.04 1.27,-0.69 2.66,-1.03 4.17,-1.03 1.72,0 3.16,0.43 4.34,1.31 1.17,0.87 1.99,2.11 2.45,3.69 l -2.24,0.53 c -0.4,-1.25 -0.98,-2.16 -1.74,-2.73 -0.75,-0.57 -1.71,-0.86 -2.86,-0.86 -1.32,0 -2.42,0.32 -3.31,0.95 -0.88,0.63 -1.51,1.48 -1.87,2.55 -0.36,1.07 -0.53,2.17 -0.53,3.3 0,1.46 0.21,2.74 0.63,3.83 0.43,1.09 1.09,1.9 1.99,2.44 0.9,0.54 1.87,0.81 2.92,0.81 1.27,0 2.35,-0.37 3.23,-1.1 0.89,-0.74 1.48,-1.83 1.8,-3.27 z"
         id="path3421"
         style="font-size:24px;fill:#000000;font-family:Arial" />
    </g>
  </g>
  <g
     transform="translate(8.0676,7.2957)"
     id="g3244">
    <path
       d="m 214.98,234.15 0,0 0.85,0.49 0,0.98 -24.61,14.22 -0.43,-0.74 -0.42,-0.74 z"
       id="path3246"
       style="fill:#000000;fill-rule:evenodd;stroke:#000000;stroke-width:0;stroke-linejoin:miter" />
  </g>
  <g
     transform="translate(8.0676,7.2957)"
     id="g3248">
    <g
       id="text3250"
       style="text-anchor:start">
      <path
         d="m 427.48,158.7 2.27,0.57 c -0.47,1.87 -1.33,3.29 -2.57,4.27 -1.24,0.98 -2.75,1.47 -4.54,1.47 -1.85,0 -3.36,-0.37 -4.52,-1.13 -1.16,-0.75 -2.04,-1.84 -2.65,-3.27 -0.6,-1.43 -0.9,-2.97 -0.9,-4.61 0,-1.79 0.34,-3.35 1.02,-4.68 0.68,-1.33 1.66,-2.34 2.92,-3.04 1.26,-0.69 2.65,-1.03 4.16,-1.03 1.72,0 3.17,0.43 4.34,1.31 1.17,0.87 1.99,2.11 2.45,3.69 l -2.24,0.53 c -0.4,-1.25 -0.98,-2.16 -1.73,-2.73 -0.76,-0.57 -1.71,-0.86 -2.86,-0.86 -1.32,0 -2.43,0.32 -3.31,0.95 -0.89,0.63 -1.51,1.48 -1.87,2.55 -0.36,1.07 -0.54,2.17 -0.54,3.3 0,1.46 0.21,2.74 0.64,3.83 0.42,1.09 1.09,1.9 1.98,2.44 0.9,0.54 1.88,0.81 2.92,0.81 1.28,0 2.35,-0.37 3.24,-1.1 0.88,-0.74 1.48,-1.83 1.79,-3.27 z"
         id="path3414"
         style="font-size:24px;fill:#000000;font-family:Arial" />
    </g>
  </g>
  <g
     transform="translate(8.0676,7.2957)"
     id="g3254">
    <path
       d="m 396.82,170.81 0,0 -0.43,-0.73 -0.42,-0.74 16.21,-9.36 0.43,0.73 0.42,0.74 z"
       id="path3256"
       style="fill:#000000;fill-rule:evenodd;stroke:#000000;stroke-width:0;stroke-linejoin:miter" />
    <path
       d="m 398.82,174.29 16.22,-9.36"
       id="line3258"
       style="stroke:#000000;stroke-width:1.7" />
    <path
       d="m 393.96,165.86 16.22,-9.36"
       id="line3260"
       style="stroke:#000000;stroke-width:1.7" />
  </g>
  <g
     transform="translate(8.0676,7.2957)"
     id="Charge62">
    <path
       d="m 445.8,141.35 c 0,4.42 -3.58,8 -8,8 -4.42,0 -8,-3.58 -8,-8 0,-4.42 3.58,-8 8,-8 4.42,0 8,3.58 8,8 z"
       id="circle3263"
       style="fill:none;stroke:#000000;stroke-width:1.36" />
    <path
       d="m 432.95,141.35 9.7,0"
       id="line3265"
       style="stroke:#000000;stroke-width:1.36" />
  </g>
  <g
     transform="translate(8.0676,7.2957)"
     id="Charge63">
    <path
       d="m 394.58,154.12 c 0,4.42 -3.58,8 -8,8 -4.42,0 -8,-3.58 -8,-8 0,-4.42 3.58,-8 8,-8 4.42,0 8,3.58 8,8 z"
       id="circle3268"
       style="fill:none;stroke:#000000;stroke-width:1.36" />
    <path
       d="m 381.73,154.12 9.7,0"
       id="line3270"
       style="stroke:#000000;stroke-width:1.36" />
    <path
       d="m 386.58,149.27 0,9.7"
       id="line3272"
       style="stroke:#000000;stroke-width:1.36" />
  </g>
</svg>
