<?xml version="1.0" encoding="UTF-8" standalone="no"?>
<!-- Generator: Adobe Illustrator 12.0.1, SVG Export Plug-In . SVG Version: 6.00 Build 51448)  -->
<svg
   xmlns:dc="http://purl.org/dc/elements/1.1/"
   xmlns:cc="http://creativecommons.org/ns#"
   xmlns:rdf="http://www.w3.org/1999/02/22-rdf-syntax-ns#"
   xmlns:svg="http://www.w3.org/2000/svg"
   xmlns="http://www.w3.org/2000/svg"
   xmlns:sodipodi="http://sodipodi.sourceforge.net/DTD/sodipodi-0.dtd"
   xmlns:inkscape="http://www.inkscape.org/namespaces/inkscape"
   version="1.1"
   id="Layer_1"
   width="239.156"
   height="258.081"
   viewBox="0 0 239.156 258.081"
   style="overflow:visible;enable-background:new 0 0 239.156 258.081;"
   xml:space="preserve"
   sodipodi:version="0.32"
   inkscape:version="0.46"
   sodipodi:docname="Uridin.svg"
   inkscape:output_extension="org.inkscape.output.svg.inkscape"><metadata
   id="metadata88"><rdf:RDF><cc:Work
       rdf:about=""><dc:format>image/svg+xml</dc:format><dc:type
         rdf:resource="http://purl.org/dc/dcmitype/StillImage" /></cc:Work></rdf:RDF></metadata><defs
   id="defs86"><inkscape:perspective
   sodipodi:type="inkscape:persp3d"
   inkscape:vp_x="0 : 129.0405 : 1"
   inkscape:vp_y="0 : 1000 : 0"
   inkscape:vp_z="239.15601 : 129.0405 : 1"
   inkscape:persp3d-origin="119.578 : 86.026998 : 1"
   id="perspective90" />
	

	
	

	
	

	
	

	
	

	

	

	
</defs><sodipodi:namedview
   inkscape:window-height="675"
   inkscape:window-width="661"
   inkscape:pageshadow="2"
   inkscape:pageopacity="0.0"
   guidetolerance="10.0"
   gridtolerance="10.0"
   objecttolerance="10.0"
   borderopacity="1.0"
   bordercolor="#666666"
   pagecolor="#ffffff"
   id="base"
   showgrid="false"
   inkscape:zoom="1.7901357"
   inkscape:cx="119.578"
   inkscape:cy="129.0405"
   inkscape:window-x="242"
   inkscape:window-y="242"
   inkscape:current-layer="Layer_1" />
<path
   style="fill:#231f20"
   d="M 132.76782,202.23185 L 135.52282,204.65435 L 134.71627,207.07685 L 87.310325,207.07685 L 86.503775,204.65435 L 89.258775,202.23185 L 132.76782,202.23185 z"
   id="polygon3" />
<path
   style="fill:#231f20"
   d="M 61.185325,162.42685 L 61.992825,162.23685 L 63.180325,162.52185 L 89.258775,202.23185 L 86.503775,204.65435 L 85.696275,211.16185 L 61.185325,162.42685 z"
   id="polygon5" />
<path
   style="fill:#231f20"
   d="M 158.84627,162.52185 L 160.03377,162.23685 L 160.84127,162.42685 L 136.33032,211.16185 L 135.52282,204.65435 L 132.76782,202.23185 L 158.84627,162.52185 z"
   id="polygon7" />
<path
   style="fill:#231f20"
   d="M 100.80127,141.76435 L 101.51377,143.23685 L 63.180325,162.52185 L 61.992825,162.23685 L 62.801275,160.90685 L 100.80127,141.76435 z"
   id="polygon9" />
<path
   id="path13"
   d="M 102.80197,138.7576 C 102.80197,136.04725 103.52967,133.92685 104.98507,132.3945 C 106.44047,130.8612 108.31957,130.09455 110.62142,130.09455 C 112.12907,130.09455 113.48757,130.4546 114.69787,131.1747 C 115.90817,131.89575 116.83062,132.89895 117.46617,134.18715 C 118.10172,135.47535 118.41807,136.93645 118.41807,138.56855 C 118.41807,140.2244 118.08367,141.70545 117.41582,143.0117 C 116.74797,144.31795 115.80082,145.30785 114.57532,145.9795 C 113.34982,146.65115 112.02837,146.98745 110.61002,146.98745 C 109.07292,146.98745 107.69922,146.616 106.48892,145.87405 C 105.27862,145.1321 104.36187,144.1175 103.73772,142.83405 C 103.11357,141.5506 102.80197,140.1902 102.80197,138.7576 z M 105.02877,138.78515 C 105.02877,140.75165 105.55792,142.3011 106.61622,143.4335 C 107.67452,144.5659 109.00262,145.13115 110.59862,145.13115 C 112.22502,145.13115 113.56357,144.55925 114.61522,143.4164 C 115.66592,142.27355 116.19127,140.6519 116.19127,138.55145 C 116.19127,137.22335 115.96707,136.0634 115.51772,135.07255 C 115.06837,134.0817 114.41097,133.31315 113.54552,132.76785 C 112.68007,132.22255 111.70917,131.9499 110.63282,131.9499 C 109.10332,131.9499 107.78662,132.47525 106.68367,133.525 C 105.58072,134.57475 105.02877,136.32845 105.02877,138.78515 z"
   style="fill:#231f20" />
<path
   style="fill:#231f20"
   d="M 119.80127,143.18935 L 120.51377,141.71685 L 159.22627,160.90685 L 160.03377,162.23685 L 158.84627,162.52185 L 119.80127,143.18935 z"
   id="polygon15" />
<path
   style="fill:#231f20"
   d="M 61.185325,124.99685 L 62.801275,124.04685 L 62.801275,160.90685 L 61.992825,162.23685 L 61.185325,162.42685 L 61.185325,124.99685 z"
   id="polygon17" />
<path
   id="path21"
   d="M 127.69102,243.4001 C 127.69102,240.68975 128.41872,238.56935 129.87507,237.037 C 131.32952,235.5037 133.20957,234.73705 135.51047,234.73705 C 137.01907,234.73705 138.37757,235.0971 139.58692,235.8172 C 140.79722,236.53825 141.72062,237.54145 142.35522,238.82965 C 142.98982,240.11785 143.30712,241.57895 143.30712,243.21105 C 143.30712,244.8669 142.97272,246.34795 142.30487,247.6542 C 141.63702,248.96045 140.68987,249.95035 139.46437,250.622 C 138.23982,251.29365 136.91742,251.62995 135.49907,251.62995 C 133.96292,251.62995 132.58827,251.2585 131.37797,250.51655 C 130.16767,249.7746 129.25187,248.76 128.62677,247.47655 C 128.00167,246.1931 127.69102,244.83365 127.69102,243.4001 z M 129.91782,243.42765 C 129.91782,245.39415 130.44697,246.9436 131.50622,248.076 C 132.56357,249.20745 133.89262,249.77365 135.48767,249.77365 C 137.11503,249.77365 138.45262,249.20175 139.50522,248.0589 C 140.55497,246.91605 141.08032,245.2944 141.08032,243.19395 C 141.08032,241.86585 140.85612,240.7059 140.40677,239.71505 C 139.95742,238.7242 139.30002,237.95565 138.43457,237.41035 C 137.57007,236.86505 136.59917,236.5924 135.52187,236.5924 C 133.99332,236.5924 132.67567,237.11775 131.57367,238.1675 C 130.46882,239.2182 129.91782,240.97095 129.91782,243.42765 z"
   style="fill:#231f20" /><path
   id="path23"
   d="M 146.16757,251.34685 L 146.16757,235.01825 L 148.33452,235.01825 L 148.33452,241.7281 L 156.78097,241.7281 L 156.78097,235.01825 L 158.94792,235.01825 L 158.94792,251.34685 L 156.78097,251.34685 L 156.78097,243.65755 L 148.33452,243.65755 L 148.33452,251.34685 L 146.16757,251.34685 z"
   style="fill:#231f20" />
<path
   style="fill:#231f20"
   d="M 136.33032,232.58435 L 134.71627,232.58435 L 134.71627,207.07685 L 135.52282,204.65435 L 136.33032,211.16185 L 136.33032,232.58435 z"
   id="polygon25" />
<path
   id="path29"
   d="M 78.719475,243.4001 C 78.719475,240.68975 79.447175,238.56935 80.902575,237.037 C 82.357975,235.5037 84.237075,234.73705 86.538925,234.73705 C 88.046575,234.73705 89.405075,235.0971 90.615375,235.8172 C 91.825675,236.53825 92.748125,237.54145 93.383675,238.82965 C 94.019225,240.11785 94.335575,241.57895 94.335575,243.21105 C 94.335575,244.8669 94.001175,246.34795 93.333325,247.6542 C 92.665475,248.96045 91.718325,249.95035 90.492825,250.622 C 89.267325,251.29365 87.945875,251.62995 86.527525,251.62995 C 84.990425,251.62995 83.616725,251.2585 82.406425,250.51655 C 81.196125,249.7746 80.279375,248.76 79.655225,247.47655 C 79.031075,246.1931 78.719475,244.83365 78.719475,243.4001 z M 80.946275,243.42765 C 80.946275,245.39415 81.475425,246.9436 82.533725,248.076 C 83.592025,249.2084 84.920125,249.77365 86.516125,249.77365 C 88.142525,249.77365 89.481075,249.20175 90.532725,248.0589 C 91.583425,246.91605 92.108775,245.2944 92.108775,243.19395 C 92.108775,241.86585 91.884575,240.7059 91.435225,239.71505 C 90.985875,238.7242 90.328475,237.95565 89.463025,237.41035 C 88.597575,236.86505 87.626675,236.5924 86.550325,236.5924 C 85.020825,236.5924 83.704125,237.11775 82.601175,238.1675 C 81.498225,239.21725 80.946275,240.97095 80.946275,243.42765 z"
   style="fill:#231f20" /><path
   id="path31"
   d="M 97.196025,251.34685 L 97.196025,235.01825 L 99.362975,235.01825 L 99.362975,241.7281 L 107.80942,241.7281 L 107.80942,235.01825 L 109.97637,235.01825 L 109.97637,251.34685 L 107.80942,251.34685 L 107.80942,243.65755 L 99.362975,243.65755 L 99.362975,251.34685 L 97.196025,251.34685 z"
   style="fill:#231f20" />
<path
   style="fill:#231f20"
   d="M 87.310325,232.58435 L 85.696275,232.58435 L 85.696275,211.16185 L 86.503775,204.65435 L 87.310325,207.07685 L 87.310325,232.58435 z"
   id="polygon33" />
<path
   style="fill:#231f20"
   d="M 159.22627,135.63685 L 160.84127,135.63685 L 160.84127,162.42685 L 160.03377,162.23685 L 159.22627,160.90685 L 159.22627,135.63685 z"
   id="polygon35" />
<path
   id="path39"
   d="M 5.978925,114.64185 L 5.978925,98.31325 L 8.145875,98.31325 L 8.145875,105.0231 L 16.592325,105.0231 L 16.592325,98.31325 L 18.759275,98.31325 L 18.759275,114.64185 L 16.592325,114.64185 L 16.592325,106.95255 L 8.145875,106.95255 L 8.145875,114.64185 L 5.978925,114.64185 z"
   style="fill:#231f20" /><path
   id="path41"
   d="M 21.702375,106.6951 C 21.702375,103.98475 22.430075,101.86435 23.885475,100.332 C 25.340875,98.7987 27.219975,98.03205 29.521825,98.03205 C 31.029475,98.03205 32.387975,98.3921 33.598275,99.1122 C 34.808575,99.83325 35.731025,100.83645 36.366575,102.12465 C 37.002125,103.41285 37.318475,104.87395 37.318475,106.50605 C 37.318475,108.1619 36.984075,109.64295 36.316225,110.9492 C 35.648375,112.25545 34.701225,113.24535 33.475725,113.917 C 32.250225,114.58865 30.928775,114.92495 29.510425,114.92495 C 27.973325,114.92495 26.599625,114.5535 25.389325,113.81155 C 24.179025,113.0696 23.262275,112.055 22.638125,110.77155 C 22.013975,109.4881 21.702375,108.1277 21.702375,106.6951 z M 23.929175,106.72265 C 23.929175,108.68915 24.458325,110.2386 25.516625,111.371 C 26.574925,112.5034 27.903025,113.06865 29.499025,113.06865 C 31.125425,113.06865 32.463975,112.49675 33.515625,111.3539 C 34.566325,110.21105 35.091675,108.5894 35.091675,106.48895 C 35.091675,105.16085 34.867475,104.0009 34.418125,103.01005 C 33.968775,102.0192 33.311375,101.25065 32.445925,100.70535 C 31.580475,100.16005 30.609575,99.8874 29.533225,99.8874 C 28.003725,99.8874 26.687025,100.41275 25.584075,101.4625 C 24.481125,102.51225 23.929175,104.26595 23.929175,106.72265 z"
   style="fill:#231f20" />
<path
   style="fill:#231f20"
   d="M 38.291275,111.79185 L 39.097825,110.36685 L 62.801275,124.04685 L 61.185325,124.99685 L 38.291275,111.79185 z"
   id="polygon43" />
<path
   id="path47"
   d="M 186.18442,76.92685 L 186.18442,60.59825 L 188.40742,60.59825 L 196.96122,73.4128 L 196.96122,60.59825 L 199.03982,60.59825 L 199.03982,76.92685 L 196.81682,76.92685 L 188.26302,64.1123 L 188.26302,76.92685 L 186.18442,76.92685 z"
   style="fill:#231f20" /><path
   id="path49"
   d="M 202.75432,76.92685 L 202.75432,60.59825 L 204.92127,60.59825 L 204.92127,67.3081 L 213.36772,67.3081 L 213.36772,60.59825 L 215.53467,60.59825 L 215.53467,76.92685 L 213.36772,76.92685 L 213.36772,69.23755 L 204.92127,69.23755 L 204.92127,76.92685 L 202.75432,76.92685 z"
   style="fill:#231f20" />
<path
   id="path53"
   d="M 153.55287,133.49935 L 153.55287,117.17075 L 155.77587,117.17075 L 164.32967,129.9853 L 164.32967,117.17075 L 166.40827,117.17075 L 166.40827,133.49935 L 164.18527,133.49935 L 155.63147,120.6848 L 155.63147,133.49935 L 153.55287,133.49935 L 153.55287,133.49935 z"
   style="fill:#231f20" />
<path
   style="fill:#231f20"
   d="M 193.42627,106.09185 L 191.81032,105.14185 L 191.81032,79.01685 L 193.42627,79.01685 L 193.42627,106.09185 z"
   id="polygon55" />
<path
   style="fill:#231f20"
   d="M 170.19782,119.53435 L 169.39127,118.15685 L 191.81032,105.14185 L 193.42627,106.09185 L 170.19782,119.53435 z"
   id="polygon57" />
<path
   style="fill:#231f20"
   d="M 126.54627,106.09185 L 128.16032,105.14185 L 150.62877,118.15685 L 149.82127,119.53435 L 126.54627,106.09185 z"
   id="polygon59" />
<path
   style="fill:#231f20"
   d="M 126.54627,67.47435 L 128.16032,68.42435 L 128.16032,105.14185 L 126.54627,106.09185 L 126.54627,67.47435 z"
   id="polygon61" />
<path
   style="fill:#231f20"
   d="M 132.19782,71.226848 L 133.81283,71.226848 L 133.81283,102.33935 L 132.19782,102.33935 L 132.19782,71.226848 z"
   id="rect63" />
<path
   style="fill:#231f20"
   d="M 160.03377,48.18935 L 160.03377,50.04185 L 128.16032,68.42435 L 126.54627,67.47435 L 160.03377,48.18935 z"
   id="polygon65" />
<path
   style="fill:#231f20"
   d="M 160.03377,50.04185 L 160.03377,48.18935 L 183.21377,61.58435 L 182.40532,62.96185 L 160.03377,50.04185 z"
   id="polygon67" />
<path
   id="path71"
   d="M 152.20197,15.1151 C 152.20197,12.40475 152.92967,10.28435 154.38508,8.752 C 155.84047,7.2187 157.71957,6.45205 160.02047,6.45205 C 161.52812,6.45205 162.88757,6.8121 164.09692,7.5322 C 165.30627,8.25325 166.22967,9.25645 166.86522,10.54465 C 167.49982,11.8319 167.81712,13.29395 167.81712,14.92605 C 167.81712,16.5819 167.48272,18.06295 166.81487,19.3692 C 166.14607,20.67545 165.19892,21.66535 163.97437,22.337 C 162.74887,23.00865 161.42647,23.34495 160.00907,23.34495 C 158.47197,23.34495 157.09827,22.9735 155.88797,22.23155 C 154.67767,21.4896 153.76092,20.475 153.13677,19.19155 C 152.51358,17.90715 152.20197,16.54865 152.20197,15.1151 z M 154.42877,15.14265 C 154.42877,17.10915 154.95792,18.6586 156.01622,19.791 C 157.07452,20.9234 158.40262,21.48865 159.99862,21.48865 C 161.62502,21.48865 162.96357,20.91675 164.01522,19.7739 C 165.06687,18.63105 165.59127,17.0094 165.59127,14.90895 C 165.59127,13.58085 165.36707,12.4209 164.91772,11.43005 C 164.46742,10.4392 163.81002,9.67065 162.94552,9.12535 C 162.08102,8.58005 161.10917,8.3074 160.03282,8.3074 C 158.50332,8.3074 157.18662,8.83275 156.08367,9.8825 C 154.98072,10.93225 154.42877,12.6869 154.42877,15.14265 z"
   style="fill:#231f20" />
<path
   style="fill:#231f20"
   d="M 156.56627,25.48435 L 158.18032,25.48435 L 158.18032,50.611851 L 156.56627,50.611851 L 156.56627,25.48435 z"
   id="rect73" />
<path
   style="fill:#231f20"
   d="M 161.83877,25.48435 L 163.45377,25.48435 L 163.45377,50.611851 L 161.83877,50.611851 L 161.83877,25.48435 z"
   id="rect75" />
<path
   id="path79"
   d="M 217.56197,125.5526 C 217.56197,122.84225 218.28967,120.72185 219.74507,119.1895 C 221.20047,117.6562 223.07957,116.88955 225.38142,116.88955 C 226.88907,116.88955 228.24757,117.2496 229.45787,117.9697 C 230.66817,118.69075 231.59062,119.69395 232.22522,120.98215 C 232.86077,122.2694 233.17807,123.73145 233.17807,125.36355 C 233.17807,127.0194 232.84367,128.50045 232.17487,129.8067 C 231.50702,131.11295 230.56082,132.10285 229.33532,132.7745 C 228.10982,133.44615 226.78837,133.78245 225.37002,133.78245 C 223.83292,133.78245 222.45922,133.411 221.24892,132.66905 C 220.03862,131.9271 219.12187,130.9125 218.49772,129.62905 C 217.87357,128.34465 217.56197,126.98615 217.56197,125.5526 z M 219.78877,125.58015 C 219.78877,127.54665 220.31792,129.0961 221.37622,130.2285 C 222.43452,131.3609 223.76262,131.92615 225.35862,131.92615 C 226.98502,131.92615 228.32357,131.35425 229.37522,130.2114 C 230.42497,129.06855 230.95127,127.4469 230.95127,125.34645 C 230.95127,124.01835 230.72707,122.8584 230.27677,121.86755 C 229.82742,120.8767 229.17097,120.10815 228.30552,119.56285 C 227.44007,119.01755 226.46917,118.7449 225.39282,118.7449 C 223.86332,118.7449 222.54662,119.27025 221.44367,120.32 C 220.34072,121.36975 219.78877,123.1244 219.78877,125.58015 z"
   style="fill:#231f20" />
<path
   style="fill:#231f20"
   d="M 218.60127,116.39935 L 217.79282,117.77685 L 192.23877,103.05185 L 193.04627,101.62685 L 218.60127,116.39935 z"
   id="polygon81" />
<path
   style="fill:#231f20"
   d="M 215.75127,121.29185 L 214.94282,122.71685 L 189.38877,107.94435 L 190.19627,106.56685 L 215.75127,121.29185 z"
   id="polygon83" />
</svg>