<?xml version="1.0" encoding="UTF-8" standalone="no"?>
<svg
   xmlns:cdml="http://www.freesoftware.fsf.org/bkchem/cdml"
   xmlns:dc="http://purl.org/dc/elements/1.1/"
   xmlns:cc="http://creativecommons.org/ns#"
   xmlns:rdf="http://www.w3.org/1999/02/22-rdf-syntax-ns#"
   xmlns:svg="http://www.w3.org/2000/svg"
   xmlns="http://www.w3.org/2000/svg"
   xmlns:sodipodi="http://sodipodi.sourceforge.net/DTD/sodipodi-0.dtd"
   xmlns:inkscape="http://www.inkscape.org/namespaces/inkscape"
   height="15.34961mm"
   version="1.0"
   viewBox="0 0 179 58"
   width="47.37207mm"
   id="svg3015"
   inkscape:version="0.48.1 "
   sodipodi:docname="AN.svg">
  <metadata
     id="metadata3043">
    <rdf:RDF>
      <cc:Work
         rdf:about="">
        <dc:format>image/svg+xml</dc:format>
        <dc:type
           rdf:resource="http://purl.org/dc/dcmitype/StillImage" />
        <dc:title></dc:title>
      </cc:Work>
    </rdf:RDF>
  </metadata>
  <defs
     id="defs3041" />
  <sodipodi:namedview
     pagecolor="#ffffff"
     bordercolor="#666666"
     borderopacity="1"
     objecttolerance="10"
     gridtolerance="10"
     guidetolerance="10"
     inkscape:pageopacity="0"
     inkscape:pageshadow="2"
     inkscape:window-width="640"
     inkscape:window-height="480"
     id="namedview3039"
     showgrid="false"
     inkscape:zoom="3.0383586"
     inkscape:cx="83.926895"
     inkscape:cy="27.194191"
     inkscape:window-x="0"
     inkscape:window-y="0"
     inkscape:window-maximized="0"
     inkscape:current-layer="svg3015" />
  <g
     font-family="Helvetica"
     font-size="12pt"
     stroke-linecap="round"
     transform="translate(-210,-140)"
     id="g3017">
    <g
       stroke="#000000"
       stroke-linecap="butt"
       stroke-width="2.26715867159"
       id="g3019">
      <path
         style=""
         d="m 279,164 25,0"
         id="line3021" />
    </g>
    <g
       stroke="#000000"
       stroke-linecap="butt"
       stroke-width="2.26715867159"
       id="g3023">
      <path
         style=""
         d="m 331,164 26,0"
         id="line3025" />
      <path
         style=""
         d="m 332.95001,158.05 22.09998,0"
         id="line3027" />
      <path
         style=""
         d="m 332.95001,169.95 22.09998,0"
         id="line3029" />
    </g>
    <g
       style="font-size:30px;fill:#000000;font-family:helvetica"
       id="text3031">
      <path
         d="m 322.93671,163.4707 2.84179,0.71778 c -0.59572,2.33399 -1.6675,4.11377 -3.21533,5.33935 -1.54787,1.22559 -3.43995,1.83838 -5.67627,1.83838 -2.31446,0 -4.19678,-0.47119 -5.64697,-1.41357 -1.4502,-0.94238 -2.55372,-2.30713 -3.31055,-4.09424 -0.75684,-1.7871 -1.13525,-3.70605 -1.13525,-5.75684 0,-2.23631 0.42724,-4.18699 1.28174,-5.85205 0.85449,-1.66502 2.0703,-2.92967 3.64746,-3.79394 1.57714,-0.86424 3.31298,-1.29637 5.20752,-1.29639 2.14842,2e-5 3.95506,0.5469 5.41992,1.64062 1.46482,1.09377 2.48533,2.63186 3.06152,4.61426 l -2.79785,0.65918 c -0.49806,-1.56248 -1.22072,-2.70018 -2.16797,-3.41308 -0.94728,-0.71288 -2.13868,-1.06932 -3.57422,-1.06934 -1.6504,2e-5 -3.02979,0.39553 -4.13818,1.18652 -1.1084,0.79104 -1.88721,1.85305 -2.33643,3.18604 -0.44922,1.33302 -0.67383,2.70753 -0.67382,4.12353 -10e-6,1.82619 0.2661,3.42042 0.79834,4.78272 0.53222,1.36231 1.35985,2.38037 2.48291,3.0542 1.12303,0.67383 2.33885,1.01074 3.64746,1.01074 1.59178,0 2.93944,-0.45898 4.04297,-1.37695 1.10349,-0.91797 1.85056,-2.28027 2.24121,-4.08692 z"
         style="font-size:30px;fill:#000000;font-family:helvetica"
         id="path3050" />
    </g>
    <g
       style="font-size:30px;fill:#000000;font-family:helvetica"
       id="text3033">
      <path
         d="m 218.70235,171 0,-21.47461 2.84179,0 0,8.81836 11.16211,0 0,-8.81836 2.8418,0 0,21.47461 -2.8418,0 0,-10.12207 -11.16211,0 0,10.12207 z"
         style="font-size:30px;fill:#000000;font-family:helvetica"
         id="path3053" />
      <path
         d="m 238.92451,172.74829 1.97754,-0.26367 c 0.22705,1.12061 0.6134,1.9281 1.15906,2.42248 0.54565,0.49439 1.21032,0.74158 1.99402,0.74158 0.93017,0 1.71569,-0.32226 2.35657,-0.9668 0.64086,-0.64452 0.96129,-1.44286 0.9613,-2.39501 -1e-5,-0.9082 -0.29664,-1.6571 -0.88989,-2.24671 -0.59327,-0.58959 -1.34766,-0.88439 -2.26319,-0.8844 -0.37354,1e-5 -0.83862,0.0733 -1.39526,0.21973 l 0.21973,-1.73584 c 0.13183,0.0147 0.23803,0.022 0.3186,0.022 0.84228,1e-5 1.60034,-0.21972 2.27417,-0.65918 0.67382,-0.43944 1.01073,-1.11693 1.01074,-2.03247 -1e-5,-0.72508 -0.24537,-1.32567 -0.73608,-1.80176 -0.49073,-0.47606 -1.12427,-0.71409 -1.90064,-0.71411 -0.76904,2e-5 -1.40991,0.24172 -1.9226,0.7251 -0.5127,0.48341 -0.84229,1.20851 -0.98877,2.17529 l -1.97754,-0.35156 c 0.2417,-1.32567 0.79101,-2.35289 1.64795,-3.08167 0.85693,-0.72874 1.9226,-1.09312 3.19702,-1.09314 0.8789,2e-5 1.68822,0.18862 2.42798,0.5658 0.73973,0.37721 1.30553,0.89174 1.69739,1.54358 0.39183,0.65187 0.58775,1.34401 0.58776,2.07642 -1e-5,0.69581 -0.18677,1.32935 -0.5603,1.90063 -0.37354,0.5713 -0.92652,1.0254 -1.65893,1.36231 0.95213,0.21973 1.69188,0.67566 2.21923,1.36779 0.52734,0.69215 0.79101,1.55824 0.79102,2.59827 -1e-5,1.40625 -0.51271,2.59827 -1.53809,3.57605 -1.0254,0.97778 -2.32178,1.46667 -3.88916,1.46667 -1.41358,0 -2.58728,-0.42114 -3.52111,-1.26342 -0.93384,-0.84229 -1.46668,-1.93359 -1.59852,-3.27393 z"
         style="font-size:75%;baseline-shift:sub"
         id="path3055" />
      <path
         d="m 268.14082,163.4707 2.8418,0.71778 c -0.59572,2.33399 -1.6675,4.11377 -3.21533,5.33935 -1.54787,1.22559 -3.43996,1.83838 -5.67627,1.83838 -2.31446,0 -4.19679,-0.47119 -5.64697,-1.41357 -1.4502,-0.94238 -2.55372,-2.30713 -3.31055,-4.09424 -0.75684,-1.7871 -1.13526,-3.70605 -1.13525,-5.75684 -1e-5,-2.23631 0.42724,-4.18699 1.28173,-5.85205 0.85449,-1.66502 2.07031,-2.92967 3.64746,-3.79394 1.57714,-0.86424 3.31298,-1.29637 5.20752,-1.29639 2.14843,2e-5 3.95507,0.5469 5.41993,1.64062 1.46482,1.09377 2.48533,2.63186 3.06152,4.61426 l -2.79785,0.65918 c -0.49807,-1.56248 -1.22072,-2.70018 -2.16797,-3.41308 -0.94728,-0.71288 -2.13869,-1.06932 -3.57422,-1.06934 -1.6504,2e-5 -3.02979,0.39553 -4.13818,1.18652 -1.10841,0.79104 -1.88722,1.85305 -2.33643,3.18604 -0.44922,1.33302 -0.67383,2.70753 -0.67383,4.12353 0,1.82619 0.26611,3.42042 0.79834,4.78272 0.53222,1.36231 1.35986,2.38037 2.48291,3.0542 1.12304,0.67383 2.33886,1.01074 3.64746,1.01074 1.59179,0 2.93944,-0.45898 4.04297,-1.37695 1.1035,-0.91797 1.85057,-2.28027 2.24121,-4.08692 z"
         style="font-size:30px;fill:#000000;font-family:helvetica"
         id="path3057" />
    </g>
    <g
       style="font-size:30px;fill:#000000;font-family:helvetica"
       id="text3037">
      <path
         d="m 360.58514,171 0,-21.47461 2.91504,0 11.2793,16.86035 0,-16.86035 2.72461,0 0,21.47461 -2.91504,0 -11.2793,-16.875 0,16.875 z"
         style="font-size:30px;fill:#000000;font-family:helvetica"
         id="path3060" />
    </g>
  </g>
  <cdml:cdml
     version="0.15">
    <cdml:info>
      <cdml:author_program
         version="0.13.0">BKchem</cdml:author_program>
    </cdml:info>
    <cdml:paper
       crop_margin="5"
       crop_svg="1"
       orientation="portrait"
       replace_minus="0"
       type="Legal"
       use_real_minus="0" />
    <cdml:viewport
       viewport="0.000000 0.000000 640.000000 480.000000" />
    <cdml:standard
       area_color=""
       font_family="helvetica"
       font_size="24"
       line_color="#000"
       line_width="0.06cm"
       paper_crop_margin="5"
       paper_crop_svg="1"
       paper_orientation="portrait"
       paper_type="Legal">
      <cdml:bond
         double-ratio="0.85"
         length="1.4cm"
         wedge-width="0.18cm"
         width="0.21cm" />
      <cdml:arrow
         length="1.6cm" />
      <cdml:atom
         show_hydrogens="0" />
    </cdml:standard>
    <cdml:molecule
       id="molecule12470"
       name="">
      <cdml:atom
         id="atom99940"
         name="C"
         pos="center-first"
         show="yes"
         valency="4">
        <cdml:point
           x="8.413cm"
           y="4.340cm" />
      </cdml:atom>
      <cdml:atom
         hydrogens="on"
         id="atom32378"
         name="C"
         pos="center-last"
         show="yes"
         valency="4">
        <cdml:point
           x="7.013cm"
           y="4.340cm" />
      </cdml:atom>
      <cdml:atom
         id="atom25569"
         name="N"
         pos="center-first"
         valency="3">
        <cdml:point
           x="9.813cm"
           y="4.340cm" />
      </cdml:atom>
      <cdml:bond
         double_ratio="0.85"
         end="atom99940"
         id="bond37180"
         line_width="2.26715867159"
         start="atom32378"
         type="n1" />
      <cdml:bond
         bond_width="7.93505535055"
         double_ratio="0.85"
         end="atom25569"
         id="bond60476"
         line_width="2.26715867159"
         start="atom99940"
         type="n3" />
    </cdml:molecule>
  </cdml:cdml>
</svg>
