<?xml version="1.0" encoding="utf-8"?>
<!-- Generator: Adobe Illustrator 13.0.2, SVG Export Plug-In . SVG Version: 6.00 Build 14948)  -->
<!DOCTYPE svg PUBLIC "-//W3C//DTD SVG 1.1//EN" "http://www.w3.org/Graphics/SVG/1.1/DTD/svg11.dtd">
<svg version="1.1" id="Ebene_1" xmlns="http://www.w3.org/2000/svg" xmlns:xlink="http://www.w3.org/1999/xlink" x="0px" y="0px"
	 width="148.29px" height="126.68px" viewBox="0 0 148.29 126.68" enable-background="new 0 0 148.29 126.68" xml:space="preserve">
<g>
	<path d="M43.35,121.682v-17.18h2.273v7.055h8.93v-7.055h2.273v17.18h-2.273v-8.098h-8.93v8.098H43.35z"/>
</g>
<g>
	<path d="M55.334,75.963l2.273,0.574c-0.477,1.867-1.334,3.291-2.572,4.271s-2.752,1.471-4.541,1.471
		c-1.852,0-3.357-0.377-4.518-1.131s-2.043-1.846-2.648-3.275s-0.908-2.965-0.908-4.605c0-1.789,0.342-3.35,1.025-4.682
		s1.656-2.344,2.918-3.035s2.65-1.037,4.166-1.037c1.719,0,3.164,0.438,4.336,1.313s1.988,2.105,2.449,3.691l-2.238,0.527
		c-0.398-1.25-0.977-2.16-1.734-2.73s-1.711-0.855-2.859-0.855c-1.32,0-2.424,0.316-3.311,0.949s-1.51,1.482-1.869,2.549
		s-0.539,2.166-0.539,3.299c0,1.461,0.213,2.736,0.639,3.826s1.088,1.904,1.986,2.443s1.871,0.809,2.918,0.809
		c1.273,0,2.352-0.367,3.234-1.102S55.022,77.409,55.334,75.963z"/>
</g>
<rect x="49.177" y="84.587" width="1.7" height="17.649"/>
<polygon points="74.577,57.387 75.426,58.887 59.427,68.087 58.577,66.637 "/>
<g>
	<path d="M23.499,47.627v-17.18h2.273v7.055h8.93v-7.055h2.273v17.18h-2.273V39.53h-8.93v8.098H23.499z"/>
</g>
<polygon points="33.827,52.137 40.427,48.287 41.026,49.937 34.927,53.437 "/>
<polygon points="36.876,55.687 41.977,52.737 42.577,54.387 38.026,56.987 "/>
<polygon points="39.977,59.237 43.526,57.187 44.126,58.837 41.077,60.538 "/>
<polygon points="43.026,62.837 45.077,61.637 45.677,63.288 44.177,64.137 "/>
<g>
	<path d="M4.999,71.729v-17.18h2.273v7.055h8.93v-7.055h2.273v17.18h-2.273v-8.098h-8.93v8.098H4.999z"/>
</g>
<polygon points="21.276,68.837 23.276,61.437 40.677,69.187 40.227,70.837 "/>
<g>
	<path d="M75.987,14.115c0-2.852,0.766-5.084,2.297-6.697s3.508-2.42,5.93-2.42c1.586,0,3.016,0.379,4.289,1.137
		s2.244,1.814,2.912,3.17s1.002,2.893,1.002,4.611c0,1.742-0.352,3.301-1.055,4.676s-1.699,2.416-2.988,3.123
		s-2.68,1.061-4.172,1.061c-1.617,0-3.063-0.391-4.336-1.172s-2.238-1.848-2.895-3.199S75.987,15.623,75.987,14.115z M78.331,14.15
		c0,2.07,0.557,3.701,1.67,4.893s2.51,1.787,4.189,1.787c1.711,0,3.119-0.602,4.225-1.805s1.658-2.91,1.658-5.121
		c0-1.398-0.236-2.619-0.709-3.662S88.2,8.39,87.29,7.816s-1.932-0.861-3.064-0.861c-1.609,0-2.994,0.553-4.154,1.658
		S78.331,11.564,78.331,14.15z"/>
</g>
<rect x="80.577" y="25.037" width="1.699" height="17.35"/>
<rect x="86.526" y="25.037" width="1.701" height="17.35"/>
<polygon points="109.977,66.487 109.126,67.987 93.727,59.087 94.577,57.587 "/>
<g>
	<path d="M89.686,56.169l2.273,0.574c-0.477,1.867-1.334,3.291-2.572,4.271s-2.752,1.471-4.541,1.471
		c-1.852,0-3.357-0.377-4.518-1.131s-2.043-1.846-2.648-3.275s-0.908-2.965-0.908-4.605c0-1.789,0.342-3.35,1.025-4.682
		s1.656-2.344,2.918-3.035s2.65-1.037,4.166-1.037c1.719,0,3.164,0.438,4.336,1.313s1.988,2.105,2.449,3.691l-2.238,0.527
		c-0.398-1.25-0.977-2.16-1.734-2.73s-1.711-0.855-2.859-0.855c-1.32,0-2.424,0.316-3.311,0.949s-1.51,1.482-1.869,2.549
		s-0.539,2.166-0.539,3.299c0,1.461,0.213,2.736,0.639,3.826s1.088,1.904,1.986,2.443s1.871,0.809,2.918,0.809
		c1.273,0,2.352-0.367,3.234-1.102S89.374,57.615,89.686,56.169z"/>
</g>
<g>
	<path d="M110.385,73.62c0-2.852,0.766-5.084,2.297-6.697s3.508-2.42,5.93-2.42c1.586,0,3.016,0.379,4.289,1.137
		s2.244,1.814,2.912,3.17s1.002,2.893,1.002,4.611c0,1.742-0.352,3.301-1.055,4.676s-1.699,2.416-2.988,3.123
		s-2.68,1.061-4.172,1.061c-1.617,0-3.063-0.391-4.336-1.172s-2.238-1.848-2.895-3.199S110.385,75.127,110.385,73.62z
		 M112.729,73.655c0,2.07,0.557,3.701,1.67,4.893s2.51,1.787,4.189,1.787c1.711,0,3.119-0.602,4.225-1.805s1.658-2.91,1.658-5.121
		c0-1.398-0.236-2.619-0.709-3.662s-1.164-1.852-2.074-2.426s-1.932-0.861-3.064-0.861c-1.609,0-2.994,0.553-4.154,1.658
		S112.729,71.069,112.729,73.655z"/>
	<path d="M129.815,81.987v-17.18h2.273v7.055h8.93v-7.055h2.273v17.18h-2.273v-8.098h-8.93v8.098H129.815z"/>
</g>
</svg>
