<?xml version="1.0" encoding="UTF-8" standalone="no"?>
<svg
   xmlns:cdml="http://www.freesoftware.fsf.org/bkchem/cdml"
   xmlns:dc="http://purl.org/dc/elements/1.1/"
   xmlns:cc="http://creativecommons.org/ns#"
   xmlns:rdf="http://www.w3.org/1999/02/22-rdf-syntax-ns#"
   xmlns:svg="http://www.w3.org/2000/svg"
   xmlns="http://www.w3.org/2000/svg"
   xmlns:sodipodi="http://sodipodi.sourceforge.net/DTD/sodipodi-0.dtd"
   xmlns:inkscape="http://www.inkscape.org/namespaces/inkscape"
   height="68.32969mm"
   version="1.0"
   viewBox="0 0 377 258"
   width="99.84609mm"
   id="svg7686"
   inkscape:version="0.48.0 r9654"
   sodipodi:docname="Bop.svg">
  <metadata
     id="metadata7794">
    <rdf:RDF>
      <cc:Work
         rdf:about="">
        <dc:format>image/svg+xml</dc:format>
        <dc:type
           rdf:resource="http://purl.org/dc/dcmitype/StillImage" />
        <dc:title></dc:title>
      </cc:Work>
    </rdf:RDF>
  </metadata>
  <defs
     id="defs7792" />
  <sodipodi:namedview
     pagecolor="#ffffff"
     bordercolor="#666666"
     borderopacity="1"
     objecttolerance="10"
     gridtolerance="10"
     guidetolerance="10"
     inkscape:pageopacity="0"
     inkscape:pageshadow="2"
     inkscape:window-width="640"
     inkscape:window-height="480"
     id="namedview7790"
     showgrid="false"
     inkscape:zoom="1.0862693"
     inkscape:cx="149.2092"
     inkscape:cy="121.05653"
     inkscape:window-x="0"
     inkscape:window-y="0"
     inkscape:window-maximized="0"
     inkscape:current-layer="svg7686" />
  <g
     font-family="Helvetica"
     font-size="12pt"
     stroke-linecap="round"
     transform="translate(-211,-233)"
     id="g7688">
    <g
       stroke="#000000"
       stroke-linecap="butt"
       stroke-width="2.26548672566"
       id="g7690">
      <path
         style=""
         d="M 450.56,349 461,362.57999"
         id="line7692" />
    </g>
    <g
       stroke="#000000"
       stroke-width="2.26548672566"
       id="g7694">
      <path
         style=""
         d="M 265.23001,371.56 311,398"
         id="line7696" />
      <path
         style=""
         d="M 264.69,380.39999 303.60001,402.88"
         id="line7698" />
    </g>
    <g
       stroke="#000000"
       stroke-linecap="butt"
       stroke-width="2.26548672566"
       id="g7700">
      <path
         style=""
         d="M 383.07001,437 375,448.10999"
         id="line7702" />
      <path
         style=""
         d="M 376.04999,433.17001 369.19,442.60999"
         id="line7704" />
    </g>
    <g
       stroke="#000000"
       stroke-linecap="butt"
       stroke-width="2.26548672566"
       id="g7706">
      <path
         style=""
         d="m 449.76999,317 9.34,-19"
         id="line7708" />
    </g>
    <g
       stroke="#000000"
       stroke-width="2.26548672566"
       id="g7710">
      <path
         style=""
         d="m 311,398 37,-12.03"
         id="line7712" />
    </g>
    <g
       stroke="#000000"
       stroke-width="2.26548672566"
       id="g7714">
      <path
         style=""
         d="M 348,462.79999 311,450.79001"
         id="line7716" />
    </g>
    <g
       stroke="#000000"
       stroke-width="2.26548672566"
       id="g7718">
      <path
         style=""
         d="m 219.46001,398 0,52.79001"
         id="line7720" />
      <path
         style=""
         d="m 227.39,401.95999 0,44.87"
         id="line7722" />
    </g>
    <g
       stroke="#000000"
       stroke-linecap="butt"
       stroke-width="2.26548672566"
       id="g7724">
      <path
         style=""
         d="M 370.87,395 379,406.17999"
         id="line7726" />
    </g>
    <g
       stroke="#000000"
       stroke-width="2.26548672566"
       id="g7728">
      <path
         style=""
         d="m 219.46001,398 45.77,-26.44"
         id="line7730" />
    </g>
    <g
       stroke="#000000"
       stroke-width="2.26548672566"
       id="g7732">
      <path
         style=""
         d="m 311,398 0,52.79001"
         id="line7734" />
    </g>
    <g
       stroke="#000000"
       stroke-width="2.26548672566"
       id="g7736">
      <path
         style=""
         d="m 311,450.79001 -45.76999,26.44"
         id="line7738" />
      <path
         style=""
         d="M 303.60001,445.89999 264.69,468.38"
         id="line7740" />
    </g>
    <g
       stroke="#000000"
       stroke-width="2.26548672566"
       id="g7742">
      <path
         style=""
         d="m 219.46001,450.79001 45.77,26.44"
         id="line7744" />
    </g>
    <g
       stroke="#000000"
       stroke-linecap="butt"
       stroke-width="2.26548672566"
       id="g7746">
      <path
         style=""
         d="M 371.98001,363 380.06,349"
         id="line7748" />
    </g>
    <g
       stroke="#000000"
       stroke-linecap="butt"
       stroke-width="2.26548672566"
       id="g7750">
      <path
         style=""
         d="m 402,335.89999 26,0"
         id="line7752" />
    </g>
    <g
       style="font-size:30px;fill:#000000;font-family:helvetica"
       id="text7754">
      <path
         d="m 351.58514,474.09 0,-21.47461 2.91504,0 11.2793,16.86035 0,-16.86035 2.72461,0 0,21.47461 -2.91504,0 -11.2793,-16.875 0,16.875 z"
         style="font-size:30px;fill:#000000;font-family:helvetica"
         id="path7815" />
    </g>
    <g
       style="font-size:30px;fill:#000000;font-family:helvetica"
       id="text7756">
      <path
         d="m 382.58514,431.39999 0,-21.47461 2.91504,0 11.2793,16.86036 0,-16.86036 2.72461,0 0,21.47461 -2.91504,0 -11.2793,-16.875 0,16.875 z"
         style="font-size:30px;fill:#000000;font-family:helvetica"
         id="path7818" />
    </g>
    <g
       style="font-size:30px;fill:#000000;font-family:helvetica"
       id="text7758">
      <path
         d="m 351.58514,388.67999 0,-21.47461 2.91504,0 11.2793,16.86035 0,-16.86035 2.72461,0 0,21.47461 -2.91504,0 -11.2793,-16.875 0,16.875 z"
         style="font-size:30px;fill:#000000;font-family:helvetica"
         id="path7821" />
    </g>
    <g
       style="font-size:30px;fill:#000000;font-family:helvetica"
       id="text7760">
      <path
         d="m 375.75018,332.44101 c 0,-3.56444 0.95703,-6.35496 2.8711,-8.37158 1.91405,-2.01658 4.38475,-3.02488 7.41211,-3.0249 1.9824,2e-5 3.76951,0.47365 5.36132,1.42089 1.59178,0.94729 2.80516,2.26809 3.64014,3.96241 0.83494,1.69435 1.25242,3.61573 1.25244,5.76416 -2e-5,2.17774 -0.43947,4.12598 -1.31836,5.84472 -0.87892,1.71876 -2.12404,3.02002 -3.73535,3.90381 -1.61134,0.88379 -3.34962,1.32568 -5.21484,1.32568 -2.0215,0 -3.82814,-0.48828 -5.41992,-1.46484 -1.59181,-0.97656 -2.79786,-2.30957 -3.61817,-3.99902 -0.82031,-1.68945 -1.23047,-3.47656 -1.23047,-5.36133 z m 2.92969,0.0439 c 0,2.5879 0.6958,4.62648 2.0874,6.11573 1.3916,1.48926 3.1372,2.23389 5.23682,2.23388 2.13866,10e-6 3.89891,-0.75195 5.28076,-2.25586 1.38182,-1.5039 2.07274,-3.63768 2.07275,-6.40136 -10e-6,-1.74804 -0.29542,-3.27391 -0.88623,-4.57764 -0.59083,-1.30369 -1.45509,-2.31443 -2.59277,-3.03223 -1.13771,-0.71775 -2.41456,-1.07664 -3.83057,-1.07666 -2.01172,2e-5 -3.74268,0.69094 -5.19287,2.07276 -1.4502,1.38185 -2.17529,3.68898 -2.17529,6.92138 z"
         style="font-size:30px;fill:#000000;font-family:helvetica"
         id="path7824" />
    </g>
    <g
       style="font-size:30px;fill:#000000;font-family:helvetica"
       id="text7762">
      <path
         d="m 431.61444,342.89999 0,-21.47461 8.10059,0 c 1.42577,3e-5 2.51463,0.0684 3.2666,0.20508 1.05467,0.1758 1.93846,0.51028 2.65137,1.00342 0.71287,0.49318 1.2866,1.1841 1.72119,2.07275 0.43455,0.88869 0.65183,1.86526 0.65185,2.92969 -2e-5,1.82619 -0.58107,3.3716 -1.74316,4.63623 -1.16213,1.26466 -3.26173,1.89698 -6.29883,1.89698 l -5.50781,0 0,8.73046 z m 2.8418,-11.26464 5.55176,0 c 1.83592,10e-6 3.13963,-0.34179 3.91113,-1.0254 0.77147,-0.68358 1.15721,-1.64549 1.15722,-2.88574 -10e-6,-0.89842 -0.22706,-1.66746 -0.68115,-2.30713 -0.45411,-0.63963 -1.05226,-1.06199 -1.79443,-1.26709 -0.47853,-0.12693 -1.36232,-0.19041 -2.65137,-0.19043 l -5.49316,0 z"
         style="font-size:30px;fill:#000000;font-family:helvetica"
         id="path7827" />
    </g>
    <g
       id="g7764">
      <path
         style="fill:none;stroke:#000000;stroke-width:1"
         d="m 431.95407,359.32706 c 0,2.76142 -2.23858,5 -5,5 -2.76142,0 -5,-2.23858 -5,-5 0,-2.76143 2.23858,-5 5,-5 2.76142,0 5,2.23857 5,5 z"
         id="ellipse7766" />
      <path
         style="fill:#000000;stroke:#000000;stroke-width:1"
         d="m 423.95407,359.32706 6,0"
         id="line7768" />
      <path
         style="fill:#000000;stroke:#000000;stroke-width:1"
         d="m 426.95407,356.32706 0,6"
         id="line7770" />
    </g>
    <g
       style="font-size:30px;fill:#000000;font-family:helvetica"
       id="text7772">
      <path
         d="m 464.58514,387.67999 0,-21.47461 2.91504,0 11.2793,16.86035 0,-16.86035 2.72461,0 0,21.47461 -2.91504,0 -11.2793,-16.875 0,16.875 z"
         style="font-size:30px;fill:#000000;font-family:helvetica"
         id="path7833" />
      <path
         d="m 490.99628,393.99347 c -1.45509,-1.83594 -2.68555,-3.98438 -3.69141,-6.44531 -1.00586,-2.46094 -1.50879,-5.00976 -1.50879,-7.64649 0,-2.32421 0.37598,-4.55077 1.12793,-6.67969 0.8789,-2.47068 2.23632,-4.93162 4.07227,-7.38281 l 1.88965,0 c -1.18165,2.03127 -1.9629,3.48147 -2.34375,4.35059 -0.59571,1.34767 -1.06446,2.75392 -1.40625,4.21875 -0.41993,1.82618 -0.62989,3.66212 -0.62989,5.50781 0,4.69727 1.45996,9.38965 4.37989,14.07715 z"
         style="font-size:30px;fill:#000000;font-family:helvetica"
         id="path7835" />
      <path
         d="m 511.63593,380.1507 2.84179,0.71777 c -0.59572,2.33399 -1.6675,4.11377 -3.21533,5.33935 -1.54787,1.22559 -3.43996,1.83838 -5.67627,1.83838 -2.31446,0 -4.19678,-0.47119 -5.64697,-1.41357 -1.4502,-0.94238 -2.55372,-2.30713 -3.31055,-4.09424 -0.75684,-1.7871 -1.13525,-3.70604 -1.13525,-5.75683 0,-2.23632 0.42724,-4.187 1.28174,-5.85206 0.85448,-1.66502 2.0703,-2.92966 3.64746,-3.79394 1.57714,-0.86424 3.31297,-1.29637 5.20752,-1.29639 2.14842,2e-5 3.95506,0.5469 5.41992,1.64063 1.46482,1.09377 2.48533,2.63185 3.06152,4.61426 l -2.79785,0.65917 c -0.49806,-1.56248 -1.22072,-2.70017 -2.16797,-3.41308 -0.94728,-0.71287 -2.13868,-1.06932 -3.57422,-1.06934 -1.6504,2e-5 -3.02979,0.39553 -4.13818,1.18653 -1.10841,0.79103 -1.88721,1.85304 -2.33643,3.18603 -0.44922,1.33302 -0.67383,2.70753 -0.67383,4.12354 0,1.82618 0.26611,3.42041 0.79834,4.78271 0.53223,1.36231 1.35986,2.38038 2.48291,3.0542 1.12304,0.67383 2.33886,1.01075 3.64747,1.01074 1.59178,1e-5 2.93943,-0.45898 4.04296,-1.37695 1.1035,-0.91796 1.85057,-2.28027 2.24122,-4.08691 z"
         style="font-size:30px;fill:#000000;font-family:helvetica"
         id="path7837" />
      <path
         d="m 518.08124,387.67999 0,-21.47461 2.84179,0 0,8.81836 11.16211,0 0,-8.81836 2.8418,0 0,21.47461 -2.8418,0 0,-10.12207 -11.16211,0 0,10.12207 z"
         style="font-size:30px;fill:#000000;font-family:helvetica"
         id="path7839" />
      <path
         d="m 538.30341,389.42828 1.97753,-0.26367 c 0.22705,1.12061 0.6134,1.9281 1.15906,2.42249 0.54565,0.49438 1.21032,0.74158 1.99402,0.74157 0.93017,1e-5 1.71569,-0.32226 2.35657,-0.96679 0.64086,-0.64453 0.96129,-1.44287 0.9613,-2.39502 -10e-6,-0.9082 -0.29664,-1.6571 -0.88989,-2.24671 -0.59327,-0.58959 -1.34766,-0.88439 -2.26318,-0.8844 -0.37355,10e-6 -0.83863,0.0732 -1.39527,0.21973 l 0.21973,-1.73584 c 0.13183,0.0147 0.23803,0.022 0.3186,0.022 0.84228,10e-6 1.60034,-0.21971 2.27417,-0.65918 0.67382,-0.43944 1.01074,-1.11693 1.01074,-2.03247 0,-0.72508 -0.24537,-1.32567 -0.73608,-1.80175 -0.49073,-0.47606 -1.12427,-0.7141 -1.90063,-0.71412 -0.76905,2e-5 -1.40992,0.24172 -1.92261,0.7251 -0.5127,0.48341 -0.84229,1.20851 -0.98877,2.17529 l -1.97754,-0.35156 c 0.2417,-1.32567 0.79101,-2.35289 1.64795,-3.08166 0.85693,-0.72875 1.9226,-1.09313 3.19702,-1.09314 0.8789,10e-6 1.68823,0.18861 2.42798,0.56579 0.73974,0.37722 1.30553,0.89174 1.69739,1.54358 0.39183,0.65187 0.58775,1.34401 0.58777,2.07642 -2e-5,0.69581 -0.18678,1.32936 -0.56031,1.90063 -0.37354,0.5713 -0.92652,1.0254 -1.65893,1.36231 0.95214,0.21973 1.69188,0.67567 2.21924,1.3678 0.52733,0.69214 0.791,1.55823 0.79101,2.59826 -10e-6,1.40626 -0.51271,2.59827 -1.53809,3.57605 -1.02539,0.97779 -2.32178,1.46668 -3.88916,1.46668 -1.41357,0 -2.58728,-0.42115 -3.52111,-1.26343 -0.93384,-0.84228 -1.46668,-1.93359 -1.59851,-3.27393 z"
         style="font-size:75%;baseline-shift:sub"
         id="path7841" />
      <path
         d="m 553.58905,393.99347 -1.88965,0 c 2.91992,-4.6875 4.37988,-9.37988 4.37988,-14.07715 0,-1.83593 -0.20996,-3.65721 -0.62988,-5.46387 -0.33203,-1.46483 -0.7959,-2.87107 -1.3916,-4.21875 -0.38086,-0.87888 -1.16699,-2.34373 -2.3584,-4.39453 l 1.88965,0 c 1.83593,2.45119 3.19335,4.91213 4.07227,7.38281 0.75194,2.12892 1.12792,4.35548 1.12793,6.67969 -1e-5,2.63673 -0.50538,5.18555 -1.51612,7.64649 -1.01075,2.46093 -2.23877,4.60937 -3.68408,6.44531 z"
         style="font-size:30px;fill:#000000;font-family:helvetica"
         id="path7843" />
      <path
         d="m 571.22943,391.77936 0,1.90063 -10.64575,0 c -0.0146,-0.47607 0.0623,-0.93383 0.23071,-1.37329 0.271,-0.72509 0.70496,-1.4392 1.30188,-2.14233 0.59692,-0.70312 1.45935,-1.51611 2.58728,-2.43897 1.75048,-1.43554 2.93334,-2.57262 3.54859,-3.41125 0.61522,-0.83861 0.92284,-1.63146 0.92285,-2.37854 -10e-6,-0.78368 -0.28016,-1.44469 -0.84046,-1.98303 -0.56031,-0.53832 -1.2909,-0.80748 -2.19177,-0.8075 -0.95215,2e-5 -1.71387,0.28566 -2.28516,0.85693 -0.57129,0.57131 -0.86059,1.36232 -0.86791,2.37305 l -2.03248,-0.20874 c 0.13916,-1.5161 0.66284,-2.67149 1.57105,-3.46619 0.9082,-0.79466 2.12768,-1.192 3.65845,-1.19201 1.5454,10e-6 2.76854,0.42848 3.66943,1.2854 0.90087,0.85695 1.35131,1.91896 1.35132,3.18603 -10e-6,0.64455 -0.13185,1.27809 -0.39551,1.90064 -0.26368,0.62257 -0.7013,1.27808 -1.31287,1.96655 -0.61158,0.68848 -1.62781,1.63331 -3.0487,2.83447 -1.18653,0.9961 -1.94825,1.67176 -2.28516,2.02698 -0.33692,0.35523 -0.61524,0.71228 -0.83496,1.07117 z"
         style="font-size:75%;baseline-shift:sub"
         id="path7845" />
    </g>
    <g
       style="font-size:30px;fill:#000000;font-family:helvetica"
       id="text7778">
      <path
         d="m 455.58514,292.47 0,-21.47461 2.91504,0 11.2793,16.86035 0,-16.86035 2.72461,0 0,21.47461 -2.91504,0 -11.2793,-16.875 0,16.875 z"
         style="font-size:30px;fill:#000000;font-family:helvetica"
         id="path7848" />
      <path
         d="m 481.99628,298.78348 c -1.45509,-1.83594 -2.68555,-3.98438 -3.69141,-6.44531 -1.00586,-2.46094 -1.50879,-5.00977 -1.50879,-7.64649 0,-2.32421 0.37598,-4.55077 1.12793,-6.67969 0.8789,-2.47068 2.23632,-4.93162 4.07227,-7.38281 l 1.88965,0 c -1.18165,2.03127 -1.9629,3.48146 -2.34375,4.35059 -0.59571,1.34767 -1.06446,2.75392 -1.40625,4.21875 -0.41993,1.82618 -0.62989,3.66212 -0.62989,5.50781 0,4.69727 1.45996,9.38965 4.37989,14.07715 z"
         style="font-size:30px;fill:#000000;font-family:helvetica"
         id="path7850" />
      <path
         d="m 502.63593,284.9407 2.84179,0.71778 c -0.59572,2.33399 -1.6675,4.11377 -3.21533,5.33935 -1.54787,1.22559 -3.43996,1.83838 -5.67627,1.83838 -2.31446,0 -4.19678,-0.47119 -5.64697,-1.41357 -1.4502,-0.94238 -2.55372,-2.30713 -3.31055,-4.09424 -0.75684,-1.7871 -1.13525,-3.70605 -1.13525,-5.75684 0,-2.23631 0.42724,-4.18699 1.28174,-5.85205 0.85448,-1.66502 2.0703,-2.92966 3.64746,-3.79394 1.57714,-0.86424 3.31297,-1.29637 5.20752,-1.29639 2.14842,2e-5 3.95506,0.5469 5.41992,1.64063 1.46482,1.09377 2.48533,2.63185 3.06152,4.61425 l -2.79785,0.65918 c -0.49806,-1.56248 -1.22072,-2.70017 -2.16797,-3.41308 -0.94728,-0.71287 -2.13868,-1.06932 -3.57422,-1.06934 -1.6504,2e-5 -3.02979,0.39553 -4.13818,1.18652 -1.10841,0.79104 -1.88721,1.85305 -2.33643,3.18604 -0.44922,1.33302 -0.67383,2.70753 -0.67383,4.12354 0,1.82618 0.26611,3.42041 0.79834,4.78271 0.53223,1.36231 1.35986,2.38037 2.48291,3.0542 1.12304,0.67383 2.33886,1.01074 3.64747,1.01074 1.59178,0 2.93943,-0.45898 4.04296,-1.37695 1.1035,-0.91797 1.85057,-2.28027 2.24122,-4.08692 z"
         style="font-size:30px;fill:#000000;font-family:helvetica"
         id="path7852" />
      <path
         d="m 509.08124,292.47 0,-21.47461 2.84179,0 0,8.81836 11.16211,0 0,-8.81836 2.8418,0 0,21.47461 -2.8418,0 0,-10.12207 -11.16211,0 0,10.12207 z"
         style="font-size:30px;fill:#000000;font-family:helvetica"
         id="path7854" />
      <path
         d="m 529.30341,294.21829 1.97753,-0.26367 c 0.22705,1.12061 0.6134,1.9281 1.15906,2.42249 0.54565,0.49438 1.21032,0.74157 1.99402,0.74157 0.93017,0 1.71569,-0.32226 2.35657,-0.96679 0.64086,-0.64453 0.96129,-1.44287 0.9613,-2.39502 -10e-6,-0.9082 -0.29664,-1.6571 -0.88989,-2.24671 -0.59327,-0.58959 -1.34766,-0.88439 -2.26318,-0.8844 -0.37355,10e-6 -0.83863,0.0732 -1.39527,0.21973 l 0.21973,-1.73584 c 0.13183,0.0147 0.23803,0.022 0.3186,0.022 0.84228,10e-6 1.60034,-0.21971 2.27417,-0.65918 0.67382,-0.43944 1.01074,-1.11693 1.01074,-2.03247 0,-0.72508 -0.24537,-1.32567 -0.73608,-1.80176 -0.49073,-0.47606 -1.12427,-0.71409 -1.90063,-0.71411 -0.76905,2e-5 -1.40992,0.24172 -1.92261,0.7251 -0.5127,0.48341 -0.84229,1.20851 -0.98877,2.17529 l -1.97754,-0.35156 c 0.2417,-1.32567 0.79101,-2.35289 1.64795,-3.08166 0.85693,-0.72875 1.9226,-1.09313 3.19702,-1.09314 0.8789,10e-6 1.68823,0.18861 2.42798,0.56579 0.73974,0.37721 1.30553,0.89174 1.69739,1.54358 0.39183,0.65187 0.58775,1.34401 0.58777,2.07642 -2e-5,0.69581 -0.18678,1.32935 -0.56031,1.90063 -0.37354,0.5713 -0.92652,1.0254 -1.65893,1.36231 0.95214,0.21973 1.69188,0.67566 2.21924,1.36779 0.52733,0.69215 0.791,1.55824 0.79101,2.59827 -10e-6,1.40625 -0.51271,2.59827 -1.53809,3.57605 -1.02539,0.97778 -2.32178,1.46668 -3.88916,1.46668 -1.41357,0 -2.58728,-0.42115 -3.52111,-1.26343 -0.93384,-0.84229 -1.46668,-1.93359 -1.59851,-3.27393 z"
         style="font-size:75%;baseline-shift:sub"
         id="path7856" />
      <path
         d="m 544.58905,298.78348 -1.88965,0 c 2.91992,-4.6875 4.37988,-9.37988 4.37988,-14.07715 0,-1.83593 -0.20996,-3.65722 -0.62988,-5.46387 -0.33203,-1.46483 -0.7959,-2.87108 -1.3916,-4.21875 -0.38086,-0.87889 -1.16699,-2.34373 -2.3584,-4.39453 l 1.88965,0 c 1.83593,2.45119 3.19335,4.91213 4.07227,7.38281 0.75194,2.12892 1.12792,4.35548 1.12793,6.67969 -1e-5,2.63672 -0.50538,5.18555 -1.51612,7.64649 -1.01075,2.46093 -2.23877,4.60937 -3.68408,6.44531 z"
         style="font-size:30px;fill:#000000;font-family:helvetica"
         id="path7858" />
      <path
         d="m 562.22943,296.56937 0,1.90063 -10.64575,0 c -0.0146,-0.47607 0.0623,-0.93384 0.23071,-1.37329 0.271,-0.7251 0.70496,-1.43921 1.30188,-2.14233 0.59692,-0.70312 1.45935,-1.51611 2.58728,-2.43897 1.75048,-1.43554 2.93334,-2.57262 3.54859,-3.41125 0.61522,-0.83862 0.92284,-1.63146 0.92285,-2.37854 -10e-6,-0.78368 -0.28016,-1.44469 -0.84046,-1.98304 -0.56031,-0.53831 -1.2909,-0.80748 -2.19177,-0.80749 -0.95215,10e-6 -1.71387,0.28566 -2.28516,0.85693 -0.57129,0.5713 -0.86059,1.36232 -0.86791,2.37305 l -2.03248,-0.20874 c 0.13916,-1.5161 0.66284,-2.6715 1.57105,-3.46619 0.9082,-0.79466 2.12768,-1.192 3.65845,-1.19201 1.5454,10e-6 2.76854,0.42848 3.66943,1.2854 0.90087,0.85694 1.35131,1.91895 1.35132,3.18603 -10e-6,0.64454 -0.13185,1.27809 -0.39551,1.90064 -0.26368,0.62256 -0.7013,1.27808 -1.31287,1.96655 -0.61158,0.68848 -1.62781,1.63331 -3.0487,2.83447 -1.18653,0.9961 -1.94825,1.67176 -2.28516,2.02698 -0.33692,0.35523 -0.61524,0.71228 -0.83496,1.07117 z"
         style="font-size:75%;baseline-shift:sub"
         id="path7860" />
    </g>
    <g
       style="font-size:30px;fill:#000000;font-family:helvetica"
       id="text7784">
      <path
         d="m 349.31445,283 0,-21.47461 8.10059,0 c 1.42577,2e-5 2.51463,0.0684 3.2666,0.20508 1.05467,0.1758 1.93846,0.51027 2.65137,1.00342 0.71287,0.49318 1.2866,1.1841 1.72119,2.07275 0.43455,0.88869 0.65184,1.86525 0.65185,2.92969 -1e-5,1.82618 -0.58107,3.37159 -1.74316,4.63623 -1.16212,1.26466 -3.26173,1.89698 -6.29883,1.89697 l -5.50781,0 0,8.73047 z m 2.8418,-11.26465 5.55176,0 c 1.83592,1e-5 3.13963,-0.34178 3.91113,-1.02539 0.77147,-0.68358 1.15721,-1.64549 1.15723,-2.88574 -2e-5,-0.89842 -0.22707,-1.66746 -0.68116,-2.30713 -0.45411,-0.63963 -1.05226,-1.06199 -1.79443,-1.26709 -0.47853,-0.12693 -1.36232,-0.19041 -2.65137,-0.19043 l -5.49316,0 z"
         style="font-size:30px;fill:#000000;font-family:helvetica"
         id="path7863" />
      <path
         d="m 369.5,283 0,-21.47461 14.4873,0 0,2.53418 -11.6455,0 0,6.65039 10.07812,0 0,2.53418 -10.07812,0 0,9.75586 z"
         style="font-size:30px;fill:#000000;font-family:helvetica"
         id="path7865" />
      <path
         d="m 396.57397,276.83813 -1.96655,0.15381 c -0.17579,-0.77635 -0.42481,-1.34032 -0.74707,-1.69189 -0.53467,-0.56395 -1.19385,-0.84593 -1.97754,-0.84595 -0.62989,2e-5 -1.18286,0.1758 -1.65893,0.52735 -0.62257,0.45411 -1.11329,1.11695 -1.47217,1.98852 -0.35889,0.87159 -0.54566,2.11305 -0.5603,3.72437 0.47607,-0.72509 1.05834,-1.26342 1.74682,-1.61499 0.68847,-0.35156 1.40991,-0.52734 2.16431,-0.52735 1.31835,10e-6 2.44079,0.48524 3.36731,1.45569 0.9265,0.97047 1.38976,2.22474 1.38977,3.76282 -1e-5,1.01074 -0.21791,1.95007 -0.65369,2.81799 -0.4358,0.86792 -1.03455,1.53259 -1.79626,1.99402 -0.76173,0.46143 -1.62599,0.69214 -2.59278,0.69214 -1.64795,0 -2.99194,-0.60608 -4.03198,-1.81824 -1.04004,-1.21215 -1.56006,-3.20983 -1.56006,-5.99304 0,-3.11278 0.57495,-5.37596 1.72486,-6.78955 1.00341,-1.23046 2.35473,-1.84569 4.05395,-1.84571 1.26708,2e-5 2.30529,0.35525 3.11463,1.06568 0.80931,0.71046 1.29454,1.69191 1.45568,2.94433 z m -8.07495,6.94336 c 0,0.68116 0.14465,1.33302 0.43396,1.95557 0.28931,0.62256 0.69397,1.0968 1.21399,1.42273 0.52002,0.32593 1.06567,0.48889 1.63697,0.48889 0.83495,0 1.55272,-0.33691 2.15332,-1.01074 0.60057,-0.67383 0.90087,-1.58935 0.90087,-2.74658 0,-1.11328 -0.29664,-1.99035 -0.88989,-2.63123 -0.59327,-0.64086 -1.34034,-0.96129 -2.24121,-0.9613 -0.89356,10e-6 -1.65161,0.32044 -2.27417,0.9613 -0.62256,0.64088 -0.93384,1.48133 -0.93384,2.52136 z"
         style="font-size:75%;baseline-shift:sub"
         id="path7867" />
      <path
         d="m 398.61743,266.16602 0,-1.98853 6.07544,0 0,1.98853 z"
         style="font-size:75%;baseline-shift:super"
         id="path7869" />
    </g>
  </g>
  <cdml:cdml
     version="0.15">
    <cdml:info>
      <cdml:author_program
         version="0.13.0">BKchem</cdml:author_program>
    </cdml:info>
    <cdml:paper
       crop_margin="5"
       crop_svg="1"
       orientation="portrait"
       replace_minus="0"
       type="Legal"
       use_real_minus="0" />
    <cdml:viewport
       viewport="0.000000 0.000000 640.000000 480.000000" />
    <cdml:standard
       area_color=""
       font_family="helvetica"
       font_size="24"
       line_color="#000"
       line_width="0.06cm"
       paper_crop_margin="5"
       paper_crop_svg="1"
       paper_orientation="portrait"
       paper_type="Legal">
      <cdml:bond
         double-ratio="0.85"
         length="1.4cm"
         wedge-width="0.18cm"
         width="0.21cm" />
      <cdml:arrow
         length="1.6cm" />
      <cdml:atom
         show_hydrogens="0" />
    </cdml:standard>
    <cdml:molecule
       id="molecule66406"
       name="">
      <cdml:atom
         id="atom5736"
         name="C"
         valency="4">
        <cdml:point
           x="5.812cm"
           y="10.541cm" />
      </cdml:atom>
      <cdml:atom
         id="atom55141"
         name="C"
         valency="4">
        <cdml:point
           x="7.024cm"
           y="9.840cm" />
      </cdml:atom>
      <cdml:atom
         id="atom48268"
         name="C"
         valency="4">
        <cdml:point
           x="8.237cm"
           y="10.541cm" />
      </cdml:atom>
      <cdml:atom
         id="atom40090"
         name="C"
         valency="4">
        <cdml:point
           x="8.237cm"
           y="11.939cm" />
      </cdml:atom>
      <cdml:atom
         id="atom62316"
         name="C"
         valency="4">
        <cdml:point
           x="5.812cm"
           y="11.939cm" />
      </cdml:atom>
      <cdml:atom
         id="atom87271"
         name="C"
         valency="4">
        <cdml:point
           x="7.024cm"
           y="12.639cm" />
      </cdml:atom>
      <cdml:atom
         id="atom11188"
         name="N"
         pos="center-first"
         valency="3">
        <cdml:point
           x="9.566cm"
           y="12.371cm" />
      </cdml:atom>
      <cdml:atom
         id="atom61325"
         name="N"
         pos="center-first"
         valency="3">
        <cdml:point
           x="10.388cm"
           y="11.240cm" />
      </cdml:atom>
      <cdml:atom
         id="atom94383"
         name="N"
         pos="center-first"
         valency="3">
        <cdml:point
           x="9.566cm"
           y="10.108cm" />
      </cdml:atom>
      <cdml:atom
         id="atom51834"
         name="O"
         pos="center-first"
         valency="2">
        <cdml:point
           x="10.266cm"
           y="8.896cm" />
      </cdml:atom>
      <cdml:atom
         charge="1"
         id="atom83896"
         name="P"
         pos="center-last"
         valency="5">
        <cdml:point
           x="11.666cm"
           y="8.896cm" />
        <cdml:mark
           auto="1"
           draw_circle="yes"
           size="10"
           type="plus"
           x="11.308cm"
           y="9.517cm" />
      </cdml:atom>
      <cdml:group
         group-type="implicit"
         id="atom2945"
         name="N(CH3)2"
         pos="center-first">
        <cdml:point
           x="12.578cm"
           y="10.082cm" />
      </cdml:group>
      <cdml:group
         group-type="implicit"
         id="atom84534"
         name="N(CH3)2"
         pos="center-first">
        <cdml:point
           x="12.322cm"
           y="7.560cm" />
      </cdml:group>
      <cdml:bond
         double_ratio="0.85"
         end="atom2945"
         id="bond83742"
         line_width="2.26548672566"
         start="atom83896"
         type="n1" />
      <cdml:bond
         bond_width="-7.92920353982"
         center="no"
         double_ratio="0.85"
         end="atom48268"
         id="bond66041"
         line_width="2.26548672566"
         start="atom55141"
         type="n2" />
      <cdml:bond
         bond_width="-7.92920353982"
         center="no"
         double_ratio="0.85"
         end="atom11188"
         id="bond78730"
         line_width="2.26548672566"
         start="atom61325"
         type="n2" />
      <cdml:bond
         double_ratio="0.85"
         end="atom84534"
         id="bond26330"
         line_width="2.26548672566"
         start="atom83896"
         type="n1" />
      <cdml:bond
         double_ratio="0.85"
         end="atom94383"
         id="bond55202"
         line_width="2.26548672566"
         start="atom48268"
         type="n1" />
      <cdml:bond
         double_ratio="0.85"
         end="atom40090"
         id="bond59813"
         line_width="2.26548672566"
         start="atom11188"
         type="n1" />
      <cdml:bond
         bond_width="7.92920353982"
         center="no"
         double_ratio="0.85"
         end="atom62316"
         id="bond71665"
         line_width="2.26548672566"
         start="atom5736"
         type="n2" />
      <cdml:bond
         double_ratio="0.85"
         end="atom61325"
         id="bond17226"
         line_width="2.26548672566"
         start="atom94383"
         type="n1" />
      <cdml:bond
         double_ratio="0.85"
         end="atom55141"
         id="bond739"
         line_width="2.26548672566"
         start="atom5736"
         type="n1" />
      <cdml:bond
         double_ratio="0.85"
         end="atom40090"
         id="bond34976"
         line_width="2.26548672566"
         start="atom48268"
         type="n1" />
      <cdml:bond
         bond_width="-7.92920353982"
         center="no"
         double_ratio="0.85"
         end="atom87271"
         id="bond60613"
         line_width="2.26548672566"
         start="atom40090"
         type="n2" />
      <cdml:bond
         double_ratio="0.85"
         end="atom87271"
         id="bond90670"
         line_width="2.26548672566"
         start="atom62316"
         type="n1" />
      <cdml:bond
         double_ratio="0.85"
         end="atom51834"
         id="bond10134"
         line_width="2.26548672566"
         start="atom94383"
         type="n1" />
      <cdml:bond
         double_ratio="0.85"
         end="atom83896"
         id="bond72509"
         line_width="2.26548672566"
         start="atom51834"
         type="n1" />
    </cdml:molecule>
    <cdml:text
       id="text95461">
      <cdml:point
         x="9.428cm"
         y="7.257cm" />
      <cdml:ftext>PF<cdml:sub>6</cdml:sub>
<cdml:sup>-</cdml:sup>
</cdml:ftext>
    </cdml:text>
  </cdml:cdml>
</svg>
