<!-- Generator: Adobe Illustrator 13.0.2, SVG Export Plug-In . SVG Version: 6.00 Build 14948)  -->
<svg xmlns:rdf="http://www.w3.org/1999/02/22-rdf-syntax-ns#" xmlns="http://www.w3.org/2000/svg" enable-background="new 0 0 107.5 107.5" xml:space="preserve" height="107.5px" viewBox="0 0 107.5 107.5" width="107.5px" version="1.1" y="0px" x="0px" xmlns:cc="http://creativecommons.org/ns#" xmlns:dc="http://purl.org/dc/elements/1.1/"><metadata><rdf:RDF><cc:Work rdf:about=""><dc:format>image/svg+xml</dc:format><dc:type rdf:resource="http://purl.org/dc/dcmitype/StillImage"/><dc:title/></cc:Work></rdf:RDF></metadata>
<path fill="#1a171b" d="M33.5625,5l-28.5625,28.5625v40.375l28.5625,28.5625h40.375l28.5625-28.5625v-40.375l-28.5625-28.5625h-40.375zm0.75,1.6875h38.9375l27.5625,27.5625v39l-27.5625,27.5625h-38.9375l-27.625-27.5625v-39l27.625-27.5625z"/>
<path fill="#1a171b" d="m10.951,36.349998,1.699,0,0,34.75-1.699,0z"/>
<path fill="#1a171b" d="m36.400002,94.849998,34.75,0,0,1.700001-34.75,0z"/>
<path fill="#1a171b" d="m94.849998,36.349998,1.701,0,0,34.75-1.701,0z"/>
<path fill="#1a171b" d="m36.400002,10.95,34.75,0,0,1.7-34.75,0z"/>
</svg>
