<?xml version="1.0" encoding="UTF-8" standalone="no"?>
<!-- Generator: Adobe Illustrator 12.0.1, SVG Export Plug-In . SVG Version: 6.00 Build 51448)  -->
<svg
   xmlns:dc="http://purl.org/dc/elements/1.1/"
   xmlns:cc="http://web.resource.org/cc/"
   xmlns:rdf="http://www.w3.org/1999/02/22-rdf-syntax-ns#"
   xmlns:svg="http://www.w3.org/2000/svg"
   xmlns="http://www.w3.org/2000/svg"
   xmlns:sodipodi="http://sodipodi.sourceforge.net/DTD/sodipodi-0.dtd"
   xmlns:inkscape="http://www.inkscape.org/namespaces/inkscape"
   version="1.1"
   id="Layer_1"
   width="66.2"
   height="63"
   viewBox="0 0 66.2 63"
   style="overflow:visible;enable-background:new 0 0 66.2 63;"
   xml:space="preserve"
   sodipodi:version="0.32"
   inkscape:version="0.45.1"
   sodipodi:docname="Cyclopentadien.svg"
   inkscape:output_extension="org.inkscape.output.svg.inkscape"
   sodipodi:docbase="C:\"><metadata
   id="metadata20"><rdf:RDF><cc:Work
       rdf:about=""><dc:format>image/svg+xml</dc:format><dc:type
         rdf:resource="http://purl.org/dc/dcmitype/StillImage" /></cc:Work></rdf:RDF></metadata><defs
   id="defs18" /><sodipodi:namedview
   inkscape:window-height="579"
   inkscape:window-width="801"
   inkscape:pageshadow="2"
   inkscape:pageopacity="0.0"
   guidetolerance="10.0"
   gridtolerance="10.0"
   objecttolerance="10.0"
   borderopacity="1.0"
   bordercolor="#666666"
   pagecolor="#ffffff"
   id="base"
   inkscape:zoom="6"
   inkscape:cx="33.099998"
   inkscape:cy="31.5"
   inkscape:window-x="88"
   inkscape:window-y="88"
   inkscape:current-layer="Layer_1" />
<path
   d="M 14.8125,3.19 L 13.67155,1.575 L 52.5275,1.575 L 51.34,3.19 L 14.8125,3.19 z "
   id="polygon3" />
<path
   d="M 3.555,37.9125 L 1.655,38.52905 L 13.67155,1.575 L 14.8125,3.19 L 3.555,37.9125 z "
   id="polygon5" />
<path
   d="M 10.015,36.345 L 8.495,35.8225 L 17.5675,7.7975 L 19.135,8.2725 L 10.015,36.345 z "
   id="polygon7" />
<path
   d="M 33.1,59.3825 L 33.1,61.425 L 1.655,38.52905 L 3.555,37.9125 L 33.1,59.3825 z "
   id="polygon9" />
<path
   d="M 62.645,37.9125 L 64.545,38.52905 L 33.1,61.425 L 33.1,59.3825 L 62.645,37.9125 z "
   id="polygon11" />
<path
   d="M 51.34,3.19 L 52.5275,1.575 L 64.545,38.52905 L 62.645,37.9125 L 51.34,3.19 z "
   id="polygon13" />
<path
   d="M 47.065,8.2725 L 48.58405,7.7975 L 57.705,35.8225 L 56.185,36.345 L 47.065,8.2725 z "
   id="polygon15" />
</svg>