<?xml version="1.0" encoding="UTF-8" standalone="no"?>
<!-- Generator: Adobe Illustrator 12.0.1, SVG Export Plug-In . SVG Version: 6.00 Build 51448)  -->
<svg
   xmlns:dc="http://purl.org/dc/elements/1.1/"
   xmlns:cc="http://web.resource.org/cc/"
   xmlns:rdf="http://www.w3.org/1999/02/22-rdf-syntax-ns#"
   xmlns:svg="http://www.w3.org/2000/svg"
   xmlns="http://www.w3.org/2000/svg"
   xmlns:sodipodi="http://sodipodi.sourceforge.net/DTD/sodipodi-0.dtd"
   xmlns:inkscape="http://www.inkscape.org/namespaces/inkscape"
   version="1.1"
   id="Layer_1"
   width="66.2"
   height="62.899"
   viewBox="0 0 66.2 62.899"
   style="overflow:visible;enable-background:new 0 0 66.2 62.899;"
   xml:space="preserve"
   sodipodi:version="0.32"
   inkscape:version="0.45.1"
   sodipodi:docname="Cyclopentadienyl-Anion.svg"
   inkscape:output_extension="org.inkscape.output.svg.inkscape"
   sodipodi:docbase="C:\"><metadata
   id="metadata20"><rdf:RDF><cc:Work
       rdf:about=""><dc:format>image/svg+xml</dc:format><dc:type
         rdf:resource="http://purl.org/dc/dcmitype/StillImage" /></cc:Work></rdf:RDF></metadata><defs
   id="defs18" /><sodipodi:namedview
   inkscape:window-height="579"
   inkscape:window-width="801"
   inkscape:pageshadow="2"
   inkscape:pageopacity="0.0"
   guidetolerance="10.0"
   gridtolerance="10.0"
   objecttolerance="10.0"
   borderopacity="1.0"
   bordercolor="#666666"
   pagecolor="#ffffff"
   id="base"
   inkscape:zoom="6.0096347"
   inkscape:cx="33.099998"
   inkscape:cy="31.449499"
   inkscape:window-x="66"
   inkscape:window-y="66"
   inkscape:current-layer="Layer_1" />
<path
   d="M 14.8125,3.186525 L 13.625,1.572475 L 52.48,1.572475 L 51.34,3.186525 L 14.8125,3.186525 z "
   id="polygon3" />
<path
   d="M 3.555,37.909975 L 1.655,38.526525 L 13.625,1.572475 L 14.8125,3.186525 L 3.555,37.909975 z "
   id="polygon5" />
<path
   d="M 33.0525,59.332475 L 33.0525,61.326525 L 1.655,38.526525 L 3.555,37.909975 L 33.0525,59.332475 z "
   id="polygon7" />
<path
   d="M 62.645,37.909975 L 64.545,38.526525 L 33.0525,61.326525 L 33.0525,59.332475 L 62.645,37.909975 z "
   id="polygon9" />
<path
   d="M 64.545,38.526525 L 62.645,37.909975 L 51.34,3.186525 L 52.48,1.572475 L 64.545,38.526525 z "
   id="polygon11" />
<path
   style="fill:none;stroke:#000000;stroke-width:1.70000005"
   d="M 33.0525,6.749025 C 44.9275,6.749025 54.57,16.391525 54.57,28.266525 C 54.57,40.141525 44.9275,49.784975 33.0525,49.784975 C 21.1775,49.784975 11.535,40.142475 11.535,28.267475 C 11.535,16.392475 21.1775,6.749025 33.0525,6.749025"
   id="path13" />
<path
   style="fill:none;stroke:#000000;stroke-width:1.35000002"
   d="M 29.68,28.076525 L 37.28,28.076525"
   id="line15" />
</svg>