<?xml version="1.0" encoding="UTF-8" standalone="no"?>
<!-- Generator: Adobe Illustrator 12.0.1, SVG Export Plug-In . SVG Version: 6.00 Build 51448)  -->
<svg
   xmlns:dc="http://purl.org/dc/elements/1.1/"
   xmlns:cc="http://creativecommons.org/ns#"
   xmlns:rdf="http://www.w3.org/1999/02/22-rdf-syntax-ns#"
   xmlns:svg="http://www.w3.org/2000/svg"
   xmlns="http://www.w3.org/2000/svg"
   xmlns:sodipodi="http://sodipodi.sourceforge.net/DTD/sodipodi-0.dtd"
   xmlns:inkscape="http://www.inkscape.org/namespaces/inkscape"
   version="1.1"
   id="Layer_1"
   width="239.207"
   height="257.785"
   viewBox="0 0 239.207 257.785"
   style="overflow:visible;enable-background:new 0 0 239.207 257.785;"
   xml:space="preserve"
   sodipodi:version="0.32"
   inkscape:version="0.46"
   sodipodi:docname="Desoxycytidin.svg"
   inkscape:output_extension="org.inkscape.output.svg.inkscape"><metadata
   id="metadata84"><rdf:RDF><cc:Work
       rdf:about=""><dc:format>image/svg+xml</dc:format><dc:type
         rdf:resource="http://purl.org/dc/dcmitype/StillImage" /></cc:Work></rdf:RDF></metadata><defs
   id="defs82"><inkscape:perspective
   sodipodi:type="inkscape:persp3d"
   inkscape:vp_x="0 : 128.8925 : 1"
   inkscape:vp_y="0 : 1000 : 0"
   inkscape:vp_z="239.207 : 128.8925 : 1"
   inkscape:persp3d-origin="119.6035 : 85.928335 : 1"
   id="perspective86" />
	

	
	

	
	

	

	

	
	

	

	
</defs><sodipodi:namedview
   inkscape:window-height="675"
   inkscape:window-width="661"
   inkscape:pageshadow="2"
   inkscape:pageopacity="0.0"
   guidetolerance="10.0"
   gridtolerance="10.0"
   objecttolerance="10.0"
   borderopacity="1.0"
   bordercolor="#666666"
   pagecolor="#ffffff"
   id="base"
   showgrid="false"
   inkscape:zoom="1.7921911"
   inkscape:cx="119.6035"
   inkscape:cy="128.8925"
   inkscape:window-x="110"
   inkscape:window-y="110"
   inkscape:current-layer="Layer_1" />
<path
   style="fill:#231f20"
   d="M 132.8185,201.94325 L 138.37505,206.78825 L 87.3591,206.78825 L 86.55255,204.36575 L 89.30755,201.94325 L 132.8185,201.94325 z"
   id="polygon3" />
<path
   style="fill:#231f20"
   d="M 61.2341,162.13825 L 62.0435,161.94825 L 63.18255,162.23325 L 89.30755,201.94325 L 86.55255,204.36575 L 85.74505,210.87325 L 61.2341,162.13825 z"
   id="polygon5" />
<path
   style="fill:#231f20"
   d="M 158.89505,162.28075 L 160.0341,161.94825 L 160.8435,162.13825 L 138.37505,206.78825 L 132.8185,201.94325 L 158.89505,162.28075 z"
   id="polygon7" />
<path
   style="fill:#231f20"
   d="M 100.80255,141.47575 L 101.56255,142.94825 L 63.18255,162.23325 L 62.0435,161.94825 L 62.85005,160.61825 L 100.80255,141.47575 z"
   id="polygon9" />
<path
   id="path13"
   d="M 102.85075,138.469 C 102.85075,135.75865 103.57845,133.63825 105.03385,132.1059 C 106.48925,130.5726 108.36835,129.80595 110.6702,129.80595 C 112.17785,129.80595 113.53635,130.166 114.74665,130.8861 C 115.95695,131.60715 116.8794,132.61035 117.51495,133.89855 C 118.1505,135.18675 118.46685,136.64785 118.46685,138.27995 C 118.46685,139.9358 118.13245,141.41685 117.4646,142.7231 C 116.79675,144.02935 115.8496,145.01925 114.6241,145.6909 C 113.3986,146.36255 112.07715,146.69885 110.6588,146.69885 C 109.1217,146.69885 107.748,146.3274 106.5377,145.58545 C 105.3274,144.8435 104.41065,143.8289 103.7865,142.54545 C 103.16235,141.262 102.85075,139.9016 102.85075,138.469 z M 105.07755,138.49655 C 105.07755,140.46305 105.6067,142.0125 106.665,143.1449 C 107.7233,144.2773 109.0514,144.84255 110.6474,144.84255 C 112.2738,144.84255 113.61235,144.27065 114.664,143.1278 C 115.7147,141.98495 116.24005,140.3633 116.24005,138.26285 C 116.24005,136.93475 116.01585,135.7748 115.5665,134.78395 C 115.11715,133.7931 114.45975,133.02455 113.5943,132.47925 C 112.72885,131.93395 111.75795,131.6613 110.6816,131.6613 C 109.1521,131.6613 107.8354,132.18665 106.73245,133.2364 C 105.6295,134.28615 105.07755,136.03985 105.07755,138.49655 z"
   style="fill:#231f20" />
<path
   style="fill:#231f20"
   d="M 119.85005,142.90075 L 120.56255,141.42825 L 159.22755,160.61825 L 160.0341,161.94825 L 158.89505,162.28075 L 119.85005,142.90075 z"
   id="polygon15" />
<path
   style="fill:#231f20"
   d="M 61.2341,124.70825 L 62.85005,123.75825 L 62.85005,160.61825 L 62.0435,161.94825 L 61.2341,162.13825 L 61.2341,124.70825 z"
   id="polygon17" />
<path
   id="path21"
   d="M 78.72075,243.1115 C 78.72075,240.40115 79.44845,238.28075 80.90385,236.7484 C 82.35925,235.2151 84.23835,234.44845 86.5402,234.44845 C 88.04785,234.44845 89.40635,234.8085 90.61665,235.5286 C 91.82695,236.24965 92.7494,237.25285 93.38495,238.54105 C 94.0205,239.82925 94.33685,241.29035 94.33685,242.92245 C 94.33685,244.5783 94.00245,246.05935 93.3346,247.3656 C 92.66675,248.67185 91.7196,249.66175 90.4941,250.3334 C 89.2686,251.00505 87.94715,251.34135 86.5288,251.34135 C 84.9917,251.34135 83.618,250.9699 82.4077,250.22795 C 81.1974,249.486 80.28065,248.4714 79.6565,247.18795 C 79.03235,245.9045 78.72075,244.54505 78.72075,243.1115 z M 80.94755,243.13905 C 80.94755,245.10555 81.4767,246.655 82.535,247.7874 C 83.5933,248.9198 84.9214,249.48505 86.5174,249.48505 C 88.1438,249.48505 89.48235,248.91315 90.534,247.7703 C 91.5847,246.62745 92.11005,245.0058 92.11005,242.90535 C 92.11005,241.57725 91.88585,240.4173 91.4365,239.42645 C 90.98715,238.4356 90.32975,237.66705 89.4643,237.12175 C 88.59885,236.57645 87.62795,236.3038 86.5516,236.3038 C 85.0221,236.3038 83.7054,236.82915 82.60245,237.8789 C 81.4995,238.92865 80.94755,240.68235 80.94755,243.13905 z"
   style="fill:#231f20" /><path
   id="path23"
   d="M 97.1973,251.05825 L 97.1973,234.72965 L 99.36425,234.72965 L 99.36425,241.4395 L 107.8107,241.4395 L 107.8107,234.72965 L 109.97765,234.72965 L 109.97765,251.05825 L 107.8107,251.05825 L 107.8107,243.36895 L 99.36425,243.36895 L 99.36425,251.05825 L 97.1973,251.05825 z"
   style="fill:#231f20" />
<path
   style="fill:#231f20"
   d="M 87.3591,232.29575 L 85.74505,232.29575 L 85.74505,210.87325 L 86.55255,204.36575 L 87.3591,206.78825 L 87.3591,232.29575 z"
   id="polygon25" />
<path
   style="fill:#231f20"
   d="M 159.22755,135.34825 L 160.8435,135.34825 L 160.8435,162.13825 L 160.0341,161.94825 L 159.22755,160.61825 L 159.22755,135.34825 z"
   id="polygon27" />
<path
   id="path31"
   d="M 5.9802,114.40075 L 5.9802,98.07215 L 8.14715,98.07215 L 8.14715,104.782 L 16.5936,104.782 L 16.5936,98.07215 L 18.76055,98.07215 L 18.76055,114.40075 L 16.5936,114.40075 L 16.5936,106.71145 L 8.14715,106.71145 L 8.14715,114.40075 L 5.9802,114.40075 z"
   style="fill:#231f20" /><path
   id="path33"
   d="M 21.70365,106.45305 C 21.70365,103.7427 22.43135,101.6223 23.88675,100.08995 C 25.34215,98.55665 27.22125,97.79 29.5231,97.79 C 31.03075,97.79 32.38925,98.15005 33.59955,98.87015 C 34.80985,99.5912 35.7323,100.5944 36.36785,101.8826 C 37.0034,103.1708 37.31975,104.6319 37.31975,106.264 C 37.31975,107.91985 36.98535,109.4009 36.3175,110.70715 C 35.64965,112.0134 34.7025,113.0033 33.477,113.67495 C 32.2515,114.3466 30.93005,114.6829 29.5117,114.6829 C 27.9746,114.6829 26.6009,114.31145 25.3906,113.5695 C 24.1803,112.82755 23.26355,111.81295 22.6394,110.5295 C 22.01525,109.24605 21.70365,107.8866 21.70365,106.45305 z M 23.93045,106.48155 C 23.93045,108.44805 24.4596,109.9975 25.5179,111.1299 C 26.5762,112.2623 27.9043,112.82755 29.5003,112.82755 C 31.1267,112.82755 32.46525,112.25565 33.5169,111.1128 C 34.5676,109.96995 35.09295,108.3483 35.09295,106.24785 C 35.09295,104.91975 34.86875,103.7598 34.4194,102.76895 C 33.97005,101.7781 33.31265,101.00955 32.4472,100.46425 C 31.58175,99.91895 30.61085,99.6463 29.5345,99.6463 C 28.005,99.6463 26.6883,100.17165 25.58535,101.2214 C 24.4824,102.27115 23.93045,104.02485 23.93045,106.48155 z"
   style="fill:#231f20" />
<path
   style="fill:#231f20"
   d="M 38.34005,111.50325 L 39.1466,110.07825 L 62.85005,123.75825 L 61.2341,124.70825 L 38.34005,111.50325 z"
   id="polygon35" />
<path
   id="path39"
   d="M 186.2332,76.63825 L 186.2332,60.30965 L 188.4562,60.30965 L 197.01,73.1242 L 197.01,60.30965 L 199.0886,60.30965 L 199.0886,76.63825 L 196.8656,76.63825 L 188.3118,63.8237 L 188.3118,76.63825 L 186.2332,76.63825 z"
   style="fill:#231f20" />
<path
   id="path43"
   d="M 153.60165,133.21075 L 153.60165,116.88215 L 155.82465,116.88215 L 164.37845,129.6967 L 164.37845,116.88215 L 166.45705,116.88215 L 166.45705,133.21075 L 164.23405,133.21075 L 155.68025,120.3962 L 155.68025,133.21075 L 153.60165,133.21075 z"
   style="fill:#231f20" />
<path
   style="fill:#231f20"
   d="M 193.47505,105.80325 L 191.8591,104.85325 L 191.8591,78.77575 L 193.47505,78.77575 L 193.47505,105.80325 z"
   id="polygon45" />
<path
   style="fill:#231f20"
   d="M 170.2466,119.29325 L 169.44005,117.86825 L 191.8591,104.85325 L 193.47505,105.80325 L 170.2466,119.29325 z"
   id="polygon47" />
<path
   style="fill:#231f20"
   d="M 126.5466,105.80325 L 128.16255,104.85325 L 150.631,117.86825 L 149.8216,119.24575 L 126.5466,105.80325 z"
   id="polygon49" />
<path
   style="fill:#231f20"
   d="M 126.5466,67.18575 L 128.16255,68.13575 L 128.16255,104.85325 L 126.5466,105.80325 L 126.5466,67.18575 z"
   id="polygon51" />
<path
   style="fill:#231f20"
   d="M 132.20006,70.93825 L 133.81411,70.93825 L 133.81411,102.09825 L 132.20006,102.09825 L 132.20006,70.93825 z"
   id="rect53" />
<path
   style="fill:#231f20"
   d="M 159.22755,48.37575 L 160.0341,48.80325 L 160.0341,49.75325 L 128.16255,68.13575 L 126.5466,67.18575 L 159.22755,48.37575 z"
   id="polygon55" />
<path
   style="fill:#231f20"
   d="M 160.0341,49.75325 L 160.0341,48.80325 L 160.8435,48.37575 L 183.26255,61.29575 L 182.456,62.67325 L 160.0341,49.75325 z"
   id="polygon57" />
<path
   style="fill:#231f20"
   d="M 159.656,56.02325 L 160.46255,54.64575 L 180.4591,66.18825 L 179.606,67.56575 L 159.656,56.02325 z"
   id="polygon59" />
<path
   id="path63"
   d="M 153.60165,22.77325 L 153.60165,6.44465 L 155.82465,6.44465 L 164.37845,19.2592 L 164.37845,6.44465 L 166.45705,6.44465 L 166.45705,22.77325 L 164.23405,22.77325 L 155.68025,9.9587 L 155.68025,22.77325 L 153.60165,22.77325 z"
   style="fill:#231f20" /><path
   id="path65"
   d="M 170.1706,22.77325 L 170.1706,6.44465 L 172.33755,6.44465 L 172.33755,13.1545 L 180.784,13.1545 L 180.784,6.44465 L 182.95095,6.44465 L 182.95095,22.77325 L 180.784,22.77325 L 180.784,15.08395 L 172.33755,15.08395 L 172.33755,22.77325 L 170.1706,22.77325 z"
   style="fill:#231f20" />
<path
   id="path69"
   d="M 193.1929,25.60805 L 193.1929,27.04825 L 185.08845,27.04825 C 185.07705,26.6863 185.1369,26.3386 185.26515,26.0042 C 185.4732,25.4532 185.80475,24.91075 186.2617,24.37685 C 186.71865,23.84295 187.3732,23.2264 188.2282,22.5272 C 189.55345,21.43185 190.4531,20.5664 190.9262,19.9299 C 191.3993,19.2934 191.6349,18.69015 191.6349,18.12205 C 191.6349,17.52735 191.42115,17.0267 190.99365,16.61725 C 190.56615,16.20875 190.00945,16.0045 189.3207,16.0045 C 188.593,16.0045 188.01255,16.22205 187.5765,16.6581 C 187.14045,17.09415 186.92005,17.6974 186.91435,18.46785 L 185.3706,18.30445 C 185.47605,17.14925 185.87505,16.26955 186.5676,15.66535 C 187.26015,15.05925 188.18925,14.75715 189.3549,14.75715 C 190.53195,14.75715 191.46485,15.083 192.1498,15.7347 C 192.8357,16.3864 193.17865,17.1939 193.17865,18.1572 C 193.17865,18.6474 193.0789,19.12905 192.87845,19.60215 C 192.67705,20.07525 192.3436,20.574 191.8781,21.09745 C 191.4107,21.6209 190.63835,22.3391 189.55915,23.25205 C 188.65665,24.01015 188.0762,24.52315 187.81875,24.7939 C 187.5613,25.06275 187.34755,25.33445 187.17845,25.6071 L 193.1929,25.6071 L 193.1929,25.60805 z"
   style="fill:#231f20" />
<path
   style="fill:#231f20"
   d="M 159.22755,24.91075 L 160.8435,24.91075 L 160.8435,48.37575 L 160.0341,48.80325 L 159.22755,48.37575 L 159.22755,24.91075 z"
   id="polygon71" />
<path
   id="path75"
   d="M 217.6117,125.26305 C 217.6117,122.5527 218.3394,120.4323 219.79385,118.89995 C 221.2502,117.36665 223.12835,116.6 225.43115,116.6 C 226.93785,116.6 228.2973,116.96005 229.5076,117.68015 C 230.71695,118.4012 231.6394,119.4044 232.27495,120.6926 C 232.9105,121.9808 233.2278,123.4419 233.2278,125.074 C 233.2278,126.72985 232.8934,128.2109 232.2246,129.51715 C 231.5558,130.8234 230.6096,131.8133 229.38505,132.48495 C 228.1586,133.1566 226.83715,133.4929 225.41975,133.4929 C 223.8817,133.4929 222.50895,133.12145 221.29865,132.3795 C 220.0874,131.63755 219.17065,130.62295 218.54745,129.3395 C 217.92425,128.05605 217.6117,126.6966 217.6117,125.26305 z M 219.83755,125.29155 C 219.83755,127.25805 220.3667,128.8075 221.42405,129.9399 C 222.4833,131.07135 223.81045,131.63755 225.4074,131.63755 C 227.03285,131.63755 228.37235,131.06565 229.42305,129.9228 C 230.47375,128.77995 231.00005,127.1583 231.00005,125.05785 C 231.00005,123.72975 230.77585,122.5698 230.32555,121.57895 C 229.87525,120.5881 229.2188,119.81955 228.3543,119.27425 C 227.48885,118.72895 226.517,118.4563 225.4416,118.4563 C 223.91115,118.4563 222.5954,118.98165 221.4915,120.0314 C 220.38855,121.08115 219.83755,122.83485 219.83755,125.29155 z"
   style="fill:#231f20" />
<path
   style="fill:#231f20"
   d="M 218.65005,116.11075 L 217.8435,117.53575 L 192.28755,102.76325 L 193.09505,101.33825 L 218.65005,116.11075 z"
   id="polygon77" />
<path
   style="fill:#231f20"
   d="M 215.80005,121.05075 L 214.9935,122.42825 L 189.43755,107.65575 L 190.24505,106.27825 L 215.80005,121.05075 z"
   id="polygon79" />
</svg>