<svg xmlns:rdf="http://www.w3.org/1999/02/22-rdf-syntax-ns#" xmlns="http://www.w3.org/2000/svg" height="92" shape-rendering="geometricPrecision" width="205" version="1.1" xmlns:cc="http://creativecommons.org/ns#" xmlns:dc="http://purl.org/dc/elements/1.1/" preserveAspectRatio="xMidYMid">
<title>N,N&apos;-methanediylidenedicyclohexanamine</title>
<metadata>
<rdf:RDF>
<cc:Work rdf:about="">
<dc:format>image/svg+xml</dc:format>
<dc:type rdf:resource="http://purl.org/dc/dcmitype/StillImage"/>
<dc:title>N,N&apos;-methanediylidenedicyclohexanamine</dc:title>
<cc:license rdf:resource="http://creativecommons.org/licenses/publicdomain/"/>
</cc:Work>
<cc:License rdf:about="http://creativecommons.org/licenses/publicdomain/">
<cc:permits rdf:resource="http://creativecommons.org/ns#Reproduction"/>
<cc:permits rdf:resource="http://creativecommons.org/ns#Distribution"/>
<cc:permits rdf:resource="http://creativecommons.org/ns#DerivativeWorks"/>
</cc:License>
</rdf:RDF>
</metadata>
<path d="M27.46875,2.5,2,17.1875,2,46.59375,27.46875,61.28125,52.3125,46.9375,68.4375,56.25,69.0625,55.21875,52.90625,45.90625,52.90625,17.1875,27.46875,2.5zm0,1.375,24.25,14.03125,0,28-24.25,14-24.28125-14,0-28,24.28125-14.03125zm93.75,20.875,0,14.3125,1.8125,0,0-11.25,7.53125,11.25,1.9375,0,0-14.3125-1.8125,0,0,11.25-7.53125-11.25-1.9375,0zm55.375,6.46875-24.875,14.34375-16.125-9.3125-0.59375,1.03125,16.125,9.3125,0,28.71875,25.46875,14.6875,25.4375-14.6875,0-29.40625-25.4375-14.6875zm0,1.375,24.25,14,0,28-24.25,14.03125-24.25-14.03125,0-28,24.25-14zm-59.40625,2-7.15625,4.125,0.59375,1.0625,7.1875-4.15625-0.625-1.03125zm1.90625,3.28125-7.15625,4.15625,0.59375,1.03125,7.15625-4.125-0.59375-1.0625zm-16.5,1.125c-1.26302,0.00001-2.41732,0.2676-3.46875,0.84375-1.05143,0.57619-1.86784,1.42124-2.4375,2.53125-0.56966,1.11004-0.875,2.41537-0.875,3.90625,0,1.36719,0.27669,2.65235,0.78125,3.84375,0.50455,1.19141,1.2207,2.0905,2.1875,2.71875,0.96679,0.62826,2.23827,0.9375,3.78125,0.9375,1.49087,0,2.74934-0.4017,3.78125-1.21875,1.03189-0.81706,1.72785-2.00651,2.125-3.5625l-1.875-0.46875c-0.26043,1.20443-0.76433,2.10677-1.5,2.71875-0.73569,0.61198-1.62631,0.9375-2.6875,0.9375-0.87241,0-1.68881-0.23828-2.4375-0.6875-0.74871-0.44921-1.30143-1.12305-1.65625-2.03125s-0.53126-1.97004-0.53125-3.1875c-0.00001-0.944,0.13801-1.86132,0.4375-2.75,0.29947-0.88866,0.82357-1.59765,1.5625-2.125,0.73893-0.52734,1.64973-0.78124,2.75-0.78125,0.95702,0.00001,1.77473,0.21225,2.40625,0.6875,0.6315,0.47527,1.10545,1.2396,1.4375,2.28125l1.875-0.4375c-0.38413-1.32161-1.08595-2.33332-2.0625-3.0625-0.97658-0.72916-2.16146-1.09374-3.59375-1.09375zm-10.71875,10.1875-7.5625,4.34375,0.59375,1.0625,7.5625-4.375-0.59375-1.03125zm1.9375,3.34375-7.5625,4.34375,0.625,1.0625,7.53125-4.375-0.59375-1.03125zm-22.3125,0.9375,0,14.3125,1.8125,0,0-11.25,7.53125,11.25,1.9375,0,0-14.3125-1.8125,0,0,11.21875-7.53125-11.21875-1.9375,0z" fill="#000"/>
</svg>
