<svg xmlns:rdf="http://www.w3.org/1999/02/22-rdf-syntax-ns#" xmlns="http://www.w3.org/2000/svg" height="96" width="287" version="1.1" xmlns:cc="http://creativecommons.org/ns#" xmlns:dc="http://purl.org/dc/elements/1.1/" preserveAspectRatio="xMidYMid">
<title>(E)-diisopropyl diazene-1,2-dicarboxylate</title>
<metadata>
<rdf:RDF>
<cc:Work rdf:about="">
<dc:format>image/svg+xml</dc:format>
<dc:type rdf:resource="http://purl.org/dc/dcmitype/StillImage"/>
<dc:title>(E)-diisopropyl diazene-1,2-dicarboxylate</dc:title>
<cc:license rdf:resource="http://creativecommons.org/licenses/publicdomain/"/>
</cc:Work>
<cc:License rdf:about="http://creativecommons.org/licenses/publicdomain/">
<cc:permits rdf:resource="http://creativecommons.org/ns#Reproduction"/>
<cc:permits rdf:resource="http://creativecommons.org/ns#Distribution"/>
<cc:permits rdf:resource="http://creativecommons.org/ns#DerivativeWorks"/>
</cc:License>
</rdf:RDF>
</metadata>
<clipPath>
<rect y="0.60000002" x="0.60000002" height="718.54999" width="538.79999"/>
</clipPath>
<path fill="#000" d="m124.56773,45.959538,0-14.31641,1.94336,0,7.51953,11.24024,0-11.24024,1.81641,0,0,14.31641-1.94336,0-7.51953-11.25,0,11.25z"/>
<path fill="#000" d="m149.50774,60.359528,0-14.3164,1.94336,0,7.51953,11.24023,0-11.24023,1.8164,0,0,14.3164-1.94336,0-7.51953-11.25,0,11.25z"/>
<path fill="#000" d="m98.4511,82.306858c-0.00001-2.37629,0.63801-4.23664,1.91406-5.58106,1.27604-1.34438,2.92317-2.01658,4.9414-2.0166,1.32161,0.00002,2.51301,0.31577,3.57422,0.94727,1.06119,0.63152,1.87011,1.51205,2.42676,2.6416,0.55663,1.12957,0.83495,2.41049,0.83496,3.84277-0.00001,1.45183-0.29298,2.75066-0.8789,3.89649-0.58596,1.14583-1.41603,2.01335-2.49024,2.60254-1.07423,0.58919-2.23308,0.88379-3.47656,0.88379-1.34766,0-2.55209-0.32552-3.61328-0.97657-1.0612-0.65104-1.86524-1.53971-2.41211-2.66601-0.54688-1.1263-0.82032-2.3177-0.82031-3.57422zm1.95312,0.0293c0,1.72526,0.46386,3.08431,1.3916,4.07714,0.92773,0.99284,2.09147,1.48926,3.49121,1.48926,1.42578,0,2.59928-0.5013,3.52051-1.5039,0.92121-1.0026,1.38182-2.42513,1.38184-4.26758-0.00002-1.16536-0.19696-2.18261-0.59082-3.05176-0.3939-0.86913-0.97007-1.54296-1.72852-2.02148-0.75847-0.47851-1.60971-0.71776-2.55371-0.71778-1.34115,0.00002-2.49512,0.46063-3.46191,1.38184-0.9668,0.92123-1.4502,2.45932-1.4502,4.61426z"/>
<path fill="#000" d="m73.5011,39.106878c0-2.3763,0.63802-4.23665,1.91406-5.58106,1.27604-1.34438,2.92317-2.01658,4.94141-2.0166,1.3216,0.00002,2.51301,0.31577,3.57422,0.94727,1.06118,0.63152,1.8701,1.51205,2.42675,2.6416,0.55663,1.12957,0.83495,2.41049,0.83496,3.84277-0.00001,1.45183-0.29298,2.75066-0.8789,3.89649-0.58595,1.14583-1.41603,2.01334-2.49024,2.60254-1.07422,0.58919-2.23308,0.88378-3.47656,0.88378-1.34766,0-2.55209-0.32552-3.61328-0.97656-1.0612-0.65104-1.86524-1.53971-2.41211-2.66601-0.54688-1.1263-0.82031-2.31771-0.82031-3.57422zm1.95312,0.0293c0,1.72527,0.46387,3.08432,1.39161,4.07715,0.92772,0.99284,2.09146,1.48926,3.49121,1.48926,1.42577,0,2.59927-0.5013,3.5205-1.50391,0.92122-1.0026,1.38183-2.42512,1.38184-4.26757-0.00001-1.16536-0.19695-2.18261-0.59082-3.05176-0.39389-0.86913-0.97006-1.54296-1.72852-2.02149-0.75847-0.4785-1.60971-0.71776-2.55371-0.71777-1.34115,0.00001-2.49512,0.46062-3.46191,1.38184-0.9668,0.92123-1.4502,2.45932-1.4502,4.61425z"/>
<path fill="#000" d="m173.2711,10.306858c0-2.37629,0.63802-4.23664,1.91407-5.58106,1.27603-1.34438,2.92317-2.01658,4.9414-2.0166,1.32161,0.00002,2.51301,0.31577,3.57422,0.94727,1.06119,0.63152,1.8701,1.51205,2.42676,2.6416,0.55662,1.12957,0.83494,2.41049,0.83496,3.84277-0.00002,1.45183-0.29298,2.75066-0.87891,3.89649-0.58595,1.14583-1.41603,2.01335-2.49023,2.60254-1.07423,0.58919-2.23308,0.88379-3.47656,0.88379-1.34767,0-2.55209-0.32552-3.61329-0.97657-1.0612-0.65104-1.86523-1.53971-2.4121-2.66601-0.54688-1.1263-0.82032-2.3177-0.82032-3.57422zm1.95313,0.0293c0,1.72526,0.46386,3.08431,1.3916,4.07714,0.92773,0.99284,2.09146,1.48926,3.49121,1.48926,1.42577,0,2.59927-0.5013,3.52051-1.5039,0.92121-1.0026,1.38182-2.42513,1.38183-4.26758-0.00001-1.16536-0.19695-2.18261-0.59082-3.05176-0.39389-0.86913-0.97006-1.54296-1.72851-2.02148-0.75847-0.47851-1.60971-0.71776-2.55371-0.71778-1.34115,0.00002-2.49513,0.46063-3.46192,1.38184-0.9668,0.92123-1.45019,2.45932-1.45019,4.61426z"/>
<path fill="#000" d="m198.21111,53.506868c-0.00001-2.37629,0.63801-4.23664,1.91406-5.58105,1.27604-1.34439,2.92317-2.01659,4.9414-2.0166,1.32161,0.00001,2.51301,0.31576,3.57422,0.94726,1.06119,0.63152,1.87011,1.51206,2.42676,2.6416,0.55663,1.12957,0.83495,2.41049,0.83496,3.84278-0.00001,1.45182-0.29298,2.75065-0.8789,3.89648-0.58596,1.14584-1.41603,2.01335-2.49024,2.60254-1.07423,0.58919-2.23308,0.88379-3.47656,0.88379-1.34766,0-2.55209-0.32552-3.61328-0.97656-1.0612-0.65104-1.86524-1.53972-2.41211-2.66602-0.54688-1.1263-0.82032-2.3177-0.82031-3.57422zm1.95312,0.0293c0,1.72526,0.46386,3.08431,1.3916,4.07715,0.92773,0.99284,2.09147,1.48926,3.49121,1.48925,1.42577,0.00001,2.59928-0.5013,3.52051-1.5039,0.92121-1.0026,1.38182-2.42513,1.38184-4.26758-0.00002-1.16536-0.19696-2.18261-0.59082-3.05176-0.3939-0.86913-0.97007-1.54295-1.72852-2.02148-0.75847-0.47851-1.60971-0.71776-2.55371-0.71778-1.34115,0.00002-2.49512,0.46063-3.46191,1.38184-0.9668,0.92123-1.4502,2.45932-1.4502,4.61426z"/>
<path fill="#000" d="m59.98212,84.259978,1.89453,0.47852c-0.39715,1.55599-1.11167,2.74251-2.14356,3.55957-1.03191,0.81706-2.2933,1.22559-3.78418,1.22559-1.54297,0-2.79785-0.31413-3.76464-0.94239-0.9668-0.62825-1.70248-1.53808-2.20704-2.72949-0.50455-1.1914-0.75683-2.4707-0.75683-3.83789,0-1.49088,0.28483-2.79133,0.85449-3.90137,0.56966-1.11001,1.38021-1.95311,2.43164-2.52929,1.05143-0.57616,2.20865-0.86425,3.47168-0.86426,1.43228,0.00001,2.63671,0.3646,3.61328,1.09375,0.97655,0.72918,1.65689,1.75457,2.04102,3.07617l-1.86524,0.43945c-0.33204-1.04165-0.81381-1.80011-1.44531-2.27539-0.63152-0.47524-1.42579-0.71287-2.38281-0.71289-1.10027,0.00002-2.01986,0.26369-2.75879,0.79102-0.73894,0.52735-1.25814,1.23536-1.55762,2.12402-0.29948,0.88868-0.44922,1.80502-0.44922,2.74902,0,1.21746,0.17741,2.28028,0.53223,3.18848,0.35481,0.90821,0.90657,1.58692,1.65527,2.03613,0.7487,0.44922,1.55924,0.67383,2.43164,0.67383,1.06119,0,1.95963-0.30599,2.69532-0.91797,0.73566-0.61197,1.23371-1.52017,1.49414-2.72461z"/>
<path fill="#000" d="m64.27899,89.279518,0-14.31641,1.89453,0,0,5.87891,7.44141,0,0-5.87891,1.89453,0,0,14.31641-1.89453,0,0-6.74805-7.44141,0,0,6.74805z"/>
<path fill="#000" d="m77.76044,90.975038,1.31836-0.17578c0.15136,0.74707,0.40893,1.2854,0.7727,1.61499s0.80688,0.49439,1.32935,0.49439c0.62011,0,1.14379-0.21485,1.57104-0.64453,0.42724-0.42969,0.64087-0.96192,0.64087-1.59668,0-0.60547-0.19776-1.10474-0.59326-1.49781-0.39551-0.39306-0.89844-0.58959-1.50879-0.5896-0.24903,0.00001-0.55909,0.0488-0.93018,0.14649l0.14649-1.15723c0.0879,0.01,0.15869,0.0147,0.2124,0.0147,0.56152,0.00001,1.06689-0.14648,1.51611-0.43945s0.67383-0.74462,0.67383-1.35498c0-0.48339-0.16358-0.88378-0.49072-1.20118-0.32715-0.31737-0.74952-0.47606-1.26709-0.47607-0.5127,0.00001-0.93994,0.16114-1.28174,0.4834-0.3418,0.32227-0.56152,0.80567-0.65918,1.45019l-1.31836-0.23437c0.16113-0.88378,0.52735-1.5686,1.09864-2.05444,0.57128-0.48583,1.28173-0.72875,2.13134-0.72876,0.58594,0.00001,1.12549,0.12574,1.61866,0.37719,0.49315,0.25148,0.87035,0.5945,1.13159,1.02906,0.26122,0.43457,0.39184,0.896,0.39184,1.38427,0,0.46388-0.12452,0.88624-0.37353,1.26709-0.24903,0.38087-0.61768,0.6836-1.10596,0.90821,0.63476,0.14649,1.12792,0.45044,1.47949,0.91186,0.35156,0.46143,0.52734,1.03882,0.52735,1.73218-0.00001,0.9375-0.34181,1.73218-1.02539,2.38403-0.6836,0.65186-1.54786,0.97779-2.59278,0.97779-0.94238,0-1.72485-0.28077-2.34741-0.84229s-0.97778-1.28906-1.06567-2.18262z"/>
<path fill="#000" d="m2,46.079528,0-14.3164,1.89453,0,0,5.8789,7.44141,0,0-5.8789,1.89453,0,0,14.3164-1.89453,0,0-6.74804-7.44141,0,0,6.74804z"/>
<path fill="#000" d="m15.48145,47.775058,1.31835-0.17578c0.15137,0.74707,0.40894,1.2854,0.77271,1.61499s0.80688,0.49439,1.32935,0.49438c0.62011,0.00001,1.14379-0.21484,1.57104-0.64453,0.42724-0.42968,0.64086-0.96191,0.64087-1.59668-0.00001-0.60546-0.19776-1.10473-0.59326-1.4978-0.39552-0.39306-0.89844-0.58959-1.50879-0.5896-0.24903,0.00001-0.55909,0.0488-0.93018,0.14649l0.14649-1.15723c0.0879,0.01,0.15869,0.0147,0.2124,0.0147,0.56152,0,1.06689-0.14648,1.51611-0.43946,0.44922-0.29296,0.67383-0.74462,0.67383-1.35498,0-0.48339-0.16358-0.88378-0.49072-1.20117-0.32715-0.31737-0.74952-0.47606-1.26709-0.47607-0.5127,0.00001-0.93995,0.16114-1.28174,0.4834-0.3418,0.32227-0.56153,0.80567-0.65918,1.45019l-1.31836-0.23437c0.16113-0.88378,0.52734-1.5686,1.09863-2.05445,0.57129-0.48583,1.28174-0.72875,2.13135-0.72876,0.58593,0.00001,1.12548,0.12575,1.61865,0.3772,0.49316,0.25148,0.87036,0.59449,1.1316,1.02905,0.26122,0.43458,0.39183,0.89601,0.39184,1.38428-0.00001,0.46388-0.12452,0.88624-0.37353,1.26709-0.24903,0.38087-0.61769,0.6836-1.10596,0.9082,0.63476,0.14649,1.12792,0.45045,1.47949,0.91187,0.35156,0.46143,0.52734,1.03882,0.52735,1.73218-0.00001,0.9375-0.34181,1.73218-1.0254,2.38403-0.68359,0.65186-1.54785,0.97778-2.59277,0.97778-0.94238,0-1.72485-0.28076-2.34741-0.84228s-0.97778-1.28906-1.06567-2.18262z"/>
<path fill="#000" d="m34.95898,41.059998,1.89454,0.47852c-0.39715,1.55599-1.11167,2.74251-2.14356,3.55957-1.03191,0.81706-2.2933,1.22558-3.78418,1.22558-1.54297,0-2.79786-0.31412-3.76465-0.94238-0.9668-0.62825-1.70247-1.53808-2.20703-2.72949-0.50456-1.1914-0.75684-2.4707-0.75683-3.83789-0.00001-1.49088,0.28483-2.79133,0.85449-3.90137,0.56966-1.11001,1.3802-1.95311,2.43164-2.5293,1.05143-0.57615,2.20865-0.86424,3.47168-0.86425,1.43228,0.00001,2.63671,0.36459,3.61328,1.09375,0.97655,0.72918,1.65689,1.75457,2.04102,3.07617l-1.86524,0.43945c-0.33204-1.04165-0.81381-1.80012-1.44531-2.27539-0.63152-0.47525-1.42579-0.71288-2.38281-0.71289-1.10027,0.00001-2.01987,0.26369-2.75879,0.79102-0.73894,0.52735-1.25815,1.23536-1.55762,2.12402-0.29948,0.88868-0.44922,1.80502-0.44922,2.74902,0,1.21746,0.17741,2.28028,0.53223,3.18848,0.35481,0.90821,0.90657,1.58692,1.65527,2.03613,0.74869,0.44922,1.55924,0.67383,2.43164,0.67383,1.06119,0,1.95963-0.30599,2.69531-0.91797,0.73567-0.61197,1.23372-1.52018,1.49414-2.72461z"/>
<path fill="#000" d="m234.5721,12.259978,1.89453,0.47852c-0.39715,1.55599-1.11167,2.74251-2.14356,3.55957-1.03191,0.81706-2.2933,1.22559-3.78418,1.22559-1.54297,0-2.79785-0.31413-3.76464-0.94239-0.9668-0.62825-1.70248-1.53808-2.20703-2.72949-0.50456-1.1914-0.75684-2.4707-0.75684-3.83789,0-1.49088,0.28483-2.79133,0.85449-3.90137,0.56966-1.11001,1.38021-1.95311,2.43164-2.52929,1.05143-0.57616,2.20865-0.86425,3.47168-0.86426,1.43228,0.00001,2.63671,0.3646,3.61328,1.09375,0.97655,0.72918,1.65689,1.75457,2.04102,3.07617l-1.86524,0.43945c-0.33204-1.04165-0.81381-1.80011-1.44531-2.27539-0.63152-0.47524-1.42579-0.71287-2.38281-0.71289-1.10027,0.00002-2.01986,0.26369-2.75879,0.79102-0.73894,0.52735-1.25814,1.23536-1.55762,2.12402-0.29948,0.88868-0.44922,1.80502-0.44922,2.74902,0,1.21746,0.17741,2.28028,0.53223,3.18848,0.35481,0.90821,0.90657,1.58692,1.65527,2.03613,0.7487,0.44922,1.55924,0.67383,2.43164,0.67383,1.06119,0,1.95963-0.30599,2.69532-0.91797,0.73566-0.61197,1.23371-1.52017,1.49414-2.72461z"/>
<path fill="#000" d="m238.86897,17.279518,0-14.31641,1.89453,0,0,5.87891,7.44141,0,0-5.87891,1.89453,0,0,14.31641-1.89453,0,0-6.74805-7.44141,0,0,6.74805z"/>
<path fill="#000" d="m252.35042,18.975038,1.31836-0.17578c0.15136,0.74707,0.40893,1.2854,0.7727,1.61499s0.80688,0.49439,1.32935,0.49439c0.62011,0,1.14379-0.21485,1.57104-0.64453,0.42724-0.42969,0.64087-0.96192,0.64087-1.59668,0-0.60547-0.19776-1.10474-0.59326-1.49781-0.39551-0.39306-0.89844-0.58959-1.50879-0.5896-0.24903,0.00001-0.55908,0.0488-0.93017,0.14649l0.14648-1.15723c0.0879,0.01,0.15869,0.0147,0.2124,0.0147,0.56152,0.00001,1.06689-0.14648,1.51612-0.43945,0.44921-0.29297,0.67382-0.74462,0.67382-1.35498,0-0.48339-0.16358-0.88378-0.49072-1.20118-0.32715-0.31737-0.74951-0.47606-1.26709-0.47607-0.5127,0.00001-0.93994,0.16114-1.28174,0.4834-0.3418,0.32227-0.56152,0.80567-0.65918,1.45019l-1.31836-0.23437c0.16114-0.88378,0.52735-1.5686,1.09864-2.05444,0.57128-0.48583,1.28173-0.72875,2.13134-0.72876,0.58594,0.00001,1.12549,0.12574,1.61866,0.37719,0.49315,0.25148,0.87035,0.5945,1.13159,1.02906,0.26122,0.43457,0.39184,0.896,0.39184,1.38427,0,0.46388-0.12451,0.88624-0.37353,1.26709-0.24903,0.38087-0.61768,0.6836-1.10596,0.90821,0.63476,0.14649,1.12793,0.45044,1.47949,0.91186,0.35156,0.46143,0.52734,1.03882,0.52735,1.73218-0.00001,0.9375-0.34181,1.73218-1.02539,2.38403-0.6836,0.65186-1.54786,0.97779-2.59278,0.97779-0.94238,0-1.72485-0.28077-2.34741-0.84229s-0.97778-1.28906-1.06567-2.18262z"/>
<path fill="#000" d="m259.5121,55.459998,1.89453,0.47851c-0.39715,1.55599-1.11166,2.74252-2.14355,3.55957-1.03191,0.81706-2.29331,1.22559-3.78418,1.22559-1.54298,0-2.79786-0.31413-3.76465-0.94238-0.9668-0.62826-1.70248-1.53809-2.20703-2.7295-0.50456-1.1914-0.75684-2.47069-0.75684-3.83789,0-1.49087,0.28483-2.79133,0.85449-3.90136,0.56966-1.11002,1.38021-1.95312,2.43164-2.5293,1.05143-0.57616,2.20866-0.86424,3.47168-0.86426,1.43229,0.00002,2.63671,0.3646,3.61329,1.09375,0.97655,0.72918,1.65688,1.75457,2.04101,3.07617l-1.86523,0.43946c-0.33205-1.04166-0.81382-1.80012-1.44532-2.27539-0.63152-0.47525-1.42579-0.71288-2.38281-0.7129-1.10027,0.00002-2.01986,0.26369-2.75879,0.79102-0.73893,0.52736-1.25814,1.23536-1.55761,2.12402-0.29949,0.88868-0.44923,1.80502-0.44922,2.74903-0.00001,1.21745,0.1774,2.28028,0.53222,3.18847,0.35482,0.90821,0.90657,1.58692,1.65528,2.03614,0.74869,0.44922,1.55923,0.67383,2.43164,0.67382,1.06119,0.00001,1.95962-0.30598,2.69531-0.91796,0.73567-0.61198,1.23371-1.52018,1.49414-2.72461z"/>
<path fill="#000" d="m263.80898,60.479528,0-14.31641,1.89453,0,0,5.87891,7.4414,0,0-5.87891,1.89453,0,0,14.31641-1.89453,0,0-6.74805-7.4414,0,0,6.74805z"/>
<path fill="#000" d="m277.29042,62.175058,1.31836-0.17579c0.15137,0.74708,0.40893,1.28541,0.77271,1.61499,0.36376,0.3296,0.80688,0.49439,1.32934,0.49439,0.62011,0,1.14379-0.21484,1.57105-0.64453,0.42724-0.42969,0.64086-0.96191,0.64086-1.59668,0-0.60547-0.19776-1.10473-0.59326-1.4978-0.39551-0.39307-0.89844-0.5896-1.50879-0.5896-0.24902,0-0.55908,0.0488-0.93017,0.14648l0.14648-1.15723c0.0879,0.01,0.15869,0.0147,0.2124,0.0147,0.56152,0.00001,1.06689-0.14648,1.51612-0.43945,0.44921-0.29296,0.67382-0.74462,0.67383-1.35498-0.00001-0.48339-0.16358-0.88378-0.49073-1.20117-0.32715-0.31738-0.74951-0.47607-1.26709-0.47608-0.51269,0.00001-0.93994,0.16114-1.28173,0.4834-0.3418,0.32228-0.56153,0.80567-0.65918,1.4502l-1.31836-0.23438c0.16113-0.88378,0.52734-1.56859,1.09863-2.05444,0.57129-0.48583,1.28173-0.72875,2.13135-0.72876,0.58593,0.00001,1.12548,0.12574,1.61865,0.3772,0.49316,0.25147,0.87035,0.59449,1.13159,1.02905,0.26122,0.43458,0.39184,0.896,0.39185,1.38428-0.00001,0.46387-0.12452,0.88623-0.37354,1.26708-0.24903,0.38087-0.61768,0.6836-1.10596,0.90821,0.63476,0.14649,1.12793,0.45044,1.4795,0.91186,0.35155,0.46143,0.52733,1.03883,0.52734,1.73218-0.00001,0.9375-0.3418,1.73218-1.02539,2.38403-0.6836,0.65186-1.54786,0.97779-2.59277,0.97779-0.94239,0-1.72486-0.28076-2.34742-0.84229-0.62256-0.56152-0.97778-1.28906-1.06567-2.18261z"/>
<path d="m138.3743,44.169528,0,0,0.6-1.04,8.16,4.71-0.6,1.04z" fill-rule="evenodd" shape-rendering="geometricPrecision" stroke-width="0" fill="#000"/>
<path d="m136.7043,47.069518,8.16,4.71" stroke-width="1.20000005" stroke="#000"/>
<path d="m121.5343,43.119528-16.25,9.375-15.40625-8.90625-0.59375,1.03125,12.8125,7.40625,0,19.53125,1.21875,0,0-18.8125,1.96875,1.125,2-1.15625,0,18.84375,1.1875,0,0-19.53125,13.65625-7.875z" fill-rule="evenodd" stroke-width="0" fill="#000"/>
<path d="m176.9093,20.775778,0,19.15625-13.625,7.875,0.59375,1.03125,16.25-9.375,15.59375,9.03125,0.625-1.03125-13.03125-7.53125,0-19.15625-1.21875,0,0,18.4375-1.96875-1.125-2,1.15625,0-18.46875z" fill-rule="evenodd" stroke-width="0" fill="#000"/>
<path d="m39.87805,43.525778-0.59375,1.03125,15.53125,8.96875,0,18.03125,1.1875,0,0-18.03125,15.53125-8.96875-0.59375-1.03125-15.53125,8.96875z" fill-rule="evenodd" stroke-width="0" fill="#000"/>
<path d="m229.4093,20.775778,0,17.65625-15.53125,8.96875,0.59375,1.03125,15.53125-8.96875,16.125,9.3125,0.59375-1.03125-16.125-9.3125,0-17.65625z" fill-rule="evenodd" stroke-width="0" fill="#000"/>
</svg>
