<?xml version="1.0" encoding="UTF-8" standalone="no"?>
<!-- Generator: Adobe Illustrator 12.0.1, SVG Export Plug-In . SVG Version: 6.00 Build 51448)  -->
<svg
   xmlns:dc="http://purl.org/dc/elements/1.1/"
   xmlns:cc="http://web.resource.org/cc/"
   xmlns:rdf="http://www.w3.org/1999/02/22-rdf-syntax-ns#"
   xmlns:svg="http://www.w3.org/2000/svg"
   xmlns="http://www.w3.org/2000/svg"
   xmlns:sodipodi="http://sodipodi.sourceforge.net/DTD/sodipodi-0.dtd"
   xmlns:inkscape="http://www.inkscape.org/namespaces/inkscape"
   version="1.1"
   id="Layer_1"
   width="136.998"
   height="156.334"
   viewBox="0 0 136.998 156.334"
   style="overflow:visible;enable-background:new 0 0 136.998 156.334;"
   xml:space="preserve"
   sodipodi:version="0.32"
   inkscape:version="0.44.1"
   sodipodi:docname="4-Dimethylaminopyridin.svg"
   sodipodi:docbase="E:\Eigene Dateien"><metadata
   id="metadata60"><rdf:RDF><cc:Work
       rdf:about=""><dc:format>image/svg+xml</dc:format><dc:type
         rdf:resource="http://purl.org/dc/dcmitype/StillImage" /></cc:Work></rdf:RDF></metadata><defs
   id="defs58" /><sodipodi:namedview
   inkscape:window-height="573"
   inkscape:window-width="925"
   inkscape:pageshadow="2"
   inkscape:pageopacity="0.0"
   guidetolerance="10.0"
   gridtolerance="10.0"
   objecttolerance="10.0"
   borderopacity="1.0"
   bordercolor="#666666"
   pagecolor="#ffffff"
   id="base"
   inkscape:zoom="2.4179001"
   inkscape:cx="68.499001"
   inkscape:cy="78.167"
   inkscape:window-x="22"
   inkscape:window-y="22"
   inkscape:current-layer="Layer_1" />
<g
   id="g3"
   transform="matrix(0.95,0,0,0.95,3.424975,3.90835)">
	<path
   d="M 61.703,156.334 L 61.703,139.146 L 64.043,139.146 L 73.047,152.634 L 73.047,139.146 L 75.235,139.146 L 75.235,156.334 L 72.895,156.334 L 63.891,142.845 L 63.891,156.334 L 61.703,156.334 z "
   id="path5" />
</g>
<path
   d="M 36.651225,124.11565 L 35.036225,125.06565 L 35.036225,86.44815 L 36.651225,87.35065 L 36.651225,124.11565 z "
   id="polygon7" />
<path
   d="M 40.688723,90.153147 L 42.303724,90.153147 L 42.303724,121.36065 L 40.688723,121.36065 L 40.688723,90.153147 z "
   id="rect9" />
<path
   d="M 59.166225,137.13065 L 58.358725,138.55565 L 35.036225,125.06565 L 36.651225,124.11565 L 59.166225,137.13065 z "
   id="polygon11" />
<path
   d="M 100.34873,124.11565 L 101.96373,125.06565 L 78.688725,138.50815 L 77.881225,137.13065 L 100.34873,124.11565 z "
   id="polygon13" />
<path
   d="M 95.076225,120.64815 L 95.882775,122.02565 L 75.838725,133.61565 L 75.031225,132.19065 L 95.076225,120.64815 z "
   id="polygon15" />
<path
   d="M 100.34873,87.35065 L 101.96373,86.44815 L 101.96373,125.06565 L 100.34873,124.11565 L 100.34873,87.35065 z "
   id="polygon17" />
<path
   d="M 68.476225,68.96815 L 68.476225,68.06565 L 69.283725,67.59065 L 101.96373,86.44815 L 100.34873,87.35065 L 68.476225,68.96815 z "
   id="polygon19" />
<path
   d="M 68.096225,75.28565 L 68.903725,73.86065 L 95.882775,89.48815 L 95.076225,90.86565 L 68.096225,75.28565 z "
   id="polygon21" />
<path
   d="M 36.651225,87.35065 L 35.036225,86.44815 L 67.668725,67.59065 L 68.476225,68.06565 L 68.476225,68.96815 L 36.651225,87.35065 z "
   id="polygon23" />
<g
   id="g25"
   transform="matrix(0.95,0,0,0.95,3.424975,3.90835)">
	<path
   d="M 61.703,37.334 L 61.703,20.146 L 64.043,20.146 L 73.047,33.634 L 73.047,20.146 L 75.235,20.146 L 75.235,37.334 L 72.895,37.334 L 63.891,23.845 L 63.891,37.334 L 61.703,37.334 z "
   id="path27" />
</g>
<path
   d="M 67.668725,41.51315 L 69.283725,41.51315 L 69.283725,67.59065 L 68.476225,68.06565 L 67.668725,67.59065 L 67.668725,41.51315 z "
   id="polygon29" />
<g
   id="g31"
   transform="matrix(0.95,0,0,0.95,3.424975,3.90835)">
	<path
   d="M 0,17.484 L 0,0.297 L 2.281,0.297 L 2.281,7.36 L 11.172,7.36 L 11.172,0.297 L 13.453,0.297 L 13.453,17.485 L 11.172,17.485 L 11.172,9.391 L 2.281,9.391 L 2.281,17.485 L 0,17.485 L 0,17.484 z "
   id="path33" />
</g>
<g
   id="g35"
   transform="matrix(0.95,0,0,0.95,3.424975,3.90835)">
	<path
   d="M 14.461,18.578 L 16.039,18.359 C 16.222,19.255 16.531,19.902 16.967,20.297 C 17.404,20.693 17.939,20.891 18.574,20.891 C 19.327,20.891 19.96,20.633 20.473,20.118 C 20.986,19.603 21.242,18.965 21.242,18.204 C 21.242,17.477 21.004,16.879 20.526,16.407 C 20.049,15.936 19.443,15.7 18.707,15.7 C 18.406,15.7 18.032,15.759 17.585,15.876 L 17.762,14.485 C 17.868,14.497 17.953,14.503 18.018,14.503 C 18.692,14.503 19.299,14.327 19.839,13.977 C 20.379,13.626 20.649,13.085 20.649,12.354 C 20.649,11.775 20.452,11.295 20.058,10.916 C 19.664,10.536 19.156,10.346 18.533,10.346 C 17.916,10.346 17.401,10.54 16.99,10.928 C 16.578,11.317 16.314,11.899 16.197,12.674 L 14.619,12.393 C 14.812,11.331 15.253,10.508 15.939,9.924 C 16.625,9.341 17.479,9.049 18.5,9.049 C 19.204,9.049 19.853,9.199 20.445,9.501 C 21.037,9.802 21.49,10.213 21.805,10.733 C 22.118,11.254 22.276,11.806 22.276,12.391 C 22.276,12.947 22.127,13.453 21.828,13.909 C 21.529,14.365 21.087,14.727 20.501,14.997 C 21.263,15.173 21.855,15.537 22.28,16.092 C 22.704,16.645 22.917,17.338 22.917,18.17 C 22.917,19.295 22.506,20.249 21.684,21.031 C 20.862,21.814 19.823,22.205 18.567,22.205 C 17.434,22.205 16.493,21.869 15.745,21.195 C 14.994,20.521 14.567,19.648 14.461,18.578 z "
   id="path37" />
</g>
<g
   id="g39"
   transform="matrix(0.95,0,0,0.95,3.424975,3.90835)">
	<path
   d="M 37.039,11.457 L 39.32,12.031 C 38.844,13.901 37.987,15.327 36.751,16.308 C 35.514,17.29 34.001,17.781 32.214,17.781 C 30.364,17.781 28.86,17.404 27.701,16.649 C 26.542,15.894 25.66,14.802 25.055,13.371 C 24.45,11.94 24.148,10.404 24.148,8.762 C 24.148,6.971 24.489,5.409 25.172,4.076 C 25.855,2.742 26.826,1.73 28.087,1.038 C 29.346,0.346 30.733,0 32.247,0 C 33.964,0 35.407,0.438 36.577,1.314 C 37.748,2.191 38.563,3.423 39.023,5.011 L 36.789,5.538 C 36.391,4.288 35.814,3.378 35.058,2.808 C 34.301,2.238 33.349,1.953 32.203,1.953 C 30.885,1.953 29.783,2.269 28.897,2.902 C 28.012,3.535 27.39,4.384 27.031,5.451 C 26.672,6.518 26.493,7.617 26.493,8.75 C 26.493,10.211 26.705,11.486 27.13,12.576 C 27.555,13.666 28.215,14.48 29.112,15.019 C 30.009,15.558 30.979,15.828 32.024,15.828 C 33.295,15.828 34.37,15.461 35.251,14.726 C 36.132,13.991 36.727,12.902 37.039,11.457 z "
   id="path41" />
</g>
<path
   d="M 44.726225,17.62065 L 45.533725,16.19565 L 59.166225,24.08065 L 58.358725,25.45815 L 44.726225,17.62065 z "
   id="polygon43" />
<g
   id="g45"
   transform="matrix(0.95,0,0,0.95,3.424975,3.90835)">
	<path
   d="M 108.318,11.457 L 110.599,12.031 C 110.123,13.901 109.267,15.327 108.031,16.308 C 106.793,17.29 105.281,17.781 103.494,17.781 C 101.644,17.781 100.14,17.404 98.98,16.649 C 97.822,15.894 96.939,14.802 96.335,13.371 C 95.73,11.94 95.427,10.404 95.427,8.762 C 95.427,6.971 95.769,5.409 96.451,4.076 C 97.134,2.742 98.104,1.73 99.366,1.038 C 100.626,0.346 102.012,-2.8865799e-015 103.526,-2.8865799e-015 C 105.243,-2.8865799e-015 106.686,0.438 107.856,1.314 C 109.026,2.191 109.841,3.423 110.301,5.011 L 108.067,5.538 C 107.67,4.288 107.092,3.378 106.337,2.808 C 105.579,2.238 104.628,1.953 103.482,1.953 C 102.164,1.953 101.062,2.269 100.175,2.902 C 99.29,3.535 98.668,4.384 98.31,5.451 C 97.951,6.517 97.771,7.617 97.771,8.75 C 97.771,10.211 97.984,11.486 98.409,12.576 C 98.834,13.666 99.494,14.48 100.39,15.019 C 101.286,15.558 102.257,15.828 103.302,15.828 C 104.573,15.828 105.648,15.461 106.529,14.726 C 107.41,13.991 108.007,12.902 108.318,11.457 z "
   id="path47" />
	<path
   d="M 113.494,17.484 L 113.494,0.297 L 115.775,0.297 L 115.775,7.36 L 124.666,7.36 L 124.666,0.297 L 126.947,0.297 L 126.947,17.485 L 124.666,17.485 L 124.666,9.391 L 115.775,9.391 L 115.775,17.485 L 113.494,17.485 L 113.494,17.484 z "
   id="path49" />
</g>
<g
   id="g51"
   transform="matrix(0.95,0,0,0.95,3.424975,3.90835)">
	<path
   d="M 128.545,18.578 L 130.123,18.359 C 130.306,19.255 130.615,19.902 131.051,20.297 C 131.488,20.693 132.024,20.891 132.658,20.891 C 133.411,20.891 134.045,20.633 134.556,20.118 C 135.07,19.603 135.326,18.965 135.326,18.204 C 135.326,17.477 135.088,16.879 134.61,16.407 C 134.133,15.936 133.527,15.7 132.791,15.7 C 132.49,15.7 132.116,15.759 131.669,15.876 L 131.846,14.485 C 131.951,14.497 132.037,14.503 132.102,14.503 C 132.776,14.503 133.383,14.327 133.923,13.977 C 134.463,13.627 134.733,13.085 134.733,12.354 C 134.733,11.775 134.536,11.295 134.142,10.916 C 133.748,10.537 133.24,10.346 132.617,10.346 C 132,10.346 131.485,10.54 131.073,10.928 C 130.662,11.317 130.397,11.899 130.28,12.674 L 128.702,12.393 C 128.895,11.331 129.336,10.508 130.022,9.924 C 130.708,9.341 131.561,9.049 132.583,9.049 C 133.287,9.049 133.936,9.199 134.528,9.501 C 135.12,9.802 135.573,10.213 135.887,10.733 C 136.2,11.254 136.358,11.806 136.358,12.391 C 136.358,12.947 136.209,13.453 135.91,13.909 C 135.611,14.365 135.169,14.727 134.583,14.997 C 135.345,15.173 135.937,15.537 136.362,16.092 C 136.786,16.645 136.999,17.338 136.999,18.17 C 136.999,19.295 136.588,20.249 135.767,21.031 C 134.945,21.814 133.906,22.205 132.65,22.205 C 131.517,22.205 130.576,21.869 129.828,21.195 C 129.077,20.521 128.65,19.648 128.545,18.578 z "
   id="path53" />
</g>
<path
   d="M 91.941225,15.91065 L 92.748725,17.28815 L 78.688725,25.45815 L 77.881225,24.03315 L 91.941225,15.91065 z "
   id="polygon55" />
</svg>