<?xml version="1.0" encoding="UTF-8"?>
<svg width="153pt" xmlns:xlink="http://www.w3.org/1999/xlink" xmlns="http://www.w3.org/2000/svg" height="127pt" viewBox="0 0 153 127" >
 <g transform="translate(6, 62.4625)" style="fill:#161413; fill-rule:evenodd; stroke:none; stroke-width:0.01; stroke-linecap:butt; stroke-linejoin:miter; stroke-dasharray:none;" >
  <path d="M11.0283 9.31705 C11.0283 9.31705 11.0283 17.1082 11.0283 17.1082 C11.0283 17.1082 13.2204 17.1082 13.2204 17.1082 C13.2204 17.1082 13.2204 0 13.2204 0 C13.2204 0 11.0283 0 11.0283 0 C11.0283 0 11.0283 7.39297 11.0283 7.39297 C11.0283 7.39297 2.19108 7.39297 2.19108 7.39297 C2.19108 7.39297 2.19108 0 2.19108 0 C2.19108 0 0 0 0 0 C0 0 0 17.1082 0 17.1082 C0 17.1082 2.21506 17.1082 2.21506 17.1082 C2.21506 17.1082 2.21506 9.31705 2.21506 9.31705 C2.21506 9.31705 11.0283 9.31705 11.0283 9.31705 Z" />
 </g>
 <g transform="translate(38.8058, 42.6242)" style="fill:#161413; fill-rule:evenodd; stroke:none; stroke-width:0.01; stroke-linecap:butt; stroke-linejoin:miter; stroke-dasharray:none;" >
  <path d="M14.4689 5.58526 C13.7861 1.83059 11.6181 0 7.84675 0 C5.53769 0 3.67647 0.7277 2.40303 2.13617 C0.847685 3.82536 0 6.26612 0 9.03543 C0 11.8514 0.871643 14.2683 2.49798 15.9346 C3.81738 17.2963 5.51373 17.9295 7.75278 17.9295 C11.9479 17.9295 14.3039 15.6767 14.8226 11.1476 C14.8226 11.1476 12.5606 11.1476 12.5606 11.1476 C12.3718 12.3212 12.1358 13.1186 11.7829 13.7994 C11.0753 15.207 9.61488 16.0053 7.77674 16.0053 C4.3592 16.0053 2.19114 13.2828 2.19114 9.01148 C2.19114 4.62366 4.26523 1.92417 7.58782 1.92417 C8.97821 1.92417 10.2746 2.34718 10.9813 3.00418 C11.6181 3.59049 11.971 4.31809 12.2308 5.58526 C12.2308 5.58526 14.4689 5.58526 14.4689 5.58526 Z" />
 </g>
 <g transform="translate(22.0126, 55.3694)" style="fill:#161413; fill-rule:nonzero; stroke:none; stroke-width:1.66587; stroke-linecap:butt; stroke-linejoin:miter; stroke-dasharray:none;" >
  <path d="M14.6299 0 C14.6299 0 15.4651 1.46674 15.4651 1.46674 C15.4651 1.46674 0.834232 9.87568 0.834232 9.87568 C0.834232 9.87568 0 8.40894 0 8.40894 C0 8.40894 14.6299 0 14.6299 0 Z" />
 </g>
 <g transform="translate(73.096, 62.4625)" style="fill:#161413; fill-rule:evenodd; stroke:none; stroke-width:1.66587; stroke-linecap:butt; stroke-linejoin:miter; stroke-dasharray:none;" >
  <path d="M13.4323 0 C13.4323 0 11.3582 0 11.3582 0 C11.3582 0 11.3582 13.9866 11.3582 13.9866 C11.3582 13.9866 2.37996 0 2.37996 0 C2.37996 0 0 0 0 0 C0 0 0 17.1082 0 17.1082 C0 17.1082 2.07311 17.1082 2.07311 17.1082 C2.07311 17.1082 2.07311 3.23906 2.07311 3.23906 C2.07311 3.23906 10.9583 17.1082 10.9583 17.1082 C10.9583 17.1082 13.4323 17.1082 13.4323 17.1082 C13.4323 17.1082 13.4323 0 13.4323 0 Z" />
 </g>
 <g transform="translate(55.3487, 55.7113)" style="fill:#161413; fill-rule:nonzero; stroke:none; stroke-width:1.66587; stroke-linecap:butt; stroke-linejoin:miter; stroke-dasharray:none;" >
  <path d="M14.7776 8.01839 C14.7776 8.01839 13.9424 9.43644 13.9424 9.43644 C13.9424 9.43644 0 1.41805 0 1.41805 C0 1.41805 0.834232 0 0.834232 0 C0.834232 0 14.7776 8.01839 14.7776 8.01839 Z" />
 </g>
 <g transform="translate(37.8335, 4)" style="fill:#161413; fill-rule:evenodd; stroke:none; stroke-width:1.66587; stroke-linecap:butt; stroke-linejoin:miter; stroke-dasharray:none;" >
  <path d="M8.27143 0 C3.34655 0 0 3.61434 0 8.96472 C0 14.316 3.34655 17.9295 8.29549 17.9295 C10.3686 17.9295 12.2308 17.2963 13.6212 16.1227 C15.4824 14.55 16.5899 11.8982 16.5899 9.10601 C16.5899 3.59047 13.3143 0 8.27143 0 Z M8.27143 1.92414 C11.9948 1.92414 14.3989 4.74113 14.3989 9.05927 C14.3989 13.1892 11.9239 16.0053 8.29549 16.0053 C4.64199 16.0053 2.19114 13.1892 2.19114 8.96472 C2.19114 4.74113 4.64199 1.92414 8.27143 1.92414 Z" />
 </g>
 <g transform="translate(42.3873, 23.8345)" style="fill:#161413; fill-rule:nonzero; stroke:none; stroke-width:1.66587; stroke-linecap:butt; stroke-linejoin:miter; stroke-dasharray:none;" >
  <path d="M0 0 C0 0 1.66945 0 1.66945 0 C1.66945 0 1.66945 16.9649 1.66945 16.9649 C1.66945 16.9649 0 16.9649 0 16.9649 C0 16.9649 0 0 0 0 Z" />
 </g>
 <g transform="translate(48.2299, 23.8345)" style="fill:#161413; fill-rule:nonzero; stroke:none; stroke-width:1.66587; stroke-linecap:butt; stroke-linejoin:miter; stroke-dasharray:none;" >
  <path d="M0 0 C0 0 1.66846 0 1.66846 0 C1.66846 0 1.66846 16.9649 1.66846 16.9649 C1.66846 16.9649 0 16.9649 0 16.9649 C0 16.9649 0 0 0 0 Z" />
 </g>
 <g transform="translate(106.312, 42.6242)" style="fill:#161413; fill-rule:evenodd; stroke:none; stroke-width:1.66587; stroke-linecap:butt; stroke-linejoin:miter; stroke-dasharray:none;" >
  <path d="M14.4695 5.58526 C13.786 1.83059 11.618 0 7.84744 0 C5.53798 0 3.67628 0.7277 2.40372 2.13617 C0.848372 3.82536 0 6.26612 0 9.03543 C0 11.8514 0.871938 14.2683 2.49798 15.9346 C3.81767 17.2963 5.51442 17.9295 7.75318 17.9295 C11.9479 17.9295 14.3045 15.6767 14.8229 11.1476 C14.8229 11.1476 12.5606 11.1476 12.5606 11.1476 C12.3721 12.3212 12.1364 13.1186 11.7829 13.7994 C11.076 15.207 9.61488 16.0053 7.77674 16.0053 C4.35969 16.0053 2.19163 13.2828 2.19163 9.01148 C2.19163 4.62366 4.26543 1.92417 7.58822 1.92417 C8.9786 1.92417 10.2747 2.34718 10.9817 3.00418 C11.618 3.59049 11.9715 4.31809 12.2307 5.58526 C12.2307 5.58526 14.4695 5.58526 14.4695 5.58526 Z" />
 </g>
 <g transform="translate(124.075, 42.9059)" style="fill:#161413; fill-rule:evenodd; stroke:none; stroke-width:1.66587; stroke-linecap:butt; stroke-linejoin:miter; stroke-dasharray:none;" >
  <path d="M11.0288 9.31705 C11.0288 9.31705 11.0288 17.1082 11.0288 17.1082 C11.0288 17.1082 13.2205 17.1082 13.2205 17.1082 C13.2205 17.1082 13.2205 0 13.2205 0 C13.2205 0 11.0288 0 11.0288 0 C11.0288 0 11.0288 7.39297 11.0288 7.39297 C11.0288 7.39297 2.19163 7.39297 2.19163 7.39297 C2.19163 7.39297 2.19163 0 2.19163 0 C2.19163 0 0 0 0 0 C0 0 0 17.1082 0 17.1082 C0 17.1082 2.21519 17.1082 2.21519 17.1082 C2.21519 17.1082 2.21519 9.31705 2.21519 9.31705 C2.21519 9.31705 11.0288 9.31705 11.0288 9.31705 Z" />
 </g>
 <g transform="translate(139.622, 51.9356)" style="fill:#161413; fill-rule:evenodd; stroke:none; stroke-width:1.66587; stroke-linecap:butt; stroke-linejoin:miter; stroke-dasharray:none;" >
  <path d="M3.34046 6.75885 C3.34046 6.75885 3.53488 6.75885 3.53488 6.75885 C3.53488 6.75885 4.18884 6.74066 4.18884 6.74066 C5.90325 6.74066 6.78698 7.5151 6.78698 9.01148 C6.78698 10.5776 5.81488 11.5105 4.18884 11.5105 C2.49209 11.5105 1.6614 10.6664 1.55535 8.85297 C1.55535 8.85297 0 8.85297 0 8.85297 C0.0706977 9.85661 0.247442 10.5078 0.547907 11.0703 C1.18419 12.2677 2.4214 12.8837 4.13581 12.8837 C6.71628 12.8837 8.37767 11.352 8.37767 8.99329 C8.37767 7.41009 7.75907 6.52965 6.25674 6.01883 C7.42325 5.5614 8.00651 4.68194 8.00651 3.43189 C8.00651 1.28438 6.57488 0 4.18884 0 C1.6614 0 0.318139 1.37219 0.265116 4.03071 C0.265116 4.03071 1.82046 4.03071 1.82046 4.03071 C1.83814 3.27338 1.90884 2.85135 2.10326 2.46364 C2.45674 1.77711 3.23442 1.35498 4.20651 1.35498 C5.58512 1.35498 6.41581 2.16472 6.41581 3.48449 C6.41581 4.36483 6.09767 4.89296 5.40837 5.17467 C4.98419 5.35039 4.43628 5.42099 3.34046 5.4382 C3.34046 5.4382 3.34046 6.75885 3.34046 6.75885 Z" />
 </g>
 <g transform="translate(89.4702, 55.3694)" style="fill:#161413; fill-rule:nonzero; stroke:none; stroke-width:1.66587; stroke-linecap:butt; stroke-linejoin:miter; stroke-dasharray:none;" >
  <path d="M14.6295 0 C14.6295 0 15.4651 1.46674 15.4651 1.46674 C15.4651 1.46674 0.834232 9.82699 0.834232 9.82699 C0.834232 9.82699 0 8.40894 0 8.40894 C0 8.40894 14.6295 0 14.6295 0 Z" />
 </g>
 <g transform="translate(72.4363, 100.805)" style="fill:#161413; fill-rule:evenodd; stroke:none; stroke-width:1.66587; stroke-linecap:butt; stroke-linejoin:miter; stroke-dasharray:none;" >
  <path d="M14.4689 5.58536 C13.7861 1.8305 11.6181 0 7.84675 0 C5.53769 0 3.67647 0.727505 2.40303 2.13558 C0.847685 3.82527 0 6.26593 0 9.03514 C0 11.8513 0.871643 14.2685 2.49798 15.9347 C3.81738 17.2958 5.51373 17.9295 7.75278 17.9295 C11.9479 17.9295 14.3039 15.6766 14.8226 11.1472 C14.8226 11.1472 12.5606 11.1472 12.5606 11.1472 C12.3718 12.3206 12.1358 13.1186 11.7829 13.7991 C11.0753 15.2072 9.61488 16.0051 7.77674 16.0051 C4.3592 16.0051 2.19114 13.2828 2.19114 9.01167 C2.19114 4.62318 4.26523 1.92437 7.58782 1.92437 C8.97821 1.92437 10.2746 2.34679 10.9813 3.00389 C11.6181 3.59059 11.971 4.31809 12.2308 5.58536 C12.2308 5.58536 14.4689 5.58536 14.4689 5.58536 Z" />
 </g>
 <g transform="translate(90.4444, 101.087)" style="fill:#161413; fill-rule:evenodd; stroke:none; stroke-width:1.66587; stroke-linecap:butt; stroke-linejoin:miter; stroke-dasharray:none;" >
  <path d="M11.0286 9.31675 C11.0286 9.31675 11.0286 17.1081 11.0286 17.1081 C11.0286 17.1081 13.2203 17.1081 13.2203 17.1081 C13.2203 17.1081 13.2203 0 13.2203 0 C13.2203 0 11.0286 0 11.0286 0 C11.0286 0 11.0286 7.39239 11.0286 7.39239 C11.0286 7.39239 2.19104 7.39239 2.19104 7.39239 C2.19104 7.39239 2.19104 0 2.19104 0 C2.19104 0 0 0 0 0 C0 0 0 17.1081 0 17.1081 C0 17.1081 2.215 17.1081 2.215 17.1081 C2.215 17.1081 2.215 9.31675 2.215 9.31675 C2.215 9.31675 11.0286 9.31675 11.0286 9.31675 Z" />
 </g>
 <g transform="translate(105.992, 110.116)" style="fill:#161413; fill-rule:evenodd; stroke:none; stroke-width:1.66587; stroke-linecap:butt; stroke-linejoin:miter; stroke-dasharray:none;" >
  <path d="M3.34046 6.75875 C3.34046 6.75875 3.53488 6.75875 3.53488 6.75875 C3.53488 6.75875 4.18884 6.74115 4.18884 6.74115 C5.90325 6.74115 6.78698 7.51559 6.78698 9.01167 C6.78698 10.5782 5.81488 11.511 4.18884 11.511 C2.49209 11.511 1.6614 10.6662 1.55535 8.85326 C1.55535 8.85326 0 8.85326 0 8.85326 C0.0706977 9.85652 0.247442 10.5077 0.547907 11.071 C1.18419 12.2678 2.4214 12.8839 4.13581 12.8839 C6.71628 12.8839 8.37767 11.3526 8.37767 8.99407 C8.37767 7.40999 7.75907 6.52994 6.25674 6.01951 C7.42325 5.56189 8.00651 4.68184 8.00651 3.43218 C8.00651 1.28487 6.57488 0 4.18884 0 C1.6614 0 0.318139 1.37287 0.265116 4.03061 C0.265116 4.03061 1.82046 4.03061 1.82046 4.03061 C1.83814 3.27377 1.90884 2.85135 2.10326 2.46413 C2.45674 1.77769 3.23442 1.35527 4.20651 1.35527 C5.58512 1.35527 6.41581 2.16491 6.41581 3.48498 C6.41581 4.36503 6.09767 4.89306 5.40837 5.17467 C4.98419 5.35068 4.43628 5.42108 3.34046 5.43868 C3.34046 5.43868 3.34046 6.75875 3.34046 6.75875 Z" />
 </g>
 <g transform="translate(79.0124, 81.6725)" style="fill:#161413; fill-rule:nonzero; stroke:none; stroke-width:1.66587; stroke-linecap:butt; stroke-linejoin:miter; stroke-dasharray:none;" >
  <path d="M1.66945 17.2591 C1.66945 17.2591 0 17.2591 0 17.2591 C0 17.2591 0 0 0 0 C0 0 1.66945 0 1.66945 0 C1.66945 0 1.66945 17.2591 1.66945 17.2591 Z" />
 </g>
</svg>
