<?xml version="1.0" encoding="UTF-8" standalone="no"?>
<svg
   xmlns:cdml="http://www.freesoftware.fsf.org/bkchem/cdml"
   xmlns:dc="http://purl.org/dc/elements/1.1/"
   xmlns:cc="http://creativecommons.org/ns#"
   xmlns:rdf="http://www.w3.org/1999/02/22-rdf-syntax-ns#"
   xmlns:svg="http://www.w3.org/2000/svg"
   xmlns="http://www.w3.org/2000/svg"
   xmlns:sodipodi="http://sodipodi.sourceforge.net/DTD/sodipodi-0.dtd"
   xmlns:inkscape="http://www.inkscape.org/namespaces/inkscape"
   height="50.28320mm"
   version="1.0"
   viewBox="0 0 293 190"
   width="77.54199mm"
   id="svg3047"
   inkscape:version="0.48.1 "
   sodipodi:docname="DMPU.svg">
  <metadata
     id="metadata3107">
    <rdf:RDF>
      <cc:Work
         rdf:about="">
        <dc:format>image/svg+xml</dc:format>
        <dc:type
           rdf:resource="http://purl.org/dc/dcmitype/StillImage" />
        <dc:title></dc:title>
      </cc:Work>
    </rdf:RDF>
  </metadata>
  <defs
     id="defs3105" />
  <sodipodi:namedview
     pagecolor="#ffffff"
     bordercolor="#666666"
     borderopacity="1"
     objecttolerance="10"
     gridtolerance="10"
     guidetolerance="10"
     inkscape:pageopacity="0"
     inkscape:pageshadow="2"
     inkscape:window-width="640"
     inkscape:window-height="480"
     id="namedview3103"
     showgrid="false"
     inkscape:zoom="1.4761281"
     inkscape:cx="137.37755"
     inkscape:cy="89.084412"
     inkscape:window-x="0"
     inkscape:window-y="0"
     inkscape:window-maximized="0"
     inkscape:current-layer="svg3047" />
  <g
     font-family="Helvetica"
     font-size="12pt"
     stroke-linecap="round"
     transform="translate(-228,-108)"
     id="g3049">
    <g
       stroke="#000000"
       stroke-linecap="butt"
       stroke-width="2.26715867159"
       id="g3051">
      <path
         style=""
         d="m 435,202.92 18,-10.4"
         id="line3053" />
    </g>
    <g
       stroke="#000000"
       stroke-linecap="butt"
       stroke-width="2.26715867159"
       id="g3055">
      <path
         style=""
         d="m 316,203.28999 -18,-10.39"
         id="line3057" />
    </g>
    <g
       stroke="#000000"
       stroke-width="2.26715867159"
       id="g3059">
      <path
         style=""
         d="m 372.17001,184.58 0,-39.58"
         id="line3061" />
      <path
         style=""
         d="m 378.17001,184.58 0,-39.58"
         id="line3063" />
    </g>
    <g
       stroke="#000000"
       stroke-width="2.26715867159"
       id="g3065">
      <path
         style=""
         d="M 408,203.5 375.17001,184.58"
         id="line3067" />
    </g>
    <g
       stroke="#000000"
       stroke-width="2.26715867159"
       id="g3069">
      <path
         style=""
         d="M 421,263.89999 421,224"
         id="line3071" />
    </g>
    <g
       stroke="#000000"
       stroke-width="2.26715867159"
       id="g3073">
      <path
         style=""
         d="M 375.17001,184.58 343,203.13"
         id="line3075" />
    </g>
    <g
       stroke="#000000"
       stroke-width="2.26715867159"
       id="g3077">
      <path
         style=""
         d="m 329.34,224 0,39.89999"
         id="line3079" />
    </g>
    <g
       stroke="#000000"
       stroke-width="2.26715867159"
       id="g3081">
      <path
         style=""
         d="M 375.17001,290.32999 421,263.89999"
         id="line3083" />
    </g>
    <g
       stroke="#000000"
       stroke-width="2.26715867159"
       id="g3085">
      <path
         style=""
         d="m 329.34,263.89999 45.83001,26.43"
         id="line3087" />
    </g>
    <g
       style="font-size:30px;fill:#000000;font-family:helvetica"
       id="text3089">
      <path
         d="m 363.75018,128.22101 c 0,-3.56444 0.95703,-6.35497 2.8711,-8.37158 1.91405,-2.01658 4.38475,-3.02488 7.41211,-3.02491 1.9824,3e-5 3.76951,0.47366 5.36132,1.4209 1.59178,0.94729 2.80516,2.26809 3.64014,3.9624 0.83494,1.69436 1.25242,3.61574 1.25244,5.76416 -2e-5,2.17775 -0.43947,4.12599 -1.31836,5.84473 -0.87892,1.71875 -2.12404,3.02002 -3.73535,3.90381 -1.61134,0.88379 -3.34962,1.32568 -5.21484,1.32568 -2.0215,0 -3.82814,-0.48828 -5.41992,-1.46484 -1.59181,-0.97656 -2.79786,-2.30957 -3.61817,-3.99902 -0.82031,-1.68945 -1.23047,-3.47656 -1.23047,-5.36133 z m 2.92969,0.0439 c 0,2.5879 0.6958,4.62647 2.0874,6.11573 1.3916,1.48926 3.1372,2.23389 5.23682,2.23388 2.13866,10e-6 3.89891,-0.75195 5.28076,-2.25586 1.38182,-1.5039 2.07274,-3.63768 2.07275,-6.40136 -10e-6,-1.74804 -0.29542,-3.27392 -0.88623,-4.57764 -0.59083,-1.30369 -1.45509,-2.31444 -2.59277,-3.03223 -1.13771,-0.71775 -2.41456,-1.07664 -3.83057,-1.07666 -2.01172,2e-5 -3.74268,0.69094 -5.19287,2.07276 -1.4502,1.38185 -2.17529,3.68898 -2.17529,6.92138 z"
         style="font-size:30px;fill:#000000;font-family:helvetica"
         id="path3120" />
    </g>
    <g
       style="font-size:30px;fill:#000000;font-family:helvetica"
       id="text3091">
      <path
         d="m 471.93671,184.02071 2.84179,0.71777 c -0.59572,2.33399 -1.6675,4.11377 -3.21533,5.33936 -1.54787,1.22558 -3.43995,1.83837 -5.67627,1.83837 -2.31446,0 -4.19678,-0.47119 -5.64697,-1.41357 -1.4502,-0.94238 -2.55372,-2.30713 -3.31055,-4.09424 -0.75684,-1.7871 -1.13525,-3.70604 -1.13525,-5.75683 0,-2.23632 0.42724,-4.187 1.28174,-5.85206 0.85449,-1.66502 2.0703,-2.92966 3.64746,-3.79394 1.57714,-0.86424 3.31298,-1.29637 5.20752,-1.29639 2.14842,2e-5 3.95506,0.5469 5.41992,1.64063 1.46482,1.09377 2.48533,2.63185 3.06152,4.61426 l -2.79785,0.65918 c -0.49806,-1.56249 -1.22072,-2.70018 -2.16797,-3.41309 -0.94728,-0.71287 -2.13868,-1.06932 -3.57422,-1.06934 -1.6504,2e-5 -3.02979,0.39553 -4.13818,1.18653 -1.1084,0.79103 -1.88721,1.85304 -2.33643,3.18603 -0.44922,1.33302 -0.67383,2.70753 -0.67382,4.12354 -10e-6,1.82618 0.2661,3.42041 0.79834,4.78271 0.53222,1.36231 1.35985,2.38038 2.48291,3.0542 1.12303,0.67383 2.33885,1.01075 3.64746,1.01074 1.59178,1e-5 2.93944,-0.45898 4.04297,-1.37695 1.10349,-0.91796 1.85056,-2.28027 2.24121,-4.08691 z"
         style="font-size:30px;fill:#000000;font-family:helvetica"
         id="path3123" />
      <path
         d="m 478.38202,191.55 0,-21.47461 2.8418,0 0,8.81836 11.16211,0 0,-8.81836 2.84179,0 0,21.47461 -2.84179,0 0,-10.12207 -11.16211,0 0,10.12207 z"
         style="font-size:30px;fill:#000000;font-family:helvetica"
         id="path3125" />
      <path
         d="m 498.60419,193.29829 1.97754,-0.26367 c 0.22704,1.12061 0.6134,1.92811 1.15905,2.42249 0.54565,0.49438 1.21033,0.74158 1.99402,0.74157 0.93017,1e-5 1.71569,-0.32226 2.35657,-0.96679 0.64086,-0.64453 0.96129,-1.44287 0.9613,-2.39502 -10e-6,-0.9082 -0.29664,-1.6571 -0.88989,-2.24671 -0.59327,-0.58959 -1.34766,-0.88439 -2.26318,-0.8844 -0.37354,1e-5 -0.83863,0.0733 -1.39527,0.21973 l 0.21973,-1.73584 c 0.13183,0.0147 0.23803,0.022 0.3186,0.022 0.84228,1e-5 1.60034,-0.21971 2.27417,-0.65918 0.67382,-0.43944 1.01074,-1.11693 1.01075,-2.03247 -1e-5,-0.72508 -0.24537,-1.32567 -0.73609,-1.80175 -0.49073,-0.47606 -1.12427,-0.7141 -1.90063,-0.71412 -0.76905,2e-5 -1.40992,0.24172 -1.92261,0.7251 -0.5127,0.48341 -0.84229,1.20851 -0.98877,2.1753 l -1.97754,-0.35157 c 0.2417,-1.32567 0.79101,-2.35289 1.64795,-3.08166 0.85693,-0.72875 1.9226,-1.09313 3.19702,-1.09314 0.8789,1e-5 1.68823,0.18861 2.42798,0.56579 0.73974,0.37722 1.30553,0.89174 1.69739,1.54358 0.39183,0.65187 0.58776,1.34401 0.58777,2.07642 -10e-6,0.69581 -0.18678,1.32936 -0.56031,1.90063 -0.37354,0.5713 -0.92652,1.0254 -1.65893,1.36231 0.95214,0.21973 1.69188,0.67567 2.21924,1.3678 0.52733,0.69214 0.791,1.55823 0.79101,2.59826 -10e-6,1.40626 -0.5127,2.59827 -1.53808,3.57605 -1.0254,0.97779 -2.32179,1.46668 -3.88916,1.46668 -1.41358,0 -2.58729,-0.42114 -3.52112,-1.26343 -0.93384,-0.84228 -1.46668,-1.93359 -1.59851,-3.27393 z"
         style="font-size:75%;baseline-shift:sub"
         id="path3127" />
    </g>
    <g
       style="font-size:30px;fill:#000000;font-family:helvetica"
       id="text3095">
      <path
         d="m 236.70235,191.55 0,-21.47461 2.84179,0 0,8.81836 11.16211,0 0,-8.81836 2.8418,0 0,21.47461 -2.8418,0 0,-10.12207 -11.16211,0 0,10.12207 z"
         style="font-size:30px;fill:#000000;font-family:helvetica"
         id="path3130" />
      <path
         d="m 256.92451,193.29829 1.97754,-0.26367 c 0.22705,1.12061 0.6134,1.92811 1.15906,2.42249 0.54565,0.49438 1.21032,0.74158 1.99402,0.74157 0.93017,1e-5 1.71569,-0.32226 2.35657,-0.96679 0.64086,-0.64453 0.96129,-1.44287 0.9613,-2.39502 -10e-6,-0.9082 -0.29664,-1.6571 -0.88989,-2.24671 -0.59327,-0.58959 -1.34766,-0.88439 -2.26319,-0.8844 -0.37354,1e-5 -0.83862,0.0733 -1.39526,0.21973 l 0.21973,-1.73584 c 0.13183,0.0147 0.23803,0.022 0.3186,0.022 0.84228,1e-5 1.60034,-0.21971 2.27417,-0.65918 0.67382,-0.43944 1.01073,-1.11693 1.01074,-2.03247 -10e-6,-0.72508 -0.24537,-1.32567 -0.73608,-1.80175 -0.49073,-0.47606 -1.12427,-0.7141 -1.90064,-0.71412 -0.76904,2e-5 -1.40991,0.24172 -1.9226,0.7251 -0.5127,0.48341 -0.84229,1.20851 -0.98877,2.1753 l -1.97754,-0.35157 c 0.2417,-1.32567 0.79101,-2.35289 1.64795,-3.08166 0.85693,-0.72875 1.9226,-1.09313 3.19702,-1.09314 0.8789,1e-5 1.68822,0.18861 2.42798,0.56579 0.73973,0.37722 1.30553,0.89174 1.69739,1.54358 0.39183,0.65187 0.58775,1.34401 0.58776,2.07642 -10e-6,0.69581 -0.18677,1.32936 -0.5603,1.90063 -0.37354,0.5713 -0.92652,1.0254 -1.65893,1.36231 0.95213,0.21973 1.69188,0.67567 2.21923,1.3678 0.52734,0.69214 0.79101,1.55823 0.79102,2.59826 -10e-6,1.40626 -0.51271,2.59827 -1.53809,3.57605 -1.0254,0.97779 -2.32178,1.46668 -3.88916,1.46668 -1.41358,0 -2.58728,-0.42114 -3.52111,-1.26343 -0.93384,-0.84228 -1.46668,-1.93359 -1.59852,-3.27393 z"
         style="font-size:75%;baseline-shift:sub"
         id="path3132" />
      <path
         d="m 286.14082,184.02071 2.8418,0.71777 c -0.59572,2.33399 -1.6675,4.11377 -3.21533,5.33936 -1.54787,1.22558 -3.43996,1.83837 -5.67627,1.83837 -2.31446,0 -4.19679,-0.47119 -5.64697,-1.41357 -1.4502,-0.94238 -2.55372,-2.30713 -3.31055,-4.09424 -0.75684,-1.7871 -1.13526,-3.70604 -1.13525,-5.75683 -10e-6,-2.23632 0.42724,-4.187 1.28173,-5.85206 0.85449,-1.66502 2.07031,-2.92966 3.64746,-3.79394 1.57714,-0.86424 3.31298,-1.29637 5.20752,-1.29639 2.14843,2e-5 3.95507,0.5469 5.41993,1.64063 1.46482,1.09377 2.48533,2.63185 3.06152,4.61426 l -2.79785,0.65918 c -0.49807,-1.56249 -1.22072,-2.70018 -2.16797,-3.41309 -0.94728,-0.71287 -2.13869,-1.06932 -3.57422,-1.06934 -1.6504,2e-5 -3.02979,0.39553 -4.13818,1.18653 -1.10841,0.79103 -1.88722,1.85304 -2.33643,3.18603 -0.44922,1.33302 -0.67383,2.70753 -0.67383,4.12354 0,1.82618 0.26611,3.42041 0.79834,4.78271 0.53222,1.36231 1.35986,2.38038 2.48291,3.0542 1.12304,0.67383 2.33886,1.01075 3.64746,1.01074 1.59179,1e-5 2.93944,-0.45898 4.04297,-1.37695 1.1035,-0.91796 1.85057,-2.28027 2.24121,-4.08691 z"
         style="font-size:30px;fill:#000000;font-family:helvetica"
         id="path3134" />
    </g>
    <g
       style="font-size:30px;fill:#000000;font-family:helvetica"
       id="text3099">
      <path
         d="m 319.58514,218 0,-21.47461 2.91504,0 11.2793,16.86035 0,-16.86035 2.72461,0 0,21.47461 -2.91504,0 -11.2793,-16.875 0,16.875 z"
         style="font-size:30px;fill:#000000;font-family:helvetica"
         id="path3137" />
    </g>
    <g
       style="font-size:30px;fill:#000000;font-family:helvetica"
       id="text3101">
      <path
         d="m 411.58514,218 0,-21.47461 2.91504,0 11.2793,16.86035 0,-16.86035 2.72461,0 0,21.47461 -2.91504,0 -11.2793,-16.875 0,16.875 z"
         style="font-size:30px;fill:#000000;font-family:helvetica"
         id="path3140" />
    </g>
  </g>
  <cdml:cdml
     version="0.15">
    <cdml:info>
      <cdml:author_program
         version="0.13.0">BKchem</cdml:author_program>
    </cdml:info>
    <cdml:paper
       crop_margin="5"
       crop_svg="1"
       orientation="portrait"
       replace_minus="0"
       type="Legal"
       use_real_minus="0" />
    <cdml:viewport
       viewport="0.000000 0.000000 640.000000 480.000000" />
    <cdml:standard
       area_color=""
       font_family="helvetica"
       font_size="24"
       line_color="#000"
       line_width="0.06cm"
       paper_crop_margin="5"
       paper_crop_svg="1"
       paper_orientation="portrait"
       paper_type="Legal">
      <cdml:bond
         double-ratio="0.85"
         length="1.4cm"
         wedge-width="0.18cm"
         width="0.21cm" />
      <cdml:arrow
         length="1.6cm" />
      <cdml:atom
         show_hydrogens="0" />
    </cdml:standard>
    <cdml:molecule
       id="molecule70849"
       name="">
      <cdml:atom
         id="atom50555"
         name="C"
         valency="4">
        <cdml:point
           x="9.929cm"
           y="7.683cm" />
      </cdml:atom>
      <cdml:atom
         id="atom45631"
         name="C"
         valency="4">
        <cdml:point
           x="11.142cm"
           y="6.984cm" />
      </cdml:atom>
      <cdml:atom
         id="atom19678"
         name="C"
         valency="4">
        <cdml:point
           x="9.929cm"
           y="4.885cm" />
      </cdml:atom>
      <cdml:atom
         id="atom85466"
         name="C"
         valency="4">
        <cdml:point
           x="8.716cm"
           y="6.984cm" />
      </cdml:atom>
      <cdml:atom
         id="atom83023"
         name="O"
         pos="center-first"
         valency="2">
        <cdml:point
           x="9.929cm"
           y="3.485cm" />
      </cdml:atom>
      <cdml:atom
         hydrogens="on"
         id="atom97240"
         name="C"
         pos="center-first"
         show="yes"
         valency="4">
        <cdml:point
           x="12.354cm"
           y="4.884cm" />
      </cdml:atom>
      <cdml:atom
         hydrogens="on"
         id="atom567"
         name="C"
         pos="center-last"
         show="yes"
         valency="4">
        <cdml:point
           x="7.504cm"
           y="4.884cm" />
      </cdml:atom>
      <cdml:atom
         id="atom78252"
         name="N"
         pos="center-first"
         valency="3">
        <cdml:point
           x="8.716cm"
           y="5.584cm" />
      </cdml:atom>
      <cdml:atom
         id="atom62261"
         name="N"
         pos="center-first"
         valency="3">
        <cdml:point
           x="11.142cm"
           y="5.584cm" />
      </cdml:atom>
      <cdml:bond
         double_ratio="0.85"
         end="atom97240"
         id="bond43943"
         line_width="2.26715867159"
         start="atom62261"
         type="n1" />
      <cdml:bond
         double_ratio="0.85"
         end="atom567"
         id="bond67448"
         line_width="2.26715867159"
         start="atom78252"
         type="n1" />
      <cdml:bond
         bond_width="7.93505535055"
         center="yes"
         double_ratio="0.85"
         end="atom83023"
         id="bond49130"
         line_width="2.26715867159"
         start="atom19678"
         type="n2" />
      <cdml:bond
         double_ratio="0.85"
         end="atom19678"
         id="bond46173"
         line_width="2.26715867159"
         start="atom62261"
         type="n1" />
      <cdml:bond
         double_ratio="0.85"
         end="atom62261"
         id="bond69943"
         line_width="2.26715867159"
         start="atom45631"
         type="n1" />
      <cdml:bond
         double_ratio="0.85"
         end="atom78252"
         id="bond22687"
         line_width="2.26715867159"
         start="atom19678"
         type="n1" />
      <cdml:bond
         double_ratio="0.85"
         end="atom85466"
         id="bond92315"
         line_width="2.26715867159"
         start="atom78252"
         type="n1" />
      <cdml:bond
         double_ratio="0.85"
         end="atom45631"
         id="bond76353"
         line_width="2.26715867159"
         start="atom50555"
         type="n1" />
      <cdml:bond
         double_ratio="0.85"
         end="atom50555"
         id="bond36502"
         line_width="2.26715867159"
         start="atom85466"
         type="n1" />
    </cdml:molecule>
  </cdml:cdml>
</svg>
