<?xml version="1.0" encoding="UTF-8" standalone="no"?>
<!-- Generator: Adobe Illustrator 12.0.1, SVG Export Plug-In . SVG Version: 6.00 Build 51448)  -->
<svg
   xmlns:dc="http://purl.org/dc/elements/1.1/"
   xmlns:cc="http://web.resource.org/cc/"
   xmlns:rdf="http://www.w3.org/1999/02/22-rdf-syntax-ns#"
   xmlns:svg="http://www.w3.org/2000/svg"
   xmlns="http://www.w3.org/2000/svg"
   xmlns:sodipodi="http://sodipodi.sourceforge.net/DTD/sodipodi-0.dtd"
   xmlns:inkscape="http://www.inkscape.org/namespaces/inkscape"
   version="1.1"
   id="Layer_1"
   width="137.861"
   height="81.753"
   viewBox="0 0 137.861 81.753"
   style="overflow:visible;enable-background:new 0 0 137.861 81.753;"
   xml:space="preserve"
   sodipodi:version="0.32"
   inkscape:version="0.45.1"
   sodipodi:docname="Dimethylsulfoxid.svg"
   inkscape:output_extension="org.inkscape.output.svg.inkscape"
   sodipodi:docbase="C:\"><metadata
   id="metadata44"><rdf:RDF><cc:Work
       rdf:about=""><dc:format>image/svg+xml</dc:format><dc:type
         rdf:resource="http://purl.org/dc/dcmitype/StillImage" /></cc:Work></rdf:RDF></metadata><defs
   id="defs42" /><sodipodi:namedview
   inkscape:window-height="579"
   inkscape:window-width="801"
   inkscape:pageshadow="2"
   inkscape:pageopacity="0.0"
   guidetolerance="10.0"
   gridtolerance="10.0"
   objecttolerance="10.0"
   borderopacity="1.0"
   bordercolor="#666666"
   pagecolor="#ffffff"
   id="base"
   inkscape:zoom="4.6236836"
   inkscape:cx="68.930496"
   inkscape:cy="40.876499"
   inkscape:window-x="88"
   inkscape:window-y="88"
   inkscape:current-layer="Layer_1" />
<g
   id="g3"
   transform="matrix(0.95,0,0,0.95,3.44655,2.04385)">
	<path
   style="fill:#231f20"
   d="M 61.144,9.119 C 61.144,6.266 61.91,4.034 63.442,2.421 C 64.974,0.807 66.952,0 69.375,0 C 70.962,0 72.393,0.379 73.666,1.137 C 74.939,1.896 75.911,2.952 76.58,4.308 C 77.248,5.663 77.582,7.202 77.582,8.92 C 77.582,10.663 77.23,12.222 76.527,13.597 C 75.823,14.972 74.826,16.014 73.537,16.721 C 72.247,17.428 70.856,17.782 69.363,17.782 C 67.745,17.782 66.299,17.391 65.025,16.61 C 63.751,15.829 62.786,14.761 62.129,13.41 C 61.472,12.059 61.144,10.628 61.144,9.119 z M 63.488,9.148 C 63.488,11.218 64.045,12.849 65.159,14.041 C 66.273,15.233 67.671,15.828 69.351,15.828 C 71.063,15.828 72.472,15.226 73.579,14.023 C 74.686,12.82 75.238,11.113 75.238,8.902 C 75.238,7.504 75.002,6.283 74.529,5.24 C 74.055,4.197 73.363,3.388 72.453,2.814 C 71.542,2.24 70.52,1.953 69.387,1.953 C 67.777,1.953 66.391,2.506 65.23,3.611 C 64.069,4.716 63.488,6.563 63.488,9.148 z "
   id="path5" />
</g>
<g
   id="g7"
   transform="matrix(0.95,0,0,0.95,3.44655,2.04385)">
	<path
   style="fill:#231f20"
   d="M 62.381,51.669 L 64.522,51.481 C 64.624,52.342 64.86,53.048 65.231,53.6 C 65.602,54.152 66.179,54.599 66.96,54.939 C 67.741,55.28 68.621,55.45 69.598,55.45 C 70.466,55.45 71.232,55.321 71.896,55.062 C 72.56,54.804 73.054,54.45 73.379,53.999 C 73.703,53.549 73.865,53.058 73.865,52.525 C 73.865,51.985 73.707,51.513 73.39,51.11 C 73.073,50.708 72.555,50.369 71.836,50.094 C 71.375,49.914 70.354,49.634 68.774,49.254 C 67.194,48.875 66.088,48.517 65.456,48.181 C 64.636,47.75 64.025,47.217 63.623,46.579 C 63.221,45.941 63.02,45.228 63.02,44.437 C 63.02,43.57 63.266,42.758 63.759,42.003 C 64.251,41.248 64.971,40.675 65.917,40.284 C 66.863,39.892 67.915,39.697 69.072,39.697 C 70.346,39.697 71.47,39.903 72.444,40.313 C 73.418,40.724 74.167,41.329 74.69,42.126 C 75.214,42.924 75.496,43.828 75.535,44.837 L 73.347,45.009 C 73.23,43.916 72.832,43.092 72.157,42.533 C 71.48,41.975 70.481,41.696 69.16,41.696 C 67.784,41.696 66.78,41.949 66.151,42.454 C 65.521,42.959 65.207,43.567 65.207,44.279 C 65.207,44.898 65.43,45.407 65.876,45.805 C 66.314,46.204 67.457,46.614 69.307,47.033 C 71.157,47.452 72.425,47.818 73.115,48.131 C 74.117,48.592 74.857,49.176 75.335,49.884 C 75.813,50.592 76.052,51.406 76.052,52.329 C 76.052,53.244 75.79,54.105 75.267,54.915 C 74.744,55.725 73.993,56.353 73.012,56.803 C 72.032,57.253 70.928,57.478 69.702,57.478 C 68.147,57.478 66.845,57.251 65.795,56.798 C 64.744,56.345 63.92,55.663 63.323,54.753 C 62.727,53.847 62.413,52.817 62.381,51.669 z "
   id="path9" />
</g>
<path
   style="fill:#231f20"
   d="M 71.360149,21.12365 L 72.974199,21.12365 L 72.974199,37.60615 L 71.360149,37.60615 L 71.360149,21.12365 z "
   id="rect11" />
<path
   style="fill:#231f20"
   d="M 65.707652,21.12365 L 67.322652,21.12365 L 67.322652,37.60615 L 65.707652,37.60615 L 65.707652,21.12365 z "
   id="rect13" />
<g
   id="g15"
   transform="matrix(0.95,0,0,0.95,3.44655,2.04385)">
	<path
   style="fill:#231f20"
   d="M 109.181,71.007 L 111.462,71.581 C 110.986,73.451 110.13,74.877 108.894,75.858 C 107.656,76.839 106.144,77.331 104.357,77.331 C 102.507,77.331 101.003,76.954 99.843,76.199 C 98.685,75.445 97.802,74.351 97.198,72.921 C 96.593,71.49 96.29,69.953 96.29,68.312 C 96.29,66.522 96.632,64.959 97.314,63.626 C 97.996,62.293 98.967,61.279 100.229,60.588 C 101.489,59.897 102.875,59.55 104.389,59.55 C 106.106,59.55 107.549,59.988 108.719,60.864 C 109.889,61.741 110.704,62.972 111.164,64.561 L 108.93,65.088 C 108.533,63.838 107.955,62.928 107.2,62.358 C 106.442,61.788 105.491,61.503 104.345,61.503 C 103.027,61.503 101.925,61.819 101.038,62.452 C 100.153,63.085 99.531,63.934 99.173,65.001 C 98.814,66.067 98.634,67.167 98.634,68.3 C 98.634,69.761 98.847,71.036 99.272,72.126 C 99.697,73.216 100.357,74.03 101.253,74.569 C 102.149,75.108 103.12,75.378 104.165,75.378 C 105.436,75.378 106.511,75.011 107.392,74.276 C 108.273,73.541 108.87,72.452 109.181,71.007 z "
   id="path17" />
	<path
   style="fill:#231f20"
   d="M 114.357,77.034 L 114.357,59.847 L 116.638,59.847 L 116.638,66.91 L 125.529,66.91 L 125.529,59.847 L 127.81,59.847 L 127.81,77.035 L 125.529,77.035 L 125.529,68.94 L 116.638,68.94 L 116.638,77.034 L 114.357,77.034 L 114.357,77.034 z "
   id="path19" />
</g>
<g
   id="g21"
   transform="matrix(0.95,0,0,0.95,3.44655,2.04385)">
	<path
   style="fill:#231f20"
   d="M 129.408,78.128 L 130.986,77.909 C 131.169,78.805 131.478,79.451 131.914,79.847 C 132.351,80.242 132.887,80.44 133.521,80.44 C 134.274,80.44 134.908,80.182 135.419,79.668 C 135.933,79.152 136.189,78.514 136.189,77.752 C 136.189,77.026 135.951,76.428 135.473,75.956 C 134.996,75.484 134.39,75.249 133.654,75.249 C 133.353,75.249 132.979,75.308 132.532,75.425 L 132.709,74.034 C 132.814,74.046 132.9,74.052 132.965,74.052 C 133.639,74.052 134.246,73.877 134.786,73.526 C 135.326,73.175 135.596,72.634 135.596,71.903 C 135.596,71.324 135.399,70.844 135.005,70.465 C 134.611,70.086 134.103,69.895 133.48,69.895 C 132.863,69.895 132.348,70.089 131.936,70.477 C 131.525,70.865 131.26,71.447 131.143,72.223 L 129.565,71.942 C 129.758,70.88 130.199,70.057 130.885,69.474 C 131.571,68.89 132.424,68.598 133.446,68.598 C 134.15,68.598 134.799,68.748 135.391,69.05 C 135.983,69.351 136.436,69.762 136.75,70.282 C 137.063,70.803 137.221,71.355 137.221,71.94 C 137.221,72.496 137.072,73.002 136.773,73.458 C 136.474,73.914 136.032,74.276 135.446,74.546 C 136.208,74.722 136.8,75.087 137.225,75.64 C 137.649,76.195 137.862,76.887 137.862,77.719 C 137.862,78.845 137.451,79.798 136.63,80.58 C 135.808,81.362 134.769,81.754 133.513,81.754 C 132.38,81.754 131.439,81.417 130.691,80.745 C 129.94,80.07 129.513,79.199 129.408,78.128 z "
   id="path23" />
</g>
<path
   style="fill:#231f20"
   d="M 94.30265,60.88115 L 93.49515,62.2596 L 78.01015,53.32865 L 78.8167,51.90365 L 94.30265,60.88115 z "
   id="polygon25" />
<g
   id="g27"
   transform="matrix(0.95,0,0,0.95,3.44655,2.04385)">
	<path
   style="fill:#231f20"
   d="M 0,77.034 L 0,59.847 L 2.281,59.847 L 2.281,66.91 L 11.172,66.91 L 11.172,59.847 L 13.453,59.847 L 13.453,77.035 L 11.172,77.035 L 11.172,68.94 L 2.281,68.94 L 2.281,77.034 L 0,77.034 L 0,77.034 z "
   id="path29" />
</g>
<g
   id="g31"
   transform="matrix(0.95,0,0,0.95,3.44655,2.04385)">
	<path
   style="fill:#231f20"
   d="M 15.462,78.128 L 17.04,77.909 C 17.223,78.805 17.532,79.451 17.968,79.847 C 18.405,80.242 18.94,80.44 19.575,80.44 C 20.328,80.44 20.961,80.182 21.474,79.668 C 21.987,79.152 22.243,78.514 22.243,77.752 C 22.243,77.026 22.005,76.428 21.527,75.956 C 21.05,75.484 20.444,75.249 19.708,75.249 C 19.407,75.249 19.033,75.308 18.586,75.425 L 18.763,74.034 C 18.869,74.046 18.954,74.052 19.019,74.052 C 19.693,74.052 20.3,73.877 20.84,73.526 C 21.38,73.175 21.65,72.634 21.65,71.903 C 21.65,71.324 21.453,70.844 21.059,70.465 C 20.665,70.085 20.157,69.895 19.534,69.895 C 18.917,69.895 18.402,70.089 17.991,70.477 C 17.58,70.865 17.315,71.447 17.198,72.223 L 15.62,71.942 C 15.813,70.88 16.254,70.057 16.94,69.474 C 17.626,68.89 18.48,68.598 19.501,68.598 C 20.205,68.598 20.854,68.748 21.446,69.05 C 22.038,69.351 22.491,69.762 22.806,70.282 C 23.119,70.803 23.277,71.355 23.277,71.94 C 23.277,72.496 23.128,73.002 22.829,73.458 C 22.53,73.914 22.088,74.276 21.502,74.546 C 22.264,74.722 22.856,75.087 23.281,75.64 C 23.705,76.195 23.918,76.887 23.918,77.719 C 23.918,78.845 23.507,79.798 22.685,80.58 C 21.863,81.362 20.824,81.754 19.568,81.754 C 18.435,81.754 17.494,81.417 16.746,80.745 C 15.994,80.07 15.567,79.199 15.462,78.128 z "
   id="path33" />
</g>
<g
   id="g35"
   transform="matrix(0.95,0,0,0.95,3.44655,2.04385)">
	<path
   style="fill:#231f20"
   d="M 38.039,71.007 L 40.32,71.581 C 39.844,73.451 38.987,74.877 37.751,75.858 C 36.514,76.839 35.001,77.331 33.214,77.331 C 31.364,77.331 29.86,76.954 28.701,76.199 C 27.542,75.445 26.66,74.351 26.055,72.921 C 25.45,71.49 25.148,69.953 25.148,68.312 C 25.148,66.522 25.489,64.959 26.172,63.626 C 26.855,62.293 27.826,61.279 29.087,60.588 C 30.347,59.897 31.733,59.55 33.247,59.55 C 34.964,59.55 36.407,59.988 37.577,60.864 C 38.748,61.741 39.563,62.972 40.023,64.561 L 37.789,65.088 C 37.391,63.838 36.814,62.928 36.058,62.358 C 35.301,61.788 34.349,61.503 33.203,61.503 C 31.885,61.503 30.783,61.819 29.897,62.452 C 29.012,63.085 28.39,63.934 28.031,65.001 C 27.672,66.068 27.493,67.167 27.493,68.3 C 27.493,69.761 27.705,71.036 28.13,72.126 C 28.555,73.216 29.215,74.03 30.112,74.569 C 31.009,75.108 31.979,75.378 33.024,75.378 C 34.295,75.378 35.37,75.011 36.251,74.276 C 37.132,73.541 37.727,72.452 38.039,71.007 z "
   id="path37" />
</g>
<path
   style="fill:#231f20"
   d="M 45.75765,61.97365 L 44.95015,60.54865 L 59.86515,51.95115 L 60.67265,53.32865 L 45.75765,61.97365 z "
   id="polygon39" />
</svg>