<?xml version="1.0" encoding="UTF-8" standalone="no"?>
<!-- Generator: Adobe Illustrator 12.0.1, SVG Export Plug-In . SVG Version: 6.00 Build 51448)  -->
<svg
   xmlns:dc="http://purl.org/dc/elements/1.1/"
   xmlns:cc="http://creativecommons.org/ns#"
   xmlns:rdf="http://www.w3.org/1999/02/22-rdf-syntax-ns#"
   xmlns:svg="http://www.w3.org/2000/svg"
   xmlns="http://www.w3.org/2000/svg"
   xmlns:sodipodi="http://sodipodi.sourceforge.net/DTD/sodipodi-0.dtd"
   xmlns:inkscape="http://www.inkscape.org/namespaces/inkscape"
   version="1.1"
   id="Layer_1"
   width="239.307"
   height="258.131"
   viewBox="0 0 239.307 258.131"
   style="overflow:visible;enable-background:new 0 0 239.307 258.131;"
   xml:space="preserve"
   sodipodi:version="0.32"
   inkscape:version="0.46"
   sodipodi:docname="Desoxythymidin.svg"
   inkscape:output_extension="org.inkscape.output.svg.inkscape"><metadata
   id="metadata94"><rdf:RDF><cc:Work
       rdf:about=""><dc:format>image/svg+xml</dc:format><dc:type
         rdf:resource="http://purl.org/dc/dcmitype/StillImage" /></cc:Work></rdf:RDF></metadata><defs
   id="defs92"><inkscape:perspective
   sodipodi:type="inkscape:persp3d"
   inkscape:vp_x="0 : 129.06551 : 1"
   inkscape:vp_y="0 : 1000 : 0"
   inkscape:vp_z="239.30701 : 129.06551 : 1"
   inkscape:persp3d-origin="119.6535 : 86.043671 : 1"
   id="perspective96" />
	

	
	

	
	

	

	
	

	

	

	

	

	
</defs><sodipodi:namedview
   inkscape:window-height="675"
   inkscape:window-width="661"
   inkscape:pageshadow="2"
   inkscape:pageopacity="0.0"
   guidetolerance="10.0"
   gridtolerance="10.0"
   objecttolerance="10.0"
   borderopacity="1.0"
   bordercolor="#666666"
   pagecolor="#ffffff"
   id="base"
   showgrid="false"
   inkscape:zoom="1.7897888"
   inkscape:cx="119.6535"
   inkscape:cy="129.06551"
   inkscape:window-x="176"
   inkscape:window-y="176"
   inkscape:current-layer="Layer_1" />
<path
   style="fill:#231f20"
   d="M 132.82098,202.2806 L 138.37752,207.1256 L 87.361575,207.1256 L 86.555025,204.7031 L 89.310025,202.2806 L 132.82098,202.2806 z"
   id="polygon3" />
<path
   style="fill:#231f20"
   d="M 61.236575,162.4756 L 62.045975,162.2856 L 63.185025,162.5706 L 89.310025,202.2806 L 86.555025,204.7031 L 85.747525,211.2106 L 61.236575,162.4756 z"
   id="polygon5" />
<path
   style="fill:#231f20"
   d="M 158.89752,162.6181 L 160.03657,162.2856 L 160.84597,162.4756 L 138.37752,207.1256 L 132.82098,202.2806 L 158.89752,162.6181 z"
   id="polygon7" />
<path
   style="fill:#231f20"
   d="M 100.80503,141.8131 L 101.56502,143.2856 L 63.185025,162.5706 L 62.045975,162.2856 L 62.852525,160.9556 L 100.80503,141.8131 z"
   id="polygon9" />
<path
   id="path13"
   d="M 102.85322,138.8054 C 102.85322,136.09505 103.58092,133.97465 105.03632,132.4423 C 106.49173,130.909 108.37082,130.14235 110.67267,130.14235 C 112.18032,130.14235 113.53882,130.5024 114.74912,131.2225 C 115.95942,131.94355 116.88187,132.94675 117.51742,134.23495 C 118.15297,135.52315 118.46932,136.98425 118.46932,138.61635 C 118.46932,140.2722 118.13492,141.75325 117.46707,143.0595 C 116.79922,144.36575 115.85207,145.35565 114.62657,146.0273 C 113.40107,146.69895 112.07962,147.03525 110.66127,147.03525 C 109.12417,147.03525 107.75047,146.6638 106.54017,145.92185 C 105.32987,145.1799 104.41312,144.1653 103.78897,142.88185 C 103.16482,141.5984 102.85322,140.23895 102.85322,138.8054 z M 105.08002,138.8339 C 105.08002,140.8004 105.60917,142.34985 106.66747,143.48225 C 107.72577,144.61465 109.05387,145.1799 110.64987,145.1799 C 112.27627,145.1799 113.61482,144.608 114.66647,143.46515 C 115.71717,142.3223 116.24252,140.70065 116.24252,138.6002 C 116.24252,137.2721 116.01832,136.11215 115.56897,135.1213 C 115.11962,134.13045 114.46222,133.3619 113.59677,132.8166 C 112.73132,132.2713 111.76042,131.99865 110.68407,131.99865 C 109.15457,131.99865 107.83787,132.524 106.73493,133.57375 C 105.63197,134.6235 105.08002,136.3772 105.08002,138.8339 z"
   style="fill:#231f20" />
<path
   style="fill:#231f20"
   d="M 119.85252,143.2381 L 120.56502,141.7656 L 159.23002,160.9556 L 160.03657,162.2856 L 158.89752,162.6181 L 119.85252,143.2381 z"
   id="polygon15" />
<path
   style="fill:#231f20"
   d="M 61.236575,125.0456 L 62.852525,124.0956 L 62.852525,160.9556 L 62.045975,162.2856 L 61.236575,162.4756 L 61.236575,125.0456 z"
   id="polygon17" />
<path
   id="path21"
   d="M 78.723225,243.44885 C 78.723225,240.7385 79.450925,238.6181 80.906325,237.08575 C 82.361725,235.55245 84.240825,234.7858 86.542675,234.7858 C 88.050325,234.7858 89.408825,235.14585 90.619125,235.86595 C 91.829425,236.587 92.751875,237.5902 93.387425,238.8784 C 94.022975,240.1666 94.339325,241.6277 94.339325,243.2598 C 94.339325,244.91565 94.004925,246.3967 93.337075,247.70295 C 92.669225,249.0092 91.722075,249.9991 90.496575,250.67075 C 89.271075,251.3424 87.949625,251.6787 86.531275,251.6787 C 84.994175,251.6787 83.620475,251.30725 82.410175,250.5653 C 81.199875,249.82335 80.283125,248.80875 79.658975,247.5253 C 79.034825,246.24185 78.723225,244.8824 78.723225,243.44885 z M 80.950025,243.4764 C 80.950025,245.4429 81.479175,246.99235 82.537475,248.12475 C 83.595775,249.25715 84.923875,249.8224 86.519875,249.8224 C 88.146275,249.8224 89.484825,249.2505 90.536475,248.10765 C 91.587175,246.9648 92.112525,245.34315 92.112525,243.2427 C 92.112525,241.9146 91.888325,240.75465 91.438975,239.7638 C 90.989625,238.77295 90.332225,238.0044 89.466775,237.4591 C 88.601325,236.9138 87.630425,236.64115 86.554075,236.64115 C 85.024575,236.64115 83.707875,237.1665 82.604925,238.21625 C 81.501975,239.266 80.950025,241.0197 80.950025,243.4764 z"
   style="fill:#231f20" /><path
   id="path23"
   d="M 97.199775,251.3956 L 97.199775,235.067 L 99.366725,235.067 L 99.366725,241.77685 L 107.81317,241.77685 L 107.81317,235.067 L 109.98013,235.067 L 109.98013,251.3956 L 107.81317,251.3956 L 107.81317,243.7063 L 99.366725,243.7063 L 99.366725,251.3956 L 97.199775,251.3956 z"
   style="fill:#231f20" />
<path
   style="fill:#231f20"
   d="M 87.361575,232.6331 L 85.747525,232.6331 L 85.747525,211.2106 L 86.555025,204.7031 L 87.361575,207.1256 L 87.361575,232.6331 z"
   id="polygon25" />
<path
   style="fill:#231f20"
   d="M 159.23002,135.7331 L 160.84597,135.7331 L 160.84597,162.4756 L 160.03657,162.2856 L 159.23002,160.9556 L 159.23002,135.7331 z"
   id="polygon27" />
<path
   id="path31"
   d="M 5.982675,114.7381 L 5.982675,98.41045 L 8.149625,98.41045 L 8.149625,105.1203 L 16.596075,105.1203 L 16.596075,98.41045 L 18.763025,98.41045 L 18.763025,114.73905 L 16.596075,114.73905 L 16.596075,107.04975 L 8.149625,107.04975 L 8.149625,114.73905 L 5.982675,114.73905 L 5.982675,114.7381 z"
   style="fill:#231f20" /><path
   id="path33"
   d="M 21.706125,106.79135 C 21.706125,104.081 22.433825,101.9606 23.889225,100.42825 C 25.344625,98.89495 27.223725,98.1283 29.525575,98.1283 C 31.033225,98.1283 32.391725,98.48835 33.602025,99.20845 C 34.812325,99.9295 35.734775,100.9327 36.370325,102.2209 C 37.005875,103.5091 37.322225,104.9702 37.322225,106.6023 C 37.322225,108.25815 36.987825,109.7392 36.319975,111.04545 C 35.652125,112.3517 34.704975,113.3416 33.479475,114.01325 C 32.253975,114.6849 30.932525,115.0212 29.514175,115.0212 C 27.977075,115.0212 26.603375,114.64975 25.393075,113.9078 C 24.182775,113.16585 23.266025,112.15125 22.641875,110.8678 C 22.017725,109.58435 21.706125,108.2249 21.706125,106.79135 z M 23.932925,106.8189 C 23.932925,108.7854 24.462075,110.33485 25.520375,111.46725 C 26.578675,112.59965 27.906775,113.1649 29.502775,113.1649 C 31.129175,113.1649 32.467725,112.593 33.519375,111.45015 C 34.570075,110.3073 35.095425,108.68565 35.095425,106.5852 C 35.095425,105.2571 34.871225,104.09715 34.421875,103.1063 C 33.972525,102.11545 33.315125,101.3469 32.449675,100.8016 C 31.584225,100.2563 30.613325,99.98365 29.536975,99.98365 C 28.007475,99.98365 26.690775,100.509 25.587825,101.55875 C 24.484875,102.6085 23.932925,104.36315 23.932925,106.8189 z"
   style="fill:#231f20" />
<path
   style="fill:#231f20"
   d="M 38.342525,111.8406 L 39.149075,110.4156 L 62.852525,124.0956 L 61.236575,125.0456 L 38.342525,111.8406 z"
   id="polygon35" />
<path
   id="path39"
   d="M 153.60412,133.5481 L 153.60412,117.2195 L 155.82712,117.2195 L 164.38092,130.03405 L 164.38092,117.2195 L 166.45952,117.2195 L 166.45952,133.5481 L 164.23652,133.5481 L 155.68273,120.73355 L 155.68273,133.5481 L 153.60412,133.5481 L 153.60412,133.5481 z"
   style="fill:#231f20" />
<path
   id="path43"
   d="M 186.28412,76.9281 L 186.28412,60.5995 L 188.50712,60.5995 L 197.06092,73.41405 L 197.06092,60.5995 L 199.13952,60.5995 L 199.13952,76.9281 L 196.91652,76.9281 L 188.36272,64.11355 L 188.36272,76.9281 L 186.28412,76.9281 z"
   style="fill:#231f20" /><path
   id="path45"
   d="M 202.85307,76.9281 L 202.85307,60.5995 L 205.02002,60.5995 L 205.02002,67.30935 L 213.46647,67.30935 L 213.46647,60.5995 L 215.63342,60.5995 L 215.63342,76.9281 L 213.46647,76.9281 L 213.46647,69.2388 L 205.02002,69.2388 L 205.02002,76.9281 L 202.85307,76.9281 z"
   style="fill:#231f20" />
<path
   style="fill:#231f20"
   d="M 128.21157,105.1906 L 126.59752,106.1406 L 126.59752,68.4256 L 127.40502,67.9506 L 128.21157,68.4256 L 128.21157,105.1906 z"
   id="polygon47" />
<path
   style="fill:#231f20"
   d="M 132.24908,71.228098 L 133.86502,71.228098 L 133.86502,102.38905 L 132.24908,102.38905 L 132.24908,71.228098 z"
   id="rect49" />
<path
   style="fill:#231f20"
   d="M 150.63348,118.2056 L 149.82407,119.5831 L 126.59752,106.1406 L 128.21157,105.1906 L 150.63348,118.2056 z"
   id="polygon51" />
<path
   style="fill:#231f20"
   d="M 191.95847,105.1906 L 193.57252,106.1406 L 170.24907,119.6306 L 169.44252,118.2056 L 191.95847,105.1906 z"
   id="polygon53" />
<path
   style="fill:#231f20"
   d="M 191.95847,79.0656 L 193.57252,79.0656 L 193.57252,106.1406 L 191.95847,105.1906 L 191.95847,79.0656 z"
   id="polygon55" />
<path
   style="fill:#231f20"
   d="M 160.03657,50.0431 L 160.03657,48.1906 L 183.36002,61.5856 L 182.55252,63.0106 L 160.03657,50.0431 z"
   id="polygon57" />
<path
   style="fill:#231f20"
   d="M 160.03657,48.1906 L 160.03657,50.0431 L 128.21157,68.4256 L 127.40502,67.9506 L 127.40502,67.0481 L 160.03657,48.1906 z"
   id="polygon59" />
<path
   id="path63"
   d="M 152.25322,15.11635 C 152.25322,12.406 152.98092,10.2856 154.43727,8.75325 C 155.89172,7.21995 157.77082,6.4533 160.07172,6.4533 C 161.58032,6.4533 162.93883,6.81335 164.14817,7.53345 C 165.35847,8.2545 166.28187,9.2577 166.91647,10.5459 C 167.55107,11.8341 167.86837,13.2952 167.86837,14.9273 C 167.86837,16.58315 167.53397,18.0642 166.86612,19.37045 C 166.19827,20.6767 165.25113,21.6666 164.02562,22.33825 C 162.80107,23.0099 161.47867,23.3462 160.06033,23.3462 C 158.52417,23.3462 157.14952,22.97475 155.93922,22.2328 C 154.72892,21.49085 153.81312,20.47625 153.18802,19.1928 C 152.56292,17.90935 152.25322,16.5499 152.25322,15.11635 z M 154.48002,15.1439 C 154.48002,17.1104 155.00917,18.65985 156.06842,19.79225 C 157.12578,20.9237 158.45482,21.4899 160.04987,21.4899 C 161.67722,21.4899 163.01482,20.918 164.06742,19.77515 C 165.11717,18.6323 165.64252,17.01065 165.64252,14.9102 C 165.64252,13.5821 165.41832,12.42215 164.96898,11.4313 C 164.51962,10.44045 163.86222,9.6719 162.99677,9.1266 C 162.13227,8.5813 161.16137,8.30865 160.08407,8.30865 C 158.55552,8.30865 157.23788,8.834 156.13587,9.88375 C 155.03102,10.93445 154.48002,12.68815 154.48002,15.1439 z"
   style="fill:#231f20" />
<path
   style="fill:#231f20"
   d="M 156.61752,25.4856 L 158.23347,25.4856 L 158.23347,50.613101 L 156.61752,50.613101 L 156.61752,25.4856 z"
   id="rect65" />
<path
   style="fill:#231f20"
   d="M 161.89003,25.4856 L 163.50408,25.4856 L 163.50408,50.613101 L 161.89003,50.613101 L 161.89003,25.4856 z"
   id="rect67" />
<path
   id="path71"
   d="M 217.70822,125.60135 C 217.70822,122.891 218.43592,120.7706 219.89132,119.23825 C 221.34672,117.70495 223.22582,116.9383 225.52767,116.9383 C 227.03532,116.9383 228.39477,117.29835 229.60412,118.01845 C 230.81347,118.7395 231.73687,119.7427 232.37242,121.0309 C 233.00702,122.31815 233.32432,123.7802 233.32432,125.4123 C 233.32432,127.06815 232.98992,128.5492 232.32207,129.85545 C 231.65327,131.1617 230.70612,132.1516 229.48157,132.82325 C 228.25607,133.4949 226.93367,133.8312 225.51627,133.8312 C 223.97917,133.8312 222.60547,133.45975 221.39517,132.7178 C 220.18487,131.97585 219.26812,130.96125 218.64397,129.6778 C 218.01982,128.39245 217.70822,127.0349 217.70822,125.60135 z M 219.93502,125.6289 C 219.93502,127.5954 220.46417,129.14485 221.52247,130.27725 C 222.58077,131.40965 223.90887,131.9749 225.50487,131.9749 C 227.13127,131.9749 228.46982,131.403 229.52147,130.26015 C 230.57312,129.1173 231.09752,127.49565 231.09752,125.3952 C 231.09752,124.0671 230.87332,122.90715 230.42397,121.9163 C 229.97367,120.92545 229.31627,120.1569 228.45177,119.6116 C 227.58727,119.0663 226.61542,118.79365 225.53907,118.79365 C 224.00957,118.79365 222.69287,119.319 221.58992,120.36875 C 220.48697,121.4185 219.93502,123.1722 219.93502,125.6289 z"
   style="fill:#231f20" />
<path
   style="fill:#231f20"
   d="M 218.74752,116.4481 L 217.94002,117.8731 L 192.33657,103.1006 L 193.14597,101.6756 L 218.74752,116.4481 z"
   id="polygon73" />
<path
   style="fill:#231f20"
   d="M 215.89752,121.3881 L 215.09002,122.7656 L 189.53502,107.9931 L 190.34252,106.6156 L 215.89752,121.3881 z"
   id="polygon75" />
<path
   id="path79"
   d="M 62.388925,58.0706 L 62.388925,41.742 L 64.555875,41.742 L 64.555875,48.45185 L 73.002325,48.45185 L 73.002325,41.742 L 75.169275,41.742 L 75.169275,58.0706 L 73.002325,58.0706 L 73.002325,50.3813 L 64.555875,50.3813 L 64.555875,58.0706 L 62.388925,58.0706 z"
   style="fill:#231f20" />
<path
   id="path83"
   d="M 77.592725,59.1099 L 79.091825,58.90185 C 79.265675,59.75305 79.559225,60.36675 79.973425,60.74295 C 80.388575,61.1182 80.896825,61.3063 81.500075,61.3063 C 82.215425,61.3063 82.816775,61.0612 83.304125,60.5729 C 83.791475,60.0827 84.034675,59.4766 84.034675,58.7527 C 84.034675,58.063 83.808575,57.4949 83.354475,57.0465 C 82.901325,56.5981 82.325625,56.37485 81.626425,56.37485 C 81.340475,56.37485 80.985175,56.4309 80.560525,56.54205 L 80.728675,55.2206 C 80.829375,55.232 80.910125,55.2377 80.971875,55.2377 C 81.612175,55.2377 82.188825,55.07145 82.701825,54.738 C 83.214825,54.40455 83.471325,53.8906 83.471325,53.19615 C 83.471325,52.6461 83.284175,52.1901 82.909875,51.83005 C 82.535575,51.46905 82.052975,51.28855 81.461125,51.28855 C 80.874975,51.28855 80.385725,51.47285 79.995275,51.84145 C 79.604825,52.21005 79.353075,52.76295 79.241925,53.50015 L 77.742825,53.2332 C 77.926175,52.2243 78.345125,51.44245 78.996825,50.8886 C 79.648525,50.3338 80.459825,50.0564 81.429775,50.0564 C 82.098575,50.0564 82.715125,50.1989 83.277525,50.4858 C 83.839925,50.77175 84.270275,51.1622 84.569525,51.6562 C 84.866875,52.15115 85.016975,52.67555 85.016975,53.2313 C 85.016975,53.7595 84.875425,54.2402 84.591375,54.6734 C 84.307325,55.1066 83.887425,55.4505 83.330725,55.707 C 84.054625,55.8742 84.617025,56.22095 85.020775,56.7463 C 85.423575,57.27355 85.625925,57.93095 85.625925,58.72135 C 85.625925,59.79105 85.235475,60.6964 84.454575,61.4393 C 83.673675,62.1822 82.686625,62.5546 81.493425,62.5546 C 80.417075,62.5546 79.523125,62.23445 78.812525,61.59605 C 78.099075,60.9548 77.693425,60.12735 77.592725,59.1099 z"
   style="fill:#231f20" />
<path
   id="path87"
   d="M 99.041825,52.34495 L 101.20877,52.89025 C 100.75657,54.66675 99.942425,56.02145 98.768225,56.9534 C 97.593075,57.88535 96.155725,58.35275 94.458075,58.35275 C 92.700575,58.35275 91.271775,57.9946 90.170725,57.27735 C 89.069675,56.56105 88.231775,55.52175 87.657025,54.16325 C 87.082275,52.8038 86.795375,51.34365 86.795375,49.7847 C 86.795375,48.0842 87.119325,46.59935 87.768175,45.333 C 88.417025,44.06665 89.339475,43.10335 90.537425,42.4469 C 91.734425,41.79045 93.051125,41.4608 94.489425,41.4608 C 96.120575,41.4608 97.491425,41.8769 98.602925,42.7091 C 99.715375,43.54225 100.48962,44.7117 100.92663,46.22125 L 98.804325,46.7219 C 98.426225,45.5344 97.878075,44.6699 97.159875,44.1284 C 96.440725,43.5869 95.536325,43.31615 94.447625,43.31615 C 93.195525,43.31615 92.148625,43.61635 91.306925,44.2177 C 90.466175,44.81905 89.875275,45.6256 89.534225,46.63925 C 89.193175,47.6529 89.022175,48.69695 89.022175,49.7733 C 89.022175,51.16125 89.223575,52.3725 89.627325,53.408 C 90.031075,54.4435 90.658075,55.2168 91.510225,55.72885 C 92.362375,56.2409 93.283875,56.4974 94.276625,56.4974 C 95.484075,56.4974 96.505325,56.14875 97.342275,55.4505 C 98.179225,54.75225 98.745425,53.7177 99.041825,52.34495 z"
   style="fill:#231f20" />
<path
   style="fill:#231f20"
   d="M 103.60847,55.1731 L 104.41502,53.7481 L 127.40502,67.0481 L 127.40502,67.9506 L 126.59752,68.4256 L 103.60847,55.1731 z"
   id="polygon89" />
</svg>