<?xml version="1.0" encoding="UTF-8" standalone="no"?>
<svg
   xmlns:cdml="http://www.freesoftware.fsf.org/bkchem/cdml"
   xmlns:dc="http://purl.org/dc/elements/1.1/"
   xmlns:cc="http://creativecommons.org/ns#"
   xmlns:rdf="http://www.w3.org/1999/02/22-rdf-syntax-ns#"
   xmlns:svg="http://www.w3.org/2000/svg"
   xmlns="http://www.w3.org/2000/svg"
   xmlns:sodipodi="http://sodipodi.sourceforge.net/DTD/sodipodi-0.dtd"
   xmlns:inkscape="http://www.inkscape.org/namespaces/inkscape"
   height="15.36094mm"
   version="1.0"
   viewBox="0 0 164 58"
   width="43.43438mm"
   id="svg3087"
   inkscape:version="0.48.0 r9654"
   sodipodi:docname="ethyl.svg">
  <metadata
     id="metadata3109">
    <rdf:RDF>
      <cc:Work
         rdf:about="">
        <dc:format>image/svg+xml</dc:format>
        <dc:type
           rdf:resource="http://purl.org/dc/dcmitype/StillImage" />
        <dc:title></dc:title>
      </cc:Work>
    </rdf:RDF>
  </metadata>
  <defs
     id="defs3107" />
  <sodipodi:namedview
     pagecolor="#ffffff"
     bordercolor="#666666"
     borderopacity="1"
     objecttolerance="10"
     gridtolerance="10"
     guidetolerance="10"
     inkscape:pageopacity="0"
     inkscape:pageshadow="2"
     inkscape:window-width="640"
     inkscape:window-height="480"
     id="namedview3105"
     showgrid="false"
     inkscape:zoom="3.313811"
     inkscape:cx="76.950676"
     inkscape:cy="27.214264"
     inkscape:window-x="0"
     inkscape:window-y="0"
     inkscape:window-maximized="0"
     inkscape:current-layer="svg3087" />
  <g
     font-family="Helvetica"
     font-size="12pt"
     stroke-linecap="round"
     transform="translate(-628,-82)"
     id="g3089">
    <g
       stroke="#000000"
       stroke-width="2.26548672566"
       id="g3091">
      <path
         style=""
         d="m 725,113.51 -32.78003,18.91999"
         id="line3093" />
    </g>
    <g
       stroke="#000000"
       stroke-width="2.26548672566"
       id="g3095">
      <path
         style=""
         d="M 692.21997,132.42999 660,113.83"
         id="line3097" />
    </g>
    <g
       style="font-size:30px;fill:#000000;font-family:helvetica"
       id="text3099">
      <path
         d="m 743.93671,105.4707 2.84179,0.71778 c -0.59572,2.33399 -1.6675,4.11377 -3.21533,5.33935 -1.54787,1.22559 -3.43995,1.83838 -5.67627,1.83838 -2.31446,0 -4.19678,-0.47119 -5.64697,-1.41357 -1.4502,-0.94238 -2.55372,-2.30713 -3.31055,-4.09424 -0.75684,-1.7871 -1.13525,-3.70605 -1.13525,-5.75684 0,-2.236312 0.42724,-4.186994 1.28174,-5.852048 0.85449,-1.665021 2.0703,-2.929668 3.64746,-3.793946 1.57714,-0.864236 3.31298,-1.296364 5.20752,-1.296386 2.14842,2.2e-5 3.95506,0.546896 5.41992,1.640625 1.46482,1.093769 2.48533,2.631853 3.06152,4.614257 l -2.79785,0.65918 c -0.49806,-1.562483 -1.22072,-2.700177 -2.16797,-3.413086 -0.94728,-0.712871 -2.13868,-1.069316 -3.57422,-1.069336 -1.6504,2e-5 -3.02979,0.395527 -4.13818,1.186524 -1.1084,0.791033 -1.88721,1.853043 -2.33643,3.186035 -0.44922,1.333021 -0.67383,2.707531 -0.67382,4.123531 -1e-5,1.82619 0.2661,3.42042 0.79834,4.78272 0.53222,1.36231 1.35985,2.38037 2.48291,3.0542 1.12303,0.67383 2.33885,1.01074 3.64746,1.01074 1.59178,0 2.93944,-0.45898 4.04297,-1.37695 1.10349,-0.91797 1.85056,-2.28027 2.24121,-4.08692 z"
         style="font-size:30px;fill:#000000;font-family:helvetica"
         id="path3114" />
      <path
         d="m 750.38202,113 0,-21.474609 2.8418,0 0,8.818359 11.16211,0 0,-8.818359 2.84179,0 0,21.474609 -2.84179,0 0,-10.12207 -11.16211,0 0,10.12207 z"
         style="font-size:30px;fill:#000000;font-family:helvetica"
         id="path3116" />
      <path
         d="m 770.60419,114.74829 1.97754,-0.26367 c 0.22704,1.12061 0.6134,1.9281 1.15905,2.42248 0.54565,0.49439 1.21033,0.74158 1.99402,0.74158 0.93017,0 1.71569,-0.32226 2.35657,-0.9668 0.64086,-0.64452 0.96129,-1.44286 0.9613,-2.39501 -1e-5,-0.9082 -0.29664,-1.6571 -0.88989,-2.24671 -0.59327,-0.58959 -1.34766,-0.88439 -2.26318,-0.8844 -0.37354,1e-5 -0.83863,0.0733 -1.39527,0.21973 l 0.21973,-1.73584 c 0.13183,0.0147 0.23803,0.022 0.3186,0.022 0.84228,1e-5 1.60034,-0.21972 2.27417,-0.65918 0.67382,-0.43944 1.01074,-1.11693 1.01075,-2.03247 -10e-6,-0.72508 -0.24537,-1.32567 -0.73609,-1.80176 -0.49073,-0.47606 -1.12427,-0.71409 -1.90063,-0.71411 -0.76905,2e-5 -1.40992,0.24172 -1.92261,0.7251 -0.5127,0.48341 -0.84229,1.20851 -0.98877,2.17529 l -1.97754,-0.35156 c 0.2417,-1.32567 0.79101,-2.35289 1.64795,-3.08167 0.85693,-0.72874 1.9226,-1.09312 3.19702,-1.09313 0.8789,1e-5 1.68823,0.18861 2.42798,0.56579 0.73974,0.37721 1.30553,0.89174 1.69739,1.54358 0.39183,0.65187 0.58776,1.34401 0.58777,2.07642 -10e-6,0.69581 -0.18678,1.32935 -0.56031,1.90063 -0.37354,0.5713 -0.92652,1.0254 -1.65893,1.36231 0.95214,0.21973 1.69188,0.67566 2.21924,1.36779 0.52733,0.69215 0.791,1.55824 0.79101,2.59827 -10e-6,1.40625 -0.5127,2.59827 -1.53808,3.57605 -1.0254,0.97778 -2.32179,1.46667 -3.88916,1.46667 -1.41358,0 -2.58729,-0.42114 -3.52112,-1.26342 -0.93384,-0.84229 -1.46668,-1.93359 -1.59851,-3.27393 z"
         style="font-size:75%;baseline-shift:sub"
         id="path3118" />
    </g>
    <g
       style="font-size:30px;fill:#000000;font-family:helvetica"
       id="text3103">
      <path
         d="m 636.65839,113 0,-21.474609 9.52148,0 c 1.91405,2.1e-5 3.36913,0.192892 4.36523,0.578613 0.99608,0.385763 1.79198,1.066914 2.3877,2.043457 0.59568,0.97658 0.89354,2.055681 0.89355,3.237305 -1e-5,1.523451 -0.49318,2.807634 -1.47949,3.852534 -0.98634,1.04494 -2.50978,1.709 -4.57031,1.99219 0.75194,0.36134 1.32323,0.71778 1.71387,1.06934 0.83006,0.76172 1.61619,1.71387 2.3584,2.85644 l 3.73535,5.84473 -3.57422,0 -2.8418,-4.46777 c -0.83009,-1.28906 -1.51368,-2.27539 -2.05078,-2.95899 -0.53712,-0.68358 -1.01808,-1.1621 -1.44287,-1.43554 -0.42482,-0.27343 -0.85694,-0.46386 -1.29639,-0.57129 -0.32227,-0.0684 -0.84962,-0.10253 -1.58203,-0.10254 l -3.2959,0 0,9.53613 z m 2.84179,-11.99707 6.1084,0 c 1.29882,10e-6 2.31444,-0.13427 3.04688,-0.40283 0.7324,-0.26854 1.28904,-0.698231 1.66992,-1.289065 0.38084,-0.590806 0.57127,-1.232895 0.57129,-1.926269 -2e-5,-1.015609 -0.36867,-1.850569 -1.10596,-2.504883 -0.73732,-0.654278 -1.90187,-0.981426 -3.49365,-0.981446 l -6.79688,0 z"
         style="font-size:30px;fill:#000000;font-family:helvetica"
         id="path3121" />
    </g>
  </g>
  <cdml:cdml
     version="0.15">
    <cdml:info>
      <cdml:author_program
         version="0.13.0">BKchem</cdml:author_program>
    </cdml:info>
    <cdml:paper
       crop_margin="5"
       crop_svg="1"
       orientation="portrait"
       replace_minus="0"
       type="Legal"
       use_real_minus="0" />
    <cdml:viewport
       viewport="0.000000 0.000000 640.000000 480.000000" />
    <cdml:standard
       area_color=""
       font_family="helvetica"
       font_size="24"
       line_color="#000"
       line_width="0.06cm"
       paper_crop_margin="5"
       paper_crop_svg="1"
       paper_orientation="portrait"
       paper_type="Legal">
      <cdml:bond
         double-ratio="0.85"
         length="1.4cm"
         wedge-width="0.18cm"
         width="0.21cm" />
      <cdml:arrow
         length="1.6cm" />
      <cdml:atom
         show_hydrogens="0" />
    </cdml:standard>
    <cdml:molecule
       id="molecule62944"
       name="">
      <cdml:atom
         id="atom94893"
         name="C"
         valency="4">
        <cdml:point
           x="18.333cm"
           y="3.507cm" />
      </cdml:atom>
      <cdml:atom
         hydrogens="on"
         id="atom16955"
         name="C"
         pos="center-first"
         show="yes"
         valency="4">
        <cdml:point
           x="19.545cm"
           y="2.807cm" />
      </cdml:atom>
      <cdml:query
         id="atom29225"
         name="R"
         pos="center-last">
        <cdml:point
           x="17.121cm"
           y="2.807cm" />
      </cdml:query>
      <cdml:bond
         double_ratio="0.85"
         end="atom94893"
         id="bond84632"
         line_width="2.26548672566"
         start="atom16955"
         type="n1" />
      <cdml:bond
         double_ratio="0.85"
         end="atom29225"
         id="bond38006"
         line_width="2.26548672566"
         start="atom94893"
         type="n1" />
    </cdml:molecule>
  </cdml:cdml>
</svg>
