<?xml version="1.0" encoding="UTF-8" standalone="no"?>
<svg
   xmlns:cdml="http://www.freesoftware.fsf.org/bkchem/cdml"
   xmlns:dc="http://purl.org/dc/elements/1.1/"
   xmlns:cc="http://creativecommons.org/ns#"
   xmlns:rdf="http://www.w3.org/1999/02/22-rdf-syntax-ns#"
   xmlns:svg="http://www.w3.org/2000/svg"
   xmlns="http://www.w3.org/2000/svg"
   xmlns:sodipodi="http://sodipodi.sourceforge.net/DTD/sodipodi-0.dtd"
   xmlns:inkscape="http://www.inkscape.org/namespaces/inkscape"
   height="50.28320mm"
   version="1.0"
   viewBox="0 0 293 190"
   width="77.54199mm"
   id="svg3071"
   inkscape:version="0.48.1 "
   sodipodi:docname="HMPT.svg">
  <metadata
     id="metadata3155">
    <rdf:RDF>
      <cc:Work
         rdf:about="">
        <dc:format>image/svg+xml</dc:format>
        <dc:type
           rdf:resource="http://purl.org/dc/dcmitype/StillImage" />
        <dc:title></dc:title>
      </cc:Work>
    </rdf:RDF>
  </metadata>
  <defs
     id="defs3153" />
  <sodipodi:namedview
     pagecolor="#ffffff"
     bordercolor="#666666"
     borderopacity="1"
     objecttolerance="10"
     gridtolerance="10"
     guidetolerance="10"
     inkscape:pageopacity="0"
     inkscape:pageshadow="2"
     inkscape:window-width="640"
     inkscape:window-height="480"
     id="namedview3151"
     showgrid="false"
     inkscape:zoom="1.4761281"
     inkscape:cx="137.37755"
     inkscape:cy="89.084412"
     inkscape:window-x="0"
     inkscape:window-y="0"
     inkscape:window-maximized="0"
     inkscape:current-layer="svg3071" />
  <g
     font-family="Helvetica"
     font-size="12pt"
     stroke-linecap="round"
     transform="translate(-303,-184)"
     id="g3073">
    <g
       stroke="#000000"
       stroke-linecap="butt"
       stroke-width="2.26715867159"
       id="g3075">
      <path
         style=""
         d="m 463,268.51001 19,10.97"
         id="line3077" />
    </g>
    <g
       stroke="#000000"
       stroke-linecap="butt"
       stroke-width="2.26715867159"
       id="g3079">
      <path
         style=""
         d="m 391,279.82999 -19,-10.97"
         id="line3081" />
    </g>
    <g
       stroke="#000000"
       stroke-linecap="butt"
       stroke-width="2.26715867159"
       id="g3083">
      <path
         style=""
         d="m 438,267.92999 -20,11.55002"
         id="line3085" />
    </g>
    <g
       stroke="#000000"
       stroke-linecap="butt"
       stroke-width="2.26715867159"
       id="g3087">
      <path
         style=""
         d="m 450,274 0,21"
         id="line3089" />
    </g>
    <g
       stroke="#000000"
       stroke-linecap="butt"
       stroke-width="2.26715867159"
       id="g3091">
      <path
         style=""
         d="m 509,279.82999 19,-10.97"
         id="line3093" />
    </g>
    <g
       stroke="#000000"
       stroke-linecap="butt"
       stroke-width="2.26715867159"
       id="g3095">
      <path
         style=""
         d="m 447,242 0,-21"
         id="line3097" />
      <path
         style=""
         d="m 453,242 0,-21"
         id="line3099" />
    </g>
    <g
       stroke="#000000"
       stroke-linecap="butt"
       stroke-width="2.26715867159"
       id="g3101">
      <path
         style=""
         d="m 437,321.41 -19,10.97"
         id="line3103" />
    </g>
    <g
       stroke="#000000"
       stroke-linecap="butt"
       stroke-width="2.26715867159"
       id="g3105">
      <path
         style=""
         d="m 509,295.07001 19,10.97"
         id="line3107" />
    </g>
    <g
       stroke="#000000"
       stroke-linecap="butt"
       stroke-width="2.26715867159"
       id="g3109">
      <path
         style=""
         d="m 391,295.07001 -19,10.97"
         id="line3111" />
    </g>
    <g
       stroke="#000000"
       stroke-linecap="butt"
       stroke-width="2.26715867159"
       id="g3113">
      <path
         style=""
         d="M 464,321.98001 482,332.38"
         id="line3115" />
    </g>
    <g
       style="font-size:30px;fill:#000000;font-family:helvetica"
       id="text3117">
      <path
         d="m 441.61444,268 0,-21.47461 8.10059,0 c 1.42577,2e-5 2.51463,0.0684 3.2666,0.20508 1.05467,0.1758 1.93846,0.51027 2.65137,1.00342 0.71287,0.49318 1.2866,1.1841 1.72119,2.07275 0.43455,0.88869 0.65183,1.86525 0.65185,2.92969 -2e-5,1.82618 -0.58107,3.37159 -1.74316,4.63623 -1.16213,1.26466 -3.26173,1.89698 -6.29883,1.89697 l -5.50781,0 0,8.73047 z m 2.8418,-11.26465 5.55176,0 c 1.83592,1e-5 3.13963,-0.34178 3.91113,-1.02539 0.77147,-0.68358 1.15721,-1.64549 1.15722,-2.88574 -10e-6,-0.89842 -0.22706,-1.66746 -0.68115,-2.30713 -0.45411,-0.63963 -1.05226,-1.06199 -1.79443,-1.26709 -0.47853,-0.12693 -1.36232,-0.19041 -2.65137,-0.19043 l -5.49316,0 z"
         style="font-size:30px;fill:#000000;font-family:helvetica"
         id="path3169" />
    </g>
    <g
       style="font-size:30px;fill:#000000;font-family:helvetica"
       id="text3119">
      <path
         d="m 438.75018,204.64102 c 0,-3.56444 0.95703,-6.35496 2.8711,-8.37158 1.91405,-2.01658 4.38475,-3.02488 7.41211,-3.0249 1.9824,2e-5 3.76951,0.47365 5.36132,1.4209 1.59178,0.94728 2.80516,2.26808 3.64014,3.9624 0.83494,1.69435 1.25242,3.61573 1.25244,5.76416 -2e-5,2.17774 -0.43947,4.12598 -1.31836,5.84472 -0.87892,1.71876 -2.12404,3.02003 -3.73535,3.90381 -1.61134,0.88379 -3.34962,1.32569 -5.21484,1.32569 -2.0215,0 -3.82814,-0.48828 -5.41992,-1.46485 -1.59181,-0.97656 -2.79786,-2.30956 -3.61817,-3.99902 -0.82031,-1.68945 -1.23047,-3.47655 -1.23047,-5.36133 z m 2.92969,0.0439 c 0,2.5879 0.6958,4.62647 2.0874,6.11572 1.3916,1.48926 3.1372,2.23389 5.23682,2.23389 2.13866,0 3.89891,-0.75195 5.28076,-2.25586 1.38182,-1.5039 2.07274,-3.63769 2.07275,-6.40137 -10e-6,-1.74803 -0.29542,-3.27391 -0.88623,-4.57764 -0.59083,-1.30369 -1.45509,-2.31443 -2.59277,-3.03222 -1.13771,-0.71776 -2.41456,-1.07664 -3.83057,-1.07666 -2.01172,2e-5 -3.74268,0.69093 -5.19287,2.07275 -1.4502,1.38185 -2.17529,3.68898 -2.17529,6.92139 z"
         style="font-size:30px;fill:#000000;font-family:helvetica"
         id="path3172" />
    </g>
    <g
       style="font-size:30px;fill:#000000;font-family:helvetica"
       id="text3121">
      <path
         d="m 485.58514,294.45001 0,-21.47461 2.91504,0 11.2793,16.86035 0,-16.86035 2.72461,0 0,21.47461 -2.91504,0 -11.2793,-16.875 0,16.875 z"
         style="font-size:30px;fill:#000000;font-family:helvetica"
         id="path3175" />
    </g>
    <g
       style="font-size:30px;fill:#000000;font-family:helvetica"
       id="text3123">
      <path
         d="m 440.58514,320.89999 0,-21.47461 2.91504,0 11.2793,16.86036 0,-16.86036 2.72461,0 0,21.47461 -2.91504,0 -11.2793,-16.875 0,16.875 z"
         style="font-size:30px;fill:#000000;font-family:helvetica"
         id="path3178" />
    </g>
    <g
       style="font-size:30px;fill:#000000;font-family:helvetica"
       id="text3125">
      <path
         d="m 394.58514,294.45001 0,-21.47461 2.91504,0 11.2793,16.86035 0,-16.86035 2.72461,0 0,21.47461 -2.91504,0 -11.2793,-16.875 0,16.875 z"
         style="font-size:30px;fill:#000000;font-family:helvetica"
         id="path3181" />
    </g>
    <g
       style="font-size:30px;fill:#000000;font-family:helvetica"
       id="text3127">
      <path
         d="m 311.70233,268 0,-21.47461 2.8418,0 0,8.81836 11.16211,0 0,-8.81836 2.84179,0 0,21.47461 -2.84179,0 0,-10.12207 -11.16211,0 0,10.12207 z"
         style="font-size:30px;fill:#000000;font-family:helvetica"
         id="path3184" />
      <path
         d="m 331.9245,269.74829 1.97754,-0.26367 c 0.22705,1.12061 0.6134,1.9281 1.15906,2.42248 0.54565,0.49439 1.21032,0.74158 1.99401,0.74158 0.93017,0 1.7157,-0.32226 2.35657,-0.9668 0.64086,-0.64452 0.9613,-1.44286 0.96131,-2.39501 -1e-5,-0.9082 -0.29664,-1.6571 -0.8899,-2.24671 -0.59327,-0.58959 -1.34766,-0.88439 -2.26318,-0.8844 -0.37354,1e-5 -0.83863,0.0733 -1.39526,0.21973 l 0.21972,-1.73584 c 0.13183,0.0147 0.23803,0.022 0.31861,0.022 0.84228,10e-6 1.60033,-0.21972 2.27417,-0.65918 0.67382,-0.43944 1.01073,-1.11693 1.01074,-2.03247 -1e-5,-0.72508 -0.24537,-1.32567 -0.73609,-1.80176 -0.49073,-0.47606 -1.12427,-0.71409 -1.90063,-0.71411 -0.76905,2e-5 -1.40992,0.24172 -1.92261,0.7251 -0.5127,0.48341 -0.84229,1.20851 -0.98877,2.17529 l -1.97754,-0.35156 c 0.2417,-1.32567 0.79102,-2.35289 1.64795,-3.08167 0.85693,-0.72874 1.92261,-1.09312 3.19702,-1.09314 0.8789,2e-5 1.68823,0.18862 2.42798,0.5658 0.73974,0.37721 1.30553,0.89174 1.69739,1.54358 0.39184,0.65187 0.58776,1.34401 0.58777,2.07642 -1e-5,0.69581 -0.18678,1.32935 -0.5603,1.90063 -0.37355,0.5713 -0.92653,1.0254 -1.65894,1.36231 0.95214,0.21973 1.69188,0.67566 2.21924,1.36779 0.52733,0.69215 0.791,1.55824 0.79101,2.59827 -10e-6,1.40625 -0.5127,2.59827 -1.53808,3.57605 -1.0254,0.97778 -2.32179,1.46667 -3.88916,1.46667 -1.41358,0 -2.58729,-0.42114 -3.52112,-1.26342 -0.93384,-0.84229 -1.46668,-1.93359 -1.59851,-3.27393 z"
         style="font-size:75%;baseline-shift:sub"
         id="path3186" />
      <path
         d="m 361.14081,260.4707 2.84179,0.71778 c -0.59572,2.33399 -1.66749,4.11377 -3.21533,5.33935 -1.54786,1.22559 -3.43995,1.83838 -5.67627,1.83838 -2.31446,0 -4.19678,-0.47119 -5.64697,-1.41357 -1.4502,-0.94238 -2.55371,-2.30713 -3.31055,-4.09424 -0.75683,-1.7871 -1.13525,-3.70605 -1.13525,-5.75684 0,-2.23631 0.42724,-4.18699 1.28174,-5.85205 0.85449,-1.66502 2.07031,-2.92967 3.64746,-3.79394 1.57714,-0.86424 3.31298,-1.29637 5.20752,-1.29639 2.14842,2e-5 3.95506,0.5469 5.41992,1.64062 1.46483,1.09377 2.48533,2.63186 3.06152,4.61426 l -2.79785,0.65918 c -0.49806,-1.56248 -1.22072,-2.70018 -2.16797,-3.41308 -0.94728,-0.71288 -2.13868,-1.06932 -3.57422,-1.06934 -1.6504,2e-5 -3.02979,0.39553 -4.13818,1.18652 -1.1084,0.79104 -1.88721,1.85305 -2.33642,3.18604 -0.44923,1.33302 -0.67384,2.70753 -0.67383,4.12353 -10e-6,1.82619 0.26611,3.42042 0.79834,4.78272 0.53222,1.36231 1.35985,2.38037 2.48291,3.0542 1.12304,0.67383 2.33885,1.01074 3.64746,1.01074 1.59178,0 2.93944,-0.45898 4.04297,-1.37695 1.1035,-0.91797 1.85057,-2.28027 2.24121,-4.08692 z"
         style="font-size:30px;fill:#000000;font-family:helvetica"
         id="path3188" />
    </g>
    <g
       style="font-size:30px;fill:#000000;font-family:helvetica"
       id="text3131">
      <path
         d="m 311.70233,320.89999 0,-21.47461 2.8418,0 0,8.81836 11.16211,0 0,-8.81836 2.84179,0 0,21.47461 -2.84179,0 0,-10.12207 -11.16211,0 0,10.12207 z"
         style="font-size:30px;fill:#000000;font-family:helvetica"
         id="path3191" />
      <path
         d="m 331.9245,322.64828 1.97754,-0.26367 c 0.22705,1.12061 0.6134,1.92811 1.15906,2.42249 0.54565,0.49438 1.21032,0.74158 1.99401,0.74158 0.93017,0 1.7157,-0.32227 2.35657,-0.9668 0.64086,-0.64453 0.9613,-1.44287 0.96131,-2.39502 -1e-5,-0.9082 -0.29664,-1.6571 -0.8899,-2.2467 -0.59327,-0.5896 -1.34766,-0.8844 -2.26318,-0.8844 -0.37354,0 -0.83863,0.0732 -1.39526,0.21972 l 0.21972,-1.73584 c 0.13183,0.0147 0.23803,0.022 0.31861,0.022 0.84228,1e-5 1.60033,-0.21971 2.27417,-0.65917 0.67382,-0.43945 1.01073,-1.11694 1.01074,-2.03248 -1e-5,-0.72508 -0.24537,-1.32567 -0.73609,-1.80175 -0.49073,-0.47606 -1.12427,-0.7141 -1.90063,-0.71411 -0.76905,10e-6 -1.40992,0.24171 -1.92261,0.72509 -0.5127,0.48341 -0.84229,1.20851 -0.98877,2.1753 l -1.97754,-0.35157 c 0.2417,-1.32567 0.79102,-2.35289 1.64795,-3.08166 0.85693,-0.72875 1.92261,-1.09312 3.19702,-1.09314 0.8789,2e-5 1.68823,0.18861 2.42798,0.56579 0.73974,0.37722 1.30553,0.89174 1.69739,1.54358 0.39184,0.65187 0.58776,1.34401 0.58777,2.07642 -1e-5,0.69581 -0.18678,1.32936 -0.5603,1.90063 -0.37355,0.5713 -0.92653,1.0254 -1.65894,1.36231 0.95214,0.21973 1.69188,0.67567 2.21924,1.3678 0.52733,0.69214 0.791,1.55823 0.79101,2.59826 -10e-6,1.40626 -0.5127,2.59827 -1.53808,3.57605 -1.0254,0.97779 -2.32179,1.46668 -3.88916,1.46668 -1.41358,0 -2.58729,-0.42114 -3.52112,-1.26343 -0.93384,-0.84228 -1.46668,-1.93359 -1.59851,-3.27393 z"
         style="font-size:75%;baseline-shift:sub"
         id="path3193" />
      <path
         d="m 361.14081,313.3707 2.84179,0.71777 c -0.59572,2.33399 -1.66749,4.11377 -3.21533,5.33936 -1.54786,1.22558 -3.43995,1.83837 -5.67627,1.83837 -2.31446,0 -4.19678,-0.47119 -5.64697,-1.41357 -1.4502,-0.94238 -2.55371,-2.30712 -3.31055,-4.09424 -0.75683,-1.7871 -1.13525,-3.70604 -1.13525,-5.75683 0,-2.23632 0.42724,-4.187 1.28174,-5.85205 0.85449,-1.66503 2.07031,-2.92967 3.64746,-3.79395 1.57714,-0.86424 3.31298,-1.29636 5.20752,-1.29639 2.14842,3e-5 3.95506,0.5469 5.41992,1.64063 1.46483,1.09377 2.48533,2.63185 3.06152,4.61426 l -2.79785,0.65918 c -0.49806,-1.56249 -1.22072,-2.70018 -2.16797,-3.41309 -0.94728,-0.71287 -2.13868,-1.06932 -3.57422,-1.06934 -1.6504,2e-5 -3.02979,0.39553 -4.13818,1.18653 -1.1084,0.79103 -1.88721,1.85304 -2.33642,3.18603 -0.44923,1.33302 -0.67384,2.70753 -0.67383,4.12354 -10e-6,1.82618 0.26611,3.42042 0.79834,4.78271 0.53222,1.36231 1.35985,2.38038 2.48291,3.0542 1.12304,0.67383 2.33885,1.01075 3.64746,1.01074 1.59178,10e-6 2.93944,-0.45898 4.04297,-1.37695 1.1035,-0.91796 1.85057,-2.28027 2.24121,-4.08691 z"
         style="font-size:30px;fill:#000000;font-family:helvetica"
         id="path3195" />
    </g>
    <g
       style="font-size:30px;fill:#000000;font-family:helvetica"
       id="text3135">
      <path
         d="m 357.70233,347.35001 0,-21.47461 2.8418,0 0,8.81836 11.16211,0 0,-8.81836 2.84179,0 0,21.47461 -2.84179,0 0,-10.12207 -11.16211,0 0,10.12207 z"
         style="font-size:30px;fill:#000000;font-family:helvetica"
         id="path3198" />
      <path
         d="m 377.9245,349.0983 1.97754,-0.26367 c 0.22705,1.1206 0.6134,1.9281 1.15906,2.42248 0.54565,0.49439 1.21032,0.74158 1.99401,0.74158 0.93017,0 1.7157,-0.32227 2.35657,-0.9668 0.64086,-0.64453 0.9613,-1.44287 0.96131,-2.39502 -1e-5,-0.9082 -0.29664,-1.6571 -0.8899,-2.2467 -0.59327,-0.58959 -1.34766,-0.88439 -2.26318,-0.8844 -0.37354,1e-5 -0.83863,0.0733 -1.39526,0.21972 l 0.21972,-1.73584 c 0.13183,0.0147 0.23803,0.022 0.31861,0.022 0.84228,10e-6 1.60033,-0.21972 2.27417,-0.65918 0.67382,-0.43945 1.01073,-1.11693 1.01074,-2.03247 -1e-5,-0.72509 -0.24537,-1.32567 -0.73609,-1.80176 -0.49073,-0.47606 -1.12427,-0.7141 -1.90063,-0.71411 -0.76905,1e-5 -1.40992,0.24171 -1.92261,0.7251 -0.5127,0.48341 -0.84229,1.2085 -0.98877,2.17529 l -1.97754,-0.35156 c 0.2417,-1.32567 0.79102,-2.3529 1.64795,-3.08167 0.85693,-0.72874 1.92261,-1.09312 3.19702,-1.09314 0.8789,2e-5 1.68823,0.18862 2.42798,0.5658 0.73974,0.37721 1.30553,0.89174 1.69739,1.54358 0.39184,0.65186 0.58776,1.344 0.58777,2.07641 -1e-5,0.69581 -0.18678,1.32936 -0.5603,1.90064 -0.37355,0.5713 -0.92653,1.0254 -1.65894,1.3623 0.95214,0.21974 1.69188,0.67567 2.21924,1.3678 0.52733,0.69214 0.791,1.55823 0.79101,2.59827 -10e-6,1.40625 -0.5127,2.59826 -1.53808,3.57605 -1.0254,0.97778 -2.32179,1.46667 -3.88916,1.46667 -1.41358,0 -2.58729,-0.42114 -3.52112,-1.26343 -0.93384,-0.84228 -1.46668,-1.93359 -1.59851,-3.27392 z"
         style="font-size:75%;baseline-shift:sub"
         id="path3200" />
      <path
         d="m 407.14081,339.82071 2.84179,0.71777 c -0.59572,2.33399 -1.66749,4.11377 -3.21533,5.33936 -1.54786,1.22558 -3.43995,1.83838 -5.67627,1.83838 -2.31446,0 -4.19678,-0.47119 -5.64697,-1.41358 -1.4502,-0.94238 -2.55371,-2.30712 -3.31055,-4.09424 -0.75683,-1.7871 -1.13525,-3.70604 -1.13525,-5.75683 0,-2.23632 0.42724,-4.187 1.28174,-5.85205 0.85449,-1.66502 2.07031,-2.92967 3.64746,-3.79395 1.57714,-0.86423 3.31298,-1.29636 5.20752,-1.29638 2.14842,2e-5 3.95506,0.54689 5.41992,1.64062 1.46483,1.09377 2.48533,2.63185 3.06152,4.61426 l -2.79785,0.65918 c -0.49806,-1.56249 -1.22072,-2.70018 -2.16797,-3.41309 -0.94728,-0.71287 -2.13868,-1.06931 -3.57422,-1.06933 -1.6504,2e-5 -3.02979,0.39552 -4.13818,1.18652 -1.1084,0.79103 -1.88721,1.85304 -2.33642,3.18604 -0.44923,1.33302 -0.67384,2.70753 -0.67383,4.12353 -10e-6,1.82618 0.26611,3.42042 0.79834,4.78272 0.53222,1.3623 1.35985,2.38037 2.48291,3.05419 1.12304,0.67383 2.33885,1.01075 3.64746,1.01075 1.59178,0 2.93944,-0.45899 4.04297,-1.37696 1.1035,-0.91796 1.85057,-2.28026 2.24121,-4.08691 z"
         style="font-size:30px;fill:#000000;font-family:helvetica"
         id="path3202" />
    </g>
    <g
       style="font-size:30px;fill:#000000;font-family:helvetica"
       id="text3139">
      <path
         d="m 500.93671,339.82071 2.84179,0.71777 c -0.59572,2.33399 -1.6675,4.11377 -3.21533,5.33936 -1.54787,1.22558 -3.43995,1.83838 -5.67627,1.83838 -2.31446,0 -4.19678,-0.47119 -5.64697,-1.41358 -1.4502,-0.94238 -2.55372,-2.30712 -3.31055,-4.09424 -0.75684,-1.7871 -1.13525,-3.70604 -1.13525,-5.75683 0,-2.23632 0.42724,-4.187 1.28174,-5.85205 0.85449,-1.66502 2.0703,-2.92967 3.64746,-3.79395 1.57714,-0.86423 3.31298,-1.29636 5.20752,-1.29638 2.14842,2e-5 3.95506,0.54689 5.41992,1.64062 1.46482,1.09377 2.48533,2.63185 3.06152,4.61426 l -2.79785,0.65918 c -0.49806,-1.56249 -1.22072,-2.70018 -2.16797,-3.41309 -0.94728,-0.71287 -2.13868,-1.06931 -3.57422,-1.06933 -1.6504,2e-5 -3.02979,0.39552 -4.13818,1.18652 -1.1084,0.79103 -1.88721,1.85304 -2.33643,3.18604 -0.44922,1.33302 -0.67383,2.70753 -0.67382,4.12353 -10e-6,1.82618 0.2661,3.42042 0.79834,4.78272 0.53222,1.3623 1.35985,2.38037 2.48291,3.05419 1.12303,0.67383 2.33885,1.01075 3.64746,1.01075 1.59178,0 2.93944,-0.45899 4.04297,-1.37696 1.10349,-0.91796 1.85056,-2.28026 2.24121,-4.08691 z"
         style="font-size:30px;fill:#000000;font-family:helvetica"
         id="path3205" />
      <path
         d="m 507.38202,347.35001 0,-21.47461 2.8418,0 0,8.81836 11.16211,0 0,-8.81836 2.84179,0 0,21.47461 -2.84179,0 0,-10.12207 -11.16211,0 0,10.12207 z"
         style="font-size:30px;fill:#000000;font-family:helvetica"
         id="path3207" />
      <path
         d="m 527.60419,349.0983 1.97754,-0.26367 c 0.22704,1.1206 0.6134,1.9281 1.15905,2.42248 0.54565,0.49439 1.21033,0.74158 1.99402,0.74158 0.93017,0 1.71569,-0.32227 2.35657,-0.9668 0.64086,-0.64453 0.96129,-1.44287 0.9613,-2.39502 -1e-5,-0.9082 -0.29664,-1.6571 -0.88989,-2.2467 -0.59327,-0.58959 -1.34766,-0.88439 -2.26318,-0.8844 -0.37354,1e-5 -0.83863,0.0733 -1.39527,0.21972 l 0.21973,-1.73584 c 0.13183,0.0147 0.23803,0.022 0.3186,0.022 0.84228,10e-6 1.60034,-0.21972 2.27417,-0.65918 0.67382,-0.43945 1.01074,-1.11693 1.01075,-2.03247 -10e-6,-0.72509 -0.24537,-1.32567 -0.73609,-1.80176 -0.49073,-0.47606 -1.12427,-0.7141 -1.90063,-0.71411 -0.76905,1e-5 -1.40992,0.24171 -1.92261,0.7251 -0.5127,0.48341 -0.84229,1.2085 -0.98877,2.17529 l -1.97754,-0.35156 c 0.2417,-1.32567 0.79101,-2.3529 1.64795,-3.08167 0.85693,-0.72874 1.9226,-1.09312 3.19702,-1.09314 0.8789,2e-5 1.68823,0.18862 2.42798,0.5658 0.73974,0.37721 1.30553,0.89174 1.69739,1.54358 0.39183,0.65186 0.58776,1.344 0.58777,2.07641 -10e-6,0.69581 -0.18678,1.32936 -0.56031,1.90064 -0.37354,0.5713 -0.92652,1.0254 -1.65893,1.3623 0.95214,0.21974 1.69188,0.67567 2.21924,1.3678 0.52733,0.69214 0.791,1.55823 0.79101,2.59827 -10e-6,1.40625 -0.5127,2.59826 -1.53808,3.57605 -1.0254,0.97778 -2.32179,1.46667 -3.88916,1.46667 -1.41358,0 -2.58729,-0.42114 -3.52112,-1.26343 -0.93384,-0.84228 -1.46668,-1.93359 -1.59851,-3.27392 z"
         style="font-size:75%;baseline-shift:sub"
         id="path3209" />
    </g>
    <g
       style="font-size:30px;fill:#000000;font-family:helvetica"
       id="text3143">
      <path
         d="m 546.93671,313.3707 2.84179,0.71777 c -0.59572,2.33399 -1.6675,4.11377 -3.21533,5.33936 -1.54787,1.22558 -3.43995,1.83837 -5.67627,1.83837 -2.31446,0 -4.19678,-0.47119 -5.64697,-1.41357 -1.4502,-0.94238 -2.55372,-2.30712 -3.31055,-4.09424 -0.75684,-1.7871 -1.13525,-3.70604 -1.13525,-5.75683 0,-2.23632 0.42724,-4.187 1.28174,-5.85205 0.85449,-1.66503 2.0703,-2.92967 3.64746,-3.79395 1.57714,-0.86424 3.31298,-1.29636 5.20752,-1.29639 2.14842,3e-5 3.95506,0.5469 5.41992,1.64063 1.46482,1.09377 2.48533,2.63185 3.06152,4.61426 l -2.79785,0.65918 c -0.49806,-1.56249 -1.22072,-2.70018 -2.16797,-3.41309 -0.94728,-0.71287 -2.13868,-1.06932 -3.57422,-1.06934 -1.6504,2e-5 -3.02979,0.39553 -4.13818,1.18653 -1.1084,0.79103 -1.88721,1.85304 -2.33643,3.18603 -0.44922,1.33302 -0.67383,2.70753 -0.67382,4.12354 -1e-5,1.82618 0.2661,3.42042 0.79834,4.78271 0.53222,1.36231 1.35985,2.38038 2.48291,3.0542 1.12303,0.67383 2.33885,1.01075 3.64746,1.01074 1.59178,10e-6 2.93944,-0.45898 4.04297,-1.37695 1.10349,-0.91796 1.85056,-2.28027 2.24121,-4.08691 z"
         style="font-size:30px;fill:#000000;font-family:helvetica"
         id="path3212" />
      <path
         d="m 553.38202,320.89999 0,-21.47461 2.8418,0 0,8.81836 11.16211,0 0,-8.81836 2.84179,0 0,21.47461 -2.84179,0 0,-10.12207 -11.16211,0 0,10.12207 z"
         style="font-size:30px;fill:#000000;font-family:helvetica"
         id="path3214" />
      <path
         d="m 573.60419,322.64828 1.97754,-0.26367 c 0.22704,1.12061 0.6134,1.92811 1.15905,2.42249 0.54565,0.49438 1.21033,0.74158 1.99402,0.74158 0.93017,0 1.71569,-0.32227 2.35657,-0.9668 0.64086,-0.64453 0.96129,-1.44287 0.9613,-2.39502 -1e-5,-0.9082 -0.29664,-1.6571 -0.88989,-2.2467 -0.59327,-0.5896 -1.34766,-0.8844 -2.26318,-0.8844 -0.37354,0 -0.83863,0.0732 -1.39527,0.21972 l 0.21973,-1.73584 c 0.13183,0.0147 0.23803,0.022 0.3186,0.022 0.84228,1e-5 1.60034,-0.21971 2.27417,-0.65917 0.67382,-0.43945 1.01074,-1.11694 1.01075,-2.03248 -10e-6,-0.72508 -0.24537,-1.32567 -0.73609,-1.80175 -0.49073,-0.47606 -1.12427,-0.7141 -1.90063,-0.71411 -0.76905,10e-6 -1.40992,0.24171 -1.92261,0.72509 -0.5127,0.48341 -0.84229,1.20851 -0.98877,2.1753 l -1.97754,-0.35157 c 0.2417,-1.32567 0.79101,-2.35289 1.64795,-3.08166 0.85693,-0.72875 1.9226,-1.09312 3.19702,-1.09314 0.8789,2e-5 1.68823,0.18861 2.42798,0.56579 0.73974,0.37722 1.30553,0.89174 1.69739,1.54358 0.39183,0.65187 0.58776,1.34401 0.58777,2.07642 -10e-6,0.69581 -0.18678,1.32936 -0.56031,1.90063 -0.37354,0.5713 -0.92652,1.0254 -1.65893,1.36231 0.95214,0.21973 1.69188,0.67567 2.21924,1.3678 0.52733,0.69214 0.791,1.55823 0.79101,2.59826 -10e-6,1.40626 -0.5127,2.59827 -1.53808,3.57605 -1.0254,0.97779 -2.32179,1.46668 -3.88916,1.46668 -1.41358,0 -2.58729,-0.42114 -3.52112,-1.26343 -0.93384,-0.84228 -1.46668,-1.93359 -1.59851,-3.27393 z"
         style="font-size:75%;baseline-shift:sub"
         id="path3216" />
    </g>
    <g
       style="font-size:30px;fill:#000000;font-family:helvetica"
       id="text3147">
      <path
         d="m 546.93671,260.4707 2.84179,0.71778 c -0.59572,2.33399 -1.6675,4.11377 -3.21533,5.33935 -1.54787,1.22559 -3.43995,1.83838 -5.67627,1.83838 -2.31446,0 -4.19678,-0.47119 -5.64697,-1.41357 -1.4502,-0.94238 -2.55372,-2.30713 -3.31055,-4.09424 -0.75684,-1.7871 -1.13525,-3.70605 -1.13525,-5.75684 0,-2.23631 0.42724,-4.18699 1.28174,-5.85205 0.85449,-1.66502 2.0703,-2.92967 3.64746,-3.79394 1.57714,-0.86424 3.31298,-1.29637 5.20752,-1.29639 2.14842,2e-5 3.95506,0.5469 5.41992,1.64062 1.46482,1.09377 2.48533,2.63186 3.06152,4.61426 l -2.79785,0.65918 c -0.49806,-1.56248 -1.22072,-2.70018 -2.16797,-3.41308 -0.94728,-0.71288 -2.13868,-1.06932 -3.57422,-1.06934 -1.6504,2e-5 -3.02979,0.39553 -4.13818,1.18652 -1.1084,0.79104 -1.88721,1.85305 -2.33643,3.18604 -0.44922,1.33302 -0.67383,2.70753 -0.67382,4.12353 -1e-5,1.82619 0.2661,3.42042 0.79834,4.78272 0.53222,1.36231 1.35985,2.38037 2.48291,3.0542 1.12303,0.67383 2.33885,1.01074 3.64746,1.01074 1.59178,0 2.93944,-0.45898 4.04297,-1.37695 1.10349,-0.91797 1.85056,-2.28027 2.24121,-4.08692 z"
         style="font-size:30px;fill:#000000;font-family:helvetica"
         id="path3219" />
      <path
         d="m 553.38202,268 0,-21.47461 2.8418,0 0,8.81836 11.16211,0 0,-8.81836 2.84179,0 0,21.47461 -2.84179,0 0,-10.12207 -11.16211,0 0,10.12207 z"
         style="font-size:30px;fill:#000000;font-family:helvetica"
         id="path3221" />
      <path
         d="m 573.60419,269.74829 1.97754,-0.26367 c 0.22704,1.12061 0.6134,1.9281 1.15905,2.42248 0.54565,0.49439 1.21033,0.74158 1.99402,0.74158 0.93017,0 1.71569,-0.32226 2.35657,-0.9668 0.64086,-0.64452 0.96129,-1.44286 0.9613,-2.39501 -1e-5,-0.9082 -0.29664,-1.6571 -0.88989,-2.24671 -0.59327,-0.58959 -1.34766,-0.88439 -2.26318,-0.8844 -0.37354,1e-5 -0.83863,0.0733 -1.39527,0.21973 l 0.21973,-1.73584 c 0.13183,0.0147 0.23803,0.022 0.3186,0.022 0.84228,10e-6 1.60034,-0.21972 2.27417,-0.65918 0.67382,-0.43944 1.01074,-1.11693 1.01075,-2.03247 -10e-6,-0.72508 -0.24537,-1.32567 -0.73609,-1.80176 -0.49073,-0.47606 -1.12427,-0.71409 -1.90063,-0.71411 -0.76905,2e-5 -1.40992,0.24172 -1.92261,0.7251 -0.5127,0.48341 -0.84229,1.20851 -0.98877,2.17529 l -1.97754,-0.35156 c 0.2417,-1.32567 0.79101,-2.35289 1.64795,-3.08167 0.85693,-0.72874 1.9226,-1.09312 3.19702,-1.09314 0.8789,2e-5 1.68823,0.18862 2.42798,0.5658 0.73974,0.37721 1.30553,0.89174 1.69739,1.54358 0.39183,0.65187 0.58776,1.34401 0.58777,2.07642 -10e-6,0.69581 -0.18678,1.32935 -0.56031,1.90063 -0.37354,0.5713 -0.92652,1.0254 -1.65893,1.36231 0.95214,0.21973 1.69188,0.67566 2.21924,1.36779 0.52733,0.69215 0.791,1.55824 0.79101,2.59827 -10e-6,1.40625 -0.5127,2.59827 -1.53808,3.57605 -1.0254,0.97778 -2.32179,1.46667 -3.88916,1.46667 -1.41358,0 -2.58729,-0.42114 -3.52112,-1.26342 -0.93384,-0.84229 -1.46668,-1.93359 -1.59851,-3.27393 z"
         style="font-size:75%;baseline-shift:sub"
         id="path3223" />
    </g>
  </g>
  <cdml:cdml
     version="0.15">
    <cdml:info>
      <cdml:author_program
         version="0.13.0">BKchem</cdml:author_program>
    </cdml:info>
    <cdml:paper
       crop_margin="5"
       crop_svg="1"
       orientation="portrait"
       replace_minus="0"
       type="Legal"
       use_real_minus="0" />
    <cdml:viewport
       viewport="0.000000 0.000000 640.000000 480.000000" />
    <cdml:standard
       area_color=""
       font_family="helvetica"
       font_size="24"
       line_color="#000"
       line_width="0.06cm"
       paper_crop_margin="5"
       paper_crop_svg="1"
       paper_orientation="portrait"
       paper_type="Legal">
      <cdml:bond
         double-ratio="0.85"
         length="1.4cm"
         wedge-width="0.18cm"
         width="0.21cm" />
      <cdml:arrow
         length="1.6cm" />
      <cdml:atom
         show_hydrogens="0" />
    </cdml:standard>
    <cdml:molecule
       id="molecule28309"
       name="">
      <cdml:atom
         id="atom62868"
         name="P"
         pos="center-first"
         valency="3">
        <cdml:point
           x="11.909cm"
           y="6.907cm" />
      </cdml:atom>
      <cdml:atom
         id="atom27430"
         name="O"
         pos="center-first"
         valency="2">
        <cdml:point
           x="11.909cm"
           y="5.507cm" />
      </cdml:atom>
      <cdml:atom
         id="atom81830"
         name="N"
         pos="center-first"
         valency="3">
        <cdml:point
           x="13.122cm"
           y="7.607cm" />
      </cdml:atom>
      <cdml:atom
         id="atom46558"
         name="N"
         pos="center-first"
         valency="3">
        <cdml:point
           x="11.909cm"
           y="8.307cm" />
      </cdml:atom>
      <cdml:atom
         id="atom28831"
         name="N"
         pos="center-last"
         valency="3">
        <cdml:point
           x="10.697cm"
           y="7.607cm" />
      </cdml:atom>
      <cdml:atom
         hydrogens="on"
         id="atom1349"
         name="C"
         pos="center-last"
         show="yes"
         valency="4">
        <cdml:point
           x="9.484cm"
           y="6.907cm" />
      </cdml:atom>
      <cdml:atom
         hydrogens="on"
         id="atom2391"
         name="C"
         pos="center-last"
         show="yes"
         valency="4">
        <cdml:point
           x="9.484cm"
           y="8.307cm" />
      </cdml:atom>
      <cdml:atom
         hydrogens="on"
         id="atom9507"
         name="C"
         pos="center-last"
         show="yes"
         valency="4">
        <cdml:point
           x="10.697cm"
           y="9.007cm" />
      </cdml:atom>
      <cdml:atom
         hydrogens="on"
         id="atom84595"
         name="C"
         pos="center-first"
         show="yes"
         valency="4">
        <cdml:point
           x="13.122cm"
           y="9.007cm" />
      </cdml:atom>
      <cdml:atom
         hydrogens="on"
         id="atom81626"
         name="C"
         pos="center-first"
         show="yes"
         valency="4">
        <cdml:point
           x="14.334cm"
           y="8.307cm" />
      </cdml:atom>
      <cdml:atom
         hydrogens="on"
         id="atom42492"
         name="C"
         pos="center-first"
         show="yes"
         valency="4">
        <cdml:point
           x="14.334cm"
           y="6.907cm" />
      </cdml:atom>
      <cdml:bond
         double_ratio="0.85"
         end="atom81830"
         id="bond7527"
         line_width="2.26715867159"
         start="atom62868"
         type="n1" />
      <cdml:bond
         double_ratio="0.85"
         end="atom1349"
         id="bond8542"
         line_width="2.26715867159"
         start="atom28831"
         type="n1" />
      <cdml:bond
         double_ratio="0.85"
         end="atom28831"
         id="bond47923"
         line_width="2.26715867159"
         start="atom62868"
         type="n1" />
      <cdml:bond
         double_ratio="0.85"
         end="atom46558"
         id="bond28705"
         line_width="2.26715867159"
         start="atom62868"
         type="n1" />
      <cdml:bond
         double_ratio="0.85"
         end="atom42492"
         id="bond18125"
         line_width="2.26715867159"
         start="atom81830"
         type="n1" />
      <cdml:bond
         bond_width="7.93505535055"
         center="yes"
         double_ratio="0.85"
         end="atom27430"
         id="bond8000"
         line_width="2.26715867159"
         start="atom62868"
         type="n2" />
      <cdml:bond
         double_ratio="0.85"
         end="atom9507"
         id="bond5227"
         line_width="2.26715867159"
         start="atom46558"
         type="n1" />
      <cdml:bond
         double_ratio="0.85"
         end="atom81626"
         id="bond87009"
         line_width="2.26715867159"
         start="atom81830"
         type="n1" />
      <cdml:bond
         double_ratio="0.85"
         end="atom2391"
         id="bond62660"
         line_width="2.26715867159"
         start="atom28831"
         type="n1" />
      <cdml:bond
         double_ratio="0.85"
         end="atom84595"
         id="bond73541"
         line_width="2.26715867159"
         start="atom46558"
         type="n1" />
    </cdml:molecule>
  </cdml:cdml>
</svg>
