<?xml version="1.0" encoding="UTF-8" standalone="no"?>
<svg
   xmlns:cdml="http://www.freesoftware.fsf.org/bkchem/cdml"
   xmlns:dc="http://purl.org/dc/elements/1.1/"
   xmlns:cc="http://creativecommons.org/ns#"
   xmlns:rdf="http://www.w3.org/1999/02/22-rdf-syntax-ns#"
   xmlns:svg="http://www.w3.org/2000/svg"
   xmlns="http://www.w3.org/2000/svg"
   xmlns:sodipodi="http://sodipodi.sourceforge.net/DTD/sodipodi-0.dtd"
   xmlns:inkscape="http://www.inkscape.org/namespaces/inkscape"
   height="80.18848mm"
   version="1.0"
   viewBox="0 0 770 303"
   width="203.77930mm"
   id="svg3910"
   inkscape:version="0.48.1 "
   sodipodi:docname="idcp.svg">
  <metadata
     id="metadata4052">
    <rdf:RDF>
      <cc:Work
         rdf:about="">
        <dc:format>image/svg+xml</dc:format>
        <dc:type
           rdf:resource="http://purl.org/dc/dcmitype/StillImage" />
        <dc:title></dc:title>
      </cc:Work>
    </rdf:RDF>
  </metadata>
  <defs
     id="defs4050" />
  <sodipodi:namedview
     pagecolor="#ffffff"
     bordercolor="#666666"
     borderopacity="1"
     objecttolerance="10"
     gridtolerance="10"
     guidetolerance="10"
     inkscape:pageopacity="0"
     inkscape:pageshadow="2"
     inkscape:window-width="640"
     inkscape:window-height="480"
     id="namedview4048"
     showgrid="false"
     inkscape:zoom="0.70631972"
     inkscape:cx="361.02631"
     inkscape:cy="142.06619"
     inkscape:window-x="0"
     inkscape:window-y="0"
     inkscape:window-maximized="0"
     inkscape:current-layer="svg3910" />
  <g
     font-family="Helvetica"
     font-size="12pt"
     stroke-linecap="round"
     transform="translate(-4,-51)"
     id="g3912">
    <g
       stroke="#000000"
       stroke-width="2.26715867159"
       id="g3914">
      <path
         style=""
         d="M 202.67999,150.17 221.83,117"
         id="line3916" />
    </g>
    <g
       stroke="#000000"
       stroke-width="2.26715867159"
       id="g3918">
      <path
         style=""
         d="M 202.67,241.74001 218.41,269"
         id="line3920" />
    </g>
    <g
       stroke="#000000"
       stroke-width="2.26715867159"
       id="g3922">
      <path
         style=""
         d="m 149.78,150.17 52.89999,0"
         id="line3924" />
    </g>
    <g
       stroke="#000000"
       stroke-width="2.26715867159"
       id="g3926">
      <path
         style=""
         d="m 123.35,195.91 -39.35,0"
         id="line3928" />
    </g>
    <g
       stroke="#000000"
       stroke-width="2.26715867159"
       id="g3930">
      <path
         style=""
         d="m 202.67999,150.17 15.47,26.83"
         id="line3932" />
      <path
         style=""
         d="M 196.96001,156.14999 210.11,178.95"
         id="line3934" />
    </g>
    <g
       stroke="#000000"
       stroke-width="2.26715867159"
       id="g3936">
      <path
         style=""
         d="m 149.78,150.17 -26.43,45.74"
         id="line3938" />
      <path
         style=""
         d="M 154.67,157.57001 132.2,196.45"
         id="line3940" />
    </g>
    <g
       stroke="#000000"
       stroke-width="2.26715867159"
       id="g3942">
      <path
         style=""
         d="m 221.59,209 -18.92,32.74001"
         id="line3944" />
    </g>
    <g
       stroke="#000000"
       stroke-width="2.26715867159"
       id="g3946">
      <path
         style=""
         d="m 123.35,195.91 26.42,45.83001"
         id="line3948" />
    </g>
    <g
       stroke="#000000"
       stroke-width="2.26715867159"
       id="g3950">
      <path
         style=""
         d="m 202.67,241.74001 -52.9,0"
         id="line3952" />
      <path
         style=""
         d="m 198.71001,233.8 -44.97,0"
         id="line3954" />
    </g>
    <g
       style="font-size:30px;fill:#000000;font-family:helvetica"
       id="text3956">
      <path
         d="m 234.93672,103.8307 2.8418,0.71778 c -0.59572,2.33399 -1.6675,4.11377 -3.21533,5.33935 -1.54787,1.22559 -3.43996,1.83838 -5.67627,1.83838 -2.31447,0 -4.19679,-0.47119 -5.64698,-1.41357 -1.4502,-0.94238 -2.55371,-2.30713 -3.31054,-4.09424 -0.75684,-1.7871 -1.13526,-3.70605 -1.13526,-5.75684 0,-2.236312 0.42725,-4.186994 1.28174,-5.852048 0.85449,-1.66502 2.07031,-2.929667 3.64746,-3.793945 1.57714,-0.864236 3.31298,-1.296365 5.20752,-1.296387 2.14843,2.2e-5 3.95506,0.546897 5.41992,1.640625 1.46483,1.093769 2.48534,2.631854 3.06153,4.614258 l -2.79785,0.65918 c -0.49807,-1.562484 -1.22072,-2.700178 -2.16797,-3.413086 -0.94728,-0.712872 -2.13869,-1.069317 -3.57422,-1.069336 -1.6504,1.9e-5 -3.0298,0.395527 -4.13818,1.186523 -1.10841,0.791033 -1.88722,1.853044 -2.33643,3.186036 -0.44922,1.333021 -0.67383,2.707531 -0.67383,4.12353 0,1.82619 0.26611,3.42042 0.79834,4.78272 0.53222,1.36231 1.35986,2.38037 2.48291,3.0542 1.12304,0.67383 2.33886,1.01074 3.64746,1.01074 1.59179,0 2.93944,-0.45898 4.04297,-1.37695 1.1035,-0.91797 1.85057,-2.28027 2.24121,-4.08692 z"
         style="font-size:30px;fill:#000000;font-family:helvetica"
         id="path4067" />
      <path
         d="m 241.38203,111.36 0,-21.474609 2.8418,0 0,8.81836 11.16211,0 0,-8.81836 2.8418,0 0,21.474609 -2.8418,0 0,-10.12207 -11.16211,0 0,10.12207 z"
         style="font-size:30px;fill:#000000;font-family:helvetica"
         id="path4069" />
      <path
         d="m 261.6042,113.10829 1.97754,-0.26367 c 0.22705,1.12061 0.6134,1.9281 1.15906,2.42249 0.54565,0.49438 1.21032,0.74157 1.99402,0.74157 0.93017,0 1.71569,-0.32226 2.35656,-0.96679 0.64086,-0.64453 0.9613,-1.44287 0.96131,-2.39502 -10e-6,-0.9082 -0.29664,-1.6571 -0.88989,-2.24671 -0.59327,-0.58959 -1.34767,-0.88439 -2.26319,-0.8844 -0.37354,1e-5 -0.83863,0.0733 -1.39526,0.21973 l 0.21973,-1.73584 c 0.13183,0.0147 0.23803,0.022 0.3186,0.022 0.84228,1e-5 1.60033,-0.21972 2.27417,-0.65918 0.67382,-0.43944 1.01073,-1.11693 1.01074,-2.03247 -10e-6,-0.72508 -0.24537,-1.32567 -0.73608,-1.80176 -0.49073,-0.47606 -1.12428,-0.71409 -1.90064,-0.71411 -0.76905,2e-5 -1.40991,0.24172 -1.92261,0.7251 -0.51269,0.48341 -0.84228,1.20851 -0.98876,2.17529 l -1.97754,-0.35156 c 0.24169,-1.32567 0.79101,-2.35289 1.64795,-3.08166 0.85693,-0.72875 1.9226,-1.09313 3.19702,-1.09314 0.8789,1e-5 1.68822,0.18861 2.42798,0.56579 0.73973,0.37721 1.30553,0.89174 1.69738,1.54358 0.39184,0.65187 0.58776,1.34401 0.58777,2.07642 -10e-6,0.69581 -0.18678,1.32935 -0.5603,1.90063 -0.37355,0.5713 -0.92652,1.0254 -1.65894,1.36231 0.95214,0.21973 1.69189,0.67566 2.21924,1.36779 0.52733,0.69215 0.79101,1.55824 0.79102,2.59827 -10e-6,1.40625 -0.51271,2.59827 -1.53809,3.57605 -1.0254,0.97778 -2.32178,1.46667 -3.88916,1.46668 -1.41358,-1e-5 -2.58728,-0.42115 -3.52112,-1.26343 -0.93384,-0.84229 -1.46667,-1.93359 -1.59851,-3.27393 z"
         style="font-size:75%;baseline-shift:sub"
         id="path4071" />
    </g>
    <g
       style="font-size:30px;fill:#000000;font-family:helvetica"
       id="text3960">
      <path
         d="m 23.702343,202.91 0,-21.47461 2.841797,0 0,8.81836 11.162109,0 0,-8.81836 2.841797,0 0,21.47461 -2.841797,0 0,-10.12207 -11.162109,0 0,10.12207 z"
         style="font-size:30px;fill:#000000;font-family:helvetica"
         id="path4074" />
      <path
         d="m 43.924511,204.65829 1.977539,-0.26367 c 0.227048,1.12061 0.6134,1.92811 1.159058,2.42249 0.545649,0.49438 1.210321,0.74158 1.994018,0.74158 0.930169,0 1.715691,-0.32227 2.356568,-0.9668 0.64086,-0.64453 0.961294,-1.44287 0.961303,-2.39502 -9e-6,-0.9082 -0.29664,-1.6571 -0.889892,-2.24671 -0.59327,-0.58959 -1.347664,-0.88439 -2.263184,-0.88439 -0.373541,0 -0.838628,0.0733 -1.395264,0.21972 l 0.219727,-1.73584 c 0.131831,0.0147 0.238032,0.022 0.318604,0.022 0.842278,1e-5 1.600334,-0.21971 2.274169,-0.65917 0.67382,-0.43945 1.010734,-1.11694 1.010743,-2.03248 -9e-6,-0.72508 -0.24537,-1.32567 -0.736084,-1.80175 -0.49073,-0.47606 -1.124275,-0.7141 -1.900635,-0.71411 -0.769048,1e-5 -1.409917,0.24171 -1.922608,0.72509 -0.512698,0.48341 -0.842288,1.20851 -0.988769,2.1753 l -1.977539,-0.35157 c 0.241698,-1.32567 0.791014,-2.35289 1.647949,-3.08166 0.85693,-0.72875 1.922603,-1.09313 3.197022,-1.09314 0.878899,10e-6 1.688224,0.18861 2.427978,0.56579 0.739737,0.37722 1.305532,0.89174 1.697388,1.54358 0.391835,0.65187 0.587758,1.34401 0.587768,2.07642 -1e-5,0.69581 -0.186778,1.32936 -0.560302,1.90063 -0.373545,0.5713 -0.926523,1.0254 -1.658936,1.36231 0.952139,0.21973 1.691884,0.67567 2.219238,1.3678 0.527333,0.69214 0.791004,1.55823 0.791016,2.59826 -1.2e-5,1.40626 -0.512706,2.59827 -1.538086,3.57605 -1.0254,0.97779 -2.321785,1.46668 -3.88916,1.46668 -1.413579,0 -2.587284,-0.42114 -3.521118,-1.26343 -0.93384,-0.84228 -1.466676,-1.93359 -1.598511,-3.27393 z"
         style="font-size:75%;baseline-shift:sub"
         id="path4076" />
      <path
         d="m 73.14082,195.38071 2.841796,0.71777 c -0.595723,2.33399 -1.667499,4.11377 -3.215332,5.33936 -1.547867,1.22558 -3.439955,1.83837 -5.676269,1.83837 -2.314463,0 -4.196785,-0.47119 -5.646973,-1.41357 -1.4502,-0.94238 -2.553714,-2.30713 -3.310547,-4.09424 -0.756837,-1.7871 -1.135255,-3.70604 -1.135254,-5.75683 -10e-7,-2.23632 0.427245,-4.187 1.281739,-5.85205 0.854488,-1.66503 2.070307,-2.92967 3.647461,-3.79395 1.57714,-0.86424 3.312978,-1.29636 5.207519,-1.29639 2.148424,3e-5 3.955063,0.5469 5.419922,1.64063 1.464825,1.09377 2.485332,2.63185 3.061523,4.61426 l -2.797851,0.65918 c -0.498064,-1.56249 -1.220719,-2.70018 -2.167969,-3.41309 -0.94728,-0.71287 -2.138685,-1.06932 -3.574219,-1.06934 -1.6504,2e-5 -3.029793,0.39553 -4.138183,1.18653 -1.108405,0.79103 -1.887213,1.85304 -2.336426,3.18603 -0.449223,1.33302 -0.673832,2.70753 -0.673828,4.12354 -4e-6,1.82618 0.266109,3.42042 0.79834,4.78271 0.532221,1.36231 1.359856,2.38038 2.48291,3.0542 1.123038,0.67383 2.338857,1.01075 3.647461,1.01074 1.591784,1e-5 2.939439,-0.45898 4.042969,-1.37695 1.103499,-0.91796 1.850568,-2.28027 2.241211,-4.08691 z"
         style="font-size:30px;fill:#000000;font-family:helvetica"
         id="path4078" />
    </g>
    <g
       style="font-size:30px;fill:#000000;font-family:helvetica"
       id="text3964">
      <path
         d="m 234.93672,287.02069 2.8418,0.71777 c -0.59572,2.33399 -1.6675,4.11378 -3.21533,5.33936 -1.54787,1.22559 -3.43996,1.83838 -5.67627,1.83838 -2.31447,0 -4.19679,-0.47119 -5.64698,-1.41358 -1.4502,-0.94238 -2.55371,-2.30712 -3.31054,-4.09423 -0.75684,-1.78711 -1.13526,-3.70605 -1.13526,-5.75684 0,-2.23631 0.42725,-4.187 1.28174,-5.85205 0.85449,-1.66502 2.07031,-2.92967 3.64746,-3.79395 1.57714,-0.86423 3.31298,-1.29636 5.20752,-1.29638 2.14843,2e-5 3.95506,0.54689 5.41992,1.64062 1.46483,1.09377 2.48534,2.63186 3.06153,4.61426 l -2.79785,0.65918 c -0.49807,-1.56248 -1.22072,-2.70018 -2.16797,-3.41309 -0.94728,-0.71287 -2.13869,-1.06931 -3.57422,-1.06933 -1.6504,2e-5 -3.0298,0.39552 -4.13818,1.18652 -1.10841,0.79103 -1.88722,1.85305 -2.33643,3.18604 -0.44922,1.33302 -0.67383,2.70753 -0.67383,4.12353 0,1.82618 0.26611,3.42042 0.79834,4.78272 0.53222,1.36231 1.35986,2.38037 2.48291,3.0542 1.12304,0.67383 2.33886,1.01074 3.64746,1.01074 1.59179,0 2.93944,-0.45898 4.04297,-1.37696 1.1035,-0.91796 1.85057,-2.28026 2.24121,-4.08691 z"
         style="font-size:30px;fill:#000000;font-family:helvetica"
         id="path4081" />
      <path
         d="m 241.38203,294.54999 0,-21.47461 2.8418,0 0,8.81836 11.16211,0 0,-8.81836 2.8418,0 0,21.47461 -2.8418,0 0,-10.12207 -11.16211,0 0,10.12207 z"
         style="font-size:30px;fill:#000000;font-family:helvetica"
         id="path4083" />
      <path
         d="m 261.6042,296.29828 1.97754,-0.26367 c 0.22705,1.12061 0.6134,1.9281 1.15906,2.42248 0.54565,0.49439 1.21032,0.74158 1.99402,0.74158 0.93017,0 1.71569,-0.32226 2.35656,-0.9668 0.64086,-0.64453 0.9613,-1.44286 0.96131,-2.39502 -10e-6,-0.90819 -0.29664,-1.6571 -0.88989,-2.2467 -0.59327,-0.58959 -1.34767,-0.88439 -2.26319,-0.8844 -0.37354,10e-6 -0.83863,0.0732 -1.39526,0.21973 l 0.21973,-1.73584 c 0.13183,0.0147 0.23803,0.022 0.3186,0.022 0.84228,10e-6 1.60033,-0.21972 2.27417,-0.65918 0.67382,-0.43944 1.01073,-1.11693 1.01074,-2.03247 -10e-6,-0.72509 -0.24537,-1.32567 -0.73608,-1.80176 -0.49073,-0.47606 -1.12428,-0.7141 -1.90064,-0.71411 -0.76905,10e-6 -1.40991,0.24171 -1.92261,0.7251 -0.51269,0.48341 -0.84228,1.20851 -0.98876,2.17529 l -1.97754,-0.35156 c 0.24169,-1.32567 0.79101,-2.35289 1.64795,-3.08167 0.85693,-0.72874 1.9226,-1.09312 3.19702,-1.09314 0.8789,2e-5 1.68822,0.18862 2.42798,0.5658 0.73973,0.37721 1.30553,0.89174 1.69738,1.54358 0.39184,0.65187 0.58776,1.344 0.58777,2.07641 -10e-6,0.69582 -0.18678,1.32936 -0.5603,1.90064 -0.37355,0.5713 -0.92652,1.0254 -1.65894,1.3623 0.95214,0.21974 1.69189,0.67567 2.21924,1.3678 0.52733,0.69215 0.79101,1.55823 0.79102,2.59827 -10e-6,1.40625 -0.51271,2.59827 -1.53809,3.57605 -1.0254,0.97778 -2.32178,1.46667 -3.88916,1.46667 -1.41358,0 -2.58728,-0.42114 -3.52112,-1.26343 -0.93384,-0.84228 -1.46667,-1.93359 -1.59851,-3.27392 z"
         style="font-size:75%;baseline-shift:sub"
         id="path4085" />
    </g>
    <g
       style="font-size:30px;fill:#000000;font-family:helvetica"
       id="text3968">
      <path
         d="m 219.58516,203 0,-21.47461 2.91504,0 11.2793,16.86035 0,-16.86035 2.7246,0 0,21.47461 -2.91503,0 -11.2793,-16.875 0,16.875 z"
         style="font-size:30px;fill:#000000;font-family:helvetica"
         id="path4088" />
    </g>
    <path
       style="fill:none;stroke:#000000;stroke-width:2.26715875"
       d="m 255,196 52.46,0"
       id="polyline3970" />
    <path
       style="fill:#000000;fill-rule:evenodd;stroke:#000000;stroke-width:1"
       d="m 315.46,196 -10,-3 2,3 -2,3 z"
       id="polygon3972" />
    <g
       stroke="#000000"
       stroke-width="2.26715867159"
       id="g3974">
      <path
         style=""
         d="M 471.32001,251.75 455.57999,279"
         id="line3976" />
    </g>
    <g
       stroke="#000000"
       stroke-width="2.26715867159"
       id="g3978">
      <path
         style=""
         d="m 524.21997,160.16 -52.89996,0"
         id="line3980" />
    </g>
    <g
       stroke="#000000"
       stroke-width="2.26715867159"
       id="g3982">
      <path
         style=""
         d="m 471.32001,160.16 -15.47,26.84"
         id="line3984" />
      <path
         style=""
         d="m 477.03,166.14 -13.13999,22.81"
         id="line3986" />
    </g>
    <g
       stroke="#000000"
       stroke-width="2.26715867159"
       id="g3988">
      <path
         style=""
         d="m 524.21997,160.16 26.45001,45.76"
         id="line3990" />
      <path
         style=""
         d="M 519.33002,167.56 541.81,206.46001"
         id="line3992" />
    </g>
    <g
       stroke="#000000"
       stroke-width="2.26715867159"
       id="g3994">
      <path
         style=""
         d="m 452.41,219 18.91001,32.75"
         id="line3996" />
    </g>
    <g
       stroke="#000000"
       stroke-width="2.26715867159"
       id="g3998">
      <path
         style=""
         d="m 550.66998,205.92 -26.45001,45.83"
         id="line4000" />
    </g>
    <g
       stroke="#000000"
       stroke-width="2.26715867159"
       id="g4002">
      <path
         style=""
         d="m 471.32001,251.75 52.89996,0"
         id="line4004" />
      <path
         style=""
         d="m 475.28,243.82001 44.97,0"
         id="line4006" />
    </g>
    <g
       stroke="#000000"
       stroke-width="2.26715867159"
       id="g4008">
      <path
         style=""
         d="M 550.66998,205.92 590,205.92"
         id="line4010" />
    </g>
    <g
       stroke="#000000"
       stroke-width="2.26715867159"
       id="g4012">
      <path
         style=""
         d="M 471.32001,160.16 452.16,127"
         id="line4014" />
    </g>
    <g
       style="font-size:30px;fill:#000000;font-family:helvetica"
       id="text4016">
      <path
         d="m 397.70233,121.36 0,-21.474609 2.8418,0 0,8.818359 11.16211,0 0,-8.818359 2.84179,0 0,21.474609 -2.84179,0 0,-10.12207 -11.16211,0 0,10.12207 z"
         style="font-size:30px;fill:#000000;font-family:helvetica"
         id="path4105" />
      <path
         d="m 417.9245,123.10829 1.97754,-0.26367 c 0.22705,1.12061 0.6134,1.9281 1.15906,2.42249 0.54565,0.49438 1.21032,0.74157 1.99401,0.74157 0.93017,0 1.7157,-0.32226 2.35657,-0.96679 0.64086,-0.64453 0.9613,-1.44287 0.96131,-2.39502 -1e-5,-0.9082 -0.29664,-1.6571 -0.8899,-2.24671 -0.59327,-0.58959 -1.34766,-0.88439 -2.26318,-0.8844 -0.37354,1e-5 -0.83863,0.0733 -1.39526,0.21973 l 0.21972,-1.73584 c 0.13183,0.0147 0.23803,0.022 0.31861,0.022 0.84228,1e-5 1.60033,-0.21972 2.27417,-0.65918 0.67382,-0.43944 1.01073,-1.11693 1.01074,-2.03247 -1e-5,-0.72508 -0.24537,-1.32567 -0.73609,-1.80176 -0.49073,-0.47606 -1.12427,-0.71409 -1.90063,-0.71411 -0.76905,2e-5 -1.40992,0.24172 -1.92261,0.7251 -0.5127,0.48341 -0.84229,1.20851 -0.98877,2.17529 l -1.97754,-0.35156 c 0.2417,-1.32567 0.79102,-2.35289 1.64795,-3.08166 0.85693,-0.72875 1.92261,-1.09313 3.19702,-1.09314 0.8789,1e-5 1.68823,0.18861 2.42798,0.56579 0.73974,0.37721 1.30553,0.89174 1.69739,1.54358 0.39184,0.65187 0.58776,1.34401 0.58777,2.07642 -1e-5,0.69581 -0.18678,1.32935 -0.5603,1.90063 -0.37355,0.5713 -0.92653,1.0254 -1.65894,1.36231 0.95214,0.21973 1.69188,0.67566 2.21924,1.36779 0.52733,0.69215 0.791,1.55824 0.79101,2.59827 -10e-6,1.40625 -0.5127,2.59827 -1.53808,3.57605 -1.0254,0.97778 -2.32179,1.46667 -3.88916,1.46668 -1.41358,-1e-5 -2.58729,-0.42115 -3.52112,-1.26343 -0.93384,-0.84229 -1.46668,-1.93359 -1.59851,-3.27393 z"
         style="font-size:75%;baseline-shift:sub"
         id="path4107" />
      <path
         d="m 447.14081,113.8307 2.84179,0.71778 c -0.59572,2.33399 -1.66749,4.11377 -3.21533,5.33935 -1.54786,1.22559 -3.43995,1.83838 -5.67627,1.83838 -2.31446,0 -4.19678,-0.47119 -5.64697,-1.41357 -1.4502,-0.94238 -2.55371,-2.30713 -3.31055,-4.09424 -0.75683,-1.7871 -1.13525,-3.70605 -1.13525,-5.75684 0,-2.23631 0.42724,-4.18699 1.28174,-5.85205 0.85449,-1.66502 2.07031,-2.92967 3.64746,-3.79394 1.57714,-0.864239 3.31298,-1.296368 5.20752,-1.29639 2.14842,2.2e-5 3.95506,0.5469 5.41992,1.64063 1.46483,1.09376 2.48533,2.63185 3.06152,4.61425 l -2.79785,0.65918 c -0.49806,-1.56248 -1.22072,-2.70017 -2.16797,-3.41308 -0.94728,-0.71287 -2.13868,-1.06932 -3.57422,-1.06934 -1.6504,2e-5 -3.02979,0.39553 -4.13818,1.18652 -1.1084,0.79104 -1.88721,1.85305 -2.33642,3.18604 -0.44923,1.33302 -0.67384,2.70753 -0.67383,4.12353 -10e-6,1.82619 0.26611,3.42042 0.79834,4.78272 0.53222,1.36231 1.35985,2.38037 2.48291,3.0542 1.12304,0.67383 2.33885,1.01074 3.64746,1.01074 1.59178,0 2.93944,-0.45898 4.04297,-1.37695 1.1035,-0.91797 1.85057,-2.28027 2.24121,-4.08692 z"
         style="font-size:30px;fill:#000000;font-family:helvetica"
         id="path4109" />
    </g>
    <g
       style="font-size:30px;fill:#000000;font-family:helvetica"
       id="text4020">
      <path
         d="m 608.93671,205.3907 2.84179,0.71777 c -0.59572,2.33399 -1.6675,4.11378 -3.21533,5.33936 -1.54787,1.22559 -3.43995,1.83838 -5.67627,1.83838 -2.31446,0 -4.19678,-0.47119 -5.64697,-1.41358 -1.4502,-0.94238 -2.55372,-2.30712 -3.31055,-4.09423 -0.75684,-1.78711 -1.13525,-3.70605 -1.13525,-5.75684 0,-2.23631 0.42724,-4.187 1.28174,-5.85205 0.85449,-1.66502 2.0703,-2.92967 3.64746,-3.79395 1.57714,-0.86423 3.31298,-1.29636 5.20752,-1.29638 2.14842,2e-5 3.95506,0.54689 5.41992,1.64062 1.46482,1.09377 2.48533,2.63186 3.06152,4.61426 l -2.79785,0.65918 c -0.49806,-1.56248 -1.22072,-2.70018 -2.16797,-3.41309 -0.94728,-0.71287 -2.13868,-1.06931 -3.57422,-1.06933 -1.6504,2e-5 -3.02979,0.39553 -4.13818,1.18652 -1.1084,0.79103 -1.88721,1.85305 -2.33643,3.18604 -0.44922,1.33302 -0.67383,2.70753 -0.67382,4.12353 -1e-5,1.82618 0.2661,3.42042 0.79834,4.78272 0.53222,1.36231 1.35985,2.38037 2.48291,3.0542 1.12303,0.67383 2.33885,1.01074 3.64746,1.01074 1.59178,0 2.93944,-0.45898 4.04297,-1.37695 1.10349,-0.91797 1.85056,-2.28027 2.24121,-4.08692 z"
         style="font-size:30px;fill:#000000;font-family:helvetica"
         id="path4112" />
      <path
         d="m 615.38202,212.92 0,-21.47461 2.8418,0 0,8.81836 11.16211,0 0,-8.81836 2.84179,0 0,21.47461 -2.84179,0 0,-10.12207 -11.16211,0 0,10.12207 z"
         style="font-size:30px;fill:#000000;font-family:helvetica"
         id="path4114" />
      <path
         d="m 635.60419,214.66829 1.97754,-0.26367 c 0.22704,1.12061 0.6134,1.9281 1.15905,2.42248 0.54565,0.49439 1.21033,0.74158 1.99402,0.74158 0.93017,0 1.71569,-0.32226 2.35657,-0.9668 0.64086,-0.64453 0.96129,-1.44286 0.9613,-2.39502 -1e-5,-0.90819 -0.29664,-1.65709 -0.88989,-2.2467 -0.59327,-0.58959 -1.34766,-0.88439 -2.26318,-0.8844 -0.37354,1e-5 -0.83863,0.0733 -1.39527,0.21973 l 0.21973,-1.73584 c 0.13183,0.0146 0.23803,0.022 0.3186,0.022 0.84228,1e-5 1.60034,-0.21972 2.27417,-0.65918 0.67382,-0.43944 1.01074,-1.11693 1.01075,-2.03247 -10e-6,-0.72509 -0.24537,-1.32567 -0.73609,-1.80176 -0.49073,-0.47606 -1.12427,-0.7141 -1.90063,-0.71411 -0.76905,1e-5 -1.40992,0.24171 -1.92261,0.7251 -0.5127,0.48341 -0.84229,1.20851 -0.98877,2.17529 l -1.97754,-0.35156 c 0.2417,-1.32567 0.79101,-2.35289 1.64795,-3.08167 0.85693,-0.72874 1.9226,-1.09312 3.19702,-1.09314 0.8789,2e-5 1.68823,0.18862 2.42798,0.5658 0.73974,0.37721 1.30553,0.89174 1.69739,1.54358 0.39183,0.65187 0.58776,1.34401 0.58777,2.07641 -10e-6,0.69582 -0.18678,1.32936 -0.56031,1.90064 -0.37354,0.5713 -0.92652,1.0254 -1.65893,1.3623 0.95214,0.21974 1.69188,0.67567 2.21924,1.3678 0.52733,0.69215 0.791,1.55823 0.79101,2.59827 -10e-6,1.40625 -0.5127,2.59827 -1.53808,3.57605 -1.0254,0.97778 -2.32179,1.46667 -3.88916,1.46667 -1.41358,0 -2.58729,-0.42114 -3.52112,-1.26343 -0.93384,-0.84228 -1.46668,-1.93359 -1.59851,-3.27392 z"
         style="font-size:75%;baseline-shift:sub"
         id="path4116" />
    </g>
    <g
       style="font-size:30px;fill:#000000;font-family:helvetica"
       id="text4024">
      <path
         d="m 397.70233,304.54999 0,-21.47461 2.8418,0 0,8.81836 11.16211,0 0,-8.81836 2.84179,0 0,21.47461 -2.84179,0 0,-10.12207 -11.16211,0 0,10.12207 z"
         style="font-size:30px;fill:#000000;font-family:helvetica"
         id="path4119" />
      <path
         d="m 417.9245,306.29828 1.97754,-0.26367 c 0.22705,1.12061 0.6134,1.9281 1.15906,2.42248 0.54565,0.49439 1.21032,0.74158 1.99401,0.74158 0.93017,0 1.7157,-0.32226 2.35657,-0.9668 0.64086,-0.64453 0.9613,-1.44286 0.96131,-2.39502 -1e-5,-0.90819 -0.29664,-1.6571 -0.8899,-2.2467 -0.59327,-0.58959 -1.34766,-0.88439 -2.26318,-0.8844 -0.37354,10e-6 -0.83863,0.0732 -1.39526,0.21973 l 0.21972,-1.73584 c 0.13183,0.0147 0.23803,0.022 0.31861,0.022 0.84228,10e-6 1.60033,-0.21972 2.27417,-0.65918 0.67382,-0.43944 1.01073,-1.11693 1.01074,-2.03247 -1e-5,-0.72509 -0.24537,-1.32567 -0.73609,-1.80176 -0.49073,-0.47606 -1.12427,-0.7141 -1.90063,-0.71411 -0.76905,10e-6 -1.40992,0.24171 -1.92261,0.7251 -0.5127,0.48341 -0.84229,1.20851 -0.98877,2.17529 l -1.97754,-0.35156 c 0.2417,-1.32567 0.79102,-2.35289 1.64795,-3.08167 0.85693,-0.72874 1.92261,-1.09312 3.19702,-1.09314 0.8789,2e-5 1.68823,0.18862 2.42798,0.5658 0.73974,0.37721 1.30553,0.89174 1.69739,1.54358 0.39184,0.65187 0.58776,1.344 0.58777,2.07641 -1e-5,0.69582 -0.18678,1.32936 -0.5603,1.90064 -0.37355,0.5713 -0.92653,1.0254 -1.65894,1.3623 0.95214,0.21974 1.69188,0.67567 2.21924,1.3678 0.52733,0.69215 0.791,1.55823 0.79101,2.59827 -10e-6,1.40625 -0.5127,2.59827 -1.53808,3.57605 -1.0254,0.97778 -2.32179,1.46667 -3.88916,1.46667 -1.41358,0 -2.58729,-0.42114 -3.52112,-1.26343 -0.93384,-0.84228 -1.46668,-1.93359 -1.59851,-3.27392 z"
         style="font-size:75%;baseline-shift:sub"
         id="path4121" />
      <path
         d="m 447.14081,297.02069 2.84179,0.71777 c -0.59572,2.33399 -1.66749,4.11378 -3.21533,5.33936 -1.54786,1.22559 -3.43995,1.83838 -5.67627,1.83838 -2.31446,0 -4.19678,-0.47119 -5.64697,-1.41358 -1.4502,-0.94238 -2.55371,-2.30712 -3.31055,-4.09423 -0.75683,-1.78711 -1.13525,-3.70605 -1.13525,-5.75684 0,-2.23631 0.42724,-4.187 1.28174,-5.85205 0.85449,-1.66502 2.07031,-2.92967 3.64746,-3.79395 1.57714,-0.86423 3.31298,-1.29636 5.20752,-1.29638 2.14842,2e-5 3.95506,0.54689 5.41992,1.64062 1.46483,1.09377 2.48533,2.63186 3.06152,4.61426 l -2.79785,0.65918 c -0.49806,-1.56248 -1.22072,-2.70018 -2.16797,-3.41309 -0.94728,-0.71287 -2.13868,-1.06931 -3.57422,-1.06933 -1.6504,2e-5 -3.02979,0.39552 -4.13818,1.18652 -1.1084,0.79103 -1.88721,1.85305 -2.33642,3.18604 -0.44923,1.33302 -0.67384,2.70753 -0.67383,4.12353 -10e-6,1.82618 0.26611,3.42042 0.79834,4.78272 0.53222,1.36231 1.35985,2.38037 2.48291,3.0542 1.12304,0.67383 2.33885,1.01074 3.64746,1.01074 1.59178,0 2.93944,-0.45898 4.04297,-1.37696 1.1035,-0.91796 1.85057,-2.28026 2.24121,-4.08691 z"
         style="font-size:30px;fill:#000000;font-family:helvetica"
         id="path4123" />
    </g>
    <g
       style="font-size:30px;fill:#000000;font-family:helvetica"
       id="text4028">
      <path
         d="m 434.58514,213 0,-21.47461 2.91504,0 11.2793,16.86035 0,-16.86035 2.72461,0 0,21.47461 -2.91504,0 -11.2793,-16.875 0,16.875 z"
         style="font-size:30px;fill:#000000;font-family:helvetica"
         id="path4126" />
    </g>
    <path
       style="fill:none;stroke:#000000;stroke-width:2.26715875"
       d="m 416,198 -52.46,0"
       id="polyline4030" />
    <path
       style="fill:#000000;fill-rule:evenodd;stroke:#000000;stroke-width:1"
       d="m 355.54,198 10,3 -2,-3 2,-3 z"
       id="polygon4032" />
    <g
       style="font-size:30px;fill:#000000;font-family:helvetica"
       id="text4034">
      <path
         d="m 335.79785,203 0,-21.47461 2.8418,0 0,21.47461 z"
         style="font-size:30px;fill:#000000;font-family:helvetica"
         id="path4131" />
      <path
         d="m 346.9563,188.39624 0,-4.4165 -4.38355,0 0,-1.84571 4.38355,0 0,-4.38354 1.86767,0 0,4.38354 4.38355,0 0,1.84571 -4.38355,0 0,4.4165 z"
         style="font-size:75%;baseline-shift:super"
         id="path4133" />
    </g>
    <path
       style="fill:none;stroke:#000000;stroke-width:2.26715875"
       d="M 48.08,59 12,59 l 0,287 36.08,0"
       id="polyline4038" />
    <path
       style="fill:none;stroke:#000000;stroke-width:2.26715875"
       d="m 637.92,59 36.08,0 0,287 -36.08,0"
       id="polyline4040" />
    <g
       style="font-size:30px;fill:#000000;font-family:helvetica"
       id="text4042">
      <path
         d="m 718.63672,311.4707 2.8418,0.71778 c -0.59573,2.33399 -1.6675,4.11377 -3.21534,5.33935 -1.54786,1.22559 -3.43995,1.83838 -5.67627,1.83838 -2.31446,0 -4.19678,-0.47119 -5.64697,-1.41357 -1.4502,-0.94238 -2.55371,-2.30713 -3.31055,-4.09424 -0.75683,-1.7871 -1.13525,-3.70605 -1.13525,-5.75684 0,-2.23631 0.42724,-4.18699 1.28174,-5.85205 0.85449,-1.66502 2.07031,-2.92967 3.64746,-3.79394 1.57714,-0.86424 3.31298,-1.29637 5.20752,-1.29639 2.14842,2e-5 3.95506,0.5469 5.41992,1.64062 1.46483,1.09377 2.48533,2.63186 3.06152,4.61426 l -2.79785,0.65918 c -0.49806,-1.56248 -1.22072,-2.70018 -2.16797,-3.41308 -0.94728,-0.71288 -2.13868,-1.06932 -3.57421,-1.06934 -1.6504,2e-5 -3.0298,0.39553 -4.13819,1.18652 -1.1084,0.79104 -1.88721,1.85305 -2.33642,3.18604 -0.44923,1.33302 -0.67384,2.70753 -0.67383,4.12353 -10e-6,1.82619 0.26611,3.42042 0.79834,4.78272 0.53222,1.36231 1.35985,2.38037 2.48291,3.0542 1.12304,0.67383 2.33886,1.01074 3.64746,1.01074 1.59178,0 2.93944,-0.45898 4.04297,-1.37695 1.1035,-0.91797 1.85057,-2.28027 2.24121,-4.08692 z"
         style="font-size:30px;fill:#000000;font-family:helvetica"
         id="path4138" />
      <path
         d="m 724.59863,319 0,-21.47461 2.63672,0 0,21.47461 z"
         style="font-size:30px;fill:#000000;font-family:helvetica"
         id="path4140" />
      <path
         d="m 730.80957,308.54102 c 0,-3.56444 0.95703,-6.35497 2.87109,-8.37159 1.91406,-2.01658 4.38476,-3.02488 7.41211,-3.0249 1.98241,2e-5 3.76952,0.47366 5.36133,1.4209 1.59178,0.94728 2.80516,2.26808 3.64014,3.9624 0.83494,1.69435 1.25242,3.61574 1.25244,5.76416 -2e-5,2.17775 -0.43947,4.12599 -1.31836,5.84473 -0.87893,1.71875 -2.12404,3.02002 -3.73535,3.90381 -1.61134,0.88379 -3.34962,1.32568 -5.21485,1.32568 -2.02149,0 -3.82813,-0.48828 -5.41992,-1.46484 -1.5918,-0.97656 -2.79785,-2.30957 -3.61816,-3.99903 -0.82032,-1.68944 -1.23047,-3.47655 -1.23047,-5.36132 z m 2.92969,0.0439 c -10e-6,2.5879 0.69579,4.62647 2.0874,6.11572 1.39159,1.48926 3.1372,2.23389 5.23682,2.23389 2.13865,0 3.89891,-0.75195 5.28076,-2.25586 1.38182,-1.5039 2.07273,-3.63769 2.07275,-6.40137 -2e-5,-1.74803 -0.29543,-3.27391 -0.88623,-4.57763 -0.59084,-1.3037 -1.45509,-2.31444 -2.59277,-3.03223 -1.13771,-0.71775 -2.41457,-1.07664 -3.83057,-1.07666 -2.01173,2e-5 -3.74268,0.69094 -5.19287,2.07275 -1.4502,1.38186 -2.1753,3.68898 -2.17529,6.92139 z"
         style="font-size:30px;fill:#000000;font-family:helvetica"
         id="path4142" />
      <path
         d="m 759.95264,325 0,-3.8562 -6.98731,0 0,-1.81275 7.34986,-10.43701 1.61499,0 0,10.43701 2.17529,0 0,1.81275 -2.17529,0 0,3.8562 z m 0,-5.66895 0,-7.26196 -5.04273,7.26196 z"
         style="font-size:75%;baseline-shift:sub"
         id="path4144" />
      <path
         d="m 765.91821,302.16602 0,-1.98853 6.07544,0 0,1.98853 z"
         style="font-size:75%;baseline-shift:super"
         id="path4146" />
    </g>
  </g>
  <cdml:cdml
     version="0.15">
    <cdml:info>
      <cdml:author_program
         version="0.13.0">BKchem</cdml:author_program>
    </cdml:info>
    <cdml:paper
       crop_margin="5"
       crop_svg="1"
       orientation="portrait"
       replace_minus="0"
       type="Legal"
       use_real_minus="0" />
    <cdml:viewport
       viewport="0.000000 0.000000 640.000000 480.000000" />
    <cdml:standard
       area_color=""
       font_family="helvetica"
       font_size="24"
       line_color="#000"
       line_width="0.06cm"
       paper_crop_margin="5"
       paper_crop_svg="1"
       paper_orientation="portrait"
       paper_type="Legal">
      <cdml:bond
         double-ratio="0.85"
         length="1.4cm"
         wedge-width="0.18cm"
         width="0.21cm" />
      <cdml:arrow
         length="1.6cm" />
      <cdml:atom
         show_hydrogens="0" />
    </cdml:standard>
    <cdml:molecule
       id="molecule31139"
       name="">
      <cdml:atom
         id="atom14861"
         name="C"
         valency="4">
        <cdml:point
           x="3.964cm"
           y="3.974cm" />
      </cdml:atom>
      <cdml:atom
         id="atom79878"
         name="C"
         valency="4">
        <cdml:point
           x="5.364cm"
           y="3.974cm" />
      </cdml:atom>
      <cdml:atom
         id="atom74937"
         name="C"
         valency="4">
        <cdml:point
           x="5.364cm"
           y="6.398cm" />
      </cdml:atom>
      <cdml:atom
         id="atom63436"
         name="C"
         valency="4">
        <cdml:point
           x="3.264cm"
           y="5.185cm" />
      </cdml:atom>
      <cdml:atom
         id="atom94214"
         name="C"
         valency="4">
        <cdml:point
           x="3.964cm"
           y="6.398cm" />
      </cdml:atom>
      <cdml:atom
         hydrogens="on"
         id="atom19793"
         name="C"
         pos="center-first"
         show="yes"
         valency="4">
        <cdml:point
           x="6.064cm"
           y="2.762cm" />
      </cdml:atom>
      <cdml:atom
         hydrogens="on"
         id="atom21370"
         name="C"
         pos="center-last"
         show="yes"
         valency="4">
        <cdml:point
           x="1.865cm"
           y="5.185cm" />
      </cdml:atom>
      <cdml:atom
         hydrogens="on"
         id="atom78180"
         name="C"
         pos="center-first"
         show="yes"
         valency="4">
        <cdml:point
           x="6.064cm"
           y="7.610cm" />
      </cdml:atom>
      <cdml:atom
         id="atom67295"
         name="N"
         pos="center-first"
         valency="3">
        <cdml:point
           x="6.063cm"
           y="5.187cm" />
      </cdml:atom>
      <cdml:bond
         double_ratio="0.85"
         end="atom19793"
         id="bond94067"
         line_width="2.26715867159"
         start="atom79878"
         type="n1" />
      <cdml:bond
         double_ratio="0.85"
         end="atom78180"
         id="bond5105"
         line_width="2.26715867159"
         start="atom74937"
         type="n1" />
      <cdml:bond
         double_ratio="0.85"
         end="atom79878"
         id="bond24226"
         line_width="2.26715867159"
         start="atom14861"
         type="n1" />
      <cdml:bond
         double_ratio="0.85"
         end="atom21370"
         id="bond88587"
         line_width="2.26715867159"
         start="atom63436"
         type="n1" />
      <cdml:bond
         bond_width="-7.93505535055"
         center="no"
         double_ratio="0.85"
         end="atom67295"
         id="bond33951"
         line_width="2.26715867159"
         start="atom79878"
         type="n2" />
      <cdml:bond
         bond_width="7.93505535055"
         center="no"
         double_ratio="0.85"
         end="atom63436"
         id="bond32941"
         line_width="2.26715867159"
         start="atom14861"
         type="n2" />
      <cdml:bond
         double_ratio="0.85"
         end="atom74937"
         id="bond80737"
         line_width="2.26715867159"
         start="atom67295"
         type="n1" />
      <cdml:bond
         double_ratio="0.85"
         end="atom94214"
         id="bond71528"
         line_width="2.26715867159"
         start="atom63436"
         type="n1" />
      <cdml:bond
         bond_width="-7.93505535055"
         center="no"
         double_ratio="0.85"
         end="atom94214"
         id="bond30478"
         line_width="2.26715867159"
         start="atom74937"
         type="n2" />
    </cdml:molecule>
    <cdml:arrow
       color="#000"
       end="yes"
       id="arrow90072"
       shape="(8, 10, 3)"
       spline="no"
       start="no"
       type="normal"
       width="2.26715867159">
      <cdml:point
         x="6.749cm"
         y="5.187cm" />
      <cdml:point
         x="8.349cm"
         y="5.187cm" />
    </cdml:arrow>
    <cdml:molecule
       id="molecule22874"
       name="">
      <cdml:atom
         id="atom85612"
         name="C"
         valency="4">
        <cdml:point
           x="13.873cm"
           y="4.239cm" />
      </cdml:atom>
      <cdml:atom
         id="atom73340"
         name="C"
         valency="4">
        <cdml:point
           x="12.473cm"
           y="4.239cm" />
      </cdml:atom>
      <cdml:atom
         id="atom3837"
         name="C"
         valency="4">
        <cdml:point
           x="12.473cm"
           y="6.663cm" />
      </cdml:atom>
      <cdml:atom
         id="atom45566"
         name="C"
         valency="4">
        <cdml:point
           x="14.573cm"
           y="5.450cm" />
      </cdml:atom>
      <cdml:atom
         id="atom88679"
         name="C"
         valency="4">
        <cdml:point
           x="13.873cm"
           y="6.663cm" />
      </cdml:atom>
      <cdml:atom
         hydrogens="on"
         id="atom94910"
         name="C"
         pos="center-last"
         show="yes"
         valency="4">
        <cdml:point
           x="11.773cm"
           y="3.027cm" />
      </cdml:atom>
      <cdml:atom
         hydrogens="on"
         id="atom77133"
         name="C"
         pos="center-first"
         show="yes"
         valency="4">
        <cdml:point
           x="15.972cm"
           y="5.450cm" />
      </cdml:atom>
      <cdml:atom
         hydrogens="on"
         id="atom10612"
         name="C"
         pos="center-last"
         show="yes"
         valency="4">
        <cdml:point
           x="11.773cm"
           y="7.875cm" />
      </cdml:atom>
      <cdml:atom
         id="atom87506"
         name="N"
         pos="center-first"
         valency="3">
        <cdml:point
           x="11.774cm"
           y="5.452cm" />
      </cdml:atom>
      <cdml:bond
         double_ratio="0.85"
         end="atom10612"
         id="bond18940"
         line_width="2.26715867159"
         start="atom3837"
         type="n1" />
      <cdml:bond
         double_ratio="0.85"
         end="atom73340"
         id="bond48582"
         line_width="2.26715867159"
         start="atom85612"
         type="n1" />
      <cdml:bond
         bond_width="7.93505535055"
         center="no"
         double_ratio="0.85"
         end="atom87506"
         id="bond7746"
         line_width="2.26715867159"
         start="atom73340"
         type="n2" />
      <cdml:bond
         bond_width="-7.93505535055"
         center="no"
         double_ratio="0.85"
         end="atom45566"
         id="bond36248"
         line_width="2.26715867159"
         start="atom85612"
         type="n2" />
      <cdml:bond
         double_ratio="0.85"
         end="atom3837"
         id="bond11008"
         line_width="2.26715867159"
         start="atom87506"
         type="n1" />
      <cdml:bond
         double_ratio="0.85"
         end="atom88679"
         id="bond10720"
         line_width="2.26715867159"
         start="atom45566"
         type="n1" />
      <cdml:bond
         bond_width="7.93505535055"
         center="no"
         double_ratio="0.85"
         end="atom88679"
         id="bond42249"
         line_width="2.26715867159"
         start="atom3837"
         type="n2" />
      <cdml:bond
         double_ratio="0.85"
         end="atom77133"
         id="bond48855"
         line_width="2.26715867159"
         start="atom45566"
         type="n1" />
      <cdml:bond
         double_ratio="0.85"
         end="atom94910"
         id="bond21404"
         line_width="2.26715867159"
         start="atom73340"
         type="n1" />
    </cdml:molecule>
    <cdml:arrow
       color="#000"
       end="yes"
       id="arrow93398"
       shape="(8, 10, 3)"
       spline="no"
       start="no"
       type="normal"
       width="2.26715867159">
      <cdml:point
         x="11.009cm"
         y="5.240cm" />
      <cdml:point
         x="9.409cm"
         y="5.240cm" />
    </cdml:arrow>
    <cdml:text
       id="text45928">
      <cdml:point
         x="8.892cm"
         y="5.134cm" />
      <cdml:ftext>I<cdml:sup>+</cdml:sup>
</cdml:ftext>
    </cdml:text>
    <cdml:polyline
       line_color="#000"
       width="2.26715867159">
      <cdml:point
         x="1.272cm"
         y="1.561cm" />
      <cdml:point
         x="0.318cm"
         y="1.561cm" />
      <cdml:point
         x="0.318cm"
         y="9.157cm" />
      <cdml:point
         x="1.272cm"
         y="9.157cm" />
    </cdml:polyline>
    <cdml:polyline
       line_color="#000"
       width="2.26715867159">
      <cdml:point
         x="16.883cm"
         y="1.561cm" />
      <cdml:point
         x="17.837cm"
         y="1.561cm" />
      <cdml:point
         x="17.837cm"
         y="9.157cm" />
      <cdml:point
         x="16.883cm"
         y="9.157cm" />
    </cdml:polyline>
    <cdml:text
       id="text73842">
      <cdml:point
         x="18.817cm"
         y="8.204cm" />
      <cdml:ftext>ClO<cdml:sub>4</cdml:sub>
<cdml:sup>-</cdml:sup>
</cdml:ftext>
    </cdml:text>
  </cdml:cdml>
</svg>
