<?xml version="1.0" encoding="UTF-8" standalone="no"?>
<!-- Generator: Adobe Illustrator 12.0.1, SVG Export Plug-In . SVG Version: 6.00 Build 51448)  -->
<svg
   xmlns:dc="http://purl.org/dc/elements/1.1/"
   xmlns:cc="http://web.resource.org/cc/"
   xmlns:rdf="http://www.w3.org/1999/02/22-rdf-syntax-ns#"
   xmlns:svg="http://www.w3.org/2000/svg"
   xmlns="http://www.w3.org/2000/svg"
   xmlns:sodipodi="http://sodipodi.sourceforge.net/DTD/sodipodi-0.dtd"
   xmlns:inkscape="http://www.inkscape.org/namespaces/inkscape"
   version="1.1"
   id="Layer_1"
   width="231.546"
   height="121.403"
   viewBox="0 0 231.546 121.403"
   style="overflow:visible;enable-background:new 0 0 231.546 121.403;"
   xml:space="preserve"
   sodipodi:version="0.32"
   inkscape:version="0.45.1"
   sodipodi:docname="L-Leucin.svg"
   inkscape:output_extension="org.inkscape.output.svg.inkscape"
   sodipodi:docbase="C:\"><metadata
   id="metadata66"><rdf:RDF><cc:Work
       rdf:about=""><dc:format>image/svg+xml</dc:format><dc:type
         rdf:resource="http://purl.org/dc/dcmitype/StillImage" /></cc:Work></rdf:RDF></metadata><defs
   id="defs64" /><sodipodi:namedview
   inkscape:window-height="579"
   inkscape:window-width="801"
   inkscape:pageshadow="2"
   inkscape:pageopacity="0.0"
   guidetolerance="10.0"
   gridtolerance="10.0"
   objecttolerance="10.0"
   borderopacity="1.0"
   bordercolor="#666666"
   pagecolor="#ffffff"
   id="base"
   inkscape:zoom="3.0965769"
   inkscape:cx="115.773"
   inkscape:cy="60.7015"
   inkscape:window-x="88"
   inkscape:window-y="88"
   inkscape:current-layer="Layer_1" />
<path
   d="M 104.3388,49.28585 L 104.3388,47.4324 L 137.0188,66.2424 L 137.0188,67.1924 L 136.1638,67.6199 L 104.3388,49.28585 z "
   id="polygon3" />
<path
   d="M 137.8738,67.6199 L 137.0188,67.1924 L 137.0188,66.2424 L 169.6513,47.4324 L 169.6513,49.28585 L 137.8738,67.6199 z "
   id="polygon5" />
<g
   id="g7"
   transform="matrix(0.95,0,0,0.95,5.78865,3.0351)">
	<path
   d="M 198.644,68.619 C 198.644,65.766 199.41,63.534 200.942,61.921 C 202.474,60.307 204.452,59.5 206.875,59.5 C 208.462,59.5 209.892,59.879 211.166,60.637 C 212.44,61.396 213.411,62.452 214.079,63.808 C 214.748,65.163 215.082,66.702 215.082,68.42 C 215.082,70.163 214.73,71.722 214.026,73.097 C 213.323,74.472 212.327,75.514 211.037,76.221 C 209.747,76.928 208.356,77.282 206.863,77.282 C 205.245,77.282 203.799,76.891 202.525,76.11 C 201.251,75.329 200.286,74.261 199.629,72.91 C 198.972,71.558 198.644,70.128 198.644,68.619 z M 200.987,68.648 C 200.987,70.718 201.544,72.349 202.658,73.541 C 203.772,74.733 205.17,75.328 206.85,75.328 C 208.562,75.328 209.971,74.726 211.078,73.523 C 212.183,72.32 212.737,70.613 212.737,68.402 C 212.737,67.004 212.501,65.783 212.027,64.74 C 211.554,63.697 210.863,62.888 209.952,62.314 C 209.041,61.74 208.019,61.453 206.886,61.453 C 205.276,61.453 203.89,62.006 202.729,63.111 C 201.568,64.216 200.987,66.063 200.987,68.648 z "
   id="path9" />
	<path
   d="M 218.093,76.984 L 218.093,59.797 L 220.374,59.797 L 220.374,66.86 L 229.265,66.86 L 229.265,59.797 L 231.546,59.797 L 231.546,76.985 L 229.265,76.985 L 229.265,68.891 L 220.374,68.891 L 220.374,76.985 L 218.093,76.985 L 218.093,76.984 z "
   id="path11" />
</g>
<path
   d="M 169.6513,49.28585 L 169.6513,47.4324 L 194.1138,61.54085 L 193.3063,62.96585 L 169.6513,49.28585 z "
   id="polygon13" />
<g
   id="g15"
   transform="matrix(0.95,0,0,0.95,5.78865,3.0351)">
	<path
   d="M 164.244,9.119 C 164.244,6.266 165.01,4.034 166.541,2.421 C 168.074,0.807 170.051,0 172.475,0 C 174.061,0 175.492,0.379 176.766,1.137 C 178.039,1.896 179.01,2.952 179.679,4.308 C 180.348,5.664 180.682,7.202 180.682,8.92 C 180.682,10.663 180.33,12.222 179.626,13.597 C 178.922,14.972 177.926,16.014 176.637,16.721 C 175.346,17.428 173.955,17.782 172.463,17.782 C 170.844,17.782 169.399,17.391 168.125,16.61 C 166.85,15.829 165.885,14.761 165.229,13.41 C 164.573,12.059 164.244,10.628 164.244,9.119 z M 166.588,9.148 C 166.588,11.218 167.145,12.849 168.258,14.041 C 169.373,15.232 170.77,15.828 172.451,15.828 C 174.162,15.828 175.572,15.226 176.678,14.023 C 177.784,12.82 178.338,11.113 178.338,8.902 C 178.338,7.504 178.102,6.283 177.628,5.24 C 177.154,4.197 176.463,3.388 175.553,2.814 C 174.642,2.24 173.619,1.953 172.487,1.953 C 170.876,1.953 169.491,2.506 168.329,3.611 C 167.168,4.717 166.588,6.563 166.588,9.148 z "
   id="path17" />
</g>
<path
   d="M 165.99379,22.06835 L 167.60974,22.06835 L 167.60974,49.998349 L 165.99379,49.998349 L 165.99379,22.06835 z "
   id="rect19" />
<path
   d="M 171.69379,22.06835 L 173.30974,22.06835 L 173.30974,49.998349 L 171.69379,49.998349 L 171.69379,22.06835 z "
   id="rect21" />
<g
   id="g23"
   transform="matrix(0.95,0,0,0.95,5.78865,3.0351)">
	<path
   d="M 131.315,116.685 L 131.315,99.497 L 133.655,99.497 L 142.659,112.986 L 142.659,99.497 L 144.847,99.497 L 144.847,116.685 L 142.507,116.685 L 133.503,103.196 L 133.503,116.685 L 131.315,116.685 z "
   id="path25" />
	<path
   d="M 148.757,116.685 L 148.757,99.497 L 151.038,99.497 L 151.038,106.56 L 159.929,106.56 L 159.929,99.497 L 162.21,99.497 L 162.21,116.685 L 159.929,116.685 L 159.929,108.591 L 151.038,108.591 L 151.038,116.685 L 148.757,116.685 z "
   id="path27" />
</g>
<g
   id="g29"
   transform="matrix(0.95,0,0,0.95,5.78865,3.0351)">
	<path
   d="M 172.992,119.669 L 172.992,121.185 L 164.461,121.185 C 164.449,120.804 164.51,120.438 164.647,120.086 C 164.865,119.506 165.213,118.935 165.695,118.373 C 166.175,117.811 166.866,117.162 167.764,116.426 C 169.16,115.273 170.107,114.362 170.604,113.692 C 171.102,113.022 171.352,112.387 171.352,111.789 C 171.352,111.163 171.126,110.636 170.676,110.205 C 170.226,109.775 169.639,109.56 168.916,109.56 C 168.15,109.56 167.539,109.789 167.08,110.248 C 166.621,110.707 166.389,111.342 166.383,112.153 L 164.758,111.981 C 164.869,110.765 165.289,109.839 166.018,109.203 C 166.746,108.565 167.723,108.247 168.952,108.247 C 170.19,108.247 171.171,108.59 171.893,109.276 C 172.616,109.962 172.977,110.812 172.977,111.826 C 172.977,112.342 172.871,112.849 172.659,113.347 C 172.448,113.845 172.096,114.37 171.606,114.921 C 171.116,115.472 170.302,116.228 169.167,117.189 C 168.216,117.987 167.604,118.527 167.333,118.812 C 167.062,119.095 166.837,119.381 166.661,119.668 L 172.992,119.668 L 172.992,119.669 z "
   id="path31" />
</g>
<path
   d="M 140.62975,95.36085 L 133.3613,95.36085 L 136.1638,67.6199 L 137.0188,67.1924 L 137.8738,67.6199 L 140.62975,95.36085 z "
   id="polygon33" />
<path
   d="M 104.3388,47.4324 L 104.3388,49.28585 L 72.5138,67.6674 L 71.7063,67.1924 L 71.7063,66.2424 L 104.3388,47.4324 z "
   id="polygon35" />
<g
   id="g37"
   transform="matrix(0.95,0,0,0.95,5.78865,3.0351)">
	<path
   d="M 0,57.135 L 0,39.947 L 2.281,39.947 L 2.281,47.01 L 11.172,47.01 L 11.172,39.947 L 13.453,39.947 L 13.453,57.135 L 11.172,57.135 L 11.172,49.041 L 2.281,49.041 L 2.281,57.135 L 0,57.135 L 0,57.135 z "
   id="path39" />
</g>
<g
   id="g41"
   transform="matrix(0.95,0,0,0.95,5.78865,3.0351)">
	<path
   d="M 15.461,58.229 L 17.039,58.01 C 17.222,58.906 17.531,59.552 17.967,59.948 C 18.404,60.343 18.939,60.541 19.574,60.541 C 20.327,60.541 20.96,60.283 21.473,59.769 C 21.986,59.253 22.242,58.615 22.242,57.853 C 22.242,57.127 22.004,56.529 21.526,56.057 C 21.049,55.585 20.443,55.35 19.707,55.35 C 19.406,55.35 19.032,55.409 18.585,55.526 L 18.762,54.135 C 18.868,54.147 18.953,54.153 19.018,54.153 C 19.692,54.153 20.299,53.978 20.839,53.627 C 21.379,53.276 21.649,52.735 21.649,52.004 C 21.649,51.425 21.452,50.945 21.058,50.566 C 20.664,50.186 20.156,49.996 19.533,49.996 C 18.916,49.996 18.401,50.19 17.99,50.578 C 17.579,50.966 17.314,51.548 17.197,52.324 L 15.619,52.043 C 15.812,50.981 16.253,50.158 16.939,49.575 C 17.625,48.991 18.479,48.699 19.5,48.699 C 20.204,48.699 20.853,48.849 21.445,49.151 C 22.037,49.452 22.49,49.863 22.805,50.383 C 23.118,50.904 23.276,51.456 23.276,52.041 C 23.276,52.597 23.127,53.103 22.828,53.559 C 22.529,54.015 22.087,54.377 21.501,54.647 C 22.263,54.823 22.855,55.188 23.28,55.741 C 23.704,56.296 23.917,56.988 23.917,57.82 C 23.917,58.946 23.506,59.899 22.684,60.681 C 21.862,61.463 20.823,61.855 19.567,61.855 C 18.434,61.855 17.493,61.518 16.745,60.846 C 15.993,60.171 15.566,59.3 15.461,58.229 z "
   id="path43" />
</g>
<g
   id="g45"
   transform="matrix(0.95,0,0,0.95,5.78865,3.0351)">
	<path
   d="M 38.039,51.107 L 40.32,51.681 C 39.844,53.551 38.987,54.977 37.751,55.958 C 36.514,56.939 35.001,57.431 33.214,57.431 C 31.364,57.431 29.86,57.054 28.701,56.299 C 27.542,55.545 26.66,54.451 26.055,53.021 C 25.45,51.59 25.148,50.053 25.148,48.412 C 25.148,46.622 25.489,45.059 26.172,43.726 C 26.855,42.393 27.826,41.379 29.087,40.688 C 30.347,39.997 31.733,39.65 33.247,39.65 C 34.964,39.65 36.407,40.088 37.577,40.964 C 38.748,41.841 39.563,43.072 40.023,44.661 L 37.789,45.188 C 37.391,43.938 36.814,43.028 36.058,42.458 C 35.301,41.888 34.349,41.603 33.203,41.603 C 31.885,41.603 30.783,41.919 29.897,42.552 C 29.012,43.185 28.39,44.034 28.031,45.101 C 27.672,46.168 27.493,47.267 27.493,48.4 C 27.493,49.861 27.705,51.136 28.13,52.226 C 28.555,53.316 29.215,54.13 30.112,54.669 C 31.009,55.208 31.979,55.478 33.024,55.478 C 34.295,55.478 35.37,55.111 36.251,54.376 C 37.132,53.641 37.727,52.553 38.039,51.107 z "
   id="path47" />
</g>
<path
   d="M 71.7063,66.2424 L 71.7063,67.1924 L 70.8988,67.6674 L 47.9563,54.4149 L 48.7638,53.0374 L 71.7063,66.2424 z "
   id="polygon49" />
<g
   id="g51"
   transform="matrix(0.95,0,0,0.95,5.78865,3.0351)">
	<path
   d="M 74.831,110.657 L 77.112,111.231 C 76.636,113.101 75.779,114.527 74.543,115.508 C 73.306,116.489 71.793,116.981 70.006,116.981 C 68.156,116.981 66.652,116.604 65.493,115.849 C 64.334,115.095 63.452,114.001 62.847,112.571 C 62.242,111.14 61.94,109.603 61.94,107.962 C 61.94,106.172 62.281,104.609 62.964,103.276 C 63.647,101.943 64.618,100.929 65.879,100.238 C 67.139,99.547 68.525,99.2 70.039,99.2 C 71.756,99.2 73.199,99.638 74.369,100.514 C 75.54,101.391 76.355,102.622 76.815,104.211 L 74.581,104.738 C 74.183,103.488 73.606,102.578 72.85,102.008 C 72.093,101.438 71.141,101.153 69.995,101.153 C 68.677,101.153 67.575,101.469 66.689,102.102 C 65.804,102.735 65.182,103.584 64.823,104.651 C 64.464,105.718 64.285,106.817 64.285,107.95 C 64.285,109.411 64.497,110.686 64.922,111.776 C 65.347,112.866 66.007,113.68 66.904,114.219 C 67.801,114.758 68.771,115.028 69.816,115.028 C 71.087,115.028 72.162,114.661 73.043,113.926 C 73.924,113.191 74.519,112.103 74.831,110.657 z "
   id="path53" />
	<path
   d="M 80.007,116.685 L 80.007,99.497 L 82.288,99.497 L 82.288,106.56 L 91.179,106.56 L 91.179,99.497 L 93.46,99.497 L 93.46,116.685 L 91.179,116.685 L 91.179,108.591 L 82.288,108.591 L 82.288,116.685 L 80.007,116.685 z "
   id="path55" />
</g>
<g
   id="g57"
   transform="matrix(0.95,0,0,0.95,5.78865,3.0351)">
	<path
   d="M 95.058,117.778 L 96.636,117.559 C 96.819,118.455 97.128,119.101 97.564,119.497 C 98.001,119.892 98.536,120.09 99.171,120.09 C 99.924,120.09 100.557,119.832 101.07,119.318 C 101.583,118.802 101.839,118.164 101.839,117.402 C 101.839,116.676 101.601,116.078 101.123,115.606 C 100.646,115.134 100.04,114.899 99.304,114.899 C 99.003,114.899 98.629,114.958 98.182,115.075 L 98.359,113.684 C 98.465,113.696 98.55,113.702 98.615,113.702 C 99.289,113.702 99.896,113.527 100.436,113.176 C 100.976,112.825 101.246,112.284 101.246,111.553 C 101.246,110.974 101.049,110.494 100.655,110.115 C 100.261,109.735 99.753,109.545 99.13,109.545 C 98.513,109.545 97.998,109.739 97.587,110.127 C 97.176,110.515 96.911,111.097 96.794,111.873 L 95.216,111.592 C 95.409,110.53 95.85,109.707 96.536,109.124 C 97.222,108.54 98.076,108.248 99.097,108.248 C 99.801,108.248 100.45,108.398 101.042,108.7 C 101.634,109.001 102.087,109.412 102.402,109.932 C 102.715,110.453 102.873,111.005 102.873,111.59 C 102.873,112.146 102.724,112.652 102.425,113.108 C 102.126,113.564 101.684,113.926 101.098,114.196 C 101.86,114.372 102.452,114.737 102.877,115.29 C 103.301,115.845 103.514,116.537 103.514,117.369 C 103.514,118.495 103.103,119.448 102.281,120.23 C 101.459,121.012 100.42,121.404 99.164,121.404 C 98.031,121.404 97.09,121.067 96.342,120.395 C 95.59,119.721 95.163,118.85 95.058,117.778 z "
   id="path59" />
</g>
<path
   d="M 72.5138,95.07585 L 70.8988,95.07585 L 70.8988,67.6674 L 71.7063,67.1924 L 72.5138,67.6674 L 72.5138,95.07585 z "
   id="polygon61" />
</svg>