<?xml version="1.0" encoding="UTF-8"?>
<svg xmlns="http://www.w3.org/2000/svg" xmlns:xlink="http://www.w3.org/1999/xlink" width="218pt" height="56pt" viewBox="0 0 218 56" version="1.1">
<g id="surface0">
<path style="stroke: none; fill-rule: evenodd; fill: rgb(0%,0%,0%); opacity: 0;" d="M 168.75 4.5 L 204.75 4.5 L 204.75 27 L 168.75 27 Z M 168.75 4.5 "/>
<path style="fill: none; stroke-width: 0.75; stroke-linecap: butt; stroke-linejoin: miter; stroke: rgb(0%,0%,0%); opacity: 0;stroke-miterlimit: 10;" d="M 168.75 4.5 L 204.75 4.5 L 204.75 27 L 168.75 27 Z M 168.75 4.5 " transform="matrix(1,0,0,1,0,0)"/>
<path style="stroke: none; fill-rule: evenodd; fill: rgb(0%,0%,0%); opacity: 0;" d="M 133.5 24 L 153.75 24 L 153.75 46.5 L 133.5 46.5 Z M 133.5 24 "/>
<path style="fill: none; stroke-width: 0.75; stroke-linecap: butt; stroke-linejoin: miter; stroke: rgb(0%,0%,0%); opacity: 0;stroke-miterlimit: 10;" d="M 133.5 24 L 153.75 24 L 153.75 46.5 L 133.5 46.5 Z M 133.5 24 " transform="matrix(1,0,0,1,0,0)"/>
<path style="stroke: none; fill-rule: evenodd; fill: rgb(0%,0%,0%); opacity: 0;" d="M 30 4.5 L 50.25 4.5 L 50.25 27 L 30 27 Z M 30 4.5 "/>
<path style="fill: none; stroke-width: 0.75; stroke-linecap: butt; stroke-linejoin: miter; stroke: rgb(0%,0%,0%); opacity: 0;stroke-miterlimit: 10;" d="M 30 4.5 L 50.25 4.5 L 50.25 27 L 30 27 Z M 30 4.5 " transform="matrix(1,0,0,1,0,0)"/>
<path style="fill: none; stroke-width: 1.700787; stroke-linecap: butt; stroke-linejoin: round; stroke: rgb(0%,0%,0%); opacity: 1;stroke-miterlimit: 10;" d="M 168 23.630402 L 154.5 31.426346 " transform="matrix(1,0,0,1,0,0)"/>
<path style="fill: none; stroke-width: 1.700787; stroke-linecap: butt; stroke-linejoin: round; stroke: rgb(0%,0%,0%); opacity: 1;stroke-miterlimit: 10;" d="M 132.75 31.703537 L 109.020004 18 " transform="matrix(1,0,0,1,0,0)"/>
<path style="fill: none; stroke-width: 1.700787; stroke-linecap: butt; stroke-linejoin: round; stroke: rgb(0%,0%,0%); opacity: 1;stroke-miterlimit: 10;" d="M 29.25 24.375351 L 5.925003 37.845001 " transform="matrix(1,0,0,1,0,0)"/>
<path style="fill: none; stroke-width: 1.700787; stroke-linecap: butt; stroke-linejoin: round; stroke: rgb(0%,0%,0%); opacity: 1;stroke-miterlimit: 10;" d="M 74.654999 37.845001 L 51 24.184784 " transform="matrix(1,0,0,1,0,0)"/>
<path style="fill: none; stroke-width: 1.700787; stroke-linecap: round; stroke-linejoin: round; stroke: rgb(0%,0%,0%); opacity: 1;stroke-miterlimit: 10;" d="M 109.020004 18 L 74.654999 37.845001 " transform="matrix(1,0,0,1,0,0)"/>
<path style="stroke: none; fill-rule: evenodd; fill: rgb(0%,0%,0%); opacity: 1;" d="M 183.686722 20.227371 L 185.959854 20.801514 C 185.483353 22.668457 184.626038 24.092102 183.387924 25.072418 C 182.149811 26.052765 180.636353 26.542923 178.847534 26.542923 C 176.996216 26.542923 175.490555 26.166031 174.330551 25.412216 C 173.170547 24.658432 172.287842 23.566772 171.682465 22.137268 C 171.077057 20.707779 170.774368 19.172836 170.774384 17.532425 C 170.774368 15.743607 171.116119 14.183273 171.799637 12.85141 C 172.483124 11.519562 173.455643 10.50798 174.717209 9.816666 C 175.978745 9.125366 177.367233 8.779709 178.882675 8.779694 C 180.601181 8.779709 182.04631 9.217148 183.218033 10.09201 C 184.389755 10.966904 185.206055 12.197205 185.666931 13.782928 L 183.42894 14.310196 C 183.030548 13.060364 182.452499 12.15033 181.694809 11.580093 C 180.937088 11.009857 179.9841 10.724747 178.835815 10.724731 C 177.515671 10.724747 176.412292 11.041107 175.525696 11.673828 C 174.639084 12.306564 174.016129 13.156067 173.656815 14.222321 C 173.297485 15.288605 173.117813 16.388062 173.117828 17.520706 C 173.117813 18.981445 173.330673 20.256668 173.756409 21.346359 C 174.182129 22.436081 174.844162 23.250427 175.742477 23.789398 C 176.640793 24.3284 177.613312 24.597885 178.660049 24.597885 C 179.933304 24.597885 181.011276 24.230759 181.893982 23.496475 C 182.776672 22.762207 183.374252 21.672501 183.686722 20.227371 Z M 188.500854 26.25 L 188.500854 9.072617 L 190.773987 9.072617 L 190.773987 16.126358 L 199.702484 16.126358 L 199.702484 9.072617 L 201.975616 9.072617 L 201.975616 26.25 L 199.702484 26.25 L 199.702484 18.153427 L 190.773987 18.153427 L 190.773987 26.25 Z M 203.908951 26.25 "/>
<path style="stroke: none; fill-rule: evenodd; fill: rgb(0%,0%,0%); opacity: 1;" d="M 203.636093 32.683167 L 205.178802 32.477463 C 205.355927 33.351669 205.657333 33.981613 206.083008 34.367294 C 206.508682 34.752975 207.027206 34.945816 207.63858 34.945816 C 208.364212 34.945816 208.977005 34.694412 209.476974 34.191605 C 209.976913 33.688797 210.226898 33.065994 210.226913 32.323196 C 210.226898 31.6147 209.995483 31.030472 209.532684 30.570496 C 209.069855 30.11055 208.481354 29.880569 207.767151 29.880554 C 207.475739 29.880569 207.1129 29.937714 206.678665 30.051971 L 206.850082 28.697815 C 206.952927 28.709259 207.035782 28.714966 207.098633 28.714951 C 207.755707 28.714966 208.347076 28.543549 208.872757 28.200714 C 209.398407 27.857895 209.66124 27.329376 209.661255 26.615143 C 209.66124 26.049484 209.469833 25.580963 209.087021 25.209564 C 208.704193 24.838181 208.209946 24.652481 207.604309 24.652466 C 207.004349 24.652481 206.504395 24.841034 206.104446 25.218124 C 205.704468 25.595245 205.447357 26.160904 205.333084 26.915115 L 203.790359 26.640854 C 203.978897 25.606674 204.40744 24.805313 205.075958 24.236786 C 205.744461 23.668274 206.575806 23.384018 207.570023 23.384003 C 208.255661 23.384018 208.887039 23.531143 209.464127 23.825394 C 210.041214 24.119659 210.482605 24.521057 210.7883 25.029572 C 211.093979 25.538116 211.246811 26.078064 211.246826 26.649429 C 211.246811 27.192245 211.10112 27.686493 210.809723 28.132156 C 210.518311 28.577835 210.086914 28.932083 209.515564 29.194901 C 210.258331 29.366333 210.835419 29.722015 211.246826 30.261963 C 211.658203 30.801926 211.863907 31.47757 211.863907 32.28891 C 211.863907 33.385956 211.463943 34.315872 210.664017 35.078659 C 209.86409 35.841446 208.852753 36.222839 207.63002 36.222839 C 206.527252 36.222839 205.611618 35.894302 204.883118 35.237213 C 204.154602 34.580139 203.738922 33.72879 203.636093 32.683167 Z M 212.66098 36 "/>
<path style="stroke: none; fill-rule: evenodd; fill: rgb(0%,0%,0%); opacity: 0;" d="M 168.75 4.5 L 204.75 4.5 L 204.75 31.5 L 168.75 31.5 Z M 168.75 4.5 "/>
<path style="fill: none; stroke-width: 0.75; stroke-linecap: round; stroke-linejoin: miter; stroke: rgb(0%,0%,0%); opacity: 0;stroke-miterlimit: 10;" d="M 168.75 4.5 L 204.75 4.5 L 204.75 31.5 L 168.75 31.5 Z M 168.75 4.5 " transform="matrix(1,0,0,1,0,0)"/>
<path style="stroke: none; fill-rule: evenodd; fill: rgb(0%,0%,0%); opacity: 1;" d="M 135.036255 37.383942 C 135.03624 34.532761 135.801758 32.300644 137.332809 30.687576 C 138.863846 29.074524 140.840149 28.26799 143.261719 28.267975 C 144.847427 28.26799 146.276932 28.646835 147.550201 29.404541 C 148.823456 30.162262 149.794022 31.218765 150.461914 32.574036 C 151.129776 33.929337 151.463715 35.466232 151.46373 37.184738 C 151.463715 38.926697 151.112198 40.485092 150.40918 41.859894 C 149.706146 43.234726 148.71019 44.275604 147.42131 44.982529 C 146.132416 45.689468 144.741974 46.042923 143.25 46.042923 C 141.633011 46.042923 140.187897 45.652359 138.914642 44.871216 C 137.641373 44.090073 136.676651 43.023804 136.020493 41.672424 C 135.364319 40.321045 135.03624 38.891556 135.036255 37.383942 Z M 137.379684 37.419083 C 137.379669 39.489136 137.936234 41.119781 139.049377 42.31102 C 140.162506 43.502274 141.558807 44.097885 143.238281 44.097885 C 144.948975 44.097885 146.356995 43.496414 147.462311 42.293442 C 148.567627 41.090485 149.120285 39.383667 149.1203 37.173019 C 149.120285 35.77478 148.883987 34.554245 148.411407 33.511414 C 147.938797 32.468582 147.247482 31.660095 146.337463 31.085953 C 145.427414 30.51181 144.406067 30.224747 143.273422 30.224731 C 141.664261 30.224747 140.279678 30.777405 139.11969 31.882721 C 137.959671 32.988052 137.379669 34.833511 137.379684 37.419083 Z M 152.541718 45.75 "/>
<path style="stroke: none; fill-rule: evenodd; fill: rgb(0%,0%,0%); opacity: 0;" d="M 133.5 24 L 153.75 24 L 153.75 51 L 133.5 51 Z M 133.5 24 "/>
<path style="fill: none; stroke-width: 0.75; stroke-linecap: round; stroke-linejoin: miter; stroke: rgb(0%,0%,0%); opacity: 0;stroke-miterlimit: 10;" d="M 133.5 24 L 153.75 24 L 153.75 51 L 133.5 51 Z M 133.5 24 " transform="matrix(1,0,0,1,0,0)"/>
<path style="stroke: none; fill-rule: evenodd; fill: rgb(0%,0%,0%); opacity: 1;" d="M 31.536255 17.883942 C 31.53624 15.032761 32.301758 12.800644 33.832809 11.187576 C 35.363846 9.574524 37.340149 8.76799 39.761719 8.767975 C 41.347427 8.76799 42.776932 9.146835 44.050201 9.904541 C 45.323456 10.662262 46.294022 11.718765 46.961914 13.074036 C 47.629776 14.429337 47.963715 15.966232 47.96373 17.684738 C 47.963715 19.426697 47.612198 20.985092 46.90918 22.359894 C 46.206146 23.734726 45.21019 24.775604 43.92131 25.482529 C 42.632416 26.189468 41.241974 26.542923 39.75 26.542923 C 38.133011 26.542923 36.687897 26.152359 35.414642 25.371216 C 34.141373 24.590073 33.176651 23.523804 32.520493 22.172424 C 31.864319 20.821045 31.53624 19.391556 31.536255 17.883942 Z M 33.879684 17.919083 C 33.879669 19.989136 34.436234 21.619781 35.549377 22.81102 C 36.662506 24.002274 38.058807 24.597885 39.738281 24.597885 C 41.448975 24.597885 42.856995 23.996414 43.962311 22.793442 C 45.067627 21.590485 45.620285 19.883667 45.6203 17.673019 C 45.620285 16.27478 45.383987 15.054245 44.911407 14.011414 C 44.438797 12.968582 43.747482 12.160095 42.837463 11.585953 C 41.927414 11.01181 40.906067 10.724747 39.773422 10.724731 C 38.164261 10.724747 36.779678 11.277405 35.61969 12.382721 C 34.459671 13.488052 33.879669 15.333511 33.879684 17.919083 Z M 49.041718 26.25 "/>
<path style="stroke: none; fill-rule: evenodd; fill: rgb(0%,0%,0%); opacity: 0;" d="M 30 4.5 L 50.25 4.5 L 50.25 31.5 L 30 31.5 Z M 30 4.5 "/>
<path style="fill: none; stroke-width: 0.75; stroke-linecap: round; stroke-linejoin: miter; stroke: rgb(0%,0%,0%); opacity: 0;stroke-miterlimit: 10;" d="M 30 4.5 L 50.25 4.5 L 50.25 31.5 L 30 31.5 Z M 30 4.5 " transform="matrix(1,0,0,1,0,0)"/>
</g>
</svg>
