<?xml version="1.0" encoding="UTF-8" standalone="no"?>
<svg
   xmlns:cdml="http://www.freesoftware.fsf.org/bkchem/cdml"
   xmlns:dc="http://purl.org/dc/elements/1.1/"
   xmlns:cc="http://creativecommons.org/ns#"
   xmlns:rdf="http://www.w3.org/1999/02/22-rdf-syntax-ns#"
   xmlns:svg="http://www.w3.org/2000/svg"
   xmlns="http://www.w3.org/2000/svg"
   xmlns:sodipodi="http://sodipodi.sourceforge.net/DTD/sodipodi-0.dtd"
   xmlns:inkscape="http://www.inkscape.org/namespaces/inkscape"
   height="48.69531mm"
   version="1.0"
   viewBox="0 0 339 184"
   width="89.71582mm"
   id="svg3059"
   inkscape:version="0.48.1 "
   sodipodi:docname="mes.svg">
  <metadata
     id="metadata3131">
    <rdf:RDF>
      <cc:Work
         rdf:about="">
        <dc:format>image/svg+xml</dc:format>
        <dc:type
           rdf:resource="http://purl.org/dc/dcmitype/StillImage" />
        <dc:title></dc:title>
      </cc:Work>
    </rdf:RDF>
  </metadata>
  <defs
     id="defs3129" />
  <sodipodi:namedview
     pagecolor="#ffffff"
     bordercolor="#666666"
     borderopacity="1"
     objecttolerance="10"
     gridtolerance="10"
     guidetolerance="10"
     inkscape:pageopacity="0"
     inkscape:pageshadow="2"
     inkscape:window-width="640"
     inkscape:window-height="480"
     id="namedview3127"
     showgrid="false"
     inkscape:zoom="1.5242627"
     inkscape:cx="158.94536"
     inkscape:cy="86.271217"
     inkscape:window-x="0"
     inkscape:window-y="0"
     inkscape:window-maximized="0"
     inkscape:current-layer="svg3059" />
  <g
     font-family="Helvetica"
     font-size="12pt"
     stroke-linecap="round"
     transform="translate(-247,-152)"
     id="g3061">
    <g
       stroke="#000000"
       stroke-linecap="butt"
       stroke-width="2.26715867159"
       id="g3063">
      <path
         style=""
         d="m 505.26999,277.5 8.09,14"
         id="line3065" />
      <path
         style=""
         d="m 500.07999,280.5 8.08001,14"
         id="line3067" />
    </g>
    <g
       stroke="#000000"
       stroke-width="2.26715867159"
       id="g3069">
      <path
         style=""
         d="M 403.81,266.45001 449.62,240"
         id="line3071" />
    </g>
    <g
       stroke="#000000"
       stroke-linecap="butt"
       stroke-width="2.26715867159"
       id="g3073">
      <path
         style=""
         d="m 490.78,280.5 -8.07999,14"
         id="line3075" />
      <path
         style=""
         d="m 485.59,277.5 -8.09,14"
         id="line3077" />
    </g>
    <g
       stroke="#000000"
       stroke-width="2.26715867159"
       id="g3079">
      <path
         style=""
         d="m 266.38,240.03 45.82001,26.45001"
         id="line3081" />
    </g>
    <g
       stroke="#000000"
       stroke-width="2.26715867159"
       id="g3083">
      <path
         style=""
         d="M 357.94,187.10001 312.12,160.64999"
         id="line3085" />
    </g>
    <g
       stroke="#000000"
       stroke-width="2.26715867159"
       id="g3087">
      <path
         style=""
         d="M 449.62,240 483,259.26999"
         id="line3089" />
    </g>
    <g
       stroke="#000000"
       stroke-width="2.26715867159"
       id="g3091">
      <path
         style=""
         d="m 266.34,200 0.04,40.03"
         id="line3093" />
    </g>
    <g
       stroke="#000000"
       stroke-width="2.26715867159"
       id="g3095">
      <path
         style=""
         d="M 312.12,160.64999 281,178.64"
         id="line3097" />
    </g>
    <g
       stroke="#000000"
       stroke-width="2.26715867159"
       id="g3099">
      <path
         style=""
         d="M 403.81,266.45001 371,247.50999"
         id="line3101" />
    </g>
    <g
       stroke="#000000"
       stroke-width="2.26715867159"
       id="g3103">
      <path
         style=""
         d="m 357.97,221 -0.03,-33.89999"
         id="line3105" />
    </g>
    <g
       stroke="#000000"
       stroke-linecap="butt"
       stroke-width="2.26715867159"
       id="g3107">
      <path
         style=""
         d="m 508,260.41 21,-10.08"
         id="line3109" />
    </g>
    <g
       stroke="#000000"
       stroke-width="2.26715867159"
       id="g3111">
      <path
         style=""
         d="M 312.20001,266.48001 344,248.09"
         id="line3113" />
    </g>
    <g
       style="font-size:30px;fill:#000000;font-family:helvetica"
       id="text3115">
      <path
         d="m 485.64764,266.5506 2.68067,-0.23438 c 0.12695,1.07423 0.42236,1.95557 0.88623,2.64405 0.46386,0.68848 1.18407,1.24512 2.16064,1.66992 0.97656,0.42481 2.07519,0.63721 3.2959,0.63721 1.08397,0 2.041,-0.16114 2.8711,-0.4834 0.83006,-0.32227 1.44773,-0.76416 1.85302,-1.32569 0.40526,-0.56152 0.6079,-1.17431 0.60791,-1.83838 -10e-6,-0.67382 -0.19533,-1.2622 -0.58593,-1.76513 -0.39064,-0.50292 -1.03518,-0.92529 -1.9336,-1.26709 -0.57618,-0.2246 -1.8506,-0.57372 -3.82324,-1.04737 -1.97266,-0.47362 -3.3545,-0.9204 -4.14551,-1.34033 -1.02539,-0.5371 -1.78955,-1.2036 -2.29248,-1.99951 -0.50293,-0.79588 -0.7544,-1.687 -0.75439,-2.67334 -1e-5,-1.08397 0.30761,-2.09715 0.92285,-3.03955 0.61523,-0.94236 1.51367,-1.65769 2.69531,-2.146 1.18163,-0.48826 2.49511,-0.7324 3.94043,-0.73242 1.59179,2e-5 2.99559,0.25637 4.21143,0.76904 1.2158,0.51272 2.15086,1.26711 2.80517,2.26319 0.65428,0.99611 1.00584,2.12404 1.05469,3.38379 l -2.72461,0.20508 c -0.1465,-1.35741 -0.6421,-2.3828 -1.48682,-3.07618 -0.84474,-0.69334 -2.09229,-1.04002 -3.74267,-1.04004 -1.71876,2e-5 -2.9712,0.31497 -3.75733,0.94483 -0.78613,0.6299 -1.1792,1.38918 -1.1792,2.27783 0,0.7715 0.27832,1.40627 0.83497,1.9043 0.54686,0.49806 1.97509,1.00831 4.28466,1.53076 2.30956,0.52247 3.89403,0.97902 4.75342,1.36963 1.24999,0.57618 2.17284,1.30616 2.76856,2.18994 0.59568,0.8838 0.89353,1.90186 0.89355,3.0542 -2e-5,1.14258 -0.32717,2.21924 -0.98144,3.22998 -0.65432,1.01074 -1.59426,1.79688 -2.81983,2.3584 -1.2256,0.56152 -2.60499,0.84228 -4.13818,0.84228 -1.94337,0 -3.57179,-0.2832 -4.88526,-0.84961 -1.31348,-0.5664 -2.34375,-1.41845 -3.09082,-2.55615 -0.74707,-1.13769 -1.14013,-2.42431 -1.1792,-3.85986 z"
         style="font-size:30px;fill:#000000;font-family:helvetica"
         id="path3148" />
    </g>
    <g
       style="font-size:30px;fill:#000000;font-family:helvetica"
       id="text3117">
      <path
         d="m 456.75018,308.80103 c 0,-3.56444 0.95703,-6.35497 2.8711,-8.37159 1.91405,-2.01658 4.38475,-3.02488 7.41211,-3.0249 1.9824,2e-5 3.76951,0.47366 5.36132,1.4209 1.59178,0.94728 2.80516,2.26808 3.64014,3.9624 0.83494,1.69435 1.25242,3.61574 1.25244,5.76416 -2e-5,2.17774 -0.43947,4.12599 -1.31836,5.84473 -0.87892,1.71875 -2.12404,3.02002 -3.73535,3.90381 -1.61134,0.88379 -3.34962,1.32568 -5.21484,1.32568 -2.0215,0 -3.82814,-0.48828 -5.41992,-1.46484 -1.59181,-0.97656 -2.79786,-2.30957 -3.61817,-3.99903 -0.82031,-1.68944 -1.23047,-3.47655 -1.23047,-5.36132 z m 2.92969,0.0439 c 0,2.5879 0.6958,4.62647 2.0874,6.11572 1.3916,1.48926 3.1372,2.23389 5.23682,2.23389 2.13866,0 3.89891,-0.75195 5.28076,-2.25586 1.38182,-1.5039 2.07274,-3.63769 2.07275,-6.40137 -10e-6,-1.74803 -0.29542,-3.27391 -0.88623,-4.57763 -0.59083,-1.3037 -1.45509,-2.31444 -2.59277,-3.03223 -1.13771,-0.71775 -2.41456,-1.07664 -3.83057,-1.07666 -2.01172,2e-5 -3.74268,0.69094 -5.19287,2.07275 -1.4502,1.38186 -2.17529,3.68898 -2.17529,6.92139 z"
         style="font-size:30px;fill:#000000;font-family:helvetica"
         id="path3151" />
    </g>
    <g
       style="font-size:30px;fill:#000000;font-family:helvetica"
       id="text3119">
      <path
         d="m 509.75018,308.80103 c 0,-3.56444 0.95703,-6.35497 2.8711,-8.37159 1.91405,-2.01658 4.38475,-3.02488 7.41211,-3.0249 1.9824,2e-5 3.76951,0.47366 5.36132,1.4209 1.59178,0.94728 2.80516,2.26808 3.64014,3.9624 0.83494,1.69435 1.25242,3.61574 1.25244,5.76416 -2e-5,2.17774 -0.43947,4.12599 -1.31836,5.84473 -0.87892,1.71875 -2.12404,3.02002 -3.73535,3.90381 -1.61134,0.88379 -3.34962,1.32568 -5.21484,1.32568 -2.0215,0 -3.82814,-0.48828 -5.41992,-1.46484 -1.59181,-0.97656 -2.79786,-2.30957 -3.61817,-3.99903 -0.82031,-1.68944 -1.23047,-3.47655 -1.23047,-5.36132 z m 2.92969,0.0439 c 0,2.5879 0.6958,4.62647 2.0874,6.11572 1.3916,1.48926 3.1372,2.23389 5.23682,2.23389 2.13866,0 3.89891,-0.75195 5.28076,-2.25586 1.38182,-1.5039 2.07274,-3.63769 2.07275,-6.40137 -1e-5,-1.74803 -0.29542,-3.27391 -0.88623,-4.57763 -0.59083,-1.3037 -1.45509,-2.31444 -2.59277,-3.03223 -1.13771,-0.71775 -2.41456,-1.07664 -3.83057,-1.07666 -2.01172,2e-5 -3.74268,0.69094 -5.19287,2.07275 -1.4502,1.38186 -2.17529,3.68898 -2.17529,6.92139 z"
         style="font-size:30px;fill:#000000;font-family:helvetica"
         id="path3154" />
    </g>
    <g
       style="font-size:30px;fill:#000000;font-family:helvetica"
       id="text3121">
      <path
         d="m 531.75018,239.99101 c 0,-3.56444 0.95703,-6.35496 2.8711,-8.37158 1.91405,-2.01658 4.38475,-3.02488 7.41211,-3.0249 1.9824,2e-5 3.76951,0.47365 5.36132,1.4209 1.59178,0.94728 2.80516,2.26808 3.64014,3.9624 0.83494,1.69435 1.25242,3.61573 1.25244,5.76416 -2e-5,2.17774 -0.43947,4.12598 -1.31836,5.84473 -0.87892,1.71875 -2.12404,3.02002 -3.73535,3.9038 -1.61134,0.88379 -3.34962,1.32569 -5.21484,1.32569 -2.0215,0 -3.82814,-0.48828 -5.41992,-1.46485 -1.59181,-0.97656 -2.79786,-2.30956 -3.61817,-3.99902 -0.82031,-1.68945 -1.23047,-3.47655 -1.23047,-5.36133 z m 2.92969,0.044 c 0,2.5879 0.6958,4.62647 2.0874,6.11572 1.3916,1.48926 3.1372,2.23389 5.23682,2.23389 2.13866,0 3.89891,-0.75195 5.28076,-2.25586 1.38182,-1.5039 2.07274,-3.63769 2.07275,-6.40137 -1e-5,-1.74803 -0.29542,-3.27391 -0.88623,-4.57764 -0.59083,-1.30369 -1.45509,-2.31443 -2.59277,-3.03222 -1.13771,-0.71776 -2.41456,-1.07664 -3.83057,-1.07666 -2.01172,2e-5 -3.74268,0.69093 -5.19287,2.07275 -1.4502,1.38185 -2.17529,3.68898 -2.17529,6.92139 z"
         style="font-size:30px;fill:#000000;font-family:helvetica"
         id="path3157" />
      <path
         d="m 556.02264,250.45 0,-21.47461 2.8418,0 0,8.81836 11.16211,0 0,-8.81836 2.8418,0 0,21.47461 -2.8418,0 0,-10.12207 -11.16211,0 0,10.12207 z"
         style="font-size:30px;fill:#000000;font-family:helvetica"
         id="path3159" />
    </g>
    <g
       style="font-size:30px;fill:#000000;font-family:helvetica"
       id="text3123">
      <path
         d="m 347.58514,247 0,-21.47461 2.91504,0 11.2793,16.86035 0,-16.86035 2.72461,0 0,21.47461 -2.91504,0 -11.2793,-16.875 0,16.875 z"
         style="font-size:30px;fill:#000000;font-family:helvetica"
         id="path3162" />
    </g>
    <g
       style="font-size:30px;fill:#000000;font-family:helvetica"
       id="text3125">
      <path
         d="m 254.7502,183.67102 c 0,-3.56444 0.95703,-6.35496 2.87109,-8.37158 1.91406,-2.01658 4.38476,-3.02488 7.41211,-3.0249 1.98241,2e-5 3.76952,0.47365 5.36133,1.42089 1.59178,0.94729 2.80516,2.26809 3.64014,3.96241 0.83494,1.69435 1.25242,3.61573 1.25244,5.76416 -2e-5,2.17774 -0.43948,4.12598 -1.31836,5.84472 -0.87893,1.71876 -2.12404,3.02003 -3.73535,3.90381 -1.61135,0.88379 -3.34963,1.32569 -5.21485,1.32569 -2.02149,0 -3.82813,-0.48829 -5.41992,-1.46485 -1.5918,-0.97656 -2.79785,-2.30956 -3.61816,-3.99902 -0.82032,-1.68945 -1.23047,-3.47656 -1.23047,-5.36133 z m 2.92969,0.0439 c -10e-6,2.58789 0.69579,4.62647 2.0874,6.11572 1.39159,1.48926 3.1372,2.23389 5.23681,2.23389 2.13866,0 3.89891,-0.75196 5.28077,-2.25586 1.38181,-1.5039 2.07273,-3.63769 2.07275,-6.40137 -2e-5,-1.74804 -0.29543,-3.27391 -0.88623,-4.57764 -0.59084,-1.30369 -1.4551,-2.31443 -2.59277,-3.03222 -1.13771,-0.71776 -2.41457,-1.07665 -3.83057,-1.07666 -2.01173,1e-5 -3.74268,0.69093 -5.19287,2.07275 -1.4502,1.38185 -2.1753,3.68898 -2.17529,6.92139 z"
         style="font-size:30px;fill:#000000;font-family:helvetica"
         id="path3165" />
    </g>
  </g>
  <cdml:cdml
     version="0.15">
    <cdml:info>
      <cdml:author_program
         version="0.13.0">BKchem</cdml:author_program>
    </cdml:info>
    <cdml:paper
       crop_margin="5"
       crop_svg="1"
       orientation="portrait"
       replace_minus="0"
       type="Legal"
       use_real_minus="0" />
    <cdml:viewport
       viewport="0.000000 0.000000 640.000000 480.000000" />
    <cdml:standard
       area_color=""
       font_family="helvetica"
       font_size="24"
       line_color="#000"
       line_width="0.06cm"
       paper_crop_margin="5"
       paper_crop_svg="1"
       paper_orientation="portrait"
       paper_type="Legal">
      <cdml:bond
         double-ratio="0.85"
         length="1.4cm"
         wedge-width="0.18cm"
         width="0.21cm" />
      <cdml:arrow
         length="1.6cm" />
      <cdml:atom
         show_hydrogens="0" />
    </cdml:standard>
    <cdml:molecule
       id="molecule75911"
       name="">
      <cdml:atom
         id="atom58790"
         name="C"
         valency="4">
        <cdml:point
           x="10.687cm"
           y="7.052cm" />
      </cdml:atom>
      <cdml:atom
         id="atom68943"
         name="C"
         valency="4">
        <cdml:point
           x="11.899cm"
           y="6.352cm" />
      </cdml:atom>
      <cdml:atom
         id="atom76243"
         name="S"
         pos="center-first"
         valency="6">
        <cdml:point
           x="13.111cm"
           y="7.052cm" />
      </cdml:atom>
      <cdml:atom
         id="atom20376"
         name="O"
         pos="center-first"
         valency="2">
        <cdml:point
           x="12.411cm"
           y="8.264cm" />
      </cdml:atom>
      <cdml:atom
         id="atom24950"
         name="O"
         pos="center-first"
         valency="2">
        <cdml:point
           x="13.811cm"
           y="8.264cm" />
      </cdml:atom>
      <cdml:atom
         hydrogens="on"
         id="atom4264"
         name="O"
         pos="center-first"
         valency="2">
        <cdml:point
           x="14.379cm"
           y="6.443cm" />
      </cdml:atom>
      <cdml:atom
         id="atom38947"
         name="C"
         valency="4">
        <cdml:point
           x="7.050cm"
           y="6.352cm" />
      </cdml:atom>
      <cdml:atom
         id="atom4987"
         name="C"
         valency="4">
        <cdml:point
           x="8.262cm"
           y="7.052cm" />
      </cdml:atom>
      <cdml:atom
         id="atom53019"
         name="C"
         valency="4">
        <cdml:point
           x="9.473cm"
           y="4.952cm" />
      </cdml:atom>
      <cdml:atom
         id="atom27530"
         name="C"
         valency="4">
        <cdml:point
           x="8.260cm"
           y="4.252cm" />
      </cdml:atom>
      <cdml:atom
         id="atom4579"
         name="N"
         pos="center-first"
         valency="3">
        <cdml:point
           x="9.474cm"
           y="6.352cm" />
      </cdml:atom>
      <cdml:atom
         id="atom46897"
         name="O"
         pos="center-first"
         valency="2">
        <cdml:point
           x="7.048cm"
           y="4.952cm" />
      </cdml:atom>
      <cdml:bond
         bond_width="7.93505535055"
         center="yes"
         double_ratio="0.85"
         end="atom24950"
         id="bond66923"
         line_width="2.26715867159"
         start="atom76243"
         type="n2" />
      <cdml:bond
         double_ratio="0.85"
         end="atom68943"
         id="bond63308"
         line_width="2.26715867159"
         start="atom58790"
         type="n1" />
      <cdml:bond
         bond_width="7.93505535055"
         center="yes"
         double_ratio="0.85"
         end="atom20376"
         id="bond36167"
         line_width="2.26715867159"
         start="atom76243"
         type="n2" />
      <cdml:bond
         double_ratio="0.85"
         end="atom4987"
         id="bond23338"
         line_width="2.26715867159"
         start="atom38947"
         type="n1" />
      <cdml:bond
         double_ratio="0.85"
         end="atom27530"
         id="bond43924"
         line_width="2.26715867159"
         start="atom53019"
         type="n1" />
      <cdml:bond
         double_ratio="0.85"
         end="atom76243"
         id="bond87495"
         line_width="2.26715867159"
         start="atom68943"
         type="n1" />
      <cdml:bond
         double_ratio="0.85"
         end="atom38947"
         id="bond49846"
         line_width="2.26715867159"
         start="atom46897"
         type="n1" />
      <cdml:bond
         double_ratio="0.85"
         end="atom46897"
         id="bond59817"
         line_width="2.26715867159"
         start="atom27530"
         type="n1" />
      <cdml:bond
         double_ratio="0.85"
         end="atom4579"
         id="bond20364"
         line_width="2.26715867159"
         start="atom58790"
         type="n1" />
      <cdml:bond
         double_ratio="0.85"
         end="atom53019"
         id="bond73764"
         line_width="2.26715867159"
         start="atom4579"
         type="n1" />
      <cdml:bond
         double_ratio="0.85"
         end="atom4264"
         id="bond48160"
         line_width="2.26715867159"
         start="atom76243"
         type="n1" />
      <cdml:bond
         double_ratio="0.85"
         end="atom4579"
         id="bond39741"
         line_width="2.26715867159"
         start="atom4987"
         type="n1" />
    </cdml:molecule>
  </cdml:cdml>
</svg>
