<?xml version="1.0" encoding="UTF-8" standalone="no"?>
<!-- Generator: Adobe Illustrator 12.0.1, SVG Export Plug-In . SVG Version: 6.00 Build 51448)  -->
<svg
   xmlns:dc="http://purl.org/dc/elements/1.1/"
   xmlns:cc="http://web.resource.org/cc/"
   xmlns:rdf="http://www.w3.org/1999/02/22-rdf-syntax-ns#"
   xmlns:svg="http://www.w3.org/2000/svg"
   xmlns="http://www.w3.org/2000/svg"
   xmlns:sodipodi="http://sodipodi.sourceforge.net/DTD/sodipodi-0.dtd"
   xmlns:inkscape="http://www.inkscape.org/namespaces/inkscape"
   version="1.1"
   id="Layer_1"
   width="265.896"
   height="121.185"
   viewBox="0 0 265.896 121.185"
   style="overflow:visible;enable-background:new 0 0 265.896 121.185;"
   xml:space="preserve"
   sodipodi:version="0.32"
   inkscape:version="0.45.1"
   sodipodi:docname="L-Methionin.svg"
   inkscape:output_extension="org.inkscape.output.svg.inkscape"
   sodipodi:docbase="C:\"><metadata
   id="metadata60"><rdf:RDF><cc:Work
       rdf:about=""><dc:format>image/svg+xml</dc:format><dc:type
         rdf:resource="http://purl.org/dc/dcmitype/StillImage" /></cc:Work></rdf:RDF></metadata><defs
   id="defs58" /><sodipodi:namedview
   inkscape:window-height="579"
   inkscape:window-width="801"
   inkscape:pageshadow="2"
   inkscape:pageopacity="0.0"
   guidetolerance="10.0"
   gridtolerance="10.0"
   objecttolerance="10.0"
   borderopacity="1.0"
   bordercolor="#666666"
   pagecolor="#ffffff"
   id="base"
   inkscape:zoom="2.696543"
   inkscape:cx="132.948"
   inkscape:cy="60.592499"
   inkscape:window-x="66"
   inkscape:window-y="66"
   inkscape:current-layer="Layer_1" />
<path
   d="M 137.83005,49.280375 L 137.83005,47.426925 L 170.511,66.236925 L 170.511,67.186925 L 169.65505,67.614425 L 137.83005,49.280375 z "
   id="polygon3" />
<path
   d="M 171.36505,67.614425 L 170.511,67.186925 L 170.511,66.236925 L 203.14255,47.426925 L 203.14255,49.280375 L 171.36505,67.614425 z "
   id="polygon5" />
<g
   id="g7"
   transform="matrix(0.95,0,0,0.95,6.6474,3.029625)">
	<path
   d="M 232.994,68.619 C 232.994,65.766 233.76,63.534 235.292,61.921 C 236.824,60.307 238.802,59.5 241.225,59.5 C 242.812,59.5 244.242,59.879 245.516,60.637 C 246.79,61.396 247.761,62.452 248.429,63.808 C 249.098,65.163 249.432,66.702 249.432,68.42 C 249.432,70.163 249.08,71.722 248.376,73.097 C 247.673,74.472 246.677,75.514 245.387,76.221 C 244.097,76.928 242.706,77.282 241.213,77.282 C 239.595,77.282 238.149,76.891 236.875,76.11 C 235.601,75.329 234.636,74.261 233.979,72.91 C 233.322,71.558 232.994,70.128 232.994,68.619 z M 235.337,68.648 C 235.337,70.718 235.894,72.349 237.008,73.541 C 238.122,74.733 239.52,75.328 241.2,75.328 C 242.912,75.328 244.321,74.726 245.428,73.523 C 246.533,72.32 247.087,70.613 247.087,68.402 C 247.087,67.004 246.851,65.783 246.377,64.74 C 245.904,63.697 245.213,62.888 244.302,62.314 C 243.391,61.74 242.369,61.453 241.236,61.453 C 239.626,61.453 238.24,62.006 237.079,63.111 C 235.918,64.216 235.337,66.063 235.337,68.648 z "
   id="path9" />
	<path
   d="M 252.443,76.984 L 252.443,59.797 L 254.724,59.797 L 254.724,66.86 L 263.615,66.86 L 263.615,59.797 L 265.896,59.797 L 265.896,76.985 L 263.615,76.985 L 263.615,68.891 L 254.724,68.891 L 254.724,76.985 L 252.443,76.985 L 252.443,76.984 z "
   id="path11" />
</g>
<path
   d="M 203.14255,49.280375 L 203.14255,47.426925 L 227.60505,61.534425 L 226.7985,62.959425 L 203.14255,49.280375 z "
   id="polygon13" />
<g
   id="g15"
   transform="matrix(0.95,0,0,0.95,6.6474,3.029625)">
	<path
   d="M 198.594,9.119 C 198.594,6.266 199.36,4.034 200.891,2.421 C 202.424,0.807 204.401,0 206.825,0 C 208.411,0 209.842,0.379 211.116,1.137 C 212.389,1.896 213.36,2.952 214.029,4.308 C 214.698,5.664 215.032,7.202 215.032,8.92 C 215.032,10.663 214.68,12.222 213.976,13.597 C 213.272,14.972 212.276,16.014 210.987,16.721 C 209.696,17.428 208.305,17.782 206.813,17.782 C 205.194,17.782 203.749,17.391 202.475,16.61 C 201.2,15.829 200.235,14.761 199.579,13.41 C 198.923,12.059 198.594,10.628 198.594,9.119 z M 200.938,9.148 C 200.938,11.218 201.495,12.849 202.608,14.041 C 203.723,15.232 205.12,15.828 206.801,15.828 C 208.512,15.828 209.922,15.226 211.028,14.023 C 212.134,12.82 212.688,11.113 212.688,8.902 C 212.688,7.504 212.452,6.283 211.978,5.24 C 211.504,4.197 210.813,3.388 209.903,2.814 C 208.992,2.24 207.969,1.953 206.837,1.953 C 205.226,1.953 203.841,2.506 202.679,3.611 C 201.518,4.717 200.938,6.563 200.938,9.148 z "
   id="path17" />
</g>
<path
   d="M 199.48601,22.061925 L 201.10006,22.061925 L 201.10006,49.991925 L 199.48601,49.991925 L 199.48601,22.061925 z "
   id="rect19" />
<path
   d="M 205.18601,22.061925 L 206.80006,22.061925 L 206.80006,49.991925 L 205.18601,49.991925 L 205.18601,22.061925 z "
   id="rect21" />
<g
   id="g23"
   transform="matrix(0.95,0,0,0.95,6.6474,3.029625)">
	<path
   d="M 165.666,116.685 L 165.666,99.497 L 168.006,99.497 L 177.01,112.986 L 177.01,99.497 L 179.198,99.497 L 179.198,116.685 L 176.858,116.685 L 167.854,103.196 L 167.854,116.685 L 165.666,116.685 z "
   id="path25" />
	<path
   d="M 183.107,116.685 L 183.107,99.497 L 185.388,99.497 L 185.388,106.56 L 194.279,106.56 L 194.279,99.497 L 196.56,99.497 L 196.56,116.685 L 194.279,116.685 L 194.279,108.591 L 185.388,108.591 L 185.388,116.685 L 183.107,116.685 z "
   id="path27" />
</g>
<g
   id="g29"
   transform="matrix(0.95,0,0,0.95,6.6474,3.029625)">
	<path
   d="M 207.342,119.669 L 207.342,121.185 L 198.811,121.185 C 198.799,120.804 198.86,120.438 198.997,120.086 C 199.215,119.506 199.563,118.935 200.045,118.373 C 200.525,117.811 201.216,117.162 202.114,116.426 C 203.51,115.273 204.457,114.362 204.954,113.692 C 205.452,113.022 205.702,112.387 205.702,111.789 C 205.702,111.163 205.476,110.636 205.026,110.205 C 204.576,109.775 203.989,109.56 203.266,109.56 C 202.5,109.56 201.889,109.789 201.43,110.248 C 200.971,110.707 200.739,111.342 200.733,112.153 L 199.108,111.981 C 199.219,110.765 199.639,109.839 200.368,109.203 C 201.096,108.565 202.073,108.247 203.302,108.247 C 204.54,108.247 205.521,108.59 206.243,109.276 C 206.966,109.962 207.327,110.812 207.327,111.826 C 207.327,112.342 207.221,112.849 207.009,113.347 C 206.798,113.845 206.446,114.37 205.956,114.921 C 205.466,115.472 204.652,116.228 203.517,117.189 C 202.566,117.987 201.954,118.527 201.683,118.812 C 201.412,119.095 201.187,119.381 201.011,119.668 L 207.342,119.668 L 207.342,119.669 z "
   id="path31" />
</g>
<path
   d="M 174.121,95.355375 L 166.85255,95.355375 L 169.65505,67.614425 L 170.511,67.186925 L 171.36505,67.614425 L 174.121,95.355375 z "
   id="polygon33" />
<path
   d="M 137.83005,47.426925 L 137.83005,49.280375 L 105.1985,68.136925 L 105.1985,66.236925 L 137.83005,47.426925 z "
   id="polygon35" />
<g
   id="g37"
   transform="matrix(0.95,0,0,0.95,6.6474,3.029625)">
	<path
   d="M 62.381,51.619 L 64.522,51.431 C 64.624,52.292 64.86,52.998 65.231,53.55 C 65.602,54.102 66.179,54.549 66.96,54.889 C 67.741,55.23 68.621,55.4 69.598,55.4 C 70.466,55.4 71.232,55.271 71.896,55.012 C 72.56,54.754 73.055,54.4 73.379,53.949 C 73.703,53.499 73.865,53.008 73.865,52.475 C 73.865,51.935 73.707,51.463 73.39,51.06 C 73.073,50.658 72.555,50.319 71.836,50.044 C 71.375,49.864 70.354,49.584 68.774,49.204 C 67.194,48.825 66.088,48.467 65.456,48.131 C 64.636,47.7 64.025,47.167 63.623,46.529 C 63.221,45.891 63.02,45.178 63.02,44.387 C 63.02,43.52 63.266,42.708 63.759,41.953 C 64.251,41.198 64.971,40.625 65.917,40.234 C 66.863,39.842 67.915,39.647 69.072,39.647 C 70.346,39.647 71.47,39.853 72.444,40.263 C 73.418,40.674 74.167,41.279 74.69,42.076 C 75.214,42.874 75.496,43.778 75.535,44.787 L 73.347,44.959 C 73.23,43.866 72.832,43.042 72.157,42.483 C 71.48,41.925 70.481,41.646 69.16,41.646 C 67.784,41.646 66.78,41.899 66.151,42.404 C 65.521,42.909 65.207,43.517 65.207,44.229 C 65.207,44.848 65.43,45.357 65.876,45.755 C 66.314,46.154 67.457,46.564 69.307,46.983 C 71.157,47.402 72.426,47.768 73.115,48.081 C 74.117,48.542 74.857,49.126 75.335,49.834 C 75.813,50.542 76.052,51.356 76.052,52.279 C 76.052,53.194 75.79,54.055 75.267,54.865 C 74.744,55.675 73.992,56.303 73.012,56.753 C 72.032,57.203 70.928,57.428 69.702,57.428 C 68.147,57.428 66.845,57.201 65.795,56.748 C 64.744,56.295 63.92,55.613 63.323,54.703 C 62.727,53.797 62.413,52.768 62.381,51.619 z "
   id="path39" />
</g>
<path
   d="M 105.1985,66.236925 L 105.1985,68.136925 L 81.16255,54.267875 L 81.971,52.842875 L 105.1985,66.236925 z "
   id="polygon41" />
<g
   id="g43"
   transform="matrix(0.95,0,0,0.95,6.6474,3.029625)">
	<path
   d="M 0,76.984 L 0,59.797 L 2.281,59.797 L 2.281,66.86 L 11.172,66.86 L 11.172,59.797 L 13.453,59.797 L 13.453,76.985 L 11.172,76.985 L 11.172,68.891 L 2.281,68.891 L 2.281,76.985 L 0,76.985 L 0,76.984 z "
   id="path45" />
</g>
<g
   id="g47"
   transform="matrix(0.95,0,0,0.95,6.6474,3.029625)">
	<path
   d="M 15.461,78.078 L 17.039,77.859 C 17.222,78.755 17.531,79.401 17.967,79.797 C 18.404,80.192 18.939,80.39 19.574,80.39 C 20.327,80.39 20.96,80.132 21.473,79.618 C 21.986,79.102 22.242,78.464 22.242,77.702 C 22.242,76.976 22.004,76.378 21.526,75.906 C 21.049,75.434 20.443,75.199 19.707,75.199 C 19.406,75.199 19.032,75.258 18.585,75.375 L 18.762,73.984 C 18.868,73.996 18.953,74.002 19.018,74.002 C 19.692,74.002 20.299,73.827 20.839,73.476 C 21.379,73.125 21.649,72.584 21.649,71.853 C 21.649,71.274 21.452,70.794 21.058,70.415 C 20.664,70.035 20.156,69.845 19.533,69.845 C 18.916,69.845 18.401,70.039 17.99,70.427 C 17.579,70.815 17.314,71.397 17.197,72.173 L 15.619,71.892 C 15.812,70.83 16.253,70.007 16.939,69.424 C 17.625,68.84 18.479,68.548 19.5,68.548 C 20.204,68.548 20.853,68.698 21.445,69 C 22.037,69.301 22.49,69.712 22.805,70.232 C 23.118,70.753 23.276,71.305 23.276,71.89 C 23.276,72.446 23.127,72.952 22.828,73.408 C 22.529,73.864 22.087,74.226 21.501,74.496 C 22.263,74.672 22.855,75.037 23.28,75.59 C 23.704,76.145 23.917,76.837 23.917,77.669 C 23.917,78.795 23.506,79.748 22.684,80.53 C 21.862,81.312 20.823,81.704 19.567,81.704 C 18.434,81.704 17.493,81.367 16.745,80.695 C 15.994,80.021 15.567,79.149 15.461,78.078 z "
   id="path49" />
</g>
<g
   id="g51"
   transform="matrix(0.95,0,0,0.95,6.6474,3.029625)">
	<path
   d="M 38.039,70.957 L 40.32,71.531 C 39.844,73.401 38.987,74.827 37.751,75.808 C 36.514,76.789 35.001,77.281 33.214,77.281 C 31.364,77.281 29.86,76.904 28.701,76.149 C 27.542,75.395 26.66,74.301 26.055,72.871 C 25.45,71.44 25.148,69.903 25.148,68.262 C 25.148,66.472 25.489,64.909 26.172,63.576 C 26.855,62.243 27.826,61.229 29.087,60.538 C 30.347,59.847 31.733,59.5 33.247,59.5 C 34.964,59.5 36.407,59.938 37.577,60.814 C 38.748,61.691 39.563,62.922 40.023,64.511 L 37.789,65.038 C 37.391,63.788 36.814,62.878 36.058,62.308 C 35.301,61.738 34.349,61.453 33.203,61.453 C 31.885,61.453 30.783,61.769 29.897,62.402 C 29.012,63.035 28.39,63.884 28.031,64.951 C 27.672,66.018 27.493,67.117 27.493,68.25 C 27.493,69.711 27.705,70.986 28.13,72.076 C 28.555,73.166 29.215,73.98 30.112,74.519 C 31.009,75.058 31.979,75.328 33.024,75.328 C 34.295,75.328 35.37,74.961 36.251,74.226 C 37.132,73.491 37.727,72.402 38.039,70.957 z "
   id="path53" />
</g>
<path
   d="M 63.066,52.889425 L 63.87255,54.267875 L 48.91005,62.911925 L 48.1035,61.534425 L 63.066,52.889425 z "
   id="polygon55" />
</svg>