<?xml version="1.0" encoding="UTF-8" standalone="no"?>
<svg
   xmlns:cdml="http://www.freesoftware.fsf.org/bkchem/cdml"
   xmlns:dc="http://purl.org/dc/elements/1.1/"
   xmlns:cc="http://creativecommons.org/ns#"
   xmlns:rdf="http://www.w3.org/1999/02/22-rdf-syntax-ns#"
   xmlns:svg="http://www.w3.org/2000/svg"
   xmlns="http://www.w3.org/2000/svg"
   xmlns:sodipodi="http://sodipodi.sourceforge.net/DTD/sodipodi-0.dtd"
   xmlns:inkscape="http://www.inkscape.org/namespaces/inkscape"
   height="22.24688mm"
   version="1.0"
   viewBox="0 0 210 84"
   width="55.61719mm"
   id="svg5275"
   inkscape:version="0.48.0 r9654"
   sodipodi:docname="mom.svg">
  <metadata
     id="metadata5303">
    <rdf:RDF>
      <cc:Work
         rdf:about="">
        <dc:format>image/svg+xml</dc:format>
        <dc:type
           rdf:resource="http://purl.org/dc/dcmitype/StillImage" />
        <dc:title></dc:title>
      </cc:Work>
    </rdf:RDF>
  </metadata>
  <defs
     id="defs5301" />
  <sodipodi:namedview
     pagecolor="#ffffff"
     bordercolor="#666666"
     borderopacity="1"
     objecttolerance="10"
     gridtolerance="10"
     guidetolerance="10"
     inkscape:pageopacity="0"
     inkscape:pageshadow="2"
     inkscape:window-width="640"
     inkscape:window-height="480"
     id="namedview5299"
     showgrid="false"
     inkscape:zoom="2.5879289"
     inkscape:cx="98.534393"
     inkscape:cy="39.413761"
     inkscape:window-x="0"
     inkscape:window-y="0"
     inkscape:window-maximized="0"
     inkscape:current-layer="svg5275" />
  <g
     font-family="Helvetica"
     font-size="12pt"
     stroke-linecap="round"
     transform="translate(-334,-118)"
     id="g5277">
    <g
       stroke="#000000"
       stroke-linecap="butt"
       stroke-width="2.26548672566"
       id="g5279">
      <path
         style=""
         d="m 459,150.59 17,9.80999"
         id="line5281" />
    </g>
    <g
       stroke="#000000"
       stroke-width="2.26548672566"
       id="g5283">
      <path
         style=""
         d="m 398.34,168.42999 31.66,-18.28"
         id="line5285" />
    </g>
    <g
       stroke="#000000"
       stroke-width="2.26548672566"
       id="g5287">
      <path
         style=""
         d="m 366,149.75999 32.34,18.67"
         id="line5289" />
    </g>
    <g
       style="font-size:30px;fill:#000000;font-family:helvetica"
       id="text5291">
      <path
         d="m 432.75018,138.54102 c 0,-3.56444 0.95703,-6.35497 2.8711,-8.37159 1.91405,-2.01658 4.38475,-3.02488 7.41211,-3.0249 1.9824,2e-5 3.76951,0.47366 5.36132,1.4209 1.59178,0.94728 2.80516,2.26808 3.64014,3.9624 0.83494,1.69435 1.25242,3.61574 1.25244,5.76416 -2e-5,2.17775 -0.43947,4.12599 -1.31836,5.84473 -0.87892,1.71875 -2.12404,3.02002 -3.73535,3.90381 -1.61134,0.88379 -3.34962,1.32568 -5.21484,1.32568 -2.0215,0 -3.82814,-0.48828 -5.41992,-1.46484 -1.59181,-0.97656 -2.79786,-2.30957 -3.61817,-3.99903 -0.82031,-1.68944 -1.23047,-3.47655 -1.23047,-5.36132 z m 2.92969,0.0439 c 0,2.5879 0.6958,4.62647 2.0874,6.11572 1.3916,1.48926 3.1372,2.23389 5.23682,2.23389 2.13866,0 3.89891,-0.75195 5.28076,-2.25586 1.38182,-1.5039 2.07274,-3.63769 2.07275,-6.40137 -10e-6,-1.74803 -0.29542,-3.27391 -0.88623,-4.57763 -0.59083,-1.3037 -1.45509,-2.31444 -2.59277,-3.03223 -1.13771,-0.71775 -2.41456,-1.07664 -3.83057,-1.07666 -2.01172,2e-5 -3.74268,0.69094 -5.19287,2.07275 -1.4502,1.38186 -2.17529,3.68898 -2.17529,6.92139 z"
         style="font-size:30px;fill:#000000;font-family:helvetica"
         id="path5309" />
    </g>
    <g
       style="font-size:30px;fill:#000000;font-family:helvetica"
       id="text5293">
      <path
         d="m 494.93671,167.9007 2.84179,0.71777 c -0.59572,2.33399 -1.6675,4.11377 -3.21533,5.33935 -1.54787,1.22559 -3.43995,1.83838 -5.67627,1.83838 -2.31446,0 -4.19678,-0.47119 -5.64697,-1.41357 -1.4502,-0.94238 -2.55372,-2.30713 -3.31055,-4.09424 -0.75684,-1.7871 -1.13525,-3.70604 -1.13525,-5.75683 0,-2.23632 0.42724,-4.187 1.28174,-5.85206 0.85449,-1.66502 2.0703,-2.92966 3.64746,-3.79394 1.57714,-0.86424 3.31298,-1.29637 5.20752,-1.29639 2.14842,2e-5 3.95506,0.5469 5.41992,1.64063 1.46482,1.09377 2.48533,2.63185 3.06152,4.61426 l -2.79785,0.65917 c -0.49806,-1.56248 -1.22072,-2.70017 -2.16797,-3.41308 -0.94728,-0.71287 -2.13868,-1.06932 -3.57422,-1.06934 -1.6504,2e-5 -3.02979,0.39553 -4.13818,1.18653 -1.1084,0.79103 -1.88721,1.85304 -2.33643,3.18603 -0.44922,1.33302 -0.67383,2.70753 -0.67382,4.12354 -10e-6,1.82618 0.2661,3.42041 0.79834,4.78271 0.53222,1.36231 1.35985,2.38038 2.48291,3.0542 1.12303,0.67383 2.33885,1.01075 3.64746,1.01074 1.59178,10e-6 2.93944,-0.45898 4.04297,-1.37695 1.10349,-0.91796 1.85056,-2.28027 2.24121,-4.08691 z"
         style="font-size:30px;fill:#000000;font-family:helvetica"
         id="path5312" />
      <path
         d="m 501.38202,175.42999 0,-21.47461 2.8418,0 0,8.81836 11.16211,0 0,-8.81836 2.84179,0 0,21.47461 -2.84179,0 0,-10.12207 -11.16211,0 0,10.12207 z"
         style="font-size:30px;fill:#000000;font-family:helvetica"
         id="path5314" />
      <path
         d="m 521.60419,177.17828 1.97754,-0.26367 c 0.22704,1.12061 0.6134,1.9281 1.15905,2.42249 0.54565,0.49438 1.21033,0.74158 1.99402,0.74157 0.93017,1e-5 1.71569,-0.32226 2.35657,-0.96679 0.64086,-0.64453 0.96129,-1.44287 0.9613,-2.39502 -1e-5,-0.9082 -0.29664,-1.6571 -0.88989,-2.24671 -0.59327,-0.58959 -1.34766,-0.88439 -2.26318,-0.8844 -0.37354,1e-5 -0.83863,0.0733 -1.39527,0.21973 l 0.21973,-1.73584 c 0.13183,0.0147 0.23803,0.022 0.3186,0.022 0.84228,1e-5 1.60034,-0.21971 2.27417,-0.65918 0.67382,-0.43944 1.01074,-1.11693 1.01075,-2.03247 -10e-6,-0.72508 -0.24537,-1.32567 -0.73609,-1.80175 -0.49073,-0.47606 -1.12427,-0.7141 -1.90063,-0.71412 -0.76905,2e-5 -1.40992,0.24172 -1.92261,0.7251 -0.5127,0.48341 -0.84229,1.20851 -0.98877,2.17529 l -1.97754,-0.35156 c 0.2417,-1.32567 0.79101,-2.35289 1.64795,-3.08166 0.85693,-0.72875 1.9226,-1.09313 3.19702,-1.09314 0.8789,1e-5 1.68823,0.18861 2.42798,0.56579 0.73974,0.37722 1.30553,0.89174 1.69739,1.54358 0.39183,0.65187 0.58776,1.34401 0.58777,2.07642 -10e-6,0.69581 -0.18678,1.32936 -0.56031,1.90063 -0.37354,0.5713 -0.92652,1.0254 -1.65893,1.36231 0.95214,0.21973 1.69188,0.67567 2.21924,1.3678 0.52733,0.69214 0.791,1.55823 0.79101,2.59826 -10e-6,1.40626 -0.5127,2.59827 -1.53808,3.57605 -1.0254,0.97779 -2.32179,1.46668 -3.88916,1.46668 -1.41358,0 -2.58729,-0.42115 -3.52112,-1.26343 -0.93384,-0.84228 -1.46668,-1.93359 -1.59851,-3.27393 z"
         style="font-size:75%;baseline-shift:sub"
         id="path5316" />
    </g>
    <g
       style="font-size:30px;fill:#000000;font-family:helvetica"
       id="text5297">
      <path
         d="m 342.65839,149 0,-21.47461 9.52148,0 c 1.91405,2e-5 3.36913,0.19289 4.36523,0.57861 0.99608,0.38577 1.79198,1.06692 2.3877,2.04346 0.59568,0.97658 0.89354,2.05568 0.89355,3.23731 -10e-6,1.52345 -0.49318,2.80763 -1.47949,3.85253 -0.98634,1.04494 -2.50978,1.709 -4.57031,1.99219 0.75194,0.36134 1.32323,0.71778 1.71387,1.06934 0.83006,0.76172 1.61619,1.71387 2.3584,2.85644 l 3.73535,5.84473 -3.57422,0 -2.8418,-4.46777 c -0.83009,-1.28906 -1.51368,-2.27539 -2.05078,-2.95899 -0.53712,-0.68358 -1.01808,-1.1621 -1.44287,-1.43554 -0.42482,-0.27343 -0.85694,-0.46386 -1.29639,-0.57129 -0.32227,-0.0683 -0.84962,-0.10253 -1.58203,-0.10254 l -3.2959,0 0,9.53613 z m 2.84179,-11.99707 6.1084,0 c 1.29882,1e-5 2.31444,-0.13427 3.04688,-0.40283 0.7324,-0.26854 1.28904,-0.69823 1.66992,-1.28906 0.38084,-0.59081 0.57127,-1.2329 0.57129,-1.92627 -2e-5,-1.01561 -0.36867,-1.85057 -1.10596,-2.50489 -0.73732,-0.65428 -1.90187,-0.98142 -3.49365,-0.98144 l -6.79688,0 z"
         style="font-size:30px;fill:#000000;font-family:helvetica"
         id="path5319" />
    </g>
  </g>
  <cdml:cdml
     version="0.15">
    <cdml:info>
      <cdml:author_program
         version="0.13.0">BKchem</cdml:author_program>
    </cdml:info>
    <cdml:paper
       crop_margin="5"
       crop_svg="1"
       orientation="portrait"
       replace_minus="0"
       type="Legal"
       use_real_minus="0" />
    <cdml:viewport
       viewport="0.000000 0.000000 640.000000 480.000000" />
    <cdml:standard
       area_color=""
       font_family="helvetica"
       font_size="24"
       line_color="#000"
       line_width="0.06cm"
       paper_crop_margin="5"
       paper_crop_svg="1"
       paper_orientation="portrait"
       paper_type="Legal">
      <cdml:bond
         double-ratio="0.85"
         length="1.4cm"
         wedge-width="0.18cm"
         width="0.21cm" />
      <cdml:arrow
         length="1.6cm" />
      <cdml:atom
         show_hydrogens="0" />
    </cdml:standard>
    <cdml:molecule
       id="molecule35942"
       name="">
      <cdml:atom
         id="atom64216"
         name="C"
         valency="4">
        <cdml:point
           x="10.550cm"
           y="4.461cm" />
      </cdml:atom>
      <cdml:atom
         id="atom4395"
         name="O"
         pos="center-first"
         valency="2">
        <cdml:point
           x="11.762cm"
           y="3.761cm" />
      </cdml:atom>
      <cdml:atom
         hydrogens="on"
         id="atom86639"
         name="C"
         pos="center-first"
         show="yes"
         valency="4">
        <cdml:point
           x="12.975cm"
           y="4.461cm" />
      </cdml:atom>
      <cdml:query
         id="atom59365"
         name="R"
         pos="center-last">
        <cdml:point
           x="9.337cm"
           y="3.761cm" />
      </cdml:query>
      <cdml:bond
         double_ratio="0.85"
         end="atom86639"
         id="bond73420"
         line_width="2.26548672566"
         start="atom4395"
         type="n1" />
      <cdml:bond
         double_ratio="0.85"
         end="atom4395"
         id="bond54348"
         line_width="2.26548672566"
         start="atom64216"
         type="n1" />
      <cdml:bond
         double_ratio="0.85"
         end="atom64216"
         id="bond56687"
         line_width="2.26548672566"
         start="atom59365"
         type="n1" />
    </cdml:molecule>
  </cdml:cdml>
</svg>
