<?xml version="1.0" encoding="UTF-8" standalone="no"?>
<svg
   xmlns:cdml="http://www.freesoftware.fsf.org/bkchem/cdml"
   xmlns:dc="http://purl.org/dc/elements/1.1/"
   xmlns:cc="http://creativecommons.org/ns#"
   xmlns:rdf="http://www.w3.org/1999/02/22-rdf-syntax-ns#"
   xmlns:svg="http://www.w3.org/2000/svg"
   xmlns="http://www.w3.org/2000/svg"
   xmlns:sodipodi="http://sodipodi.sourceforge.net/DTD/sodipodi-0.dtd"
   xmlns:inkscape="http://www.inkscape.org/namespaces/inkscape"
   height="59.54590mm"
   version="1.0"
   viewBox="0 0 168 225"
   width="44.46094mm"
   id="svg3209"
   inkscape:version="0.48.1 "
   sodipodi:docname="NCS.svg">
  <metadata
     id="metadata3261">
    <rdf:RDF>
      <cc:Work
         rdf:about="">
        <dc:format>image/svg+xml</dc:format>
        <dc:type
           rdf:resource="http://purl.org/dc/dcmitype/StillImage" />
        <dc:title></dc:title>
      </cc:Work>
    </rdf:RDF>
  </metadata>
  <defs
     id="defs3259" />
  <sodipodi:namedview
     pagecolor="#ffffff"
     bordercolor="#666666"
     borderopacity="1"
     objecttolerance="10"
     gridtolerance="10"
     guidetolerance="10"
     inkscape:pageopacity="0"
     inkscape:pageshadow="2"
     inkscape:window-width="640"
     inkscape:window-height="480"
     id="namedview3257"
     showgrid="false"
     inkscape:zoom="1.2465081"
     inkscape:cx="78.769386"
     inkscape:cy="105.49471"
     inkscape:window-x="0"
     inkscape:window-y="0"
     inkscape:window-maximized="0"
     inkscape:current-layer="svg3209" />
  <g
     font-family="Helvetica"
     font-size="12pt"
     stroke-linecap="round"
     transform="translate(-225,-89)"
     id="g3211">
    <g
       stroke="#000000"
       stroke-width="2.26715867159"
       id="g3213">
      <path
         style=""
         d="m 285.91,242.75 15.44999,26.75"
         id="line3215" />
      <path
         style=""
         d="m 280.72,245.75 15.44,26.75"
         id="line3217" />
    </g>
    <g
       stroke="#000000"
       stroke-width="2.26715867159"
       id="g3219">
      <path
         style=""
         d="M 305.29999,214 283.31,244.25"
         id="line3221" />
    </g>
    <g
       stroke="#000000"
       stroke-linecap="butt"
       stroke-width="2.26715867159"
       id="g3223">
      <path
         style=""
         d="m 328,201.46001 26,0"
         id="line3225" />
    </g>
    <g
       stroke="#000000"
       stroke-width="2.26715867159"
       id="g3227">
      <path
         style=""
         d="m 233,175 50.31,-16.36"
         id="line3229" />
    </g>
    <g
       stroke="#000000"
       stroke-width="2.26715867159"
       id="g3231">
      <path
         style=""
         d="m 280.70999,157.14 18.84,-32.64"
         id="line3233" />
      <path
         style=""
         d="M 285.89999,160.14 304.75,127.5"
         id="line3235" />
    </g>
    <g
       stroke="#000000"
       stroke-width="2.26715867159"
       id="g3237">
      <path
         style=""
         d="M 283.31,244.25 233,227.89999"
         id="line3239" />
    </g>
    <g
       stroke="#000000"
       stroke-width="2.26715867159"
       id="g3241">
      <path
         style=""
         d="M 283.31,158.64 301,182.99001"
         id="line3243" />
    </g>
    <g
       stroke="#000000"
       stroke-width="2.26715867159"
       id="g3245">
      <path
         style=""
         d="M 233,227.89999 233,175"
         id="line3247" />
    </g>
    <g
       style="font-size:30px;fill:#000000;font-family:helvetica"
       id="text3249">
      <path
         d="m 297.75018,109.37102 c 0,-3.56444 0.95703,-6.35497 2.8711,-8.37158 1.91405,-2.016585 4.38475,-3.024885 7.41211,-3.024907 1.9824,2.2e-5 3.76951,0.473654 5.36132,1.420899 1.59178,0.947288 2.80516,2.268088 3.64014,3.962398 0.83494,1.69435 1.25242,3.61574 1.25244,5.76416 -2e-5,2.17775 -0.43947,4.12599 -1.31836,5.84473 -0.87892,1.71875 -2.12404,3.02002 -3.73535,3.90381 -1.61134,0.88379 -3.34962,1.32568 -5.21484,1.32568 -2.0215,0 -3.82814,-0.48828 -5.41992,-1.46484 -1.59181,-0.97656 -2.79786,-2.30957 -3.61817,-3.99902 -0.82031,-1.68945 -1.23047,-3.47656 -1.23047,-5.36133 z m 2.92969,0.0439 c 0,2.5879 0.6958,4.62647 2.0874,6.11573 1.3916,1.48926 3.1372,2.23388 5.23682,2.23388 2.13866,0 3.89891,-0.75195 5.28076,-2.25586 1.38182,-1.5039 2.07274,-3.63768 2.07275,-6.40136 -10e-6,-1.74804 -0.29542,-3.27392 -0.88623,-4.57764 -0.59083,-1.3037 -1.45509,-2.31444 -2.59277,-3.03223 -1.13771,-0.71775 -2.41456,-1.07664 -3.83057,-1.07666 -2.01172,2e-5 -3.74268,0.69094 -5.19287,2.07276 -1.4502,1.38185 -2.17529,3.68897 -2.17529,6.92138 z"
         style="font-size:30px;fill:#000000;font-family:helvetica"
         id="path3274" />
    </g>
    <g
       style="font-size:30px;fill:#000000;font-family:helvetica"
       id="text3251">
      <path
         d="m 297.75018,286.60101 c 0,-3.56444 0.95703,-6.35496 2.8711,-8.37158 1.91405,-2.01658 4.38475,-3.02488 7.41211,-3.0249 1.9824,2e-5 3.76951,0.47365 5.36132,1.4209 1.59178,0.94728 2.80516,2.26808 3.64014,3.9624 0.83494,1.69435 1.25242,3.61574 1.25244,5.76416 -2e-5,2.17774 -0.43947,4.12598 -1.31836,5.84473 -0.87892,1.71875 -2.12404,3.02002 -3.73535,3.9038 -1.61134,0.88379 -3.34962,1.32569 -5.21484,1.32569 -2.0215,0 -3.82814,-0.48828 -5.41992,-1.46485 -1.59181,-0.97656 -2.79786,-2.30956 -3.61817,-3.99902 -0.82031,-1.68945 -1.23047,-3.47655 -1.23047,-5.36133 z m 2.92969,0.044 c 0,2.5879 0.6958,4.62647 2.0874,6.11572 1.3916,1.48926 3.1372,2.23389 5.23682,2.23389 2.13866,0 3.89891,-0.75195 5.28076,-2.25586 1.38182,-1.5039 2.07274,-3.63769 2.07275,-6.40137 -10e-6,-1.74803 -0.29542,-3.27391 -0.88623,-4.57764 -0.59083,-1.30369 -1.45509,-2.31443 -2.59277,-3.03222 -1.13771,-0.71776 -2.41456,-1.07664 -3.83057,-1.07666 -2.01172,2e-5 -3.74268,0.69093 -5.19287,2.07275 -1.4502,1.38185 -2.17529,3.68898 -2.17529,6.92139 z"
         style="font-size:30px;fill:#000000;font-family:helvetica"
         id="path3277" />
    </g>
    <g
       style="font-size:30px;fill:#000000;font-family:helvetica"
       id="text3253">
      <path
         d="m 304.58514,208.46001 0,-21.47461 2.91504,0 11.2793,16.86035 0,-16.86035 2.72461,0 0,21.47461 -2.91504,0 -11.2793,-16.875 0,16.875 z"
         style="font-size:30px;fill:#000000;font-family:helvetica"
         id="path3280" />
    </g>
    <g
       style="font-size:30px;fill:#000000;font-family:helvetica"
       id="text3255">
      <path
         d="m 372.93671,200.93071 2.84179,0.71777 c -0.59572,2.33399 -1.6675,4.11378 -3.21533,5.33936 -1.54787,1.22558 -3.43995,1.83838 -5.67627,1.83838 -2.31446,0 -4.19678,-0.47119 -5.64697,-1.41358 -1.4502,-0.94238 -2.55372,-2.30712 -3.31055,-4.09423 -0.75684,-1.78711 -1.13525,-3.70605 -1.13525,-5.75684 0,-2.23632 0.42724,-4.187 1.28174,-5.85205 0.85449,-1.66502 2.0703,-2.92967 3.64746,-3.79395 1.57714,-0.86423 3.31298,-1.29636 5.20752,-1.29638 2.14842,2e-5 3.95506,0.54689 5.41992,1.64062 1.46482,1.09377 2.48533,2.63185 3.06152,4.61426 l -2.79785,0.65918 c -0.49806,-1.56248 -1.22072,-2.70018 -2.16797,-3.41309 -0.94728,-0.71287 -2.13868,-1.06931 -3.57422,-1.06933 -1.6504,2e-5 -3.02979,0.39552 -4.13818,1.18652 -1.1084,0.79103 -1.88721,1.85304 -2.33643,3.18604 -0.44922,1.33302 -0.67383,2.70753 -0.67382,4.12353 -10e-6,1.82618 0.2661,3.42042 0.79834,4.78272 0.53222,1.36231 1.35985,2.38037 2.48291,3.05419 1.12303,0.67384 2.33885,1.01075 3.64746,1.01075 1.59178,0 2.93944,-0.45898 4.04297,-1.37696 1.10349,-0.91796 1.85056,-2.28026 2.24121,-4.08691 z"
         style="font-size:30px;fill:#000000;font-family:helvetica"
         id="path3283" />
      <path
         d="m 378.89862,208.46001 0,-21.47461 2.63672,0 0,21.47461 z"
         style="font-size:30px;fill:#000000;font-family:helvetica"
         id="path3285" />
    </g>
  </g>
  <cdml:cdml
     version="0.15">
    <cdml:info>
      <cdml:author_program
         version="0.13.0">BKchem</cdml:author_program>
    </cdml:info>
    <cdml:paper
       crop_margin="5"
       crop_svg="1"
       orientation="portrait"
       replace_minus="0"
       type="Legal"
       use_real_minus="0" />
    <cdml:viewport
       viewport="0.000000 0.000000 640.000000 480.000000" />
    <cdml:standard
       area_color=""
       font_family="helvetica"
       font_size="24"
       line_color="#000"
       line_width="0.06cm"
       paper_crop_margin="5"
       paper_crop_svg="1"
       paper_orientation="portrait"
       paper_type="Legal">
      <cdml:bond
         double-ratio="0.85"
         length="1.4cm"
         wedge-width="0.18cm"
         width="0.21cm" />
      <cdml:arrow
         length="1.6cm" />
      <cdml:atom
         show_hydrogens="0" />
    </cdml:standard>
    <cdml:molecule
       id="molecule21539"
       name="">
      <cdml:atom
         id="atom87031"
         name="C"
         valency="4">
        <cdml:point
           x="6.166cm"
           y="6.031cm" />
      </cdml:atom>
      <cdml:atom
         id="atom77228"
         name="C"
         valency="4">
        <cdml:point
           x="6.166cm"
           y="4.631cm" />
      </cdml:atom>
      <cdml:atom
         id="atom52913"
         name="C"
         valency="4">
        <cdml:point
           x="7.498cm"
           y="4.198cm" />
      </cdml:atom>
      <cdml:atom
         id="atom99895"
         name="C"
         valency="4">
        <cdml:point
           x="7.498cm"
           y="6.464cm" />
      </cdml:atom>
      <cdml:atom
         id="atom36431"
         name="O"
         pos="center-first"
         valency="2">
        <cdml:point
           x="8.198cm"
           y="2.986cm" />
      </cdml:atom>
      <cdml:atom
         id="atom35157"
         name="O"
         pos="center-first"
         valency="2">
        <cdml:point
           x="8.198cm"
           y="7.676cm" />
      </cdml:atom>
      <cdml:atom
         id="atom56952"
         name="N"
         pos="center-first"
         valency="3">
        <cdml:point
           x="8.321cm"
           y="5.331cm" />
      </cdml:atom>
      <cdml:atom
         id="atom2712"
         name="Cl"
         pos="center-first"
         valency="1">
        <cdml:point
           x="9.721cm"
           y="5.332cm" />
      </cdml:atom>
      <cdml:bond
         bond_width="7.93505535055"
         center="yes"
         double_ratio="0.85"
         end="atom35157"
         id="bond2844"
         line_width="2.26715867159"
         start="atom99895"
         type="n2" />
      <cdml:bond
         double_ratio="0.85"
         end="atom99895"
         id="bond85342"
         line_width="2.26715867159"
         start="atom56952"
         type="n1" />
      <cdml:bond
         double_ratio="0.85"
         end="atom2712"
         id="bond39115"
         line_width="2.26715867159"
         start="atom56952"
         type="n1" />
      <cdml:bond
         double_ratio="0.85"
         end="atom52913"
         id="bond99109"
         line_width="2.26715867159"
         start="atom77228"
         type="n1" />
      <cdml:bond
         bond_width="7.93505535055"
         center="yes"
         double_ratio="0.85"
         end="atom36431"
         id="bond45782"
         line_width="2.26715867159"
         start="atom52913"
         type="n2" />
      <cdml:bond
         double_ratio="0.85"
         end="atom87031"
         id="bond19395"
         line_width="2.26715867159"
         start="atom99895"
         type="n1" />
      <cdml:bond
         double_ratio="0.85"
         end="atom56952"
         id="bond99809"
         line_width="2.26715867159"
         start="atom52913"
         type="n1" />
      <cdml:bond
         double_ratio="0.85"
         end="atom77228"
         id="bond4854"
         line_width="2.26715867159"
         start="atom87031"
         type="n1" />
    </cdml:molecule>
  </cdml:cdml>
</svg>
