<?xml version="1.0" encoding="UTF-8" standalone="no"?>
<svg
   xmlns:cdml="http://www.freesoftware.fsf.org/bkchem/cdml"
   xmlns:dc="http://purl.org/dc/elements/1.1/"
   xmlns:cc="http://creativecommons.org/ns#"
   xmlns:rdf="http://www.w3.org/1999/02/22-rdf-syntax-ns#"
   xmlns:svg="http://www.w3.org/2000/svg"
   xmlns="http://www.w3.org/2000/svg"
   xmlns:sodipodi="http://sodipodi.sourceforge.net/DTD/sodipodi-0.dtd"
   xmlns:inkscape="http://www.inkscape.org/namespaces/inkscape"
   height="62.19238mm"
   version="1.0"
   viewBox="0 0 186 235"
   width="49.22461mm"
   id="svg3039"
   inkscape:version="0.48.1 "
   sodipodi:docname="OSu.svg">
  <metadata
     id="metadata3091">
    <rdf:RDF>
      <cc:Work
         rdf:about="">
        <dc:format>image/svg+xml</dc:format>
        <dc:type
           rdf:resource="http://purl.org/dc/dcmitype/StillImage" />
        <dc:title></dc:title>
      </cc:Work>
    </rdf:RDF>
  </metadata>
  <defs
     id="defs3089" />
  <sodipodi:namedview
     pagecolor="#ffffff"
     bordercolor="#666666"
     borderopacity="1"
     objecttolerance="10"
     gridtolerance="10"
     guidetolerance="10"
     inkscape:pageopacity="0"
     inkscape:pageshadow="2"
     inkscape:window-width="640"
     inkscape:window-height="480"
     id="namedview3087"
     showgrid="false"
     inkscape:zoom="1.1934653"
     inkscape:cx="87.208954"
     inkscape:cy="110.18335"
     inkscape:window-x="0"
     inkscape:window-y="0"
     inkscape:window-maximized="0"
     inkscape:current-layer="svg3039" />
  <g
     font-family="Helvetica"
     font-size="12pt"
     stroke-linecap="round"
     transform="translate(-156,-5)"
     id="g3041">
    <g
       stroke="#000000"
       stroke-width="2.26715867159"
       id="g3043">
      <path
         style=""
         d="M 165,96 215.31,79.639999"
         id="line3045" />
    </g>
    <g
       stroke="#000000"
       stroke-width="2.26715867159"
       id="g3047">
      <path
         style=""
         d="m 237.3,135 -21.99,30.25"
         id="line3049" />
    </g>
    <g
       stroke="#000000"
       stroke-width="2.26715867159"
       id="g3051">
      <path
         style=""
         d="M 215.31,165.25 165,148.89999"
         id="line3053" />
    </g>
    <g
       stroke="#000000"
       stroke-width="2.26715867159"
       id="g3055">
      <path
         style=""
         d="m 218.17,164.32001 10.31,31.75"
         id="line3057" />
      <path
         style=""
         d="M 212.46001,166.17 222.78,197.92999"
         id="line3059" />
    </g>
    <g
       stroke="#000000"
       stroke-width="2.26715867159"
       id="g3061">
      <path
         style=""
         d="M 215.31,79.639999 233,103.99"
         id="line3063" />
    </g>
    <g
       stroke="#000000"
       stroke-linecap="butt"
       stroke-width="2.26715867159"
       id="g3065">
      <path
         style=""
         d="m 260,122.46 25,0"
         id="line3067" />
    </g>
    <g
       stroke="#000000"
       stroke-width="2.26715867159"
       id="g3069">
      <path
         style=""
         d="M 212.45,78.709999 224.67999,41.07"
         id="line3071" />
      <path
         style=""
         d="M 218.16,80.57 230.38,42.93"
         id="line3073" />
    </g>
    <g
       stroke="#000000"
       stroke-width="2.26715867159"
       id="g3075">
      <path
         style=""
         d="M 165,148.89999 165,96"
         id="line3077" />
    </g>
    <g
       style="font-size:30px;fill:#000000;font-family:helvetica"
       id="text3079">
      <path
         d="m 236.58516,129.46001 0,-21.47461 2.91504,0 11.2793,16.86035 0,-16.86035 2.7246,0 0,21.47461 -2.91503,0 -11.2793,-16.875 0,16.875 z"
         style="font-size:30px;fill:#000000;font-family:helvetica"
         id="path3104" />
    </g>
    <g
       style="font-size:30px;fill:#000000;font-family:helvetica"
       id="text3081">
      <path
         d="m 219.7502,25.871017 c 0,-3.564439 0.95703,-6.354963 2.87109,-8.371582 1.91406,-2.01658 4.38476,-3.02488 7.41211,-3.024902 1.98241,2.2e-5 3.76952,0.473654 5.36133,1.420899 1.59178,0.947285 2.80516,2.268084 3.64014,3.962402 0.83494,1.694351 1.25242,3.615735 1.25244,5.76416 -2e-5,2.177743 -0.43948,4.125983 -1.31836,5.844727 -0.87893,1.718753 -2.12404,3.020021 -3.73535,3.903808 -1.61135,0.883789 -3.34963,1.325683 -5.21485,1.325684 -2.02149,-10e-7 -3.82813,-0.488281 -5.41992,-1.464844 -1.5918,-0.97656 -2.79785,-2.309567 -3.61816,-3.999023 -0.82032,-1.689447 -1.23047,-3.476554 -1.23047,-5.361329 z m 2.92969,0.04395 c -1e-5,2.587898 0.69579,4.62647 2.0874,6.115722 1.39159,1.489261 3.1372,2.233889 5.23681,2.233887 2.13866,2e-6 3.89891,-0.75195 5.28077,-2.255859 1.38181,-1.503901 2.07273,-3.637688 2.07275,-6.401367 -2e-5,-1.748035 -0.29543,-3.273912 -0.88623,-4.577637 -0.59084,-1.303694 -1.4551,-2.314436 -2.59277,-3.032227 -1.13771,-0.717754 -2.41457,-1.07664 -3.83057,-1.07666 -2.01173,2e-5 -3.74268,0.690937 -5.19287,2.072754 -1.4502,1.381852 -2.1753,3.688979 -2.17529,6.921387 z"
         style="font-size:30px;fill:#000000;font-family:helvetica"
         id="path3107" />
    </g>
    <g
       style="font-size:30px;fill:#000000;font-family:helvetica"
       id="text3083">
      <path
         d="m 219.7502,212.10101 c 0,-3.56444 0.95703,-6.35496 2.87109,-8.37158 1.91406,-2.01658 4.38476,-3.02488 7.41211,-3.0249 1.98241,2e-5 3.76952,0.47365 5.36133,1.4209 1.59178,0.94728 2.80516,2.26808 3.64014,3.9624 0.83494,1.69435 1.25242,3.61574 1.25244,5.76416 -2e-5,2.17774 -0.43948,4.12598 -1.31836,5.84473 -0.87893,1.71875 -2.12404,3.02002 -3.73535,3.9038 -1.61135,0.88379 -3.34963,1.32569 -5.21485,1.32569 -2.02149,0 -3.82813,-0.48828 -5.41992,-1.46485 -1.5918,-0.97656 -2.79785,-2.30956 -3.61816,-3.99902 -0.82032,-1.68945 -1.23047,-3.47655 -1.23047,-5.36133 z m 2.92969,0.0439 c -1e-5,2.5879 0.69579,4.62647 2.0874,6.11572 1.39159,1.48926 3.1372,2.23389 5.23681,2.23389 2.13866,0 3.89891,-0.75195 5.28077,-2.25586 1.38181,-1.5039 2.07273,-3.63769 2.07275,-6.40137 -2e-5,-1.74803 -0.29543,-3.27391 -0.88623,-4.57764 -0.59084,-1.30369 -1.4551,-2.31443 -2.59277,-3.03222 -1.13771,-0.71776 -2.41457,-1.07664 -3.83057,-1.07666 -2.01173,2e-5 -3.74268,0.69093 -5.19287,2.07275 -1.4502,1.38185 -2.1753,3.68898 -2.17529,6.92139 z"
         style="font-size:30px;fill:#000000;font-family:helvetica"
         id="path3110" />
    </g>
    <g
       style="font-size:30px;fill:#000000;font-family:helvetica"
       id="text3085">
      <path
         d="m 287.75018,119.00102 c 0,-3.56444 0.95703,-6.35496 2.8711,-8.37158 1.91405,-2.01658 4.38475,-3.02488 7.41211,-3.0249 1.9824,2e-5 3.76951,0.47365 5.36132,1.4209 1.59178,0.94728 2.80516,2.26808 3.64014,3.9624 0.83494,1.69435 1.25242,3.61573 1.25244,5.76416 -2e-5,2.17774 -0.43947,4.12598 -1.31836,5.84473 -0.87892,1.71875 -2.12404,3.02002 -3.73535,3.9038 -1.61134,0.88379 -3.34962,1.32569 -5.21484,1.32569 -2.0215,0 -3.82814,-0.48828 -5.41992,-1.46485 -1.59181,-0.97656 -2.79786,-2.30956 -3.61817,-3.99902 -0.82031,-1.68945 -1.23047,-3.47655 -1.23047,-5.36133 z m 2.92969,0.044 c 0,2.5879 0.6958,4.62647 2.0874,6.11572 1.3916,1.48926 3.1372,2.23389 5.23682,2.23389 2.13866,0 3.89891,-0.75195 5.28076,-2.25586 1.38182,-1.5039 2.07274,-3.63769 2.07275,-6.40137 -10e-6,-1.74803 -0.29542,-3.27391 -0.88623,-4.57764 -0.59083,-1.30369 -1.45509,-2.31443 -2.59277,-3.03222 -1.13771,-0.71776 -2.41456,-1.07664 -3.83057,-1.07666 -2.01172,2e-5 -3.74268,0.69093 -5.19287,2.07275 -1.4502,1.38185 -2.17529,3.68898 -2.17529,6.92139 z"
         style="font-size:30px;fill:#000000;font-family:helvetica"
         id="path3113" />
      <path
         d="m 311.9787,129.46001 0,-21.47461 9.52148,0 c 1.91405,2e-5 3.36913,0.19289 4.36524,0.57861 0.99607,0.38576 1.79197,1.06691 2.38769,2.04346 0.59569,0.97658 0.89354,2.05568 0.89356,3.2373 -2e-5,1.52345 -0.49319,2.80763 -1.47949,3.85254 -0.98635,1.04493 -2.50979,1.709 -4.57032,1.99219 0.75194,0.36134 1.32323,0.71778 1.71387,1.06933 0.83006,0.76173 1.61619,1.71388 2.3584,2.85645 l 3.73535,5.84473 -3.57422,0 -2.8418,-4.46778 c -0.83009,-1.28905 -1.51368,-2.27538 -2.05078,-2.95898 -0.53712,-0.68359 -1.01808,-1.1621 -1.44287,-1.43555 -0.42481,-0.27343 -0.85694,-0.46386 -1.29638,-0.57129 -0.32228,-0.0683 -0.84962,-0.10253 -1.58204,-0.10254 l -3.29589,0 0,9.53614 z m 2.8418,-11.99707 6.10839,0 c 1.29882,1e-5 2.31444,-0.13427 3.04688,-0.40284 0.73241,-0.26854 1.28905,-0.69822 1.66992,-1.28906 0.38084,-0.5908 0.57127,-1.23289 0.57129,-1.92627 -2e-5,-1.01561 -0.36867,-1.85057 -1.10596,-2.50488 -0.73732,-0.65428 -1.90187,-0.98143 -3.49365,-0.98145 l -6.79687,0 z"
         style="font-size:30px;fill:#000000;font-family:helvetica"
         id="path3115" />
    </g>
  </g>
  <cdml:cdml
     version="0.15">
    <cdml:info>
      <cdml:author_program
         version="0.13.0">BKchem</cdml:author_program>
    </cdml:info>
    <cdml:paper
       crop_margin="5"
       crop_svg="1"
       orientation="portrait"
       replace_minus="0"
       type="Legal"
       use_real_minus="0" />
    <cdml:viewport
       viewport="0.000000 0.000000 640.000000 480.000000" />
    <cdml:standard
       area_color=""
       font_family="helvetica"
       font_size="24"
       line_color="#000"
       line_width="0.06cm"
       paper_crop_margin="5"
       paper_crop_svg="1"
       paper_orientation="portrait"
       paper_type="Legal">
      <cdml:bond
         double-ratio="0.85"
         length="1.4cm"
         wedge-width="0.18cm"
         width="0.21cm" />
      <cdml:arrow
         length="1.6cm" />
      <cdml:atom
         show_hydrogens="0" />
    </cdml:standard>
    <cdml:molecule
       id="molecule19379"
       name="">
      <cdml:atom
         id="atom3858"
         name="C"
         valency="4">
        <cdml:point
           x="4.367cm"
           y="3.941cm" />
      </cdml:atom>
      <cdml:atom
         id="atom10142"
         name="C"
         valency="4">
        <cdml:point
           x="4.367cm"
           y="2.541cm" />
      </cdml:atom>
      <cdml:atom
         id="atom34279"
         name="C"
         valency="4">
        <cdml:point
           x="5.698cm"
           y="2.108cm" />
      </cdml:atom>
      <cdml:atom
         id="atom60645"
         name="C"
         valency="4">
        <cdml:point
           x="5.698cm"
           y="4.373cm" />
      </cdml:atom>
      <cdml:atom
         id="atom71826"
         name="N"
         pos="center-first"
         valency="3">
        <cdml:point
           x="6.521cm"
           y="3.241cm" />
      </cdml:atom>
      <cdml:atom
         id="atom48017"
         name="O"
         pos="center-first"
         valency="2">
        <cdml:point
           x="6.130cm"
           y="0.776cm" />
      </cdml:atom>
      <cdml:atom
         id="atom56293"
         name="O"
         pos="center-first"
         valency="2">
        <cdml:point
           x="6.131cm"
           y="5.705cm" />
      </cdml:atom>
      <cdml:group
         group-type="implicit"
         id="atom1647"
         name="OR"
         pos="center-first">
        <cdml:point
           x="7.921cm"
           y="3.241cm" />
      </cdml:group>
      <cdml:bond
         double_ratio="0.85"
         end="atom34279"
         id="bond77696"
         line_width="2.26715867159"
         start="atom10142"
         type="n1" />
      <cdml:bond
         double_ratio="0.85"
         end="atom60645"
         id="bond1076"
         line_width="2.26715867159"
         start="atom71826"
         type="n1" />
      <cdml:bond
         double_ratio="0.85"
         end="atom3858"
         id="bond82873"
         line_width="2.26715867159"
         start="atom60645"
         type="n1" />
      <cdml:bond
         bond_width="7.93505535055"
         center="yes"
         double_ratio="0.85"
         end="atom56293"
         id="bond24106"
         line_width="2.26715867159"
         start="atom60645"
         type="n2" />
      <cdml:bond
         double_ratio="0.85"
         end="atom71826"
         id="bond59691"
         line_width="2.26715867159"
         start="atom34279"
         type="n1" />
      <cdml:bond
         double_ratio="0.85"
         end="atom1647"
         id="bond9834"
         line_width="2.26715867159"
         start="atom71826"
         type="n1" />
      <cdml:bond
         bond_width="7.93505535055"
         center="yes"
         double_ratio="0.85"
         end="atom48017"
         id="bond98381"
         line_width="2.26715867159"
         start="atom34279"
         type="n2" />
      <cdml:bond
         double_ratio="0.85"
         end="atom10142"
         id="bond82848"
         line_width="2.26715867159"
         start="atom3858"
         type="n1" />
    </cdml:molecule>
  </cdml:cdml>
</svg>
