<?xml version="1.0" encoding="UTF-8" standalone="no"?>
<!-- Generator: Adobe Illustrator 12.0.1, SVG Export Plug-In . SVG Version: 6.00 Build 51448)  -->
<svg
   xmlns:dc="http://purl.org/dc/elements/1.1/"
   xmlns:cc="http://creativecommons.org/ns#"
   xmlns:rdf="http://www.w3.org/1999/02/22-rdf-syntax-ns#"
   xmlns:svg="http://www.w3.org/2000/svg"
   xmlns="http://www.w3.org/2000/svg"
   xmlns:sodipodi="http://sodipodi.sourceforge.net/DTD/sodipodi-0.dtd"
   xmlns:inkscape="http://www.inkscape.org/namespaces/inkscape"
   version="1.1"
   id="Layer_1"
   width="155.508"
   height="120.484"
   viewBox="0 0 155.508 120.484"
   style="overflow:visible;enable-background:new 0 0 155.508 120.484;"
   xml:space="preserve"
   sodipodi:version="0.32"
   inkscape:version="0.46"
   sodipodi:docname="L-Prolin - L-Proline.svg"
   inkscape:output_extension="org.inkscape.output.svg.inkscape"><metadata
   id="metadata56"><rdf:RDF><cc:Work
       rdf:about=""><dc:format>image/svg+xml</dc:format><dc:type
         rdf:resource="http://purl.org/dc/dcmitype/StillImage" /></cc:Work></rdf:RDF></metadata><defs
   id="defs54"><inkscape:perspective
   sodipodi:type="inkscape:persp3d"
   inkscape:vp_x="0 : 60.242001 : 1"
   inkscape:vp_y="0 : 1000 : 0"
   inkscape:vp_z="155.508 : 60.242001 : 1"
   inkscape:persp3d-origin="77.753998 : 40.161334 : 1"
   id="perspective58" />
	
	

	

	
	

	
</defs><sodipodi:namedview
   inkscape:window-height="675"
   inkscape:window-width="661"
   inkscape:pageshadow="2"
   inkscape:pageopacity="0.0"
   guidetolerance="10.0"
   gridtolerance="10.0"
   objecttolerance="10.0"
   borderopacity="1.0"
   bordercolor="#666666"
   pagecolor="#ffffff"
   id="base"
   showgrid="false"
   inkscape:zoom="3.4982124"
   inkscape:cx="77.753998"
   inkscape:cy="60.242001"
   inkscape:window-x="176"
   inkscape:window-y="176"
   inkscape:current-layer="Layer_1" />
<path
   id="path5"
   d="M 56.4493,113.8619 L 56.4493,97.5333 L 58.6723,97.5333 L 67.2261,110.34785 L 67.2261,97.5333 L 69.3047,97.5333 L 69.3047,113.8619 L 67.0817,113.8619 L 58.5279,101.04735 L 58.5279,113.8619 L 56.4493,113.8619 z"
   style="fill:#231f20" /><path
   id="path7"
   d="M 73.0192,113.8619 L 73.0192,97.5333 L 75.18615,97.5333 L 75.18615,104.24315 L 83.6326,104.24315 L 83.6326,97.5333 L 85.79955,97.5333 L 85.79955,113.8619 L 83.6326,113.8619 L 83.6326,106.1726 L 75.18615,106.1726 L 75.18615,113.8619 L 73.0192,113.8619 z"
   style="fill:#231f20" />
<path
   style="fill:#231f20"
   d="M 63.6902,95.3844 L 62.0752,95.3844 L 62.0752,67.7869 L 62.8827,67.1694 L 63.6902,67.6444 L 63.6902,95.3844 z"
   id="polygon9" />
<path
   style="fill:#231f20"
   d="M 95.51425,47.4094 L 95.51425,49.2619 L 63.6902,67.6444 L 62.8827,67.1694 L 62.7877,66.31535 L 95.51425,47.4094 z"
   id="polygon11" />
<path
   id="path15"
   d="M 87.7309,11.67515 C 87.7309,8.9648 88.4586,6.8444 89.91495,5.31205 C 91.3694,3.77875 93.2485,3.0121 95.5494,3.0121 C 97.058,3.0121 98.4165,3.37215 99.62585,4.09225 C 100.83615,4.8133 101.75955,5.8165 102.39415,7.1047 C 103.02875,8.3929 103.34605,9.854 103.34605,11.4861 C 103.34605,13.14195 103.01165,14.623 102.3438,15.92925 C 101.67595,17.2355 100.7288,18.2254 99.5033,18.89705 C 98.27875,19.5687 96.95635,19.905 95.538,19.905 C 94.00185,19.905 92.6272,19.53355 91.4169,18.7916 C 90.2066,18.04965 89.2908,17.03505 88.6657,15.7516 C 88.0406,14.46815 87.7309,13.1087 87.7309,11.67515 z M 89.9577,11.7027 C 89.9577,13.6692 90.48685,15.21865 91.5461,16.35105 C 92.60345,17.4825 93.9325,18.0487 95.52755,18.0487 C 97.1549,18.0487 98.4925,17.4768 99.5451,16.33395 C 100.59485,15.1911 101.1202,13.56945 101.1202,11.469 C 101.1202,10.1409 100.896,8.98095 100.44665,7.9901 C 99.9973,6.99925 99.3399,6.2307 98.47445,5.6854 C 97.60995,5.1401 96.63905,4.86745 95.56175,4.86745 C 94.0332,4.86745 92.71555,5.3928 91.61355,6.44255 C 90.5087,7.49325 89.9577,9.24695 89.9577,11.7027 z"
   style="fill:#231f20" />
<path
   style="fill:#231f20"
   d="M 91.905202,22.0444 L 93.519252,22.0444 L 93.519252,49.9744 L 91.905202,49.9744 L 91.905202,22.0444 z"
   id="rect17" />
<path
   style="fill:#231f20"
   d="M 97.557698,22.0444 L 99.1727,22.0444 L 99.1727,49.9744 L 97.557698,49.9744 L 97.557698,22.0444 z"
   id="rect19" />
<path
   id="path23"
   d="M 120.36245,68.20015 C 120.36245,65.4898 121.09015,63.3694 122.5465,61.83705 C 124.00095,60.30375 125.881,59.5371 128.1819,59.5371 C 129.6905,59.5371 131.049,59.89715 132.25835,60.61725 C 133.46865,61.3383 134.39205,62.3415 135.02665,63.6297 C 135.66125,64.9179 135.97855,66.379 135.97855,68.0111 C 135.97855,69.66695 135.64415,71.148 134.9763,72.45425 C 134.30845,73.7605 133.3613,74.7504 132.1358,75.42205 C 130.91125,76.0937 129.58885,76.43 128.1705,76.43 C 126.63435,76.43 125.2597,76.05855 124.0494,75.3166 C 122.8391,74.57465 121.9233,73.56005 121.2982,72.2766 C 120.6731,70.99315 120.36245,69.6337 120.36245,68.20015 z M 122.58925,68.2277 C 122.58925,70.1942 123.1184,71.74365 124.17765,72.87605 C 125.235,74.0075 126.56405,74.5737 128.1591,74.5737 C 129.78645,74.5737 131.12405,74.0018 132.17665,72.85895 C 133.2264,71.7161 133.75175,70.09445 133.75175,67.994 C 133.75175,66.6659 133.52755,65.50595 133.0782,64.5151 C 132.62885,63.52425 131.97145,62.7557 131.106,62.2104 C 130.2415,61.6651 129.2706,61.39245 128.1933,61.39245 C 126.66475,61.39245 125.3471,61.9178 124.2451,62.96755 C 123.14025,64.01825 122.58925,65.77195 122.58925,68.2277 z"
   style="fill:#231f20" /><path
   id="path25"
   d="M 138.83995,76.1469 L 138.83995,59.81925 L 141.0069,59.81925 L 141.0069,66.5291 L 149.45335,66.5291 L 149.45335,59.81925 L 151.6203,59.81925 L 151.6203,76.14785 L 149.45335,76.14785 L 149.45335,68.45855 L 141.0069,68.45855 L 141.0069,76.14785 L 138.83995,76.14785 L 138.83995,76.1469 z"
   style="fill:#231f20" />
<path
   style="fill:#231f20"
   d="M 119.9302,61.5169 L 119.1227,62.8944 L 95.51425,49.2619 L 95.51425,47.4094 L 119.9302,61.5169 z"
   id="polygon27" />
<path
   style="fill:#231f20"
   d="M 27.3527,56.4819 L 26.7352,54.5819 L 62.7877,66.31535 L 62.8827,67.1694 L 62.0752,67.7869 L 27.3527,56.4819 z"
   id="polygon29" />
<path
   style="fill:#231f20"
   d="M 5.8827,86.02785 L 3.8877,86.02785 L 26.7352,54.5819 L 27.3527,56.4819 L 5.8827,86.02785 z"
   id="polygon31" />
<path
   style="fill:#231f20"
   d="M 27.3527,115.5719 L 26.7352,117.4719 L 3.8877,86.02785 L 5.8827,86.02785 L 27.3527,115.5719 z"
   id="polygon33" />
<path
   style="fill:#231f20"
   d="M 53.1927,107.16535 L 53.7152,108.7319 L 26.7352,117.4719 L 27.3527,115.5719 L 53.1927,107.16535 z"
   id="polygon35" />
<path
   id="path39"
   d="M 56.5538,38.4794 L 56.5538,22.1508 L 58.72075,22.1508 L 58.72075,28.86065 L 67.1672,28.86065 L 67.1672,22.1508 L 69.33415,22.1508 L 69.33415,38.4794 L 67.1672,38.4794 L 67.1672,30.7901 L 58.72075,30.7901 L 58.72075,38.4794 L 56.5538,38.4794 L 56.5538,38.4794 z"
   style="fill:#231f20" />
<path
   style="fill:#231f20"
   d="M 59.2252,40.5694 L 66.5402,40.5694 L 66.3027,42.1844 L 59.4627,42.1844 L 59.2252,40.5694 z"
   id="polygon41" />
<path
   style="fill:#231f20"
   d="M 59.7952,44.7494 L 65.9702,44.7494 L 65.7802,46.3644 L 59.9852,46.3644 L 59.7952,44.7494 z"
   id="polygon43" />
<path
   style="fill:#231f20"
   d="M 60.3177,48.9294 L 65.4477,48.9294 L 65.2577,50.5444 L 60.5077,50.5444 L 60.3177,48.9294 z"
   id="polygon45" />
<path
   style="fill:#231f20"
   d="M 60.8402,53.1569 L 64.9252,53.1569 L 64.7352,54.7719 L 61.0302,54.7719 L 60.8402,53.1569 z"
   id="polygon47" />
<path
   style="fill:#231f20"
   d="M 61.3627,57.3369 L 64.4027,57.3369 L 64.2127,58.9519 L 61.5527,58.9519 L 61.3627,57.3369 z"
   id="polygon49" />
<path
   style="fill:#231f20"
   d="M 61.8852,61.5169 L 63.8802,61.5169 L 63.6902,63.1319 L 62.0752,63.1319 L 61.8852,61.5169 z"
   id="polygon51" />
</svg>