<?xml version="1.0" encoding="UTF-8" standalone="no"?>
<!-- Created with Inkscape (http://www.inkscape.org/) -->

<svg
   xmlns:dc="http://purl.org/dc/elements/1.1/"
   xmlns:cc="http://creativecommons.org/ns#"
   xmlns:rdf="http://www.w3.org/1999/02/22-rdf-syntax-ns#"
   xmlns:svg="http://www.w3.org/2000/svg"
   xmlns="http://www.w3.org/2000/svg"
   version="1.1"
   width="226.25"
   height="120"
   id="svg2985"
   xml:space="preserve"><metadata
     id="metadata2991"><rdf:RDF><cc:Work
         rdf:about=""><dc:format>image/svg+xml</dc:format><dc:type
           rdf:resource="http://purl.org/dc/dcmitype/StillImage" /><dc:title></dc:title></cc:Work></rdf:RDF></metadata><defs
     id="defs2989"><clipPath
       id="clipPath2999"><path
         d="m 0,-0.3 181.3,0 0,96.3 L 0,96 0,-0.3 z"
         id="path3001" /></clipPath></defs><g
     transform="matrix(1.25,0,0,-1.25,0,120)"
     id="g2993"><g
       id="g2995"><g
         clip-path="url(#clipPath2999)"
         id="g2997"><path
           d="m 0,96 181.4,0 0,-96.3 L 0,-0.3 0,96 z"
           id="path3003"
           style="fill:#ffffff;fill-opacity:1;fill-rule:evenodd;stroke:none" /><g
           id="g3005"><g
             transform="matrix(0.99732,0,0,-1,30.5,13.1)"
             id="text3007"><path
               d="m 14.168164,-6.0485353 2.28291,0.5766114 C 15.97251,-3.5969528 15.111517,-2.1671935 13.868091,-1.1826416 12.624638,-0.19808737 11.10466,0.29418916 9.3081544,0.29418946 7.4488696,0.29418916 5.9367373,-0.08433423 4.771753,-0.84138185 3.6067591,-1.5984278 2.7202691,-2.6947727 2.1122803,-4.13042 1.5042873,-5.566059 1.2002918,-7.1076102 1.200293,-8.7550783 c -1.2e-6,-1.7965067 0.3432195,-3.3635537 1.0296631,-4.7011477 0.6864391,-1.337566 1.6631472,-2.3535 2.930127,-3.047803 1.2669695,-0.69427 2.6614261,-1.041413 4.1833741,-1.04143 1.7259008,1.7e-5 3.1772338,0.43934 4.3540038,1.317969 1.176743,0.878661 1.99655,2.114255 2.459424,3.706787 l -2.247607,0.529541 c -0.400112,-1.255195 -0.980645,-2.169143 -1.741602,-2.741846 -0.760981,-0.572674 -1.718077,-0.859018 -2.8712891,-0.859033 -1.3258218,1.5e-5 -2.4339343,0.31774 -3.3243409,0.953174 -0.8904185,0.635463 -1.5160608,1.488611 -1.8769287,2.559448 -0.3608762,1.07086 -0.5413122,2.1750505 -0.5413086,3.3125732 -3.6e-6,1.467032 0.2137739,2.7477355 0.641333,3.8421143 0.4275507,1.0943886 1.0924182,1.9122345 1.9946045,2.4535401 0.9021739,0.5413105 1.8788819,0.8119645 2.930127,0.8119629 1.2787328,1.6e-6 2.3613488,-0.3687155 3.2478518,-1.1061524 0.886477,-0.7374314 1.486623,-1.8318151 1.800439,-3.2831544 z"
               id="path3064"
               style="font-size:24.10000038px;font-variant:normal;font-weight:normal;writing-mode:lr-tb;fill:#000000;fill-opacity:1;fill-rule:nonzero;stroke:none;font-family:Arial;-inkscape-font-specification:ArialMT" /></g></g><g
           id="g3011"><g
             transform="matrix(0.99732,0,0,-1,4.4,13.1)"
             id="text3013"><path
               d="m 1.9298828,0 0,-17.25127 2.2829102,0 0,7.084082 8.966895,0 0,-7.084082 2.28291,0 0,17.25127 -2.28291,0 0,-8.1313966 -8.966895,0 0,8.1313966 z"
               id="path3067"
               style="font-size:24.10000038px;font-variant:normal;font-weight:normal;writing-mode:lr-tb;fill:#000000;fill-opacity:1;fill-rule:nonzero;stroke:none;font-family:Arial;-inkscape-font-specification:ArialMT" /></g></g><g
           id="g3017"><g
             transform="matrix(1,0,0,-1,21.5,5.1)"
             id="text3019"><path
               d="m 0.671875,-3.0234375 1.40625,-0.1875 c 0.1614561,0.7968774 0.4361954,1.3710956 0.8242188,1.7226563 0.3880175,0.3515636 0.8606733,0.52734466 1.4179687,0.5273437 0.6614534,9.6e-7 1.2200465,-0.2291655 1.6757812,-0.6875 0.4557228,-0.4583312 0.6835871,-1.026039 0.6835938,-1.703125 C 6.6796808,-3.9973918 6.4687435,-4.5299434 6.046875,-4.9492187 5.6249944,-5.3684842 5.0885366,-5.5781194 4.4375,-5.578125 c -0.2656292,5.6e-6 -0.596358,0.052089 -0.9921875,0.15625 l 0.15625,-1.234375 c 0.093746,0.010423 0.1692671,0.015632 0.2265625,0.015625 0.5989539,6.6e-6 1.1380159,-0.1562432 1.6171875,-0.46875 0.4791607,-0.3124926 0.7187438,-0.7942629 0.71875,-1.4453125 -6.2e-6,-0.5156159 -0.1744852,-0.9426988 -0.5234375,-1.28125 C 5.2916614,-10.174469 4.841141,-10.34374 4.2890625,-10.34375 3.7421838,-10.34374 3.286455,-10.171865 2.921875,-9.828125 2.5572891,-9.4843655 2.3229143,-8.968741 2.21875,-8.28125 l -1.40625,-0.25 c 0.17187402,-0.9426989 0.5624986,-1.673167 1.171875,-2.191406 0.6093724,-0.518218 1.3671841,-0.777332 2.2734375,-0.777344 0.6249951,1.2e-5 1.2005154,0.134126 1.7265625,0.402344 0.5260352,0.26824 0.9283785,0.634125 1.2070312,1.097656 0.2786384,0.4635512 0.4179612,0.9557382 0.4179688,1.4765625 -7.6e-6,0.4947997 -0.13282,0.9453201 -0.3984375,1.3515625 -0.2656319,0.4062568 -0.6588607,0.7291731 -1.1796875,0.96875 0.6770766,0.156256 1.2031178,0.4804745 1.578125,0.9726563 0.374992,0.4921922 0.5624918,1.108077 0.5625,1.8476562 -8.2e-6,1.0000024 -0.3645911,1.8476578 -1.09375,2.54296875 C 6.348952,-0.14453111 5.4270779,0.2031248 4.3125,0.203125 3.3072884,0.2031248 2.4726538,-0.09635407 1.8085937,-0.6953125 1.1445301,-1.2942695 0.76562423,-2.0703104 0.671875,-3.0234375 z"
               id="path3070"
               style="font-size:16px;font-variant:normal;font-weight:normal;writing-mode:lr-tb;fill:#000000;fill-opacity:1;fill-rule:nonzero;stroke:none;font-family:Arial;-inkscape-font-specification:ArialMT" /></g></g><g
           id="g3023"><path
             d="m 49,28.6 24.1,14"
             id="path3025"
             style="fill:none;stroke:#000000;stroke-width:1.70000005;stroke-linecap:butt;stroke-linejoin:miter;stroke-miterlimit:10;stroke-opacity:1;stroke-dasharray:none" /></g><g
           id="g3027"><path
             d="M 73.1,42.6 107.3,22.7"
             id="path3029"
             style="fill:none;stroke:#000000;stroke-width:1.70000005;stroke-linecap:butt;stroke-linejoin:miter;stroke-miterlimit:10;stroke-opacity:1;stroke-dasharray:none" /></g><g
           id="g3031"><g
             transform="matrix(0.99732,0,0,-1,133.1,33.1)"
             id="text3033"><path
               d="m 14.168164,-6.0485353 2.28291,0.5766114 C 15.97251,-3.5969528 15.111517,-2.1671935 13.868091,-1.1826416 12.624638,-0.19808737 11.10466,0.29418916 9.3081544,0.29418946 7.4488696,0.29418916 5.9367373,-0.08433423 4.771753,-0.84138185 3.6067591,-1.5984278 2.7202691,-2.6947727 2.1122803,-4.13042 1.5042873,-5.566059 1.2002918,-7.1076102 1.200293,-8.7550783 c -1.2e-6,-1.7965067 0.3432195,-3.3635537 1.0296631,-4.7011477 0.6864391,-1.337566 1.6631472,-2.3535 2.930127,-3.047803 1.2669695,-0.69427 2.6614261,-1.041413 4.1833741,-1.04143 1.7259008,1.7e-5 3.1772338,0.43934 4.3540038,1.317969 1.176743,0.878661 1.99655,2.114255 2.459424,3.706787 l -2.247607,0.529541 c -0.400112,-1.255195 -0.980645,-2.169143 -1.741602,-2.741846 -0.760981,-0.572674 -1.718077,-0.859018 -2.8712891,-0.859033 -1.3258218,1.5e-5 -2.4339343,0.31774 -3.3243409,0.953174 -0.8904185,0.635463 -1.5160608,1.488611 -1.8769287,2.559448 -0.3608762,1.07086 -0.5413122,2.1750505 -0.5413086,3.3125732 -3.6e-6,1.467032 0.2137739,2.7477355 0.641333,3.8421143 0.4275507,1.0943886 1.0924182,1.9122345 1.9946045,2.4535401 0.9021739,0.5413105 1.8788819,0.8119645 2.930127,0.8119629 1.2787328,1.6e-6 2.3613488,-0.3687155 3.2478518,-1.1061524 0.886477,-0.7374314 1.486623,-1.8318151 1.800439,-3.2831544 z"
               id="path3073"
               style="font-size:24.10000038px;font-variant:normal;font-weight:normal;writing-mode:lr-tb;fill:#000000;fill-opacity:1;fill-rule:nonzero;stroke:none;font-family:Arial;-inkscape-font-specification:ArialMT" /></g></g><g
           id="g3037"><g
             transform="matrix(0.99732,0,0,-1,150.4,33.1)"
             id="text3039"><path
               d="m 1.9298828,0 0,-17.25127 2.2829102,0 0,7.084082 8.966895,0 0,-7.084082 2.28291,0 0,17.25127 -2.28291,0 0,-8.1313966 -8.966895,0 0,8.1313966 z"
               id="path3076"
               style="font-size:24.10000038px;font-variant:normal;font-weight:normal;writing-mode:lr-tb;fill:#000000;fill-opacity:1;fill-rule:nonzero;stroke:none;font-family:Arial;-inkscape-font-specification:ArialMT" /></g></g><g
           id="g3043"><g
             transform="matrix(1,0,0,-1,167.5,25.1)"
             id="text3045"><path
               d="m 0.671875,-3.0234375 1.40625,-0.1875 c 0.1614561,0.7968774 0.4361954,1.3710956 0.8242188,1.7226563 0.3880175,0.3515636 0.8606733,0.52734466 1.4179687,0.5273437 0.6614534,9.6e-7 1.2200465,-0.2291655 1.6757812,-0.6875 0.4557228,-0.4583312 0.6835871,-1.026039 0.6835938,-1.703125 C 6.6796808,-3.9973918 6.4687435,-4.5299434 6.046875,-4.9492187 5.6249944,-5.3684842 5.0885366,-5.5781194 4.4375,-5.578125 c -0.2656292,5.6e-6 -0.596358,0.052089 -0.9921875,0.15625 l 0.15625,-1.234375 c 0.093746,0.010423 0.1692671,0.015632 0.2265625,0.015625 0.5989539,6.6e-6 1.1380159,-0.1562432 1.6171875,-0.46875 0.4791607,-0.3124926 0.7187438,-0.7942629 0.71875,-1.4453125 -6.2e-6,-0.5156159 -0.1744852,-0.9426988 -0.5234375,-1.28125 C 5.2916614,-10.174469 4.841141,-10.34374 4.2890625,-10.34375 3.7421838,-10.34374 3.286455,-10.171865 2.921875,-9.828125 2.5572891,-9.4843655 2.3229143,-8.968741 2.21875,-8.28125 l -1.40625,-0.25 c 0.17187402,-0.9426989 0.5624986,-1.673167 1.171875,-2.191406 0.6093724,-0.518218 1.3671841,-0.777332 2.2734375,-0.777344 0.6249951,1.2e-5 1.2005154,0.134126 1.7265625,0.402344 0.5260352,0.26824 0.9283785,0.634125 1.2070312,1.097656 0.2786384,0.4635512 0.4179612,0.9557382 0.4179688,1.4765625 -7.6e-6,0.4947997 -0.13282,0.9453201 -0.3984375,1.3515625 -0.2656319,0.4062568 -0.6588607,0.7291731 -1.1796875,0.96875 0.6770766,0.156256 1.2031178,0.4804745 1.578125,0.9726563 0.374992,0.4921922 0.5624918,1.108077 0.5625,1.8476562 -8.2e-6,1.0000024 -0.3645911,1.8476578 -1.09375,2.54296875 C 6.348952,-0.14453111 5.4270779,0.2031248 4.3125,0.203125 3.3072884,0.2031248 2.4726538,-0.09635407 1.8085937,-0.6953125 1.1445301,-1.2942695 0.76562423,-2.0703104 0.671875,-3.0234375 z"
               id="path3079"
               style="font-size:16px;font-variant:normal;font-weight:normal;writing-mode:lr-tb;fill:#000000;fill-opacity:1;fill-rule:nonzero;stroke:none;font-family:Arial;-inkscape-font-specification:ArialMT" /></g></g><g
           id="g3049"><path
             d="m 107.3,22.7 24.4,14.2"
             id="path3051"
             style="fill:none;stroke:#000000;stroke-width:1.70000005;stroke-linecap:butt;stroke-linejoin:miter;stroke-miterlimit:10;stroke-opacity:1;stroke-dasharray:none" /></g><g
           id="g3053"><g
             transform="matrix(0.99732,0,0,-1,66.5,72.9)"
             id="text3055"><path
               d="m 1.7651367,0 0,-17.25127 2.2829102,0 0,15.215479 8.4961911,0 0,2.035791 z"
               id="path3082"
               style="font-size:24.10000038px;font-variant:normal;font-weight:normal;writing-mode:lr-tb;fill:#000000;fill-opacity:1;fill-rule:nonzero;stroke:none;font-family:Arial;-inkscape-font-specification:ArialMT" /><path
               d="m 14.999991,-14.815381 0,-2.435889 2.118164,0 0,2.435889 z m 0,14.815381 0,-12.497168 2.118164,0 0,12.497168 z"
               id="path3084"
               style="font-size:24.10000038px;font-variant:normal;font-weight:normal;writing-mode:lr-tb;fill:#000000;fill-opacity:1;fill-rule:nonzero;stroke:none;font-family:Arial;-inkscape-font-specification:ArialMT" /></g></g><g
           id="g3059"><path
             d="m 73.1,42.6 0,28.9"
             id="path3061"
             style="fill:none;stroke:#000000;stroke-width:1.70000005;stroke-linecap:butt;stroke-linejoin:miter;stroke-miterlimit:10;stroke-opacity:1;stroke-dasharray:none" /></g></g></g></g></svg>