<?xml version="1.0" encoding="UTF-8" standalone="no"?>
<!-- Generator: Adobe Illustrator 12.0.1, SVG Export Plug-In . SVG Version: 6.00 Build 51448)  -->
<svg
   xmlns:dc="http://purl.org/dc/elements/1.1/"
   xmlns:cc="http://web.resource.org/cc/"
   xmlns:rdf="http://www.w3.org/1999/02/22-rdf-syntax-ns#"
   xmlns:svg="http://www.w3.org/2000/svg"
   xmlns="http://www.w3.org/2000/svg"
   xmlns:sodipodi="http://sodipodi.sourceforge.net/DTD/sodipodi-0.dtd"
   xmlns:inkscape="http://www.inkscape.org/namespaces/inkscape"
   version="1.1"
   id="Layer_1"
   width="141.86"
   height="95.534"
   viewBox="0 0 141.86 95.534"
   style="overflow:visible;enable-background:new 0 0 141.86 95.534;"
   xml:space="preserve"
   sodipodi:version="0.32"
   inkscape:version="0.45.1"
   sodipodi:docname="tert-Butyllithium.svg"
   inkscape:output_extension="org.inkscape.output.svg.inkscape"
   sodipodi:docbase="C:\"><metadata
   id="metadata64"><rdf:RDF><cc:Work
       rdf:about=""><dc:format>image/svg+xml</dc:format><dc:type
         rdf:resource="http://purl.org/dc/dcmitype/StillImage" /></cc:Work></rdf:RDF></metadata><defs
   id="defs62" /><sodipodi:namedview
   inkscape:window-height="579"
   inkscape:window-width="801"
   inkscape:pageshadow="2"
   inkscape:pageopacity="0.0"
   guidetolerance="10.0"
   gridtolerance="10.0"
   objecttolerance="10.0"
   borderopacity="1.0"
   bordercolor="#666666"
   pagecolor="#ffffff"
   id="base"
   inkscape:zoom="3.9567067"
   inkscape:cx="70.93"
   inkscape:cy="47.766998"
   inkscape:window-x="176"
   inkscape:window-y="176"
   inkscape:current-layer="Layer_1" />
<g
   id="g3"
   transform="matrix(0.95,0,0,0.95,3.546525,2.38835)">
	<path
   style="fill:#231f20"
   d="M 74.881,51.157 L 77.162,51.731 C 76.685,53.601 75.829,55.027 74.593,56.008 C 73.356,56.989 71.843,57.481 70.056,57.481 C 68.206,57.481 66.702,57.104 65.543,56.349 C 64.384,55.595 63.502,54.501 62.897,53.071 C 62.292,51.64 61.99,50.103 61.99,48.462 C 61.99,46.672 62.331,45.109 63.014,43.776 C 63.697,42.443 64.668,41.429 65.929,40.738 C 67.189,40.047 68.575,39.7 70.089,39.7 C 71.806,39.7 73.249,40.138 74.419,41.014 C 75.59,41.891 76.404,43.122 76.865,44.711 L 74.631,45.238 C 74.233,43.988 73.656,43.078 72.9,42.508 C 72.143,41.938 71.191,41.653 70.045,41.653 C 68.727,41.653 67.625,41.969 66.739,42.602 C 65.854,43.235 65.232,44.084 64.873,45.151 C 64.514,46.218 64.335,47.317 64.335,48.45 C 64.335,49.911 64.547,51.186 64.972,52.276 C 65.397,53.366 66.057,54.18 66.954,54.719 C 67.851,55.258 68.821,55.528 69.866,55.528 C 71.137,55.528 72.212,55.161 73.093,54.426 C 73.974,53.691 74.568,52.603 74.881,51.157 z "
   id="path5" />
</g>
<g
   id="g7"
   transform="matrix(0.95,0,0,0.95,3.546525,2.38835)">
	<path
   style="fill:#231f20"
   d="M 113.182,61.407 L 115.463,61.981 C 114.986,63.851 114.129,65.277 112.893,66.258 C 111.657,67.239 110.144,67.731 108.357,67.731 C 106.507,67.731 105.003,67.354 103.844,66.599 C 102.684,65.845 101.803,64.751 101.198,63.321 C 100.594,61.89 100.292,60.353 100.292,58.712 C 100.292,56.922 100.633,55.359 101.315,54.026 C 101.997,52.693 102.969,51.679 104.229,50.988 C 105.489,50.297 106.875,49.95 108.389,49.95 C 110.106,49.95 111.549,50.388 112.719,51.264 C 113.891,52.141 114.705,53.372 115.166,54.961 L 112.932,55.488 C 112.534,54.238 111.956,53.328 111.2,52.758 C 110.444,52.188 109.491,51.903 108.345,51.903 C 107.027,51.903 105.925,52.219 105.04,52.852 C 104.154,53.485 103.532,54.334 103.173,55.401 C 102.815,56.467 102.636,57.567 102.636,58.7 C 102.636,60.161 102.848,61.436 103.273,62.526 C 103.698,63.616 104.359,64.43 105.255,64.969 C 106.151,65.508 107.122,65.778 108.166,65.778 C 109.437,65.778 110.513,65.411 111.394,64.676 C 112.275,63.941 112.869,62.853 113.182,61.407 z "
   id="path9" />
	<path
   style="fill:#231f20"
   d="M 118.357,67.435 L 118.357,50.247 L 120.638,50.247 L 120.638,57.31 L 129.529,57.31 L 129.529,50.247 L 131.81,50.247 L 131.81,67.435 L 129.529,67.435 L 129.529,59.341 L 120.638,59.341 L 120.638,67.435 L 118.357,67.435 z "
   id="path11" />
</g>
<g
   id="g13"
   transform="matrix(0.95,0,0,0.95,3.546525,2.38835)">
	<path
   style="fill:#231f20"
   d="M 133.407,68.528 L 134.985,68.309 C 135.168,69.205 135.477,69.851 135.913,70.247 C 136.35,70.642 136.885,70.84 137.52,70.84 C 138.273,70.84 138.906,70.582 139.419,70.068 C 139.931,69.552 140.188,68.914 140.188,68.152 C 140.188,67.426 139.95,66.828 139.472,66.356 C 138.995,65.884 138.388,65.649 137.653,65.649 C 137.352,65.649 136.978,65.708 136.531,65.825 L 136.708,64.434 C 136.814,64.446 136.899,64.452 136.964,64.452 C 137.639,64.452 138.245,64.277 138.785,63.926 C 139.324,63.575 139.595,63.034 139.595,62.303 C 139.595,61.724 139.398,61.244 139.004,60.865 C 138.609,60.485 138.102,60.295 137.479,60.295 C 136.862,60.295 136.347,60.489 135.936,60.877 C 135.524,61.265 135.259,61.847 135.142,62.623 L 133.564,62.342 C 133.757,61.28 134.198,60.457 134.884,59.874 C 135.571,59.29 136.424,58.998 137.445,58.998 C 138.149,58.998 138.798,59.148 139.389,59.45 C 139.982,59.751 140.435,60.162 140.749,60.682 C 141.062,61.203 141.22,61.755 141.22,62.34 C 141.22,62.896 141.071,63.402 140.772,63.858 C 140.473,64.314 140.031,64.676 139.445,64.946 C 140.207,65.122 140.799,65.487 141.224,66.04 C 141.649,66.595 141.861,67.287 141.861,68.119 C 141.861,69.245 141.45,70.198 140.628,70.98 C 139.807,71.762 138.768,72.154 137.512,72.154 C 136.378,72.154 135.438,71.817 134.69,71.145 C 133.939,70.471 133.513,69.6 133.407,68.528 z "
   id="path15" />
</g>
<path
   style="fill:#231f20"
   d="M 97.916675,51.58315 L 96.017625,58.6141 L 94.544175,57.94815 L 96.301675,51.39315 L 97.916675,51.58315 z "
   id="polygon17" />
<path
   style="fill:#231f20"
   d="M 93.737625,51.15565 L 92.216675,56.90315 L 90.696675,56.2391 L 92.121675,50.9666 L 93.737625,51.15565 z "
   id="polygon19" />
<path
   style="fill:#231f20"
   d="M 89.605125,50.68065 L 88.369175,55.2416 L 86.896675,54.5766 L 87.989175,50.5391 L 89.605125,50.68065 z "
   id="polygon21" />
<path
   style="fill:#231f20"
   d="M 85.425125,50.2541 L 84.569175,53.53065 L 83.050125,52.8666 L 83.809175,50.0641 L 85.425125,50.2541 z "
   id="polygon23" />
<path
   style="fill:#231f20"
   d="M 81.292625,49.77815 L 80.721675,51.86815 L 79.250125,51.20315 L 79.676675,49.63565 L 81.292625,49.77815 z "
   id="polygon25" />
<g
   id="g27"
   transform="matrix(0.95,0,0,0.95,3.546525,2.38835)">
	<path
   style="fill:#231f20"
   d="M 0,77.034 L 0,59.847 L 2.281,59.847 L 2.281,66.91 L 11.172,66.91 L 11.172,59.847 L 13.453,59.847 L 13.453,77.035 L 11.172,77.035 L 11.172,68.94 L 2.281,68.94 L 2.281,77.034 L 0,77.034 L 0,77.034 z "
   id="path29" />
</g>
<g
   id="g31"
   transform="matrix(0.95,0,0,0.95,3.546525,2.38835)">
	<path
   style="fill:#231f20"
   d="M 15.461,78.128 L 17.039,77.909 C 17.222,78.805 17.531,79.451 17.967,79.847 C 18.404,80.242 18.939,80.44 19.574,80.44 C 20.327,80.44 20.96,80.182 21.473,79.668 C 21.986,79.152 22.242,78.514 22.242,77.752 C 22.242,77.026 22.004,76.428 21.526,75.956 C 21.049,75.484 20.443,75.249 19.707,75.249 C 19.406,75.249 19.032,75.308 18.585,75.425 L 18.762,74.034 C 18.868,74.046 18.953,74.052 19.018,74.052 C 19.692,74.052 20.299,73.877 20.839,73.526 C 21.379,73.175 21.649,72.634 21.649,71.903 C 21.649,71.324 21.452,70.844 21.058,70.465 C 20.664,70.085 20.156,69.895 19.533,69.895 C 18.916,69.895 18.401,70.089 17.99,70.477 C 17.579,70.865 17.314,71.447 17.197,72.223 L 15.619,71.942 C 15.812,70.88 16.253,70.057 16.939,69.474 C 17.625,68.89 18.479,68.598 19.5,68.598 C 20.204,68.598 20.853,68.748 21.445,69.05 C 22.037,69.351 22.49,69.762 22.805,70.282 C 23.118,70.803 23.276,71.355 23.276,71.94 C 23.276,72.496 23.127,73.002 22.828,73.458 C 22.529,73.914 22.087,74.276 21.501,74.546 C 22.263,74.722 22.855,75.087 23.28,75.64 C 23.704,76.195 23.917,76.887 23.917,77.719 C 23.917,78.845 23.506,79.798 22.684,80.58 C 21.862,81.362 20.823,81.754 19.567,81.754 C 18.434,81.754 17.493,81.417 16.745,80.745 C 15.993,80.07 15.566,79.199 15.461,78.128 z "
   id="path33" />
</g>
<g
   id="g35"
   transform="matrix(0.95,0,0,0.95,3.546525,2.38835)">
	<path
   style="fill:#231f20"
   d="M 38.039,71.007 L 40.32,71.581 C 39.844,73.451 38.987,74.877 37.751,75.858 C 36.514,76.839 35.001,77.331 33.214,77.331 C 31.364,77.331 29.86,76.954 28.701,76.199 C 27.542,75.445 26.66,74.351 26.055,72.921 C 25.45,71.49 25.148,69.953 25.148,68.312 C 25.148,66.522 25.489,64.959 26.172,63.626 C 26.855,62.293 27.826,61.279 29.087,60.588 C 30.347,59.897 31.733,59.55 33.247,59.55 C 34.964,59.55 36.407,59.988 37.577,60.864 C 38.748,61.741 39.563,62.972 40.023,64.561 L 37.789,65.088 C 37.391,63.838 36.814,62.928 36.058,62.358 C 35.301,61.788 34.349,61.503 33.203,61.503 C 31.885,61.503 30.783,61.819 29.897,62.452 C 29.012,63.085 28.39,63.934 28.031,65.001 C 27.672,66.068 27.493,67.167 27.493,68.3 C 27.493,69.761 27.705,71.036 28.13,72.126 C 28.555,73.216 29.215,74.03 30.112,74.569 C 31.009,75.108 31.979,75.378 33.024,75.378 C 34.295,75.378 35.37,75.011 36.251,74.276 C 37.132,73.541 37.727,72.452 38.039,71.007 z "
   id="path37" />
</g>
<path
   style="fill:#231f20"
   d="M 45.856675,62.31815 L 45.049175,60.89315 L 60.296675,52.10565 L 61.104175,53.48315 L 45.856675,62.31815 z "
   id="polygon39" />
<g
   id="g41"
   transform="matrix(0.95,0,0,0.95,3.546525,2.38835)">
	<path
   style="fill:#231f20"
   d="M 74.881,11.457 L 77.162,12.031 C 76.685,13.901 75.829,15.327 74.593,16.308 C 73.356,17.289 71.843,17.781 70.056,17.781 C 68.206,17.781 66.702,17.404 65.543,16.649 C 64.384,15.895 63.502,14.801 62.897,13.371 C 62.292,11.94 61.99,10.403 61.99,8.762 C 61.99,6.972 62.331,5.409 63.014,4.076 C 63.697,2.743 64.668,1.729 65.929,1.038 C 67.188,0.347 68.575,0 70.089,0 C 71.806,0 73.249,0.438 74.419,1.314 C 75.59,2.191 76.404,3.422 76.865,5.011 L 74.631,5.538 C 74.233,4.288 73.656,3.378 72.9,2.808 C 72.143,2.238 71.191,1.953 70.045,1.953 C 68.727,1.953 67.625,2.269 66.739,2.902 C 65.854,3.535 65.232,4.384 64.873,5.451 C 64.514,6.518 64.335,7.617 64.335,8.75 C 64.335,10.211 64.547,11.486 64.972,12.576 C 65.397,13.666 66.057,14.48 66.954,15.019 C 67.851,15.558 68.821,15.828 69.866,15.828 C 71.137,15.828 72.212,15.461 73.093,14.726 C 73.974,13.991 74.568,12.902 74.881,11.457 z "
   id="path43" />
	<path
   style="fill:#231f20"
   d="M 80.057,17.484 L 80.057,0.297 L 82.338,0.297 L 82.338,7.36 L 91.229,7.36 L 91.229,0.297 L 93.51,0.297 L 93.51,17.485 L 91.229,17.485 L 91.229,9.391 L 82.338,9.391 L 82.338,17.485 L 80.057,17.485 L 80.057,17.484 z "
   id="path45" />
</g>
<g
   id="g47"
   transform="matrix(0.95,0,0,0.95,3.546525,2.38835)">
	<path
   style="fill:#231f20"
   d="M 95.107,18.578 L 96.685,18.359 C 96.867,19.255 97.177,19.901 97.613,20.297 C 98.049,20.692 98.585,20.89 99.22,20.89 C 99.972,20.89 100.606,20.632 101.118,20.118 C 101.631,19.602 101.888,18.964 101.888,18.202 C 101.888,17.476 101.65,16.878 101.171,16.406 C 100.694,15.934 100.088,15.699 99.353,15.699 C 99.052,15.699 98.677,15.758 98.23,15.875 L 98.408,14.484 C 98.513,14.496 98.599,14.502 98.664,14.502 C 99.338,14.502 99.945,14.327 100.484,13.976 C 101.024,13.625 101.295,13.084 101.295,12.353 C 101.295,11.774 101.098,11.294 100.703,10.915 C 100.309,10.535 99.801,10.345 99.178,10.345 C 98.561,10.345 98.047,10.539 97.635,10.927 C 97.223,11.315 96.959,11.897 96.842,12.673 L 95.264,12.392 C 95.457,11.33 95.897,10.507 96.584,9.924 C 97.27,9.34 98.123,9.048 99.145,9.048 C 99.848,9.048 100.497,9.198 101.089,9.5 C 101.682,9.801 102.135,10.212 102.449,10.732 C 102.762,11.253 102.92,11.805 102.92,12.39 C 102.92,12.946 102.77,13.452 102.471,13.908 C 102.172,14.364 101.731,14.726 101.145,14.996 C 101.907,15.172 102.499,15.537 102.924,16.09 C 103.348,16.645 103.561,17.337 103.561,18.169 C 103.561,19.295 103.149,20.248 102.328,21.03 C 101.507,21.812 100.468,22.204 99.212,22.204 C 98.078,22.204 97.138,21.867 96.39,21.195 C 95.639,20.521 95.213,19.649 95.107,18.578 z "
   id="path49" />
</g>
<path
   style="fill:#231f20"
   d="M 68.656678,21.42065 L 70.271678,21.42065 L 70.271678,37.95065 L 68.656678,37.95065 L 68.656678,21.42065 z "
   id="rect51" />
<g
   id="g53"
   transform="matrix(0.95,0,0,0.95,3.546525,2.38835)">
	<path
   style="fill:#231f20"
   d="M 74.104,95.534 L 74.104,78.347 L 76.385,78.347 L 76.385,93.503 L 84.823,93.503 L 84.823,95.534 L 74.104,95.534 z "
   id="path55" />
	<path
   style="fill:#231f20"
   d="M 87.279,80.769 L 87.279,78.347 L 89.388,78.347 L 89.388,80.769 L 87.279,80.769 z M 87.279,95.534 L 87.279,83.081 L 89.388,83.081 L 89.388,95.534 L 87.279,95.534 z "
   id="path57" />
</g>
<path
   style="fill:#231f20"
   d="M 80.009175,72.91065 L 72.979175,74.81065 L 71.696675,59.13565 L 73.264175,58.70815 L 80.009175,72.91065 z "
   id="polygon59" />
</svg>