<?xml version="1.0" encoding="UTF-8" standalone="no"?>
<svg
   xmlns:cdml="http://www.freesoftware.fsf.org/bkchem/cdml"
   xmlns:dc="http://purl.org/dc/elements/1.1/"
   xmlns:cc="http://creativecommons.org/ns#"
   xmlns:rdf="http://www.w3.org/1999/02/22-rdf-syntax-ns#"
   xmlns:svg="http://www.w3.org/2000/svg"
   xmlns="http://www.w3.org/2000/svg"
   xmlns:sodipodi="http://sodipodi.sourceforge.net/DTD/sodipodi-0.dtd"
   xmlns:inkscape="http://www.inkscape.org/namespaces/inkscape"
   height="59.54590mm"
   version="1.0"
   viewBox="0 0 322 225"
   width="85.21680mm"
   id="svg3119"
   inkscape:version="0.48.1 "
   sodipodi:docname="taddol.svg">
  <metadata
     id="metadata3251">
    <rdf:RDF>
      <cc:Work
         rdf:about="">
        <dc:format>image/svg+xml</dc:format>
        <dc:type
           rdf:resource="http://purl.org/dc/dcmitype/StillImage" />
        <dc:title></dc:title>
      </cc:Work>
    </rdf:RDF>
  </metadata>
  <defs
     id="defs3249" />
  <sodipodi:namedview
     pagecolor="#ffffff"
     bordercolor="#666666"
     borderopacity="1"
     objecttolerance="10"
     gridtolerance="10"
     guidetolerance="10"
     inkscape:pageopacity="0"
     inkscape:pageshadow="2"
     inkscape:window-width="640"
     inkscape:window-height="480"
     id="namedview3247"
     showgrid="false"
     inkscape:zoom="1.2465081"
     inkscape:cx="150.97464"
     inkscape:cy="105.49471"
     inkscape:window-x="0"
     inkscape:window-y="0"
     inkscape:window-maximized="0"
     inkscape:current-layer="svg3119" />
  <g
     font-family="Helvetica"
     font-size="12pt"
     stroke-linecap="round"
     transform="translate(-221,-118)"
     id="g3121">
    <g
       stroke="#000000"
       stroke-width="2.26715867159"
       id="g3123">
      <path
         style=""
         d="M 454.31,273.23999 486,254.95"
         id="line3125" />
    </g>
    <g
       stroke="#000000"
       stroke-width="2.26715867159"
       id="g3127">
      <path
         style=""
         d="m 447.59,272.54999 0.86999,-2.69998"
         id="line3129" />
      <path
         style=""
         d="m 441.20999,270.76999 1.05002,-3.22998"
         id="line3131" />
      <path
         style=""
         d="M 434.82999,269 436.06,265.23001"
         id="line3133" />
      <path
         style=""
         d="m 428.45999,267.23001 1.4,-4.31"
         id="line3135" />
      <path
         style=""
         d="m 422.07999,265.45001 1.58001,-4.85"
         id="line3137" />
      <path
         style=""
         d="m 415.70001,263.67999 1.75,-5.38998"
         id="line3139" />
      <path
         style=""
         d="M 409.32999,261.91 411.25,255.98"
         id="line3141" />
    </g>
    <g
       stroke="#000000"
       stroke-width="2.26715867159"
       id="g3143">
      <path
         style=""
         d="m 458.78,277.79999 -2.75,1.59002"
         id="line3145" />
      <path
         style=""
         d="M 462.26001,282.92999 458.72,284.97"
         id="line3147" />
      <path
         style=""
         d="m 465.73999,288.04999 -4.31998,2.49002"
         id="line3149" />
      <path
         style=""
         d="m 469.22,293.17001 -5.1,2.94999"
         id="line3151" />
      <path
         style=""
         d="m 472.70999,298.29999 -5.88998,3.40002"
         id="line3153" />
    </g>
    <g
       stroke="#000000"
       stroke-width="2.26715867159"
       id="g3155">
      <path
         style=""
         d="m 404,204 0,52.89999"
         id="line3157" />
    </g>
    <g
       stroke="#000000"
       stroke-width="1.0"
       id="g3159">
      <path
         style="fill:#000000;stroke:#000000"
         d="m 403.65,202.92 49.6,-18.51 2.11,6.47 -51.01,14.2 z"
         id="polygon3161" />
    </g>
    <g
       stroke="#000000"
       stroke-width="2.26715867159"
       id="g3163">
      <path
         style=""
         d="m 317.14001,227.53 2.03,-2.23"
         id="line3165" />
      <path
         style=""
         d="M 312.45001,223.78 315,220.98"
         id="line3167" />
      <path
         style=""
         d="m 307.76999,220.02 3.05002,-3.35"
         id="line3169" />
      <path
         style=""
         d="m 303.07999,216.27 3.56002,-3.91"
         id="line3171" />
      <path
         style=""
         d="M 298.39999,212.52 302.47,208.05"
         id="line3173" />
      <path
         style=""
         d="M 293.70999,208.75999 298.29001,203.73"
         id="line3175" />
    </g>
    <g
       stroke="#000000"
       stroke-width="2.26715867159"
       id="g3177">
      <path
         style=""
         d="M 322.59,230.45 343.98999,201"
         id="line3179" />
    </g>
    <g
       stroke="#000000"
       stroke-width="2.26715867159"
       id="g3181">
      <path
         style=""
         d="M 368,192.31 404,204"
         id="line3183" />
    </g>
    <g
       stroke="#000000"
       stroke-width="2.26715867159"
       id="g3185">
      <path
         style=""
         d="m 404,256.89999 -36,11.71"
         id="line3187" />
    </g>
    <g
       stroke="#000000"
       stroke-width="1.0"
       id="g3189">
      <path
         style="fill:#000000;stroke:#000000"
         d="m 455.29,273.81 -13.48,27.89 -5.89,-3.4 17.41,-25.62 z"
         id="polygon3191" />
    </g>
    <g
       stroke="#000000"
       stroke-width="2.26715867159"
       id="g3193">
      <path
         style=""
         d="M 454.29999,187.64 486,205.94"
         id="line3195" />
    </g>
    <g
       stroke="#000000"
       stroke-width="2.26715867159"
       id="g3197">
      <path
         style=""
         d="M 449.85001,182.96001 452.47,181.45"
         id="line3199" />
      <path
         style=""
         d="m 446.38,177.71001 3.28,-1.89"
         id="line3201" />
      <path
         style=""
         d="M 442.92001,172.45 446.84,170.19"
         id="line3203" />
      <path
         style=""
         d="M 439.45001,167.2 444.03,164.56"
         id="line3205" />
      <path
         style=""
         d="M 435.98001,161.95 441.22,158.92999"
         id="line3207" />
      <path
         style=""
         d="m 432.51001,156.7 5.88998,-3.4"
         id="line3209" />
    </g>
    <g
       stroke="#000000"
       stroke-width="1.0"
       id="g3211">
      <path
         style="fill:#000000;stroke:#000000"
         d="m 453.32,187.07 16.88,-33.77 5.9,3.4 -20.81,31.51 z"
         id="polygon3213" />
    </g>
    <g
       stroke="#000000"
       stroke-width="2.26715867159"
       id="g3215">
      <path
         style=""
         d="M 339.70001,254 322.59,230.45"
         id="line3217" />
    </g>
    <g
       stroke="#000000"
       stroke-width="1.0"
       id="g3219">
      <path
         style="fill:#000000;stroke:#000000"
         d="m 323.16,231.43 -30.46,20.2 -3.4,-5.89 32.72,-16.28 z"
         id="polygon3221" />
    </g>
    <g
       style="font-size:30px;fill:#000000;font-family:helvetica"
       id="text3223">
      <path
         d="m 235.70235,200.64 0,-21.47461 2.84179,0 0,8.81836 11.16211,0 0,-8.81836 2.8418,0 0,21.47461 -2.8418,0 0,-10.12207 -11.16211,0 0,10.12207 z"
         style="font-size:30px;fill:#000000;font-family:helvetica"
         id="path3289" />
      <path
         d="m 255.92451,202.38829 1.97754,-0.26367 c 0.22705,1.12061 0.6134,1.9281 1.15906,2.42248 0.54565,0.49439 1.21032,0.74158 1.99402,0.74158 0.93017,0 1.71569,-0.32226 2.35657,-0.9668 0.64086,-0.64452 0.96129,-1.44286 0.9613,-2.39502 -10e-6,-0.90819 -0.29664,-1.65709 -0.88989,-2.2467 -0.59327,-0.58959 -1.34766,-0.88439 -2.26319,-0.8844 -0.37354,1e-5 -0.83862,0.0733 -1.39526,0.21973 l 0.21973,-1.73584 c 0.13183,0.0147 0.23803,0.022 0.3186,0.022 0.84228,10e-6 1.60034,-0.21972 2.27417,-0.65918 0.67382,-0.43944 1.01073,-1.11693 1.01074,-2.03247 -10e-6,-0.72508 -0.24537,-1.32567 -0.73608,-1.80176 -0.49073,-0.47606 -1.12427,-0.71409 -1.90064,-0.71411 -0.76904,2e-5 -1.40991,0.24171 -1.9226,0.7251 -0.5127,0.48341 -0.84229,1.20851 -0.98877,2.17529 l -1.97754,-0.35156 c 0.2417,-1.32567 0.79101,-2.35289 1.64795,-3.08167 0.85693,-0.72874 1.9226,-1.09312 3.19702,-1.09314 0.8789,2e-5 1.68822,0.18862 2.42798,0.5658 0.73973,0.37721 1.30553,0.89174 1.69739,1.54358 0.39183,0.65187 0.58775,1.34401 0.58776,2.07642 -10e-6,0.69581 -0.18677,1.32935 -0.5603,1.90063 -0.37354,0.5713 -0.92652,1.0254 -1.65893,1.3623 0.95213,0.21974 1.69188,0.67567 2.21923,1.3678 0.52734,0.69215 0.79101,1.55824 0.79102,2.59827 -10e-6,1.40625 -0.51271,2.59827 -1.53809,3.57605 -1.0254,0.97778 -2.32178,1.46667 -3.88916,1.46667 -1.41358,0 -2.58728,-0.42114 -3.52111,-1.26342 -0.93384,-0.84229 -1.46668,-1.93359 -1.59852,-3.27393 z"
         style="font-size:75%;baseline-shift:sub"
         id="path3291" />
      <path
         d="m 285.14082,193.1107 2.8418,0.71778 c -0.59572,2.33398 -1.6675,4.11377 -3.21533,5.33935 -1.54787,1.22559 -3.43996,1.83838 -5.67627,1.83838 -2.31446,0 -4.19679,-0.47119 -5.64697,-1.41357 -1.4502,-0.94238 -2.55372,-2.30713 -3.31055,-4.09424 -0.75684,-1.7871 -1.13526,-3.70605 -1.13525,-5.75684 -10e-6,-2.23631 0.42724,-4.18699 1.28173,-5.85205 0.85449,-1.66502 2.07031,-2.92967 3.64746,-3.79394 1.57714,-0.86424 3.31298,-1.29637 5.20752,-1.29639 2.14843,2e-5 3.95507,0.5469 5.41993,1.64062 1.46482,1.09377 2.48533,2.63186 3.06152,4.61426 l -2.79785,0.65918 c -0.49807,-1.56248 -1.22072,-2.70018 -2.16797,-3.41308 -0.94728,-0.71288 -2.13869,-1.06932 -3.57422,-1.06934 -1.6504,2e-5 -3.02979,0.39553 -4.13818,1.18652 -1.10841,0.79104 -1.88722,1.85305 -2.33643,3.18604 -0.44922,1.33302 -0.67383,2.70753 -0.67383,4.12353 0,1.82618 0.26611,3.42042 0.79834,4.78272 0.53222,1.36231 1.35986,2.38037 2.48291,3.0542 1.12304,0.67383 2.33886,1.01074 3.64746,1.01074 1.59179,0 2.93944,-0.45898 4.04297,-1.37695 1.1035,-0.91797 1.85057,-2.28027 2.24121,-4.08692 z"
         style="font-size:30px;fill:#000000;font-family:helvetica"
         id="path3293" />
    </g>
    <g
       style="font-size:30px;fill:#000000;font-family:helvetica"
       id="text3227">
      <path
         d="m 229.70235,263.89999 0,-21.47461 2.84179,0 0,8.81836 11.16211,0 0,-8.81836 2.8418,0 0,21.47461 -2.8418,0 0,-10.12207 -11.16211,0 0,10.12207 z"
         style="font-size:30px;fill:#000000;font-family:helvetica"
         id="path3296" />
      <path
         d="m 249.92451,265.64828 1.97754,-0.26367 c 0.22705,1.12061 0.6134,1.92811 1.15906,2.42249 0.54565,0.49438 1.21032,0.74158 1.99402,0.74158 0.93017,0 1.71569,-0.32227 2.35657,-0.9668 0.64086,-0.64453 0.96129,-1.44287 0.9613,-2.39502 -10e-6,-0.9082 -0.29664,-1.6571 -0.88989,-2.2467 -0.59327,-0.5896 -1.34766,-0.8844 -2.26319,-0.8844 -0.37354,0 -0.83862,0.0732 -1.39526,0.21972 l 0.21973,-1.73584 c 0.13183,0.0147 0.23803,0.022 0.3186,0.022 0.84228,1e-5 1.60034,-0.21971 2.27417,-0.65917 0.67382,-0.43945 1.01073,-1.11694 1.01074,-2.03248 -10e-6,-0.72508 -0.24537,-1.32567 -0.73608,-1.80175 -0.49073,-0.47606 -1.12427,-0.7141 -1.90064,-0.71411 -0.76904,1e-5 -1.40991,0.24171 -1.9226,0.72509 -0.5127,0.48341 -0.84229,1.20851 -0.98877,2.1753 l -1.97754,-0.35157 c 0.2417,-1.32567 0.79101,-2.35289 1.64795,-3.08166 0.85693,-0.72875 1.9226,-1.09312 3.19702,-1.09314 0.8789,2e-5 1.68822,0.18861 2.42798,0.56579 0.73973,0.37722 1.30553,0.89174 1.69739,1.54358 0.39183,0.65187 0.58775,1.34401 0.58776,2.07642 -10e-6,0.69581 -0.18677,1.32936 -0.5603,1.90063 -0.37354,0.5713 -0.92652,1.0254 -1.65893,1.36231 0.95213,0.21973 1.69188,0.67567 2.21923,1.3678 0.52734,0.69214 0.79101,1.55823 0.79102,2.59826 -10e-6,1.40626 -0.51271,2.59827 -1.53809,3.57605 -1.0254,0.97779 -2.32178,1.46668 -3.88916,1.46668 -1.41358,0 -2.58728,-0.42114 -3.52111,-1.26343 -0.93384,-0.84228 -1.46668,-1.93359 -1.59852,-3.27393 z"
         style="font-size:75%;baseline-shift:sub"
         id="path3298" />
      <path
         d="m 279.14082,256.3707 2.8418,0.71777 c -0.59572,2.33399 -1.6675,4.11377 -3.21533,5.33936 -1.54787,1.22558 -3.43996,1.83837 -5.67627,1.83837 -2.31446,0 -4.19679,-0.47119 -5.64697,-1.41357 -1.4502,-0.94238 -2.55372,-2.30712 -3.31055,-4.09424 -0.75684,-1.7871 -1.13526,-3.70604 -1.13525,-5.75683 -10e-6,-2.23632 0.42724,-4.187 1.28173,-5.85205 0.85449,-1.66503 2.07031,-2.92967 3.64746,-3.79395 1.57714,-0.86424 3.31298,-1.29636 5.20752,-1.29639 2.14843,3e-5 3.95507,0.5469 5.41993,1.64063 1.46482,1.09377 2.48533,2.63185 3.06152,4.61426 l -2.79785,0.65918 c -0.49807,-1.56249 -1.22072,-2.70018 -2.16797,-3.41309 -0.94728,-0.71287 -2.13869,-1.06932 -3.57422,-1.06934 -1.6504,2e-5 -3.02979,0.39553 -4.13818,1.18653 -1.10841,0.79103 -1.88722,1.85304 -2.33643,3.18603 -0.44922,1.33302 -0.67383,2.70753 -0.67383,4.12354 0,1.82618 0.26611,3.42042 0.79834,4.78271 0.53222,1.36231 1.35986,2.38038 2.48291,3.0542 1.12304,0.67383 2.33886,1.01075 3.64746,1.01074 1.59179,10e-6 2.93944,-0.45898 4.04297,-1.37695 1.1035,-0.91796 1.85057,-2.28027 2.24121,-4.08691 z"
         style="font-size:30px;fill:#000000;font-family:helvetica"
         id="path3300" />
    </g>
    <g
       style="font-size:30px;fill:#000000;font-family:helvetica"
       id="text3231">
      <path
         d="m 341.75018,184.20102 c 0,-3.56444 0.95703,-6.35496 2.8711,-8.37158 1.91405,-2.01658 4.38475,-3.02488 7.41211,-3.02491 1.9824,3e-5 3.76951,0.47366 5.36132,1.4209 1.59178,0.94729 2.80516,2.26809 3.64014,3.96241 0.83494,1.69435 1.25242,3.61573 1.25244,5.76416 -2e-5,2.17774 -0.43947,4.12598 -1.31836,5.84472 -0.87892,1.71876 -2.12404,3.02002 -3.73535,3.90381 -1.61134,0.88379 -3.34962,1.32568 -5.21484,1.32568 -2.0215,0 -3.82814,-0.48828 -5.41992,-1.46484 -1.59181,-0.97656 -2.79786,-2.30957 -3.61817,-3.99902 -0.82031,-1.68945 -1.23047,-3.47656 -1.23047,-5.36133 z m 2.92969,0.0439 c 0,2.5879 0.6958,4.62648 2.0874,6.11573 1.3916,1.48926 3.1372,2.23389 5.23682,2.23388 2.13866,1e-5 3.89891,-0.75195 5.28076,-2.25586 1.38182,-1.5039 2.07274,-3.63768 2.07275,-6.40136 -10e-6,-1.74804 -0.29542,-3.27391 -0.88623,-4.57764 -0.59083,-1.30369 -1.45509,-2.31443 -2.59277,-3.03223 -1.13771,-0.71775 -2.41456,-1.07664 -3.83057,-1.07666 -2.01172,2e-5 -3.74268,0.69094 -5.19287,2.07276 -1.4502,1.38185 -2.17529,3.68898 -2.17529,6.92138 z"
         style="font-size:30px;fill:#000000;font-family:helvetica"
         id="path3303" />
    </g>
    <g
       style="font-size:30px;fill:#000000;font-family:helvetica"
       id="text3233">
      <path
         d="m 341.75018,269.80103 c 0,-3.56444 0.95703,-6.35497 2.8711,-8.37159 1.91405,-2.01658 4.38475,-3.02488 7.41211,-3.0249 1.9824,2e-5 3.76951,0.47366 5.36132,1.4209 1.59178,0.94728 2.80516,2.26808 3.64014,3.9624 0.83494,1.69435 1.25242,3.61574 1.25244,5.76416 -2e-5,2.17774 -0.43947,4.12599 -1.31836,5.84473 -0.87892,1.71875 -2.12404,3.02002 -3.73535,3.90381 -1.61134,0.88379 -3.34962,1.32568 -5.21484,1.32568 -2.0215,0 -3.82814,-0.48828 -5.41992,-1.46484 -1.59181,-0.97656 -2.79786,-2.30957 -3.61817,-3.99903 -0.82031,-1.68944 -1.23047,-3.47655 -1.23047,-5.36132 z m 2.92969,0.0439 c 0,2.5879 0.6958,4.62647 2.0874,6.11572 1.3916,1.48926 3.1372,2.23389 5.23682,2.23389 2.13866,0 3.89891,-0.75195 5.28076,-2.25586 1.38182,-1.5039 2.07274,-3.63769 2.07275,-6.40137 -10e-6,-1.74803 -0.29542,-3.27391 -0.88623,-4.57763 -0.59083,-1.3037 -1.45509,-2.31444 -2.59277,-3.03223 -1.13771,-0.71775 -2.41456,-1.07664 -3.83057,-1.07666 -2.01172,2e-5 -3.74268,0.69094 -5.19287,2.07275 -1.4502,1.38186 -2.17529,3.68898 -2.17529,6.92139 z"
         style="font-size:30px;fill:#000000;font-family:helvetica"
         id="path3306" />
    </g>
    <g
       style="font-size:30px;fill:#000000;font-family:helvetica"
       id="text3235">
      <path
         d="m 399.61444,148.83 0,-21.47461 8.10059,0 c 1.42577,2e-5 2.51463,0.0684 3.2666,0.20508 1.05467,0.1758 1.93846,0.51028 2.65137,1.00342 0.71287,0.49318 1.2866,1.1841 1.72119,2.07275 0.43455,0.88869 0.65183,1.86525 0.65185,2.92969 -2e-5,1.82619 -0.58107,3.37159 -1.74316,4.63623 -1.16213,1.26466 -3.26173,1.89698 -6.29883,1.89697 l -5.50781,0 0,8.73047 z m 2.8418,-11.26465 5.55176,0 c 1.83592,1e-5 3.13963,-0.34178 3.91113,-1.02539 0.77147,-0.68358 1.15721,-1.64549 1.15722,-2.88574 -10e-6,-0.89842 -0.22706,-1.66746 -0.68115,-2.30713 -0.45411,-0.63963 -1.05226,-1.06199 -1.79443,-1.26709 -0.47853,-0.12693 -1.36232,-0.19041 -2.65137,-0.19043 l -5.49316,0 z"
         style="font-size:30px;fill:#000000;font-family:helvetica"
         id="path3309" />
      <path
         d="m 419.31659,148.83 0,-21.47461 2.63672,0 0,7.70508 c 1.23046,-1.42577 2.78319,-2.13866 4.6582,-2.13867 1.15233,1e-5 2.15331,0.22707 3.00293,0.68115 0.8496,0.45412 1.45751,1.08156 1.82373,1.88233 0.3662,0.80079 0.5493,1.9629 0.54932,3.48632 l 0,9.8584 -2.63672,0 0,-9.8584 c -1e-5,-1.31834 -0.28566,-2.27782 -0.85693,-2.87841 -0.5713,-0.60058 -1.37941,-0.90087 -2.42432,-0.90088 -0.78126,1e-5 -1.51612,0.20265 -2.20459,0.60791 -0.68848,0.40528 -1.17921,0.9546 -1.47217,1.64795 -0.29297,0.69337 -0.43946,1.6504 -0.43945,2.87109 l 0,8.51074 z"
         style="font-size:30px;fill:#000000;font-family:helvetica"
         id="path3311" />
    </g>
    <g
       style="font-size:30px;fill:#000000;font-family:helvetica"
       id="text3237">
      <path
         d="m 471.61444,148.83 0,-21.47461 8.10059,0 c 1.42577,2e-5 2.51463,0.0684 3.2666,0.20508 1.05467,0.1758 1.93846,0.51028 2.65137,1.00342 0.71287,0.49318 1.2866,1.1841 1.72119,2.07275 0.43455,0.88869 0.65183,1.86525 0.65185,2.92969 -2e-5,1.82619 -0.58107,3.37159 -1.74316,4.63623 -1.16213,1.26466 -3.26173,1.89698 -6.29883,1.89697 l -5.50781,0 0,8.73047 z m 2.8418,-11.26465 5.55176,0 c 1.83592,1e-5 3.13963,-0.34178 3.91113,-1.02539 0.77147,-0.68358 1.15721,-1.64549 1.15722,-2.88574 -10e-6,-0.89842 -0.22706,-1.66746 -0.68115,-2.30713 -0.45411,-0.63963 -1.05226,-1.06199 -1.79443,-1.26709 -0.47853,-0.12693 -1.36232,-0.19041 -2.65137,-0.19043 l -5.49316,0 z"
         style="font-size:30px;fill:#000000;font-family:helvetica"
         id="path3314" />
      <path
         d="m 491.31659,148.83 0,-21.47461 2.63672,0 0,7.70508 c 1.23046,-1.42577 2.78319,-2.13866 4.6582,-2.13867 1.15233,1e-5 2.15331,0.22707 3.00293,0.68115 0.8496,0.45412 1.45751,1.08156 1.82373,1.88233 0.3662,0.80079 0.5493,1.9629 0.54932,3.48632 l 0,9.8584 -2.63672,0 0,-9.8584 c -1e-5,-1.31834 -0.28566,-2.27782 -0.85693,-2.87841 -0.5713,-0.60058 -1.37941,-0.90087 -2.42432,-0.90088 -0.78126,1e-5 -1.51612,0.20265 -2.20459,0.60791 -0.68848,0.40528 -1.17921,0.9546 -1.47217,1.64795 -0.29297,0.69337 -0.43946,1.6504 -0.43945,2.87109 l 0,8.51074 z"
         style="font-size:30px;fill:#000000;font-family:helvetica"
         id="path3316" />
    </g>
    <g
       style="font-size:30px;fill:#000000;font-family:helvetica"
       id="text3239">
      <path
         d="m 488.75018,210.63101 c 0,-3.56444 0.95703,-6.35496 2.8711,-8.37158 1.91405,-2.01658 4.38475,-3.02488 7.41211,-3.0249 1.9824,2e-5 3.76951,0.47365 5.36132,1.4209 1.59178,0.94728 2.80516,2.26808 3.64014,3.9624 0.83494,1.69435 1.25242,3.61573 1.25244,5.76416 -2e-5,2.17774 -0.43947,4.12598 -1.31836,5.84473 -0.87892,1.71875 -2.12404,3.02002 -3.73535,3.9038 -1.61134,0.88379 -3.34962,1.32569 -5.21484,1.32569 -2.0215,0 -3.82814,-0.48828 -5.41992,-1.46485 -1.59181,-0.97656 -2.79786,-2.30956 -3.61817,-3.99902 -0.82031,-1.68945 -1.23047,-3.47655 -1.23047,-5.36133 z m 2.92969,0.0439 c 0,2.5879 0.6958,4.62647 2.0874,6.11572 1.3916,1.48926 3.1372,2.23389 5.23682,2.23389 2.13866,0 3.89891,-0.75195 5.28076,-2.25586 1.38182,-1.5039 2.07274,-3.63769 2.07275,-6.40137 -10e-6,-1.74803 -0.29542,-3.27391 -0.88623,-4.57764 -0.59083,-1.30369 -1.45509,-2.31443 -2.59277,-3.03222 -1.13771,-0.71776 -2.41456,-1.07664 -3.83057,-1.07666 -2.01172,2e-5 -3.74268,0.69093 -5.19287,2.07275 -1.4502,1.38185 -2.17529,3.68898 -2.17529,6.92139 z"
         style="font-size:30px;fill:#000000;font-family:helvetica"
         id="path3319" />
      <path
         d="m 513.02264,221.09 0,-21.47461 2.8418,0 0,8.81836 11.16211,0 0,-8.81836 2.8418,0 0,21.47461 -2.8418,0 0,-10.12207 -11.16211,0 0,10.12207 z"
         style="font-size:30px;fill:#000000;font-family:helvetica"
         id="path3321" />
    </g>
    <g
       style="font-size:30px;fill:#000000;font-family:helvetica"
       id="text3241">
      <path
         d="m 488.75018,243.33101 c 0,-3.56444 0.95703,-6.35496 2.8711,-8.37158 1.91405,-2.01658 4.38475,-3.02488 7.41211,-3.02491 1.9824,3e-5 3.76951,0.47366 5.36132,1.4209 1.59178,0.94729 2.80516,2.26809 3.64014,3.96241 0.83494,1.69435 1.25242,3.61573 1.25244,5.76416 -2e-5,2.17774 -0.43947,4.12598 -1.31836,5.84472 -0.87892,1.71876 -2.12404,3.02002 -3.73535,3.90381 -1.61134,0.88379 -3.34962,1.32568 -5.21484,1.32568 -2.0215,0 -3.82814,-0.48828 -5.41992,-1.46484 -1.59181,-0.97656 -2.79786,-2.30957 -3.61817,-3.99902 -0.82031,-1.68945 -1.23047,-3.47656 -1.23047,-5.36133 z m 2.92969,0.0439 c 0,2.5879 0.6958,4.62647 2.0874,6.11573 1.3916,1.48926 3.1372,2.23389 5.23682,2.23388 2.13866,1e-5 3.89891,-0.75195 5.28076,-2.25586 1.38182,-1.5039 2.07274,-3.63768 2.07275,-6.40136 -10e-6,-1.74804 -0.29542,-3.27391 -0.88623,-4.57764 -0.59083,-1.30369 -1.45509,-2.31444 -2.59277,-3.03223 -1.13771,-0.71775 -2.41456,-1.07664 -3.83057,-1.07666 -2.01172,2e-5 -3.74268,0.69094 -5.19287,2.07276 -1.4502,1.38185 -2.17529,3.68898 -2.17529,6.92138 z"
         style="font-size:30px;fill:#000000;font-family:helvetica"
         id="path3324" />
      <path
         d="m 513.02264,253.78999 0,-21.47461 2.8418,0 0,8.81836 11.16211,0 0,-8.81836 2.8418,0 0,21.47461 -2.8418,0 0,-10.12207 -11.16211,0 0,10.12207 z"
         style="font-size:30px;fill:#000000;font-family:helvetica"
         id="path3326" />
    </g>
    <g
       style="font-size:30px;fill:#000000;font-family:helvetica"
       id="text3243">
      <path
         d="m 471.61444,326.04999 0,-21.47461 8.10059,0 c 1.42577,2e-5 2.51463,0.0684 3.2666,0.20508 1.05467,0.1758 1.93846,0.51027 2.65137,1.00341 0.71287,0.49319 1.2866,1.18411 1.72119,2.07276 0.43455,0.88869 0.65183,1.86525 0.65185,2.92969 -2e-5,1.82618 -0.58107,3.37159 -1.74316,4.63623 -1.16213,1.26465 -3.26173,1.89698 -6.29883,1.89697 l -5.50781,0 0,8.73047 z m 2.8418,-11.26465 5.55176,0 c 1.83592,10e-6 3.13963,-0.34179 3.91113,-1.02539 0.77147,-0.68358 1.15721,-1.6455 1.15722,-2.88574 -10e-6,-0.89842 -0.22706,-1.66747 -0.68115,-2.30713 -0.45411,-0.63963 -1.05226,-1.062 -1.79443,-1.26709 -0.47853,-0.12694 -1.36232,-0.19041 -2.65137,-0.19043 l -5.49316,0 z"
         style="font-size:30px;fill:#000000;font-family:helvetica"
         id="path3329" />
      <path
         d="m 491.31659,326.04999 0,-21.47461 2.63672,0 0,7.70508 c 1.23046,-1.42577 2.78319,-2.13866 4.6582,-2.13868 1.15233,2e-5 2.15331,0.22707 3.00293,0.68116 0.8496,0.45411 1.45751,1.08155 1.82373,1.88232 0.3662,0.8008 0.5493,1.9629 0.54932,3.48633 l 0,9.8584 -2.63672,0 0,-9.8584 c -1e-5,-1.31835 -0.28566,-2.27782 -0.85693,-2.87842 -0.5713,-0.60057 -1.37941,-0.90086 -2.42432,-0.90088 -0.78126,2e-5 -1.51612,0.20265 -2.20459,0.60791 -0.68848,0.40529 -1.17921,0.9546 -1.47217,1.64795 -0.29297,0.69337 -0.43946,1.6504 -0.43945,2.8711 l 0,8.51074 z"
         style="font-size:30px;fill:#000000;font-family:helvetica"
         id="path3331" />
    </g>
    <g
       style="font-size:30px;fill:#000000;font-family:helvetica"
       id="text3245">
      <path
         d="m 399.61444,326.04999 0,-21.47461 8.10059,0 c 1.42577,2e-5 2.51463,0.0684 3.2666,0.20508 1.05467,0.1758 1.93846,0.51027 2.65137,1.00341 0.71287,0.49319 1.2866,1.18411 1.72119,2.07276 0.43455,0.88869 0.65183,1.86525 0.65185,2.92969 -2e-5,1.82618 -0.58107,3.37159 -1.74316,4.63623 -1.16213,1.26465 -3.26173,1.89698 -6.29883,1.89697 l -5.50781,0 0,8.73047 z m 2.8418,-11.26465 5.55176,0 c 1.83592,10e-6 3.13963,-0.34179 3.91113,-1.02539 0.77147,-0.68358 1.15721,-1.6455 1.15722,-2.88574 -10e-6,-0.89842 -0.22706,-1.66747 -0.68115,-2.30713 -0.45411,-0.63963 -1.05226,-1.062 -1.79443,-1.26709 -0.47853,-0.12694 -1.36232,-0.19041 -2.65137,-0.19043 l -5.49316,0 z"
         style="font-size:30px;fill:#000000;font-family:helvetica"
         id="path3334" />
      <path
         d="m 419.31659,326.04999 0,-21.47461 2.63672,0 0,7.70508 c 1.23046,-1.42577 2.78319,-2.13866 4.6582,-2.13868 1.15233,2e-5 2.15331,0.22707 3.00293,0.68116 0.8496,0.45411 1.45751,1.08155 1.82373,1.88232 0.3662,0.8008 0.5493,1.9629 0.54932,3.48633 l 0,9.8584 -2.63672,0 0,-9.8584 c -1e-5,-1.31835 -0.28566,-2.27782 -0.85693,-2.87842 -0.5713,-0.60057 -1.37941,-0.90086 -2.42432,-0.90088 -0.78126,2e-5 -1.51612,0.20265 -2.20459,0.60791 -0.68848,0.40529 -1.17921,0.9546 -1.47217,1.64795 -0.29297,0.69337 -0.43946,1.6504 -0.43945,2.8711 l 0,8.51074 z"
         style="font-size:30px;fill:#000000;font-family:helvetica"
         id="path3336" />
    </g>
  </g>
  <cdml:cdml
     version="0.15">
    <cdml:info>
      <cdml:author_program
         version="0.13.0">BKchem</cdml:author_program>
    </cdml:info>
    <cdml:paper
       crop_margin="5"
       crop_svg="1"
       orientation="portrait"
       replace_minus="0"
       type="Legal"
       use_real_minus="0" />
    <cdml:viewport
       viewport="0.000000 0.000000 640.000000 480.000000" />
    <cdml:standard
       area_color=""
       font_family="helvetica"
       font_size="24"
       line_color="#000"
       line_width="0.06cm"
       paper_crop_margin="5"
       paper_crop_svg="1"
       paper_orientation="portrait"
       paper_type="Legal">
      <cdml:bond
         double-ratio="0.85"
         length="1.4cm"
         wedge-width="0.18cm"
         width="0.21cm" />
      <cdml:arrow
         length="1.6cm" />
      <cdml:atom
         show_hydrogens="0" />
    </cdml:standard>
    <cdml:molecule
       id="molecule66278"
       name="">
      <cdml:atom
         id="atom51809"
         name="C"
         valency="4">
        <cdml:point
           x="10.692cm"
           y="5.399cm" />
      </cdml:atom>
      <cdml:atom
         id="atom94485"
         name="C"
         valency="4">
        <cdml:point
           x="10.692cm"
           y="6.799cm" />
      </cdml:atom>
      <cdml:atom
         id="atom96200"
         name="C"
         valency="4">
        <cdml:point
           x="12.023cm"
           y="4.966cm" />
      </cdml:atom>
      <cdml:atom
         id="atom7154"
         name="C"
         valency="4">
        <cdml:point
           x="12.023cm"
           y="7.231cm" />
      </cdml:atom>
      <cdml:atom
         id="atom13866"
         name="C"
         valency="4">
        <cdml:point
           x="8.537cm"
           y="6.099cm" />
      </cdml:atom>
      <cdml:atom
         hydrogens="on"
         id="atom86211"
         name="C"
         pos="center-last"
         show="yes"
         valency="4">
        <cdml:point
           x="7.467cm"
           y="5.125cm" />
      </cdml:atom>
      <cdml:atom
         hydrogens="on"
         id="atom24467"
         name="C"
         pos="center-last"
         show="yes"
         valency="4">
        <cdml:point
           x="7.325cm"
           y="6.799cm" />
      </cdml:atom>
      <cdml:atom
         id="atom50399"
         name="O"
         pos="center-first"
         valency="2">
        <cdml:point
           x="9.360cm"
           y="4.966cm" />
      </cdml:atom>
      <cdml:atom
         id="atom6223"
         name="O"
         pos="center-first"
         valency="2">
        <cdml:point
           x="9.361cm"
           y="7.232cm" />
      </cdml:atom>
      <cdml:group
         group-type="builtin"
         id="atom82607"
         name="Ph"
         pos="center-last">
        <cdml:point
           x="11.323cm"
           y="3.754cm" />
      </cdml:group>
      <cdml:group
         group-type="builtin"
         id="atom92420"
         name="Ph"
         pos="center-first">
        <cdml:point
           x="12.723cm"
           y="3.754cm" />
      </cdml:group>
      <cdml:atom
         hydrogens="on"
         id="atom44650"
         name="O"
         pos="center-first"
         valency="2">
        <cdml:point
           x="13.235cm"
           y="5.666cm" />
      </cdml:atom>
      <cdml:atom
         hydrogens="on"
         id="atom62922"
         name="O"
         pos="center-first"
         valency="2">
        <cdml:point
           x="13.236cm"
           y="6.531cm" />
      </cdml:atom>
      <cdml:group
         group-type="builtin"
         id="atom90917"
         name="Ph"
         pos="center-first">
        <cdml:point
           x="12.723cm"
           y="8.444cm" />
      </cdml:group>
      <cdml:group
         group-type="builtin"
         id="atom36020"
         name="Ph"
         pos="center-last">
        <cdml:point
           x="11.323cm"
           y="8.444cm" />
      </cdml:group>
      <cdml:bond
         double_ratio="0.85"
         end="atom62922"
         id="bond43733"
         line_width="2.26715867159"
         start="atom7154"
         type="n1" />
      <cdml:bond
         double_ratio="0.85"
         end="atom94485"
         id="bond89701"
         line_width="2.26715867159"
         start="atom7154"
         type="h1"
         wedge_width="6.80147601476" />
      <cdml:bond
         double_ratio="0.85"
         end="atom90917"
         id="bond60194"
         line_width="2.26715867159"
         start="atom7154"
         type="h1"
         wedge_width="6.80147601476" />
      <cdml:bond
         double_ratio="0.85"
         end="atom94485"
         id="bond29456"
         line_width="2.26715867159"
         start="atom51809"
         type="n1" />
      <cdml:bond
         double_ratio="0.85"
         end="atom96200"
         id="bond8104"
         line_width="2.26715867159"
         start="atom51809"
         type="w1"
         wedge_width="6.80147601476" />
      <cdml:bond
         double_ratio="0.85"
         end="atom86211"
         id="bond41786"
         line_width="2.26715867159"
         start="atom13866"
         type="h1"
         wedge_width="6.80147601476" />
      <cdml:bond
         double_ratio="0.85"
         end="atom50399"
         id="bond23691"
         line_width="2.26715867159"
         start="atom13866"
         type="n1" />
      <cdml:bond
         double_ratio="0.85"
         end="atom51809"
         id="bond91802"
         line_width="2.26715867159"
         start="atom50399"
         type="n1" />
      <cdml:bond
         double_ratio="0.85"
         end="atom6223"
         id="bond4468"
         line_width="2.26715867159"
         start="atom94485"
         type="n1" />
      <cdml:bond
         double_ratio="0.85"
         end="atom36020"
         id="bond35305"
         line_width="2.26715867159"
         start="atom7154"
         type="w1"
         wedge_width="6.80147601476" />
      <cdml:bond
         double_ratio="0.85"
         end="atom44650"
         id="bond3066"
         line_width="2.26715867159"
         start="atom96200"
         type="n1" />
      <cdml:bond
         double_ratio="0.85"
         end="atom82607"
         id="bond42337"
         line_width="2.26715867159"
         start="atom96200"
         type="h1"
         wedge_width="6.80147601476" />
      <cdml:bond
         double_ratio="0.85"
         end="atom92420"
         id="bond81021"
         line_width="2.26715867159"
         start="atom96200"
         type="w1"
         wedge_width="6.80147601476" />
      <cdml:bond
         double_ratio="0.85"
         end="atom13866"
         id="bond29358"
         line_width="2.26715867159"
         start="atom6223"
         type="n1" />
      <cdml:bond
         double_ratio="0.85"
         end="atom24467"
         id="bond40555"
         line_width="2.26715867159"
         start="atom13866"
         type="w1"
         wedge_width="6.80147601476" />
    </cdml:molecule>
  </cdml:cdml>
</svg>
