<?xml version="1.0" encoding="UTF-8" standalone="no"?>
<svg
   xmlns:cdml="http://www.freesoftware.fsf.org/bkchem/cdml"
   xmlns:dc="http://purl.org/dc/elements/1.1/"
   xmlns:cc="http://creativecommons.org/ns#"
   xmlns:rdf="http://www.w3.org/1999/02/22-rdf-syntax-ns#"
   xmlns:svg="http://www.w3.org/2000/svg"
   xmlns="http://www.w3.org/2000/svg"
   xmlns:sodipodi="http://sodipodi.sourceforge.net/DTD/sodipodi-0.dtd"
   xmlns:inkscape="http://www.inkscape.org/namespaces/inkscape"
   height="43.95313mm"
   version="1.0"
   viewBox="0 0 246 194"
   width="55.73438mm"
   id="svg3188"
   inkscape:version="0.47 r22583"
   sodipodi:docname="tbs.svg">
  <metadata
     id="metadata3256">
    <rdf:RDF>
      <cc:Work
         rdf:about="">
        <dc:format>image/svg+xml</dc:format>
        <dc:type
           rdf:resource="http://purl.org/dc/dcmitype/StillImage" />
        <dc:title></dc:title>
      </cc:Work>
    </rdf:RDF>
  </metadata>
  <defs
     id="defs3254">
    <inkscape:perspective
       sodipodi:type="inkscape:persp3d"
       inkscape:vp_x="0 : 77.869713 : 1"
       inkscape:vp_y="0 : 1000 : 0"
       inkscape:vp_z="197.48402 : 77.869713 : 1"
       inkscape:persp3d-origin="98.742012 : 51.913142 : 1"
       id="perspective3258" />
  </defs>
  <sodipodi:namedview
     pagecolor="#ffffff"
     bordercolor="#666666"
     borderopacity="1"
     objecttolerance="10"
     gridtolerance="10"
     guidetolerance="10"
     inkscape:pageopacity="0"
     inkscape:pageshadow="2"
     inkscape:window-width="640"
     inkscape:window-height="491"
     id="namedview3252"
     showgrid="false"
     inkscape:zoom="1.5153517"
     inkscape:cx="98.742012"
     inkscape:cy="77.869713"
     inkscape:window-x="0"
     inkscape:window-y="0"
     inkscape:window-maximized="0"
     inkscape:current-layer="svg3188" />
  <g
     font-family="Helvetica"
     font-size="12pt"
     stroke-linecap="round"
     transform="translate(-301,-131)"
     id="g3190">
    <g
       stroke="#000000"
       stroke-width="1.0"
       id="g3192">
      <path
         style="fill:#000000;stroke:#000000"
         d="m 434.89,220.8 8.13,35.6 -7.85,1.2 -2.9,-36.4 z"
         id="polygon3194" />
    </g>
    <g
       stroke="#000000"
       stroke-width="2.64827586207"
       id="g3196">
      <path
         style=""
         d="m 310,221 48,0"
         id="line3198" />
    </g>
    <g
       stroke="#000000"
       stroke-width="2.64827586207"
       id="g3200">
      <path
         style=""
         d="m 393,221 40.57999,0"
         id="line3202" />
    </g>
    <g
       stroke="#000000"
       stroke-linecap="butt"
       stroke-width="2.64827586207"
       id="g3204">
      <path
         style=""
         d="m 371.79001,198 0,-25"
         id="line3206" />
    </g>
    <g
       stroke="#000000"
       stroke-linecap="butt"
       stroke-width="2.64827586207"
       id="g3208">
      <path
         style=""
         d="m 371.79001,235 0,25"
         id="line3210" />
    </g>
    <g
       stroke="#000000"
       stroke-width="2.64827586207"
       id="g3212">
      <path
         style=""
         d="M 440.48001,221.89 439.16,225.17"
         id="line3214" />
      <path
         style=""
         d="m 446.89001,224.02 -1.66,4.09"
         id="line3216" />
      <path
         style=""
         d="m 453.29001,226.14 -1.99002,4.89999"
         id="line3218" />
      <path
         style=""
         d="M 459.69,228.25999 457.37,233.98"
         id="line3220" />
      <path
         style=""
         d="m 466.09,230.38 -2.65,6.54"
         id="line3222" />
      <path
         style=""
         d="m 472.48999,232.5 -2.97998,7.36"
         id="line3224" />
    </g>
    <g
       stroke="#000000"
       stroke-width="2.64827586207"
       id="g3226">
      <path
         style=""
         d="m 433.57999,221 23.1,-40"
         id="line3228" />
    </g>
    <g
       style="font-size:30px;fill:#000000;font-family:helvetica"
       id="text3230">
      <path
         d="m 377.17999,216.55 c -0.03,-4.29 -2.97001,-6.78 -8.01,-6.78 -4.8,0 -7.77,2.46 -7.77,6.42 0,2.67 1.41,4.35 4.29,5.1 l 5.43,1.44 c 2.76,0.72 4.02,1.83 4.02,3.54 0,1.17 -0.63,2.37 -1.56,3.03 -0.87,0.6 -2.25,0.93 -4.02,0.93 -2.37,0 -3.99,-0.57 -5.04,-1.83 -0.81,-0.96 -1.17,-2.01 -1.14,-3.36 l -2.64,0 c 0.03,2.01 0.42,3.33 1.29,4.53 1.5,2.04 4.02,3.12 7.35,3.12 2.61,0 4.74,-0.6 6.15,-1.68 1.47,-1.17 2.4,-3.12 2.4,-5.01 0,-2.7 -1.68001,-4.68 -4.65,-5.49 l -5.49,-1.47 c -2.64,-0.72 -3.6,-1.56 -3.6,-3.24 0,-2.22 1.95,-3.69 4.89,-3.69 3.47999,0 5.43,1.59 5.46,4.44 l 2.64,0"
         style="font-size:30px;fill:#000000;font-family:helvetica"
         id="path3273" />
      <path
         d="m 383.83905,216.28 -2.49,0 0,15.72 2.49,0 0,-15.72 m 0,-6.15 -2.52,0 0,3.15 2.52,0 0,-3.15"
         style="font-size:30px;fill:#000000;font-family:helvetica"
         id="path3275" />
    </g>
    <g
       style="font-size:30px;fill:#000000;font-family:helvetica"
       id="text3232">
      <path
         d="m 378.15999,155.12001 c -0.87,-4.8 -3.63001,-7.14 -8.43,-7.14 -2.94,0 -5.31,0.93 -6.93,2.73 -1.98,2.15999 -3.06,5.28 -3.06,8.82 0,3.59999 1.11,6.69 3.18,8.82 1.68,1.73999 3.84,2.55 6.69,2.55 5.33999,0 8.34,-2.88001 9,-8.67 l -2.88,0 c -0.24,1.5 -0.54,2.52 -0.99,3.39 -0.9,1.79999 -2.76,2.82 -5.1,2.82 -4.35,0 -7.11,-3.48001 -7.11,-8.94 0,-5.61 2.64,-9.06 6.87,-9.06 1.77,0 3.42,0.54 4.32,1.38 0.81,0.75 1.26,1.68 1.59,3.3 l 2.85,0"
         style="font-size:30px;fill:#000000;font-family:helvetica"
         id="path3278" />
      <path
         d="m 396.50968,160.25001 0,9.96 2.79,0 0,-21.87 -2.79,0 0,9.45 -11.25,0 0,-9.45 -2.79,0 0,21.87 2.82,0 0,-9.96 11.22,0"
         style="font-size:30px;fill:#000000;font-family:helvetica"
         id="path3280" />
      <path
         d="m 406.63186,162.89751 0.2475,0 0.8325,-0.0225 c 2.1825,0 3.3075,0.99 3.3075,2.9025 0,2.00249 -1.2375,3.195 -3.3075,3.195 -2.16,0 -3.2175,-1.08001 -3.3525,-3.3975 l -1.98,0 c 0.09,1.2825 0.315,2.115 0.6975,2.835 0.81,1.53 2.385,2.3175 4.5675,2.3175 3.285,0 5.4,-1.95751 5.4,-4.9725 0,-2.025 -0.7875,-3.15 -2.7,-3.8025 1.485,-0.585 2.2275,-1.71 2.2275,-3.3075 0,-2.745 -1.8225,-4.3875 -4.86,-4.3875 -3.21749,0 -4.9275,1.755 -4.995,5.1525 l 1.98,0 c 0.0225,-0.9675 0.1125,-1.5075 0.36,-2.0025 0.45,-0.8775 1.44,-1.4175 2.6775,-1.4175 1.755,0 2.8125,1.035 2.8125,2.7225 0,1.125 -0.405,1.8 -1.2825,2.16 -0.54,0.225 -1.2375,0.315 -2.6325,0.3375 l 0,1.6875"
         style="font-size:75%"
         id="path3282" />
    </g>
    <g
       style="font-size:30px;fill:#000000;font-family:helvetica"
       id="text3236">
      <path
         d="m 378.15999,278.70001 c -0.87,-4.8 -3.63001,-7.14 -8.43,-7.14 -2.94,0 -5.31,0.93 -6.93,2.73 -1.98,2.16 -3.06,5.28 -3.06,8.82 0,3.59999 1.11,6.69 3.18,8.82 1.68,1.74 3.84,2.55 6.69,2.55 5.33999,0 8.34,-2.88001 9,-8.67 l -2.88,0 c -0.24,1.5 -0.54,2.52 -0.99,3.39 -0.9,1.8 -2.76,2.82 -5.1,2.82 -4.35,0 -7.11,-3.48001 -7.11,-8.94 0,-5.61 2.64,-9.06 6.87,-9.06 1.77,0 3.42,0.54 4.32,1.38 0.81,0.75 1.26,1.68 1.59,3.3 l 2.85,0"
         style="font-size:30px;fill:#000000;font-family:helvetica"
         id="path3285" />
      <path
         d="m 396.50968,283.83001 0,9.96 2.79,0 0,-21.87 -2.79,0 0,9.45 -11.25,0 0,-9.45 -2.79,0 0,21.87 2.82,0 0,-9.96 11.22,0"
         style="font-size:30px;fill:#000000;font-family:helvetica"
         id="path3287" />
      <path
         d="m 406.63186,286.47751 0.2475,0 0.8325,-0.0225 c 2.1825,0 3.3075,0.99 3.3075,2.9025 0,2.0025 -1.2375,3.195 -3.3075,3.195 -2.16,0 -3.2175,-1.08 -3.3525,-3.3975 l -1.98,0 c 0.09,1.2825 0.315,2.115 0.6975,2.835 0.81,1.53 2.385,2.3175 4.5675,2.3175 3.285,0 5.4,-1.9575 5.4,-4.9725 0,-2.025 -0.7875,-3.15 -2.7,-3.8025 1.485,-0.585 2.2275,-1.71 2.2275,-3.3075 0,-2.745 -1.8225,-4.3875 -4.86,-4.3875 -3.21749,0 -4.9275,1.755 -4.995,5.1525 l 1.98,0 c 0.0225,-0.9675 0.1125,-1.5075 0.36,-2.0025 0.45,-0.8775 1.44,-1.4175 2.6775,-1.4175 1.755,0 2.8125,1.035 2.8125,2.7225 0,1.125 -0.405,1.8 -1.2825,2.16 -0.54,0.225 -1.2375,0.315 -2.6325,0.3375 l 0,1.6875"
         style="font-size:75%"
         id="path3289" />
    </g>
    <g
       style="font-size:30px;fill:#000000;font-family:helvetica"
       id="text3240">
      <path
         d="m 449.15999,275.70001 c -0.87,-4.8 -3.63001,-7.14 -8.43,-7.14 -2.94,0 -5.31,0.93 -6.93,2.73 -1.98,2.16 -3.06,5.28 -3.06,8.82 0,3.59999 1.11,6.69 3.18,8.82 1.68,1.74 3.84,2.55 6.69,2.55 5.33999,0 8.34,-2.88001 9,-8.67 l -2.88,0 c -0.24,1.5 -0.54,2.52 -0.99,3.39 -0.9,1.8 -2.76,2.82 -5.1,2.82 -4.35,0 -7.11,-3.48001 -7.11,-8.94 0,-5.61 2.64,-9.06 6.87,-9.06 1.77,0 3.42,0.54 4.32,1.38 0.81,0.75 1.26,1.68 1.59,3.3 l 2.85,0"
         style="font-size:30px;fill:#000000;font-family:helvetica"
         id="path3292" />
      <path
         d="m 467.50968,280.83001 0,9.96 2.79,0 0,-21.87 -2.79,0 0,9.45 -11.25,0 0,-9.45 -2.79,0 0,21.87 2.82,0 0,-9.96 11.22,0"
         style="font-size:30px;fill:#000000;font-family:helvetica"
         id="path3294" />
      <path
         d="m 477.63186,283.47751 0.2475,0 0.8325,-0.0225 c 2.1825,0 3.3075,0.99 3.3075,2.9025 0,2.0025 -1.2375,3.195 -3.3075,3.195 -2.16,0 -3.2175,-1.08 -3.3525,-3.3975 l -1.98,0 c 0.09,1.2825 0.315,2.115 0.6975,2.835 0.81,1.53 2.385,2.3175 4.5675,2.3175 3.285,0 5.4,-1.9575 5.4,-4.9725 0,-2.025 -0.7875,-3.15 -2.7,-3.8025 1.485,-0.585 2.2275,-1.71 2.2275,-3.3075 0,-2.745 -1.8225,-4.3875 -4.86,-4.3875 -3.21749,0 -4.9275,1.755 -4.995,5.1525 l 1.98,0 c 0.0225,-0.9675 0.1125,-1.5075 0.36,-2.0025 0.45,-0.8775 1.44,-1.4175 2.6775,-1.4175 1.755,0 2.8125,1.035 2.8125,2.7225 0,1.125 -0.405,1.8 -1.2825,2.16 -0.54,0.225 -1.2375,0.315 -2.6325,0.3375 l 0,1.6875"
         style="font-size:75%"
         id="path3296" />
    </g>
    <g
       style="font-size:30px;fill:#000000;font-family:helvetica"
       id="text3244">
      <path
         d="m 491.15999,237.80999 c -0.87,-4.79999 -3.63001,-7.14 -8.43,-7.14 -2.94,0 -5.31,0.93001 -6.93,2.73 -1.98,2.16 -3.06,5.28001 -3.06,8.82 0,3.6 1.11,6.69001 3.18,8.82 1.68,1.74 3.84,2.55 6.69,2.55 5.33999,0 8.34,-2.88 9,-8.67 l -2.88,0 c -0.24,1.5 -0.54,2.52 -0.99,3.39 -0.9,1.8 -2.76,2.82 -5.1,2.82 -4.35,0 -7.11,-3.48 -7.11,-8.94 0,-5.60999 2.64,-9.06 6.87,-9.06 1.77,0 3.42,0.54 4.32,1.38 0.81,0.75 1.26,1.68001 1.59,3.3 l 2.85,0"
         style="font-size:30px;fill:#000000;font-family:helvetica"
         id="path3299" />
      <path
         d="m 509.50968,242.93999 0,9.96 2.79,0 0,-21.87 -2.79,0 0,9.45 -11.25,0 0,-9.45 -2.79,0 0,21.87 2.82,0 0,-9.96 11.22,0"
         style="font-size:30px;fill:#000000;font-family:helvetica"
         id="path3301" />
      <path
         d="m 519.63186,245.58749 0.2475,0 0.8325,-0.0225 c 2.1825,0 3.3075,0.99001 3.3075,2.9025 0,2.0025 -1.2375,3.195 -3.3075,3.195 -2.16,0 -3.2175,-1.08 -3.3525,-3.3975 l -1.98,0 c 0.09,1.2825 0.315,2.115 0.6975,2.835 0.81,1.53 2.385,2.3175 4.5675,2.3175 3.285,0 5.4,-1.9575 5.4,-4.9725 0,-2.02499 -0.7875,-3.15 -2.7,-3.8025 1.485,-0.585 2.2275,-1.71 2.2275,-3.3075 0,-2.74499 -1.8225,-4.3875 -4.86,-4.3875 -3.21749,0 -4.9275,1.75501 -4.995,5.1525 l 1.98,0 c 0.0225,-0.9675 0.1125,-1.5075 0.36,-2.0025 0.45,-0.8775 1.44,-1.4175 2.6775,-1.4175 1.755,0 2.8125,1.03501 2.8125,2.7225 0,1.125 -0.405,1.8 -1.2825,2.16 -0.54,0.225 -1.2375,0.315 -2.6325,0.3375 l 0,1.6875"
         style="font-size:75%"
         id="path3303" />
    </g>
    <g
       style="font-size:30px;fill:#000000;font-family:helvetica"
       id="text3248">
      <path
         d="m 471.15999,163.40001 c -0.87,-4.8 -3.63001,-7.14 -8.43,-7.14 -2.94,0 -5.31,0.93 -6.93,2.73 -1.98,2.15999 -3.06,5.28 -3.06,8.82 0,3.59999 1.11,6.69 3.18,8.82 1.68,1.73999 3.84,2.55 6.69,2.55 5.33999,0 8.34,-2.88001 9,-8.67 l -2.88,0 c -0.24,1.49999 -0.54,2.52 -0.99,3.39 -0.9,1.79999 -2.76,2.82 -5.1,2.82 -4.35,0 -7.11,-3.48001 -7.11,-8.94 0,-5.61 2.64,-9.06 6.87,-9.06 1.77,0 3.42,0.54 4.32,1.38 0.81,0.74999 1.26,1.68 1.59,3.3 l 2.85,0"
         style="font-size:30px;fill:#000000;font-family:helvetica"
         id="path3306" />
      <path
         d="m 489.50968,168.53001 0,9.96 2.79,0 0,-21.87 -2.79,0 0,9.45 -11.25,0 0,-9.45 -2.79,0 0,21.87 2.82,0 0,-9.96 11.22,0"
         style="font-size:30px;fill:#000000;font-family:helvetica"
         id="path3308" />
      <path
         d="m 499.63186,171.17751 0.2475,0 0.8325,-0.0225 c 2.1825,0 3.3075,0.99 3.3075,2.9025 0,2.00249 -1.2375,3.195 -3.3075,3.195 -2.16,0 -3.2175,-1.08001 -3.3525,-3.3975 l -1.98,0 c 0.09,1.28249 0.315,2.115 0.6975,2.835 0.81,1.52999 2.385,2.3175 4.5675,2.3175 3.285,0 5.4,-1.95751 5.4,-4.9725 0,-2.025 -0.7875,-3.15001 -2.7,-3.8025 1.485,-0.585 2.2275,-1.71001 2.2275,-3.3075 0,-2.745 -1.8225,-4.3875 -4.86,-4.3875 -3.21749,0 -4.9275,1.755 -4.995,5.1525 l 1.98,0 c 0.0225,-0.9675 0.1125,-1.50751 0.36,-2.0025 0.45,-0.8775 1.44,-1.4175 2.6775,-1.4175 1.755,0 2.8125,1.035 2.8125,2.7225 0,1.12499 -0.405,1.8 -1.2825,2.16 -0.54,0.225 -1.2375,0.315 -2.6325,0.3375 l 0,1.6875"
         style="font-size:75%"
         id="path3310" />
    </g>
  </g>
  <cdml:cdml
     version="0.15">
    <cdml:info>
      <cdml:author_program
         version="0.13.0">BKchem</cdml:author_program>
    </cdml:info>
    <cdml:paper
       crop_margin="5"
       crop_svg="1"
       orientation="portrait"
       replace_minus="0"
       type="Legal"
       use_real_minus="0" />
    <cdml:viewport
       viewport="0.000000 0.000000 640.000000 480.000000" />
    <cdml:standard
       area_color=""
       font_family="helvetica"
       font_size="24"
       line_color="#000"
       line_width="0.06cm"
       paper_crop_margin="5"
       paper_crop_svg="1"
       paper_orientation="portrait"
       paper_type="Legal">
      <cdml:bond
         double-ratio="0.85"
         length="1.4cm"
         wedge-width="0.18cm"
         width="0.21cm" />
      <cdml:arrow
         length="1.6cm" />
      <cdml:atom
         show_hydrogens="0" />
    </cdml:standard>
    <cdml:molecule
       id="molecule90385"
       name="">
      <cdml:atom
         id="atom12642"
         name="C"
         valency="4">
        <cdml:point
           x="7.023cm"
           y="5.007cm" />
      </cdml:atom>
      <cdml:atom
         id="atom18688"
         name="C"
         valency="4">
        <cdml:point
           x="9.823cm"
           y="5.007cm" />
      </cdml:atom>
      <cdml:atom
         id="atom17420"
         name="Si"
         pos="center-first"
         valency="4">
        <cdml:point
           x="8.423cm"
           y="5.007cm" />
      </cdml:atom>
      <cdml:atom
         hydrogens="on"
         id="atom13068"
         name="C"
         pos="center-first"
         show="yes"
         valency="4">
        <cdml:point
           x="8.423cm"
           y="3.607cm" />
      </cdml:atom>
      <cdml:atom
         hydrogens="on"
         id="atom36287"
         name="C"
         pos="center-first"
         show="yes"
         valency="4">
        <cdml:point
           x="8.423cm"
           y="6.407cm" />
      </cdml:atom>
      <cdml:atom
         hydrogens="on"
         id="atom64820"
         name="C"
         pos="center-first"
         show="yes"
         valency="4">
        <cdml:point
           x="10.027cm"
           y="6.339cm" />
      </cdml:atom>
      <cdml:atom
         hydrogens="on"
         id="atom13764"
         name="C"
         pos="center-first"
         show="yes"
         valency="4">
        <cdml:point
           x="10.990cm"
           y="5.481cm" />
      </cdml:atom>
      <cdml:atom
         hydrogens="on"
         id="atom81527"
         name="C"
         pos="center-first"
         show="yes"
         valency="4">
        <cdml:point
           x="10.523cm"
           y="3.795cm" />
      </cdml:atom>
      <cdml:bond
         double_ratio="0.85"
         end="atom64820"
         id="bond70318"
         line_width="2.64827586207"
         start="atom18688"
         type="w1"
         wedge_width="7.94482758621" />
      <cdml:bond
         double_ratio="0.85"
         end="atom17420"
         id="bond40561"
         line_width="2.64827586207"
         start="atom12642"
         type="n1" />
      <cdml:bond
         double_ratio="0.85"
         end="atom18688"
         id="bond37484"
         line_width="2.64827586207"
         start="atom17420"
         type="n1" />
      <cdml:bond
         double_ratio="0.85"
         end="atom13068"
         id="bond61781"
         line_width="2.64827586207"
         start="atom17420"
         type="n1" />
      <cdml:bond
         double_ratio="0.85"
         end="atom36287"
         id="bond80929"
         line_width="2.64827586207"
         start="atom17420"
         type="n1" />
      <cdml:bond
         double_ratio="0.85"
         end="atom13764"
         id="bond19797"
         line_width="2.64827586207"
         start="atom18688"
         type="h1"
         wedge_width="7.94482758621" />
      <cdml:bond
         double_ratio="0.85"
         end="atom81527"
         id="bond40513"
         line_width="2.64827586207"
         start="atom18688"
         type="n1" />
    </cdml:molecule>
  </cdml:cdml>
</svg>
