<?xml version="1.0" encoding="UTF-8" standalone="no"?>
<svg
   xmlns:cdml="http://www.freesoftware.fsf.org/bkchem/cdml"
   xmlns:dc="http://purl.org/dc/elements/1.1/"
   xmlns:cc="http://creativecommons.org/ns#"
   xmlns:rdf="http://www.w3.org/1999/02/22-rdf-syntax-ns#"
   xmlns:svg="http://www.w3.org/2000/svg"
   xmlns="http://www.w3.org/2000/svg"
   xmlns:sodipodi="http://sodipodi.sourceforge.net/DTD/sodipodi-0.dtd"
   xmlns:inkscape="http://www.inkscape.org/namespaces/inkscape"
   height="86.27539mm"
   version="1.0"
   viewBox="0 0 343 326"
   width="90.77441mm"
   id="svg3119"
   inkscape:version="0.48.1 "
   sodipodi:docname="TBTU.svg">
  <metadata
     id="metadata3251">
    <rdf:RDF>
      <cc:Work
         rdf:about="">
        <dc:format>image/svg+xml</dc:format>
        <dc:type
           rdf:resource="http://purl.org/dc/dcmitype/StillImage" />
        <dc:title></dc:title>
      </cc:Work>
    </rdf:RDF>
  </metadata>
  <defs
     id="defs3249" />
  <sodipodi:namedview
     pagecolor="#ffffff"
     bordercolor="#666666"
     borderopacity="1"
     objecttolerance="10"
     gridtolerance="10"
     guidetolerance="10"
     inkscape:pageopacity="0"
     inkscape:pageshadow="2"
     inkscape:window-width="640"
     inkscape:window-height="480"
     id="namedview3247"
     showgrid="false"
     inkscape:zoom="0.86032003"
     inkscape:cx="160.8208"
     inkscape:cy="152.8501"
     inkscape:window-x="0"
     inkscape:window-y="0"
     inkscape:window-maximized="0"
     inkscape:current-layer="svg3119" />
  <g
     font-family="Helvetica"
     font-size="12pt"
     stroke-linecap="round"
     transform="translate(-123,-153)"
     id="g3121">
    <g
       stroke="#000000"
       stroke-linecap="butt"
       stroke-width="2.26715867159"
       id="g3123">
      <path
         style=""
         d="M 282.92001,190 291,201.12"
         id="line3125" />
      <path
         style=""
         d="m 277.10999,195.5 6.86001,9.45"
         id="line3127" />
    </g>
    <g
       stroke="#000000"
       stroke-linecap="butt"
       stroke-width="2.26715867159"
       id="g3129">
      <path
         style=""
         d="m 277.42001,275 5.84,18"
         id="line3131" />
    </g>
    <g
       stroke="#000000"
       stroke-width="2.26715867159"
       id="g3133">
      <path
         style=""
         d="M 177.19,166.53999 223,193"
         id="line3135" />
      <path
         style=""
         d="m 176.66,175.39 38.94001,22.5"
         id="line3137" />
    </g>
    <g
       stroke="#000000"
       stroke-linecap="butt"
       stroke-width="2.26715867159"
       id="g3139">
      <path
         style=""
         d="m 243.77,405 0,21"
         id="line3141" />
    </g>
    <g
       stroke="#000000"
       stroke-width="2.26715867159"
       id="g3143">
      <path
         style=""
         d="M 289.57999,365.35999 322,384.07001"
         id="line3145" />
      <path
         style=""
         d="m 295.98001,359.89001 27.56,15.90998"
         id="line3147" />
    </g>
    <g
       stroke="#000000"
       stroke-width="2.26715867159"
       id="g3149">
      <path
         style=""
         d="m 131.39,193 45.8,-26.46001"
         id="line3151" />
    </g>
    <g
       stroke="#000000"
       stroke-width="2.26715867159"
       id="g3153">
      <path
         style=""
         d="m 223,245.82001 -45.81,26.47"
         id="line3155" />
      <path
         style=""
         d="M 215.60001,240.94 176.66,263.42999"
         id="line3157" />
    </g>
    <g
       stroke="#000000"
       stroke-linecap="butt"
       stroke-width="2.26715867159"
       id="g3159">
      <path
         style=""
         d="M 230,383.85001 212,373.45999"
         id="line3161" />
    </g>
    <g
       stroke="#000000"
       stroke-linecap="butt"
       stroke-width="2.26715867159"
       id="g3163">
      <path
         style=""
         d="M 295.14999,232 287,243.21001"
         id="line3165" />
    </g>
    <g
       stroke="#000000"
       stroke-width="2.26715867159"
       id="g3167">
      <path
         style=""
         d="M 260,257.84 223,245.82001"
         id="line3169" />
    </g>
    <g
       stroke="#000000"
       stroke-width="2.26715867159"
       id="g3171">
      <path
         style=""
         d="m 131.39,193 0,52.82001"
         id="line3173" />
      <path
         style=""
         d="m 139.32001,196.96001 0,44.89999"
         id="line3175" />
    </g>
    <g
       stroke="#000000"
       stroke-width="2.26715867159"
       id="g3177">
      <path
         style=""
         d="m 289.57999,325 0,40.35999"
         id="line3179" />
    </g>
    <g
       stroke="#000000"
       stroke-width="2.26715867159"
       id="g3181">
      <path
         style=""
         d="m 131.39,245.82001 45.8,26.47"
         id="line3183" />
    </g>
    <g
       stroke="#000000"
       stroke-width="2.26715867159"
       id="g3185">
      <path
         style=""
         d="M 289.57999,365.35999 257,384.17001"
         id="line3187" />
    </g>
    <g
       stroke="#000000"
       stroke-linecap="butt"
       stroke-width="2.26715867159"
       id="g3189">
      <path
         style=""
         d="m 335.39001,405 0,21"
         id="line3191" />
    </g>
    <g
       stroke="#000000"
       stroke-linecap="butt"
       stroke-width="2.26715867159"
       id="g3193">
      <path
         style=""
         d="m 349,383.95001 19,-10.97"
         id="line3195" />
    </g>
    <g
       stroke="#000000"
       stroke-width="2.26715867159"
       id="g3197">
      <path
         style=""
         d="m 223,193 0,52.82001"
         id="line3199" />
    </g>
    <g
       stroke="#000000"
       stroke-width="2.26715867159"
       id="g3201">
      <path
         style=""
         d="m 223,193 37,-12.03"
         id="line3203" />
    </g>
    <g
       style="font-size:30px;fill:#000000;font-family:helvetica"
       id="text3205">
      <path
         d="m 263.58514,183.67 0,-21.47461 2.91504,0 11.2793,16.86035 0,-16.86035 2.72461,0 0,21.47461 -2.91504,0 -11.2793,-16.875 0,16.875 z"
         style="font-size:30px;fill:#000000;font-family:helvetica"
         id="path3277" />
    </g>
    <g
       style="font-size:30px;fill:#000000;font-family:helvetica"
       id="text3207">
      <path
         d="m 294.58514,226.42 0,-21.47461 2.91504,0 11.2793,16.86035 0,-16.86035 2.72461,0 0,21.47461 -2.91504,0 -11.2793,-16.875 0,16.875 z"
         style="font-size:30px;fill:#000000;font-family:helvetica"
         id="path3280" />
    </g>
    <g
       style="font-size:30px;fill:#000000;font-family:helvetica"
       id="text3209">
      <path
         d="m 263.58514,269.14001 0,-21.4746 2.91504,0 11.2793,16.86035 0,-16.86035 2.72461,0 0,21.4746 -2.91504,0 -11.2793,-16.875 0,16.875 z"
         style="font-size:30px;fill:#000000;font-family:helvetica"
         id="path3283" />
    </g>
    <g
       style="font-size:30px;fill:#000000;font-family:helvetica"
       id="text3211">
      <path
         d="m 277.75018,309.00101 c 0,-3.56444 0.95703,-6.35497 2.8711,-8.37158 1.91405,-2.01659 4.38475,-3.02489 7.41211,-3.02491 1.9824,2e-5 3.76951,0.47366 5.36132,1.4209 1.59178,0.94729 2.80516,2.26809 3.64014,3.9624 0.83494,1.69435 1.25242,3.61574 1.25244,5.76416 -2e-5,2.17775 -0.43947,4.12599 -1.31836,5.84473 -0.87892,1.71875 -2.12404,3.02002 -3.73535,3.90381 -1.61134,0.88379 -3.34962,1.32568 -5.21484,1.32568 -2.0215,0 -3.82814,-0.48828 -5.41992,-1.46484 -1.59181,-0.97656 -2.79786,-2.30957 -3.61817,-3.99902 -0.82031,-1.68945 -1.23047,-3.47656 -1.23047,-5.36133 z m 2.92969,0.0439 c 0,2.5879 0.6958,4.62647 2.0874,6.11573 1.3916,1.48926 3.1372,2.23388 5.23682,2.23388 2.13866,0 3.89891,-0.75195 5.28076,-2.25586 1.38182,-1.5039 2.07274,-3.63768 2.07275,-6.40136 -10e-6,-1.74804 -0.29542,-3.27392 -0.88623,-4.57764 -0.59083,-1.3037 -1.45509,-2.31444 -2.59277,-3.03223 -1.13771,-0.71775 -2.41456,-1.07664 -3.83057,-1.07666 -2.01172,2e-5 -3.74268,0.69094 -5.19287,2.07276 -1.4502,1.38185 -2.17529,3.68897 -2.17529,6.92138 z"
         style="font-size:30px;fill:#000000;font-family:helvetica"
         id="path3286" />
    </g>
    <g
       style="font-size:30px;fill:#000000;font-family:helvetica"
       id="text3213">
      <path
         d="m 325.58514,398.81 0,-21.47461 2.91504,0 11.2793,16.86035 0,-16.86035 2.72461,0 0,21.47461 -2.91504,0 -11.2793,-16.875 0,16.875 z"
         style="font-size:30px;fill:#000000;font-family:helvetica"
         id="path3289" />
    </g>
    <g
       id="g3215">
      <path
         style="fill:none;stroke:#000000;stroke-width:1"
         d="m 358.33478,402.15552 c 0,2.76142 -2.23858,5 -5,5 -2.76143,0 -5,-2.23858 -5,-5 0,-2.76143 2.23857,-5 5,-5 2.76142,0 5,2.23857 5,5 z"
         id="ellipse3217" />
      <path
         style="fill:#000000;stroke:#000000;stroke-width:1"
         d="m 350.33478,402.15552 6,0"
         id="line3219" />
      <path
         style="fill:#000000;stroke:#000000;stroke-width:1"
         d="m 353.33478,399.15552 0,6"
         id="line3221" />
    </g>
    <g
       style="font-size:30px;fill:#000000;font-family:helvetica"
       id="text3223">
      <path
         d="m 233.58516,398.81 0,-21.47461 2.91504,0 11.2793,16.86035 0,-16.86035 2.7246,0 0,21.47461 -2.91503,0 -11.2793,-16.875 0,16.875 z"
         style="font-size:30px;fill:#000000;font-family:helvetica"
         id="path3295" />
    </g>
    <g
       style="font-size:30px;fill:#000000;font-family:helvetica"
       id="text3225">
      <path
         d="m 150.70235,372.35999 0,-21.47461 2.84179,0 0,8.81836 11.16211,0 0,-8.81836 2.8418,0 0,21.47461 -2.8418,0 0,-10.12207 -11.16211,0 0,10.12207 z"
         style="font-size:30px;fill:#000000;font-family:helvetica"
         id="path3298" />
      <path
         d="m 170.92451,374.10828 1.97754,-0.26368 c 0.22705,1.12061 0.6134,1.92811 1.15906,2.42249 0.54565,0.49439 1.21032,0.74158 1.99402,0.74158 0.93017,0 1.71569,-0.32227 2.35657,-0.9668 0.64086,-0.64453 0.96129,-1.44287 0.9613,-2.39502 -1e-5,-0.9082 -0.29664,-1.6571 -0.88989,-2.2467 -0.59327,-0.5896 -1.34766,-0.8844 -2.26319,-0.8844 -0.37354,0 -0.83862,0.0732 -1.39526,0.21972 l 0.21973,-1.73584 c 0.13183,0.0147 0.23803,0.022 0.3186,0.022 0.84228,10e-6 1.60034,-0.21972 2.27417,-0.65918 0.67382,-0.43945 1.01073,-1.11694 1.01074,-2.03247 -1e-5,-0.72509 -0.24537,-1.32567 -0.73608,-1.80176 -0.49073,-0.47606 -1.12427,-0.7141 -1.90064,-0.71411 -0.76904,10e-6 -1.40991,0.24171 -1.9226,0.72509 -0.5127,0.48342 -0.84229,1.20851 -0.98877,2.1753 l -1.97754,-0.35156 c 0.2417,-1.32568 0.79101,-2.3529 1.64795,-3.08167 0.85693,-0.72874 1.9226,-1.09312 3.19702,-1.09314 0.8789,2e-5 1.68822,0.18861 2.42798,0.5658 0.73973,0.37721 1.30553,0.89173 1.69739,1.54358 0.39183,0.65186 0.58775,1.344 0.58776,2.07641 -1e-5,0.69581 -0.18677,1.32936 -0.5603,1.90064 -0.37354,0.57129 -0.92652,1.0254 -1.65893,1.3623 0.95213,0.21974 1.69188,0.67567 2.21923,1.3678 0.52734,0.69214 0.79101,1.55823 0.79102,2.59827 -1e-5,1.40625 -0.51271,2.59826 -1.53809,3.57605 -1.0254,0.97778 -2.32178,1.46667 -3.88916,1.46667 -1.41358,0 -2.58728,-0.42114 -3.52111,-1.26343 -0.93384,-0.84228 -1.46668,-1.93359 -1.59852,-3.27392 z"
         style="font-size:75%;baseline-shift:sub"
         id="path3300" />
      <path
         d="m 200.14082,364.83069 2.8418,0.71777 c -0.59572,2.33399 -1.6675,4.11377 -3.21533,5.33936 -1.54787,1.22558 -3.43996,1.83838 -5.67627,1.83838 -2.31446,0 -4.19679,-0.4712 -5.64697,-1.41358 -1.4502,-0.94238 -2.55372,-2.30712 -3.31055,-4.09424 -0.75684,-1.7871 -1.13526,-3.70604 -1.13525,-5.75683 -1e-5,-2.23632 0.42724,-4.187 1.28173,-5.85205 0.85449,-1.66502 2.07031,-2.92967 3.64746,-3.79395 1.57714,-0.86423 3.31298,-1.29636 5.20752,-1.29638 2.14843,2e-5 3.95507,0.54689 5.41993,1.64062 1.46482,1.09377 2.48533,2.63185 3.06152,4.61426 l -2.79785,0.65918 c -0.49807,-1.56249 -1.22072,-2.70018 -2.16797,-3.41309 -0.94728,-0.71287 -2.13869,-1.06931 -3.57422,-1.06933 -1.6504,2e-5 -3.02979,0.39552 -4.13818,1.18652 -1.10841,0.79103 -1.88722,1.85304 -2.33643,3.18603 -0.44922,1.33303 -0.67383,2.70754 -0.67383,4.12354 0,1.82618 0.26611,3.42042 0.79834,4.78271 0.53222,1.36231 1.35986,2.38038 2.48291,3.0542 1.12304,0.67383 2.33886,1.01075 3.64746,1.01075 1.59179,0 2.93944,-0.45899 4.04297,-1.37696 1.1035,-0.91796 1.85057,-2.28027 2.24121,-4.08691 z"
         style="font-size:30px;fill:#000000;font-family:helvetica"
         id="path3302" />
    </g>
    <g
       style="font-size:30px;fill:#000000;font-family:helvetica"
       id="text3229">
      <path
         d="m 248.93672,444.18069 2.8418,0.71778 c -0.59572,2.33399 -1.6675,4.11377 -3.21533,5.33935 -1.54787,1.22559 -3.43996,1.83838 -5.67627,1.83838 -2.31447,0 -4.19679,-0.47119 -5.64698,-1.41357 -1.4502,-0.94238 -2.55371,-2.30713 -3.31054,-4.09424 -0.75684,-1.7871 -1.13526,-3.70605 -1.13526,-5.75684 0,-2.23631 0.42725,-4.18699 1.28174,-5.85205 0.85449,-1.66502 2.07031,-2.92966 3.64746,-3.79394 1.57714,-0.86424 3.31298,-1.29637 5.20752,-1.29639 2.14843,2e-5 3.95506,0.5469 5.41992,1.64063 1.46483,1.09377 2.48534,2.63185 3.06153,4.61425 l -2.79785,0.65918 c -0.49807,-1.56248 -1.22072,-2.70017 -2.16797,-3.41308 -0.94728,-0.71287 -2.13869,-1.06932 -3.57422,-1.06934 -1.6504,2e-5 -3.0298,0.39553 -4.13818,1.18653 -1.10841,0.79103 -1.88722,1.85304 -2.33643,3.18603 -0.44922,1.33302 -0.67383,2.70753 -0.67383,4.12354 0,1.82618 0.26611,3.42041 0.79834,4.78271 0.53222,1.36231 1.35986,2.38038 2.48291,3.0542 1.12304,0.67383 2.33886,1.01074 3.64746,1.01074 1.59179,0 2.93944,-0.45898 4.04297,-1.37695 1.1035,-0.91797 1.85057,-2.28027 2.24121,-4.08692 z"
         style="font-size:30px;fill:#000000;font-family:helvetica"
         id="path3305" />
      <path
         d="m 255.38203,451.70999 0,-21.47461 2.8418,0 0,8.81836 11.16211,0 0,-8.81836 2.8418,0 0,21.47461 -2.8418,0 0,-10.12207 -11.16211,0 0,10.12207 z"
         style="font-size:30px;fill:#000000;font-family:helvetica"
         id="path3307" />
      <path
         d="m 275.6042,453.45828 1.97754,-0.26367 c 0.22705,1.12061 0.6134,1.9281 1.15906,2.42249 0.54565,0.49438 1.21032,0.74157 1.99402,0.74157 0.93017,0 1.71569,-0.32226 2.35656,-0.96679 0.64086,-0.64453 0.9613,-1.44287 0.96131,-2.39502 -10e-6,-0.9082 -0.29664,-1.6571 -0.88989,-2.24671 -0.59327,-0.58959 -1.34767,-0.88439 -2.26319,-0.8844 -0.37354,1e-5 -0.83863,0.0733 -1.39526,0.21973 l 0.21973,-1.73584 c 0.13183,0.0147 0.23803,0.022 0.3186,0.022 0.84228,1e-5 1.60033,-0.21971 2.27417,-0.65918 0.67382,-0.43944 1.01073,-1.11693 1.01074,-2.03247 -10e-6,-0.72508 -0.24537,-1.32567 -0.73608,-1.80176 -0.49073,-0.47606 -1.12428,-0.71409 -1.90064,-0.71411 -0.76905,2e-5 -1.40991,0.24172 -1.92261,0.7251 -0.51269,0.48341 -0.84228,1.20851 -0.98876,2.17529 l -1.97754,-0.35156 c 0.24169,-1.32567 0.79101,-2.35289 1.64795,-3.08166 0.85693,-0.72875 1.9226,-1.09313 3.19702,-1.09314 0.8789,1e-5 1.68822,0.18861 2.42798,0.56579 0.73973,0.37721 1.30553,0.89174 1.69738,1.54358 0.39184,0.65187 0.58776,1.34401 0.58777,2.07642 -10e-6,0.69581 -0.18678,1.32935 -0.5603,1.90063 -0.37355,0.5713 -0.92652,1.0254 -1.65894,1.36231 0.95214,0.21973 1.69189,0.67566 2.21924,1.36779 0.52733,0.69215 0.79101,1.55824 0.79102,2.59827 -10e-6,1.40625 -0.51271,2.59827 -1.53809,3.57605 -1.0254,0.97778 -2.32178,1.46668 -3.88916,1.46668 -1.41358,0 -2.58728,-0.42115 -3.52112,-1.26343 -0.93384,-0.84229 -1.46667,-1.93359 -1.59851,-3.27393 z"
         style="font-size:75%;baseline-shift:sub"
         id="path3309" />
    </g>
    <g
       style="font-size:30px;fill:#000000;font-family:helvetica"
       id="text3233">
      <path
         d="m 386.93671,364.83069 2.84179,0.71777 c -0.59572,2.33399 -1.6675,4.11377 -3.21533,5.33936 -1.54787,1.22558 -3.43995,1.83838 -5.67627,1.83838 -2.31446,0 -4.19678,-0.4712 -5.64697,-1.41358 -1.4502,-0.94238 -2.55372,-2.30712 -3.31055,-4.09424 -0.75684,-1.7871 -1.13525,-3.70604 -1.13525,-5.75683 0,-2.23632 0.42724,-4.187 1.28174,-5.85205 0.85449,-1.66502 2.0703,-2.92967 3.64746,-3.79395 1.57714,-0.86423 3.31298,-1.29636 5.20752,-1.29638 2.14842,2e-5 3.95506,0.54689 5.41992,1.64062 1.46482,1.09377 2.48533,2.63185 3.06152,4.61426 l -2.79785,0.65918 c -0.49806,-1.56249 -1.22072,-2.70018 -2.16797,-3.41309 -0.94728,-0.71287 -2.13868,-1.06931 -3.57422,-1.06933 -1.6504,2e-5 -3.02979,0.39552 -4.13818,1.18652 -1.1084,0.79103 -1.88721,1.85304 -2.33643,3.18603 -0.44922,1.33303 -0.67383,2.70754 -0.67382,4.12354 -10e-6,1.82618 0.2661,3.42042 0.79834,4.78271 0.53222,1.36231 1.35985,2.38038 2.48291,3.0542 1.12303,0.67383 2.33885,1.01075 3.64746,1.01075 1.59178,0 2.93944,-0.45899 4.04297,-1.37696 1.10349,-0.91796 1.85056,-2.28027 2.24121,-4.08691 z"
         style="font-size:30px;fill:#000000;font-family:helvetica"
         id="path3312" />
      <path
         d="m 393.38202,372.35999 0,-21.47461 2.8418,0 0,8.81836 11.16211,0 0,-8.81836 2.84179,0 0,21.47461 -2.84179,0 0,-10.12207 -11.16211,0 0,10.12207 z"
         style="font-size:30px;fill:#000000;font-family:helvetica"
         id="path3314" />
      <path
         d="m 413.60419,374.10828 1.97754,-0.26368 c 0.22704,1.12061 0.6134,1.92811 1.15905,2.42249 0.54565,0.49439 1.21033,0.74158 1.99402,0.74158 0.93017,0 1.71569,-0.32227 2.35657,-0.9668 0.64086,-0.64453 0.96129,-1.44287 0.9613,-2.39502 -10e-6,-0.9082 -0.29664,-1.6571 -0.88989,-2.2467 -0.59327,-0.5896 -1.34766,-0.8844 -2.26318,-0.8844 -0.37354,0 -0.83863,0.0732 -1.39527,0.21972 l 0.21973,-1.73584 c 0.13183,0.0147 0.23803,0.022 0.3186,0.022 0.84228,10e-6 1.60034,-0.21972 2.27417,-0.65918 0.67382,-0.43945 1.01074,-1.11694 1.01075,-2.03247 -1e-5,-0.72509 -0.24537,-1.32567 -0.73609,-1.80176 -0.49073,-0.47606 -1.12427,-0.7141 -1.90063,-0.71411 -0.76905,10e-6 -1.40992,0.24171 -1.92261,0.72509 -0.5127,0.48342 -0.84229,1.20851 -0.98877,2.1753 l -1.97754,-0.35156 c 0.2417,-1.32568 0.79101,-2.3529 1.64795,-3.08167 0.85693,-0.72874 1.9226,-1.09312 3.19702,-1.09314 0.8789,2e-5 1.68823,0.18861 2.42798,0.5658 0.73974,0.37721 1.30553,0.89173 1.69739,1.54358 0.39183,0.65186 0.58776,1.344 0.58777,2.07641 -10e-6,0.69581 -0.18678,1.32936 -0.56031,1.90064 -0.37354,0.57129 -0.92652,1.0254 -1.65893,1.3623 0.95214,0.21974 1.69188,0.67567 2.21924,1.3678 0.52733,0.69214 0.791,1.55823 0.79101,2.59827 -10e-6,1.40625 -0.5127,2.59826 -1.53808,3.57605 -1.0254,0.97778 -2.32179,1.46667 -3.88916,1.46667 -1.41358,0 -2.58729,-0.42114 -3.52112,-1.26343 -0.93384,-0.84228 -1.46668,-1.93359 -1.59851,-3.27392 z"
         style="font-size:75%;baseline-shift:sub"
         id="path3316" />
    </g>
    <g
       style="font-size:30px;fill:#000000;font-family:helvetica"
       id="text3237">
      <path
         d="m 340.93671,444.18069 2.84179,0.71778 c -0.59572,2.33399 -1.6675,4.11377 -3.21533,5.33935 -1.54787,1.22559 -3.43995,1.83838 -5.67627,1.83838 -2.31446,0 -4.19678,-0.47119 -5.64697,-1.41357 -1.4502,-0.94238 -2.55372,-2.30713 -3.31055,-4.09424 -0.75684,-1.7871 -1.13525,-3.70605 -1.13525,-5.75684 0,-2.23631 0.42724,-4.18699 1.28174,-5.85205 0.85449,-1.66502 2.0703,-2.92966 3.64746,-3.79394 1.57714,-0.86424 3.31298,-1.29637 5.20752,-1.29639 2.14842,2e-5 3.95506,0.5469 5.41992,1.64063 1.46482,1.09377 2.48533,2.63185 3.06152,4.61425 l -2.79785,0.65918 c -0.49806,-1.56248 -1.22072,-2.70017 -2.16797,-3.41308 -0.94728,-0.71287 -2.13868,-1.06932 -3.57422,-1.06934 -1.6504,2e-5 -3.02979,0.39553 -4.13818,1.18653 -1.1084,0.79103 -1.88721,1.85304 -2.33643,3.18603 -0.44922,1.33302 -0.67383,2.70753 -0.67382,4.12354 -10e-6,1.82618 0.2661,3.42041 0.79834,4.78271 0.53222,1.36231 1.35985,2.38038 2.48291,3.0542 1.12303,0.67383 2.33885,1.01074 3.64746,1.01074 1.59178,0 2.93944,-0.45898 4.04297,-1.37695 1.10349,-0.91797 1.85056,-2.28027 2.24121,-4.08692 z"
         style="font-size:30px;fill:#000000;font-family:helvetica"
         id="path3319" />
      <path
         d="m 347.38202,451.70999 0,-21.47461 2.8418,0 0,8.81836 11.16211,0 0,-8.81836 2.84179,0 0,21.47461 -2.84179,0 0,-10.12207 -11.16211,0 0,10.12207 z"
         style="font-size:30px;fill:#000000;font-family:helvetica"
         id="path3321" />
      <path
         d="m 367.60419,453.45828 1.97754,-0.26367 c 0.22704,1.12061 0.6134,1.9281 1.15905,2.42249 0.54565,0.49438 1.21033,0.74157 1.99402,0.74157 0.93017,0 1.71569,-0.32226 2.35657,-0.96679 0.64086,-0.64453 0.96129,-1.44287 0.9613,-2.39502 -10e-6,-0.9082 -0.29664,-1.6571 -0.88989,-2.24671 -0.59327,-0.58959 -1.34766,-0.88439 -2.26318,-0.8844 -0.37354,1e-5 -0.83863,0.0733 -1.39527,0.21973 l 0.21973,-1.73584 c 0.13183,0.0147 0.23803,0.022 0.3186,0.022 0.84228,1e-5 1.60034,-0.21971 2.27417,-0.65918 0.67382,-0.43944 1.01074,-1.11693 1.01075,-2.03247 -1e-5,-0.72508 -0.24537,-1.32567 -0.73609,-1.80176 -0.49073,-0.47606 -1.12427,-0.71409 -1.90063,-0.71411 -0.76905,2e-5 -1.40992,0.24172 -1.92261,0.7251 -0.5127,0.48341 -0.84229,1.20851 -0.98877,2.17529 l -1.97754,-0.35156 c 0.2417,-1.32567 0.79101,-2.35289 1.64795,-3.08166 0.85693,-0.72875 1.9226,-1.09313 3.19702,-1.09314 0.8789,1e-5 1.68823,0.18861 2.42798,0.56579 0.73974,0.37721 1.30553,0.89174 1.69739,1.54358 0.39183,0.65187 0.58776,1.34401 0.58777,2.07642 -10e-6,0.69581 -0.18678,1.32935 -0.56031,1.90063 -0.37354,0.5713 -0.92652,1.0254 -1.65893,1.36231 0.95214,0.21973 1.69188,0.67566 2.21924,1.36779 0.52733,0.69215 0.791,1.55824 0.79101,2.59827 -10e-6,1.40625 -0.5127,2.59827 -1.53808,3.57605 -1.0254,0.97778 -2.32179,1.46668 -3.88916,1.46668 -1.41358,0 -2.58729,-0.42115 -3.52112,-1.26343 -0.93384,-0.84229 -1.46668,-1.93359 -1.59851,-3.27393 z"
         style="font-size:75%;baseline-shift:sub"
         id="path3323" />
    </g>
    <g
       style="font-size:30px;fill:#000000;font-family:helvetica"
       id="text3241">
      <path
         d="m 409.19727,307 0,-21.47461 8.05664,0 c 1.64061,2e-5 2.95653,0.21731 3.94775,0.65186 0.9912,0.43459 1.76756,1.10353 2.3291,2.00683 0.56151,0.90334 0.84227,1.84816 0.84229,2.83447 -2e-5,0.91799 -0.24904,1.78225 -0.74707,2.59278 -0.49807,0.81056 -1.25002,1.46485 -2.25586,1.96289 1.29881,0.38087 2.29734,1.03028 2.9956,1.94824 0.69823,0.91798 1.04735,2.00196 1.04737,3.25195 -2e-5,1.00587 -0.21242,1.94093 -0.63721,2.80518 -0.42482,0.86426 -0.94972,1.53076 -1.57471,1.99951 -0.62501,0.46875 -1.4087,0.82276 -2.35107,1.06201 C 419.9077,306.88037 418.75292,307 417.38574,307 z m 2.84179,-12.45117 4.64356,0 c 1.25975,10e-6 2.16307,-0.083 2.70996,-0.24903 0.72264,-0.21483 1.26707,-0.57127 1.6333,-1.06933 0.3662,-0.49803 0.5493,-1.12303 0.54932,-1.875 -2e-5,-0.71288 -0.17092,-1.34032 -0.5127,-1.88233 -0.34181,-0.54197 -0.83009,-0.91306 -1.46484,-1.11328 -0.63478,-0.20017 -1.72365,-0.30027 -3.26661,-0.30029 l -4.29199,0 z m 0,9.91699 5.34668,0 c 0.91796,0 1.56249,-0.0342 1.9336,-0.10254 0.65428,-0.11718 1.20115,-0.3125 1.64062,-0.58594 0.43944,-0.27343 0.80077,-0.67138 1.08399,-1.19384 0.28318,-0.52246 0.42478,-1.12549 0.4248,-1.80909 -2e-5,-0.80077 -0.20509,-1.49657 -0.61523,-2.0874 -0.41018,-0.59081 -0.97902,-1.00585 -1.70655,-1.24512 -0.72755,-0.23924 -1.77491,-0.35887 -3.14209,-0.35888 l -4.96582,0 z"
         style="font-size:30px;fill:#000000;font-family:helvetica"
         id="path3326" />
      <path
         d="m 429.5,307 0,-21.47461 14.4873,0 0,2.53418 -11.6455,0 0,6.65039 10.07812,0 0,2.53418 -10.07812,0 0,9.75586 z"
         style="font-size:30px;fill:#000000;font-family:helvetica"
         id="path3328" />
      <path
         d="m 452.65186,313 0,-3.8562 -6.98731,0 0,-1.81275 7.34985,-10.43701 1.61499,0 0,10.43701 2.1753,0 0,1.81275 -2.1753,0 0,3.8562 z m 0,-5.66895 0,-7.26196 -5.04273,7.26196 z"
         style="font-size:75%;baseline-shift:sub"
         id="path3330" />
      <path
         d="m 458.61743,290.16602 0,-1.98853 6.07544,0 0,1.98853 z"
         style="font-size:75%;baseline-shift:super"
         id="path3332" />
    </g>
  </g>
  <cdml:cdml
     version="0.15">
    <cdml:info>
      <cdml:author_program
         version="0.13.0">BKchem</cdml:author_program>
    </cdml:info>
    <cdml:paper
       crop_margin="5"
       crop_svg="1"
       orientation="portrait"
       replace_minus="0"
       type="Legal"
       use_real_minus="0" />
    <cdml:viewport
       viewport="0.000000 0.000000 640.000000 480.000000" />
    <cdml:standard
       area_color=""
       font_family="helvetica"
       font_size="24"
       line_color="#000"
       line_width="0.06cm"
       paper_crop_margin="5"
       paper_crop_svg="1"
       paper_orientation="portrait"
       paper_type="Legal">
      <cdml:bond
         double-ratio="0.85"
         length="1.4cm"
         wedge-width="0.18cm"
         width="0.21cm" />
      <cdml:arrow
         length="1.6cm" />
      <cdml:atom
         show_hydrogens="0" />
    </cdml:standard>
    <cdml:molecule
       id="molecule90438"
       name="">
      <cdml:atom
         id="atom91063"
         name="C"
         valency="4">
        <cdml:point
           x="3.477cm"
           y="5.108cm" />
      </cdml:atom>
      <cdml:atom
         id="atom61804"
         name="C"
         valency="4">
        <cdml:point
           x="4.689cm"
           y="4.407cm" />
      </cdml:atom>
      <cdml:atom
         id="atom16510"
         name="C"
         valency="4">
        <cdml:point
           x="5.902cm"
           y="5.108cm" />
      </cdml:atom>
      <cdml:atom
         id="atom35601"
         name="C"
         valency="4">
        <cdml:point
           x="5.902cm"
           y="6.506cm" />
      </cdml:atom>
      <cdml:atom
         id="atom29624"
         name="C"
         valency="4">
        <cdml:point
           x="3.477cm"
           y="6.506cm" />
      </cdml:atom>
      <cdml:atom
         id="atom99390"
         name="C"
         valency="4">
        <cdml:point
           x="4.689cm"
           y="7.206cm" />
      </cdml:atom>
      <cdml:atom
         id="atom29699"
         name="N"
         pos="center-first"
         valency="3">
        <cdml:point
           x="7.231cm"
           y="4.675cm" />
      </cdml:atom>
      <cdml:atom
         id="atom10158"
         name="N"
         pos="center-first"
         valency="3">
        <cdml:point
           x="8.053cm"
           y="5.807cm" />
      </cdml:atom>
      <cdml:atom
         id="atom70962"
         name="N"
         pos="center-first"
         valency="3">
        <cdml:point
           x="7.231cm"
           y="6.938cm" />
      </cdml:atom>
      <cdml:atom
         id="atom1926"
         name="O"
         pos="center-first"
         valency="2">
        <cdml:point
           x="7.664cm"
           y="8.269cm" />
      </cdml:atom>
      <cdml:atom
         id="atom15553"
         name="C"
         valency="4">
        <cdml:point
           x="7.664cm"
           y="9.669cm" />
      </cdml:atom>
      <cdml:atom
         charge="1"
         id="atom69892"
         name="N"
         pos="center-first"
         valency="3">
        <cdml:point
           x="8.876cm"
           y="10.369cm" />
        <cdml:mark
           auto="1"
           draw_circle="yes"
           size="10"
           type="plus"
           x="9.351cm"
           y="10.643cm" />
      </cdml:atom>
      <cdml:atom
         id="atom6075"
         name="N"
         pos="center-first"
         valency="3">
        <cdml:point
           x="6.451cm"
           y="10.369cm" />
      </cdml:atom>
      <cdml:atom
         hydrogens="on"
         id="atom31496"
         name="C"
         pos="center-last"
         show="yes"
         valency="4">
        <cdml:point
           x="5.239cm"
           y="9.669cm" />
      </cdml:atom>
      <cdml:atom
         hydrogens="on"
         id="atom79731"
         name="C"
         pos="center-first"
         show="yes"
         valency="4">
        <cdml:point
           x="6.451cm"
           y="11.769cm" />
      </cdml:atom>
      <cdml:atom
         hydrogens="on"
         id="atom48935"
         name="C"
         pos="center-first"
         show="yes"
         valency="4">
        <cdml:point
           x="10.089cm"
           y="9.669cm" />
      </cdml:atom>
      <cdml:atom
         hydrogens="on"
         id="atom29917"
         name="C"
         pos="center-first"
         show="yes"
         valency="4">
        <cdml:point
           x="8.876cm"
           y="11.769cm" />
      </cdml:atom>
      <cdml:bond
         bond_width="-7.93505535055"
         center="no"
         double_ratio="0.85"
         end="atom10158"
         id="bond9722"
         line_width="2.26715867159"
         start="atom29699"
         type="n2" />
      <cdml:bond
         double_ratio="0.85"
         end="atom1926"
         id="bond2043"
         line_width="2.26715867159"
         start="atom70962"
         type="n1" />
      <cdml:bond
         bond_width="-7.93505535055"
         center="no"
         double_ratio="0.85"
         end="atom16510"
         id="bond45211"
         line_width="2.26715867159"
         start="atom61804"
         type="n2" />
      <cdml:bond
         double_ratio="0.85"
         end="atom79731"
         id="bond92697"
         line_width="2.26715867159"
         start="atom6075"
         type="n1" />
      <cdml:bond
         bond_width="7.93505535055"
         center="no"
         double_ratio="0.85"
         end="atom69892"
         id="bond90787"
         line_width="2.26715867159"
         start="atom15553"
         type="n2" />
      <cdml:bond
         double_ratio="0.85"
         end="atom61804"
         id="bond32508"
         line_width="2.26715867159"
         start="atom91063"
         type="n1" />
      <cdml:bond
         bond_width="-7.93505535055"
         center="no"
         double_ratio="0.85"
         end="atom99390"
         id="bond89401"
         line_width="2.26715867159"
         start="atom35601"
         type="n2" />
      <cdml:bond
         double_ratio="0.85"
         end="atom31496"
         id="bond22156"
         line_width="2.26715867159"
         start="atom6075"
         type="n1" />
      <cdml:bond
         double_ratio="0.85"
         end="atom70962"
         id="bond1912"
         line_width="2.26715867159"
         start="atom10158"
         type="n1" />
      <cdml:bond
         double_ratio="0.85"
         end="atom35601"
         id="bond53619"
         line_width="2.26715867159"
         start="atom70962"
         type="n1" />
      <cdml:bond
         bond_width="7.93505535055"
         center="no"
         double_ratio="0.85"
         end="atom29624"
         id="bond67920"
         line_width="2.26715867159"
         start="atom91063"
         type="n2" />
      <cdml:bond
         double_ratio="0.85"
         end="atom15553"
         id="bond96087"
         line_width="2.26715867159"
         start="atom1926"
         type="n1" />
      <cdml:bond
         double_ratio="0.85"
         end="atom99390"
         id="bond7351"
         line_width="2.26715867159"
         start="atom29624"
         type="n1" />
      <cdml:bond
         double_ratio="0.85"
         end="atom6075"
         id="bond23183"
         line_width="2.26715867159"
         start="atom15553"
         type="n1" />
      <cdml:bond
         double_ratio="0.85"
         end="atom29917"
         id="bond19055"
         line_width="2.26715867159"
         start="atom69892"
         type="n1" />
      <cdml:bond
         double_ratio="0.85"
         end="atom48935"
         id="bond59272"
         line_width="2.26715867159"
         start="atom69892"
         type="n1" />
      <cdml:bond
         double_ratio="0.85"
         end="atom35601"
         id="bond46610"
         line_width="2.26715867159"
         start="atom16510"
         type="n1" />
      <cdml:bond
         double_ratio="0.85"
         end="atom29699"
         id="bond33861"
         line_width="2.26715867159"
         start="atom16510"
         type="n1" />
    </cdml:molecule>
    <cdml:text
       id="text11541">
      <cdml:point
         x="11.009cm"
         y="7.887cm" />
      <cdml:ftext>BF<cdml:sub>4</cdml:sub>
<cdml:sup>-</cdml:sup>
</cdml:ftext>
    </cdml:text>
  </cdml:cdml>
</svg>
