<svg xmlns:rdf="http://www.w3.org/1999/02/22-rdf-syntax-ns#" xmlns="http://www.w3.org/2000/svg" xml:space="preserve" height="136.07001" width="217.261" version="1.1" xmlns:cc="http://creativecommons.org/ns#" xmlns:dc="http://purl.org/dc/elements/1.1/"><metadata><rdf:RDF><cc:Work rdf:about=""><dc:format>image/svg+xml</dc:format><dc:type rdf:resource="http://purl.org/dc/dcmitype/StillImage"/><dc:title/></cc:Work></rdf:RDF></metadata><path fill="#000" d="M109.0625,3.40625,75.625,22.6875,75.625,60.0625,48.15625,60.0625,48.15625,61.6875,75,61.6875,61.90625,84.34375,63.3125,85.15625,76.71875,61.96875,98.90625,74.75,99.71875,73.375,77.25,60.40625,77.25,23.625,109.0625,5.25,140.875,23.625,140.875,60.40625,118.375,73.40625,119.1875,74.78125,141.40625,61.96875,155.03125,85.625,156.46875,84.8125,143.125,61.6875,170.1875,61.6875,170.1875,60.0625,142.5,60.0625,142.5,22.6875,109.0625,3.40625zm-72.03125,49.84375c-1.4383,0-2.77175,0.3123-3.96875,0.96875-1.19795,0.65645-2.1324,1.6399-2.78125,2.90625s-0.96875,2.737-0.96875,4.4375c0,1.55895,0.30025,3.01555,0.875,4.375,0.57475,1.3585,1.39895,2.4087,2.5,3.125,1.10105,0.71725,2.555,1.0625,4.3125,1.0625,1.69765,0,3.1061-0.44305,4.28125-1.375,1.1742-0.93195,2.01655-2.286,2.46875-4.0625l-2.1875-0.5625c-0.2964,1.3737-0.85055,2.3955-1.6875,3.09375s-1.85505,1.0625-3.0625,1.0625c-0.99275,0-1.9291-0.2692-2.78125-0.78125s-1.47125-1.277-1.875-2.3125-0.59375-2.23705-0.59375-3.625c0-1.07635,0.15895-2.11135,0.5-3.125s0.93955-1.83615,1.78125-2.4375,1.8729-0.90625,3.125-0.90625c1.0887,0,1.9996,0.271,2.71875,0.8125,0.7182,0.5415,1.27815,1.40625,1.65625,2.59375l2.125-0.5c-0.437-1.50955-1.2313-2.66685-2.34375-3.5-1.1115-0.8322-2.4626-1.25-4.09375-1.25zm143,0c-1.4383,0-2.7405,0.3123-3.9375,0.96875-1.19795,0.65645-2.13145,1.6399-2.78125,2.90625-0.64695,1.26635-0.96875,2.737-0.96875,4.4375,0,1.55895,0.269,3.0165,0.84375,4.375s1.4302,2.4087,2.53125,3.125c1.102,0.71725,2.52375,1.0625,4.28125,1.0625,1.69765,0,3.13735-0.44305,4.3125-1.375,1.1742-0.93195,1.98435-2.286,2.4375-4.0625l-2.15625-0.5625c-0.2964,1.3737-0.8818,2.3955-1.71875,3.09375s-1.856,1.0625-3.0625,1.0625c-0.99275,0-1.8988-0.2692-2.75-0.78125s-1.50155-1.277-1.90625-2.3125c-0.4028-1.0355-0.59375-2.23705-0.59375-3.625,0-1.07635,0.1599-2.11135,0.5-3.125s0.9405-1.83615,1.78125-2.4375c0.8417-0.60135,1.90415-0.90625,3.15625-0.90625,1.0887,0,1.9693,0.271,2.6875,0.8125s1.27815,1.40625,1.65625,2.59375l2.125-0.5c-0.43795-1.50955-1.20005-2.66685-2.3125-3.5-1.1115-0.8322-2.49385-1.25-4.125-1.25zm-174.59375,0.28125,0,16.3125,2.15625,0,0-7.6875,8.4375,0,0,7.6875,2.1875,0,0-16.3125-2.1875,0,0,6.71875-8.4375,0,0-6.71875-2.15625,0zm184.0625,0,0,16.3125,2.15625,0,0-7.6875,8.46875,0,0,7.6875,2.15625,0,0-16.3125-2.15625,0,0,6.71875-8.46875,0,0-6.71875-2.15625,0zm-165.53125,8.3125c-0.96995,0-1.7858,0.2577-2.4375,0.8125-0.6517,0.55385-1.06665,1.3661-1.25,2.375l1.5,0.25c0.11115-0.7372,0.35955-1.28765,0.75-1.65625s0.8826-0.5625,1.46875-0.5625c0.59185,0,1.0632,0.2015,1.4375,0.5625,0.3743,0.36005,0.5625,0.7937,0.5625,1.34375,0,0.69445-0.26825,1.22905-0.78125,1.5625s-1.07845,0.5-1.71875,0.5c-0.06175,0-0.1493-0.01985-0.25-0.03125l-0.15625,1.3125c0.42465-0.11115,0.77655-0.15625,1.0625-0.15625,0.6992,0,1.2656,0.2391,1.71875,0.6875,0.4541,0.4484,0.6875,0.9978,0.6875,1.6875,0,0.7239-0.2314,1.3223-0.71875,1.8125-0.48735,0.4883-1.09715,0.75-1.8125,0.75-0.60325,0-1.1161-0.18725-1.53125-0.5625-0.4142-0.3762-0.70115-0.99255-0.875-1.84375l-1.5,0.21875c0.1007,1.0184,0.5053,1.82845,1.21875,2.46875,0.7106,0.6384,1.61115,0.96875,2.6875,0.96875,1.1932,0,2.1566-0.3821,2.9375-1.125s1.1875-1.64905,1.1875-2.71875c0-0.7904-0.19095-1.4415-0.59375-1.96875-0.40375-0.52535-0.99485-0.86405-1.71875-1.03125,0.5567-0.2565,0.9972-0.59805,1.28125-1.03125s0.40625-0.94055,0.40625-1.46875c0-0.55575-0.14015-1.06755-0.4375-1.5625-0.29925-0.494-0.71885-0.8703-1.28125-1.15625-0.5624-0.2869-1.17495-0.4375-1.84375-0.4375zm183.65625,0c-0.9709,0-1.7858,0.2577-2.4375,0.8125-0.65265,0.55385-1.06665,1.3661-1.25,2.375l1.5,0.25c0.11115-0.7372,0.3586-1.28765,0.75-1.65625s0.8826-0.5625,1.46875-0.5625c0.59185,0,1.09445,0.2015,1.46875,0.5625,0.37525,0.36005,0.5625,0.7937,0.5625,1.34375,0,0.69445-0.26825,1.22905-0.78125,1.5625-0.51205,0.33345-1.07845,0.5-1.71875,0.5-0.06175,0-0.15025-0.01985-0.25-0.03125l-0.15625,1.3125c0.42465-0.11115,0.77655-0.15625,1.0625-0.15625,0.69825,0,1.2656,0.2391,1.71875,0.6875,0.45505,0.4484,0.6875,0.9978,0.6875,1.6875,0,0.7239-0.26265,1.3223-0.75,1.8125-0.4864,0.4883-1.06685,0.75-1.78125,0.75-0.60325,0-1.11705-0.18725-1.53125-0.5625-0.4142-0.3762-0.7021-0.99255-0.875-1.84375l-1.5,0.21875c0.09975,1.0184,0.50435,1.82845,1.21875,2.46875,0.7106,0.6384,1.57895,0.96875,2.65625,0.96875,1.1932,0,2.1888-0.3821,2.96875-1.125s1.1875-1.64905,1.1875-2.71875c0-0.7904-0.2222-1.4415-0.625-1.96875-0.40375-0.52535-0.9636-0.86405-1.6875-1.03125,0.5567-0.2565,0.96595-0.59805,1.25-1.03125s0.4375-0.94055,0.4375-1.46875c0-0.55575-0.14015-1.06755-0.4375-1.5625-0.2983-0.494-0.74915-0.8703-1.3125-1.15625-0.5624-0.2869-1.1759-0.4375-1.84375-0.4375zm-105.03125,10.53125,0,16.34375,2.0625,0,0-12.8125,8.5625,12.8125,2.21875,0,0-16.34375-2.0625,0,0,12.8125-8.5625-12.8125-2.21875,0zm-46.71875,13.5c-1.4383,0-2.77175,0.34355-3.96875,1-1.19795,0.65645-2.10115,1.60865-2.75,2.875s-0.96875,2.737-0.96875,4.4375c0,1.55895,0.269,3.0468,0.84375,4.40625,0.57475,1.3585,1.4302,2.37745,2.53125,3.09375,1.10105,0.71725,2.52375,1.09375,4.28125,1.09375,1.69765,0,3.13735-0.4743,4.3125-1.40625,1.1742-0.93195,1.9853-2.286,2.4375-4.0625l-2.15625-0.5625c-0.2964,1.37275-0.8818,2.42675-1.71875,3.125s-1.85505,1.03125-3.0625,1.03125c-0.99275,0-1.89785-0.23795-2.75-0.75s-1.5025-1.30825-1.90625-2.34375-0.59375-2.23705-0.59375-3.625c0-1.07635,0.15895-2.11135,0.5-3.125s0.9405-1.83615,1.78125-2.4375c0.8417-0.60135,1.90415-0.90625,3.15625-0.90625,1.0887,0,1.96835,0.271,2.6875,0.8125,0.7182,0.5415,1.27815,1.40625,1.65625,2.59375l2.125-0.5c-0.437-1.50955-1.20005-2.66685-2.3125-3.5-1.1115-0.8322-2.49385-1.25-4.125-1.25zm105.34375,0c-1.4383,0-2.7405,0.34355-3.9375,1-1.19795,0.65645-2.13335,1.60865-2.78125,2.875-0.64885,1.26635-0.96875,2.737-0.96875,4.4375,0,1.55895,0.269,3.0468,0.84375,4.40625,0.57475,1.3585,1.4302,2.37745,2.53125,3.09375,1.10105,0.71725,2.52375,1.09375,4.28125,1.09375,1.69765,0,3.13735-0.4743,4.3125-1.40625,1.1742-0.93195,1.9853-2.286,2.4375-4.0625l-2.15625-0.5625c-0.29545,1.37275-0.8818,2.42675-1.71875,3.125s-1.85505,1.03125-3.0625,1.03125c-0.9918,0-1.8988-0.23795-2.75-0.75s-1.4722-1.30825-1.875-2.34375c-0.4047-1.0355-0.625-2.23705-0.625-3.625,0-1.07635,0.15895-2.11135,0.5-3.125s0.93955-1.83615,1.78125-2.4375,1.90415-0.90625,3.15625-0.90625c1.0887,0,1.96835,0.271,2.6875,0.8125,0.71725,0.5415,1.2791,1.40625,1.65625,2.59375l2.125-0.5c-0.437-1.50955-1.20005-2.66685-2.3125-3.5-1.1115-0.8322-2.49385-1.25-4.125-1.25zm-136.9375,0.28125,0,16.34375,2.1875,0,0-7.6875,8.4375,0,0,7.6875,2.15625,0,0-16.34375-2.15625,0,0,6.71875-8.4375,0,0-6.71875-2.1875,0zm146.40625,0,0,16.34375,2.15625,0,0-7.6875,8.46875,0,0,7.6875,2.15625,0,0-16.34375-2.15625,0,0,6.71875-8.46875,0,0-6.71875-2.15625,0zm-62.4375,4.65625,0,16.8125,1.625,0,0-16.8125-1.625,0zm-65.4375,3.65625c-0.96995,0-1.7858,0.28895-2.4375,0.84375-0.6517,0.55385-1.06665,1.33485-1.25,2.34375l1.5,0.25c0.11115-0.7372,0.35955-1.28765,0.75-1.65625s0.8826-0.53125,1.46875-0.53125c0.59185,0,1.0632,0.17025,1.4375,0.53125,0.3743,0.36005,0.5625,0.82495,0.5625,1.375,0,0.69445-0.237,1.1978-0.75,1.53125s-1.1097,0.5-1.75,0.5c-0.06175,0-0.11805-0.01985-0.21875-0.03125l-0.1875,1.34375c0.42465-0.11115,0.77655-0.1875,1.0625-0.1875,0.6992,0,1.29685,0.2391,1.75,0.6875,0.4541,0.4484,0.65625,0.9978,0.65625,1.6875,0,0.7239-0.2314,1.35355-0.71875,1.84375-0.48735,0.4883-1.09715,0.71875-1.8125,0.71875-0.60325,0-1.1161-0.18725-1.53125-0.5625-0.4142-0.3762-0.70115-0.99255-0.875-1.84375l-1.5,0.21875c0.09975,1.01745,0.50435,1.8275,1.21875,2.46875,0.7106,0.6384,1.61115,0.96875,2.6875,0.96875,1.1932,0,2.18785-0.3821,2.96875-1.125s1.15625-1.64905,1.15625-2.71875c0-0.7904-0.19095-1.4415-0.59375-1.96875-0.40375-0.52535-0.9636-0.86405-1.6875-1.03125,0.5567-0.2565,0.96595-0.59805,1.25-1.03125s0.4375-0.9093,0.4375-1.4375c0-0.55575-0.14015-1.0988-0.4375-1.59375-0.29925-0.494-0.7501-0.8703-1.3125-1.15625-0.5624-0.2869-1.17495-0.4375-1.84375-0.4375zm146,0c-0.96995,0-1.7536,0.28895-2.40625,0.84375-0.65075,0.55385-1.0979,1.33485-1.28125,2.34375l1.5,0.25c0.11115-0.7372,0.3908-1.28765,0.78125-1.65625s0.85135-0.53125,1.4375-0.53125c0.59185,0,1.0935,0.17025,1.46875,0.53125,0.37335,0.36005,0.5625,0.82495,0.5625,1.375,0,0.69445-0.2692,1.1978-0.78125,1.53125-0.51395,0.33345-1.0775,0.5-1.71875,0.5-0.06175,0-0.1493-0.01985-0.25-0.03125l-0.15625,1.34375c0.42465-0.11115,0.77655-0.1875,1.0625-0.1875,0.6992,0,1.2656,0.2391,1.71875,0.6875s0.6875,0.9978,0.6875,1.6875c0,0.7239-0.26265,1.35355-0.75,1.84375-0.4864,0.4883-1.06495,0.71875-1.78125,0.71875-0.6023,0-1.11515-0.18725-1.53125-0.5625-0.4142-0.3762-0.7002-0.99255-0.875-1.84375l-1.5,0.21875c0.09975,1.01745,0.50625,1.8275,1.21875,2.46875,0.7106,0.6384,1.5799,0.96875,2.65625,0.96875,1.1932,0,2.18785-0.3821,2.96875-1.125s1.1875-1.64905,1.1875-2.71875c0-0.7904-0.22125-1.4415-0.625-1.96875-0.4028-0.52535-0.9636-0.86405-1.6875-1.03125,0.5567-0.2565,0.9972-0.59805,1.28125-1.03125s0.40625-0.9093,0.40625-1.4375c0-0.55575-0.1392-1.09975-0.4375-1.59375s-0.71885-0.8703-1.28125-1.15625c-0.56145-0.2869-1.20525-0.4375-1.875-0.4375zm-79.75,15.3125c-2.30185,0-4.20085,0.74795-5.65625,2.28125-1.4554,1.53235-2.1875,3.66465-2.1875,6.375,0,1.43355,0.31335,2.77905,0.9375,4.0625s1.5397,2.32055,2.75,3.0625,2.5879,1.09375,4.125,1.09375c1.41835,0,2.74325-0.32835,3.96875-1s2.1759-1.6625,2.84375-2.96875c0.6688-1.30625,1-2.78165,1-4.4375,0-1.6321-0.30195-3.08775-0.9375-4.375-0.6346-1.2882-1.57095-2.3102-2.78125-3.03125-1.2103-0.7201-2.55485-1.0625-4.0625-1.0625zm0,1.84375c1.07635,0,2.0408,0.2672,2.90625,0.8125s1.5194,1.32165,1.96875,2.3125c0.4503,0.99085,0.6875,2.14065,0.6875,3.46875,0,2.10045-0.544,3.73215-1.59375,4.875-1.05165,1.14285-2.3736,1.71875-4,1.71875-1.596,0-2.91045-0.58635-3.96875-1.71875s-1.59375-2.6585-1.59375-4.625c0-2.4567,0.5533-4.2315,1.65625-5.28125s2.408-1.5625,3.9375-1.5625zm0.28125,17.25c-1.0488,0-1.90625,0.85745-1.90625,1.90625s0.85745,1.875,1.90625,1.875,1.90625-0.8262,1.90625-1.875-0.85745-1.90625-1.90625-1.90625z" transform="translate(0,-3.1651693e-6)"/></svg>
