<?xml version="1.0" encoding="UTF-8" standalone="no"?>
<svg
   xmlns:cdml="http://www.freesoftware.fsf.org/bkchem/cdml"
   xmlns:dc="http://purl.org/dc/elements/1.1/"
   xmlns:cc="http://creativecommons.org/ns#"
   xmlns:rdf="http://www.w3.org/1999/02/22-rdf-syntax-ns#"
   xmlns:svg="http://www.w3.org/2000/svg"
   xmlns="http://www.w3.org/2000/svg"
   xmlns:sodipodi="http://sodipodi.sourceforge.net/DTD/sodipodi-0.dtd"
   xmlns:inkscape="http://www.inkscape.org/namespaces/inkscape"
   height="48.46641mm"
   version="1.0"
   viewBox="0 0 267 183"
   width="70.71328mm"
   id="svg6066"
   inkscape:version="0.48.0 r9654"
   sodipodi:docname="tes.svg">
  <metadata
     id="metadata6118">
    <rdf:RDF>
      <cc:Work
         rdf:about="">
        <dc:format>image/svg+xml</dc:format>
        <dc:type
           rdf:resource="http://purl.org/dc/dcmitype/StillImage" />
        <dc:title></dc:title>
      </cc:Work>
    </rdf:RDF>
  </metadata>
  <defs
     id="defs6116" />
  <sodipodi:namedview
     pagecolor="#ffffff"
     bordercolor="#666666"
     borderopacity="1"
     objecttolerance="10"
     gridtolerance="10"
     guidetolerance="10"
     inkscape:pageopacity="0"
     inkscape:pageshadow="2"
     inkscape:window-width="640"
     inkscape:window-height="480"
     id="namedview6114"
     showgrid="false"
     inkscape:zoom="1.5314615"
     inkscape:cx="125.27943"
     inkscape:cy="85.865692"
     inkscape:window-x="0"
     inkscape:window-y="0"
     inkscape:window-maximized="0"
     inkscape:current-layer="svg6066" />
  <g
     font-family="Helvetica"
     font-size="12pt"
     stroke-linecap="round"
     transform="translate(-218,-39)"
     id="g6068">
    <g
       stroke="#000000"
       stroke-width="2.26548672566"
       id="g6070">
      <path
         style=""
         d="M 341.59,123 326.13,96.220001"
         id="line6072" />
    </g>
    <g
       stroke="#000000"
       stroke-width="2.26548672566"
       id="g6074">
      <path
         style=""
         d="m 372,130.78 26.34,-15.21"
         id="line6076" />
    </g>
    <g
       stroke="#000000"
       stroke-width="2.26548672566"
       id="g6078">
      <path
         style=""
         d="M 378.98999,187.78 418,187.78"
         id="line6080" />
    </g>
    <g
       stroke="#000000"
       stroke-linecap="butt"
       stroke-width="2.26548672566"
       id="g6082">
      <path
         style=""
         d="M 340,149.25 320,160.8"
         id="line6084" />
    </g>
    <g
       stroke="#000000"
       stroke-width="2.26548672566"
       id="g6086">
      <path
         style=""
         d="m 360.07001,155 18.91998,32.78"
         id="line6088" />
    </g>
    <g
       stroke="#000000"
       stroke-width="2.26548672566"
       id="g6090">
      <path
         style=""
         d="m 398.34,115.57 0,-39.57"
         id="line6092" />
    </g>
    <g
       stroke="#000000"
       stroke-width="2.26548672566"
       id="g6094">
      <path
         style=""
         d="m 326.13,96.220001 -39.13,0"
         id="line6096" />
    </g>
    <g
       style="font-size:30px;fill:#000000;font-family:helvetica"
       id="text6098">
      <path
         d="m 296.65839,175.42999 0,-21.47461 9.52148,0 c 1.91405,2e-5 3.36913,0.1929 4.36523,0.57862 0.99608,0.38576 1.79198,1.06691 2.3877,2.04345 0.59568,0.97658 0.89354,2.05568 0.89355,3.23731 -10e-6,1.52345 -0.49318,2.80763 -1.47949,3.85254 -0.98634,1.04493 -2.50978,1.70899 -4.57031,1.99218 0.75194,0.36134 1.32323,0.71779 1.71387,1.06934 0.83006,0.76173 1.61619,1.71387 2.3584,2.85645 l 3.73535,5.84472 -3.57422,0 -2.8418,-4.46777 c -0.83009,-1.28906 -1.51368,-2.27538 -2.05078,-2.95899 -0.53712,-0.68358 -1.01808,-1.1621 -1.44287,-1.43554 -0.42482,-0.27343 -0.85694,-0.46386 -1.29639,-0.57129 -0.32227,-0.0683 -0.84962,-0.10253 -1.58203,-0.10254 l -3.2959,0 0,9.53613 z m 2.84179,-11.99707 6.1084,0 c 1.29882,1e-5 2.31444,-0.13426 3.04688,-0.40283 0.7324,-0.26854 1.28904,-0.69823 1.66992,-1.28906 0.38084,-0.59081 0.57127,-1.2329 0.57129,-1.92627 -2e-5,-1.01561 -0.36867,-1.85057 -1.10596,-2.50488 -0.73732,-0.65428 -1.90187,-0.98143 -3.49365,-0.98145 l -6.79688,0 z"
         style="font-size:30px;fill:#000000;font-family:helvetica"
         id="path6128" />
    </g>
    <g
       style="font-size:30px;fill:#000000;font-family:helvetica"
       id="text6100">
      <path
         d="m 342.64764,142.10059 2.68067,-0.23438 c 0.12695,1.07423 0.42236,1.95557 0.88623,2.64404 0.46386,0.68848 1.18407,1.24512 2.16064,1.66993 0.97656,0.4248 2.07519,0.6372 3.2959,0.6372 1.08397,0 2.041,-0.16113 2.8711,-0.4834 0.83006,-0.32226 1.44773,-0.76415 1.85302,-1.32568 0.40526,-0.56152 0.6079,-1.17431 0.60791,-1.83838 -10e-6,-0.67382 -0.19533,-1.2622 -0.58593,-1.76513 -0.39064,-0.50293 -1.03518,-0.92529 -1.9336,-1.26709 -0.57618,-0.2246 -1.8506,-0.57373 -3.82324,-1.04737 -1.97266,-0.47362 -3.3545,-0.9204 -4.14551,-1.34033 -1.02539,-0.5371 -1.78955,-1.2036 -2.29248,-1.99951 -0.50293,-0.79589 -0.7544,-1.687 -0.75439,-2.67334 -1e-5,-1.08397 0.30761,-2.09715 0.92285,-3.03955 0.61523,-0.94237 1.51367,-1.6577 2.69531,-2.146 1.18163,-0.48826 2.49511,-0.7324 3.94043,-0.73242 1.59179,2e-5 2.99559,0.25637 4.21143,0.76904 1.2158,0.51272 2.15086,1.26711 2.80517,2.26319 0.65428,0.99611 1.00584,2.12404 1.05469,3.38379 l -2.72461,0.20507 c -0.1465,-1.3574 -0.6421,-2.38279 -1.48682,-3.07617 -0.84474,-0.69334 -2.09229,-1.04002 -3.74267,-1.04004 -1.71876,2e-5 -2.9712,0.31496 -3.75733,0.94483 -0.78613,0.6299 -1.1792,1.38917 -1.1792,2.27783 0,0.7715 0.27832,1.40626 0.83497,1.9043 0.54686,0.49806 1.97509,1.00831 4.28466,1.53076 2.30956,0.52247 3.89403,0.97901 4.75342,1.36963 1.24999,0.57618 2.17284,1.30616 2.76856,2.18994 0.59568,0.88379 0.89353,1.90186 0.89355,3.0542 -2e-5,1.14258 -0.32717,2.21924 -0.98144,3.22998 -0.65432,1.01074 -1.59426,1.79687 -2.81983,2.3584 -1.2256,0.56152 -2.60499,0.84228 -4.13818,0.84228 -1.94337,0 -3.57179,-0.2832 -4.88526,-0.84961 -1.31348,-0.5664 -2.34375,-1.41845 -3.09082,-2.55615 -0.74707,-1.13769 -1.14013,-2.42431 -1.1792,-3.85986 z"
         style="font-size:30px;fill:#000000;font-family:helvetica"
         id="path6131" />
      <path
         d="m 363.33124,130.55762 0,-3.03223 2.63672,0 0,3.03223 z m 0,18.44238 0,-15.55664 2.63672,0 0,15.55664 z"
         style="font-size:30px;fill:#000000;font-family:helvetica"
         id="path6133" />
    </g>
    <g
       style="font-size:30px;fill:#000000;font-family:helvetica"
       id="text6102">
      <path
         d="m 403.93671,62.180702 2.84179,0.717774 c -0.59572,2.333988 -1.6675,4.113772 -3.21533,5.339355 -1.54787,1.225586 -3.43995,1.838379 -5.67627,1.838379 -2.31446,0 -4.19678,-0.471191 -5.64697,-1.413574 -1.4502,-0.942381 -2.55372,-2.307126 -3.31055,-4.094238 -0.75684,-1.787103 -1.13525,-3.706046 -1.13525,-5.756836 0,-2.236315 0.42724,-4.186997 1.28174,-5.852051 0.85449,-1.665021 2.0703,-2.929668 3.64746,-3.793946 1.57714,-0.864236 3.31298,-1.296364 5.20752,-1.296386 2.14842,2.2e-5 3.95506,0.546896 5.41992,1.640625 1.46482,1.093769 2.48533,2.631853 3.06152,4.614258 l -2.79785,0.659179 c -0.49806,-1.562483 -1.22072,-2.700177 -2.16797,-3.413086 -0.94728,-0.712871 -2.13868,-1.069316 -3.57422,-1.069336 -1.6504,2e-5 -3.02979,0.395527 -4.13818,1.186524 -1.1084,0.791033 -1.88721,1.853044 -2.33643,3.186035 -0.44922,1.333022 -0.67383,2.707532 -0.67382,4.123535 -10e-6,1.826181 0.2661,3.420418 0.79834,4.782715 0.53222,1.362309 1.35985,2.380375 2.48291,3.054199 1.12303,0.673831 2.33885,1.010744 3.64746,1.010742 1.59178,2e-6 2.93944,-0.458981 4.04297,-1.376953 1.10349,-0.917964 1.85056,-2.280267 2.24121,-4.086914 z"
         style="font-size:30px;fill:#000000;font-family:helvetica"
         id="path6136" />
      <path
         d="m 410.38202,69.709999 0,-21.474609 2.8418,0 0,8.818359 11.16211,0 0,-8.818359 2.84179,0 0,21.474609 -2.84179,0 0,-10.12207 -11.16211,0 0,10.12207 z"
         style="font-size:30px;fill:#000000;font-family:helvetica"
         id="path6138" />
      <path
         d="m 430.60419,71.45829 1.97754,-0.263672 c 0.22704,1.120609 0.6134,1.928103 1.15905,2.422486 0.54565,0.494386 1.21033,0.741578 1.99402,0.741577 0.93017,10e-7 1.71569,-0.322264 2.35657,-0.966797 0.64086,-0.644528 0.96129,-1.442867 0.9613,-2.39502 -10e-6,-0.908197 -0.29664,-1.657098 -0.88989,-2.246704 -0.59327,-0.589592 -1.34766,-0.884391 -2.26318,-0.884399 -0.37354,8e-6 -0.83863,0.07325 -1.39527,0.219726 l 0.21973,-1.735839 c 0.13183,0.01466 0.23803,0.02198 0.3186,0.02197 0.84228,1e-5 1.60034,-0.219717 2.27417,-0.65918 0.67382,-0.439442 1.01074,-1.116932 1.01075,-2.03247 -1e-5,-0.725085 -0.24537,-1.32567 -0.73609,-1.801758 -0.49073,-0.47606 -1.12427,-0.714097 -1.90063,-0.714111 -0.76905,1.4e-5 -1.40992,0.241713 -1.92261,0.725097 -0.5127,0.483412 -0.84229,1.208509 -0.98877,2.175293 l -1.97754,-0.351562 c 0.2417,-1.32567 0.79101,-2.352891 1.64795,-3.081665 0.85693,-0.728744 1.9226,-1.093124 3.19702,-1.09314 0.8789,1.6e-5 1.68823,0.188615 2.42798,0.565796 0.73974,0.377212 1.30553,0.891738 1.69739,1.543579 0.39183,0.651869 0.58776,1.344007 0.58777,2.076416 -10e-6,0.695812 -0.18678,1.329356 -0.56031,1.900635 -0.37354,0.571298 -0.92652,1.0254 -1.65893,1.362305 0.95214,0.219735 1.69188,0.675667 2.21924,1.367797 0.52733,0.692146 0.791,1.558234 0.79101,2.598267 -10e-6,1.406253 -0.5127,2.598269 -1.53808,3.57605 -1.0254,0.977783 -2.32179,1.466674 -3.88916,1.466675 -1.41358,-10e-7 -2.58729,-0.421143 -3.52112,-1.263428 -0.93384,-0.842283 -1.46668,-1.933591 -1.59851,-3.273926 z"
         style="font-size:75%;baseline-shift:sub"
         id="path6140" />
    </g>
    <g
       style="font-size:30px;fill:#000000;font-family:helvetica"
       id="text6106">
      <path
         d="m 226.70235,103.22 0,-21.474608 2.84179,0 0,8.818359 11.16211,0 0,-8.818359 2.8418,0 0,21.474608 -2.8418,0 0,-10.122069 -11.16211,0 0,10.122069 z"
         style="font-size:30px;fill:#000000;font-family:helvetica"
         id="path6143" />
      <path
         d="m 246.92451,104.96829 1.97754,-0.26367 c 0.22705,1.12061 0.6134,1.9281 1.15906,2.42249 0.54565,0.49438 1.21032,0.74157 1.99402,0.74157 0.93017,0 1.71569,-0.32226 2.35657,-0.96679 0.64086,-0.64453 0.96129,-1.44287 0.9613,-2.39502 -1e-5,-0.9082 -0.29664,-1.6571 -0.88989,-2.24671 -0.59327,-0.58959 -1.34766,-0.88439 -2.26319,-0.8844 -0.37354,1e-5 -0.83862,0.0733 -1.39526,0.21973 l 0.21973,-1.73584 c 0.13183,0.01466 0.23803,0.02198 0.3186,0.02197 0.84228,1e-5 1.60034,-0.219717 2.27417,-0.659179 0.67382,-0.439443 1.01073,-1.116933 1.01074,-2.032471 -1e-5,-0.725085 -0.24537,-1.32567 -0.73608,-1.801758 -0.49073,-0.47606 -1.12427,-0.714097 -1.90064,-0.714111 -0.76904,1.4e-5 -1.40991,0.241713 -1.9226,0.725097 -0.5127,0.483412 -0.84229,1.208509 -0.98877,2.175293 l -1.97754,-0.351562 c 0.2417,-1.32567 0.79101,-2.352891 1.64795,-3.081665 0.85693,-0.728744 1.9226,-1.093124 3.19702,-1.09314 0.8789,1.6e-5 1.68822,0.188615 2.42798,0.565796 0.73973,0.377213 1.30553,0.891738 1.69739,1.543579 0.39183,0.651869 0.58775,1.344007 0.58776,2.076416 -10e-6,0.695812 -0.18677,1.329357 -0.5603,1.900635 -0.37354,0.571299 -0.92652,1.025398 -1.65893,1.362308 0.95213,0.21973 1.69188,0.67566 2.21923,1.36779 0.52734,0.69215 0.79101,1.55824 0.79102,2.59827 -10e-6,1.40625 -0.51271,2.59827 -1.53809,3.57605 -1.0254,0.97778 -2.32178,1.46668 -3.88916,1.46668 -1.41358,0 -2.58728,-0.42115 -3.52111,-1.26343 -0.93384,-0.84229 -1.46668,-1.93359 -1.59852,-3.27393 z"
         style="font-size:75%;baseline-shift:sub"
         id="path6145" />
      <path
         d="m 276.14082,95.690704 2.8418,0.717774 c -0.59572,2.333989 -1.6675,4.113772 -3.21533,5.339352 -1.54787,1.22559 -3.43996,1.83838 -5.67627,1.83838 -2.31446,0 -4.19679,-0.47119 -5.64697,-1.41357 -1.4502,-0.94238 -2.55372,-2.307128 -3.31055,-4.09424 -0.75684,-1.787103 -1.13526,-3.706046 -1.13525,-5.756836 -10e-6,-2.236315 0.42724,-4.186997 1.28173,-5.852051 0.85449,-1.665021 2.07031,-2.929668 3.64746,-3.793945 1.57714,-0.864237 3.31298,-1.296365 5.20752,-1.296387 2.14843,2.2e-5 3.95507,0.546896 5.41993,1.640625 1.46482,1.093769 2.48533,2.631853 3.06152,4.614258 l -2.79785,0.659179 c -0.49807,-1.562483 -1.22072,-2.700177 -2.16797,-3.413086 -0.94728,-0.712871 -2.13869,-1.069316 -3.57422,-1.069335 -1.6504,1.9e-5 -3.02979,0.395526 -4.13818,1.186523 -1.10841,0.791033 -1.88722,1.853044 -2.33643,3.186035 -0.44922,1.333022 -0.67383,2.707532 -0.67383,4.123535 0,1.826181 0.26611,3.420418 0.79834,4.782715 0.53222,1.36231 1.35986,2.380375 2.48291,3.0542 1.12304,0.67383 2.33886,1.01074 3.64746,1.01074 1.59179,0 2.93944,-0.45898 4.04297,-1.376952 1.1035,-0.917964 1.85057,-2.280267 2.24121,-4.086914 z"
         style="font-size:30px;fill:#000000;font-family:helvetica"
         id="path6147" />
    </g>
    <g
       style="font-size:30px;fill:#000000;font-family:helvetica"
       id="text6110">
      <path
         d="m 436.93671,187.2507 2.84179,0.71778 c -0.59572,2.33398 -1.6675,4.11377 -3.21533,5.33935 -1.54787,1.22559 -3.43995,1.83838 -5.67627,1.83838 -2.31446,0 -4.19678,-0.47119 -5.64697,-1.41357 -1.4502,-0.94239 -2.55372,-2.30713 -3.31055,-4.09424 -0.75684,-1.78711 -1.13525,-3.70605 -1.13525,-5.75684 0,-2.23631 0.42724,-4.187 1.28174,-5.85205 0.85449,-1.66502 2.0703,-2.92967 3.64746,-3.79394 1.57714,-0.86424 3.31298,-1.29637 5.20752,-1.29639 2.14842,2e-5 3.95506,0.54689 5.41992,1.64062 1.46482,1.09377 2.48533,2.63186 3.06152,4.61426 l -2.79785,0.65918 c -0.49806,-1.56248 -1.22072,-2.70018 -2.16797,-3.41308 -0.94728,-0.71288 -2.13868,-1.06932 -3.57422,-1.06934 -1.6504,2e-5 -3.02979,0.39553 -4.13818,1.18652 -1.1084,0.79104 -1.88721,1.85305 -2.33643,3.18604 -0.44922,1.33302 -0.67383,2.70753 -0.67382,4.12353 -10e-6,1.82618 0.2661,3.42042 0.79834,4.78272 0.53222,1.36231 1.35985,2.38037 2.48291,3.0542 1.12303,0.67383 2.33885,1.01074 3.64746,1.01074 1.59178,0 2.93944,-0.45898 4.04297,-1.37695 1.10349,-0.91797 1.85056,-2.28027 2.24121,-4.08692 z"
         style="font-size:30px;fill:#000000;font-family:helvetica"
         id="path6150" />
      <path
         d="m 443.38202,194.78 0,-21.47461 2.8418,0 0,8.81836 11.16211,0 0,-8.81836 2.84179,0 0,21.47461 -2.84179,0 0,-10.12207 -11.16211,0 0,10.12207 z"
         style="font-size:30px;fill:#000000;font-family:helvetica"
         id="path6152" />
      <path
         d="m 463.60419,196.52829 1.97754,-0.26367 c 0.22704,1.12061 0.6134,1.9281 1.15905,2.42248 0.54565,0.49439 1.21033,0.74158 1.99402,0.74158 0.93017,0 1.71569,-0.32226 2.35657,-0.9668 0.64086,-0.64452 0.96129,-1.44286 0.9613,-2.39502 -10e-6,-0.90819 -0.29664,-1.65709 -0.88989,-2.2467 -0.59327,-0.58959 -1.34766,-0.88439 -2.26318,-0.8844 -0.37354,1e-5 -0.83863,0.0733 -1.39527,0.21973 l 0.21973,-1.73584 c 0.13183,0.0147 0.23803,0.022 0.3186,0.022 0.84228,1e-5 1.60034,-0.21972 2.27417,-0.65918 0.67382,-0.43944 1.01074,-1.11693 1.01075,-2.03247 -1e-5,-0.72509 -0.24537,-1.32567 -0.73609,-1.80176 -0.49073,-0.47606 -1.12427,-0.7141 -1.90063,-0.71411 -0.76905,10e-6 -1.40992,0.24171 -1.92261,0.7251 -0.5127,0.48341 -0.84229,1.20851 -0.98877,2.17529 l -1.97754,-0.35156 c 0.2417,-1.32567 0.79101,-2.35289 1.64795,-3.08167 0.85693,-0.72874 1.9226,-1.09312 3.19702,-1.09314 0.8789,2e-5 1.68823,0.18862 2.42798,0.5658 0.73974,0.37721 1.30553,0.89174 1.69739,1.54358 0.39183,0.65187 0.58776,1.34401 0.58777,2.07641 -10e-6,0.69582 -0.18678,1.32936 -0.56031,1.90064 -0.37354,0.5713 -0.92652,1.0254 -1.65893,1.3623 0.95214,0.21974 1.69188,0.67567 2.21924,1.3678 0.52733,0.69215 0.791,1.55824 0.79101,2.59827 -10e-6,1.40625 -0.5127,2.59827 -1.53808,3.57605 -1.0254,0.97778 -2.32179,1.46667 -3.88916,1.46667 -1.41358,0 -2.58729,-0.42114 -3.52112,-1.26342 -0.93384,-0.84229 -1.46668,-1.9336 -1.59851,-3.27393 z"
         style="font-size:75%;baseline-shift:sub"
         id="path6154" />
    </g>
  </g>
  <cdml:cdml
     version="0.15">
    <cdml:info>
      <cdml:author_program
         version="0.13.0">BKchem</cdml:author_program>
    </cdml:info>
    <cdml:paper
       crop_margin="5"
       crop_svg="1"
       orientation="portrait"
       replace_minus="0"
       type="Legal"
       use_real_minus="0" />
    <cdml:viewport
       viewport="0.000000 0.000000 640.000000 480.000000" />
    <cdml:standard
       area_color=""
       font_family="helvetica"
       font_size="24"
       line_color="#000"
       line_width="0.06cm"
       paper_crop_margin="5"
       paper_crop_svg="1"
       paper_orientation="portrait"
       paper_type="Legal">
      <cdml:bond
         double-ratio="0.85"
         length="1.4cm"
         wedge-width="0.18cm"
         width="0.21cm" />
      <cdml:arrow
         length="1.6cm" />
      <cdml:atom
         show_hydrogens="0" />
    </cdml:standard>
    <cdml:molecule
       id="molecule35942"
       name="">
      <cdml:query
         id="atom84972"
         name="R"
         pos="center-last">
        <cdml:point
           x="8.125cm"
           y="4.461cm" />
      </cdml:query>
      <cdml:atom
         id="atom39563"
         name="C"
         valency="4">
        <cdml:point
           x="10.550cm"
           y="3.061cm" />
      </cdml:atom>
      <cdml:atom
         id="atom30413"
         name="Si"
         pos="center-first"
         valency="4">
        <cdml:point
           x="9.337cm"
           y="3.761cm" />
      </cdml:atom>
      <cdml:atom
         hydrogens="on"
         id="atom61583"
         name="C"
         pos="center-first"
         show="yes"
         valency="4">
        <cdml:point
           x="10.550cm"
           y="1.661cm" />
      </cdml:atom>
      <cdml:atom
         id="atom99610"
         name="C"
         valency="4">
        <cdml:point
           x="10.037cm"
           y="4.973cm" />
      </cdml:atom>
      <cdml:atom
         id="atom16215"
         name="C"
         valency="4">
        <cdml:point
           x="8.637cm"
           y="2.548cm" />
      </cdml:atom>
      <cdml:atom
         hydrogens="on"
         id="atom98324"
         name="C"
         pos="center-last"
         show="yes"
         valency="4">
        <cdml:point
           x="7.237cm"
           y="2.548cm" />
      </cdml:atom>
      <cdml:atom
         hydrogens="on"
         id="atom42720"
         name="C"
         pos="center-first"
         show="yes"
         valency="4">
        <cdml:point
           x="11.437cm"
           y="4.973cm" />
      </cdml:atom>
      <cdml:bond
         double_ratio="0.85"
         end="atom16215"
         id="bond29649"
         line_width="2.26548672566"
         start="atom30413"
         type="n1" />
      <cdml:bond
         double_ratio="0.85"
         end="atom39563"
         id="bond39598"
         line_width="2.26548672566"
         start="atom30413"
         type="n1" />
      <cdml:bond
         double_ratio="0.85"
         end="atom42720"
         id="bond88822"
         line_width="2.26548672566"
         start="atom99610"
         type="n1" />
      <cdml:bond
         double_ratio="0.85"
         end="atom84972"
         id="bond48636"
         line_width="2.26548672566"
         start="atom30413"
         type="n1" />
      <cdml:bond
         double_ratio="0.85"
         end="atom99610"
         id="bond94305"
         line_width="2.26548672566"
         start="atom30413"
         type="n1" />
      <cdml:bond
         double_ratio="0.85"
         end="atom61583"
         id="bond63012"
         line_width="2.26548672566"
         start="atom39563"
         type="n1" />
      <cdml:bond
         double_ratio="0.85"
         end="atom98324"
         id="bond76647"
         line_width="2.26548672566"
         start="atom16215"
         type="n1" />
    </cdml:molecule>
  </cdml:cdml>
</svg>
