<?xml version="1.0" encoding="UTF-8" standalone="no"?>
<svg
   xmlns:cdml="http://www.freesoftware.fsf.org/bkchem/cdml"
   xmlns:dc="http://purl.org/dc/elements/1.1/"
   xmlns:cc="http://creativecommons.org/ns#"
   xmlns:rdf="http://www.w3.org/1999/02/22-rdf-syntax-ns#"
   xmlns:svg="http://www.w3.org/2000/svg"
   xmlns="http://www.w3.org/2000/svg"
   xmlns:sodipodi="http://sodipodi.sourceforge.net/DTD/sodipodi-0.dtd"
   xmlns:inkscape="http://www.inkscape.org/namespaces/inkscape"
   height="64.35703mm"
   version="1.0"
   viewBox="0 0 278 243"
   width="73.62656mm"
   id="svg4516"
   inkscape:version="0.48.0 r9654"
   sodipodi:docname="Tesotf.svg">
  <metadata
     id="metadata4588">
    <rdf:RDF>
      <cc:Work
         rdf:about="">
        <dc:format>image/svg+xml</dc:format>
        <dc:type
           rdf:resource="http://purl.org/dc/dcmitype/StillImage" />
        <dc:title></dc:title>
      </cc:Work>
    </rdf:RDF>
  </metadata>
  <defs
     id="defs4586" />
  <sodipodi:namedview
     pagecolor="#ffffff"
     bordercolor="#666666"
     borderopacity="1"
     objecttolerance="10"
     gridtolerance="10"
     guidetolerance="10"
     inkscape:pageopacity="0"
     inkscape:pageshadow="2"
     inkscape:window-width="640"
     inkscape:window-height="480"
     id="namedview4584"
     showgrid="false"
     inkscape:zoom="1.153323"
     inkscape:cx="130.44075"
     inkscape:cy="114.01836"
     inkscape:window-x="0"
     inkscape:window-y="0"
     inkscape:window-maximized="0"
     inkscape:current-layer="svg4516" />
  <g
     font-family="Helvetica"
     font-size="12pt"
     stroke-linecap="round"
     transform="translate(-207,-39)"
     id="g4518">
    <g
       stroke="#000000"
       stroke-width="2.26548672566"
       id="g4520">
      <path
         style=""
         d="m 372,130.78 26.35001,-15.2"
         id="line4522" />
    </g>
    <g
       stroke="#000000"
       stroke-width="2.26548672566"
       id="g4524">
      <path
         style=""
         d="m 398.35001,115.58 0,-39.58"
         id="line4526" />
    </g>
    <g
       stroke="#000000"
       stroke-width="2.26548672566"
       id="g4528">
      <path
         style=""
         d="m 326.12,96.209999 -39.12,0"
         id="line4530" />
    </g>
    <g
       stroke="#000000"
       stroke-width="2.26548672566"
       id="g4532">
      <path
         style=""
         d="m 308.28,218.7 31.22,18.02"
         id="line4534" />
      <path
         style=""
         d="M 305.28,223.89999 336.5,241.92"
         id="line4536" />
    </g>
    <g
       stroke="#000000"
       stroke-width="2.26548672566"
       id="g4538">
      <path
         style=""
         d="m 360.04999,155 18.93002,32.77"
         id="line4540" />
    </g>
    <g
       stroke="#000000"
       stroke-width="2.26548672566"
       id="g4542">
      <path
         style=""
         d="M 341.57999,123 326.12,96.209999"
         id="line4544" />
    </g>
    <g
       stroke="#000000"
       stroke-width="2.26548672566"
       id="g4546">
      <path
         style=""
         d="M 306.78,221.3 273,240.8"
         id="line4548" />
    </g>
    <g
       stroke="#000000"
       stroke-width="2.26548672566"
       id="g4550">
      <path
         style=""
         d="m 306.78,181 0,40.3"
         id="line4552" />
    </g>
    <g
       stroke="#000000"
       stroke-width="2.26548672566"
       id="g4554">
      <path
         style=""
         d="M 378.98001,187.77 418,187.77"
         id="line4556" />
    </g>
    <g
       stroke="#000000"
       stroke-linecap="butt"
       stroke-width="2.26548672566"
       id="g4558">
      <path
         style=""
         d="M 340,149.25999 321,160.23"
         id="line4560" />
    </g>
    <g
       style="font-size:30px;fill:#000000;font-family:helvetica"
       id="text4562">
      <path
         d="m 342.64764,142.11058 2.68067,-0.23437 c 0.12695,1.07422 0.42236,1.95557 0.88623,2.64404 0.46386,0.68848 1.18407,1.24512 2.16064,1.66992 0.97656,0.42481 2.07519,0.63721 3.2959,0.63721 1.08397,0 2.041,-0.16113 2.8711,-0.4834 0.83006,-0.32226 1.44773,-0.76416 1.85302,-1.32568 0.40526,-0.56152 0.6079,-1.17432 0.60791,-1.83838 -10e-6,-0.67383 -0.19533,-1.2622 -0.58593,-1.76514 -0.39064,-0.50292 -1.03518,-0.92528 -1.9336,-1.26709 -0.57618,-0.2246 -1.8506,-0.57372 -3.82324,-1.04736 -1.97266,-0.47363 -3.3545,-0.9204 -4.14551,-1.34034 -1.02539,-0.53709 -1.78955,-1.2036 -2.29248,-1.99951 -0.50293,-0.79588 -0.7544,-1.68699 -0.75439,-2.67334 -1e-5,-1.08396 0.30761,-2.09715 0.92285,-3.03955 0.61523,-0.94236 1.51367,-1.65769 2.69531,-2.14599 1.18163,-0.48826 2.49511,-0.7324 3.94043,-0.73243 1.59179,3e-5 2.99559,0.25637 4.21143,0.76905 1.2158,0.51271 2.15086,1.26711 2.80517,2.26318 0.65428,0.99611 1.00584,2.12404 1.05469,3.38379 l -2.72461,0.20508 c -0.1465,-1.35741 -0.6421,-2.3828 -1.48682,-3.07617 -0.84474,-0.69334 -2.09229,-1.04002 -3.74267,-1.04004 -1.71876,2e-5 -2.9712,0.31496 -3.75733,0.94482 -0.78613,0.6299 -1.1792,1.38918 -1.1792,2.27783 0,0.7715 0.27832,1.40627 0.83497,1.9043 0.54686,0.49806 1.97509,1.00831 4.28466,1.53076 2.30956,0.52247 3.89403,0.97902 4.75342,1.36963 1.24999,0.57618 2.17284,1.30616 2.76856,2.18994 0.59568,0.8838 0.89353,1.90186 0.89355,3.0542 -2e-5,1.14258 -0.32717,2.21924 -0.98144,3.22998 -0.65432,1.01075 -1.59426,1.79688 -2.81983,2.3584 -1.2256,0.56152 -2.60499,0.84229 -4.13818,0.84229 -1.94337,0 -3.57179,-0.28321 -4.88526,-0.84961 -1.31348,-0.56641 -2.34375,-1.41846 -3.09082,-2.55616 -0.74707,-1.13769 -1.14013,-2.42431 -1.1792,-3.85986 z"
         style="font-size:30px;fill:#000000;font-family:helvetica"
         id="path4602" />
      <path
         d="m 363.33124,130.56761 0,-3.03222 2.63672,0 0,3.03222 z m 0,18.44238 0,-15.55664 2.63672,0 0,15.55664 z"
         style="font-size:30px;fill:#000000;font-family:helvetica"
         id="path4604" />
    </g>
    <g
       style="font-size:30px;fill:#000000;font-family:helvetica"
       id="text4564">
      <path
         d="m 403.93671,62.190704 2.84179,0.717774 c -0.59572,2.333989 -1.6675,4.113772 -3.21533,5.339355 -1.54787,1.225586 -3.43995,1.838379 -5.67627,1.838379 -2.31446,0 -4.19678,-0.471191 -5.64697,-1.413574 -1.4502,-0.942381 -2.55372,-2.307126 -3.31055,-4.094238 -0.75684,-1.787103 -1.13525,-3.706046 -1.13525,-5.756836 0,-2.236315 0.42724,-4.186997 1.28174,-5.852051 0.85449,-1.665021 2.0703,-2.929668 3.64746,-3.793945 1.57714,-0.864237 3.31298,-1.296365 5.20752,-1.296387 2.14842,2.2e-5 3.95506,0.546896 5.41992,1.640625 1.46482,1.093769 2.48533,2.631853 3.06152,4.614258 l -2.79785,0.659179 c -0.49806,-1.562483 -1.22072,-2.700177 -2.16797,-3.413086 -0.94728,-0.712871 -2.13868,-1.069316 -3.57422,-1.069335 -1.6504,1.9e-5 -3.02979,0.395526 -4.13818,1.186523 -1.1084,0.791033 -1.88721,1.853044 -2.33643,3.186035 -0.44922,1.333022 -0.67383,2.707532 -0.67382,4.123535 -10e-6,1.826181 0.2661,3.420418 0.79834,4.782715 0.53222,1.36231 1.35985,2.380375 2.48291,3.054199 1.12303,0.673831 2.33885,1.010745 3.64746,1.010743 1.59178,2e-6 2.93944,-0.458982 4.04297,-1.376954 1.10349,-0.917964 1.85056,-2.280267 2.24121,-4.086914 z"
         style="font-size:30px;fill:#000000;font-family:helvetica"
         id="path4607" />
      <path
         d="m 410.38202,69.720001 0,-21.474609 2.8418,0 0,8.818359 11.16211,0 0,-8.818359 2.84179,0 0,21.474609 -2.84179,0 0,-10.12207 -11.16211,0 0,10.12207 z"
         style="font-size:30px;fill:#000000;font-family:helvetica"
         id="path4609" />
      <path
         d="m 430.60419,71.468292 1.97754,-0.263672 c 0.22704,1.120609 0.6134,1.928104 1.15905,2.422486 0.54565,0.494386 1.21033,0.741578 1.99402,0.741577 0.93017,10e-7 1.71569,-0.322264 2.35657,-0.966797 0.64086,-0.644528 0.96129,-1.442867 0.9613,-2.39502 -10e-6,-0.908197 -0.29664,-1.657098 -0.88989,-2.246704 -0.59327,-0.589592 -1.34766,-0.884391 -2.26318,-0.884399 -0.37354,8e-6 -0.83863,0.07325 -1.39527,0.219727 l 0.21973,-1.73584 c 0.13183,0.01466 0.23803,0.02198 0.3186,0.02197 0.84228,1e-5 1.60034,-0.219717 2.27417,-0.659179 0.67382,-0.439443 1.01074,-1.116933 1.01075,-2.032471 -1e-5,-0.725085 -0.24537,-1.32567 -0.73609,-1.801758 -0.49073,-0.47606 -1.12427,-0.714097 -1.90063,-0.714111 -0.76905,1.4e-5 -1.40992,0.241713 -1.92261,0.725097 -0.5127,0.483412 -0.84229,1.208509 -0.98877,2.175293 l -1.97754,-0.351562 c 0.2417,-1.32567 0.79101,-2.352891 1.64795,-3.081665 0.85693,-0.728744 1.9226,-1.093124 3.19702,-1.09314 0.8789,1.6e-5 1.68823,0.188615 2.42798,0.565796 0.73974,0.377213 1.30553,0.891738 1.69739,1.543579 0.39183,0.651869 0.58776,1.344007 0.58777,2.076416 -10e-6,0.695812 -0.18678,1.329357 -0.56031,1.900635 -0.37354,0.571299 -0.92652,1.0254 -1.65893,1.362305 0.95214,0.219735 1.69188,0.675667 2.21924,1.367798 0.52733,0.692145 0.791,1.558233 0.79101,2.598266 -10e-6,1.406253 -0.5127,2.598269 -1.53808,3.57605 -1.0254,0.977783 -2.32179,1.466674 -3.88916,1.466675 -1.41358,-10e-7 -2.58729,-0.421143 -3.52112,-1.263428 -0.93384,-0.842283 -1.46668,-1.933591 -1.59851,-3.273926 z"
         style="font-size:75%;baseline-shift:sub"
         id="path4611" />
    </g>
    <g
       style="font-size:30px;fill:#000000;font-family:helvetica"
       id="text4568">
      <path
         d="m 226.70235,103.21 0,-21.47461 2.84179,0 0,8.818359 11.16211,0 0,-8.818359 2.8418,0 0,21.47461 -2.8418,0 0,-10.122071 -11.16211,0 0,10.122071 z"
         style="font-size:30px;fill:#000000;font-family:helvetica"
         id="path4614" />
      <path
         d="m 246.92451,104.95829 1.97754,-0.26367 c 0.22705,1.12061 0.6134,1.9281 1.15906,2.42248 0.54565,0.49439 1.21032,0.74158 1.99402,0.74158 0.93017,0 1.71569,-0.32226 2.35657,-0.9668 0.64086,-0.64452 0.96129,-1.44286 0.9613,-2.39502 -1e-5,-0.90819 -0.29664,-1.65709 -0.88989,-2.2467 -0.59327,-0.58959 -1.34766,-0.88439 -2.26319,-0.8844 -0.37354,1e-5 -0.83862,0.0733 -1.39526,0.21973 l 0.21973,-1.735842 c 0.13183,0.01466 0.23803,0.02198 0.3186,0.02197 0.84228,1e-5 1.60034,-0.219717 2.27417,-0.65918 0.67382,-0.439442 1.01073,-1.116932 1.01074,-2.03247 -1e-5,-0.725085 -0.24537,-1.32567 -0.73608,-1.801758 -0.49073,-0.47606 -1.12427,-0.714097 -1.90064,-0.714111 -0.76904,1.4e-5 -1.40991,0.241713 -1.9226,0.725097 -0.5127,0.483412 -0.84229,1.208509 -0.98877,2.175293 l -1.97754,-0.351562 c 0.2417,-1.32567 0.79101,-2.352891 1.64795,-3.081665 0.85693,-0.728744 1.9226,-1.093124 3.19702,-1.09314 0.8789,1.6e-5 1.68822,0.188615 2.42798,0.565796 0.73973,0.377212 1.30553,0.891738 1.69739,1.543579 0.39183,0.651869 0.58775,1.344007 0.58776,2.076416 -10e-6,0.695812 -0.18677,1.329356 -0.5603,1.900635 -0.37354,0.571298 -0.92652,1.0254 -1.65893,1.3623 0.95213,0.21974 1.69188,0.67567 2.21923,1.3678 0.52734,0.69215 0.79101,1.55824 0.79102,2.59827 -10e-6,1.40625 -0.51271,2.59827 -1.53809,3.57605 -1.0254,0.97778 -2.32178,1.46667 -3.88916,1.46667 -1.41358,0 -2.58728,-0.42114 -3.52111,-1.26342 -0.93384,-0.84229 -1.46668,-1.93359 -1.59852,-3.27393 z"
         style="font-size:75%;baseline-shift:sub"
         id="path4616" />
      <path
         d="m 276.14082,95.680702 2.8418,0.717774 c -0.59572,2.333988 -1.6675,4.113774 -3.21533,5.339354 -1.54787,1.22559 -3.43996,1.83838 -5.67627,1.83838 -2.31446,0 -4.19679,-0.47119 -5.64697,-1.41357 -1.4502,-0.94239 -2.55372,-2.30713 -3.31055,-4.094242 -0.75684,-1.787103 -1.13526,-3.706046 -1.13525,-5.756836 -10e-6,-2.236315 0.42724,-4.186997 1.28173,-5.852051 0.85449,-1.665021 2.07031,-2.929668 3.64746,-3.793946 1.57714,-0.864236 3.31298,-1.296364 5.20752,-1.296386 2.14843,2.2e-5 3.95507,0.546896 5.41993,1.640625 1.46482,1.093769 2.48533,2.631853 3.06152,4.614258 l -2.79785,0.659179 c -0.49807,-1.562483 -1.22072,-2.700177 -2.16797,-3.413086 -0.94728,-0.712871 -2.13869,-1.069316 -3.57422,-1.069336 -1.6504,2e-5 -3.02979,0.395527 -4.13818,1.186524 -1.10841,0.791033 -1.88722,1.853044 -2.33643,3.186035 -0.44922,1.333022 -0.67383,2.707532 -0.67383,4.123535 0,1.826181 0.26611,3.420418 0.79834,4.782715 0.53222,1.362309 1.35986,2.380375 2.48291,3.054202 1.12304,0.67383 2.33886,1.01074 3.64746,1.01074 1.59179,0 2.93944,-0.45898 4.04297,-1.376954 1.1035,-0.917964 1.85057,-2.280267 2.24121,-4.086914 z"
         style="font-size:30px;fill:#000000;font-family:helvetica"
         id="path4618" />
    </g>
    <g
       style="font-size:30px;fill:#000000;font-family:helvetica"
       id="text4572">
      <path
         d="m 436.93671,187.24071 2.84179,0.71777 c -0.59572,2.33399 -1.6675,4.11377 -3.21533,5.33936 -1.54787,1.22558 -3.43995,1.83837 -5.67627,1.83838 -2.31446,-1e-5 -4.19678,-0.4712 -5.64697,-1.41358 -1.4502,-0.94238 -2.55372,-2.30712 -3.31055,-4.09424 -0.75684,-1.7871 -1.13525,-3.70604 -1.13525,-5.75683 0,-2.23632 0.42724,-4.187 1.28174,-5.85205 0.85449,-1.66502 2.0703,-2.92967 3.64746,-3.79395 1.57714,-0.86424 3.31298,-1.29636 5.20752,-1.29639 2.14842,3e-5 3.95506,0.5469 5.41992,1.64063 1.46482,1.09377 2.48533,2.63185 3.06152,4.61426 l -2.79785,0.65918 c -0.49806,-1.56249 -1.22072,-2.70018 -2.16797,-3.41309 -0.94728,-0.71287 -2.13868,-1.06932 -3.57422,-1.06934 -1.6504,2e-5 -3.02979,0.39553 -4.13818,1.18653 -1.1084,0.79103 -1.88721,1.85304 -2.33643,3.18603 -0.44922,1.33302 -0.67383,2.70754 -0.67382,4.12354 -10e-6,1.82618 0.2661,3.42042 0.79834,4.78271 0.53222,1.36231 1.35985,2.38038 2.48291,3.0542 1.12303,0.67383 2.33885,1.01075 3.64746,1.01074 1.59178,1e-5 2.93944,-0.45898 4.04297,-1.37695 1.10349,-0.91796 1.85056,-2.28027 2.24121,-4.08691 z"
         style="font-size:30px;fill:#000000;font-family:helvetica"
         id="path4621" />
      <path
         d="m 443.38202,194.77 0,-21.47461 2.8418,0 0,8.81836 11.16211,0 0,-8.81836 2.84179,0 0,21.47461 -2.84179,0 0,-10.12207 -11.16211,0 0,10.12207 z"
         style="font-size:30px;fill:#000000;font-family:helvetica"
         id="path4623" />
      <path
         d="m 463.60419,196.5183 1.97754,-0.26368 c 0.22704,1.12061 0.6134,1.92811 1.15905,2.42249 0.54565,0.49439 1.21033,0.74158 1.99402,0.74158 0.93017,0 1.71569,-0.32227 2.35657,-0.9668 0.64086,-0.64453 0.96129,-1.44287 0.9613,-2.39502 -10e-6,-0.9082 -0.29664,-1.6571 -0.88989,-2.2467 -0.59327,-0.5896 -1.34766,-0.8844 -2.26318,-0.8844 -0.37354,0 -0.83863,0.0733 -1.39527,0.21972 l 0.21973,-1.73584 c 0.13183,0.0147 0.23803,0.022 0.3186,0.022 0.84228,0 1.60034,-0.21972 2.27417,-0.65918 0.67382,-0.43945 1.01074,-1.11694 1.01075,-2.03248 -1e-5,-0.72508 -0.24537,-1.32567 -0.73609,-1.80175 -0.49073,-0.47606 -1.12427,-0.7141 -1.90063,-0.71411 -0.76905,1e-5 -1.40992,0.24171 -1.92261,0.72509 -0.5127,0.48342 -0.84229,1.20851 -0.98877,2.1753 l -1.97754,-0.35157 c 0.2417,-1.32567 0.79101,-2.35289 1.64795,-3.08166 0.85693,-0.72875 1.9226,-1.09312 3.19702,-1.09314 0.8789,2e-5 1.68823,0.18861 2.42798,0.5658 0.73974,0.37721 1.30553,0.89173 1.69739,1.54357 0.39183,0.65187 0.58776,1.34401 0.58777,2.07642 -10e-6,0.69581 -0.18678,1.32936 -0.56031,1.90064 -0.37354,0.57129 -0.92652,1.02539 -1.65893,1.3623 0.95214,0.21973 1.69188,0.67567 2.21924,1.3678 0.52733,0.69214 0.791,1.55823 0.79101,2.59826 -10e-6,1.40626 -0.5127,2.59827 -1.53808,3.57605 -1.0254,0.97779 -2.32179,1.46668 -3.88916,1.46668 -1.41358,0 -2.58729,-0.42114 -3.52112,-1.26343 -0.93384,-0.84228 -1.46668,-1.93359 -1.59851,-3.27392 z"
         style="font-size:75%;baseline-shift:sub"
         id="path4625" />
    </g>
    <g
       style="font-size:30px;fill:#000000;font-family:helvetica"
       id="text4576">
      <path
         d="m 294.75018,164.98102 c 0,-3.56444 0.95703,-6.35497 2.8711,-8.37158 1.91405,-2.01658 4.38475,-3.02488 7.41211,-3.02491 1.9824,3e-5 3.76951,0.47366 5.36132,1.4209 1.59178,0.94729 2.80516,2.26809 3.64014,3.9624 0.83494,1.69436 1.25242,3.61574 1.25244,5.76416 -2e-5,2.17775 -0.43947,4.12599 -1.31836,5.84473 -0.87892,1.71875 -2.12404,3.02002 -3.73535,3.90381 -1.61134,0.88379 -3.34962,1.32568 -5.21484,1.32568 -2.0215,0 -3.82814,-0.48828 -5.41992,-1.46484 -1.59181,-0.97656 -2.79786,-2.30957 -3.61817,-3.99902 -0.82031,-1.68945 -1.23047,-3.47656 -1.23047,-5.36133 z m 2.92969,0.0439 c 0,2.5879 0.6958,4.62647 2.0874,6.11573 1.3916,1.48926 3.1372,2.23388 5.23682,2.23388 2.13866,0 3.89891,-0.75195 5.28076,-2.25586 1.38182,-1.5039 2.07274,-3.63768 2.07275,-6.40136 -10e-6,-1.74804 -0.29542,-3.27392 -0.88623,-4.57764 -0.59083,-1.30369 -1.45509,-2.31444 -2.59277,-3.03223 -1.13771,-0.71775 -2.41456,-1.07664 -3.83057,-1.07666 -2.01172,2e-5 -3.74268,0.69094 -5.19287,2.07276 -1.4502,1.38185 -2.17529,3.68898 -2.17529,6.92138 z"
         style="font-size:30px;fill:#000000;font-family:helvetica"
         id="path4628" />
    </g>
    <g
       style="font-size:30px;fill:#000000;font-family:helvetica"
       id="text4578">
      <path
         d="m 340.75018,244.27101 c 0,-3.56444 0.95703,-6.35496 2.8711,-8.37158 1.91405,-2.01658 4.38475,-3.02488 7.41211,-3.0249 1.9824,2e-5 3.76951,0.47365 5.36132,1.4209 1.59178,0.94728 2.80516,2.26808 3.64014,3.9624 0.83494,1.69435 1.25242,3.61573 1.25244,5.76416 -2e-5,2.17774 -0.43947,4.12598 -1.31836,5.84472 -0.87892,1.71876 -2.12404,3.02003 -3.73535,3.90381 -1.61134,0.88379 -3.34962,1.32569 -5.21484,1.32569 -2.0215,0 -3.82814,-0.48828 -5.41992,-1.46485 -1.59181,-0.97656 -2.79786,-2.30956 -3.61817,-3.99902 -0.82031,-1.68945 -1.23047,-3.47655 -1.23047,-5.36133 z m 2.92969,0.044 c 0,2.5879 0.6958,4.62647 2.0874,6.11572 1.3916,1.48926 3.1372,2.23389 5.23682,2.23389 2.13866,0 3.89891,-0.75195 5.28076,-2.25586 1.38182,-1.5039 2.07274,-3.63769 2.07275,-6.40137 -10e-6,-1.74803 -0.29542,-3.27391 -0.88623,-4.57764 -0.59083,-1.30369 -1.45509,-2.31443 -2.59277,-3.03222 -1.13771,-0.71776 -2.41456,-1.07664 -3.83057,-1.07666 -2.01172,2e-5 -3.74268,0.69093 -5.19287,2.07275 -1.4502,1.38185 -2.17529,3.68898 -2.17529,6.92139 z"
         style="font-size:30px;fill:#000000;font-family:helvetica"
         id="path4631" />
    </g>
    <g
       style="font-size:30px;fill:#000000;font-family:helvetica"
       id="text4580">
      <path
         d="m 215.76094,254.73 0,-21.47461 14.48731,0 0,2.53418 -11.64551,0 0,6.65039 10.07812,0 0,2.53418 -10.07812,0 0,9.75586 z"
         style="font-size:30px;fill:#000000;font-family:helvetica"
         id="path4634" />
      <path
         d="m 232.58467,256.47829 1.97754,-0.26368 c 0.22705,1.12061 0.6134,1.92811 1.15906,2.42249 0.54565,0.49439 1.21032,0.74158 1.99402,0.74158 0.93017,0 1.71569,-0.32227 2.35656,-0.9668 0.64086,-0.64453 0.9613,-1.44287 0.96131,-2.39502 -1e-5,-0.9082 -0.29664,-1.6571 -0.8899,-2.2467 -0.59326,-0.5896 -1.34766,-0.88439 -2.26318,-0.8844 -0.37354,1e-5 -0.83863,0.0733 -1.39526,0.21972 l 0.21972,-1.73584 c 0.13183,0.0147 0.23804,0.022 0.31861,0.022 0.84228,1e-5 1.60033,-0.21972 2.27417,-0.65918 0.67382,-0.43945 1.01073,-1.11694 1.01074,-2.03247 -1e-5,-0.72509 -0.24537,-1.32567 -0.73608,-1.80176 -0.49073,-0.47606 -1.12428,-0.7141 -1.90064,-0.71411 -0.76905,1e-5 -1.40992,0.24171 -1.92261,0.72509 -0.5127,0.48342 -0.84228,1.20851 -0.98877,2.1753 l -1.97754,-0.35156 c 0.2417,-1.32567 0.79102,-2.3529 1.64795,-3.08167 0.85693,-0.72874 1.92261,-1.09312 3.19703,-1.09314 0.8789,2e-5 1.68822,0.18862 2.42797,0.5658 0.73974,0.37721 1.30554,0.89173 1.69739,1.54358 0.39184,0.65186 0.58776,1.344 0.58777,2.07641 -1e-5,0.69581 -0.18678,1.32936 -0.5603,1.90064 -0.37355,0.5713 -0.92653,1.0254 -1.65894,1.3623 0.95214,0.21974 1.69189,0.67567 2.21924,1.3678 0.52733,0.69214 0.791,1.55823 0.79102,2.59827 -2e-5,1.40625 -0.51271,2.59826 -1.53809,3.57605 -1.0254,0.97778 -2.32178,1.46667 -3.88916,1.46667 -1.41358,0 -2.58728,-0.42114 -3.52112,-1.26343 -0.93384,-0.84228 -1.46667,-1.93359 -1.59851,-3.27392 z"
         style="font-size:75%;baseline-shift:sub"
         id="path4636" />
      <path
         d="m 261.80098,247.2007 2.8418,0.71777 c -0.59573,2.33399 -1.6675,4.11377 -3.21534,5.33936 -1.54786,1.22558 -3.43995,1.83838 -5.67627,1.83838 -2.31446,0 -4.19678,-0.47119 -5.64697,-1.41358 -1.4502,-0.94238 -2.55371,-2.30712 -3.31054,-4.09424 -0.75684,-1.7871 -1.13526,-3.70604 -1.13526,-5.75683 0,-2.23632 0.42725,-4.187 1.28174,-5.85205 0.85449,-1.66502 2.07031,-2.92967 3.64746,-3.79395 1.57714,-0.86423 3.31298,-1.29636 5.20752,-1.29638 2.14842,2e-5 3.95506,0.54689 5.41992,1.64062 1.46483,1.09377 2.48533,2.63185 3.06153,4.61426 l -2.79786,0.65918 c -0.49806,-1.56249 -1.22072,-2.70018 -2.16796,-3.41309 -0.94728,-0.71287 -2.13869,-1.06931 -3.57422,-1.06933 -1.6504,2e-5 -3.0298,0.39552 -4.13819,1.18652 -1.1084,0.79103 -1.88721,1.85304 -2.33642,3.18603 -0.44923,1.33303 -0.67384,2.70754 -0.67383,4.12354 -1e-5,1.82618 0.26611,3.42042 0.79834,4.78271 0.53222,1.36231 1.35986,2.38038 2.48291,3.0542 1.12304,0.67383 2.33886,1.01075 3.64746,1.01075 1.59178,0 2.93944,-0.45899 4.04297,-1.37696 1.1035,-0.91796 1.85057,-2.28026 2.24121,-4.08691 z"
         style="font-size:30px;fill:#000000;font-family:helvetica"
         id="path4638" />
    </g>
  </g>
  <cdml:cdml
     version="0.15">
    <cdml:info>
      <cdml:author_program
         version="0.13.0">BKchem</cdml:author_program>
    </cdml:info>
    <cdml:paper
       crop_margin="5"
       crop_svg="1"
       orientation="portrait"
       replace_minus="0"
       type="Legal"
       use_real_minus="0" />
    <cdml:viewport
       viewport="0.000000 0.000000 640.000000 480.000000" />
    <cdml:standard
       area_color=""
       font_family="helvetica"
       font_size="24"
       line_color="#000"
       line_width="0.06cm"
       paper_crop_margin="5"
       paper_crop_svg="1"
       paper_orientation="portrait"
       paper_type="Legal">
      <cdml:bond
         double-ratio="0.85"
         length="1.4cm"
         wedge-width="0.18cm"
         width="0.21cm" />
      <cdml:arrow
         length="1.6cm" />
      <cdml:atom
         show_hydrogens="0" />
    </cdml:standard>
    <cdml:molecule
       id="molecule7557"
       name="">
      <cdml:atom
         id="atom80327"
         name="C"
         valency="4">
        <cdml:point
           x="10.550cm"
           y="3.061cm" />
      </cdml:atom>
      <cdml:atom
         id="atom94323"
         name="Si"
         pos="center-first"
         valency="4">
        <cdml:point
           x="9.337cm"
           y="3.761cm" />
      </cdml:atom>
      <cdml:atom
         hydrogens="on"
         id="atom87540"
         name="C"
         pos="center-first"
         show="yes"
         valency="4">
        <cdml:point
           x="10.550cm"
           y="1.661cm" />
      </cdml:atom>
      <cdml:atom
         id="atom38603"
         name="C"
         valency="4">
        <cdml:point
           x="10.037cm"
           y="4.973cm" />
      </cdml:atom>
      <cdml:atom
         id="atom59420"
         name="C"
         valency="4">
        <cdml:point
           x="8.637cm"
           y="2.548cm" />
      </cdml:atom>
      <cdml:atom
         hydrogens="on"
         id="atom59756"
         name="C"
         pos="center-last"
         show="yes"
         valency="4">
        <cdml:point
           x="7.237cm"
           y="2.548cm" />
      </cdml:atom>
      <cdml:atom
         hydrogens="on"
         id="atom85837"
         name="C"
         pos="center-first"
         show="yes"
         valency="4">
        <cdml:point
           x="11.437cm"
           y="4.973cm" />
      </cdml:atom>
      <cdml:atom
         id="atom64835"
         name="O"
         pos="center-last"
         valency="2">
        <cdml:point
           x="8.125cm"
           y="4.461cm" />
      </cdml:atom>
      <cdml:atom
         id="atom11987"
         name="C"
         valency="4">
        <cdml:point
           x="8.125cm"
           y="5.861cm" />
      </cdml:atom>
      <cdml:atom
         id="atom89628"
         name="O"
         pos="center-first"
         valency="2">
        <cdml:point
           x="9.337cm"
           y="6.561cm" />
      </cdml:atom>
      <cdml:text
         id="atom52999"
         pos="center-last">
        <cdml:ftext>F<cdml:sub>3</cdml:sub>
C</cdml:ftext>
        <cdml:point
           x="6.913cm"
           y="6.561cm" />
      </cdml:text>
      <cdml:bond
         double_ratio="0.85"
         end="atom80327"
         id="bond69573"
         line_width="2.26548672566"
         start="atom94323"
         type="n1" />
      <cdml:bond
         double_ratio="0.85"
         end="atom87540"
         id="bond9794"
         line_width="2.26548672566"
         start="atom80327"
         type="n1" />
      <cdml:bond
         double_ratio="0.85"
         end="atom59756"
         id="bond12249"
         line_width="2.26548672566"
         start="atom59420"
         type="n1" />
      <cdml:bond
         bond_width="7.92920353982"
         center="yes"
         double_ratio="0.85"
         end="atom89628"
         id="bond29586"
         line_width="2.26548672566"
         start="atom11987"
         type="n2" />
      <cdml:bond
         double_ratio="0.85"
         end="atom38603"
         id="bond79898"
         line_width="2.26548672566"
         start="atom94323"
         type="n1" />
      <cdml:bond
         double_ratio="0.85"
         end="atom59420"
         id="bond92112"
         line_width="2.26548672566"
         start="atom94323"
         type="n1" />
      <cdml:bond
         double_ratio="0.85"
         end="atom52999"
         id="bond22329"
         line_width="2.26548672566"
         start="atom11987"
         type="n1" />
      <cdml:bond
         double_ratio="0.85"
         end="atom11987"
         id="bond84640"
         line_width="2.26548672566"
         start="atom64835"
         type="n1" />
      <cdml:bond
         double_ratio="0.85"
         end="atom85837"
         id="bond68745"
         line_width="2.26548672566"
         start="atom38603"
         type="n1" />
      <cdml:bond
         double_ratio="0.85"
         end="atom64835"
         id="bond58939"
         line_width="2.26548672566"
         start="atom94323"
         type="n1" />
    </cdml:molecule>
  </cdml:cdml>
</svg>
